<svg viewBox="0 0 1000 1000" version="1.1" xmlns="http://www.w3.org/2000/svg">
  <path fill="#F5F2EB" stroke="none" stroke-width="1" stroke-linecap="round" stroke-linejoin="round" d="M889.2 774.4000000000001C889.2 774.4000000000001 861.2 810 861.2 810 861.2 810 760 894 760 894 760 894 679.6 944 679.6 944 679.6 944 546.4 978.8000000000001 546.4 978.8000000000001 546.4 978.8000000000001 397.6 973.2 397.6 973.2 397.6 973.2 326.8 953.6 326.8 953.6 326.8 953.6 214.8 884.4000000000001 214.8 884.4000000000001 214.8 884.4000000000001 126.4 792.4000000000001 126.4 792.4000000000001 126.4 792.4000000000001 110 756 110 756 110 756 188.4 813.6 188.4 813.6 188.4 813.6 282.40000000000003 854 282.40000000000003 854 282.40000000000003 854 386 877.2 386 877.2 386 877.2 439.20000000000005 879.6 439.20000000000005 879.6 439.20000000000005 879.6 513.6 868 513.6 868 513.6 868 581.2 845.6 581.2 845.6 581.2 845.6 671.2 838 671.2 838 671.2 838 814 798 814 798 814 798 887.6 767.6 887.6 767.6 887.6 767.6 936.8000000000001 696.8000000000001 936.8000000000001 696.8000000000001 936.8000000000001 696.8000000000001 950.8000000000001 656 950.8000000000001 656 950.8000000000001 656 968.8000000000001 560 968.8000000000001 560 968.8000000000001 560 974.4000000000001 502 974.4000000000001 502 974.4000000000001 502 975.2 418.8 975.2 418.8 975.2 418.8 964.8000000000001 368.8 964.8000000000001 368.8 964.8000000000001 368.8 906 503.20000000000005 906 503.20000000000005 906 503.20000000000005 868.8000000000001 562.4 868.8000000000001 562.4 868.8000000000001 562.4 794 643.2 794 643.2 794 643.2 708.4000000000001 708.4000000000001 708.4000000000001 708.4000000000001 708.4000000000001 708.4000000000001 626.4000000000001 745.2 626.4000000000001 745.2 626.4000000000001 745.2 546 718.8000000000001 546 718.8000000000001 546 718.8000000000001 449.20000000000005 654.8000000000001 449.20000000000005 654.8000000000001 449.20000000000005 654.8000000000001 402.40000000000003 606.4 402.40000000000003 606.4 402.40000000000003 606.4 376.8 565.2 376.8 565.2 376.8 565.2 358 518 358 518 358 518 345.6 477.6 345.6 477.6 345.6 477.6 347.6 443.20000000000005 347.6 443.20000000000005 347.6 443.20000000000005 361.6 460.8 361.6 460.8 361.6 460.8 413.20000000000005 534.4 413.20000000000005 534.4 413.20000000000005 534.4 449.20000000000005 573.2 449.20000000000005 573.2 449.20000000000005 573.2 481.6 602.8000000000001 481.6 602.8000000000001 481.6 602.8000000000001 529.2 634.4000000000001 529.2 634.4000000000001 529.2 634.4000000000001 575.6 651.6 575.6 651.6 575.6 651.6 605.6 656.8000000000001 605.6 656.8000000000001 605.6 656.8000000000001 620.8000000000001 654.8000000000001 620.8000000000001 654.8000000000001 620.8000000000001 654.8000000000001 626.8000000000001 644.4000000000001 626.8000000000001 644.4000000000001 626.8000000000001 644.4000000000001 572.8000000000001 596.4 572.8000000000001 596.4 572.8000000000001 596.4 538.8000000000001 557.6 538.8000000000001 557.6 538.8000000000001 557.6 507.6 514.4 507.6 514.4 507.6 514.4 564 529.2 564 529.2 564 529.2 614.4000000000001 535.2 614.4000000000001 535.2 614.4000000000001 535.2 664.4000000000001 530 664.4000000000001 530 664.4000000000001 530 744 514.4 744 514.4 744 514.4 793.2 490 793.2 490 793.2 490 855.2 450.8 855.2 450.8 855.2 450.8 881.2 432.40000000000003 881.2 432.40000000000003 881.2 432.40000000000003 933.6 378.8 933.6 378.8 933.6 378.8 958 347.20000000000005 958 347.20000000000005 958 347.20000000000005 951.6 317.6 951.6 317.6 951.6 317.6 922.4000000000001 256 922.4000000000001 256 922.4000000000001 256 918.4000000000001 246.8 918.4000000000001 246.8 918.4000000000001 246.8 905.2 245.20000000000002 905.2 245.20000000000002 905.2 245.20000000000002 892 260.40000000000003 892 260.40000000000003 892 260.40000000000003 862.8000000000001 312.40000000000003 862.8000000000001 312.40000000000003 862.8000000000001 312.40000000000003 842.4000000000001 338.40000000000003 842.4000000000001 338.40000000000003 842.4000000000001 338.40000000000003 815.6 367.6 815.6 367.6 815.6 367.6 782.8000000000001 402.40000000000003 782.8000000000001 402.40000000000003 782.8000000000001 402.40000000000003 729.6 450 729.6 450 729.6 450 680.4000000000001 482.40000000000003 680.4000000000001 482.40000000000003 680.4000000000001 482.40000000000003 651.6 496.40000000000003 651.6 496.40000000000003 651.6 496.40000000000003 602.4 508.40000000000003 602.4 508.40000000000003 602.4 508.40000000000003 573.2 510.8 573.2 510.8 573.2 510.8 561.2 510.8 561.2 510.8 561.2 510.8 524.8000000000001 501.20000000000005 524.8000000000001 501.20000000000005 524.8000000000001 501.20000000000005 489.20000000000005 482.8 489.20000000000005 482.8 489.20000000000005 482.8 472.8 418 472.8 418 472.8 418 469.20000000000005 371.6 469.20000000000005 371.6 469.20000000000005 371.6 480 314.40000000000003 480 314.40000000000003 480 314.40000000000003 499.20000000000005 276.40000000000003 499.20000000000005 276.40000000000003 499.20000000000005 276.40000000000003 526 239.20000000000002 526 239.20000000000002 526 239.20000000000002 536.4 226.4 536.4 226.4 536.4 226.4 572.8000000000001 198.8 572.8000000000001 198.8 572.8000000000001 198.8 610.8000000000001 181.60000000000002 610.8000000000001 181.60000000000002 610.8000000000001 181.60000000000002 651.6 173.60000000000002 651.6 173.60000000000002 651.6 173.60000000000002 701.6 172.4 701.6 172.4 701.6 172.4 748 179.20000000000002 748 179.20000000000002 748 179.20000000000002 812.4000000000001 197.60000000000002 812.4000000000001 198 812.4000000000001 198.4 860.8000000000001 225.20000000000002 860.8000000000001 225.20000000000002 860.8000000000001 225.20000000000002 892.4000000000001 245.60000000000002 892.4000000000001 245.60000000000002 892.4000000000001 245.60000000000002 906.4000000000001 238.8 906.4000000000001 238.8 906.4000000000001 238.8 924 243.20000000000002 924 243.20000000000002 924 243.20000000000002 958.8000000000001 320 958.8000000000001 320 958.8000000000001 320 977.6 402.40000000000003 977.6 402.40000000000003 977.6 402.40000000000003 981.6 419.20000000000005 981.6 419.20000000000005 981.6 419.20000000000005 978 532 978 532 978 532 958.4000000000001 639.6 958.4000000000001 639.6 958.4000000000001 639.6 939.2 702.8000000000001 939.2 702.8000000000001 939.2 702.8000000000001 889.2 774.4000000000001 889.2 774.4000000000001"  />
</svg>