<svg viewBox="0 0 1000 1000" version="1.1" xmlns="http://www.w3.org/2000/svg"><path fill="#F5F2EB" stroke="none" stroke-width="1" stroke-linecap="round" stroke-linejoin="round" d="M87.72563176895308 742.5992779783394C87.72563176895308 742.5992779783394 115.88447653429604 762.0938628158846 115.88447653429604 762.0938628158846 115.88447653429604 762.0938628158846 156.67870036101084 791.6967509025271 156.67870036101084 791.6967509025271 156.67870036101084 791.6967509025271 217.3285198555957 829.9638989169675 217.3285198555957 829.9638989169675 217.3285198555957 829.9638989169675 283.0324909747293 852.7075812274369 283.0324909747293 853.0685920577617 283.0324909747293 853.4296028880867 345.12635379061373 868.9530685920578 345.12635379061373 868.9530685920578 345.12635379061373 868.9530685920578 387.7256317689531 876.8953068592058 387.7256317689531 876.8953068592058 387.7256317689531 876.8953068592058 412.99638989169677 879.7833935018051 412.99638989169677 879.7833935018051 412.99638989169677 879.7833935018051 471.4801444043322 875.8122743682311 471.4801444043322 875.8122743682311 471.4801444043322 875.8122743682311 517.3285198555957 865.7039711191336 517.3285198555957 865.7039711191336 517.3285198555957 865.7039711191336 555.9566787003611 855.9566787003611 555.9566787003611 855.9566787003611 555.9566787003611 855.9566787003611 576.8953068592058 845.8483754512636 576.8953068592058 845.8483754512636 576.8953068592058 845.8483754512636 538.9891696750902 846.2093862815885 538.9891696750902 846.2093862815885 538.9891696750902 846.2093862815885 497.47292418772565 845.1263537906137 497.47292418772565 845.1263537906137 497.47292418772565 845.1263537906137 440.4332129963899 837.9061371841156 440.4332129963899 837.9061371841156 440.4332129963899 837.9061371841156 384.115523465704 820.9386281588448 384.115523465704 820.9386281588448 384.115523465704 820.9386281588448 339.3501805054152 805.0541516245488 339.3501805054152 805.0541516245488 339.3501805054152 805.0541516245488 300.3610108303249 787.3646209386283 300.3610108303249 787.3646209386283 300.3610108303249 787.3646209386283 269.6750902527076 769.6750902527076 269.6750902527076 769.6750902527076 269.6750902527076 769.6750902527076 248.3754512635379 752.7075812274369 248.3754512635379 752.7075812274369 248.3754512635379 752.7075812274369 227.79783393501808 733.2129963898917 227.79783393501808 733.2129963898917 227.79783393501808 733.2129963898917 205.41516245487367 710.4693140794225 205.41516245487367 710.4693140794225 205.41516245487367 710.4693140794225 176.8953068592058 679.7833935018051 176.8953068592058 679.7833935018051 176.8953068592058 679.7833935018051 133.93501805054152 620.9386281588448 133.93501805054152 620.9386281588448 133.93501805054152 620.9386281588448 106.49819494584838 575.0902527075813 106.49819494584838 575.0902527075813 106.49819494584838 575.0902527075813 78.70036101083033 510.1083032490975 78.70036101083033 510.1083032490975 78.70036101083033 510.1083032490975 63.89891696750903 454.5126353790614 63.89891696750903 454.5126353790614 63.89891696750903 454.5126353790614 51.26353790613719 397.11191335740074 51.26353790613719 397.11191335740074 51.26353790613719 397.11191335740074 48.73646209386282 366.78700361010834 48.73646209386282 366.78700361010834 48.73646209386282 366.78700361010834 68.23104693140795 306.1371841155235 68.23104693140795 306.1371841155235 68.23104693140795 306.1371841155235 71.11913357400722 298.1949458483755 71.11913357400722 298.1949458483755 71.11913357400722 298.1949458483755 82.31046931407943 358.4837545126354 82.31046931407943 358.4837545126354 82.31046931407943 358.4837545126354 91.33574007220217 398.5559566787004 91.33574007220217 398.5559566787004 91.33574007220217 398.5559566787004 106.8592057761733 442.9602888086643 106.8592057761733 442.9602888086643 106.8592057761733 442.9602888086643 122.02166064981951 480.14440433213 122.02166064981951 480.14440433213 122.02166064981951 480.14440433213 139.71119133574007 520.216606498195 139.71119133574007 520.216606498195 139.71119133574007 520.216606498195 166.06498194945848 562.4548736462094 166.06498194945848 562.4548736462094 166.06498194945848 562.4548736462094 185.19855595667872 588.8086642599278 185.19855595667872 588.8086642599278 185.19855595667872 588.8086642599278 209.7472924187726 613.7184115523467 209.7472924187726 613.7184115523467 209.7472924187726 613.7184115523467 234.29602888086643 638.2671480144405 234.29602888086643 638.2671480144405 234.29602888086643 638.2671480144405 264.98194945848377 662.4548736462094 264.98194945848377 662.4548736462094 264.98194945848377 662.4548736462094 309.7472924187726 690.6137184115524 309.7472924187726 690.6137184115524 309.7472924187726 690.6137184115524 353.06859205776175 715.5234657039712 353.06859205776175 715.5234657039712 353.06859205776175 715.5234657039712 411.55234657039716 744.4043321299639 411.55234657039716 744.4043321299639 411.55234657039716 744.4043321299639 473.2851985559567 766.7870036101084 473.2851985559567 766.7870036101084 473.2851985559567 766.7870036101084 527.0758122743682 780.8664259927798 527.0758122743682 780.8664259927798 527.0758122743682 780.8664259927798 570.7581227436823 778.7003610108304 570.7581227436823 778.7003610108304 570.7581227436823 778.7003610108304 588.447653429603 777.6173285198556 588.447653429603 777.6173285198556 588.447653429603 777.6173285198556 561.3718411552347 768.5920577617329 561.3718411552347 768.5920577617329 561.3718411552347 768.5920577617329 455.59566787003615 733.2129963898917 455.59566787003615 733.2129963898917 455.59566787003615 733.2129963898917 422.74368231046935 717.6895306859207 422.74368231046935 717.6895306859207 422.74368231046935 717.6895306859207 380.5054151624549 694.2238267148015 380.5054151624549 694.2238267148015 380.5054151624549 694.2238267148015 327.79783393501805 658.4837545126354 327.79783393501805 658.4837545126354 327.79783393501805 658.4837545126354 304.3321299638989 636.101083032491 304.3321299638989 636.101083032491 304.3321299638989 636.101083032491 270.0361010830325 600.361010830325 270.0361010830325 600.361010830325 270.0361010830325 600.361010830325 256.67870036101084 584.115523465704 256.67870036101084 584.115523465704 256.67870036101084 584.115523465704 245.84837545126356 568.231046931408 245.84837545126356 568.231046931408 245.84837545126356 568.231046931408 237.18411552346572 550.9025270758123 237.18411552346572 550.9025270758123 237.18411552346572 550.9025270758123 219.13357400722023 514.8014440433213 219.13357400722023 514.8014440433213 219.13357400722023 514.8014440433213 201.08303249097474 474.0072202166065 201.08303249097474 474.0072202166065 201.08303249097474 474.0072202166065 183.03249097472926 417.3285198555957 183.03249097472926 417.3285198555957 183.03249097472926 417.3285198555957 168.95306859205778 337.54512635379064 168.95306859205778 337.54512635379064 168.95306859205778 337.54512635379064 171.11913357400724 277.6173285198556 171.11913357400724 277.6173285198556 171.11913357400724 277.6173285198556 177.9783393501805 232.8519855595668 177.9783393501805 232.8519855595668 177.9783393501805 232.8519855595668 197.11191335740074 180.50541516245488 197.11191335740074 180.50541516245488 197.11191335740074 180.50541516245488 219.49458483754515 116.96750902527077 219.49458483754515 116.96750902527077 219.49458483754515 116.96750902527077 265.3429602888087 72.92418772563177 265.3429602888087 72.92418772563177 265.3429602888087 72.92418772563177 271.4801444043321 78.70036101083033 271.4801444043321 78.70036101083033 271.4801444043321 78.70036101083033 267.5090252707581 103.6101083032491 267.5090252707581 103.6101083032491 267.5090252707581 103.6101083032491 262.4548736462094 144.043321299639 262.4548736462094 144.043321299639 262.4548736462094 144.043321299639 259.927797833935 183.03249097472926 259.927797833935 183.03249097472926 259.927797833935 183.03249097472926 263.898916967509 229.60288808664262 263.898916967509 229.60288808664262 263.898916967509 229.60288808664262 272.9241877256318 274.36823104693144 272.9241877256318 274.36823104693144 272.9241877256318 274.36823104693144 297.11191335740074 346.2093862815885 297.11191335740074 346.2093862815885 297.11191335740074 346.2093862815885 312.63537906137185 386.28158844765346 312.63537906137185 386.28158844765346 312.63537906137185 386.28158844765346 343.3212996389892 438.6281588447654 343.3212996389892 438.6281588447654 343.3212996389892 438.6281588447654 349.81949458483757 447.65342960288814 349.81949458483757 447.65342960288814 349.81949458483757 447.65342960288814 383.3935018050542 491.6967509025271 383.3935018050542 491.6967509025271 383.3935018050542 491.6967509025271 424.54873646209387 545.1263537906137 424.54873646209387 545.1263537906137 424.54873646209387 545.1263537906137 458.4837545126354 581.5884476534296 458.4837545126354 581.5884476534296 458.4837545126354 581.5884476534296 483.0324909747293 602.8880866425993 483.0324909747293 602.8880866425993 483.0324909747293 602.8880866425993 537.5451263537907 637.5451263537907 537.5451263537907 637.5451263537907 537.5451263537907 637.5451263537907 572.9241877256318 650.9025270758124 572.9241877256318 650.9025270758124 572.9241877256318 650.9025270758124 599.6389891696751 655.9566787003611 599.6389891696751 655.9566787003611 599.6389891696751 655.9566787003611 615.1624548736462 656.3176895306859 615.1624548736462 656.3176895306859 615.1624548736462 656.3176895306859 603.6101083032491 646.2093862815885 603.6101083032491 646.2093862815885 603.6101083032491 646.2093862815885 573.2851985559568 622.7436823104694 573.2851985559568 622.7436823104694 573.2851985559568 622.7436823104694 563.1768953068593 612.6353790613719 563.1768953068593 612.6353790613719 563.1768953068593 612.6353790613719 551.2635379061372 602.5270758122745 551.2635379061372 602.5270758122745 551.2635379061372 602.5270758122745 525.9927797833935 579.7833935018051 525.9927797833935 579.7833935018051 525.9927797833935 579.7833935018051 498.5559566787004 551.6245487364621 498.5559566787004 551.6245487364621 498.5559566787004 551.6245487364621 476.8953068592058 527.0758122743682 476.8953068592058 527.0758122743682 476.8953068592058 527.0758122743682 458.4837545126354 503.61010830324915 458.4837545126354 503.61010830324915 458.4837545126354 503.61010830324915 432.12996389891697 465.7039711191336 432.12996389891697 465.7039711191336 432.12996389891697 465.7039711191336 414.0794223826715 433.93501805054154 414.0794223826715 433.93501805054154 414.0794223826715 433.93501805054154 381.5884476534296 364.62093862815885 381.5884476534296 364.62093862815885 381.5884476534296 364.62093862815885 359.20577617328524 290.6137184115524 359.20577617328524 290.6137184115524 359.20577617328524 290.6137184115524 355.23465703971124 225.99277978339353 355.23465703971124 225.99277978339353 355.23465703971124 225.99277978339353 365.3429602888087 167.14801444043323 365.3429602888087 167.14801444043323 365.3429602888087 167.14801444043323 391.6967509025271 115.88447653429604 391.6967509025271 115.88447653429604 391.6967509025271 115.88447653429604 431.7689530685921 80.50541516245488 431.7689530685921 80.50541516245488 431.7689530685921 80.50541516245488 481.94945848375454 51.985559566787 481.94945848375454 51.985559566787 481.94945848375454 51.985559566787 542.9602888086642 26.714801444043324 542.9602888086642 26.714801444043324 542.9602888086642 26.714801444043324 502.1660649819495 17.32851985559567 502.1660649819495 17.32851985559567 502.1660649819495 17.32851985559567 269.6750902527076 55.234657039711195 269.6750902527076 55.234657039711195 269.6750902527076 55.234657039711195 153.79061371841155 161.37184115523468 153.79061371841155 161.37184115523468 153.79061371841155 161.37184115523468 66.06498194945848 286.28158844765346 66.06498194945848 286.28158844765346 66.06498194945848 286.28158844765346 34.65703971119134 390.9747292418773 34.65703971119134 390.9747292418773 34.65703971119134 390.9747292418773 24.187725631768956 474.72924187725636 24.187725631768956 474.72924187725636 24.187725631768956 474.72924187725636 24.187725631768956 570.0361010830326 24.187725631768956 570.0361010830326 24.187725631768956 570.0361010830326 49.09747292418773 680.8664259927798 49.09747292418773 680.8664259927798 49.09747292418773 680.8664259927798 87.72563176895308 742.5992779783394 87.72563176895308 742.5992779783394"  /></svg>