<svg viewBox="0 0 1000 1000" version="1.1" xmlns="http://www.w3.org/2000/svg"><path fill="#F5F2EB" stroke="none" stroke-width="1" stroke-linecap="round" stroke-linejoin="round" d="M616.8831168831168 654.2207792207793C616.8831168831168 654.2207792207793 625 649.025974025974 625 649.025974025974 625 649.025974025974 622.4025974025974 641.5584415584416 622.4025974025974 641.5584415584416 622.4025974025974 641.5584415584416 579.5454545454545 602.922077922078 579.5454545454545 602.922077922078 579.5454545454545 602.922077922078 562.012987012987 585.7142857142857 562.012987012987 585.7142857142857 562.012987012987 585.7142857142857 545.4545454545455 566.2337662337662 545.4545454545455 566.2337662337662 545.4545454545455 566.2337662337662 526.2987012987013 539.9350649350649 526.2987012987013 539.9350649350649 526.2987012987013 539.9350649350649 506.16883116883116 513.961038961039 506.16883116883116 513.961038961039 506.16883116883116 513.961038961039 527.922077922078 518.8311688311688 527.922077922078 518.8311688311688 527.922077922078 518.8311688311688 548.7012987012987 525.6493506493506 548.7012987012987 525.6493506493506 548.7012987012987 525.6493506493506 575 531.1688311688312 575 531.1688311688312 575 531.1688311688312 593.8311688311688 534.7402597402597 593.8311688311688 534.7402597402597 593.8311688311688 534.7402597402597 616.2337662337662 535.0649350649351 616.2337662337662 535.0649350649351 616.2337662337662 535.0649350649351 636.038961038961 534.0909090909091 636.038961038961 534.0909090909091 636.038961038961 534.0909090909091 658.7662337662338 528.5714285714286 658.7662337662338 528.5714285714286 658.7662337662338 528.5714285714286 685.7142857142857 525.974025974026 685.7142857142857 525.974025974026 685.7142857142857 525.974025974026 721.7532467532468 519.4805194805194 721.7532467532468 519.4805194805194 721.7532467532468 519.4805194805194 753.2467532467532 511.038961038961 753.2467532467532 511.038961038961 753.2467532467532 511.038961038961 780.1948051948052 497.0779220779221 780.1948051948052 497.0779220779221 780.1948051948052 497.0779220779221 807.4675324675325 481.4935064935065 807.4675324675325 481.4935064935065 807.4675324675325 481.4935064935065 840.5844155844155 459.09090909090907 840.5844155844155 459.09090909090907 840.5844155844155 459.09090909090907 863.961038961039 445.12987012987014 863.961038961039 445.12987012987014 863.961038961039 445.12987012987014 887.987012987013 424.67532467532465 887.987012987013 424.67532467532465 887.987012987013 424.67532467532465 912.987012987013 399.67532467532465 912.987012987013 399.67532467532465 912.987012987013 399.67532467532465 936.038961038961 375.64935064935065 936.038961038961 375.64935064935065 936.038961038961 375.64935064935065 955.8441558441558 346.42857142857144 955.8441558441558 346.42857142857144 955.8441558441558 346.42857142857144 961.3636363636364 356.16883116883116 961.3636363636364 356.16883116883116 961.3636363636364 356.16883116883116 961.6883116883117 368.83116883116884 961.6883116883117 368.83116883116884 961.6883116883117 368.83116883116884 953.5714285714286 394.4805194805195 953.5714285714286 394.4805194805195 953.5714285714286 394.4805194805195 932.7922077922078 451.2987012987013 932.7922077922078 451.2987012987013 932.7922077922078 451.2987012987013 906.4935064935065 499.025974025974 906.4935064935065 499.025974025974 906.4935064935065 499.025974025974 881.8181818181818 542.8571428571429 881.8181818181818 542.8571428571429 881.8181818181818 542.8571428571429 852.922077922078 581.4935064935065 852.922077922078 581.4935064935065 852.922077922078 581.4935064935065 807.1428571428571 629.5454545454545 807.1428571428571 629.5454545454545 807.1428571428571 629.5454545454545 774.6753246753246 660.0649350649351 774.6753246753246 660.0649350649351 774.6753246753246 660.0649350649351 731.8181818181818 692.2077922077922 731.8181818181818 692.2077922077922 731.8181818181818 692.2077922077922 699.025974025974 712.3376623376623 699.025974025974 712.3376623376623 699.025974025974 712.3376623376623 660.3896103896104 733.1168831168831 660.3896103896104 733.1168831168831 660.3896103896104 733.1168831168831 637.012987012987 742.2077922077922 637.012987012987 742.2077922077922 637.012987012987 742.2077922077922 639.9350649350649 749.025974025974 639.9350649350649 749.025974025974 639.9350649350649 749.025974025974 670.4545454545455 750.6493506493506 670.4545454545455 750.6493506493506 670.4545454545455 750.6493506493506 710.3896103896104 744.8051948051948 710.3896103896104 744.8051948051948 710.3896103896104 744.8051948051948 753.8961038961039 735.7142857142857 753.8961038961039 735.7142857142857 753.8961038961039 735.7142857142857 793.5064935064935 722.4025974025974 793.5064935064935 722.4025974025974 793.5064935064935 722.4025974025974 828.8961038961039 709.0909090909091 828.8961038961039 709.0909090909091 828.8961038961039 709.0909090909091 863.961038961039 691.2337662337662 863.961038961039 691.2337662337662 863.961038961039 691.2337662337662 910.3896103896104 667.2077922077922 910.3896103896104 667.2077922077922 910.3896103896104 667.2077922077922 950.3246753246754 644.4805194805194 950.3246753246754 644.4805194805194 950.3246753246754 644.4805194805194 957.4675324675325 619.4805194805194 957.4675324675325 619.4805194805194 957.4675324675325 619.4805194805194 964.6103896103896 587.012987012987 964.6103896103896 587.012987012987 964.6103896103896 587.012987012987 971.1038961038961 545.4545454545455 971.1038961038961 545.4545454545455 971.1038961038961 545.4545454545455 973.7012987012987 504.2207792207792 973.7012987012987 504.2207792207792 973.7012987012987 504.2207792207792 975.6493506493506 463.31168831168833 975.6493506493506 463.31168831168833 975.6493506493506 463.31168831168833 973.7012987012987 426.94805194805195 973.7012987012987 426.94805194805195 973.7012987012987 426.94805194805195 970.4545454545455 390.9090909090909 970.4545454545455 390.9090909090909 970.4545454545455 390.9090909090909 966.5584415584416 366.8831168831169 966.5584415584416 366.8831168831169 966.5584415584416 366.8831168831169 966.2337662337662 355.1948051948052 966.2337662337662 355.1948051948052 966.2337662337662 355.1948051948052 959.4155844155844 342.53246753246754 959.4155844155844 342.53246753246754 959.4155844155844 342.53246753246754 946.7532467532468 305.5194805194805 946.7532467532468 305.5194805194805 946.7532467532468 305.5194805194805 934.4155844155844 280.5194805194805 934.4155844155844 280.5194805194805 934.4155844155844 280.5194805194805 926.6233766233767 261.3636363636364 926.6233766233767 261.3636363636364 926.6233766233767 261.3636363636364 916.8831168831168 246.75324675324674 916.8831168831168 246.75324675324674 916.8831168831168 246.75324675324674 904.2207792207793 242.85714285714286 904.2207792207793 242.85714285714286 904.2207792207793 242.85714285714286 894.1558441558442 256.8181818181818 894.1558441558442 256.8181818181818 894.1558441558442 256.8181818181818 871.1038961038961 298.7012987012987 871.1038961038961 298.7012987012987 871.1038961038961 298.7012987012987 859.4155844155844 315.5844155844156 859.4155844155844 315.5844155844156 859.4155844155844 315.5844155844156 848.051948051948 331.16883116883116 848.051948051948 331.16883116883116 848.051948051948 331.16883116883116 830.5194805194806 352.27272727272725 830.5194805194806 352.27272727272725 830.5194805194806 352.27272727272725 803.8961038961039 379.54545454545456 803.8961038961039 379.54545454545456 803.8961038961039 379.54545454545456 787.012987012987 399.025974025974 787.012987012987 399.025974025974 787.012987012987 399.025974025974 760.7142857142857 422.4025974025974 760.7142857142857 422.4025974025974 760.7142857142857 422.4025974025974 734.7402597402597 444.4805194805195 734.7402597402597 444.4805194805195 734.7402597402597 444.4805194805195 697.077922077922 473.05194805194805 697.077922077922 473.05194805194805 697.077922077922 473.05194805194805 674.6753246753246 484.7402597402597 674.6753246753246 484.7402597402597 674.6753246753246 484.7402597402597 647.7272727272727 497.4025974025974 647.7272727272727 497.4025974025974 647.7272727272727 497.4025974025974 615.5844155844155 504.87012987012986 615.5844155844155 504.87012987012986 615.5844155844155 504.87012987012986 584.7402597402597 510.06493506493507 584.7402597402597 510.06493506493507 584.7402597402597 510.06493506493507 565.2597402597403 510.7142857142857 565.2597402597403 510.7142857142857 565.2597402597403 510.7142857142857 546.7532467532468 508.1168831168831 546.7532467532468 508.1168831168831 546.7532467532468 508.1168831168831 519.4805194805194 501.2987012987013 519.4805194805194 501.2987012987013 519.4805194805194 501.2987012987013 490.2597402597403 487.012987012987 490.2597402597403 487.012987012987 490.2597402597403 487.012987012987 479.2207792207792 454.87012987012986 479.2207792207792 454.87012987012986 479.2207792207792 454.87012987012986 475.64935064935065 433.1168831168831 475.64935064935065 433.1168831168831 475.64935064935065 433.1168831168831 470.12987012987014 403.8961038961039 470.12987012987014 403.8961038961039 470.12987012987014 403.8961038961039 468.83116883116884 382.14285714285717 468.83116883116884 382.14285714285717 468.83116883116884 382.14285714285717 475 335.06493506493507 475 335.06493506493507 475 335.06493506493507 486.68831168831167 301.2987012987013 486.68831168831167 300.97402597402595 486.68831168831167 300.64935064935065 503.24675324675326 270.45454545454544 503.24675324675326 270.45454545454544 503.24675324675326 270.45454545454544 520.4545454545455 245.45454545454544 520.4545454545455 245.45454545454544 520.4545454545455 245.45454545454544 530.1948051948052 232.7922077922078 530.1948051948052 232.7922077922078 530.1948051948052 232.7922077922078 555.1948051948052 212.33766233766232 555.1948051948052 212.33766233766232 555.1948051948052 212.33766233766232 578.5714285714286 195.45454545454544 578.5714285714286 195.45454545454544 578.5714285714286 195.45454545454544 617.8571428571429 179.2207792207792 617.8571428571429 179.2207792207792 617.8571428571429 179.2207792207792 652.5974025974026 172.4025974025974 652.5974025974026 172.4025974025974 652.5974025974026 172.4025974025974 685.3896103896104 171.42857142857142 685.3896103896104 171.42857142857142 685.3896103896104 171.42857142857142 723.7012987012987 175.64935064935065 723.7012987012987 175.64935064935065 723.7012987012987 175.64935064935065 760.7142857142857 182.46753246753246 760.7142857142857 182.46753246753246 760.7142857142857 182.46753246753246 798.051948051948 193.5064935064935 798.051948051948 193.5064935064935 798.051948051948 193.5064935064935 831.4935064935065 207.46753246753246 831.4935064935065 207.46753246753246 831.4935064935065 207.46753246753246 871.4285714285714 232.14285714285714 871.4285714285714 232.14285714285714 871.4285714285714 232.14285714285714 890.5844155844155 243.1818181818182 890.5844155844155 243.1818181818182 890.5844155844155 243.1818181818182 894.8051948051948 226.62337662337663 894.8051948051948 226.62337662337663 894.8051948051948 226.62337662337663 878.8961038961039 202.5974025974026 878.8961038961039 202.5974025974026 878.8961038961039 202.5974025974026 845.7792207792207 171.42857142857142 845.7792207792207 171.42857142857142 845.7792207792207 171.42857142857142 808.1168831168831 140.9090909090909 808.1168831168831 140.9090909090909 808.1168831168831 140.9090909090909 789.6103896103896 126.2987012987013 789.6103896103896 126.2987012987013 789.6103896103896 126.2987012987013 745.1298701298701 94.15584415584415 745.1298701298701 94.15584415584415 745.1298701298701 94.15584415584415 708.4415584415584 74.67532467532467 708.4415584415584 74.67532467532467 708.4415584415584 74.67532467532467 683.4415584415584 62.66233766233766 683.4415584415584 62.66233766233766 683.4415584415584 62.66233766233766 618.5064935064935 40.90909090909091 618.5064935064935 40.90909090909091 618.5064935064935 40.90909090909091 600 35.064935064935064 600 35.064935064935064 600 35.064935064935064 581.1688311688312 31.493506493506494 581.1688311688312 31.493506493506494 581.1688311688312 31.493506493506494 562.3376623376623 29.22077922077922 562.3376623376623 29.22077922077922 562.3376623376623 29.22077922077922 549.3506493506493 27.92207792207792 549.3506493506493 27.92207792207792 549.3506493506493 27.92207792207792 538.961038961039 30.194805194805195 538.961038961039 30.194805194805195 538.961038961039 30.194805194805195 526.9480519480519 34.41558441558441 526.9480519480519 34.41558441558441 526.9480519480519 34.41558441558441 497.0779220779221 46.103896103896105 497.0779220779221 46.103896103896105 497.0779220779221 46.103896103896105 461.038961038961 61.688311688311686 461.038961038961 61.688311688311686 461.038961038961 61.688311688311686 436.68831168831167 79.54545454545455 436.68831168831167 79.54545454545455 436.68831168831167 79.54545454545455 417.2077922077922 94.8051948051948 417.2077922077922 94.8051948051948 417.2077922077922 94.8051948051948 398.3766233766234 106.16883116883116 398.3766233766234 106.16883116883116 398.3766233766234 106.16883116883116 386.038961038961 128.57142857142858 386.038961038961 128.89610389610388 386.038961038961 129.2207792207792 370.45454545454544 163.63636363636363 370.45454545454544 163.63636363636363 370.45454545454544 163.63636363636363 360.38961038961037 197.07792207792207 360.38961038961037 197.07792207792207 360.38961038961037 197.07792207792207 359.4155844155844 224.02597402597402 359.4155844155844 224.02597402597402 359.4155844155844 224.02597402597402 358.1168831168831 255.5194805194805 358.1168831168831 255.5194805194805 358.1168831168831 255.5194805194805 361.3636363636364 285.7142857142857 361.3636363636364 285.7142857142857 361.3636363636364 285.7142857142857 366.8831168831169 317.2077922077922 366.8831168831169 317.2077922077922 366.8831168831169 317.2077922077922 379.54545454545456 353.8961038961039 379.54545454545456 354.2207792207792 379.54545454545456 354.54545454545456 401.94805194805195 410.38961038961037 401.94805194805195 410.38961038961037 401.94805194805195 410.38961038961037 421.1038961038961 446.42857142857144 421.1038961038961 446.42857142857144 421.1038961038961 446.42857142857144 439.2857142857143 476.94805194805195 439.2857142857143 476.94805194805195 439.2857142857143 476.94805194805195 462.012987012987 509.09090909090907 462.012987012987 509.09090909090907 462.012987012987 509.09090909090907 482.1428571428571 532.7922077922078 482.1428571428571 532.7922077922078 482.1428571428571 532.7922077922078 508.1168831168831 562.3376623376623 508.1168831168831 562.3376623376623 508.1168831168831 562.3376623376623 530.8441558441558 583.1168831168831 530.8441558441558 583.1168831168831 530.8441558441558 583.1168831168831 546.1038961038961 599.3506493506493 546.1038961038961 599.3506493506493 546.1038961038961 599.3506493506493 574.3506493506493 623.0519480519481 574.3506493506493 623.0519480519481 574.3506493506493 623.0519480519481 607.4675324675325 649.3506493506493 607.4675324675325 649.3506493506493 607.4675324675325 649.3506493506493 616.8831168831168 654.2207792207793 616.8831168831168 654.2207792207793"  /></svg>