<svg viewBox="0 0 1000 1000" version="1.1" xmlns="http://www.w3.org/2000/svg"><path fill="#F5F2EB" stroke="none" stroke-width="1" stroke-linecap="round" stroke-linejoin="round" d="M67.93248945147678 309.7046413502109C67.93248945147678 309.7046413502109 56.11814345991561 338.81856540084385 56.11814345991561 338.81856540084385 56.11814345991561 338.81856540084385 53.16455696202531 366.87763713080165 53.16455696202531 366.87763713080165 53.16455696202531 366.87763713080165 53.16455696202531 392.8270042194092 53.16455696202531 392.8270042194092 53.16455696202531 392.8270042194092 58.43881856540084 425.31645569620247 58.43881856540084 425.31645569620247 58.43881856540084 425.31645569620247 80.37974683544303 507.3839662447257 80.37974683544303 507.3839662447257 80.37974683544303 507.3839662447257 96.62447257383965 552.1097046413502 96.62447257383965 552.1097046413502 96.62447257383965 552.1097046413502 121.30801687763712 601.8987341772151 121.30801687763712 601.8987341772151 121.30801687763712 601.8987341772151 140.71729957805906 628.4810126582278 140.71729957805906 628.4810126582278 140.71729957805906 628.4810126582278 176.3713080168776 678.0590717299577 176.3713080168776 678.0590717299577 176.3713080168776 678.0590717299577 230.379746835443 734.3881856540083 230.379746835443 734.3881856540083 230.379746835443 734.3881856540083 253.79746835443035 756.9620253164557 253.79746835443035 756.9620253164557 253.79746835443035 756.9620253164557 269.1983122362869 770.0421940928269 269.1983122362869 770.2531645569619 269.1983122362869 770.4641350210969 294.93670886075944 785.6540084388184 294.93670886075944 785.6540084388184 294.93670886075944 785.6540084388184 321.3080168776371 798.1012658227847 321.3080168776371 798.1012658227847 321.3080168776371 798.1012658227847 352.7426160337552 810.970464135021 352.7426160337552 810.970464135021 352.7426160337552 810.970464135021 387.97468354430373 822.7848101265822 387.97468354430373 822.7848101265822 387.97468354430373 822.7848101265822 412.02531645569616 829.7468354430379 412.02531645569616 829.7468354430379 412.02531645569616 829.7468354430379 439.2405063291139 836.9198312236286 439.2405063291139 836.9198312236286 439.2405063291139 836.9198312236286 461.81434599156114 841.5611814345991 461.81434599156114 841.5611814345991 461.81434599156114 841.5611814345991 485.02109704641344 843.4599156118143 485.02109704641344 843.4599156118143 485.02109704641344 843.4599156118143 504.6413502109704 845.1476793248944 504.6413502109704 845.1476793248944 504.6413502109704 845.1476793248944 519.8312236286919 845.3586497890294 519.8312236286919 845.3586497890294 519.8312236286919 845.3586497890294 535.0210970464134 846.4135021097045 535.0210970464134 846.4135021097045 535.0210970464134 846.4135021097045 548.5232067510548 845.7805907172994 548.5232067510548 845.7805907172994 548.5232067510548 845.7805907172994 564.1350210970463 845.3586497890294 564.1350210970463 845.3586497890294 564.1350210970463 845.3586497890294 577.2151898734177 844.9367088607594 577.2151898734177 844.9367088607594 577.2151898734177 844.9367088607594 588.1856540084387 846.2025316455695 588.1856540084387 846.2025316455695 588.1856540084387 846.2025316455695 630.1687763713079 840.928270042194 630.1687763713079 840.928270042194 630.1687763713079 840.928270042194 706.1181434599156 826.5822784810126 706.1181434599156 826.5822784810126 706.1181434599156 826.5822784810126 812.6582278481012 796.4135021097046 812.6582278481012 796.4135021097046 812.6582278481012 796.4135021097046 875.9493670886075 773.8396624472573 875.9493670886075 773.8396624472573 875.9493670886075 773.8396624472573 889.6624472573839 764.7679324894514 889.6624472573839 764.7679324894514 889.6624472573839 764.7679324894514 914.5569620253164 732.0675105485232 914.5569620253164 732.0675105485232 914.5569620253164 732.0675105485232 935.2320675105484 699.3670886075948 935.2320675105484 699.3670886075948 935.2320675105484 699.3670886075948 946.4135021097045 674.4725738396623 946.4135021097045 674.4725738396623 946.4135021097045 674.4725738396623 950.84388185654 646.8354430379746 950.84388185654 646.8354430379746 950.84388185654 646.8354430379746 942.4050632911392 651.0548523206751 942.4050632911392 651.0548523206751 942.4050632911392 651.0548523206751 912.8691983122362 667.2995780590717 912.8691983122362 667.2995780590717 912.8691983122362 667.2995780590717 873.2067510548522 688.3966244725738 873.2067510548522 688.3966244725738 873.2067510548522 688.3966244725738 811.8143459915611 718.1434599156117 811.8143459915611 718.1434599156117 811.8143459915611 718.1434599156117 755.2742616033754 736.4978902953586 755.2742616033754 736.4978902953586 755.2742616033754 736.4978902953586 718.9873417721518 744.3037974683543 718.9873417721518 744.3037974683543 718.9873417721518 744.3037974683543 669.1983122362868 750.6329113924049 669.1983122362868 750.6329113924049 669.1983122362868 750.6329113924049 625.1054852320674 748.5232067510548 625.1054852320674 748.5232067510548 625.1054852320674 748.5232067510548 579.5358649789029 735.4430379746834 579.5358649789029 735.4430379746834 579.5358649789029 735.4430379746834 557.3839662447257 726.5822784810126 557.3839662447257 726.5822784810126 557.3839662447257 726.5822784810126 509.4936708860759 699.9999999999999 509.4936708860759 699.9999999999999 509.4936708860759 699.9999999999999 466.4556962025316 670.6751054852319 466.4556962025316 670.6751054852319 466.4556962025316 670.6751054852319 427.8481012658227 634.5991561181434 427.8481012658227 634.5991561181434 427.8481012658227 634.5991561181434 407.17299578059067 615.6118143459915 407.17299578059067 615.6118143459915 407.17299578059067 615.6118143459915 389.87341772151893 589.2405063291138 389.87341772151893 589.2405063291138 389.87341772151893 589.2405063291138 375.10548523206745 560.9704641350211 375.10548523206745 560.9704641350211 375.10548523206745 560.9704641350211 358.86075949367086 518.7763713080168 358.86075949367086 518.7763713080168 358.86075949367086 518.7763713080168 348.3122362869198 492.4050632911392 348.3122362869198 492.4050632911392 348.3122362869198 492.4050632911392 345.56962025316454 478.27004219409275 345.56962025316454 478.27004219409275 345.56962025316454 478.27004219409275 345.78059071729956 449.7890295358649 345.78059071729956 449.7890295358649 345.78059071729956 449.7890295358649 346.83544303797464 442.4050632911392 346.83544303797464 442.4050632911392 346.83544303797464 442.4050632911392 343.67088607594934 436.70886075949363 343.67088607594934 436.70886075949363 343.67088607594934 436.70886075949363 303.79746835443035 372.5738396624472 303.79746835443035 372.5738396624472 303.79746835443035 372.5738396624472 273.83966244725735 280.168776371308 273.83966244725735 280.168776371308 273.83966244725735 280.168776371308 263.71308016877634 235.2320675105485 263.71308016877634 235.2320675105485 263.71308016877634 235.2320675105485 262.4472573839662 213.71308016877634 262.4472573839662 213.71308016877634 262.4472573839662 213.71308016877634 260.54852320675104 177.00421940928268 260.54852320675104 177.00421940928268 260.54852320675104 177.00421940928268 262.02531645569616 139.45147679324893 262.02531645569616 139.45147679324893 262.02531645569616 139.45147679324893 272.3628691983122 70.25316455696202 272.3628691983122 70.25316455696202 272.3628691983122 70.25316455696202 246.83544303797467 88.39662447257383 246.83544303797467 88.39662447257383 246.83544303797467 88.39662447257383 231.2236286919831 109.70464135021096 231.2236286919831 109.70464135021096 231.2236286919831 109.70464135021096 214.76793248945145 125.94936708860759 214.76793248945145 125.94936708860759 214.76793248945145 125.94936708860759 205.06329113924048 164.55696202531644 205.06329113924048 164.55696202531644 205.06329113924048 164.55696202531644 205.06329113924048 164.55696202531644 205.06329113924048 164.55696202531644 205.06329113924048 164.55696202531644 197.2573839662447 181.64556962025316 197.2573839662447 181.64556962025316 197.2573839662447 181.64556962025316 181.85654008438817 225.52742616033754 181.85654008438817 225.52742616033754 181.85654008438817 225.52742616033754 176.3713080168776 242.61603375527423 176.3713080168776 242.61603375527423 176.3713080168776 242.61603375527423 173.83966244725735 262.8691983122363 173.83966244725735 262.8691983122363 173.83966244725735 262.8691983122363 171.3080168776371 278.69198312236284 171.3080168776371 278.69198312236284 171.3080168776371 278.69198312236284 169.83122362869196 311.6033755274261 169.83122362869196 311.6033755274261 169.83122362869196 311.6033755274261 171.09704641350208 329.1139240506329 171.09704641350208 329.1139240506329 171.09704641350208 329.1139240506329 173.83966244725735 363.0801687763713 173.83966244725735 363.0801687763713 173.83966244725735 363.0801687763713 178.69198312236284 394.5147679324894 178.69198312236284 394.5147679324894 178.69198312236284 394.5147679324894 181.85654008438817 412.02531645569616 181.85654008438817 412.02531645569616 181.85654008438817 412.02531645569616 192.1940928270042 444.0928270042194 192.1940928270042 444.0928270042194 192.1940928270042 444.0928270042194 198.1012658227848 463.71308016877634 198.1012658227848 463.71308016877634 198.1012658227848 463.71308016877634 200.210970464135 471.72995780590713 200.210970464135 471.72995780590713 200.210970464135 471.72995780590713 204.43037974683543 482.4894514767932 204.43037974683543 482.4894514767932 204.43037974683543 482.4894514767932 217.72151898734174 512.0253164556962 217.72151898734174 512.2362869198312 217.72151898734174 512.4472573839662 230.80168776371306 539.4514767932488 230.80168776371306 539.4514767932488 230.80168776371306 539.4514767932488 248.52320675105483 573.4177215189873 248.52320675105483 573.4177215189873 248.52320675105483 573.4177215189873 260.75949367088606 589.2405063291138 260.75949367088606 589.2405063291138 260.75949367088606 589.2405063291138 286.2869198312236 619.8312236286919 286.2869198312236 619.8312236286919 286.2869198312236 619.8312236286919 314.1350210970464 646.8354430379746 314.1350210970464 646.8354430379746 314.1350210970464 646.8354430379746 339.02953586497887 668.1434599156117 339.02953586497887 668.1434599156117 339.02953586497887 668.1434599156117 367.2995780590717 686.2869198312236 367.2995780590717 686.2869198312236 367.2995780590717 686.2869198312236 409.2827004219409 710.9704641350211 409.2827004219409 710.9704641350211 409.2827004219409 710.9704641350211 447.04641350210966 728.0590717299577 447.04641350210966 728.0590717299577 447.04641350210966 728.0590717299577 464.3459915611814 735.8649789029535 464.3459915611814 735.8649789029535 464.3459915611814 735.8649789029535 519.8312236286919 752.7426160337552 519.8312236286919 752.7426160337552 519.8312236286919 752.7426160337552 562.6582278481012 765.8227848101264 562.6582278481012 765.8227848101264 562.6582278481012 765.8227848101264 576.7932489451476 771.7299578059071 576.7932489451476 771.7299578059071 576.7932489451476 771.7299578059071 578.9029535864978 775.7383966244724 578.9029535864978 775.7383966244724 578.9029535864978 775.7383966244724 577.0042194092827 778.2700421940928 577.0042194092827 778.2700421940928 577.0042194092827 778.2700421940928 573.8396624472573 779.7468354430379 573.8396624472573 779.7468354430379 573.8396624472573 779.7468354430379 558.8607594936708 780.5907172995779 558.8607594936708 780.5907172995779 558.8607594936708 780.5907172995779 537.7637130801687 778.9029535864978 537.7637130801687 778.9029535864978 537.7637130801687 778.9029535864978 512.8691983122362 776.3713080168776 512.8691983122362 776.3713080168776 512.8691983122362 776.3713080168776 491.77215189873414 772.3628691983122 491.77215189873414 772.3628691983122 491.77215189873414 772.3628691983122 448.94514767932486 756.7510548523206 448.94514767932486 756.7510548523206 448.94514767932486 756.7510548523206 404.85232067510543 742.1940928270042 404.85232067510543 742.1940928270042 404.85232067510543 742.1940928270042 377.4261603375527 729.5358649789029 377.4261603375527 729.5358649789029 377.4261603375527 729.5358649789029 353.79746835443035 716.2447257383966 353.79746835443035 716.2447257383966 353.79746835443035 716.2447257383966 322.7848101265822 697.8902953586497 322.7848101265822 697.8902953586497 322.7848101265822 697.8902953586497 302.10970464135016 685.8649789029536 302.10970464135016 685.8649789029536 302.10970464135016 685.8649789029536 273.83966244725735 667.7215189873417 273.83966244725735 667.7215189873417 273.83966244725735 667.7215189873417 251.89873417721518 651.2658227848101 251.89873417721518 651.2658227848101 251.89873417721518 651.2658227848101 235.02109704641347 638.8185654008438 235.02109704641347 638.8185654008438 235.02109704641347 638.8185654008438 220.46413502109704 623.8396624472573 220.46413502109704 623.8396624472573 220.46413502109704 623.8396624472573 202.1097046413502 604.4303797468353 202.1097046413502 604.4303797468353 202.1097046413502 604.4303797468353 190.50632911392404 593.2489451476793 190.50632911392404 593.2489451476793 190.50632911392404 593.2489451476793 176.3713080168776 576.7932489451476 176.3713080168776 576.7932489451476 176.3713080168776 576.7932489451476 162.2362869198312 557.1729957805907 162.2362869198312 557.1729957805907 162.2362869198312 557.1729957805907 153.58649789029533 544.5147679324893 153.58649789029533 544.5147679324893 153.58649789029533 544.5147679324893 144.51476793248943 528.0590717299577 144.51476793248943 528.0590717299577 144.51476793248943 528.0590717299577 135.65400843881855 510.759493670886 135.65400843881855 510.759493670886 135.65400843881855 510.759493670886 126.1603375527426 490.08438818565395 126.1603375527426 490.08438818565395 126.1603375527426 490.08438818565395 116.24472573839661 466.87763713080165 116.24472573839661 466.87763713080165 116.24472573839661 466.87763713080165 107.17299578059071 443.88185654008436 107.17299578059071 443.88185654008436 107.17299578059071 443.88185654008436 94.93670886075948 411.3924050632911 94.93670886075948 411.3924050632911 94.93670886075948 411.3924050632911 86.0759493670886 378.4810126582278 86.0759493670886 378.4810126582278 86.0759493670886 378.4810126582278 79.32489451476792 347.2573839662447 79.32489451476792 347.2573839662447 79.32489451476792 347.2573839662447 73.20675105485232 323.4177215189873 73.20675105485232 323.4177215189873 73.20675105485232 323.4177215189873 71.72995780590716 308.0168776371308 71.72995780590716 308.0168776371308 71.72995780590716 308.0168776371308 67.93248945147678 309.7046413502109 67.93248945147678 309.7046413502109"  /></svg>