<svg xmlns="http://www.w3.org/2000/svg" viewBox="0 0 309.76 239.599"><path d="M.32 1.181h17.6c1.366 0 5.182-.61 6.071.513.67.846.329 2.607.329 3.647v56.32c0 1.133.335 3.113-.742 3.831-.902.602-2.372.32-3.418.345-2.89.071-5.744.304-8.64.304-1.182 0-2.74.39-3.647-.329-.667-.528-.511-1.763-.513-2.551-.004-2.139-.992-7.739.329-9.407.866-1.093 4.13-.522 5.431-.513.664.005 1.5-.098 2.048.329.653.508.83 1.615.676 2.532-.377 2.239-5.408.423-4.222 4.452.433 1.47 7.314 1.607 8.21.265 1.177-1.765.339-6.437.328-8.538-.005-.896.105-2.01-.558-2.687-.807-.825-2.038-.513-3.282-.513H7.04c-1.025 0-2.524-.307-3.327.329-.838.664-.513 2.783-.513 3.831v12.16c0 1.13-.292 3.833.513 4.471 1.707 1.352 6.836.329 9.087.329 7.673 0 15.352-.32 23.04-.32 2.22 0 6.996.914 8.858-.329.964-.643.742-2.176.742-3.191v-9.6c0-1.074.25-2.536-.513-3.282-.678-.664-1.763-.561-2.687-.468-2.528.256-6.676-.65-8.858.423-.85.418-.736 1.551-.742 2.367-.014 2.126-.078 8.206 3.71 5.431.636-.466.492-1.226.565-1.91.095-.9.315-1.621.525-2.241 1.334.318 2.168-.27 3.327.649 1.1.872.472 3.722.341 5.111-.073.772.16 1.775-.37 2.367-.551.617-1.553.507-2.338.513-2.209.015-4.505 0-6.72 0-.927 0-2.286.226-2.871-.513-.567-.715-.329-2.061-.329-3.007v-9.28c0-1.012-.362-3.138.513-3.831.738-.584 2.115-.329 3.007-.329h8c2.289 0 4.772-.015 7.04 0 .705.005 1.736-.112 2.231.513.672.848.327 2.22.329 3.327.004 2.827.426 5.483.091 8.32-.884 7.498-.091 15.751-.091 23.36 0 2.34-.024 4.71.119 7.04.068 1.12.5 2.156-.128 3.098-.711 1.07-3.476.742-4.791.742H33.28c-1.325 0-3.269.477-4.287-.329-.625-.495-.508-1.526-.513-2.231-.012-1.756 0-3.669 0-5.44 0-1.977-.874-6.608.329-8.127.533-.673 1.75-.511 2.551-.513 2.38-.005 6.735-.852 8.858.193.923.454.729 1.817.833 2.687.246 2.043.994 5.231-1.692 5.42-3.172.222-1.234-2.609-2.752-3.811-.692-.548-1.956-.525-2.96-.227-1.04.309-.988 1.23-1.006 2.138-.025 1.362-.581 5.236.74 5.887 2.113 1.04 6.477.198 8.859.193.915-.002 2.027.147 2.687-.513.763-.763.513-2.244.513-3.327 0-3.094-.221-6.202-.185-9.28.01-.939.15-2.88-.648-3.511-1.53-1.212-6.502-.329-8.447-.329-7.8 0-15.576.32-23.36.32-2.33 0-4.717-.016-7.04 0-.72.005-1.741-.106-2.231.513-.877 1.107-.329 3.822-.329 5.247 0 4.55-.798 11.577.32 15.36 2.244-.663 8.288-.32 11.52-.32 1.173 0 3.338.423 4.287-.329 1.154-.914.513-4.979.513-6.391 0-1.372.535-4.601-.513-5.431-.604-.478-1.606-.327-2.367-.329-1.394-.003-3.858-.518-4.927.329-.741.587-.783 2.148-.32 3.09.956 1.941 4.256-.367 3.948 3.295-.203 2.418-3.932 1.618-5.741 1.606-.756-.005-1.736.112-2.231-.513-.78-.986-.329-3.577-.329-4.927 0-1.674-.695-5.234.329-6.527.636-.803 2.516-.513 3.511-.513 3.487 0 8.49-.879 11.793.102 1.489.442 1.007 3.138 1.007 4.378v13.44c0 15.997.32 31.986.32 48v11.84c0 1.026.363 3.137-.513 3.831-.791.627-2.357.329-3.327.329H11.2c-1.06 0-2.853.318-3.511-.513-.524-.662-.329-1.829-.329-2.687-.001-2.172-1.12-7.16.009-8.858.621-.934 2.163-.742 3.191-.742 1.409 0 3.683-.403 4.607.329.507.402.491 1.024.505 1.592.02.76.032 1.51-.505 2.046-1.326 1.326-5.227.326-3.454 3.931.457.929 2.033.742 3.007.742 1.8 0 4.174.716 4.927-1.007.533-1.222.193-2.576.193-3.793 0-2.542 1.009-7.865-1.921-7.994-3.205-.141-7.845-.006-11.199-.006-1.053 0-3.145-.278-3.647.742-.63 1.281-.193 3.238-.193 4.698v10.56c0 1.177-.476 4.008.513 4.791 1.552 1.23 6.471.33 8.447.33h23.68c2.054 0 7.945.948 9.407-.514 1.24-1.24.513-5.173.513-6.847 0-2.234.916-6.993-.329-8.858-.6-.899-1.922-.74-2.871-.742-2.227-.005-7.003-.909-8.858.33-1.563 1.042-1.324 8.107.864 8.291 3.27.275 1.657-2.08 2.883-3.628.537-.678 2.155-.704 3.144-.411 1.153.342 1.005 1.726 1.007 2.778.003 1.485.336 4.66-1.007 5.247-2.16.943-6.117.194-8.593.193-.927 0-2.286.226-2.871-.513-.567-.715-.329-2.061-.329-3.007v-9.28c0-1.025-.363-3.137.513-3.83.949-.752 3.114-.33 4.287-.33H44.8c1.13 0 3.833-.292 4.471.513 1.386 1.75.329 7.097.329 9.407v25.92c0 2.336 1.111 8.549-.329 10.367-1.108 1.4-7.178.513-8.951.513H32c-1.024 0-2.224.292-3.007-.329-.75-.593-.513-2.522-.513-3.51v-9.28c0-1.025-.307-2.525.329-3.328.79-.998 4.142-.513 5.431-.513 1.52 0 4.993-.633 6.207.329 1.076.852.796 5.688.411 6.984-.344 1.16-2.617 1.413-3.545.678-1.775-1.406.623-3.908-2.752-3.823-.57.014-1.207.019-1.592.505-.921 1.163-.34 4.036-.329 5.567.005.705-.112 1.736.513 2.231.783.62 1.983.329 3.007.329 2.312 0 6.671.917 8.538-.329.985-.657.742-2.66.742-3.831 0-3.348-.578-10.19 0-12.48-2.834-.838-6.543-.32-9.92-.32-7.096 0-14.362.456-21.44-.029-2.68-.183-5.305-.297-8-.291-.918.002-2.014-.16-2.687.513-.65.65-.511 1.813-.513 2.687-.006 2.767 0 5.552 0 8.32 0 2.328-.005 4.719 0 7.04.002.761-.15 1.763.329 2.367.658.831 2.45.513 3.511.513h9.6c1.004 0 2.293.201 3.007-.513.66-.66.511-1.772.513-2.687.005-2.406.808-6.825-.193-8.858-.456-.927-1.79-.74-2.687-.742-1.64-.003-5.067-.637-5.393 1.299-.135.807-.191 1.75.282 2.348.958 1.21 5.693.646 3.502 3.931-.793 1.19-4.233.752-5.751.742-.975-.007-2.135.08-2.458-1.007-.75-2.528.217-5.588.218-8.273 0-.812-.191-2.364.329-2.99.796-.959 2.306-.271 3.511-.222 3.085.125 6.201.028 9.28-.12 1.015-.047 2.943-.237 3.506.595.635.937.047 2.23.019 3.377-.079 3.196-.005 6.403-.005 9.6 0 12.071.32 24.09.32 36.16v11.84c0 1.034-.341 3.114.742 3.647 2.794 1.375 8.896.193 12.058.193h39.04c.897 0 2.552.294 3.191-.513.745-.94.329-3.157.329-4.287v-21.44c0-1.335.024-2.603-.005-3.84-.024-1.067-.168-1.772-.128-2.88.058-1.614.136-2.828.133-4.48-.003-1.677-.237-2.56-.307-4.16-.234-5.328.043-10.995-.012-16.32-.017-1.63-.312-5.635.648-6.847.664-.838 2.783-.513 3.831-.513h9.28c.946 0 2.292-.238 3.007.329.74.585.513 1.944.513 2.871.001 2.215.015 4.511 0 6.72-.006.816.088 1.766-.513 2.367-1.007 1.006-5.538 1.071-7.065.32-.773-.38-1.118-2.884-.413-3.774.74-.933 2.145-.212 3.09-.842 1.457-.973.718-3.526-.865-3.784-1.546-.251-5.353-.643-6.52.282-.674.533-.512 1.75-.514 2.551a1721 1721 0 0 0 0 7.04c.002.785-.173 2.008.513 2.551.791.627 2.357.329 3.327.329h8.96c1.008 0 3.116.39 3.831-.513.62-.784.329-2.396.329-3.327v-8.32c0-1.74.9-7.513-.513-8.631-1.53-1.212-6.503-.329-8.447-.329-7.99 0-16.4-.865-24.32-.084-2.196.217-7.175-1.258-8.767.285-.827.802-.513 2.82-.513 3.959 0 3.3-1.204 9.219.193 12.058.435.883 1.783.74 2.687.742 2.306.005 4.74.016 7.04 0 .816-.006 1.766.088 2.367-.513 1.037-1.037.54-4.033.512-5.567-.038-1.992-2.13-3.686-3.966-2.231-1.394 1.104-.022 5.561-3.931 3.638-1.257-.619-1.065-5.687-.64-7.12.332-1.119 1.483-1 2.458-1.007 2.303-.016 4.732 0 7.04 0 .965 0 2.535-.218 3.007.742 1.268 2.576.193 8.68.193 11.738 0 1.138.357 3.097-.513 3.967-.957.956-3.349.513-4.607.513h-11.2c-1.164 0-3.333.427-4.287-.329-.687-.544-.511-1.774-.513-2.551-.005-2.572-.307-5.121-.32-7.68-.042-8.766.32-17.487.32-26.24 0-2.353-1.16-7.572.328-9.407.758-.935 3.584-.513 4.792-.513 4.243 0 11.17-1.033 14.993.102 1.222.363 1.007 2.244 1.007 3.418v8.96c0 1.115.313 2.776-.329 3.738-.6.898-1.922.74-2.871.742-2.573.005-5.813.376-8.301-.047-1.585-.27-2.177-6.842-.786-7.944 3.254-2.577 3.223 2.38 4.16 3.318.692.692 1.97.751 2.96.32 1.005-.439.988-1.433 1.006-2.367.03-1.65.689-5.433-1.298-5.978-2.387-.656-5.8-.103-8.301-.102-.818 0-2.01-.207-2.687.329-.834.66-.513 2.552-.513 3.511v9.28c0 .948-.288 2.548.329 3.327 1.167 1.473 7.44.513 9.271.513 7.763 0 15.979-.737 23.68.185 1.855.223 7.687.91 8.951-.698.754-.96.329-3.119.329-4.287v-11.2c0-1.258.443-3.65-.513-4.607-1.364-1.364-6.266-.513-8.127-.513-1.906 0-3.859-.013-5.76 0-.72.005-1.741-.106-2.231.513-1.309 1.652-.33 6.925-.329 9.087 0 .852-.228 2.284.513 2.871.898.711 2.86.329 3.967.329.97 0 2.536.298 3.327-.329.48-.38.491-1.04.505-1.592.083-3.295-2.506-1.09-3.823-2.752-.913-1.153-.292-3.519.97-3.865 1.632-.449 5.75-.52 6.828.468.67.614.511 1.743.513 2.63.005 2.227.005 4.492 0 6.72-.002.785.173 2.008-.513 2.551-.791.627-2.357.329-3.327.329h-9.28c-1.034 0-3.114.341-3.647-.742-.722-1.467-.193-3.572-.193-5.018 0-2.243.05-7.037-.005-9.28-.023-.965-.201-1.582-.232-2.56-.183-5.788.246-11.355.237-16.96-.002-1.44-.188-2.33-.291-3.84-.54-7.888-.029-16.084-.029-24 0-4.71.32-9.377.32-14.08 0-1.425-.548-4.14.329-5.247.664-.838 2.783-.513 3.831-.513h9.6c1.576 0 3.005-.336 3.181 1.606.205 2.253.035 5.952.019 8.314-.006.887.072 2.008-.742 2.551-2.355 1.572-8.631.753-7.476-3.144.379-1.278 3.387-.913 3.865-2.014.422-.973.225-2.26-.549-2.776-1.278-.853-5.669-.916-7.156-.184-.999.491-.742 2.078-.742 3.007-.001 2.174-.015 4.566 0 6.72.005.743-.088 1.514.329 2.138.646.969 2.352.742 3.511.742h9.6c.914 0 2.566.277 3.191-.513.83-1.047.329-3.626.329-4.927 0-3.985.575-10.727-.047-14.381-.333-1.955-6.875-1.299-8.913-1.299H66.88c-1.695 0-7.217-.868-8.311.513-.617.78-.329 2.38-.329 3.327v9.28c0 .989-.236 2.918.513 3.511 1.357 1.075 4.754.329 6.527.329 1.455 0 4.245.49 5.247-.513 1.018-1.018.523-3.74.513-5.247-.006-.769.107-1.721-.513-2.236-.564-.468-1.554-.604-2.348-.45-1.854.357-.72 2.75-1.812 3.745-.615.56-1.835.553-2.652.39-1.34-.269-1.298-1.604-1.314-2.729-.02-1.424-.431-4.649.74-5.431 1.788-1.193 6.633-.334 8.859-.329.949.002 2.272-.156 2.871.742 1.278 1.915.329 6.892.329 9.178 0 1.674.63 5.384-.513 6.527-.85.85-2.748.513-3.967.513H58.88c-1.224 0-3.722.433-4.471-.513-1.114-1.407-.21-5.55-.465-7.487-1.182-9.001.136-18.485.136-27.52 0-2.304-1.094-8.571.329-10.367 1.167-1.473 7.44-.513 9.271-.513H72c.858 0 2.025-.195 2.687.329.831.658.513 2.45.513 3.511 0 2.93 1.259 9.61-.329 12.063-1.187 1.834-7.251 1.061-9.271 1.057-.847-.002-2.008.172-2.551-.513-.478-.604-.327-1.606-.329-2.367-.003-1.302-.587-4.916.742-5.567.895-.438 2.28-.246 2.905.365 1.225 1.198.374 5.117 3.666 3.728 1.35-.57 1.233-5.157.96-6.84-.439-2.697-7.38-1.607-9.553-1.606-.97 0-2.553-.18-3.007.742-1.364 2.772-.193 8.766-.193 12.058 0 1.039-.256 3.222.513 3.831 1.621 1.284 6.314.329 8.447.329h23.68c2.156 0 7.721 1.006 9.407-.329 1.4-1.108.513-7.178.513-8.951v-8.32c0-1.024.291-2.224-.329-3.007-.593-.75-2.522-.513-3.511-.513h-9.28c-1.025 0-2.524-.307-3.327.329-.673.533-.511 1.75-.513 2.551-.005 2.323-.016 4.718 0 7.04.006.81-.123 1.942.742 2.367 2.067 1.017 9.342.812 7.705-2.96-.796-1.833-4.06-.126-4.268-2.613-.259-3.08 6.237-3.912 8.108-2.04 1.037 1.036.513 3.872.513 5.246 0 1.55.65 4.972-.329 6.207-.694.876-2.805.513-3.831.513-3.111 0-6.175.32-9.28.32-1.024 0-2.224.291-3.007-.329-.7-.555-.513-2.007-.513-2.871V4.381c0-1.509-.18-3.027 1.606-3.41 3.25-.696 7.517-.11 10.874-.11h23.36c2.75 0 5.578-.006 8.32 0 .788.002 2.023-.154 2.551.513.671.847.329 2.221.329 3.327v57.28c0 1.215.293 2.966-1.007 3.554-2.973 1.345-8.81.286-12.113.286-1.333 0-2.72.415-3.539-.513-.999-1.134-.305-7.524-.301-9.407.002-.776-.146-2.03.513-2.551 1.31-1.037 5.809-.79 7.065.048.758.506.892 1.543.64 2.484-.44 1.642-3.234.76-3.865 2.04-2.014 4.095 5.176 4.214 7.44 3.226 1.073-.469 1-1.688 1.007-2.687.015-2.243 1.012-7.395-.329-9.087-.593-.75-2.522-.513-3.511-.513h-9.92c-.937 0-2.586-.251-3.191.513-.84 1.06-.329 3.565-.329 4.927v10.56c0 1.45-.417 3.138.193 4.378.378.769 1.31.727 2.047.74 2.266.043 4.753.002 7.04.002 7.942 0 16.45-1.005 24.32-.168 1.833.195 7.885.784 8.951-.882.632-.988.329-2.616.329-3.75v-8.64c0-1.045.277-2.565-.513-3.191-.67-.53-1.813-.329-2.687-.329-2.076 0-7.453-.965-9.087.329-1.55 1.227-1.087 7.979 1.408 7.979 3.465 0 1.237-5.27 5.392-4.046 1.658.488 1.541 7.397.265 8.025-2.135 1.05-6.778.198-9.178.193-.821-.002-2.016.162-2.551-.513-.488-.616-.327-1.581-.329-2.367-.004-2.005 0-4.07 0-6.08 0-1.65-.724-6.371.513-7.351.604-.478 1.606-.327 2.367-.329 2.216-.005 4.498 0 6.72 0h8.32c.877 0 2.283-.245 3.007.329 1.32 1.045.513 6.066.513 7.671v23.04c.001 3.833.32 7.668.32 11.52 0 1.113.21 2.876-.742 3.511-1.147.766-2.965.329-4.378.329h-11.2c-1.277 0-4.012.467-4.791-.513-.558-.703-.5-2.342-.595-3.327-.281-2.957-1.156-9.747.14-12.378.643-1.308 4.288-.742 5.566-.742 1.582 0 5.266-.669 6.527.329 1.093.865.884 4.429.827 5.75-.082 1.9-2.317 3.214-3.96 1.912-1.214-.96-.317-5.415-3.932-3.638-1.32.648-1.032 5.72-.64 7.148.363 1.324 1.592 1.29 2.778 1.299 2.306.016 5.07.042 7.36-.001.932-.018 1.93-.005 2.367-1.006 1.153-2.64-.127-8.673-.127-11.793 0-1.138.357-3.097-.513-3.967-1.501-1.501-7.336-.513-9.407-.513-7.566 0-15.17.346-22.72.177-2.097-.047-7.83-.777-9.407.472-.619.49-.508 1.51-.513 2.231-.016 2.323 0 4.71 0 7.04v8.32c0 .858-.195 2.025.329 2.687.69.871 2.713.513 3.831.513h8.96c1.173 0 2.469.305 3.418-.329.868-.579.74-1.898.742-2.87.005-2.202.015-4.525 0-6.72-.006-.81.087-1.736-.513-2.323-1.172-1.147-4.457-.629-6.206-.552-1.776.079-2.798 2.438-1.592 3.961.982 1.24 5.885.36 3.502 3.931-.501.752-1.436.726-2.231.74-1.553.03-3.707.424-5.03-.191-1.09-.507-.991-1.94-.865-3.007.217-1.823.138-3.966.135-5.76-.001-.863-.306-2.291-.036-3.098.182-.544.615-.625 1.016-.695 2.562-.442 9.088-.047 12.14-.047.988 0 2.918-.236 3.511.513.806 1.018.329 2.963.329 4.287v72.64c0 1.164.452 4.02-.742 4.607-2.86 1.407-9.14.193-12.378.193-1.118 0-3.14.358-3.831-.513-.883-1.115-.329-4.355-.329-5.887 0-1.484-.517-4.856.513-5.887 1.056-1.056 3.774-.532 5.247-.512.822.012 1.76-.038 2.367.557.593.58.6 1.453.465 2.316-.431 2.772-5.2.743-4.01 4.759.302 1.02 1.244.989 2.138 1.006 1.383.026 4.867.604 5.751-.512.808-1.02.329-3.636.329-4.927 0-1.834.781-5.445-.329-6.847-.593-.75-2.523-.513-3.511-.513h-9.28c-1.025 0-2.524-.307-3.327.329-.838.664-.513 2.783-.513 3.831v12.16c0 1.189-.451 3.988.742 4.612 1.948 1.018 5.097.195 7.258.385 7.895.694 16.072.123 24 .123 2.783 0 7.446.866 9.873-.193 1.572-.687.632-4.602.824-6.207.312-2.612-.119-5.082-.137-7.68-.006-.876.14-2.034-.513-2.687-1.137-1.137-4.32-.513-5.887-.513-1.458 0-5.097-.62-5.978.742-.718 1.108-.576 6.372.227 7.385.546.69 1.745.626 2.532.411 1.22-.332 1.2-3.451 2.04-3.865 3.824-1.881 4.417 4.965 3.226 7.385-.463.941-1.822.74-2.687.742-2.152.004-7.725 1.003-9.407-.329-.835-.661-.513-2.54-.513-3.511v-9.6c0-.915-.29-2.556.513-3.191 1.029-.815 3.654-.329 4.927-.329h10.24c1.45 0 3.424-.387 4.753.193.97.424.988 1.445 1.005 2.367.048 2.545.001 5.13.001 7.68 0 9.285.32 18.579.32 27.84 0 1.857.88 7.82-1.007 8.674-3.662 1.657-10.94.286-14.993.286-1.48 0-3.78.549-4.931-.329-.797-.607-.815-2.473-.827-3.511-.04-3.31.034-6.604 0-9.92-.01-.994-.27-2.572.512-3.191.661-.524 1.828-.329 2.686-.329 1.816 0 8.139-.917 9.272.513.802 1.013.774 6.316 0 7.294-.74.933-2.406.57-3.512.833-.387-1.312.147-3.345-1.061-4.151-4.116-2.746-4.644 6.605-2.905 7.982 1.674 1.326 7.3.333 9.406.329.786-.002 2.008.173 2.552-.513 1.334-1.686.328-7.251.328-9.407 0-1.56.663-5.78-.513-6.711-.603-.478-1.605-.327-2.367-.329-2.32-.005-4.712 0-7.04 0H114.24c-2.037 0-6.884-.91-8.447.329-.905.717-.513 3.323-.513 4.471v12.16c0 1.077-.402 3.426.513 4.151 1.26.998 4.041.126 5.567.222 2.512.158 8.355 1.182 10.458-.222.895-.597.74-1.918.742-2.871.005-2.48.839-7.06-.644-9.178-1.07-1.529-7.549-.696-7.894.557-.245.888-.29 2.014.227 2.668 1.168 1.475 3.75-.498 3.823 2.434.077 3.051-3.187 2.24-5.432 2.239-.852 0-2.285.228-2.871-.513-1.334-1.684-.333-7.246-.329-9.407.002-.801-.16-2.018.513-2.551.858-.68 2.55-.329 3.647-.329h8.96c.991 0 2.517-.27 3.356.329 1.067.762.804 2.677.804 3.831v10.56c0 3.361-.538 7.278-.264 10.56.211 2.543.264 4.643.264 7.36v28.8c0 .954-.343 2.833.513 3.511 1.59 1.259 6.776.329 8.767.329h24.32c4.91 0 9.83-.069 14.72.075 1.905.056 4.926.922 6.618-.177 1.077-.7.742-2.612.742-3.738v-58.24c0-.927-.226-2.286.513-2.871.811-.643 2.552-.329 3.647-.329 2.44 0 5.675-.026 8 .001 1.238.015 3.561-.32 4.471.832 1.007 1.274.329 4.905.329 6.527 0 1.273.486 3.898-.329 4.927-1.418 1.79-10.867.913-7.662-3.134.776-.98 2.382-.1 3.318-.842.698-.553.713-2.29.32-3.09-.662-1.344-4.542-.765-5.887-.74-.904.017-1.832-.027-2.138 1.006-.676 2.276-.103 6.108-.102 8.593 0 .855-.196 2.028.329 2.686.62.777 1.924.35 2.871.384 3.303.12 6.61.13 9.92.13 1.113 0 2.876.21 3.511-.742.766-1.147.329-2.965.329-4.378v-11.2c0-1.275.468-4.015-.513-4.791-1.244-.985-5.135-.33-6.847-.33h-31.36c-1.048 0-3.167-.325-3.831.514-.68.857-.329 2.55-.329 3.647v8.96c0 .97-.298 2.535.329 3.327.586.74 2.019.512 2.871.513 2.098 0 7.446.97 9.087-.33 1.097-.868.537-4.394.512-5.75-.013-.657.048-1.468-.512-1.911-.536-.425-1.34-.37-2.04-.31-2.31.194-.942 2.45-2.12 3.628-.587.586-1.49.605-2.348.465-1.946-.317-1.303-3.982-1.299-5.712.002-.801-.16-2.018.513-2.551 1.612-1.277 6.64-.33 8.767-.33.9 0 2.585-.252 3.191.514 1.445 1.824.33 6.936.329 9.407 0 1.568.452 5.874-.513 6.847-.845.851-2.752.513-3.967.513-3.96 0-7.888-.075-11.84-.237-1.177-.048-4.165.32-4.791-.534-1.376-1.877-.329-7.069-.329-9.47v-25.92c0-2.303-1.094-8.57.329-10.366.775-.978 3.34-.513 4.471-.513h11.52c1.199 0 3.373-.401 4.287.513.87.87.513 2.829.513 3.967 0 3.404.851 8.241-.057 11.472-.44 1.565-3.768 1.008-5.063 1.008-1.549 0-6.363.735-7.351-.513-.627-.792-.329-2.357-.329-3.327 0-1.122-.45-3.701.742-4.287.846-.417 2.58-.376 3.225.136 1.156.915.338 5.9 3.931 3.502 1.206-.805 1.27-6.756.229-7.798-1.066-1.066-4.446-.528-5.887-.497-1.464.031-4.689-.636-5.887.313-.902.714-.513 2.823-.513 3.83 0 3.376-1.236 9.475.193 12.38.41.83 1.542.735 2.367.74 2.32.017 4.713 0 7.04 0h24.32c2.01 0 4.075.014 6.08 0 .816-.005 1.766.088 2.367-.512.6-.601.507-1.551.513-2.367.014-2.005 0-4.07 0-6.08 0-2.819 1.233-9.398-.329-11.738-.683-1.024-2.435-.742-3.511-.742h-9.28c-.999 0-2.81-.335-3.647.329-1.512 1.197-.517 7.739-.513 9.59.002.874-.185 2.232.742 2.688 1.274.627 6.293.729 7.385-.136.679-.538.646-2.03.411-2.824-.429-1.447-3.34-.682-3.865-1.749-.867-1.761.085-3.5 2.047-3.591 1.37-.064 4.844-.468 5.751.686 1.333 1.695.333 7.257.329 9.407-.002.873.185 2.23-.742 2.687-1.33.654-3.28.062-4.698-.073-2.526-.24-5.144-.054-7.68-.054-1.02 0-3.092.387-3.647-.742-.634-1.288-.193-3.609-.193-5.018v-70.4c0-1.327-.61-4.861.513-5.751.832-.659 2.632-.329 3.647-.329h8.96c.931 0 2.543-.292 3.327.329 1.529 1.211.448 7.413.526 9.271.036.868.373 1.722-.05 2.458-.508.88-1.915.74-2.843.742-1.666.003-4.871.415-5.338-1.299-1.008-3.7 3.827-1.766 4.038-4.782.226-3.246-3.152-2.305-5.42-2.256-.734.015-2.004-.377-2.551.239-.865.973-.329 3.958-.329 5.218 0 1.652-.622 5.326.329 6.527.658.831 2.45.513 3.511.513H200c.97 0 2.536.298 3.327-.329.915-.725.513-3.074.513-4.151v-11.84c0-1.224.433-3.722-.513-4.471-.604-.478-1.606-.327-2.367-.329-2.32-.005-4.713.026-7.04-.001-7.87-.093-15.788.001-23.68.001-1.998 0-7.152-.972-8.767.063-1.268.813-.513 6.471-.513 7.937 0 1.96-.87 6.933.329 8.447.593.748 2.001.513 2.871.513 2.394.001 6.733.853 8.858-.193.858-.422.736-1.558.742-2.367.012-1.806.77-5.662-1.606-6.032-3.268-.51-1.718 2.129-2.883 3.599-.49.62-2.24.737-3.09.32-.93-.458-.74-1.812-.741-2.687-.003-1.625-.562-5.076 1.299-5.393 2.302-.392 5.857-.048 8.301-.047.858 0 2.025-.195 2.687.329.788.624.513 2.193.513 3.191v9.6c0 1.23.207 3.117-1.007 3.647-1.374.6-3.19.193-4.753.193h-10.56c-1.177 0-4.008.476-4.791-.513-1.087-1.372-.329-5.433-.329-7.167v-33.92c0-1.179-.355-4.067.742-4.607 1.506-.741 3.957-.292 5.658-.217 3.181.14 6.414.024 9.6.024 1.35 0 3.941-.452 4.927.329.831.658.513 2.45.513 3.511v8.64c0 1.04.27 2.52-.329 3.418-1.116 1.673-7.372.743-9.271.742-.854 0-2.277.237-2.871-.513-.916-1.157-.443-4.744-.31-6.2.135-1.484 2.337-2.3 3.628-1.278 1.156.916.338 5.9 3.931 3.502 1.354-.903.86-4.892.723-6.385-.23-2.53-6.923-1.606-9.261-1.606-1.004 0-2.84-.246-3.327.742-1.329 2.7-.193 8.624-.193 11.738 0 1.012-.362 3.138.513 3.831 1.69 1.338 7.262.329 9.407.329 7.8 0 15.582.064 23.36.054 2.167-.003 7.304 1.03 9.087-.383 1.454-1.152.513-7.184.513-8.951v-8c0-1.024.291-2.224-.329-3.007-.593-.75-2.522-.513-3.511-.513h-9.28c-1.015 0-2.815-.33-3.647.329-.691.548-.511 1.762-.513 2.551-.004 2.02-.953 7.621.513 9.087.87.87 2.83.513 3.967.513 1.008 0 3.117.39 3.831-.513 2.461-3.108-2.275-3.15-3.318-3.976-.695-.55-.722-2.272-.32-3.09.561-1.14 5.473-.925 6.828-.694 2.352.401 1.303 7.65 1.299 9.553-.002.999.188 2.487-1.007 2.823-3.318.932-8.297.057-11.793.057-1.008 0-3.116.39-3.831-.513-.62-.784-.329-2.396-.329-3.327V6.301c0-1.417-.548-4.568 1.007-5.247 2.556-1.116 7.384-.193 10.193-.193h32.32c.877 0 2.283-.245 3.007.329.85.674.513 2.538.513 3.511v56.64c0 .999.335 2.81-.329 3.647-.78.986-3.359.513-4.471.513-3.408 0-8.857-.562-11.84.32-1.223-2.542-.64-5.788-.64-8.64 0-1.04-.27-2.52.329-3.418.807-1.21 6.343-1.231 7.57-.413 3.848 2.568-2.207 3.606-2.906 4.16-.834.66-.724 3.169.229 3.638 1.334.656 6.755.671 7.57-.549.952-1.428.328-4.618.328-6.298 0-1.316.484-3.93-.513-4.927-.773-.773-2.319-.513-3.327-.513h-9.28c-1.008 0-3.116-.39-3.831.513-1.654 2.089-.023 8.746-.092 11.327-.05 1.893-1.033 7.686.595 8.951.915.712 2.86.329 3.968.329h30.72c1.504 0 6.067.704 7.031-.513 1.265-1.597.329-6.731.329-8.767 0-1.816.697-5.4-.329-6.938-1.116-1.673-7.372-.743-9.271-.742-.854 0-2.277-.237-2.871.513-.913 1.153-.443 4.74-.31 6.2.137 1.505 2.35 2.36 3.628 1.323.9-.731.265-2.795 1.317-3.547 3.918-2.799 3.83 4.109 3.657 6.07-.288 3.269-6.765 2.12-9.261 2.228-1.025.045-2.863.215-3.327-.729-.536-1.088-.193-2.461-.193-3.738 0-2.906-.182-5.75-.307-8.64-.049-1.109-.202-2.845.766-3.511 2.02-1.39 7.59-.329 10.101-.329 2.557 0 5.123-.017 7.68 0 .876.006 2.001-.083 2.551.742 1.314 1.968.329 7.145.329 9.498 0 8.26-.536 16.721.029 24.96.176 2.57 1.45 8.229-.038 10.458-.751 1.126-2.964.742-4.151.742h-12.16c-1.225 0-3.722.433-4.471-.513-.567-.715-.329-2.061-.329-3.007v-9.28c0-1.048-.325-3.167.513-3.831 1.247-.988 4.595-.329 6.207-.329 1.43 0 4.491-.563 5.567.513 1.07 1.07.539 4.13.511 5.567-.013.71.026 1.51-.511 2.047-.463.463-1.096.5-1.726.5-3.197 0-1.043-3.392-3.248-4.045-.84-.249-2.304-.246-2.824.411-.805 1.016-.33 3.292-.329 4.607 0 .858-.195 2.025.329 2.687.495.625 1.475.508 2.231.513 2.405.016 4.95.005 7.36 0 .972-.002 2.292.126 2.871-.742.628-.941.342-2.253.328-3.418-.036-2.996.705-9.585-.512-12.058-.495-1.006-2.844-.742-3.967-.742h-31.68c-1.567 0-5.254-.68-6.527.329-1.025.812-.513 3.629-.513 4.791 0 3.956-.109 7.905.266 11.84.116 1.225-.268 2.373.247 3.418.487.99 2.564.742 3.647.742h9.6c1.004 0 2.293.201 3.007-.513.66-.66.511-1.772.513-2.687.005-2.32.512-6.205-.102-8.273-.421-1.419-4.144-1.01-5.658-1.007-.89.002-2.237-.175-2.687.742-.44.895-.296 2.289.32 2.905.887.887 3.485.228 3.865 1.52.277.94.227 2.002-.411 2.64-1.055 1.055-4.003.524-5.567.513-.756-.005-1.736.112-2.231-.513-.478-.604-.327-1.606-.329-2.367-.005-2.225-.32-4.493-.32-6.72 0-.927-.226-2.286.513-2.871.604-.478 1.606-.327 2.367-.329 2.321-.005 4.712 0 7.04 0 1.648 0 5.623-.71 6.847.513.997.997.513 3.61.513 4.927v72c0 1.237.462 3.608-.329 4.607-.694.876-2.806.513-3.831.513-3.127 0-9.426 1.102-12.058-.193-.96-.472-.742-2.042-.742-3.007-.001-2.308-.016-4.737 0-7.04.008-1.18-.095-2.275 1.299-2.513 1.275-.217 3.452-.056 4.781-.047.655.005 1.49-.112 2.047.329.5.395.5 1.009.5 1.592 0 3.167-2.943 1.243-4.138 2.752-1.324 1.672.004 3.878 1.911 3.96 1.886.083 4.757.555 5.887-.55.666-.653.511-1.698.513-2.643.005-2.264.015-4.775 0-7.04-.006-.888.067-1.963-.742-2.503-1.348-.9-3.123-.227-4.698-.116-2.491.176-5.157.059-7.68.059-1.012 0-3.138-.362-3.831.513-.63.795-.329 2.364-.329 3.327v8c0 1.773-.886 7.843.513 8.951 1.597 1.265 6.731.329 8.767.329h23.68c2.327 0 4.72.016 7.04 0 .816-.006 1.766.088 2.367-.513.808-.808.513-2.494.513-3.647 0-3.126 1.102-9.427-.193-12.058-.434-.882-1.544-.736-2.367-.742-2.292-.016-5.052-.005-7.36 0-1.06.002-2.424-.187-2.778 1.007-.401 1.35-.13 3.526-.1 5.073.017.946-.035 1.776 1.005 2.167 1.891.71 3.345.104 3.468-1.848.05-.795-.087-1.431.518-1.91 1.692-1.339 3.611.421 3.645 2.231.03 1.59.547 4.509-.511 5.567-.6.6-1.551.507-2.367.513-2.3.015-4.734.005-7.04 0-.904-.002-2.252.141-2.687-.742-1.397-2.84-.193-8.758-.193-12.058 0-1.108-.315-3.126.513-3.881.906-.826 2.76-.522 3.967-.546 3.84-.076 7.68-.053 11.52-.053 1.258 0 3.65-.443 4.607.513 1.644 1.645.62 7.559.526 9.727-.383 8.741.265 17.524.307 26.24.012 2.538.017 5.149 0 7.68-.005.795.099 1.785-.513 2.354-.808.753-3.39.254-4.607.254l-11.52-.048c-1.325 0-3.269.477-4.287-.329-.625-.495-.508-1.526-.513-2.231-.012-1.756 0-3.669 0-5.44 0-2.05-1.138-7.842.742-8.767 1.916-.943 3.557-.15 5.338-.185 1.71-.033 4.55-.477 5.978.393.872.53.74 1.85.742 2.799.004 2.065.718 5.236-1.922 5.42-2.464.172-2.025-1.013-2.66-3.133-.359-1.198-1.754-1.29-3.05-.905-1.042.308-.99 1.23-1.007 2.138-.025 1.362-.581 5.236.74 5.887 2.126 1.046 6.465.194 8.859.193.852 0 2.284.228 2.871-.513 1.265-1.597.329-6.731.329-8.767 0-1.651.724-6.371-.513-7.351-.604-.478-1.606-.327-2.367-.329-2.321-.005-4.712 0-7.04 0h-24c-2.08 0-4.34-.014-6.4 0-.7.005-1.492-.111-2.047.329-.84.665-.513 3.276-.513 4.471v11.84c0 1.173-.423 3.338.329 4.287.72.908 2.509.391 3.511.326 3.06-.2 6.213-.203 9.28-.128 1.162.028 2.8.632 3.647-.2.663-.65.511-1.777.513-2.685.005-2.394.531-6.46-.102-8.593-.348-1.173-1.454-1-2.458-1.007-1.53-.01-4.404-.592-5.567.329-.875.693-.5 3.28.229 3.638 1.345.662 2.095-.373 3.225.522.551.436.542 1.202.493 1.91-.036.513-.096 1.01-.493 1.408-.764.764-2.244.513-3.327.513-1.234 0-3.325.433-4.287-.329-.619-.49-.508-1.51-.513-2.231-.013-1.901 0-3.854 0-5.76 0-1.74-.644-4.102 1.299-4.433 1.569-.267 4.198-.05 5.741-.047 1.53.002 3.103.073 4.8.158 1.628.082 4.335-1.451 5.018.85.689 2.32.102 9.232.102 12.112v47.68c0 1.285-.265 3.752.779 4.471.928.64 2.22.329 3.381.329 3.01 0 5.966-.19 8.96-.307 9.99-.39 20.085.545 30.08.05 2.974-.148 5.981-.062 8.96-.063 1.015 0 2.548.222 3.191-.742.642-.962.329-2.623.329-3.738v-56c0-1.099-.386-3.064.329-3.967.71-.896 2.799-.471 3.831-.542 3.24-.22 8.9-1.099 11.793-.025 1.08.401 1 1.633 1.007 2.614.013 2.006.945 9.49-1.299 9.873-1.932.329-9.884.43-6.692-3.6.8-1.01 2.451-.16 3.318-1.026 1.66-1.66.072-3.612-1.727-3.646-1.758-.033-4.646-.655-5.887.328-.667.528-.511 1.736-.513 2.551-.005 2.307-.005 4.727 0 7.04.002.726-.192 2.045.513 2.497.761.488 2.417.064 3.327.063 3.202-.005 6.4.062 9.6.097 1.079.012 2.888.4 3.511-.52.59-.869.329-2.018.329-3.097 0-2.885.11-5.774-.229-8.64-.244-2.067-.054-4.338-.092-6.4-.015-.798.02-1.723-.74-2.231-1.88-1.254-6.567-.33-8.859-.33H273.6c-2.328 0-4.719-.004-7.04 0-.786.003-1.75-.158-2.367.33-.802.635-.513 2.47-.513 3.51 0 3.237-1.213 9.521.193 12.38.533 1.082 2.613.74 3.647.74 2.706 0 8.89 1.34 8.959-2.24.03-1.593.621-4.367-.328-5.566-.47-.592-2.547-.795-3.318-.184-.708.56-.459 2.971-1.255 3.502-.858.573-2.499.562-3.09-.184-.854-1.08-.683-5.582-.226-7.12.327-1.101 1.506-1 2.458-1.007 2.422-.017 4.948-.017 7.36.121.92.053 2.233.002 2.687.94 1.262 2.604.193 8.66.193 11.739 0 1.074.31 2.824-.513 3.647-.957.956-3.349.513-4.607.513-3.816 0-7.713-.23-11.52.029-1.48.1-3.14.643-4.287-.345-.762-.657-.513-2.45-.513-3.524v-34.56c0-1.594-.765-6.659.513-7.671.734-.582 2.109-.329 3.007-.33h8.32c2.222 0 4.504-.004 6.72 0 .761.003 1.763-.148 2.367.33.831.658.513 2.45.513 3.51v9.6c0 1.005.201 2.294-.513 3.008-.66.66-1.772.511-2.687.513-2.406.005-6.825.807-8.858-.193-1.116-.55-.752-4.429-.742-5.887.007-.979-.13-2.155 1.007-2.416 3.534-.813 2.786 2.011 3.473 4.336 1.335-.271 2.187-.282 3.52 0 .516-1.744.32-3.007.32-5.12 0-.949.261-2.262-.329-3.007-.571-.721-1.998-.513-2.871-.513-2.547-.001-6.671-.883-8.858.193-.99.487-.742 2.564-.742 3.647v9.28c0 .97-.298 2.536.329 3.327.725.915 3.074.513 4.151.513h30.72c1.673 0 5.52.722 6.847-.329.989-.783.513-3.614.513-4.791 0-4.179.563-8.317.092-12.48-.117-1.03.362-2.2-.155-3.007-.491-.766-2.814-.513-3.777-.513h-9.6c-.945 0-2.292-.238-3.007.329-.685.543-.511 1.704-.513 2.55-.005 2.463-.512 6.4.102 8.622.364 1.32 1.355 1.115 2.458 1.032 1.524-.115 4.794.641 5.751-.795 2.12-3.182-2.137-2.811-3.318-3.747-.677-.536-.644-2.04-.411-2.824.528-1.781 7.623-1.504 8.116.292.654 2.382.103 5.804.102 8.3 0 .853.228 2.285-.513 2.872-.791.627-2.357.329-3.327.329h-9.28c-1.034 0-3.114.341-3.647-.742-.716-1.455-.193-4.034-.193-5.658v-69.76c0-1.525-.483-3.963.193-5.338.542-1.102 2.616-.742 3.647-.742h8.64c1.115 0 2.776-.313 3.738.329 1.674 1.117.743 7.369.742 9.27 0 .853.228 2.285-.513 2.872-1.157.916-5.041.531-6.508.282-1.407-.24-1.864-2.803-.97-3.919.67-.837 1.914-.255 2.824-.681 1.31-.614 1.347-3.212 0-3.8-1.237-.54-6.49-.709-7.304.32-.983 1.241-.329 4.666-.329 6.207 0 1.33-.571 4.51.513 5.444.869.748 2.56.63 3.647.636 2.88.014 5.76 0 8.64 0 1.027 0 3.122.383 3.831-.513.617-.78.329-2.38.329-3.327v-8.32c0-1.722.91-7.504-.513-8.631-.99-.785-3.413-.33-4.607-.33h-16.96c-.909 0-1.623.002-2.56 0-1.062 0-1.788-.048-2.88-.116a111 111 0 0 0-7.04-.203c-1.884 0-5.666-.734-7.258.329-1.108.74-.786 2.984-.689 4.15.291 3.495-1.062 8.647.46 11.74.487.99 2.564.74 3.647.74 2.86 0 8.572 1.294 8.639-2.24.034-1.802.103-8.719-3.646-5.75-.7.554-.465 2.975-1.255 3.502-.858.573-2.499.561-3.09-.184-.847-1.07-.693-5.588-.226-7.115.335-1.097 1.564-.738 2.458-.704 2.309.085 4.735.007 7.04.012.896.002 2.23-.185 2.687.742 1.19 2.418.477 8.809.512 11.738.012 1.068.304 2.83-.512 3.647-.957.956-3.349.513-4.607.513h-11.2c-1.164 0-3.333.427-4.287-.329-.875-.693-.513-2.819-.513-3.831 0-3.53-.32-7.022-.32-10.56v-23.68c0-1.604-.692-6.717.513-7.671.683-.541 1.82-.329 2.687-.33h7.68c2.108 0 8.2-.995 9.727.515.825.816.513 2.577.513 3.646v8.96c0 .97.298 2.536-.329 3.327-.586.74-2.019.513-2.871.513-2.194 0-7.105.988-8.767-.329-.667-.528-.511-1.763-.513-2.551-.003-1.64-.637-5.067 1.299-5.393.807-.135 1.751-.19 2.348.282 1.338 1.06-.28 3.639 2.12 3.81 3.056.22 2.568-3.464 2.553-5.74-.005-.782.1-1.718-.513-2.258-.894-.788-3.313-.506-4.607-.592-1.645-.11-5.85-.744-7.167.3-.875.693-.513 2.819-.513 3.83v8.96c0 .971-.298 2.537.329 3.328 1.06 1.339 6.627.513 8.311.513 8.036 0 16.213.32 24.32.32 2.34 0 4.704.016 7.04 0 .809-.006 1.945.115 2.367-.742.613-1.246.193-3.312.193-4.698v-10.88c0-1.225.433-3.722-.513-4.471-.604-.478-1.606-.328-2.367-.33-2.005-.003-4.07 0-6.08 0-1.773 0-6.568-.71-7.762.514-1.332 1.364-.239 6.76-.238 8.767 0 .858-.195 2.025.329 2.687.495.625 1.475.507 2.231.513 1.639.011 4.032.556 5.337-.329.814-.552.85-2.767-.089-3.502-1.154-.906-5.836-.799-3.32-3.976.86-1.086 4.43-.55 5.752-.508.712.022 1.507.024 2.047.552 1 .98.513 3.761.513 5.203 0 1.54.638 5.056-.513 6.207-.87.87-2.83.513-3.967.513-3.347 0-8.312.837-11.473-.102-1.353-.402-1.007-2.3-1.007-3.418V5.021c0-1.025-.307-2.524.329-3.327.838-1.058 4.69-.513 6.071-.513h18.24M0 1.181h.32m34.88 53.44h.32" fill="none" stroke="#342a22"/></svg>