<?xml version="1.0" encoding="UTF-8" standalone="no"?>
<!-- Created with Inkscape (http://www.inkscape.org/) -->

<svg
   version="1.1"
   id="svg1"
   width="271.06833"
   height="140.86864"
   viewBox="0 0 271.06833 140.86864"
   xmlns="http://www.w3.org/2000/svg"
   xmlns:svg="http://www.w3.org/2000/svg">
  <defs
     id="defs1" />
  <g
     id="g1"
     transform="translate(-2.8509688,-69.227421)">
    <path
       style="fill:none;stroke:#564121"
       d="m 2.8799999,70.230719 c 1.8703331,0.108779 6.494935,0 9.2799991,0 h 24.639999 7.36 c 0.837383,3.8e-4 2.274766,-0.239854 2.871108,0.513086 1.074541,1.356718 0.244507,5.196377 0.357534,6.846914 0.06553,0.956904 0.251949,1.629599 0.274322,2.56 0.02676,1.112656 -0.116592,2.604531 -0.222964,3.84 -0.318257,3.696367 -0.213467,8.501182 -0.04667,12.16 0.05468,1.199307 0.27458,1.978253 0.285185,3.200001 0.01517,1.7475 -0.216103,3.64108 -0.172841,5.44 0.02236,0.92973 0.161582,1.58765 0.173086,2.56 0.05807,4.90817 0.0012,10.39773 0.0012,15.36 0,15.29862 0,29.39076 0,44.80001 v 22.08 c 0,1.50714 0.808491,6.39916 -1.007407,6.93827 -2.565073,0.76153 -6.238352,0.10173 -8.912593,0.10173 H 18.559999 c -1.72174,0 -7.503458,0.91069 -8.6311109,-0.51309 -0.7451135,-0.94078 -0.3288885,-3.15695 -0.3288885,-4.28691 v -11.84 c 0,-4.76707 0,-9.80324 0,-14.40001 0,-2.355 0,-4.72171 0,-7.04 0,-4.48248 0,-9.36638 0,-14.08 0,-2.61898 0.00328,-4.99218 0,-7.68 -0.0068,-5.56464 -0.1143683,-11.76081 -0.0079,-17.28 0.020734,-1.07485 0.0079,-1.87036 0.0079,-2.88 0,-0.89932 0,-1.64969 0,-2.56 0,-2.51954 0,-5.46175 0,-8 0,-2.5225 -0.00522,-5.14306 0,-7.68 0.00178,-0.865225 -0.1990289,-2.224004 0.7417284,-2.686915 2.881515,-1.41789 9.160113,-0.193086 12.378271,-0.193086 4.377466,0 8.752114,0 13.119999,0 1.311888,0 3.928294,-0.485527 4.926914,0.513086 0.848794,0.848789 0.556978,2.882217 0.484444,3.966915 -0.206578,3.08913 0.06406,6.18248 0.02741,9.28 -0.02324,1.96412 -0.213482,3.98694 -0.210122,6.08 0.0017,1.07829 0.198574,1.75755 0.210122,2.88 0.01536,1.49241 -0.240103,2.65123 -0.306172,4.16 -0.281685,6.43281 -0.416741,13.73856 0.03704,20.16 0.499028,7.06178 -0.04963,14.63274 -0.04963,21.76 0,1.92578 0.861782,6.35081 -1.007407,7.16692 -1.281384,0.55946 -3.852768,0.19309 -5.392593,0.19309 -4.57904,0 -9.017736,0 -13.439999,0 -0.922363,0 -1.652595,0.0114 -2.56,-0.001 -1.058786,-0.0148 -1.993359,0.0328 -2.551111,-0.77753 -1.127402,-1.63803 -0.328889,-7.9374 -0.328889,-10.10124 0,-9.36624 0,-18.98386 0,-28.48 v -8.32 c 3.78e-4,-0.83738 -0.239847,-2.27477 0.513087,-2.87111 1.45491,-1.15232 5.996754,-0.32889 7.806913,-0.32889 h 7.68 c 0.83737,3.8e-4 2.274777,-0.23984 2.87111,0.51309 0.96697,1.2209 0.328889,4.49833 0.328889,5.88691 0,0.98652 0,2.24842 0,3.2 0,0.92369 0,1.59835 0,2.56 0,0.96026 0,1.60579 0,2.56 0,2.19285 0.643794,8.43752 -0.193085,10.13827 -0.794195,1.61401 -7.503887,0.74259 -9.406914,0.74173 -0.790139,-3.5e-4 -2.019385,0.19981 -2.686914,-0.32889 -1.162888,-0.92102 -0.816355,-6.89955 -0.411357,-8.2637 0.442241,-1.4896 5.4554,-1.60712 6.104938,-0.26568 1.480972,3.05854 -3.725141,1.68375 -2.903457,4.65111 0.453987,1.6395 5.41367,1.53109 5.982222,-2.4e-4 0.441238,-1.18843 0.510478,-7.44873 -0.518518,-8.26371 -1.227288,-0.97203 -4.701189,-0.32889 -6.206914,-0.32889 -1.260005,0 -4.561163,-0.58531 -5.431111,0.51309 -0.822911,1.03901 -0.328889,3.66958 -0.328889,4.92691 v 13.44 c 0,1.26 -0.585314,4.56116 0.513087,5.43112 0.890025,0.7049 2.901913,0.32888 3.966913,0.32888 3.274404,0 6.700046,0.19784 9.92,0.0815 1.133928,-0.041 3.416137,0.2793 4.286913,-0.41037 1.107251,-0.87696 0.513086,-2.95792 0.513086,-4.47111 0,-2.16685 0,-4.20275 0,-6.4 0,-0.95014 0,-1.65581 0,-2.56 0,-1.19362 0,-2.61923 0,-3.84 0,-5.45596 0,-10.89392 0,-16.32 0,-1.68924 0,-3.41616 0,-5.12 0,-0.94666 0,-1.62084 0,-2.56 0,-1.54663 0.821284,-6.93427 -0.513086,-7.99112 -0.980568,-0.77662 -3.343976,-0.32888 -4.286913,-0.32888 -0.922732,0 -1.607163,0 -2.56,0 -2.142337,0 -4.551731,0 -6.72,0 h -8 c -0.861873,6e-5 -2.279843,-0.24697 -3.006912,0.32888 -0.986083,0.781 -0.513088,3.35885 -0.513088,4.47112 v 12.48 41.6 c 0,4.18591 -0.245323,8.66478 0.12321,12.8 0.08968,1.00631 -0.202182,2.24314 0.30321,3.14468 0.983346,1.75414 5.157568,0.99364 6.93358,1.01409 5.47949,0.0631 11.143559,10e-4 16.639999,10e-4 2.127649,0 5.136563,0.60209 6.992593,-0.23753 0.99397,-0.44965 0.988154,-1.38114 1.005928,-2.32272 0.03886,-2.0589 0.0015,-4.32112 0.0015,-6.39975 0,-2.1977 8.4e-4,-4.5391 0,-6.72 -4.15e-4,-1.07116 -0.07871,-2.13848 -0.09284,-3.2 -0.01241,-0.93219 0.08214,-1.60424 0.0916,-2.56 0.01175,-1.18652 -0.07663,-2.07492 -0.0916,-3.2 -0.0106,-0.7969 0.07366,-1.42465 0.08839,-2.24 0.0468,-2.59027 -0.480376,-5.35341 -0.26,-8 0.08829,-1.06032 0.249926,-1.76367 0.263208,-2.88 0.02311,-1.94279 -0.11605,-3.32554 -0.137285,-5.12 -0.04602,-3.88896 -0.208589,-7.83521 -0.18,-11.84 0.01246,-1.74612 0.310742,-2.80644 0.318276,-4.48 0.0054,-1.19997 -0.04815,-2.09798 -0.04815,-3.2 0,-2.09189 0.0484,-4.26249 0.0484,-6.4 0,-1.35789 0,-2.47485 0,-3.84 0,-1.42986 0,-2.22177 0,-3.52 0,-2.14238 0,-4.84097 0,-7.04 0,-4.52979 0,-8.411889 0,-12.800005 0,-1.257246 0.499722,-3.880703 -0.328892,-4.926914 -1.127656,-1.42378 -6.909362,-0.513086 -8.631108,-0.513086 H 15.359999 c -2.171303,0 -6.2714826,-0.762813 -8.2182708,0.193086 -1.2029974,0.590683 -0.9088037,2.925361 -0.8728399,3.966914 0.036232,1.049336 0.1188397,1.807227 0.1298767,2.88 0.023582,2.292129 -0.013648,4.498946 -0.04321,6.72 C 6.299777,100.66138 6.4,105.17418 6.4,109.59073 c 0,3.60561 0,7.49302 0,11.2 v 24.32 c 0,13.18689 0,25.64445 0,39.04 v 18.24 c 0,1.40185 -0.6881909,5.43968 0.5130859,6.39111 1.1341662,0.89827 4.1845921,0.32889 5.5669131,0.32889 h 14.4 c 8.190146,0 16.457607,-0.0961 24.639999,0.001 1.039116,0.0124 1.910752,0.21012 2.88,0.21012 2.16333,0 4.31895,-0.26533 6.719999,-0.20667 1.093267,0.0267 1.838965,0.20855 2.88,0.24865 3.042105,0.11718 6.78959,0.0667 9.92,0.0667 h 12.159999 c 1.465606,0 3.792178,0.25776 5.10124,-0.10173 2.298477,-0.6312 1.29876,-5.75095 1.29876,-7.89827 0,-1.19203 0,-2.00022 0,-3.2 0,-3.13175 -0.0042,-6.25424 -0.04444,-9.28 -0.01389,-1.0432 0.06269,-1.79088 0.0395,-2.88 -0.02286,-1.07387 -0.211622,-1.7878 -0.286416,-2.88 -0.357872,-5.22579 -0.02864,-11.33188 -0.02864,-16.64 v -62.07981 c 0,-4.31173 -0.175303,-8.829307 0.0126,-13.120001 0.04631,-1.057373 0.282216,-1.880332 0.282216,-2.88 0,-0.925176 0.198379,-4.392383 -0.574072,-5.246914 C 90.586057,81.791549 85.0426,82.710719 83.200002,82.710719 H 63.679997 c -2.54958,0 -6.158496,-0.620928 -8.592592,0.101728 -1.730337,0.513721 -1.007407,3.68667 -1.007407,5.338272 v 17.920001 c 0,1.71046 0,3.77128 0,5.44 0,0.90738 0,1.61566 0,2.56 0,1.7201 0.0198,3.59428 -0.0035,5.44 -0.05619,4.45882 -0.339073,8.71819 -0.316299,13.44 0.0091,1.88744 0.310927,3.02005 0.319511,4.8 0.03965,8.22161 2.45e-4,16.75418 2.45e-4,24.96 0,4.32901 0,9.16445 0,13.44001 0,2.07062 -0.75481,4.82156 0.193086,6.99259 0.876562,2.00765 4.831327,1.00741 6.846913,1.00741 h 16.32 c 1.907973,0 4.988574,0.25552 6.713827,-0.0731 1.914063,-0.36457 1.606055,-1.98403 1.606172,-3.76691 v -10.24 -45.44001 -12.16 c 0,-1.62629 0.50794,-3.80477 -1.298759,-4.1126 -1.55334,-0.26465 -2.361856,-0.0474 -3.821241,-0.0474 -0.946274,0 -1.552387,0 -2.559999,0 -1.945523,0 -3.360606,0 -5.44,0 -1.630752,0 -2.671382,0 -4.48,0 -1.632187,0 -5.613296,-0.9016 -7.166914,0.32889 -0.656884,0.52026 -0.506997,1.38299 -0.512842,2.23111 -0.01434,2.08101 0.0023,4.97384 -2.44e-4,7.04 -0.0029,2.3895 0.08541,4.39667 -0.01259,6.72 -0.308545,7.31486 -0.307408,14.80013 -0.307408,22.4 v 8 c 4.3e-4,0.95373 -0.253701,2.50168 0.741729,3.0484 1.158388,0.6362 3.096611,0.29922 4.378271,0.39655 2.860576,0.21722 6.329575,0.0751 9.28,0.0751 1.623667,0 3.542973,0.56975 4.471108,-0.77877 0.543271,-0.78934 0.328892,-2.42041 0.328892,-3.38123 v -8.96 -8.32 c -5.9e-5,-0.89696 0.293774,-2.55207 -0.513086,-3.19111 -1.633384,-1.29367 -7.036323,-0.32982 -9.086914,-0.3289 -0.837378,3.8e-4 -2.27478,-0.23983 -2.871108,0.51309 -0.82292,1.03902 -0.328892,3.66958 -0.328892,4.92692 0,0.99888 -0.334634,2.80915 0.328892,3.64691 0.934414,1.17979 5.79787,0.96525 6.017529,-0.7842 0.320229,-2.55043 -2.549263,-1.12611 -3.043208,-2.90987 -0.758872,-2.74051 4.686699,-2.98624 6.103701,-1.86395 1.071465,0.84861 0.998989,8.151 0,8.94221 -0.672403,0.53256 -1.871817,0.32853 -2.686914,0.3289 -2.355034,0.001 -6.735796,0.8513 -8.858271,-0.19309 -1.303907,-0.6416 -0.741729,-3.73193 -0.741729,-4.92691 v -15.04 c 0,-1.33702 -0.658091,-4.84381 1.007407,-5.33827 3.809053,-1.13087 9.412017,-0.10173 13.392593,-0.10173 1.31163,0 3.691035,-0.42727 4.471113,0.74173 1.446611,2.16786 0.210107,6.5852 0.15456,8.85827 -0.156025,6.38467 -0.145674,13.80622 -0.145674,20.48 v 15.36 c 0,1.51209 0.521621,4.26809 -0.741728,5.11112 -1.160591,0.77445 -3.493032,0.32889 -5.018271,0.32889 h -13.76 c -1.420683,0 -4.604467,0.49706 -5.431108,-0.74173 -0.728403,-1.09158 -0.328892,-3.05013 -0.328892,-4.37828 v -11.2 -30.4 c 0,-4.30876 0,-9.54967 0,-13.44 0,-3.95686 0,-8.56001 0,-12.16 0,-1.033497 -0.514174,-3.028926 0.741729,-3.646915 1.406855,-0.692265 4.67082,-0.193086 6.298271,-0.193086 5.438603,0 11.010029,0 16.319999,0 2.3821,0 5.454424,-0.544951 7.632598,0.101729 1.41,0.418613 1.007402,2.773311 1.007402,4.058272 v 12.16 c 0,8.13596 0,16.53011 0,24.64 0,2.64453 0,4.85917 0,7.68 0,7.02324 0,13.54584 0,20.16 0,3.13766 0,6.58987 0,9.60001 0,4.85768 0,9.83113 0,14.72 0,1.53811 0.83208,7.0325 -0.741728,7.80691 -2.125928,1.04609 -6.499522,0.19005 -8.858272,0.19309 -1.476118,0.002 -2.485468,0.1804 -3.839999,0.22691 -1.515274,0.052 -3.272066,-0.18725 -4.8,-0.22223 -3.584238,-0.082 -7.284922,-0.005 -10.88,-0.005 -1.766738,0 -7.79915,0.94137 -8.951108,-0.51309 -0.935322,-1.18094 -0.328891,-4.44272 -0.328891,-5.88691 v -16.32 c 0,-17.27307 0,-34.56926 0,-51.84001 0,-1.15605 0,-2.13668 0,-3.2 0,-1.01642 0,-1.78059 0,-2.88 0,-1.81132 0,-3.57379 0,-5.44 0,-4.03056 0,-7.98295 0,-11.84 0,-5.942032 0,-12.261837 0,-18.240001 0,-2.380332 -1.42e-4,-4.49832 0,-6.72 5.8e-5,-0.954317 -0.352031,-2.788711 0.741728,-3.326914 1.342495,-0.660596 3.86062,-0.193086 5.338271,-0.193086 h 13.12 c 15.819862,0 30.914214,0 46.719994,0 4.98556,0 9.80297,-0.10045 14.72,-0.164932 1.34733,-0.01767 4.27298,-0.512022 5.11112,0.643203 0.70843,0.976465 0.32888,3.134795 0.32888,4.321729 v 11.2 43.840001 50.56001 11.84 c 0,1.3615 0.39374,3.39341 -0.74172,4.15111 -1.48077,0.98811 -5.59598,0.32889 -7.57828,0.32889 H 107.52 c -1.94931,0 -6.73676,0.87707 -8.126918,-0.51309 -1.026924,-1.02692 -0.513086,-4.40313 -0.513086,-5.88691 0,-2.57252 -0.04058,-4.03459 -0.265674,-6.4 -0.225547,-2.37004 -0.05433,-5.25636 -0.05433,-7.68 v -58.55969 -16.32 c 0,-1.30605 -0.616807,-4.856221 0.513086,-5.751114 0.933092,-0.739023 3.192912,-0.328887 4.286922,-0.328887 1.06088,0 1.85008,0 2.88,0 2.06716,0 4.60169,0 6.72,0 h 12.79999 c 1.50816,0 3.57518,-0.618125 4.47112,0.513086 0.56326,0.711172 0.32888,2.383418 0.32888,3.326915 v 9.6 38.08 17.92 c 0,1.46534 0.50563,5.16524 -0.51308,6.16248 -1.21646,1.19081 -3.46563,0.55753 -5.24692,0.55753 H 110.72 c -1.81798,0 -4.3819,0.74568 -5.43112,-0.77877 -0.95151,-1.38248 -0.13195,-3.6024 -0.0375,-4.98124 0.13584,-1.98362 0.0318,-4.32849 0.0286,-6.4 -0.003,-2.12083 -0.26359,-3.82681 -0.31532,-6.08 -0.0568,-2.47644 0.28748,-3.84431 0.31408,-6.08 0.0632,-5.31567 0.001,-11.26543 0.001,-16.64 0,-2.8316 -0.005,-4.45744 0,-7.04 0.002,-0.74186 -0.18158,-2.00094 0.51308,-2.55111 1.4098,-1.11658 5.73733,-0.32889 7.48692,-0.32889 h 7.99999 c 0.81104,3.6e-4 2.31121,-0.26344 2.84248,0.51309 0.88983,1.30062 0.16511,4.43397 0.0662,5.88691 -0.27639,4.05864 -0.0287,8.68727 -0.0287,12.8 0,1.44447 0.4275,4.52477 -0.32888,5.65827 -1.0378,1.55524 -4.22138,0.74173 -6.07112,0.74173 -1.9064,0 -4.58342,0.71848 -5.88691,-0.55753 -0.96133,-0.94106 -0.82488,-6.6422 -0.41136,-8.03506 0.41116,-1.38488 2.20612,-1.00788 3.41827,-1.00741 0.93511,3.6e-4 2.57508,-0.31549 2.95236,0.74173 0.99539,2.78934 -3.05649,1.8144 -2.88618,4.05482 0.12325,1.62138 1.85336,1.60741 3.13382,1.60123 1.05146,-0.005 1.98775,0.042 2.55112,-0.77654 0.72378,-1.0516 0.8686,-7.21145 0,-8.30815 -0.59801,-0.75505 -2.0331,-0.51271 -2.87112,-0.51309 -1.91776,-8.6e-4 -7.61769,-0.9589 -9.00542,0.51309 -1.27076,1.34791 -0.47494,4.26375 -0.39457,5.88691 0.19379,3.91427 -0.2,9.02244 -0.2,13.12 0,1.26866 -0.34271,3.69184 0.32888,4.69827 0.83936,1.25785 2.6378,0.74173 4.15112,0.74173 h 10.23999 c 1.3379,0 2.99005,0.44481 3.96692,-0.32888 0.72353,-0.57307 0.51268,-1.98284 0.51308,-2.87112 v -8 -29.44 c 0,-1.80415 0.98067,-8.45752 -0.51308,-9.58643 -1.27694,-0.96505 -5.18719,-0.34122 -6.84692,-0.33333 -1.93042,0.009 -3.52896,0.24734 -5.44,0.3084 -2.65425,0.0848 -5.14142,-0.163 -7.67999,-0.2079 -1.99809,-0.0353 -3.5189,-0.003 -5.12,0.53926 1.04474,3.53451 0.26773,11.66413 0.27431,16.32 0.003,2.42789 -0.27431,5.05347 -0.27431,7.68 v 35.84001 11.2 c 0,1.05937 -0.37577,3.11081 0.32888,3.95555 0.57936,0.69454 1.81468,0.44335 2.55112,0.48272 1.5618,0.0835 3.43316,0.0417 5.12,0.0417 4.92833,0 12.9361,0 17.91999,0 1.47018,0 4.83501,0.64359 5.75112,-0.51309 0.83511,-1.05441 0.32888,-4.48031 0.32888,-5.88691 v -16.95998 -57.28 c 0,-4.969922 0.10782,-10.09377 0.1358,-15.040001 0.01,-1.738867 0.8608,-3.250879 -0.009,-5.018272 -0.62317,-1.266416 -6.10726,-0.741728 -7.80692,-0.741728 -2.47236,0 -4.48349,0 -7.04,0 -5.24951,0 -10.00017,0 -15.35999,0 -1.58373,0 -6.620375,-0.813574 -7.671118,0.513086 -1.080273,1.363945 -0.328886,4.905264 -0.328886,6.846914 0,3.233096 0.03084,7.122823 -0.0012,10.240001 -0.02011,1.95427 -0.09122,3.66272 -0.170381,5.76 -0.04909,1.3007 0.164961,2.19238 0.171368,3.52 0.03268,6.77682 0.01105,15.03135 2.44e-4,21.76 -0.0017,1.03191 -0.09368,1.87826 -0.129883,2.88 -0.03307,0.91507 0.104404,1.65186 0.125195,2.56 0.107119,4.67919 0.0047,9.65542 0.0047,14.4 0,7.71946 0,15.65041 0,23.36001 0,2.06562 0,3.51106 0,5.76 v 21.12 c 0,1.7496 -0.787695,6.07711 0.328886,7.48691 0.811768,1.02494 3.628731,0.51309 4.791115,0.51309 h 14.39999 48.32 12.48 c 1.32067,0 3.86348,0.44043 4.98123,-0.32889 1.60582,-1.10524 0.77877,-5.54365 0.77877,-7.35111 0,-2.631 -0.20328,-4.34199 -0.3074,-6.72 -0.2016,-4.60419 -0.0126,-9.45317 -0.0126,-14.08 V 108.63072 90.070719 c 0,-1.628027 0.7158,-5.527901 -0.32888,-6.846914 -1.17561,-1.484317 -7.44549,-0.513086 -9.27112,-0.513086 -2.72336,0 -5.11732,0 -8,0 -1.28957,0 -2.27074,0 -3.52,0 -2.13421,0 -5.18925,0 -7.36,0 -2.54346,0 -6.07134,-0.646807 -8.59259,0.101728 -1.61285,0.478828 -1.00741,3.953633 -1.00741,5.338272 v 16.640001 59.84 14.40001 c 0,1.36084 -0.41191,3.97289 0.74173,4.74271 1.52539,1.01789 4.60715,0.37729 6.61827,0.37729 h 17.28 c 1.61092,0 5.67815,0.79113 6.71112,-0.51309 0.71697,-0.90526 0.32888,-3.17749 0.32888,-4.28691 v -10.88 -43.20001 c 0,-4.06211 0.0482,-8.17387 0.20123,-12.16 0.0384,-0.9994 0.25369,-3.79473 -0.48049,-4.60691 -0.95003,-1.05101 -3.87181,-0.51309 -5.16074,-0.51309 h -14.08 c -1.26001,0 -4.56116,-0.58531 -5.43111,0.51309 -1.23858,1.56383 -0.32889,6.8335 -0.32889,8.76691 0,1.1922 0,1.99758 0,3.2 0,1.90686 0,3.2153 0,5.12 0,7.56929 0,15.1497 0,22.72 0,2.16753 -1.02883,8.01266 0.32889,9.72692 1.08799,1.37369 6.63842,0.51308 8.31111,0.51308 1.90112,0 8.68699,1.0325 9.91112,-0.51308 0.82291,-1.03901 0.32888,-3.66959 0.32888,-4.92692 v -13.76 c 0,-1.25055 0.4527,-4.66619 -0.51308,-5.43111 -1.69805,-1.34486 -6.66561,-0.33387 -9.08692,-0.32889 -1.0732,0.002 -2.16397,-0.19074 -2.74123,0.74173 -1.39742,2.25731 0.061,6.1609 -0.45877,8.21827 1.56671,0.46413 7.83215,0.96036 6.52543,-1.81851 -0.81045,-1.72352 -2.40221,0.0213 -2.89753,-2.05482 -0.39223,-1.6441 0.92713,-1.85875 2.13235,-1.88543 1.18156,-0.0262 2.44065,-0.34957 3.41803,0.16617 1.38996,0.73345 0.8444,6.17173 0.72295,7.50642 -0.0968,1.064 -0.44457,1.47836 -1.5874,1.58766 -2.22717,0.213 -3.99472,0.31335 -6.07383,0.33728 -1.70803,0.0197 -3.81517,0.56267 -4.79111,-0.80321 -0.74199,-1.03847 -0.32889,-3.6912 -0.32889,-4.95556 v -13.76 c 0,-1.31526 -0.48982,-4.5332 0.32889,-5.56691 0.80724,-1.01922 2.48656,-0.51309 3.83111,-0.51309 3.41322,0 6.82676,0 10.24,0 1.41346,0 2.9403,-0.44124 3.97949,0.32889 0.90758,0.67259 0.53374,3.30296 0.5052,4.47111 -0.10383,4.24956 -0.005,8.54612 -0.005,12.8 0,7.03562 -0.44558,15.15535 0.0286,22.08 0.0656,0.95747 0.25187,1.62907 0.27433,2.56 0.0201,0.8318 -0.0868,1.41147 -0.0758,2.24 0.025,1.87399 0.94375,3.90709 -0.23603,5.62124 -0.78586,1.14181 -4.28147,0.77877 -5.75112,0.77877 h -14.08 c -1.78105,0 -3.65552,0.52462 -4.92691,-0.62025 -1.20425,-1.08441 -0.51309,-5.79357 -0.51309,-7.37976 v -21.44 -33.92 -8.64 c 0,-1.094395 -0.30938,-2.795723 0.32889,-3.737042 0.71026,-1.04748 1.95488,-0.51247 2.87111,-0.451601 1.22219,0.08119 2.87659,0.02864 4.16,0.02864 2.28088,0 4.78261,0.05048 7.04,-0.0047 1.96821,-0.04811 3.29578,-0.245322 5.44,-0.170869 3.30494,0.114756 8.40381,-1.114668 11.41828,0.368642 1.04686,0.515127 0.74479,2.616182 0.74147,3.646915 -0.007,2.209195 -0.3159,4.329055 -0.31975,6.720005 -0.0178,11.09324 0,22.18673 0,33.28 0,14.18656 -0.0228,28.37347 0,42.56 0.003,1.89253 0.2734,2.7691 0.31531,4.48 0.0385,1.57222 0.005,3.50857 0.005,5.12 0,1.68809 0.5959,3.74862 -0.55754,4.92691 -0.92222,0.94209 -2.54722,0.51309 -3.60246,0.51309 -1.84025,0 -3.84765,0 -5.76,0 -2.6524,0 -4.61601,0 -7.04,0 -3.03758,0 -6.70655,0 -9.6,0 -1.31041,0 -2.15795,0 -3.52,0 -2.36352,0 -4.74255,0.34083 -7.02124,-0.0474 -2.15629,-0.36738 -1.29876,-5.03788 -1.29876,-6.67259 0,-6.94917 0,-13.93959 0,-20.8 0,-8.68164 0,-17.57782 0,-26.24 0,-1.86575 0,-3.5219 0,-5.44 0,-2.19939 0,-4.20032 0,-6.4 0,-3.19625 0,-5.86479 0,-8.96 0,-1.62952 0,-3.31305 0,-5.12 0,-7.7463 0,-15.6033 0,-23.360006 V 75.670719 c 0,-1.372237 -0.69282,-5.153496 1.00741,-5.658272 1.853,-0.550137 4.42577,-0.101728 6.35259,-0.101728 h 13.76 44.8 c 5.04371,0 10.51066,-0.17709 15.36,0.06271 1.29217,0.0639 3.6326,-0.577579 4.47111,0.679013 0.98116,1.470323 0.32889,4.907432 0.32889,6.618272 0,2.450352 0,4.339854 0,7.040001 0,3.471797 0,6.227002 0,9.6 0,8.663535 0,17.298845 0,25.920005 v 58.88001 c 0,2.15757 -0.11705,4.59271 0.0286,6.72 0.16795,2.4524 0.29137,4.01374 0.29137,6.72 0,1.40015 0.63176,4.21163 -1.0074,4.69827 -2.53453,0.75246 -6.26002,0.10173 -8.9126,0.10173 h -19.2 c -1.76674,0 -7.79916,0.94137 -8.95111,-0.51309 -1.02922,-1.2995 -0.32889,-5.26353 -0.32889,-6.84691 0,-1.19103 0,-1.99347 0,-3.2 0,-1.47207 0,-2.98901 0,-4.48 0,-3.5066 0,-6.99555 0,-10.56 0,-2.49004 0.0545,-5.57633 -0.005,-8.00001 -0.0226,-0.9245 -0.20666,-1.60697 -0.20666,-2.56 0,-1.26652 0.21086,-2.55351 0.21135,-3.84 0.001,-3.40258 0.0163,-7.45802 -2.5e-4,-10.88 -0.007,-1.37032 -0.20127,-2.20794 -0.29112,-3.52 -0.36093,-5.27059 0.008,-11.41601 0.20963,-16.64 0.0654,-1.69562 -0.19769,-3.55299 -0.15529,-5.12 0.0432,-1.59644 0.27336,-2.68807 0.23234,-4.48 -0.0413,-1.80338 -0.16961,-3.49349 -0.1442,-5.44 0.012,-0.91796 0.11629,-1.68643 0.0963,-2.56 -0.0251,-1.09634 -0.2747,-2.00545 -0.26148,-3.2 0.043,-3.88402 0.88766,-5.526665 -0.006,-9.280005 2.42199,-0.715908 5.04664,-0.32 8,-0.32 h 16 c 2.01451,0 6.41131,-0.882509 7.80691,0.513086 0.67895,0.678936 0.52844,1.74961 0.48914,2.686915 -0.14451,3.446434 0.11475,7.942024 0.0193,11.840004 -0.31437,12.83438 -0.47052,26.84334 -0.31408,40 0.0193,1.62273 0.34193,2.92399 0.31383,4.48 -0.0171,0.94605 -0.13035,1.62494 -0.13752,2.56 -0.0234,3.05735 -0.17754,6.18805 -0.17754,9.28 0,1.5874 0.53869,3.93188 -1.0074,4.60692 -1.28141,0.55947 -3.85278,0.19309 -5.3926,0.19309 -4.58535,0 -9.1751,0.007 -13.76,0 -1.27451,-0.002 -4.31824,0.33224 -5.11111,-0.78346 -1.30055,-1.83005 -0.32889,-7.80219 -0.32889,-10.09655 v -28.48 -8.32 c 3.7e-4,-0.81813 -0.19381,-2.31125 0.51309,-2.87111 0.79146,-0.62686 1.94646,-0.32882 3.00691,-0.32889 3.37947,-2.1e-4 6.8966,0 10.24,0 1.27217,0 3.77486,-0.58356 4.92691,0.32889 1.0984,0.86994 0.51309,4.17112 0.51309,5.43111 v 13.76 c 0,1.32007 0.53195,4.16002 -0.32889,5.24692 -0.89775,1.13349 -4.44332,0.51308 -5.75111,0.51308 -1.50574,0 -4.97961,0.64315 -6.20691,-0.32889 -1.11512,-0.88319 -0.88067,-6.99692 -0.32,-8.23802 0.64658,-1.43131 2.77804,-0.82839 3.96666,-0.76074 0.91832,0.0523 1.66861,0.007 2.04691,0.78938 0.27121,0.56102 0.22957,1.48069 -0.13555,1.94519 -0.68918,0.87678 -2.94134,0.40444 -2.44322,2.38714 0.36867,1.46744 5.18123,1.62745 5.90891,0.49286 0.65599,-1.02283 0.37265,-5.03078 0.30469,-6.20692 -0.0385,-0.66665 -0.0745,-1.48577 -0.55778,-2.04691 -0.62984,-0.7313 -1.55459,-0.51101 -2.56371,-0.51309 -2.44621,-0.005 -7.70805,-1.01664 -9.40691,0.32889 -0.77692,0.61534 -0.51309,2.53586 -0.51309,3.51111 v 9.6 8 c 6e-5,0.86188 -0.24697,2.27985 0.32889,3.00692 0.74873,0.94535 3.09013,0.51308 4.15111,0.51308 h 9.92 c 1.16857,0 2.98426,0.3354 4.05828,-0.19308 0.94076,-0.46292 0.73994,-1.82172 0.74172,-2.68692 v -8.32 -27.84 c 0,-2.41413 0.78482,-8.47005 -0.19309,-10.45827 -0.85058,-1.72934 -4.09796,-0.98156 -5.88691,-1.0247 -4.24127,-0.10227 -8.88148,-0.1362 -13.12,-0.0323 -1.12687,0.0276 -1.82478,0.24164 -2.88,0.26247 -0.93,0.0184 -1.99453,-0.31491 -2.77828,-0.007 -1.16662,0.45882 -0.74172,3.16224 -0.74172,4.21951 v 12.48 c 0,6.72776 -0.28053,13.78571 0.0126,20.48001 0.0935,2.13505 0.25117,3.8882 0.2926,6.08 0.0223,1.17896 -0.13742,2.28266 -0.17211,3.52 -0.0822,2.93164 -0.24901,6.02496 -0.12049,8.96 0.0398,0.90834 0.25012,1.68554 0.25012,2.56 0,0.9713 -0.23256,1.84046 -0.25803,2.88 -0.0802,3.27533 0.31531,5.61197 0.31531,8.96 0,1.42433 -0.70068,5.15117 1.0074,5.65827 2.55002,0.75706 6.12602,0.10173 8.5926,0.10173 0.87137,0 1.65406,0 2.56,0 3.88863,0 7.93662,0 11.84,0 1.54029,0 6.32252,0.78562 7.35111,-0.51309 0.78438,-0.99036 0.32889,-3.41291 0.32889,-4.60691 v -12.79998 -49.6 -25.920006 c 0,-1.757314 0.96281,-7.567276 -1.29877,-7.952598 -2.92324,-0.498047 -6.29514,-0.0474 -9.26123,-0.0474 h -18.56 c -1.76672,0 -7.79916,-0.941377 -8.95111,0.513086 -0.89828,1.13416 -0.32889,4.1846 -0.32889,5.566914 v 14.720004 57.60001 c 0,6.304 0.13057,12.96587 0.141,19.2 0.002,1.40788 0.17842,2.30286 0.179,3.84 0.002,4.49757 0,8.52326 0,13.12 v 8.96 c 4.1e-4,0.92041 -0.26926,2.50945 0.74172,3.00691 1.35873,0.66858 3.84924,0.19309 5.33828,0.19309 h 13.12 47.04 14.72 c 1.16941,0 4.04959,0.56942 4.7958,-0.43432 0.5332,-0.71724 0.56236,-1.89979 0.58863,-2.76568 0.14225,-4.68785 -0.26443,-9.58888 -0.26443,-14.4 0,-8.11737 0,-16.55493 0,-24.64 0,-1.44301 0,-2.38382 0,-3.84 0,-4.58107 0,-8.62049 0,-13.44001 0,-1.69156 0,-3.06348 0,-4.80001 0,-1.53391 0,-2.41095 0,-3.84 0,-3.23187 0,-6.96687 0,-10.24 0,-1.91996 0,-3.53108 0,-5.44 0,-5.74821 0,-12.14168 0,-18.24 0,-1.02769 0,-1.91422 0,-2.87999 0,-1.89696 0,-4.01592 0,-6.080003 0,-4.013702 0,-7.48044 0,-11.200001 0,-1.095234 0.34724,-3.360195 -0.74172,-3.995557 -1.67078,-0.974834 -5.53207,-0.529765 -7.57828,-0.479756 -0.90842,0.0222 -1.68787,0.20667 -2.56,0.20667 -0.87219,0 -1.65154,-0.184472 -2.56,-0.20667 -5.24672,-0.128222 -10.73137,-0.0047 -16,-0.0047 -1.72174,0 -7.50346,-0.910694 -8.63111,0.513086 -0.89828,1.13416 -0.32889,4.1846 -0.32889,5.566914 v 14.719997 57.92 c 0,4.8003 -0.29504,10.31355 0.0286,15.04001 0.0664,0.96976 0.23764,1.62049 0.27877,2.56 0.0692,1.58098 -0.64435,3.86441 0.52569,4.79111 1.27406,1.00907 5.83072,0.32889 7.48691,0.32889 h 16.64 c 1.53224,0 4.94871,0.63397 6.2116,-0.32889 0.85537,-0.65217 0.77717,-1.99807 0.8158,-2.87111 0.0681,-1.53817 -0.17156,-3.87445 -0.27877,-5.44 -0.18818,-2.74793 -0.0286,-5.85697 -0.0286,-8.64 v -40.63999 -13.12 c 0,-1.07904 0.37041,-3.77138 -0.51309,-4.47111 -1.24519,-0.98622 -3.18978,-0.32355 -4.92691,-0.32913 -4.66301,-0.015 -9.37457,2.4e-4 -14.08,2.4e-4 -1.71207,0 -4.77994,-0.8576 -5.56691,0.74173 -0.97463,1.9807 -0.19309,8.04977 -0.19309,10.45827 v 27.83999 8.32 c 3.7e-4,0.83737 -0.23984,2.27479 0.51309,2.87112 1.45492,1.1523 5.99673,0.32888 7.80691,0.32888 2.32627,0 8.55002,1.11012 10.36691,-0.32888 1.21282,-0.96057 0.51309,-5.04836 0.51309,-6.39112 0,-2.49899 0,-4.01788 0,-6.4 0,-2.29713 0,-4.5186 0,-6.72 0,-1.23787 0.53922,-3.83084 -0.32889,-4.92691 -0.4559,-0.57561 -1.2091,-0.49833 -1.91137,-0.51161 -0.90429,-0.0171 -1.59517,-0.001 -2.55974,-0.001 -1.77703,0 -6.08807,-0.77901 -7.48691,0.32889 -1.07563,0.85191 -0.84278,7.0785 -0.32,8.23803 0.57447,1.2742 1.97285,1.0399 3.32691,1.03284 1.37486,-0.007 2.69547,-0.0211 2.81383,-1.59976 0.14572,-1.94371 -4.18856,-1.48075 -2.94049,-4.05827 0.47605,-0.98313 1.73066,-0.73982 2.68666,-0.74172 1.32553,-0.003 2.76344,-0.40339 3.32691,0.74172 0.75854,1.54154 0.71125,7.99911 -0.81431,8.66519 -1.43323,0.62577 -4.6184,0.19309 -6.3526,0.19309 -1.70926,0 -3.74916,0.5954 -4.92691,-0.55754 -0.93309,-0.9134 -0.5584,-4.51978 -0.50049,-5.84247 0.0463,-1.05735 0.2822,-1.88034 0.2822,-2.88 0,-0.90547 -0.20371,-1.64787 -0.26617,-2.56 -0.17308,-2.52742 -0.0286,-5.43564 -0.0286,-7.99999 0,-1.32007 -0.53195,-4.16002 0.32889,-5.24691 0.67826,-0.85637 2.55738,-0.51309 3.51111,-0.51309 3.31908,0 7.38303,0 10.56,0 1.18723,0 3.26892,-0.47737 4.28691,0.32889 0.78295,0.6201 0.51303,2.22338 0.51309,3.19111 6e-5,1.03102 0,1.60662 0,2.56 0,0.86108 0,1.46013 0,2.23999 0,1.09164 0,2.65477 0,3.84001 0,1.78317 0,4.32943 0,6.08 0,1.05403 0,1.77376 0,2.88 0,1.86526 0,4.57506 0,6.4 0,1.17593 0,1.9329 0,3.2 0,2.15545 0,3.21258 0,5.12 0,1.28681 0,2.78241 0,4.16 0,2.25067 1.08947,8.5761 -0.32889,10.36691 -0.90316,1.14034 -3.70357,0.5131 -5.11111,0.5131 -2.76113,0 -5.17801,0 -8,0 -1.25881,0 -2.02516,0 -3.2,0 -1.90375,0 -6.81732,0.55757 -8.21828,-0.37729 -1.43822,-0.95971 -0.74172,-6.16759 -0.74172,-7.94272 v -24.96 -31.36 -8.000005 c 6e-5,-0.847891 -0.22738,-2.304571 0.32889,-3.006915 0.55468,-0.700351 1.7141,-0.511367 2.55111,-0.513086 1.60889,-0.0033 3.09121,0 4.8,0 3.24029,0 6.70101,0 9.92,0 1.17039,0 2.00221,0 3.2,0 1.19777,0 2.02963,0 3.2,0 1.94207,0 4.78295,-0.459287 6.6726,0.101729 1.92459,0.571387 0.94921,6.281657 1.02,7.898277 0.0591,1.35031 0.29048,2.20118 0.30617,3.52 0.0487,4.09312 0.001,8.66235 0.001,12.8 0,1.94259 0.0477,4.54685 -0.0113,6.4 -0.11568,3.62817 -0.0446,6.94822 -0.0459,10.56 -3.7e-4,0.98336 -0.25164,1.82436 -0.25334,2.88 -0.0131,8.14126 -0.10613,16.40061 -0.008,24.64 0.0342,2.8735 0.31877,5.58182 0.31877,8.64001 0,1.52167 0,2.66873 0,4.16 0,3.83835 0,7.98025 0,11.84 0,1.96332 0.68156,5.48077 -0.19309,7.25827 -0.79914,1.62407 -6.83646,0.74173 -8.44691,0.74173 h -20.48 c -2.19674,0 -6.23633,0.78215 -8.21828,-0.1931 -1.57994,-0.77743 -0.74111,-5.57784 -0.74172,-7.16691 -6.1e-4,-1.58827 -0.18701,-2.63622 -0.29137,-4.16 -0.37209,-5.4335 -0.0286,-11.46998 -0.0286,-16.96 v -71.680006 -18.88 c 0,-1.823213 -0.72998,-5.682764 0.32889,-7.221231 0.74127,-1.077021 2.70591,-0.815371 3.83111,-0.766172 2.65141,0.115938 4.44123,0.307403 7.36,0.307403 4.22738,0 8.58586,0.04891 12.8,-0.0012 1.05707,-0.01258 1.89148,-0.210127 2.88,-0.210127 0.89377,0 1.64615,0.184336 2.56,0.206669 2.57226,0.06286 5.72752,0.0047 8.32,0.0047 2.24947,0 3.93387,0 6.4,0"
       id="path1" />
  </g>
</svg>
