<?xml version="1.0" encoding="UTF-8" standalone="no"?>
<!-- Created with Inkscape (http://www.inkscape.org/) -->

<svg
   version="1.1"
   id="svg1"
   width="296.71997"
   height="109.46476"
   viewBox="0 0 296.71997 109.46476"
   xml:space="preserve"
   xmlns="http://www.w3.org/2000/svg"
   xmlns:svg="http://www.w3.org/2000/svg"><defs
     id="defs1" /><g
     id="g1"
     transform="translate(-44.466604,-168.76794)"><path
       style="fill:none;stroke:#4b4030"
       d="m 44.466604,188.41528 c 1.684372,0 8.276643,0.93115 9.086666,-0.74173 1.146004,-2.36676 -1.459379,-1.96214 -2.493579,-2.78716 -0.960169,-0.76595 -0.457086,-2.16171 0.49432,-2.44962 1.207964,-0.36556 2.006607,-0.27036 3.152593,-0.35112 1.472159,-0.10374 6.294851,0.79757 5.652098,-1.97308 -0.528137,-2.2766 -6.10353,-1.22465 -7.890617,-1.30346 -1.346038,-0.0593 -2.443235,-0.97528 -1.728148,-2.4521 0.52023,-1.0744 2.360716,-0.74167 3.326667,-0.74173 h 9.6 c 1.334484,-9e-5 3.938056,0.21947 3.412099,-1.87408 -0.313967,-1.24974 -1.666142,-1.00364 -2.772099,-1.00592 -3.084964,-0.006 -6.515022,0 -9.6,0 -1.39721,0 -4.12247,0.60536 -4.12247,-1.6 0,-2.42446 4.117831,-1.6 5.72247,-1.6 h 8 6.079999 c 1.904913,0 4.496336,-0.77508 5.886915,0.32889 0.615459,0.4886 0.574184,1.74582 0,2.25951 -1.833582,1.64041 -4.08743,-0.73208 -5.558025,1.12469 -0.827408,1.04468 0.399912,4.25443 -0.841975,5.23802 -1.416582,1.12196 -4.375589,-0.65096 -5.558025,0.84198 -1.125838,1.42148 0.468056,3.95235 -0.657779,5.37382 -1.182443,1.49295 -4.141432,-0.27999 -5.558023,0.84198 -1.492946,1.18243 0.279984,4.14144 -0.841977,5.55802 -1.282196,1.6189 -4.654577,-0.38045 -6.198023,0.84198 -1.054818,0.83543 -1.006837,7.71936 -0.184198,8.75802 0.71464,0.90231 2.822866,0.51309 3.831111,0.51309 h 9.6 c 1.29248,-0.003 2.842468,0.10869 2.842468,-1.6 0,-2.75941 -8.501007,-1.59584 -10.522468,-1.6 -1.500649,-0.003 -3.355071,-0.10449 -2.77679,-2.19284 0.394342,-1.42409 2.61455,-1.00716 3.73679,-1.00716 h 11.519999 c 1.171116,0 3.992005,0.5276 4.3721,-1.00716 0.475942,-1.92176 -1.379441,-2.18302 -2.7721,-2.1926 -2.004301,-0.0138 -10.774714,1.2663 -9.816789,-2.19308 0.426736,-1.54109 3.173647,-1.00716 4.37679,-1.00716 h 11.199999 c 1.080538,-7e-5 3.038172,0.36016 3.41679,-1.00716 0.571099,-2.06242 -1.293059,-2.18978 -2.77679,-2.19284 -2.7106,-0.006 -5.705336,0.3559 -8.313828,0.11852 -1.187944,-0.10811 -1.839272,-1.09804 -1.502961,-2.31136 0.411069,-1.48304 3.192219,-0.99779 4.376789,-1.00617 3.623653,-0.0256 7.255584,-9.9e-4 10.88,-9.9e-4 1.014073,0 3.099634,0.38801 3.646665,-0.74173 0.931993,-1.92476 -0.926167,-2.44809 -2.366665,-2.45803 -2.031084,-0.014 -11.097705,1.2771 -10.136789,-2.19308 0.574626,-2.07517 5.205996,-0.78909 6.616789,-0.72025 2.76441,0.13492 5.533789,-0.28691 8.32,-0.28691 1.003243,0 3.122906,0.3903 3.830865,-0.51309 2.136035,-2.72568 -3.66732,-2.36691 -4.470865,-2.36691 -1.746596,0 -3.735083,0.0825 -5.759506,-0.006 -1.316287,-0.0576 -2.888245,-1.27811 -1.655308,-2.68074 0.901177,-1.02522 3.125352,-0.51309 4.214814,-0.51309 h 3.2 c 1.467422,0 7.041255,-0.81429 7.806914,0.74173 0.635186,1.29086 0.788436,7.77656 -0.495556,8.34519 -1.475679,0.6535 -3.889873,-0.5143 -5.198272,0.52197 -1.492949,1.18244 0.279986,4.14143 -0.841977,5.55803 -0.967324,1.22134 -4.605064,0.39974 -6.071109,0.83308 0.423023,1.77681 1.285538,5.0255 -0.687407,5.88692 -1.343423,0.58655 -4.739204,-0.65096 -5.519507,0.93481 -0.698935,1.42042 0.648672,4.25633 -0.706171,5.32938 -1.416585,1.12196 -4.375591,-0.65097 -5.558025,0.84198 -1.121953,1.41658 0.650971,4.37558 -0.841975,5.55802 -1.210374,0.95863 -4.293443,-0.1979 -5.373829,0.65778 -1.55892,1.23469 0.355608,3.72595 -0.841975,5.23802 -0.952295,1.20237 -4.67218,-0.32486 -5.742221,1.02618 -1.143108,1.44329 0.441277,3.94004 -0.657779,5.43654 -0.857437,1.16751 -5.121587,0.0988 -6.198023,0.84543 -1.025813,0.71153 -1.035837,8.05565 0,8.87605 0.783624,0.62064 2.395597,0.32889 3.326913,0.32889 h 8.64 c 0.998623,0 2.809499,0.33474 3.646914,-0.32889 0.759394,-0.6018 0.65019,-2.24554 -0.228643,-2.67802 -1.428926,-0.70316 -4.089875,-0.19306 -5.658271,-0.19306 -1.701324,0 -3.418868,0.0688 -5.118519,-0.006 -1.405258,-0.062 -2.715482,-1.37029 -1.408394,-2.68071 0.868917,-0.87114 2.833684,-0.51309 3.966913,-0.51309 h 10.559999 c 1.240638,0 4.25743,0.57952 4.69679,-1.00716 0.960918,-3.47019 -8.105708,-2.17909 -10.136789,-2.19308 -1.344725,-0.009 -3.137947,-0.46604 -2.365433,-2.16395 0.624593,-1.3728 2.887659,-0.71581 4.285433,-0.71581 3.871342,0 7.71321,-0.0326 11.519999,-0.001 1.297454,0.0107 2.510994,0.18413 3.005433,-1.00617 0.54642,-1.31545 -0.382561,-2.37455 -1.726914,-2.49383 -2.793741,-0.24789 -5.818763,0.0331 -8.638272,-0.0202 -1.200378,-0.0227 -2.509285,-0.37221 -2.132346,-1.87259 0.396472,-1.57819 2.615701,-1.00597 4.052099,-1.00597 h 11.2 c 1.464122,-9e-5 3.050743,0.41629 3.64543,-1.00716 1.321221,-3.16247 -5.265886,-2.19284 -6.52543,-2.19284 -2.012329,0 -6.718754,0.82201 -5.972099,-2.19284 0.381277,-1.53952 3.200574,-1.00716 4.372099,-1.00716 h 11.2 c 1.080547,-7e-5 3.038164,0.36015 3.416788,-1.00716 0.571103,-2.06242 -1.293057,-2.18978 -2.776788,-2.19284 -1.967929,-0.004 -9.882468,1.13702 -9.882468,-1.6 0,-1.70869 1.549988,-1.59734 2.842468,-1.6 h 9.28 c 0.953721,0 2.832847,-0.34328 3.511109,0.51309 0.855601,1.08028 0.873161,8.26103 -0.412837,8.89382 -1.211358,0.59607 -5.195698,-0.51422 -5.465186,1.2005 -0.332114,2.11321 1.352569,3.36413 -0.65185,4.7437 -1.573506,1.08299 -4.989297,-0.81894 -5.758023,1.62765 -0.398549,1.26845 0.440874,3.87169 -0.696298,4.77235 -1.327217,1.05117 -4.510347,-0.48082 -5.558025,0.84198 -0.89376,1.12846 0.517536,4.48127 -0.841975,5.55802 -1.421475,1.12583 -3.952354,-0.46805 -5.373829,0.65778 -1.492944,1.18243 0.279983,4.14144 -0.841975,5.55802 -1.182441,1.49295 -4.141433,-0.27998 -5.558025,0.84198 -1.491599,1.18137 0.199624,4.15436 -0.841975,5.58321 -1.308259,1.79465 -3.475948,-0.0545 -5.329382,0.70864 -1.652573,0.68043 -0.0894,4.42729 -1.070618,5.66617 -1.161447,1.46645 -4.419098,-0.0567 -5.969382,0.70618 -1.279801,0.62974 -1.327413,8.20778 -0.228641,9.07802 0.727074,0.57585 2.145028,0.32883 3.006913,0.32889 2.576086,1.7e-4 5.456174,0 8,0 1.03874,0 1.844836,0.0511 2.879753,-0.0141 1.025425,-0.0646 2.145432,-0.36751 2.145432,-1.59383 0,-2.24236 -3.696982,-1.5921 -5.025185,-1.5921 -1.790817,0 -4.64663,0.13668 -6.398519,-0.0188 -1.169462,-0.10376 -2.166097,-0.75066 -1.81358,-2.17407 0.368878,-1.48947 2.918253,-1.00716 4.052099,-1.00716 h 6.4 c 1.839289,0 2.764196,1.3e-4 4.799999,0 1.543533,-1e-4 3.943562,0.43515 4.3721,-1.32124 0.489119,-2.00468 -1.541804,-1.87623 -2.7721,-1.87876 -2.213815,-0.005 -5.83374,0.17331 -7.998518,-0.0188 -1.252607,-0.11114 -2.37227,-1.0614 -1.726914,-2.4395 0.533973,-1.14026 2.621641,-0.74173 3.645433,-0.74173 h 10.879999 c 1.103521,0 3.726373,0.4154 4.286668,-0.74173 0.749712,-1.54832 -0.346421,-2.39116 -1.728149,-2.4521 -2.078716,-0.0917 -11.754146,1.33589 -10.775308,-2.19901 0.426738,-1.54101 3.173647,-1.00707 4.376789,-1.00707 h 10.88 c 1.028374,0 3.099649,0.38798 3.646665,-0.74173 0.930191,-1.92104 -0.905014,-2.44795 -2.366665,-2.45803 -1.628471,-0.0112 -3.283571,-2.4e-4 -4.8,-2.4e-4 -1.566626,0 -6.167651,0.80767 -5.336789,-2.19284 0.426738,-1.54109 3.17365,-1.00716 4.376789,-1.00716 h 10.56 c 0.988233,0 3.153711,0.34512 3.831109,-0.51309 1.184565,-1.50074 -0.24228,-2.62119 -1.592588,-2.68074 -2.647158,-0.11675 -5.346392,-7.2e-4 -7.998521,-0.006 -0.984663,-0.002 -2.442431,0.20032 -2.776789,-1.00716 -0.233286,-0.84247 0.006,-1.82444 0.904197,-2.09111 3.098369,-0.91987 7.598369,-0.10173 10.832592,-0.10173 0.998897,0 2.809146,-0.33463 3.646914,0.32889 1.098776,0.87025 1.051156,8.44828 -0.228642,9.07802 -1.420435,0.69895 -4.256314,-0.64868 -5.32938,0.70618 -1.096777,1.38479 0.743203,4.80131 -1.07062,5.69382 -1.275454,0.62761 -4.463565,-0.387 -5.32938,0.70618 -1.440879,1.81925 1.077129,4.03806 -0.841977,5.55802 -1.42136,1.12574 -3.952442,-0.46798 -5.373829,0.65778 -1.365044,1.08113 0.09243,4.43942 -1.026171,5.55802 -1.763374,1.76338 -3.553704,-0.59959 -5.373829,0.84198 -0.858427,0.67989 -0.262866,4.82684 -0.841975,5.55802 -0.532893,0.67284 -1.279785,0.50628 -2.23111,0.51284 -0.988426,0.007 -2.527837,-0.30375 -3.326915,0.32914 -2.09028,1.65553 0.80616,3.71988 -1.026171,5.51358 -1.697337,1.66155 -3.585005,-0.53035 -5.373827,0.88642 -0.985619,0.78062 -0.150103,4.28957 -1.026175,5.32938 -1.458779,1.73143 -3.873042,-0.006 -5.785184,0.93481 -1.400027,0.68891 -1.289469,7.833 -0.228641,8.89383 0.701855,0.70186 1.871651,0.5497 3.006913,0.5005 0.954707,-0.0414 1.616088,-0.21413 2.56,-0.27877 2.312725,-0.15838 5.290817,-0.0124 7.68,-0.0289 0.888339,-0.006 2.042443,0.0289 2.550864,-0.74148 0.879363,-1.33252 0.03672,-2.31995 -1.277036,-2.4395 -3.434978,-0.31259 -7.09836,0.27636 -10.547655,-0.0375 -1.408877,-0.1282 -2.090168,-1.74077 -1.093086,-2.53234 1.060143,-0.84164 3.100118,-0.32889 4.606913,-0.32889 3.325397,0 6.07965,-0.32 9.599999,-0.32 1.370438,0 4.618741,0.59375 5.240743,-1.00716 0.579887,-1.49251 -0.821543,-2.13353 -2.040989,-2.18667 -2.953189,-0.12868 -6.382795,0.4368 -9.260989,-0.0536 -1.146262,-0.19531 -1.682482,-1.21913 -1.105432,-2.41087 0.528652,-1.09179 2.518342,-0.74173 3.646668,-0.74173 h 10.559999 c 1.203145,0 3.950052,0.53392 4.37679,-1.00716 0.95261,-3.44018 -7.517207,-2.18877 -9.49679,-2.19284 -1.300129,-0.003 -3.214516,-0.11305 -2.772099,-1.87407 0.341313,-1.35859 1.815671,-1.00535 3.092099,-1.00593 3.686861,-0.002 7.524603,0.0425 11.2,-10e-4 1.272178,-0.0151 4.275835,0.35499 4.6921,-1.32593 0.471758,-1.90502 -1.525225,-2.19022 -3.0921,-2.19284 -2.299199,-0.004 -3.80926,0.32292 -6.08,0.32 -1.464824,-0.002 -3.316049,0.19109 -3.453828,-1.6079 -0.171098,-2.23405 2.855679,-1.5921 4.093828,-1.5921 3.444983,0 9.293277,0.14662 12.799756,-0.006 1.219097,-0.0531 3.105044,-1.15334 1.911109,-2.68074 -1.165054,-1.49086 -5.594146,-0.51349 -7.670865,-0.51349 -1.162177,0 -3.617485,0.55142 -4.470864,-0.74173 -0.937014,-1.41988 0.254334,-2.39309 1.592344,-2.4521 3.330996,-0.1469 7.576299,0.0626 10.55852,-0.23037 0.75688,-0.0744 2.579981,-0.27662 3.191109,0.44124 0.993701,1.16724 0.532811,6.27208 0.281484,7.76765 -0.534394,3.18005 -4.478335,0.10969 -6.023701,2.12049 -1.040874,1.35437 0.54023,3.54912 -0.657783,5.06173 -0.964038,1.2172 -4.821626,-0.13616 -5.742217,1.02617 -0.903428,1.14068 0.404692,4.03235 -0.657783,5.37383 -1.013311,1.27941 -4.482722,-0.01 -5.558023,0.84198 -1.986442,1.57329 0.318567,3.24684 -0.706171,5.32938 -0.629876,1.28008 -8.610005,-0.0326 -5.878025,3.42864 0.835852,1.05896 3.902277,0.51309 5.11111,0.51309 h 14.4 c 1.700362,0 5.22712,0.42056 5.6521,-1.32123 0.51233,-2.09982 -2.000547,-1.87868 -3.4121,-1.87877 h -9.28 c -1.184975,-5.4e-4 -2.950463,0.26341 -3.146418,-1.29729 -0.275586,-2.19491 1.947302,-1.90261 3.466418,-1.90271 h 9.28 c 1.286158,-5.8e-4 2.723716,0.34011 3.096787,-1.00716 0.304963,-1.1013 -0.131948,-1.96422 -1.195551,-2.14544 -1.614766,-0.27512 -9.906836,1.20952 -8.107901,-2.50567 1.086329,-2.24351 7.094327,0.35525 8.893579,-1.07062 0.675376,-0.53522 0.677026,-2.00309 0,-2.54222 -0.684399,-0.54499 -1.771381,-0.0981 -2.358022,-0.84198 -0.538408,-0.68269 -0.403076,-2.09231 0.412837,-2.49383 1.476255,-0.72647 6.004321,-0.51843 7.559508,-0.0914 0.774,0.21255 1.17379,0.71401 1.23259,1.49827 0.0593,0.79117 -0.26449,1.28208 -0.94099,1.49975 -1.09114,0.35109 -3.272887,1.00214 -1.863947,2.78716 1.616377,2.04783 8.771537,-1.51042 9.020737,2.11309 0.24443,3.55407 -10.943627,-0.48828 -9.155057,3.79284 0.46034,1.10186 1.631197,0.99966 2.685427,1.00691 2.88473,0.0199 6.0867,2.5e-4 8.96,2.5e-4 1.18623,0 3.77376,-0.54 3.91629,1.00593 0.15871,1.7212 -1.34163,1.98798 -2.63629,2.01234 -3.62994,0.0683 -7.52232,0.0258 -11.19852,0.1879 -1.291567,0.057 -2.295037,0.84485 -1.726907,2.18543 0.629157,1.48456 4.066357,0.6884 5.565427,0.6884 h 14.08 c 1.36869,0 4.21034,0.53391 5.24667,-0.51309 0.64349,-0.65011 0.52092,-1.8567 -0.2284,-2.35802 -1.41977,-0.9499 -4.21298,0.56759 -5.32938,-0.84198 -1.14897,-1.45069 0.72262,-4.79488 -1.3363,-5.69383 -1.27499,-0.55668 -3.91675,0.3124 -4.8795,-0.48494 -1.78949,-1.482 0.79579,-4.01623 -1.02618,-5.45925 -1.08312,-0.85785 -4.5477,0.43366 -5.55802,-0.84198 -1.27857,-1.61432 0.58609,-3.80331 -0.65778,-5.37383 -0.98317,-1.24134 -3.99024,-0.0472 -5.329377,-0.70617 -1.66532,-0.81944 -0.87875,-7.86074 -0.42173,-9.40691 1.915447,0.41776 7.616597,0.41409 10.239997,0.30766 1.27664,-0.0518 4.15622,-1.04396 5.10963,0.43407 1.10332,1.71042 -0.93969,2.43252 -2.22963,2.45678 -2.02754,0.0382 -11.1021,-1.29169 -10.13679,2.19433 0.43939,1.58673 3.45612,1.00708 4.69679,1.00716 1.37533,9e-5 2.90791,0.2029 4.16,0.17432 2.52836,-0.0577 7.05514,-1.18352 9.49827,0.0188 1.05892,0.52109 0.95802,2.34238 0,2.81382 -1.43202,0.70471 -4.36705,0.19309 -5.97827,0.19309 -1.99646,0 -4.15603,-0.24869 -6.08,0.32 0.12721,0.7359 -0.11787,2.02915 0.51778,2.55111 0.81479,0.66906 2.66041,0.32889 3.64222,0.32889 h 9.6 c 1.17927,0 4.30944,-0.56542 4.92543,0.74148 0.97415,2.06681 -1.73616,2.34239 -3.00543,2.42988 -1.785,0.12304 -5.167,-0.005 -7.03976,0.0301 -1.26749,0.024 -2.75871,0.48462 -2.04567,2.19136 0.58264,1.3946 2.1519,1.00706 3.64543,1.00716 2.30535,1.5e-4 3.85969,0 6.4,0 h 4.16 c 1.25195,0 4.06555,-0.40397 4.60543,0.74148 0.81076,1.72015 -0.95866,2.12858 -2.36543,2.13827 -2.54994,0.0176 -4.33583,0.31917 -6.72,0.32025 -1.54334,6.9e-4 -3.96525,-0.37376 -3.4121,1.87432 0.37066,1.50644 2.91152,1.23197 4.0521,1.29828 0.90534,0.0526 1.59555,0.0649 2.56,-0.0269 3.21393,-0.30586 6.21358,-0.16046 9.28,-0.0985 0.96071,0.0194 1.91164,-0.31962 2.64099,0.5758 0.64838,0.79602 0.55954,1.821 -0.44865,2.26395 -2.96837,1.30417 -7.34048,-0.57107 -10.49358,0.29482 -1.17837,0.3236 -1.87958,2.25401 -0.55703,2.90518 1.21687,0.59914 3.36906,0.19309 4.69827,0.19309 h 4.16 c 1.7714,1.2e-4 4.2672,0.86178 5.65827,-0.0575 0.75517,-0.49906 0.72517,-1.38399 0.74025,-2.18272 0.0285,-1.50808 0.11434,-3.98713 -0.0173,-5.43358 -0.17458,-1.91846 -1.52243,-1.54024 -2.86124,-1.63481 -0.88059,-0.0622 -2.16404,0.0644 -3.00691,-0.61902 -1.80903,-1.46686 0.55836,-3.36114 -0.84198,-5.25184 -1.06726,-1.44101 -4.71191,-0.64415 -6.39111,-1.1405 0.30311,-1.9044 0.85937,-5.51688 -1.60617,-5.74123 -1.45876,-0.13276 -3.63944,0.44264 -4.28074,-1.02617 -0.81149,-1.8586 0.8625,-3.82129 -0.70618,-5.06371 -1.08274,-0.85755 -4.53895,0.4447 -5.55802,-0.84198 -1.44177,-1.82038 0.83976,-3.76427 -1.07062,-5.37382 -1.33352,-1.12354 -4.32058,0.41014 -5.32938,-0.96346 -1.16619,-1.58792 0.49453,-3.66163 -0.65778,-5.11654 -1.26979,-1.60324 -3.77724,0.0734 -5.32938,-0.93482 -1.17323,-0.76205 -0.39105,-4.13147 -0.93482,-5.23654 -0.7508,-1.52582 -2.90406,-0.51329 -4.60074,-0.78914 -0.78418,-0.12749 -1.279127,-0.43091 -1.504437,-1.25135 -0.37601,-1.3692 -0.70522,-6.61093 0.22716,-7.78815 0.678277,-0.85641 2.557397,-0.51312 3.511127,-0.51312 h 9.28 c 1.29247,0.003 2.84247,-0.10869 2.84247,1.6 0,2.73701 -7.91454,1.59595 -9.88247,1.6 -1.48373,0.003 -3.3479,0.13041 -2.77679,2.19284 0.37863,1.36731 2.33626,1.00709 3.41679,1.00716 h 11.2 c 1.20305,0 3.95018,-0.53344 4.37679,1.00716 0.43992,1.58868 -0.53409,2.13003 -1.81827,2.18667 -2.35299,0.10377 -5.57575,0.001 -7.99852,0.006 -1.42918,0.003 -3.56141,0.0961 -2.68543,2.19284 0.52717,1.26184 2.23436,1.00667 3.32543,1.00716 2.33381,0.001 4.15413,0 6.72,0 h 4.16 c 1.1409,0 4.00882,-0.52705 4.60543,0.74148 0.7882,1.67592 -0.83838,2.36839 -2.04567,2.44445 -2.00704,0.12644 -6.31376,0.008 -8.31952,0.008 -1.25681,-1.7e-4 -2.77497,0.44666 -2.04567,2.19901 0.55297,1.32868 1.9421,1.00679 3.32543,1.00741 3.73318,0.002 7.46678,0 11.2,0 1.18519,0 3.76172,-0.37158 4.28543,0.74148 0.41645,0.88509 -0.0248,1.83246 -0.81283,2.17655 -2.28175,0.99631 -6.2922,0.32372 -8.9126,0.27753 -1.28915,-0.0227 -3.28828,-0.20294 -2.7721,1.87728 0.39385,1.58724 3.48305,1.00716 4.6921,1.00716 2.36578,0 5.02565,-0.0896 7.36,0.0126 1.08022,0.0473 1.80825,0.26558 2.88,0.28667 1.10763,0.0218 2.70151,-0.66723 3.64691,0.22543 1.08211,1.02174 0.30961,2.5289 -1.09308,2.65654 -3.06371,0.27881 -6.19874,-0.11061 -9.27235,0.0249 -1.29447,0.0571 -2.28692,0.84621 -1.72691,2.18667 0.5822,1.39357 2.24659,1.00707 3.64543,1.00716 1.68073,1.1e-4 2.60586,0 4.16,0 1.91992,0 6.19452,0.77932 7.48691,-0.51309 1.05029,-1.05028 1.13211,-7.54137 0,-8.43802 -1.86048,-1.47354 -4.14602,1.04539 -5.55802,-1.07062 -0.58926,-0.88305 -0.3222,-2.10116 -0.32913,-3.09827 -0.006,-0.80568 0.12626,-1.72493 -0.51285,-2.23111 -0.6456,-0.51133 -1.51574,-0.30239 -2.36691,-0.34148 -0.93113,-0.0428 -2.21388,0.0273 -3.00691,-0.63161 -1.24747,-1.03643 0.17331,-4.4769 -1.02618,-5.42691 -1.66017,-1.31489 -4.28383,0.83886 -5.55802,-1.07062 -0.77783,-1.16563 0.42066,-4.32935 -0.84198,-5.32938 -1.42138,-1.12576 -3.95247,0.46796 -5.37382,-0.65778 -1.82427,-1.44485 0.57408,-3.7701 -0.84198,-5.55802 -1.05385,-1.3306 -4.25012,0.1939 -5.55802,-0.84198 -1.49295,-1.18244 0.27998,-4.14144 -0.84198,-5.55802 -1.07306,-1.35486 -3.90896,-0.007 -5.32938,-0.70618 -1.56854,-0.77182 -0.23851,-4.3232 -1.07062,-5.37382 -0.90417,-1.1416 -2.94347,-0.29638 -4.46494,-0.58618 -2.515287,-0.47909 -1.607147,-4.15616 -1.606167,-6.32691 3.8e-4,-0.83737 -0.23985,-2.27478 0.51309,-2.87111 0.783617,-0.62065 2.395597,-0.32889 3.326907,-0.32889 h 8.32 c 0.93106,0 2.54362,-0.29186 3.32691,0.32889 0.7594,0.6018 0.6502,2.24553 -0.22864,2.67802 -1.35867,0.66862 -3.84927,0.19309 -5.33827,0.19309 -1.59501,0 -3.20506,-0.0641 -4.79852,0.006 -1.36754,0.0603 -2.68019,1.30284 -1.59259,2.68074 0.7054,0.89368 2.8092,0.51309 3.83111,0.51309 h 10.88 c 1.33489,0 3.66791,-0.52332 4.0521,1.00593 0.72324,2.8788 -6.38634,1.7996 -7.8921,1.90271 -0.92324,0.0632 -1.59927,0.21974 -2.55976,0.28024 -1.13805,0.0717 -2.85805,0.42604 -2.04567,2.14963 0.59666,1.2659 3.47127,0.74149 4.60543,0.74149 4.09234,0 7.65226,0.0729 11.52,0.22296 1.01538,0.0394 2.22493,-0.22962 2.68543,0.8084 0.76435,1.72294 -1.01952,2.15912 -2.36543,2.16839 -2.87279,0.0198 -6.1095,-0.43481 -8.94124,0.0477 -1.12612,0.19187 -1.60682,1.37537 -1.10542,2.41087 0.59296,1.22442 3.18286,0.74155 4.28666,0.74155 h 10.88 c 1.01406,0 3.09964,-0.388 3.64667,0.74173 0.932,1.92477 -0.92618,2.44809 -2.36667,2.45803 -2.03107,0.014 -11.09772,-1.2771 -10.13679,2.19308 0.42675,1.5411 3.17364,1.00716 4.37679,1.00716 h 11.2 c 1.34235,8e-5 3.01972,-0.4268 3.4168,1.00716 0.33706,1.21722 -0.25849,2.06082 -1.50297,2.17407 -2.1415,0.19488 -11.55211,-1.3587 -11.14026,1.92148 0.18486,1.47229 1.75862,1.29509 2.82643,1.29729 3.0487,0.006 5.3081,0 8.64,0 1.26445,0 2.7789,0.3113 3.73827,-0.32889 1.33511,-0.89091 1.22192,-6.30366 0.64,-8.2637 -0.66375,-2.2357 -4.62716,0.1742 -5.96938,-1.5205 -1.04361,-1.31765 0.008,-3.40224 -0.43062,-4.8795 -0.67707,-2.28055 -4.60526,0.20184 -5.96938,-1.5205 -1.01791,-1.28522 0.30843,-3.79123 -0.65778,-5.05851 -1.19882,-1.57238 -3.91488,-0.112 -5.23802,-1.15729 -1.42506,-1.1258 0.21442,-4.18632 -1.34618,-5.42222 -1.40673,-1.11406 -3.99559,0.51744 -5.34642,-0.65778 -1.349,-1.17362 0.21305,-4.19135 -0.86938,-5.55802 -1.18244,-1.49295 -4.14143,0.27999 -5.55802,-0.84198 -1.35485,-1.07306 -0.007,-3.90896 -0.70618,-5.32938 -0.73792,-1.49965 -3.99737,-0.37002 -5.14518,-0.93482 -1.74488,-0.85859 -0.34834,-3.13206 -0.88049,-4.90815 -0.65331,-2.18044 -4.11318,-0.64237 -5.839507,-1.49185 -1.27524,-0.6275 -1.25597,-7.50929 -0.41284,-8.57382 0.639037,-0.80686 2.294147,-0.51303 3.191107,-0.51309 h 9.28 c 1.04253,4.7e-4 2.78809,-0.26713 3.19926,1.00716 0.44718,1.38591 -0.79486,2.07469 -1.9205,2.17408 -2.25708,0.1993 -6.01224,0.003 -8.31876,0.019 -1.14685,0.008 -3.65914,0.53061 -2.23086,2.36692 0.94457,1.21444 3.4819,0.54539 4.79086,0.51752 3.58676,-0.0763 6.55043,0.15516 9.92,0.30272 1.35725,0.0594 3.97816,-0.54952 4.3721,1.01851 0.33358,1.32783 -0.60725,1.81471 -1.81358,1.86791 -3.16839,0.13973 -6.43129,-0.26272 -9.59235,0.0249 -1.25544,0.11425 -2.01732,1.19112 -1.41283,2.43952 0.63151,1.30421 3.7392,0.74172 4.92666,0.74172 3.28795,0 5.85637,0.32 9.28,0.32 1.54405,0 3.922,-0.71768 4.60543,0.74173 0.74639,1.59387 -0.79284,2.39751 -2.04567,2.4521 -2.39429,0.10433 -6.28883,-0.0913 -8.63828,0.0123 -1.14705,0.0506 -2.43616,0.62756 -1.72691,2.13235 0.57732,1.22487 3.19319,0.74148 4.28543,0.74148 h 10.88 c 1.01408,0 3.09963,-0.38802 3.64667,0.74173 0.93452,1.92998 -0.91736,2.44804 -2.36667,2.45803 -2.01289,0.0139 -11.0985,-1.27993 -10.13679,2.19308 0.42675,1.5411 3.17365,1.00716 4.37679,1.00716 h 11.2 c 1.08055,7e-5 3.03817,-0.36016 3.4168,1.00716 0.66778,2.41154 -1.93587,2.19274 -3.4168,2.19284 -0.77537,5e-5 -1.48064,0 -2.24,0 -1.43805,0 -6.48641,-0.79246 -6.9321,1.00716 -0.35643,1.43924 0.65873,2.0716 1.81358,2.17408 3.21323,0.2851 8.20323,0.0797 11.51852,0.0173 1.20521,-0.0227 2.12589,-0.0869 2.45827,-1.29729 0.52933,-1.9275 0.18657,-4.31589 0.0956,-6.37975 -0.0449,-1.01782 -0.1772,-1.68404 -1.29259,-1.87408 -1.38266,-0.23558 -3.57269,0.45498 -4.58815,-0.56049 -1.09924,-1.09924 0.0164,-3.9701 -0.84198,-5.05383 -1.70204,-2.14899 -4.04383,1.05946 -5.74222,-1.31753 -0.75752,-1.06019 -0.53526,-4.05593 -0.32889,-5.27555 -1.47365,-0.43559 -4.09483,-0.009 -5.33827,-0.77877 -1.46363,-0.90609 -0.49741,-2.93025 -0.78913,-4.64247 -0.45329,-2.66052 -3.71661,-0.36302 -5.61087,-1.62765 -0.71903,-0.48004 -0.96948,-1.6456 -0.41259,-2.35803 0.79554,-1.01774 3.80461,-0.51308 5.11086,-0.51308 3.62065,0 7.26137,-0.026 10.88,9.8e-4 1.76689,0.0132 2.72372,0.20185 4.48,0.08 1.25358,-0.087 3.27926,-0.36889 4.15087,0.75185 0.87943,1.1308 -0.22524,2.3007 -1.59235,2.36099 -2.87136,0.12663 -6.12063,0.006 -8.95852,0.006 -0.91118,0 -1.65999,-0.006 -2.56,2.5e-4 -1.06355,0.007 -2.62327,-0.0984 -2.49383,1.59185 0.12863,1.67957 1.76138,1.60042 3.13383,1.60766 3.08417,0.0163 6.19378,5e-5 9.28,2.4e-4 0.95661,6e-5 2.54288,-0.30816 3.19111,0.51309 0.90057,1.14094 0.0896,2.54377 -1.27728,2.66816 -1.91238,0.17402 -7.55283,-1.02904 -7.69902,1.61085 -0.0887,1.60217 1.36921,1.5897 2.58519,1.60667 1.43968,0.0201 3.394,-0.0545 4.79852,0.007 0.83917,0.037 1.58723,0.087 1.81358,1.00099 0.50236,2.02847 -1.34893,1.99137 -3.0921,2.51284 l 0.16,1.44 c 0.75499,1.57138 3.8229,1.30254 5.28,1.24989 1.05096,-0.038 3.41364,0.29933 3.96543,-0.87137 0.7606,-1.61372 -0.94832,-1.83319 -1.95654,-2.33012 -0.75248,-0.37089 -1.38068,-1.60873 -0.71532,-2.49531 1.06954,-1.42514 5.16854,-0.43832 7.02619,-0.51926 1.27862,-0.0557 2.52815,-0.58847 2.13234,-2.18667 -0.40975,-1.65449 -3.64563,-0.99401 -4.6921,-0.97013 -1.34283,0.0307 -5.18171,0.34049 -4.67951,-2.22987 0.26232,-1.34263 1.9419,-1.00665 3.07951,-1.00716 3.37198,-0.002 8.28339,0.78196 11.50124,-0.10173 1.3018,-0.3575 1.95881,-2.50145 0.29136,-2.99654 -2.06271,-0.61244 -6.13346,-0.10173 -8.2726,-0.10173 -1.86363,0 -4.77695,0.25434 -6.72,-0.32 0.22509,-0.72966 0.0973,-1.89395 1.06173,-2.36691 1.36287,-0.66836 3.83701,-0.19309 5.33827,-0.19309 h 12.8 c 1.78283,0 5.7448,-1.30608 6.2968,0.68716 0.24614,0.88884 -0.0132,1.82659 -0.9042,2.09111 -1.2781,0.37946 -4.46553,-0.64818 -5.19951,0.84346 -0.80051,1.62683 0.67546,4.25485 -0.93482,5.32939 -1.17205,0.78211 -4.33178,-0.41841 -5.32938,0.84197 -0.81343,1.02768 0.003,4.16971 -0.65679,5.14518 -1.41681,2.0936 -4.28533,-0.5859 -5.74321,1.25482 -1.06759,1.34793 0.64553,4.17539 -0.55062,5.23803 -1.37369,1.22036 -4.21678,-0.4894 -5.66518,0.65777 -0.99802,0.79045 -0.51309,3.47049 -0.51309,4.47111 0,1.25506 -0.40085,2.43227 0.19309,3.79259 0.84847,1.94332 7.14702,1.00741 9.40691,1.00741 1.20167,0 2.00793,0.002 3.2,0 1.33357,-0.003 3.05383,0.10211 3.05383,-1.6 0,-1.60858 -1.81009,-1.59744 -3.05383,-1.6 -2.57167,-0.005 -5.33076,0.18955 -7.67852,-0.0188 -1.09876,-0.0975 -1.95109,-0.63335 -1.85531,-1.88395 0.1431,-1.86848 3.13407,-1.29729 4.41383,-1.29729 h 11.2 c 1.41593,-6.3e-4 3.04346,0.29179 3.4121,-1.29728 0.27337,-1.17838 -0.35231,-1.77968 -1.49827,-1.88396 -2.00389,-0.18235 -3.49609,-0.0188 -5.75383,-0.0188 -1.56764,0 -5.57684,0.748 -5.37383,-1.90271 0.14691,-1.91818 2.6104,-1.1622 3.77383,-1.0963 0.91417,0.0518 1.63771,-0.1251 2.56,-0.0896 2.81142,0.1081 4.97019,0.20864 8,0.20864 1.38938,0 4.05932,0.17812 4.60543,-1.04889 0.3597,-0.80816 0.0911,-1.78098 -0.81283,-2.04938 -2.43287,-0.72234 -6.72671,0.0127 -9.2326,-0.11457 -1.05906,-0.0538 -2.38315,-0.17374 -2.49383,-1.59852 -0.16585,-2.1351 2.48197,-1.58864 4.09383,-1.58864 3.83885,0 7.68152,0.008 11.52,0 1.38398,-0.003 2.74819,0.18515 3.0921,-1.29728 0.34454,-1.4852 -0.71541,-1.84812 -1.81358,-1.89655 -2.1241,-0.0937 -5.85761,0.0326 -7.99852,-0.008 -1.47224,-0.0277 -1.9406,-1.11246 -2.35798,-3.28739 l 14.19798,0.0889 c 1.67532,0.0105 3.93252,0.59756 4.3721,-1.29729 0.63838,-2.7518 -3.73986,-1.90271 -5.0121,-1.90271 -2.03455,0 -4.3603,0.48976 -6.3526,-0.10173 -0.91383,-0.27131 -1.16183,-1.16069 -0.9042,-2.09111 0.37306,-1.34723 1.81068,-1.00659 3.0968,-1.00716 h 8.96 c 1.10771,7e-5 2.82528,-0.31496 3.50321,0.74173 0.88751,1.38337 0.3483,4.27177 0.33655,5.97827 -0.006,0.89012 0.0646,1.96482 -0.74149,2.50271 -0.82399,0.54985 -1.73361,0.37339 -2.77827,0.37729 -0.78103,0.003 -2.0132,-0.16608 -2.55111,0.51308 -0.67823,0.85632 -0.30901,2.19438 -0.33037,3.32667 -0.015,0.79459 0.005,1.68585 -0.74025,2.18296 -1.46805,0.97962 -4.29265,-0.50296 -5.32938,0.85334 -1.10847,1.45016 0.36764,3.79617 -0.65778,5.09086 -0.82952,1.04736 -4.52662,0.0251 -5.55802,0.84197 -1.56867,1.24242 0.46229,3.91126 -0.84198,5.55803 -1.37854,1.74054 -4.33058,-0.75617 -5.74222,1.02617 -1.02508,1.29427 0.25957,3.77531 -0.65778,5.10815 -1.5432,2.24217 -3.57246,-0.46494 -5.55802,1.10766 -0.60824,0.48173 -0.49954,1.27263 -0.51161,1.91135 -0.0216,1.14292 0.32953,2.84233 -0.51457,3.51087 -0.89298,0.70726 -4.45024,-0.0737 -5.37382,0.65778 -1.32652,1.05062 -0.26379,3.03089 -0.56049,4.77234 -0.37341,2.19165 -4.09552,0.7462 -5.61087,1.49185 -0.86502,0.42565 -0.7344,1.3389 -0.74149,2.36692 -0.0112,1.62109 -0.73906,4.69823 0.32865,6.29827 0.84262,1.26276 2.63047,0.74173 4.15111,0.74173 h 11.52 l -0.32004,-2.55947 c -1.73873,-1.31727 -5.23972,-0.64 -7.36,-0.64 -1.24922,0 -3.23238,0.37081 -4.37827,-0.19309 -1.12784,-0.55502 -0.90171,-2.5586 0.26567,-2.90519 3.89789,-1.15739 9.63873,-0.10189 13.7126,-0.10189 1.14714,0 3.78389,0.47415 4.19407,-1.00716 0.51359,-1.85471 -1.2448,-2.18329 -2.59407,-2.1926 -1.86244,-0.0128 -8.38818,1.01067 -9.59111,-0.51333 -1.8933,-2.39863 1.86351,-2.68683 3.19111,-2.68691 5.22654,-3.3e-4 15.14076,0.92426 15.45398,-0.47495 -0.46651,-3.24018 -6.01142,-2.72504 -8.73398,-2.72504 -1.02216,0 -3.46591,0.40564 -3.70346,-1.00593 -0.38602,-2.29383 2.43808,-1.87407 4.02346,-1.87407 3.73322,0 7.46682,0.002 11.2,0 1.38456,-6.2e-4 2.77049,0.32116 3.32543,-1.00716 0.71304,-1.70672 -0.77819,-2.1674 -2.04567,-2.19136 -2.22798,-0.0421 -5.81503,0.12206 -7.99952,-0.0156 -1.23158,-0.0776 -2.81913,-0.79988 -2.04567,-2.44444 0.55524,-1.18058 2.91735,-0.74149 3.96543,-0.74149 h 4.16 2.56 3.2 c 1.55914,0 4.5537,0.6464 4.87629,-1.29728 0.25695,-1.54822 -1.09272,-1.87811 -2.31653,-1.90123 -2.81988,-0.0533 -5.83678,0.23426 -8.63359,-0.0202 -1.15655,-0.10525 -1.6963,-0.73946 -1.5526,-1.88396 0.25538,-2.03392 3.07882,-1.29728 4.74643,-1.29728 4.06314,0 10.96798,-1.75929 11.1874,3.2 0.0777,1.75498 0.54683,4.41521 -0.50049,5.65827 -1.8324,2.17488 -4.19022,-0.87621 -5.87802,1.25481 -0.8273,1.04454 0.39981,4.2545 -0.84198,5.23802 -1.41659,1.12197 -4.37559,-0.65096 -5.55802,0.84198 -1.12582,1.42146 0.46805,3.95236 -0.65778,5.37383 -1.19828,1.51296 -4.18076,-0.35109 -5.55802,1.02617 -1.36473,1.36474 0.29253,3.9414 -0.84198,5.37383 -0.98352,1.2418 -4.19347,0.0147 -5.23802,0.84198 -1.62633,1.28808 0.37017,3.51287 -0.84198,5.32938 -1.15678,1.73354 -4.10672,-0.0788 -5.55802,1.07062 -1.49842,1.18677 0.29685,3.64844 -0.84198,5.2921 -1.19047,1.71819 -4.00823,-0.15 -5.55802,1.10667 -1.59124,1.29027 0.34277,4.17472 -1.02618,5.51481 -1.34,1.31175 -3.45796,-0.0796 -5.14518,0.75062 -1.23563,0.608 -1.25149,7.51496 -0.41284,8.57382 0.63628,0.80336 2.27952,0.51303 3.19111,0.51309 3.06537,1.9e-4 6.22398,0.006 9.28,0 1.15702,-0.002 2.80159,0.22129 3.07951,-1.29729 0.22237,-1.215 -0.71136,-1.78726 -1.80099,-1.88394 -2.94951,-0.26171 -5.99749,0.10558 -8.95704,-0.0249 -1.32978,-0.0587 -2.02839,-0.61834 -1.86791,-1.89655 0.23105,-1.84011 2.56935,-1.29728 4.10643,-1.29728 h 10.88 c 1.14523,0 3.12695,0.3732 3.82617,-0.74173 0.99327,-1.58382 -0.87267,-2.43124 -2.22641,-2.45679 -2.81986,-0.0532 -5.83662,0.23428 -8.63359,-0.0203 -1.09702,-0.0998 -1.79076,-0.69104 -1.49827,-1.8553 0.40182,-1.59943 3.44555,-1.00593 4.6921,-1.00593 3.62561,0 7.25475,0.006 10.88,0 1.06357,-0.002 2.56599,0.13269 3.19111,-0.77877 1.0736,-1.56532 -0.11615,-2.66994 -1.59259,-2.73506 -4.27594,-0.18858 -11.76305,0.75284 -11.03852,-0.80609 0.65499,-2.29148 2.87296,-2.08008 4.64,-2.08008 3.62656,0 7.25347,0.002 10.88,0 1.38456,-6.2e-4 2.77049,0.32115 3.32543,-1.00716 0.71304,-1.70673 -0.77819,-2.1674 -2.04567,-2.19136 -2.15898,-0.0408 -5.90103,0.0367 -7.99952,-0.003 -1.28361,-0.0243 -3.09229,-0.53599 -2.33827,-2.45679 0.51979,-1.32411 3.56539,-0.74173 4.57803,-0.74173 3.64433,0 8.16732,0.0676 11.84,-0.001 1.25714,-0.0237 2.38574,-0.15673 2.49383,-1.59852 0.12015,-1.60274 -1.24372,-1.59114 -2.49383,-1.59976 -2.48785,-0.0172 -7.63623,1.0741 -9.40691,-0.32913 -0.49844,-0.39501 -0.58165,-1.24363 -0.40989,-1.86395 0.38886,-1.40426 2.22034,-1.00708 3.4168,-1.00716 2.97339,-1.9e-4 8.55846,-0.66844 11.1526,0.10173 1.67141,0.49622 1.20028,6.41413 0.96,7.8921 -0.43675,2.68636 -3.27229,1.09248 -5.3452,1.7079 -2.20321,0.6541 0.14471,4.33052 -1.52049,5.64938 -1.41659,1.12196 -4.37559,-0.65097 -5.55802,0.84198 -1.12582,1.42146 0.46804,3.95236 -0.65778,5.37382 -1.24399,1.57068 -4.50555,-0.54994 -5.74198,1.02618 -1.04892,1.33709 0.4723,3.96045 -0.65777,5.37382 -1.16273,1.45422 -4.34215,-0.33785 -5.42247,1.02618 -1.02472,1.2938 0.65231,4.40832 -1.07062,5.55802 -1.42832,0.95312 -4.19312,-0.59267 -5.32938,0.84197 -1.34043,1.69244 0.8373,3.7652 -0.84198,5.30988 -0.69965,0.64358 -2.11438,0.54741 -3.00691,0.54494 -0.74812,-0.002 -1.72648,-0.36814 -2.36691,0.0696 -1.86484,1.2747 0.60072,3.70783 -0.84198,5.52938 -0.94048,1.18746 -3.93538,0.0523 -5.34198,0.70617 -0.97495,0.45326 -1.05449,1.7643 -1.01579,2.68692 0.0834,1.98863 -0.47166,4.04477 0.47975,5.97827 0.52023,1.05725 2.15219,0.74165 3.32691,0.74173 3.30464,2.1e-4 6.61605,0.0607 9.92,-10e-4 1.12848,-0.0212 2.48024,-0.20432 2.43951,-1.59851 -0.0493,-1.68814 -1.80395,-1.59737 -3.07951,-1.6 -2.26317,-0.005 -6.86645,0.7871 -8.85827,-0.19309 -0.58107,-0.28594 -0.7042,-0.80564 -0.7042,-1.40691 0,-0.85009 0.32435,-1.43461 1.26123,-1.52396 0.93045,-0.0887 1.5807,0.20728 2.54124,0.22247 1.26058,0.0199 2.27241,-0.21642 3.52,-0.19628 1.1125,0.0179 2.04395,0.20571 3.2,0.19381 1.18759,-0.0122 1.9497,-0.2665 3.2,-0.2911 1.39025,-0.0273 2.30412,0.34909 3.51383,0.23901 0.81328,-0.074 1.31018,-0.46942 1.50297,-1.22247 0.90654,-3.54119 -7.20606,-2.05502 -9.1768,-2.08074 -1.1632,-0.0152 -3.01122,0.12381 -3.13383,-1.43334 -0.16367,-2.07856 2.93833,-1.5874 4.41383,-1.5874 h 3.2 7.04 c 1.74643,0 3.85823,0.45916 4.10643,-1.60444 0.15335,-1.27503 -0.45374,-1.63383 -1.5526,-1.73383 -2.94034,-0.26757 -6.97148,0.57524 -9.86643,-0.28346 -1.25207,-0.37139 -0.99111,-1.36815 -1.3274,-2.45827 1.72849,-0.51092 2.82411,-0.32 4.48,-0.32 h 10.24 c 1.75611,0 5.12468,0.50797 4.3768,-2.19284 -0.32534,-1.17491 -1.51357,-1.00041 -2.4568,-1.00692 -2.02003,-0.0139 -4.97271,0.0104 -7.04,-4.9e-4 -1.32693,-0.007 -4.00102,-0.34141 -3.00543,-2.45827 0.54652,-1.16205 2.08594,-0.7414 3.32543,-0.74148 3.83851,-2.4e-4 7.68111,0 11.52,0 1.71953,0 4.67566,0.32502 4.0521,-2.19284 -0.29959,-1.20969 -1.81125,-1.00519 -2.7721,-1.00716 -2.03957,-0.004 -10.25868,1.22137 -9.86643,-1.90272 0.19756,-1.57342 1.96213,-1.29675 3.14643,-1.29728 h 8.96 c 0.9313,0 2.5433,-0.29174 3.32691,0.32889 1.26199,0.99951 0.98424,8.13287 -0.22864,8.94222 -1.69678,1.13226 -4.04442,-0.78043 -5.32938,0.84197 -0.91773,1.15874 0.48075,4.19042 -0.84198,5.23803 -1.40421,1.11216 -4.40455,-0.59711 -5.55802,0.84296 -1.00987,1.26077 0.27055,4.55932 -0.84198,5.6484 -1.49789,1.46632 -3.81545,-0.34784 -5.37382,0.88642 -1.14835,0.90952 0.13549,4.00387 -0.84198,5.23802 -0.89367,1.12835 -3.56448,0.26472 -4.74371,0.61482 -1.10044,0.32671 -1.64633,1.85643 -0.49431,2.76938 0.94287,0.7472 3.96649,0.32889 5.24691,0.32889 h 14.4 c 1.54523,0 5.08247,0.72647 5.08247,-1.6 0,-1.71075 -1.54615,-1.59734 -2.84247,-1.6 -3.07328,-0.006 -6.20056,1.9e-4 -9.28,0 -1.35033,-9e-5 -3.95675,0.202 -3.67777,-1.87531 0.17652,-1.31445 1.59473,-1.09011 2.71777,-1.18222 2.90201,-0.23803 6.50764,-0.14228 9.6,-0.14247 0.96595,-6e-5 2.80644,0.33265 3.32667,-0.74173 1.74693,-3.60777 -6.15586,-2.32737 -7.8005,-2.47704 -1.27489,-0.11602 -2.21008,-1.48649 -1.27728,-2.66815 1.55801,-1.97366 6.82575,0.63234 8.78074,-0.84197 0.75393,-0.56856 0.55486,-1.72664 -0.0802,-2.35803 -0.62083,-0.61718 -1.43823,-0.29426 -2.11629,-0.84172 -1.76325,-1.42361 0.56955,-2.52799 1.72715,-2.54988 1.97776,-0.0374 6.74341,-1.01943 7.25186,1.00445 0.52835,2.10309 -4.80234,1.97758 -2.76321,4.56098 1.11542,1.41314 6.00918,0.38117 7.66494,0.53186 1.03547,0.0942 1.56865,0.53755 1.56865,1.58123 0,2.68356 -5.32236,1.56367 -7.32224,1.60148 -1.40467,0.0266 -2.87295,0.75084 -2.04691,2.45679 0.49014,1.01223 2.09179,0.74132 3.00667,0.74173 h 9.28 c 1.29129,5.8e-4 3.42518,-0.19123 3.42518,1.5921 0,1.65017 -1.92166,1.60141 -3.10518,1.60765 -3.00672,0.0159 -6.26774,5e-5 -9.28,2.5e-4 -1.37838,9e-5 -3.91478,-0.26411 -3.4121,1.90271 0.28751,1.23934 1.41327,1.27626 2.4521,1.2958 5.67444,0.10677 11.06645,10e-4 16.96,10e-4 1.51264,0 5.1941,0.78208 5.88197,-0.74173 0.38537,-0.8537 -0.0404,-1.90688 -0.83506,-2.26519 -1.30504,-0.58843 -4.05076,0.54036 -5.03802,-0.70617 -1.12196,-1.41659 0.65097,-4.37559 -0.84198,-5.55802 -1.21037,-0.95864 -4.29343,0.1979 -5.37382,-0.65778 -1.80334,-1.42827 0.77716,-4.31395 -1.02618,-5.74222 -1.08037,-0.85568 -4.16345,0.30085 -5.37382,-0.65778 -0.80599,-0.63836 -0.51299,-2.2891 -0.51311,-3.9913 -1.08854,-2.47922 -3.53627,-1.43005 -5.10127,-1.89896 -1.70618,-0.5112 -1.94372,-7.01607 -1.10567,-8.7195 0.528,-1.07324 2.35511,-0.74167 3.32691,-0.74173 h 8.96 c 1.01123,7e-5 2.57482,-0.2677 3.19111,0.51309 0.65973,0.83582 0.34932,2.11876 -0.41283,2.49382 -2.25271,1.10858 -7.1691,0.1445 -9.81804,0.19457 -1.30586,0.0247 -3.3216,1.08691 -1.72715,2.68543 0.92925,0.93164 2.56592,0.51309 3.96691,0.51309 h 9.92 c 1.22398,0 4.29789,-0.57217 4.69211,1.00617 0.52373,2.09678 -1.63859,2.18592 -3.09211,2.19358 -2.9441,0.0155 -5.98686,-0.67168 -8.5926,0.10198 -0.76793,0.228 -1.10914,0.9379 -0.89951,1.77234 0.4332,1.72444 2.72441,1.2552 4.05211,1.31333 3.07186,0.13451 7.07691,0.0126 10.24,0.0126 1.23967,0 4.30994,-0.51524 4.69211,1.00593 0.7776,3.09515 -7.7751,1.84764 -9.81211,1.87753 -1.46646,0.0215 -3.33031,0.19341 -2.7768,2.18938 0.44703,1.61195 3.75434,1.14465 5.0168,1.20716 0.96643,0.0479 1.89611,-0.17127 2.88,-0.19531 2.62463,-0.0641 5.36471,-0.0101 8,-0.005 0.86012,0.002 2.23051,-0.20032 2.68666,0.74173 0.93201,1.92477 -0.92619,2.44809 -2.36666,2.45802 -2.01932,0.0139 -10.76641,-1.23616 -9.8168,2.19309 0.42602,1.53843 3.17155,1.00716 4.3768,1.00716 h 10.24 c 1.05666,0 2.82145,-0.3145 3.64691,0.51308 1.1094,1.11224 0.24457,2.54643 -1.09308,2.66815 -3.24162,0.29499 -6.68604,-0.48056 -9.89506,0.0662 -1.5641,0.26649 -1.69445,2.34687 -0.29137,2.95951 0.95524,0.4171 4.57989,0.19309 6.0326,0.19309 1.76049,0 3.6992,7.8e-4 5.44,0 0.80412,-3.6e-4 1.73639,0.14581 2.5126,-0.19309 1.64883,-0.71989 1.58373,-7.10154 0.81431,-8.66518 -0.89654,-1.82201 -4.88535,0.15957 -5.69382,-1.48346 -1.09633,-2.22802 0.89828,-5.10364 -2.43306,-5.33794 -2.30018,-0.24993 -3.93236,0.36944 -4.14121,-1.92584 -0.12945,-1.42262 0.43887,-2.99002 -0.53186,-3.96075 -1.68113,-1.68112 -3.65138,0.69627 -5.37382,-1.02617 -0.90094,-0.90093 -0.005,-4.74884 -1.02618,-5.55802 -1.97773,-1.56639 -4.08511,1.13668 -5.55802,-1.07062 -1.22186,-1.83105 0.71912,-3.40672 -0.65778,-5.14518 -0.82347,-1.03973 -4.91875,0.0136 -5.74222,-1.02618 -1.09651,-1.38444 0.43873,-3.98937 -0.65778,-5.37382 -0.93947,-1.18619 -4.27879,0.1712 -5.55802,-0.84198 -1.18658,-0.93979 -0.1447,-3.86833 -0.70618,-5.00938 -1.01629,-2.06538 -3.62934,0.10604 -5.46518,-1.11902 -1.25195,-0.83542 -1.32457,-7.88971 0.0496,-8.89382 0.88692,-0.64849 2.65245,-0.3293 3.68862,-0.3293 3.26369,0 6.66422,-0.27695 9.91383,0.0188 1.11699,0.10165 1.69881,0.71948 1.5526,1.88395 -0.19756,1.57342 -1.96211,1.29675 -3.14643,1.29728 -1.68482,7.6e-4 -8.61561,-0.94489 -9.40543,0.74173 -0.94435,2.01659 1.26203,2.44823 2.68543,2.45803 3.61686,0.0249 7.26068,2.4e-4 10.88,2.4e-4 1.35674,0 3.27156,-0.24299 4.4326,0.10173 2.89719,0.8602 -0.35192,3.06148 -2.19258,3.09807 l -4.47998,-1.9e-4 c -1.19049,0 -2.98771,-0.33375 -4.05828,0.19309 -1.34912,0.66391 -0.73049,2.6709 0.55705,2.92246 3.82148,0.74664 9.40543,0.0845 13.42123,0.0845 1.44529,0 3.65006,-0.59435 4.05211,1.00593 0.38719,1.54114 -1.15152,1.86486 -2.45211,1.87383 -2.78021,0.0192 -6.56607,-0.68968 -9.2326,0.10197 -1.06135,0.3151 -1.24455,1.81885 -0.67851,2.61383 0.70273,0.98695 1.97416,0.79825 3.19111,0.8042 3.61705,0.0177 7.26053,2.4e-4 10.88,2.4e-4 1.22443,0 4.29689,-0.56717 4.69211,1.00593 0.25051,0.9971 -0.22828,1.66266 -1.19088,1.82666 -2.58191,0.4399 -5.96256,0.0419 -8.62123,0.0474 -1.46523,0.003 -3.71773,0.32891 -2.68666,2.45827 0.54637,1.12835 2.63299,0.74173 3.64666,0.74173 h 10.56 c 1.17186,0 3.99039,-0.53409 4.37211,1.00716 0.83691,3.37926 -7.55639,2.18885 -9.49211,2.19284 -1.22301,0.003 -2.94016,-0.0852 -2.81383,1.6 0.0973,1.2973 1.05838,1.54521 2.17408,1.59383 2.88573,0.12574 6.33881,0.006 9.27975,0.006 1.18941,0 2.51918,0.27108 3.41828,-0.32889 1.66633,-1.11193 1.47668,-8.5562 -0.55705,-8.9037 -1.60023,-0.27344 -4.18031,0.27731 -4.67951,-1.37803 -0.36822,-1.22103 0.40183,-4.57085 -1.16344,-5.14197 -1.92859,-0.70369 -3.15713,1.22757 -4.82519,-0.4405 -0.76225,-0.76224 -0.5059,-2.25915 -0.51334,-3.32691 -0.005,-0.76265 0.11244,-1.73589 -0.51284,-2.23111 -1.68871,-1.33748 -3.68146,0.85039 -5.37382,-0.84198 -1.57155,-1.57154 0.60214,-3.55047 -0.84198,-5.37383 -0.8017,-1.01222 -4.13506,-0.11848 -5.32939,-0.70617 -1.95836,-0.96363 -0.0352,-3.63687 -0.93481,-5.46518 -0.69683,-1.41617 -4.91625,-0.0405 -5.87802,-1.25482 -1.1427,-1.44276 0.29109,-3.49284 -0.52198,-5.14518 -0.63031,-1.28096 -3.57502,-0.45618 -4.87951,-0.84346 -0.90112,-0.26753 -0.96279,-0.94808 -1.00123,-1.81975 -0.0485,-1.10058 0.35906,-2.76905 -0.33506,-3.64544 -1.32891,-1.67789 -4.04606,0.48579 -5.55802,-1.02617 -1.13288,-1.13287 -0.90877,-6.40409 -0.41136,-8.07951 0.38479,-1.29609 1.78281,-1.00681 3.09827,-1.0074 2.89996,-0.001 6.28061,0.17885 8.96,0.0274 1.11846,-0.0632 3.32877,-0.36291 3.45383,1.26987 0.0997,1.3021 -0.74572,1.78551 -1.85531,1.88396 -2.08954,0.1854 -5.51258,0.0178 -7.67852,0.0188 -1.36952,6.1e-4 -3.16247,-0.3079 -3.16247,1.6 0,1.94483 2.10391,1.59991 3.48247,1.6 h 11.2 c 1.17535,0 3.99158,-0.52934 4.37211,1.00715 0.3973,1.60422 -0.85815,2.13115 -2.13236,2.18667 -2.17389,0.0947 -10.71745,-1.27679 -10.49358,1.59457 0.13569,1.74028 2.87496,1.52492 4.41383,1.5363 1.50035,0.0111 2.51859,-0.18183 4.16,-0.15334 2.34891,0.0408 4.13857,0.22864 6.72,0.22864 1.29883,0 3.06264,-0.495 3.64543,0.74149 0.78639,1.66844 -1.05854,2.12926 -2.36543,2.13827 -1.99678,0.0138 -10.20248,-1.15528 -10.20248,1.60024 0,2.20212 2.95953,1.6 4.44248,1.6 h 10.56 c 1.11783,0 3.14787,-0.35253 3.83111,0.51309 0.80766,1.02324 0.35164,2.27935 -0.67851,2.58519 -2.48877,0.73887 -7.16887,-0.0113 -9.87112,0.1079 -1.34054,0.0591 -2.21779,0.74394 -1.81828,2.18667 0.43453,1.56918 3.40432,1.00715 4.6968,1.00715 4.34822,0 9.90965,-0.9127 14.08,0.32 -0.1526,0.88268 0.25299,2.18933 -0.74297,2.68692 -2.10094,1.04964 -6.51656,0.18827 -8.85703,0.19308 -1.09154,0.002 -2.70168,-0.16709 -2.81383,1.29729 -0.11228,1.46623 0.94586,1.84302 2.17408,1.89654 3.30938,0.1442 7.21233,0.029 10.55975,0.006 1.2033,-0.008 2.20775,0.0903 2.68691,-1.00717 0.50879,-1.16532 0.80313,-7.37416 -0.32,-8.26369 -1.23416,-0.97747 -4.32851,0.30637 -5.23802,-0.84198 -1.09651,-1.38445 0.43873,-3.98938 -0.65778,-5.37383 -0.77816,-0.98251 -4.60824,-0.0897 -5.55802,-0.84198 -1.52741,-1.20972 -0.24131,-4.06909 -0.83309,-6.0711 -1.63854,0.3901 -4.81668,0.97858 -5.75111,-0.42173 -0.627,-0.93959 -0.30842,-2.2566 -0.33037,-3.41803 -0.0142,-0.75335 0.0486,-1.65899 -0.74024,-2.04716 -1.30428,-0.64179 -4.37553,0.49463 -5.32939,-0.93481 -0.99539,-1.49166 0.53537,-4.23852 -0.84198,-5.32939 -1.45566,-1.1529 -4.00193,0.52992 -5.37382,-0.84197 -1.19641,-1.19641 0.24611,-4.65293 -1.25481,-5.41827 -1.93762,-0.98802 -3.35269,0.43054 -4.82519,-0.79284 -1.99525,-1.65769 1.02927,-3.79897 -1.02618,-5.42692 -1.42592,-1.12935 -3.72836,0.28768 -5.14518,-0.65777 -1.38959,-0.92727 -1.37048,-7.97349 0.037,-8.94223 0.86557,-0.59573 2.38834,-0.32888 3.38123,-0.32888 2.84765,0 8.27402,-0.65788 10.8326,0.10172 1.05176,0.31226 1.48283,1.56618 0.67851,2.58519 -0.57429,0.72759 -1.92013,0.51266 -2.87111,0.51309 -2.63186,10e-4 -5.37342,-0.2197 -7.99383,0.0188 -1.45046,0.13199 -2.06841,1.69034 -1.09308,2.66815 0.94626,0.94868 2.63798,0.51309 3.96691,0.51309 h 10.56 c 1.42332,0 3.56139,-0.49491 3.78643,1.29728 0.39154,3.11822 -7.82631,1.89852 -9.86643,1.90272 -1.57617,0.003 -3.32626,0.33034 -2.54814,2.19284 0.58566,1.40182 2.07164,1.00707 3.50814,1.00716 h 11.2 c 1.47717,0 3.65328,-0.60323 4.05211,1.00715 0.42787,1.72759 -1.09055,2.16575 -2.45211,2.19136 -1.96887,0.037 -4.1585,0.0246 -6.08,-0.0595 -1.01693,-0.0445 -2.11393,-0.43825 -3.14791,-0.1526 -0.87078,0.24057 -0.86189,1.06754 -0.69283,1.7963 0.41789,1.80128 2.97877,1.27507 4.48074,1.29729 l 11.01874,0.16299 c 1.97557,0.0292 3.44371,-0.14486 4,1.6 0.65392,2.1599 -7.84724,1.43147 -10.53874,1.43701 -1.48371,0.003 -3.34791,0.13042 -2.7768,2.19284 0.3967,1.4326 2.61328,1.00716 3.7368,1.00716 h 11.2 c 1.66014,0 4.28629,-0.39521 3.99777,1.90271 -0.1934,1.54036 -2.22302,1.29678 -3.35777,1.29729 -2.7584,0.001 -4.20422,-0.0171 -6.72,2.4e-4 -1.31199,0.009 -2.72664,0.14864 -2.50643,1.90247 0.20903,1.66462 2.23922,1.29721 3.46643,1.29729 3.08307,1.9e-4 6.20078,0.006 9.28,0 1.119,-0.002 2.49084,0.0351 2.96246,-1.00741 0.71834,-1.58791 1.09426,-7.1788 -0.27555,-8.26371 -1.0674,-0.8454 -4.24456,0.45508 -4.91508,-0.90762 -0.67493,-1.37161 -0.0975,-4.07349 -1.48492,-5.17238 -1.65537,-1.31107 -3.91025,0.62161 -5.37382,-0.84197 -1.38508,-1.38508 0.48066,-3.70386 -0.84198,-5.37383 -0.8473,-1.06981 -4.53791,-0.034 -5.55802,-0.84197 -1.75127,-1.38702 0.51789,-3.84105 -0.84198,-5.55803 -0.93951,-1.18622 -4.27908,0.17157 -5.55802,-0.84197 -0.67131,-0.532 -0.67131,-2.01022 0,-2.54223 1.3749,-1.08959 4.4314,-0.14849 5.88691,-0.11283 4.38432,0.10742 8.86889,0.10395 13.44,0.10395 1.41742,0 5.5391,-0.67323 5.69383,1.2926 0.0572,0.72701 -0.20713,1.2559 -0.94123,1.5353 -2.82235,1.07417 -8.0058,0.0521 -11.1526,0.0521 -1.16785,0 -3.69879,-0.44359 -3.73211,1.29728 -0.0359,1.87646 1.65977,1.89977 3.09211,1.90272 3.04859,0.006 5.77781,0 8.96,0 0.99264,0 2.9051,-0.26188 3.51086,0.51308 0.69621,0.89067 0.15699,2.27581 -0.96963,2.58519 -2.15541,0.59191 -8.26371,-1.23184 -8.26371,1.70173 0,3.42294 7.3367,0.56901 9.04939,1.92889 2.29485,1.82209 -1.82054,2.83703 -3.00691,3.19111 0.25969,1.03557 0.15549,2.11118 1.3274,2.45827 2.04203,0.60479 3.87711,0.40502 5.7126,0.41556 1.0843,0.006 1.96982,-0.0541 2.36543,-1.00099 0.43168,-1.03325 -0.002,-1.77874 -0.81135,-2.10987 -0.83422,-0.34129 -2.99178,-1.65842 -1.36099,-2.95408 1.3016,-1.03414 4.9258,-0.26531 6.52666,-0.33506 1.0432,-0.0454 1.88031,-0.20461 2.13236,-1.29112 0.30514,-1.31529 -0.48928,-1.79214 -1.49828,-1.88395 -1.72649,-0.15711 -5.30151,0.59058 -6.93211,-0.21185 -0.876,-0.43108 -0.95358,-1.80875 -0.41283,-2.49383 0.76072,-0.96376 2.40554,-0.51308 3.51111,-0.51308 2.98131,0 5.89615,10e-4 8.96,0 1.00016,-4.5e-4 2.52637,0.31187 3.00197,-0.74173 0.79569,-1.76263 -1.20576,-2.44785 -2.68197,-2.45803 -3.76961,-0.026 -7.7777,0.4174 -11.51383,0.0254 -1.17232,-0.12298 -1.9724,-0.97436 -1.4116,-2.1642 0.70529,-1.49635 5.42965,-0.74148 6.84543,-0.74148 3.10293,0 6.531,0.0705 9.6,-0.005 1.05031,-0.0257 1.84693,-0.25803 2.88,-0.25803 0.96381,0 1.6174,0.22253 2.56,0.24569 0.76801,0.0189 1.74926,-0.26788 2.44594,0.12863 1.05664,0.60139 0.60949,1.60521 0.75406,2.4484 -1.62236,0.47955 -5.0893,-0.46718 -5.8916,1.06173 -0.46438,0.88495 0.0236,4.50167 -1.02149,5.32938 -1.54775,1.22584 -4.27416,-0.77903 -5.55802,0.84197 -1.26268,1.59424 0.60976,3.92209 -0.84198,5.37383 -1.67588,1.67588 -4.31629,-0.8255 -5.50371,1.02617 -0.82318,1.28369 0.58114,3.12331 -0.25629,4.82519 -0.75218,1.52864 -4.89777,0.0172 -5.87802,1.25481 -0.91473,1.15494 -0.33237,4.20168 -0.32889,5.88692 0.002,0.86959 -0.17213,2.0017 0.51309,2.68691 0.81621,0.81621 2.14367,0.51301 3.32691,0.51309 2.64553,1.6e-4 4.39525,0 7.36,0 1.14145,0 2.42062,0.26625 3.4726,-0.19309 1.29123,-0.56381 1.32144,-2.68473 -0.29137,-2.95951 -1.94564,-0.33148 -4.74068,-0.0474 -6.70123,-0.0474 -1.4132,0 -2.05162,0.32014 -3.4726,-0.10173 -0.80972,-0.2404 -1.81594,-2.14229 -0.26568,-2.90518 0.94094,-0.46305 2.96326,-0.19309 4.05828,-0.19309 h 9.92 c 1.5325,0 3.87016,0.58437 4.10643,-1.29729 0.14441,-1.15017 -0.40657,-1.77966 -1.5526,-1.88395 -3.01428,-0.2743 -6.23567,0.10898 -9.27235,-0.0249 -1.23361,-0.0544 -2.32783,-0.83832 -1.72691,-2.13358 0.81143,-1.74899 6.53887,-0.78963 8.12543,-0.79728 1.06361,-0.005 1.73004,-0.26786 2.88,-0.24568 1.21709,0.0235 1.97342,0.28132 3.2,0.29678 1.28529,0.0162 2.03473,-0.11574 3.19383,-0.30419 0.96863,-0.15748 1.47043,-0.41267 1.54,-1.30345 0.16283,-2.08468 -4.00207,-1.53904 -5.37383,-1.59903 -0.80719,-0.0353 -1.42631,-0.20272 -2.24,-0.22443 -1.18381,-0.0316 -1.92529,0.31457 -3.19852,0.21703 -2.02306,-0.15498 -1.81181,-1.14187 -2.24148,-2.86 3.74281,-0.91009 10.57213,-0.32 14.72,-0.32 1.76559,0 3.8974,0.35685 4.8,-1.28 l -0.32,-1.92 h -5.44 c -1.65273,0 -2.36902,0.003 -3.84,0 -1.18305,-0.002 -2.25525,0.19113 -2.87086,-0.74173 -0.47703,-0.72285 -0.35691,-2.04919 0.67826,-2.35654 3.83612,-1.13898 9.68428,-0.10173 13.7126,-0.10173 1.29363,0 4.00914,0.50034 4.28074,-1.29728 0.34117,-2.25811 -2.54236,-1.90272 -3.96074,-1.90272 -2.29229,0 -5.10492,0.33361 -7.34123,-0.0474 -1.69801,-0.2893 -1.37883,-1.79582 -0.97877,-3.1526 2.19496,0.52259 8.52047,0.43876 11.52,0.30741 0.99762,-0.0437 2.09828,-0.569 3.09828,-0.10963 1.16338,0.53441 0.70221,2.97627 0.79604,3.96222 0.0981,1.03056 0.27068,1.76229 0.26296,2.88 -0.005,0.70804 0.0326,1.28063 -0.32617,1.81828 -0.63111,0.94579 -4.85164,0.51115 -5.55802,1.07061 -2.09026,1.65551 0.97064,3.71043 -1.02618,5.48617 -0.82345,0.73229 -2.39031,0.53658 -3.32691,0.5568 -0.76191,0.0165 -1.48744,-0.1354 -2.04691,0.33136 -1.24256,1.03665 0.21722,3.92635 -0.84198,5.2637 -1.08103,1.3649 -5.06922,-0.29567 -5.88271,1.25481 -0.92918,1.77097 0.80941,4.60739 -0.93012,5.46519 -1.24344,0.61317 -4.76873,-0.48061 -5.46519,0.93481 -0.86254,1.7529 0.68304,3.74082 -0.70618,5.10074 -1.69027,1.65463 -3.63964,-0.48708 -5.37382,0.88642 -1.14836,0.90952 0.13548,4.00388 -0.84198,5.23803 -1.07363,1.35555 -3.90894,0.006 -5.32939,0.70617 -1.64195,0.80968 0.0514,4.29097 -1.07037,5.69383 -1.0744,1.34357 -4.43657,-0.21864 -5.42246,1.02617 -0.6392,0.80704 -0.31643,2.17548 -0.33012,3.32691 -0.0196,1.6452 -1.40332,4.21245 0.42295,5.43111 0.8991,0.59997 2.22889,0.32889 3.41828,0.32889 3.09531,0 6.54086,0.12712 9.59975,-0.006 1.14464,-0.0499 2.07767,-0.30793 2.17408,-1.59383 0.12554,-1.6747 -1.58983,-1.59748 -2.81383,-1.6 -2.00525,-0.004 -10.77295,1.26002 -9.8168,-2.19284 0.37864,-1.36731 2.33625,-1.00709 3.4168,-1.00716 h 11.2 c 0.99309,0 3.79449,0.48663 4.19531,-0.74173 1.2276,-3.76214 -7.97261,-2.44484 -9.95531,-2.45851 -1.44051,-0.01 -3.29867,-0.53325 -2.36666,-2.45803 0.59297,-1.22468 3.18285,-0.74181 4.28666,-0.74181 h 10.88 c 1.16996,0 3.10316,0.45185 3.64197,-0.74173 0.47729,-1.0573 -0.26201,-2.21938 -1.41603,-2.41086 -2.71231,-0.45004 -5.86836,-0.0286 -8.62594,-0.0477 -1.27322,-0.009 -2.88166,-0.16408 -2.45211,-1.87383 0.41904,-1.66794 3.26254,-1.00363 4.69211,-1.00593 1.15078,-0.002 2.13896,-0.13728 3.2,-0.13728 2.40293,0 5.08049,0.14163 7.68,0.13728 1.16139,-0.002 2.80301,0.17778 3.32543,-1.03284 0.40353,-0.93514 -0.0117,-1.82757 -0.81283,-2.06543 -2.70897,-0.80432 -6.14657,-0.01 -9.2326,-0.10666 -1.29207,-0.0406 -2.89303,-0.42363 -2.45211,-2.1889 0.42199,-1.68949 3.78234,-1.00617 5.01211,-1.00617 h 9.6 c 1.00795,0 3.02887,0.50329 3.83111,-0.51308 1.10694,-1.4024 -0.25131,-2.6216 -1.59259,-2.68075 -1.59346,-0.0703 -3.2035,-0.006 -4.79852,-0.006 -1.39797,0 -3.43313,0.29001 -4.7526,-0.10172 -1.01627,-0.30172 -1.43439,-1.62754 -0.67851,-2.58519 0.6306,-0.79893 2.18105,-0.51302 3.19111,-0.51309 h 8.32 c 0.93131,0 2.5433,-0.29174 3.32691,0.32889 1.46702,1.16191 1.15616,8.63613 -0.78568,9.16939 -1.4299,0.39267 -3.53553,-0.54276 -4.45234,0.61481 -1.51108,1.90788 1.39339,4.65478 -1.33629,5.46519 -1.07039,0.31778 -4.34043,-0.29841 -5.06371,0.61481 -1.34883,1.70302 0.92933,4.15512 -0.84198,5.55802 -0.92728,0.73443 -4.76466,-0.15971 -5.55802,0.84198 -1.47953,1.86806 0.83666,3.61361 -0.88643,5.37383 -0.95004,0.97052 -4.74973,0.0617 -5.51357,1.02617 -1.42383,1.79772 0.66779,3.86406 -0.84198,5.37382 -1.71171,1.71171 -4.12418,-0.7842 -5.55802,1.02618 -0.78987,0.99729 0.20984,3.93002 -0.65778,5.06172 -1.34119,1.74944 -4.12424,-0.4046 -5.55802,1.01852 -1.1292,1.12081 -0.0601,3.49657 -0.30741,4.5879 -0.54482,2.40386 -3.84318,0.65497 -5.54396,1.49186 -1.08131,0.53207 -0.74164,2.28298 -0.74172,3.32691 -1e-4,1.42963 -0.57766,4.42232 0.32889,5.56691 0.71054,0.89714 2.80752,0.51309 3.83111,0.51309 2.95844,0 6.01117,0.054 8.96,-0.001 1.29418,-0.0243 2.61697,-0.29335 2.49383,-1.90123 -0.18008,-2.35132 -8.00387,-1.29347 -9.85383,-1.29728 -1.48371,-0.003 -3.34791,-0.13041 -2.7768,-2.19284 0.42676,-1.5411 3.17367,-1.00716 4.3768,-1.00716 h 11.2 c 1.13953,-7e-5 3.07383,0.35873 3.41211,-1.00716 0.31951,-1.29011 -0.58887,-2.06541 -1.81359,-2.17408 -3.03752,-0.26951 -6.23575,0.23881 -9.27235,-0.0375 -1.10529,-0.10058 -1.78721,-0.703 -1.49828,-1.8553 0.40773,-1.6261 3.41553,-1.33783 4.69211,-1.3247 1.28539,0.0132 2.03674,0.24881 3.2,0.27753 1.09742,0.0271 1.74654,-0.27008 2.88,-0.21185 1.341,0.0689 2.00033,0.26275 3.52,0.2521 1.36986,-0.01 3.9699,0.2402 4.5484,-1.31802 0.61451,-1.65526 -0.99063,-2.17463 -2.30865,-2.19951 -2.83034,-0.0534 -5.9075,0.36511 -8.63358,0.11704 -1.03607,-0.0943 -1.78496,-0.84932 -1.49828,-1.99259 0.39527,-1.57637 2.6166,-1.00593 4.05211,-1.00593 3.73318,0 7.46686,0.002 11.2,0 1.32775,-6e-4 2.85781,0.28915 3.45531,-1.00716 1.44557,-3.13623 -5.93217,-2.19284 -7.29531,-2.19284 -1.21928,0 -2.03025,0.0849 -3.19852,-0.0188 -1.20054,-0.10653 -2.12386,-0.92125 -1.81359,-2.17408 0.40682,-1.6426 2.94742,-1.00716 4.37211,-1.00716 h 10.24 c 1.0066,0 3.11863,0.38957 3.83111,-0.51309 1.10694,-1.40239 -0.25133,-2.62158 -1.59259,-2.68073 -1.59344,-0.0707 -3.20352,-0.007 -4.79852,-0.007 -1.42545,0 -3.71361,0.43216 -5.02297,-0.19309 -0.95744,-0.45719 -1.15832,-2.0475 -0.27357,-2.67802 2.15029,-1.53241 8.75138,-0.32889 11.37654,-0.32889 0.93133,0 2.54328,-0.29175 3.32691,0.32889 1.35858,1.07601 1.07063,8.39475 -0.49431,9.07802 -1.31848,0.57567 -3.73916,-0.56216 -4.74371,0.70618 -0.59496,0.75118 -0.30493,2.08929 -0.33383,3.00691 -0.033,1.04685 -0.076,2.11534 -1.30987,2.49531 -1.64699,0.50719 -4.42005,-0.82566 -4.98347,1.0721 -0.55817,1.88007 0.74012,4.26229 -0.84344,5.29086 -0.64043,0.41599 -1.3409,0.41066 -2.13828,0.41234 -0.98061,0.002 -2.47748,-0.65889 -3.19111,0.20717 -1.356,1.64564 0.71894,3.72917 -0.88643,5.36913 -1.31377,1.34207 -3.84404,0.0878 -5.10074,0.70618 -1.49033,0.73334 -0.0537,4.92671 -1.25481,5.87802 -1.44771,1.1466 -3.92529,-0.48949 -5.37382,0.65778 -1.14836,0.90951 0.13548,4.00386 -0.84198,5.23802 -1.10711,1.39784 -3.89271,-0.12135 -5.29234,0.84198 -1.76615,1.21559 0.0564,4.08825 -1.10766,5.55802 -1.18244,1.49295 -4.14142,-0.27999 -5.55802,0.84198 -1.12313,0.88954 -0.82879,7.09838 -0.32,8.26371 0.46705,1.06971 1.47023,0.99878 2.68691,1.00715 1.68055,0.0116 2.63207,2.5e-4 4.48,2.5e-4 h 4.8 c 1.24215,0 3.32482,0.48055 3.7368,-1.00716 0.56994,-2.05819 -1.29217,-2.18978 -2.7768,-2.19284 -2.10289,-0.004 -10.25313,1.17699 -9.86643,-1.90272 0.23282,-1.85416 3.08625,-1.29728 4.42643,-1.29728 h 11.2 c 1.24863,-8e-5 3.05768,0.42396 3.41211,-1.00716 0.30484,-1.23087 -0.56566,-2.06335 -1.81359,-2.17407 -2.725,-0.24179 -5.58024,-1.4e-4 -8.31852,-0.019 -1.16684,-0.008 -2.61357,-0.0283 -2.49383,-1.59185 0.2099,-2.74072 9.10113,-1.68432 11.13383,-1.5953 1.31037,0.0574 2.1392,0.30422 3.52,0.30271 1.27994,-10e-4 3.67949,0.28191 4.28543,-1.05235 0.80012,-1.7618 -0.99828,-2.43575 -2.36543,-2.46148 -1.85367,-0.0349 -10.38518,1.09499 -10.17383,-1.58888 0.14014,-1.77965 2.66412,-1.24526 3.77383,-1.32124 1.01709,-0.0696 1.79443,-0.28561 2.88,-0.26272 2.42588,0.0512 4.19771,0.29136 6.72,0.29136 1.50725,0 4.32162,0.93913 5.43086,-0.74173 0.94326,-1.42935 -0.17772,-2.38972 -1.59234,-2.4521 -1.42573,-0.0629 -2.21764,-0.006 -3.51852,-0.006 -2.46957,0 -4.31572,0.50299 -6.3526,-0.10173 -0.88517,-0.26279 -1.15957,-1.16894 -0.9042,-2.09111 0.45571,-1.64562 3.31955,-1.00716 4.6968,-1.00716 h 9.6 c 1.06475,0 3.07727,0.37613 3.96691,-0.32889 1.28024,-1.01457 0.21471,-2.73334 -1.09308,-2.85234 -3.13721,-0.28549 -6.46928,0.46297 -9.57506,-0.0662 -1.1633,-0.19821 -1.74318,-1.6598 -0.96988,-2.63951 0.67627,-0.85677 2.55892,-0.51309 3.51111,-0.51309 h 8 c 0.93127,0 2.5433,-0.29174 3.32691,0.32889 1.04813,0.83012 1.04811,8.11211 0,8.94222 -1.28923,1.0211 -4.28543,0.17551 -5.88691,0.64889 0.43269,1.81746 1.50258,4.62004 -0.42172,5.56691 -1.1907,0.5859 -4.35184,-0.52808 -5.32939,0.70617 -1.12196,1.41659 0.65097,4.37559 -0.84198,5.55803 -1.48052,1.17259 -4.64523,-0.71454 -5.87802,0.84197 -1.05735,1.33501 0.20757,3.66254 -0.52198,5.14519 -0.52384,1.06458 -8.49646,0.29801 -5.37382,3.42864 0.77896,0.78095 2.32261,0.51302 3.32691,0.51309 0.90105,6e-5 1.60855,0 2.56,0 h 5.12 8 c 1.34697,0 5.18631,0.69187 5.6568,-1.00716 0.57111,-2.06243 -1.29309,-2.18978 -2.7768,-2.19284 -3.60625,-0.007 -7.27926,0.15256 -10.87852,-0.006 -1.41226,-0.0623 -2.46328,-0.9339 -1.72814,-2.4521 0.51486,-1.06329 2.59238,-0.74173 3.64666,-0.74173 h 8.32 c 0.89557,-6e-5 2.55393,0.29418 3.19111,-0.51309 0.77328,-0.97968 0.19342,-2.44131 -0.96988,-2.63951 -1.67402,-0.2852 -8.1249,1.03016 -7.91506,-1.6348 0.0882,-1.1201 0.90797,-1.24465 1.85531,-1.28643 1.66774,-0.0735 5.36918,0.49754 6.6168,-0.33506 0.73131,-0.48804 1.06555,-1.84987 0.41283,-2.67803 -0.67603,-0.85773 -2.16299,-0.16488 -2.67654,-1.25457 -1.0824,-2.29668 1.95607,-2.13842 3.32543,-2.13851 1.59672,-1e-4 5.39059,-0.74326 6.10789,1.00593 0.83145,2.02752 -5.38943,2.52074 -2.7148,4.74987 1.47419,1.22865 4.16572,0.64 6.20691,0.6442 1.27019,0.003 2.69529,-0.21272 2.81383,1.2926 0.2032,2.58051 -5.9616,1.45786 -7.60889,1.60617 -1.32422,0.11922 -2.11367,1.18825 -1.43557,2.4395 0.88633,1.63547 5.58059,0.71302 7.19063,0.74987 1.67102,0.0383 3.09068,0.27881 4.8,0.30816 1.43549,0.0246 3.60951,-0.38602 3.45383,1.5911 -0.13047,1.65689 -2.2819,1.29252 -3.45383,1.2926 -3.30643,2.1e-4 -6.61365,-0.0225 -9.92,2.4e-4 -1.44209,0.01 -2.97602,0.31759 -2.4568,2.1926 0.46106,1.66499 4.02442,1.00716 5.3368,1.00716 4.90965,0 9.82295,0.016 14.72,2.4e-4 1.21166,-0.004 4.27059,0.55155 5.11111,-0.51333 2.73928,-3.47046 -5.25662,-2.16577 -5.87802,-3.42864 -0.69893,-1.42042 0.64867,-4.25634 -0.70618,-5.32938 -1.41658,-1.12196 -4.37558,0.65097 -5.55802,-0.84198 -0.87012,-1.09861 0.19005,-4.40242 -0.84198,-5.23925 -1.3108,-1.06289 -4.39898,0.30266 -5.55802,-1.16075 -1.06797,-1.34841 0.41019,-3.7054 -0.65778,-5.05383 -1.93482,-2.44291 -5.83168,1.55247 -6.05851,-3.39308 -0.0626,-1.36467 -0.66723,-5.46627 0.50049,-6.39111 0.78361,-0.62063 2.3956,-0.32889 3.32691,-0.32889 h 8.96 c 1.14408,5.2e-4 2.73066,-0.31501 3.0968,1.00716 0.34332,1.23978 -0.28789,2.0635 -1.50297,2.17407 -3.59262,0.32693 -7.70641,-0.69207 -11.19383,0.33877 0.40141,1.34091 -0.0143,2.55435 1.61877,2.8326 1.60463,0.27338 2.64691,0.0474 4.14123,0.0474 h 5.12 2.88 c 0.98754,0 4.86228,-0.70639 5.3368,1.00716 0.49009,1.76981 -0.85493,2.16712 -2.13705,2.19135 -0.92616,0.0175 -1.60893,0.001 -2.55975,0.001 -1.7775,0 -8.79125,-1.03719 -7.8968,2.19284 0.45364,1.63819 2.85231,1.00716 4.3768,1.00716 h 5.76 4.48 c 1.09238,0 3.70789,-0.48386 4.28543,0.74148 0.95014,2.01586 -1.46619,2.09519 -2.68543,2.15112 -2.38004,0.10916 -3.7327,0.30722 -6.4,0.3074 -1.29604,8e-5 -3.61424,-0.50235 -3.45383,1.5921 0.17014,2.22159 2.99012,1.6079 4.73383,1.6079 4.05986,0 8.3785,-0.0236 11.84,2.4e-4 0.91533,0.006 1.92951,-0.18364 2.36543,0.74124 1.4759,3.13133 -6.15178,2.07583 -7.48543,2.16716 -1.00219,0.0686 -1.7815,0.29662 -2.87852,0.27383 -0.82734,-0.0172 -1.37767,-0.173 -1.92148,-0.30247 -0.8984,3.04692 1.01844,3.45402 3.52,3.51531 2.36859,0.058 5.63139,0.058 8,0 1.60973,-0.0394 5.70199,-1.39109 7.03086,0.48913 1.27724,1.80721 -0.92606,2.38632 -2.23086,2.39531 -2.87279,0.0198 -6.10949,-0.4348 -8.94123,0.0477 -1.12613,0.19188 -1.60684,1.37537 -1.10543,2.41087 0.52023,1.07437 2.3607,0.74167 3.32666,0.74173 h 8.64 c 0.93102,0 2.54373,0.2914 3.32691,-0.32889 1.27006,-1.0059 0.53657,-4.62009 0.51186,-6.39111 -0.0134,-0.95937 0.0878,-1.72242 -0.55631,-2.35901 -0.85922,-0.84921 -4.6041,0.11482 -5.51357,-1.03408 -0.98379,-1.24277 0.39398,-4.22505 -0.84198,-5.24247 -2.00886,-1.65366 -3.95111,1.07613 -5.55802,-1.13234 -0.94977,-1.30531 0.3631,-3.79005 -0.65778,-5.07902 -1.17217,-1.47998 -4.16388,0.26221 -5.55802,-0.84197 -1.50657,-1.19322 0.30673,-4.10766 -0.84198,-5.55802 -1.16664,-1.473 -4.1534,0.2705 -5.55802,-0.84198 -1.16549,-0.92308 -0.27122,-4.44542 -0.70618,-5.32938 -0.88254,-1.79355 -4.19781,0.11425 -5.69382,-1.07062 -1.39956,-1.10846 0.12095,-3.89328 -0.84198,-5.29235 -1.19929,-1.74249 -4.10115,0.0462 -5.55802,-1.10765 -1.33899,-1.06049 0.16142,-4.48162 -1.02618,-5.42222 -1.14466,-0.90659 -4.09281,0.35681 -5.37382,-0.65778 -1.02151,-0.80905 -1.01555,-7.70835 -0.1842,-8.75802 0.67826,-0.85637 2.5574,-0.51309 3.51111,-0.51309 3.43213,0 7.15107,-0.29089 10.55383,0.0188 1.03547,0.0942 1.56865,0.53756 1.56865,1.58123 0,0.87719 -0.33309,1.39446 -1.26125,1.5526 -2.78404,0.47433 -6.104,0.0281 -8.94123,0.0477 -1.43068,0.01 -3.05479,0.54255 -2.36543,2.19259 0.55365,1.32521 1.94148,1.00654 3.32543,1.00716 3.73318,0.002 7.4668,0 11.2,0 1.28971,0 3.99324,-0.52259 4.37211,1.00716 0.84756,3.42222 -7.99918,2.17838 -10.13211,2.19308 -1.41172,0.01 -3.35299,0.42108 -2.36666,2.45803 0.57437,1.1862 2.47137,0.74173 3.64666,0.74173 h 11.52 c 1.11025,0 3.10453,-0.40669 3.64543,0.74148 0.75685,1.60661 -0.97674,2.37012 -2.04568,2.33704 -3.02186,-0.0935 -6.10557,-0.68872 -9.26098,-0.15111 -1.17717,0.20056 -1.54877,1.44001 -1.10543,2.4395 0.51516,1.1614 1.75496,1.0399 3.00666,1.03161 2.07336,-0.0137 3.46398,-0.3446 5.76,-0.31729 1.99299,0.0237 3.32244,0.31863 5.44,0.31877 1.2643,8e-5 4.00441,-0.53365 4.60543,0.74148 0.77773,1.65007 -0.94332,2.12847 -2.36543,2.13828 -2.03104,0.014 -11.09775,-1.27709 -10.1368,2.19308 0.42676,1.54109 3.17364,1.00716 4.3768,1.00716 h 10.56 c 1.00666,0 3.11861,-0.38959 3.83111,0.51309 1.45616,1.84484 -0.85676,2.67718 -2.23111,2.68667 l -4.48,2.4e-4 c -1.40934,0 -3.73016,-0.4408 -5.01828,0.19309 -0.97744,0.48099 -0.9774,2.33284 0,2.81382 2.67492,1.31635 8.43508,0.19309 11.41828,0.19309 0.9523,0 2.83471,0.34094 3.51111,-0.51309 0.71004,-0.8965 0.32889,-2.34529 0.32889,-3.32691 0,-1.73942 0.39637,-3.43879 -0.42172,-4.69827 -0.54777,-0.84332 -1.46144,-0.7239 -2.45828,-0.74272 -1.12795,-0.0213 -2.49889,0.11512 -3.19111,-0.8195 -0.95055,-1.28342 0.47377,-4.54006 -1.07061,-5.57062 -1.41875,-0.94672 -4.21443,0.56576 -5.32939,-0.84198 -0.92233,-1.16453 0.26713,-4.3596 -0.84198,-5.23802 -1.873,-1.48345 -4.09588,1.12053 -5.55802,-1.07062 -1.09129,-1.6354 0.81062,-3.29119 -0.65778,-5.14518 -0.82347,-1.03973 -4.91875,0.0136 -5.74222,-1.02617 -1.22629,-1.54831 0.7547,-4.29343 -0.84198,-5.55802 -1.08039,-0.85569 -4.16345,0.30084 -5.37382,-0.65779 -1.49295,-1.18244 0.27998,-4.14143 -0.84198,-5.55802 -0.96881,-1.22323 -3.72445,-0.21721 -5.06371,-0.61481 -2.06023,-0.61166 -0.31578,-4.1767 -1.33629,-5.46519 -1.17627,-1.48517 -3.44457,0.0524 -5.01408,-0.93481 -1.39775,-0.87916 -1.89455,-7.77968 -0.54394,-8.84939 0.78363,-0.62065 2.39556,-0.32889 3.32691,-0.32889 h 8.32 c 0.93105,0 2.54361,-0.29186 3.32691,0.32889 3.48803,2.7642 -4.29943,2.87111 -5.24691,2.87111 -1.59096,0 -3.21045,-0.0639 -4.79852,0.006 -1.42468,0.0628 -2.6524,1.33806 -1.59259,2.68075 0.73873,0.93592 2.70964,0.51308 3.83111,0.51308 h 10.56 c 1.51025,0 3.6101,-0.60593 4.0568,1.00716 0.44541,1.60844 -0.59912,2.1329 -1.81828,2.18667 -2.33067,0.10279 -6.60958,-0.18335 -8.95704,0.0249 -1.09293,0.097 -2.25474,0.80348 -1.72222,2.17408 0.52047,1.3396 1.96086,1.00655 3.32074,1.00716 3.62656,0.002 7.25344,0 10.88,0 1.22441,0 4.29689,-0.56718 4.69211,1.00592 0.38685,1.5398 -0.78672,1.84716 -2.13236,1.8726 -2.05629,0.0389 -11.42442,-1.30089 -10.45655,2.19432 0.41756,1.50788 2.95108,0.95625 4.0568,1.06148 3.64164,0.34655 6.8917,0.27054 10.88,0.26568 1.15129,-0.001 3.41018,-0.47507 3.96543,0.73357 0.87142,1.8969 -1.28379,2.14354 -2.68543,2.14643 -2.05539,0.004 -10.74176,-1.14738 -9.8168,2.19284 0.39604,1.43019 2.59994,1.00716 3.7368,1.00716 h 10.88 c 1.20877,0 3.96707,-0.47246 4.3768,1.00715 0.95683,3.45536 -7.68911,2.18847 -9.8168,2.19285 -1.09758,0.002 -2.70141,-0.1705 -2.81383,1.29729 -0.16877,2.20372 2.12799,1.90261 3.77383,1.90271 2.56473,1.6e-4 4.53219,0 7.36,0 1.33387,0 2.97344,0.48038 3.96691,-0.51309 1.25528,-1.25526 0.81823,-5.32663 0.74864,-6.84667 -0.0302,-0.65896 -0.15307,-1.47952 -0.73606,-1.91135 -1.35217,-1.00158 -4.144,0.55523 -5.2506,-0.84198 -1.14897,-1.45069 0.72263,-4.79488 -1.33629,-5.69383 -1.36215,-0.59472 -4.05151,0.57184 -5.06371,-0.70617 -0.92348,-1.16599 0.3057,-4.32905 -0.84198,-5.23802 -1.89242,-1.49882 -4.07041,1.15869 -5.55802,-1.07062 -0.72317,-1.08374 0.24802,-4.00151 -0.65778,-5.14519 -1.24441,-1.5712 -4.49773,0.54513 -5.74222,-1.02617 -0.93403,-1.17929 0.0741,-3.9339 -0.52198,-5.14519 -1.15089,-2.3389 -3.96373,0.75815 -5.55802,-1.25481 -0.96844,-1.22274 0.37816,-3.74586 -0.65778,-5.05383 -0.64642,-0.81617 -2.25998,-0.49298 -3.19111,-0.51777 -0.78936,-0.021 -1.75936,-0.0171 -2.36691,-0.58988 -2.01645,-1.90103 1.40892,-4.30162 -1.25481,-5.61235 -1.1156,-0.54895 -4.76443,0.501 -5.6368,-0.70617 -0.60953,-0.84347 -0.0344,-2.34597 -0.0227,-3.32691 0.0175,-1.47408 -0.46197,-3.62824 -0.0713,-4.69827 0.51227,-1.40322 3.09705,-0.72574 4.55258,-0.74296 1.65035,-0.0195 3.05821,-0.12974 4.32,0.0842 3.6249,0.21359 7.66678,-1.42397 6.7768,1.78991 -0.33438,1.20748 -1.79213,1.00513 -2.7768,1.00716 -2.56238,0.005 -5.81242,-0.37663 -8.30123,0.0474 -1.16055,0.19772 -1.88184,1.48414 -0.96988,2.63951 0.8989,1.13884 3.19853,0.51308 4.47111,0.51308 h 2.56 7.68 c 1.52037,0 3.50283,-0.15923 3.84074,1.29729 0.69758,3.00695 -4.99947,1.90271 -7.04074,1.90271 -1.08908,0 -1.81531,-0.007 -2.88,2.5e-4 -1.37359,0.01 -3.47129,0.57839 -2.23086,2.45803 0.78023,1.18232 3.17008,0.73902 4.47086,0.74172 l 13.98425,0.029 c -0.32551,2.26382 -1.7888,2.99352 -3.10425,3.00655 -1.02826,0.0102 -1.78617,-0.188 -2.88,-0.12568 -1.18434,0.0675 -1.90432,0.28707 -3.2,0.28765 -0.83668,3.8e-4 -2.02313,-0.35846 -2.68691,0.0657 -0.98317,0.62821 -0.52651,1.47264 -0.83309,2.49679 4.43775,1.31174 10.41119,0.32 15.04,0.32 1.49951,0 5.29721,-0.2896 3.96666,2.45827 -0.65924,1.36146 -4.35203,0.74173 -5.56666,0.74173 -1.3108,0 -2.07859,-6.5e-4 -3.52,0 -1.48807,6.7e-4 -3.88773,-0.0238 -3.17828,2.19284 0.49137,1.53528 3.22539,1.00716 4.45828,1.00716 h 9.6 c 1.16855,0 2.9843,-0.33543 4.05828,0.19308 0.97742,0.481 0.97742,2.33284 0,2.81383 -1.49898,0.73766 -4.33062,0.19309 -5.97828,0.19309 -1.99645,0 -4.38436,-0.77051 -6.4683,0.43818 -1.96133,1.99413 2.2975,2.76182 3.9083,2.76182 h 8.64 c 0.92383,0 2.55353,0.28364 3.32691,-0.32889 0.71795,-0.56863 0.53279,-1.7758 0.50049,-2.55111 -0.0351,-0.84245 -0.20223,-1.40802 -0.22443,-2.24 -0.0252,-0.94411 0.27198,-1.62365 0.20568,-2.55852 -0.0983,-1.38659 -0.90577,-2.33841 -2.04865,-2.08149 -0.91623,0.32938 -3.52639,0.63859 -4.12691,-0.58174 -0.64418,-1.30906 0.38955,-4.14155 -0.70618,-5.00938 -1.92521,-1.5248 -3.95945,0.9394 -5.55802,-1.15729 -1.00666,-1.32033 0.37285,-3.75723 -0.65778,-5.05851 -1.02621,-1.2957 -3.78726,-0.0269 -5.00939,-0.84197 -1.65746,-1.10546 -0.24897,-4.1177 -1.39061,-5.55803 -0.96812,-1.22144 -6.6877,-0.3331 -6.23111,-1.47309 l 0.37675,-1.44002 c 0.22861,-0.75763 4.10387,-0.87847 6.18325,-0.78741 2.77791,0.12165 4.59977,0.32201 7.68,0.30716 1.92957,-0.009 3.10469,-0.36943 5.12,-0.3084 1.5457,0.0468 3.98738,-0.32671 5.3926,0.0904 1.03629,0.30759 1.49146,1.55525 0.67851,2.58519 -0.98783,1.25151 -5.88636,0.51308 -7.35111,0.51308 -2.29838,0 -3.39469,-0.004 -5.44,0 -1.45477,0.003 -3.34955,0.1245 -2.7768,2.19284 0.39672,1.4326 2.61326,1.00716 3.7368,1.00716 2.87853,0 5.76201,-1.8e-4 8.64,0 0.95012,6e-5 2.60535,-0.23596 3.19086,0.51309 0.61435,0.78594 0.26877,2.08031 -0.67826,2.49383 -1.6261,0.71002 -4.9725,0.12434 -6.67112,0.19925 -1.05007,0.0463 -2.16691,0.37357 -1.81359,1.89655 0.25094,1.08165 1.08678,1.24555 2.13236,1.29111 2.19868,0.0958 5.30448,-0.89022 6.84666,0.33506 1.21151,0.96255 0.12959,2.47513 -0.7842,2.77556 -0.83746,0.27534 -2.79347,0.90582 -1.57357,2.46247 1.21188,1.5464 7.45195,0.59038 8.95086,0.83308"
       id="path1" /></g></svg>
