<svg xmlns="http://www.w3.org/2000/svg" viewBox="0 0 306.239 60.716"><path d="M0 59.638c.977 0 2.299.097 3.194-.047.616-.1 1.122-.297 1.504-.96.498-.865.417-1.766.422-2.833.015-3.132 0-6.45 0-9.6v-9.6c0-3.67-.043-8.405.001-12.16.021-1.766.277-2.308.314-3.84.039-1.572.005-3.798.005-5.44 0-1.09-.002-2.47 0-3.52.001-.782-.006-1.413.091-2.24.099-.832.205-1.45.224-2.24.026-1.037.004-2.441.005-3.52 0-1.429-.38-2.744 1.006-3.092C8.916.006 8.64 3.734 8.64 4.918v3.84c0 3.606.04 7.983-.001 11.52-.02 1.655-.296 2.325-.318 4.16-.03 2.558 0 3.833 0 6.4 0 1.546-.06 3.639.005 5.119.052 1.17.513 2.431 2.187 1.888 1.05-.34.988-1.26 1.006-2.207.032-1.701.001-3.709.001-5.44v-10.56c0-2.075-.118-6.815.029-8.96.08-1.176.259-1.76.286-2.88.043-1.754-.763-6.445 1.012-6.937.627-.173 1.478-.077 1.864.41.453.571.34 1.2.324 2.047-.026 1.503-.292 2.057-.314 3.84-.015 1.276 0 1.916 0 3.2v19.52c0 1.633.014 3.515-.002 5.12-.008.807-.196 1.46.01 2.193.23.82 1.146 1.31 2.13.677 1.615-1.041.74-6.538.741-8.63.001-2.356.31-3.35.32-5.44.019-3.96 0-9.536 0-13.44v-3.52c0-1.25-.215-3.627.102-4.781.235-.858.816-1.308 1.8-1.233 2.26.174 1.298 6.872 1.298 8.574 0 2.736.03 5.955-.001 8.64-.018 1.506-.274 2.186-.314 3.84-.034 1.368-.005 1.977-.005 3.2v5.76c0 1.67-.769 7.515 1.6 7.268 2.174-.226 1.6-4.853 1.6-6.948v-13.44c0-2.305-.091-5.95.013-8.32.06-1.37.272-1.957.303-3.2.035-1.452-.697-6.776 2.462-5.247 1.115.54.764 2.58.738 3.647-.02.79-.126 1.408-.224 2.24-.169 1.425-.092 2.985-.092 4.8 0 2.467.053 5.968-.005 8.32-.037 1.532-.293 2.074-.314 3.84-.054 4.538 0 10.287 0 14.72v5.12c0 3.024.015 6.64-.001 9.6-.006 1.13.196 2.453-1.033 3.007-2.158.973-7.691.193-10.487.193-1.046 0-2.791.349-3.647-.329-1.098-.87-.513-4.723-.513-6.071 0-1.313-.402-4.707.513-5.431 1.305-1.033 5.025-.403 6.846-.323 2.198.097 2.49 2.332 1.82 4.775-1.209 4.4-3.052-3.158-5.466-1.252-.99.78-.672 4.566 0 5.238 1.13 1.13 6.29.961 7.76.32 1.157-.505 1.005-1.937 1.007-3.007.005-2.218.04-4.862-.002-7.04-.018-.97.04-1.663-.74-2.047-.723-.356-2.227-.193-3.098-.193-2.703 0-8.105-.613-10.513.102-.807.24-.92.754-.988 1.504-.225 2.466-.17 3.697-.31 5.754-.144 2.103-.03 5.905-.029 8 0 .971-.241 2.523.742 3.007 1.16.57 3.36.193 4.698.193h11.2c1.29 0 3.99.458 4.791-.742 1.114-1.67.329-3.035.329-4.698 0-1.4-.07-4.318.029-5.76.087-1.276.274-1.905.29-3.2.066-5.555.001-13.564.001-19.2v-4.48c0-1.246-.059-2.974.054-4.16.146-1.534.265-2.05.266-3.84v-7.04c0-1.655-.293-2.46.047-4.461C30.762.21 32.464.758 34.24.758H46.4c1.46 0 3.707-.452 5.018.193.923.454.74 1.81.742 2.687.005 2.62.03 5.749-.001 8.32-.016 1.344-.243 2.09-.306 3.52-.048 1.08.285 2.196-.526 3.007-1.45 1.45-4.134.474-5.567.537-2.273.1-3.23.2-5.12.283-1.188.052-2.5.297-3.418-.316-.772-.515-.725-1.431-.74-2.231-.038-2.01-.003-4.69-.002-6.72 0-.85-.16-2.07.329-2.687.881-1.113 3.222-.513 4.791-.513 1.456 0 3.355-.478 4.15.742.466.716.148 2.031.063 2.778-.126 1.105-.261 2.77-1.927 2.44-2.102-.417-.08-3.382-2.909-3.026-1.174.147-1.25.963-1.29 1.867-.049 1.09-.296 2.758.186 3.737.608 1.236 7.132 1.223 8.345.413 1.616-1.078.743-6.774.742-8.631 0-.883.174-2.327-.513-2.871-1.77-1.401-6.852-.283-9.407-.333-1.357-.027-3.372-.517-4.698-.002-1.128.439-.72 2.13-.747 3.206-.025 1.013-.166 1.566-.26 2.56-.179 1.87-.055 4.743-.055 6.72v7.04c0 6.12.002 12.726 0 18.88 0 2.423-.32 3.767-.32 6.4v4.8c0 1.095-.002 1.686 0 2.88.002 1.042-.226 2.542 1.007 2.993 3.04 1.11 2.193-5.026 2.193-6.833v-5.12c0-1.82-.01-2.363 0-4.48.01-1.951.274-2.478.315-4.16.056-2.265.005-5.624.005-8 0-1.851-.964-8.396 1.293-8.574.939-.074 1.391.362 1.54 1.233.32 1.884.047 4.744.047 6.701v3.84c0 5.735.002 12.71 0 18.56 0 1.895-.833 4.415-.127 6.033.336.77 1.176 1.128 2 .808 1.882-.731 1.007-6.102 1.007-7.801v-4.16c0-2.795.29-3.688.319-6.08.038-3.177.001-7.002.001-10.24 0-1.833-.94-8.625 1.297-8.906 2.883-.362 1.903 4.851 1.903 6.666 0 7.587-.32 15.128-.32 22.72 0 1.841-.806 8.553 1.903 7.855 1.336-.344 1.274-1.285 1.296-2.415.034-1.807.001-3.923.001-5.76v-21.44c0-2.043-.999-7.021 1.007-7.577.655-.181 1.634-.106 2 .639.74 1.503.193 4.299.193 5.978 0 7.692-.127 15.37-.315 23.04-.046 1.86-.935 8.078 1.898 7.56 1.898-.348 1.297-3.598 1.297-5v-3.52c0-1.328-.03-3.406.005-4.8.042-1.728.307-2.485.315-4.16.03-6.154 0-12.69 0-18.88v-11.84c0-1.182-.037-1.756.013-2.88.053-1.21.252-1.92.294-2.88.056-1.267-.402-4.762 1.613-4.762 2.169 0 1.28 4.608 1.28 6.682v22.4c0 1.588-.79 7.844 1.006 8.2 2.82.558 1.874-6.443 1.874-7.88 0-2.997-.285-7.315.054-10.88.106-1.106.25-1.682.265-2.88.03-2.587.001-5.684.001-8.32v-4.16c0-.79-.126-1.424.102-2.193.246-.828.963-1.059 1.8-.953 2.288.287 1.3 7.103 1.298 8.906-.003 1.656-.188 2.332-.291 3.84-.102 1.49-.029 2.346-.029 3.84v13.76c0 1.404-.748 6.188.741 6.84 1.005.44 1.797-.277 2.129-1.099.316-.782.305-1.405.325-2.221.026-1.047.005-2.431.005-3.52V7.798c0-1.826-.623-7.64 2.194-6.932 1.848.464 1.006 6.904 1.006 8.532 0 2.201-.16 2.879-.291 4.8-.3 4.385-.029 11.21-.029 15.68v3.52c0 1.424-.556 4.375 1.297 4.663 2.78.432 1.903-4.706 1.903-6.583v-17.28c0-1.815-.077-3.375.091-4.8.088-.743.188-1.282.216-1.92.071-1.614-.88-8.15 2.471-6.527.584.283.684.817.71 1.413.08 1.766-.288 2.708-.288 4.794v4.16c0 6.546.003 13.658 0 20.16 0 1.718-.232 2.755-.307 4.48-.064 1.456-.013 2.013-.013 3.2v14.08c0 1.082.256 2.723-1.007 3.098-2.168.644-3.12.102-5.073.102h-4.48c-1.826 0-3.78.764-4.791-.513-.812-1.026-.33-4.528-.329-5.887 0-1.636-.393-4.463.833-5.431 1.195-.944 4.733-.355 6.207-.328.97.019 1.663-.04 2.047.74.863 1.755.48 5.244-1.394 5.244-1.96 0-.711-3.81-3.486-2.765-1.127.425-1 1.515-1.007 2.54-.007 1.186-.224 1.966.329 2.692.737.966 2.313.837 3.511.822 1.29-.016 1.903-.194 3.2-.308 1.087-.095 1.855-.274 2.138-1.305.366-1.332.102-4.296.102-5.741 0-1.15.712-3.82-.513-4.791-1.437-1.138-4.046-.017-5.567-.01-2.538.013-3.262-.211-5.44-.306-1.836-.08-3.508-.382-3.793 1.286-.291 1.712-.006 8.863-.052 10.861-.017.748-.098 1.198-.125 1.92-.024.656.104 3.825.564 4.151 1.066.755 2.856.329 4.366.329h11.52c1.29 0 3.99.458 4.791-.742 1.057-1.583.329-5.368.329-7.258v-8c0-2.357.31-3.349.32-5.44.018-3.812 0-9.035 0-12.8v-4.48c0-3.1.32-4.84.32-8v-8.96c0-.902-.182-2.32.513-2.871.628-.497 1.54-.327 2.367-.329 2.655-.005 5.342 0 8 0h7.68c.809 0 2.022-.198 2.687.329.935.74.513 3.063.513 4.151 0 3.797.159 5.998-.229 9.28-.104.883.074 2.972-.284 3.793-.371.85-1.025.956-2.047 1-2.446.107-10.79.74-12.378-.322-.455-.304-.675-.81-.669-1.592.007-.9.199-1.424.234-2.239.059-1.33-.042-5.004.02-6.398.04-.91.084-1.548 1-1.82 1.16-.344 5.787-.344 6.946 0 1.027.305.985 1.073 1.006 2.138.024 1.279.35 4.48-1.873 4.04-1.378-.274-.705-2.109-1.52-2.751-.657-.519-2.172-.24-2.493.413-.535 1.088-.574 4.301.32 5.01.743.588 2.089.328 3.007.328h2.24c.846 0 1.926.24 2.778-.329 1.658-1.106.746-7.074.742-8.951-.002-.795.178-2.004-.513-2.551-.777-.616-2.373-.329-3.327-.329-2.836 0-8.25-1.051-10.778.193-1.284.632-.736 3.703-.742 4.927-.012 2.362-.32 3.673-.32 6.4v5.44c0 8.49.555 17.722-.029 26.24a132 132 0 0 0-.291 9.28c.002 1.09-.2 2.532 1.007 3 2.924 1.137 2.193-5.516 2.193-6.84 0-2.274-.212-4.245.054-7.04.118-1.236.259-1.805.266-3.2.021-4.487 0-9.248 0-13.76 0-1.358-.051-3.179.006-4.479.047-1.054.203-1.883 1.594-1.883 1.199 0 1.494.604 1.581 1.568.112 1.233.08 3.163-.01 4.474-.523 7.647-.291 15.365-.291 23.04 0 1.534-.86 7.83 1.006 8.2 2.679.53 1.743-3.277 1.928-5.32.1-1.117.064-2.206.091-3.2.028-.987.161-1.501.174-2.56.065-5.536 0-12.272 0-17.92 0-1.768-.966-7.982 1.298-8.266 2.808-.353 1.903 4.816 1.903 6.986 0 2.636.03 5.733-.001 8.32-.018 1.52-.274 2.182-.314 3.84-.039 1.567-.005 2.159-.005 3.52v6.08c0 1.742-1.067 9.807 2.192 8.445 1.87-.78 1.008-6.665 1.008-8.445v-21.44c0-1.757-.229-4.056.047-5.754.159-.973.604-1.469 1.553-1.54 2.399-.18 1.6 5.325 1.6 6.974v11.2c0 3.85-.32 6.88-.32 10.88 0 2.044-.273 4.741.047 6.714.133.814.6 1.56 1.54 1.457 1.505-.165 1.22-1.598 1.322-3.051.083-1.176.259-1.76.286-2.88.052-2.092.005-5.168.005-7.36v-10.56c0-2.277-.027-5.914.001-8.32.024-1.969.316-2.972.32-4.8.003-2.802 0-8.489 0-11.2v-2.56c0-1.248-.058-4.252.09-5.44.105-.833.05-2.155 1.235-2.452 2.944-.738 1.874 7.002 1.874 8.852 0 2.284.049 5.501-.005 7.68-.037 1.532-.293 2.074-.314 3.84-.025 2.134-.001 5.338-.001 7.36v6.08c0 1.782-.102 3.766 1.903 3.4 2.19-.401 1.297-5.887 1.297-7.56v-20.16c0-1.021-.037-1.6.054-2.56.091-.959.24-1.683.261-2.56.027-1.091-.464-4.002 1.01-4.372.879-.22 1.536.1 1.773.9.34 1.142.102 4.514.102 5.712v17.92c0 2.193.047 5.268-.005 7.36-.025 1.013-.173 1.563-.26 2.56-.153 1.72.422 3.02 1.847 2.76 2.459-.45 1.172-5.308 1.326-7.56.088-1.276.275-1.905.29-3.2.07-5.831.001-12.931.001-18.88 0-1.614-.866-6.708.742-7.487 3.188-1.543 2.498 3.752 2.454 5.567-.028 1.12-.206 1.704-.287 2.88-.132 1.935-.029 6.127-.029 8v12.16c0 1.88-1.004 8.596 1.6 8.52 2.37-.07 1.6-4.693 1.6-6.6 0-7.585-.023-15.157.308-22.72.094-2.153-.495-4.94.114-6.993.283-.95 1.297-1.161 2.037-.812 1.168.55.741 1.938.741 3.005v9.6c0 1.162.035 2.763-.012 3.84-.06 1.356-.287 1.86-.306 3.52-.02 1.727-.001 2.494-.001 4.16v20.16c0 2.478.89 9.148-.33 10.687-1.102 1.393-8.972.513-11.19.513-.937 0-2.644.188-3.419-.193-1.888-.93-.741-4.66-.741-6.847 0-1.718-.67-3.855.513-4.791 1.053-.834 2.711-.329 3.967-.329 1.303 0 1.921-.05 3.199.006 1.735.077 1.898.737 1.92 2.234.017 1.235.14 2.133-.458 3.098-.52.842-2.043.97-2.55 0-.439-.84-1.487-3.613-3.062-1.625-.445.562-.324 1.366-.329 2.047-.006 1-.195 1.993.329 2.778.5.75 1.373.724 2.231.74 1.875.036 4.171.462 5.713-.236 1.063-.48 1-1.59 1.007-2.642.014-2.115.014-4.604 0-6.72-.006-.83.104-1.949-.742-2.367-1.612-.797-2.148-.375-3.738-.484-1.265-.087-3.475-.057-4.8-.024-1.175.029-2.108.299-3.2.274-.879-.02-1.897-.52-2.687.239-.866.832-.513 2.872-.513 3.962v10.24c0 1.363-.267 2.838.742 3.511 1.053.703 2.866.329 4.378.329h11.52c1.29 0 3.99.458 4.791-.742.795-1.191.329-3.612.329-5.018 0-2.492-.067-3.493.005-6.4.042-1.728.307-2.485.315-4.16.023-4.695 0-9.678 0-14.4v-13.12c0-2.938.308-4.206.32-6.72.01-2.064-.865-6.299.33-7.807.703-.889 3.842-.513 5.11-.513h11.84c1.465 0 2.92-.506 3.967.329 1.18.942.193 6.323.193 7.991v6.08c0 1.104.275 2.513-.329 3.418-.659.988-2.112.742-3.191.742h-8c-.976 0-2.527.305-3.327-.329-.684-.542-.511-1.772-.513-2.551-.004-2.07-.666-7.191.193-8.817.722-1.366 7.247-1.505 8.574-.454 1.285 1.018 1.013 5.286-.494 5.872-1.667.647-1.866-.79-2.289-1.994-.384-1.094-2.008-1.449-2.59-.265-.619 1.255-.6 3.884.135 4.85.499.657 1.509.505 2.231.496 1.58-.02 5.445.668 6.391-.75 1.207-1.808.333-6.374.329-8.538-.002-.876.181-2.233-.742-2.687-.949-.467-2.366-.193-3.418-.193-2.547 0-9.076-.807-10.778.329-1.67 1.114-.742 2.904-.742 4.471v5.44c0 8.076.039 16.61 0 24.64-.007 1.451-.197 2.139-.291 3.52-.113 1.643-.029 2.927-.029 4.8v9.28c0 .92-.27 2.532.742 3.005 3.396 1.591 2.458-6.165 2.458-7.805v-24.32c0-.934-.164-3.216.102-4.113.207-.697.69-.97 1.498-.97.704 0 1.16.204 1.407.705.38.774.193 3.157.193 4.058v24.32c0 1.522-.95 9.234 1.874 8.12 1.787-.703 1.006-5.547 1.006-7.16 0-7.367.32-14.702.32-22.08 0-1.732-.03-4.104.001-5.76.02-1.023-.046-2.018 1.296-2.186 2.177-.274 1.944 1.582 1.898 3.466-.028 1.122-.206 1.704-.287 2.88-.128 1.864-.028 5.875-.028 7.68v14.72c0 2.033-.037 4.403 0 6.4.02 1.07.022 2.414 1.586 2.12 1.486-.28 1.293-2.476 1.293-3.72 0-.972-.038-1.782.091-2.88.117-.989.215-1.474.228-2.56.075-6.323 0-14.03 0-20.48 0-1.55-.01-3.635.001-5.12.007-.952-.208-2.12 1.007-2.457 1.71-.474 2.133.604 2.187 1.818.06 1.387.006 3.35.006 4.799 0 5.949.068 13.049-.001 18.88-.018 1.524-.274 2.193-.314 3.84-.046 1.872-.252 4.585.042 6.394.133.814.6 1.56 1.54 1.457.812-.089 1.12-.682 1.246-1.457.285-1.755-.062-5.637.101-7.354.095-.994.236-1.548.261-2.56.043-1.745.005-4.254.005-6.08v-16.32c0-2.42-.133-5.636.029-8 .104-1.521.289-2.165.291-3.84.005-3.228-1.135-9.679.193-12.378.323-.656 1.253-.846 2-.639 1.076.298.989 1.235 1.006 2.137.037 1.986.002 4.38 0 6.4 0 1.863-.177 2.502-.29 4.16-.233 3.398-.03 7.715-.03 11.2v7.36c0 1.666-.86 5.985 1.6 5.985 2.57 0 1.6-6.766 1.6-8.545v-15.68c0-1.26 0-2.48.137-3.52.123-.94.178-1.516.183-2.56.007-1.437-.054-3.74.006-5.119.042-.95.15-1.765 1.287-1.855 2.429-.191 1.589 5.64 1.589 6.974v23.04c0 1.372.019 3.161-.004 4.48-.011.647-.165 1.237.013 1.873.184.652.674.912 1.273.912 1.895 0 1.599-3.18 1.599-4.385v-3.84c0-4.514-.273-10.322.028-14.72.074-1.076.237-1.607.279-2.56.047-1.077.012-2.678.012-3.84 0-1.83-.032-3.962.001-5.76.019-.967-.042-1.668.74-2.047 1.5-.725 2.348.396 2.44 1.413.107 1.175.02 3.188.019 4.474 0 2.095-.294 3.042-.319 5.12-.032 2.745 0 3.71 0 6.08v10.56c0 1.721-.898 9.02 1.006 9.492 3.266.809 2.193-6.362 2.193-8.212V6.518c0-1.126-.207-3.71.102-4.753.284-.957 1.29-1.33 2.357-.814 1.014.491.74 2.068.741 3.007v9.28c0 10.965-.32 21.97-.32 32.96 0 2.434.044 5.291 0 7.68-.023 1.178-.04 2.113-1.298 2.458-2.829.777-7.532.102-10.542.102-.954 0-2.833.343-3.511-.513-.529-.668-.329-1.897-.329-2.687 0-1.962-.825-7.666.742-8.447.278-.139.711-.165 1.18-.215.976-.105 1.51-.24 2.558-.285 1.1-.049 4-.505 4.607.729.727 1.477.504 6.297-1.946 5.143-1.323-.623-.66-3.722-3.2-2.492-1.479.717-1.023 5.402.266 5.785 1.525.453 6.647.701 7.76-.411 1.43-1.43.517-6.785.513-8.767-.002-.876.179-2.234-.742-2.687-1.95-.96-6.698-.111-8.858-.206-1.6-.07-2.784-.79-4.753-.205-.916.272-.96.91-1 1.82-.073 1.644-.007 4.034-.007 5.758 0 2.118.023 5.012-.003 7.04-.01.838-.112 1.396-.048 2.234.059.76.263 1.176.767 1.413 1.103.52 3.307.193 4.724.193 4.358 0 8.768.03 13.12 0 1.43-.01 2.408.053 2.779-1.299.47-1.711.004-6.14.13-7.981.074-1.076.237-1.607.279-2.56.047-1.077.012-2.678.012-3.84v-30.72c0-1.799-.107-4.377.055-6.08.182-1.914-.268-3.252.367-5.393.51-1.72 4.934-1.007 6.938-1.007h9.28c1.204 0 3.616-.456 4.607.329 1.355 1.073.513 6.359.513 7.991v6.4c0 1.002.231 2.259-.329 3.098-.659.988-2.112.742-3.191.742h-8c-.976 0-2.527.305-3.327-.329-.684-.542-.511-1.772-.513-2.551-.004-1.747-.895-8.614 1.007-9.178 1.687-.5 6.363-1.2 7.76-.093.864.684.522 1.793.513 3.191-.007.98.127 1.924-.742 2.453-1.633.995-2.165-.67-2.554-1.767-.277-.784-.917-1.105-1.807-.898-1.623.376-1.91 3.819-.968 5.23 1.057 1.584 4.27.77 6.391.74.857-.011 1.76.04 2.367-.556.898-.879.513-3.145.513-4.562 0-1.475.706-5.746-.513-6.711-.83-.657-2.625-.329-3.647-.329-2.891 0-8.458-.949-10.778.193-.918.452-.74 1.761-.742 2.687-.007 3.239 0 6.664 0 9.92 0 4.041.046 8.836-.001 12.8-.017 1.402-.242 2.063-.306 3.52-.23 5.228-.013 10.756-.013 16v4.48c0 1.598-.46 5.31 1.007 5.88 3.051 1.186 2.193-6.419 2.193-8.12v-22.08c0-2.183-1.115-6.684 1.297-6.986 2.455-.309 1.903 4.783 1.903 6.666v22.4c0 1.565-.898 8.225 1.293 8.225 2.633 0 1.587-7.356 1.587-9.185v-3.52c0-1.971-.046-5.282.005-7.36.039-1.57.277-2.137.31-3.52.046-1.832.006-4.482.006-6.4 0-1.635-.03-3.511 0-5.12.015-.761-.073-1.662.74-2.045 1.105-.52 1.916.07 2.092 1.104.286 1.68.047 3.998.047 5.741v22.4c0 1.896-.559 8.497 1.902 7.855.96-.25 1.031-.972 1.08-2.096.08-1.8.218-2.386.218-4.479v-22.08c0-1.681-.81-8.034 1.007-8.537 3.338-.924 2.193 6.288 2.193 8.217 0 4.689.007 9.75 0 14.4-.002 1.34-.089 2.016-.229 3.2-.14 1.192-.091 2.894-.091 4.16v3.84c0 1.144-.258 3.795 1.903 3.4 2.216-.406 1.297-6.185 1.297-7.88v-16.32c0-6.342-.394-14.304.029-20.48.08-1.176.259-1.76.286-2.88.053-2.163-.036-6.728.006-8.96.02-1.042.014-2.095 1.296-2.158 1.108-.054 1.697.579 1.855 1.532.238 1.434.048 3.589.048 5.106 0 1.734.036 4.101-.005 5.76-.038 1.532-.293 2.074-.314 3.84-.036 2.97-.001 3.83-.001 6.4v5.76c0 1.809-1.046 9.092 1.6 8.894 2.618-.196 1.6-6.371 1.6-8.254V8.118c0-1.356-.318-6.556 1.061-7.16 3.04-1.334 2.139 6.376 2.139 7.8 0 7.584-.32 15.156-.32 22.72 0 1.587-.865 6.839 1.6 6.654 2.435-.183 1.6-5.203 1.6-6.974v-8.32c0-1.672-.022-2.211 0-4.16.022-1.767.277-2.31.315-3.84.038-1.572.005-3.798.005-5.44 0-1.879-1.14-9.358 2.193-8.532 1.708.423 1.089 5.464.915 6.932-.863 7.318-.228 15.029-.228 22.4 0 1.662-.839 7.766 1.292 7.934 2.506.197 1.49-5.367 1.68-6.974.875-7.422.228-15.245.228-22.72 0-1.538-.949-8.701 2.193-7.48 1.18.458 1.005 1.978 1.007 3v8.96c0 10.97-.32 21.967-.32 32.96 0 2.037 1.11 9.762-1.008 10.687-2.876 1.256-7.466-.125-10.512-.044-1.22.033-2.688.683-3.647-.276-.864-.864-.513-2.551-.513-3.647 0-1.572-.457-6.837.513-7.807 1.631-1.63 4.147-.527 6.207-.513 2.578.018 3.658 2.767 2.368 5.338-1.71 3.407-3.256-4.531-5.56-1.625-.85 1.074-.608 5.083.68 5.465 1.524.453 6.646.701 7.759-.411.598-.599.507-1.58.513-2.367.012-1.78.952-8.154-.742-9.132-1.95-1.126-7.061-.469-9.178-.468-1.318 0-3.148-.522-4.698.201-.801.374-.723 1.09-.74 2.04-.034 1.792-.002 3.933-.002 5.759 0 1.973-.105 2.473-.265 4.16-.175 1.832-.61 5.525.953 6.207 1.076.47 3.05.193 4.432.193h11.52c1.154 0 3.985.524 4.607-.742.508-1.032.145-2.618.222-3.738.213-3.105.291-6.16.291-9.28V4.918c0-1.143-.257-3.073.805-3.831 1.235-.883 4.121-.329 5.595-.329h11.2c1.06 0 1.776-.081 2.874.019 1.38.125 1.552.764 1.6 1.902.071 1.672-.232 2.585-.3 4.159-.136 3.093.238 7.509-.032 10.559-.094 1.05-.395 1.576-1.28 1.82-2.176.597-8.293.114-10.862.1-.978-.004-2.018.098-2.686-.557-.657-.643-.512-1.679-.514-2.642-.006-2.916-.447-6.682.32-9.28 1.56.429 1.745.108 3.2.037 1.019-.05 3.093-.111 4.154-.018 1.633.143 1.597 1.047 1.606 2.541.007 1.03.314 2.51-.741 3.19-1.017.655-1.875.118-2.272-.676-.311-.625-1.837-3.239-2.873-1.132-.49.995-.516 4.347.32 5.01 1.105.875 3.875.33 5.246.328 1.086-.002 2.284.151 3.007-.558.932-.912.513-3.408.513-4.882 0-1.556.66-4.96-.328-6.207-.655-.825-2.551-.513-3.512-.513-2.944 0-8.508-1.082-11.098.193-.921.453-.74 1.81-.742 2.687-.005 2.555 0 5.123 0 7.68v32.96c0 3.003-.321 5.968-.32 8.96 0 .92-.27 2.532.742 3.005 3.396 1.591 2.458-6.165 2.458-7.805v-23.04c0-1.39.147-3.159.298-4.479.118-1.041.229-1.964 1.61-1.855 1.914.15 1.292 3.858 1.292 5.054v24c0 1.572-.804 9.176 1.874 8.12 1.007-.396.987-1.428 1.005-2.36.028-1.51-.016-3.555.003-5.12.021-1.834.297-2.505.317-4.16.061-5.143.001-11.394.001-16.64 0-1.71-.827-8.727 1.293-8.894 2.622-.206 1.587 3.861 1.587 6.014v23.04c0 1.958-1.158 8.65 1.903 8.266 2.226-.28 1.297-6.768 1.297-8.586v-23.36c0-2.19-.853-5.402 1.6-5.402 2.52 0 1.6 6.412 1.6 8.282v22.08c0 2.003-.265 3.825-.118 5.434.07.78.34 1.308 1.12 1.498.96.235 1.656-.167 1.83-1.19.632-3.709.048-8.347.048-12.142 0-2.401-.132-5.336.029-7.68.084-1.229.288-1.918.289-3.2 0-1.158-.198-1.761-.172-2.88.022-.967.16-1.532.173-2.56.065-5.536 0-12.272 0-17.92v-7.68c0-1.655-.412-3.252 1.298-3.466.496-.063 1.008-.026 1.39.275.574.453.498 1.225.511 1.911.029 1.51.001 3.266.001 4.8 0 3.744.037 8.167 0 11.84-.036 3.402-.32 6.077-.32 9.92 0 2.137-.287 4.972.048 7.034.164 1.01.75 1.688 1.855 1.486 1.956-.359 1.298-4.208 1.298-5.64v-16.96c0-2.5-.139-5.56.028-8 .08-1.176.26-1.76.287-2.88.026-1.088-.423-3.34 1.012-3.737 3.178-.88 2.23 4.576 2.188 6.297-.027 1.112-.206 1.696-.287 2.88-.115 1.675-.028 2.552-.028 4.16v15.36c0 1.806-1.076 9.223 1.902 8.532 2.112-.49 1.298-5.248 1.298-6.932V4.598c0-1.073-.52-2.696.513-3.511.693-.547 2.048-.493 2.493.413.707 1.436.194 4.056.194 5.658 0 4.142.047 9.058-.001 13.12-.015 1.198-.16 1.774-.265 2.88-.178 1.87-.054 4.743-.054 6.72 0 1.783-.716 9.25 2.193 8.12 2.128-.826 1.007-6.653 1.007-8.76v-5.44c0-2.524-.03-5.74 0-8.32.022-1.766.277-2.308.315-3.84.032-1.31.005-3.114.005-4.48 0-1.59-.514-4.222.193-5.658.384-.781 1.336-.835 1.945-.547.992.467.741 1.78.742 3.005v41.6c0 2.731.018 5.603 0 8.32-.006.901.05 1.974-.742 2.503-.85.567-1.666.375-2.778.377-3.174.005-7.84.466-10.861-.047-1.303-.222-1.444-1.335-1.565-2.513-.208-2.038-.91-8.307.774-9.591 1.03-.785 6.52-.68 7.764-.136 1 .437.986 1.282 1.006 2.367.022 1.156.193 1.956-.327 2.833-.41.69-1.344 1.152-2.13.672-.937-.573-1.656-4.82-3.612-2.352-.447.564-.324 1.328-.329 2.047-.009 1.32-.468 2.683 1.007 3.327 1.436.627 6.916.844 8.08-.32.772-.772.513-2.312.513-3.327 0-2.37 1.103-7.031-.513-8.311-.75-.594-2.89-.329-3.967-.329-2.675 0-10.692-1.404-11.153 1.299-.171 1.007-.047 2.655-.047 3.821v9.28c0 1.203-.597 3.073.45 3.938.9.744 3.117.222 4.35.222 4.006.001 7.861.284 11.84.319 1.285.011 3.995.452 4.791-.74 1.106-1.658.329-5.926.329-7.899v-5.12c0-1.89-.12-4.248.054-6.08.136-1.43.265-2.307.266-3.84.003-6.853 0-14.22 0-21.12V4.918c0-1.057-.344-2.798.329-3.647.77-.973 3.608-.513 4.791-.513h11.52c1.32 0 3.295-.34 4.378.193 1.362.67.742 2.121.742 3.327v5.76c0 2.131.038 4.627-.001 6.72-.02 1.065.022 1.833-1.006 2.138-1.768.526-2.955.345-4.433.41-2.07.09-7.75.849-9.498-.317-.843-.562-.735-1.67-.741-2.551-.007-1.017 0-1.573 0-2.56 0-1.387-.348-5.212.377-6.298 1.008-1.511 5.685-1.022 7.604-.695 1.204.206 1.271.823 1.297 2.193.025 1.345.336 3.085-1.006 3.645-.628.263-1.45.2-1.864-.318-.504-.631-.133-1.815-.842-2.357-1.96-1.498-2.367 1.784-2.367 2.87 0 1-.065 2.332.742 2.871 1.512 1.009 6.861.98 8.025-.184 1.171-1.17.517-6.81.513-8.767-.002-.958.129-2.043-.513-2.551-1.07-.848-3.5-.294-5.247-.334-.79-.018-1.454-.132-2.24-.132s-1.449.114-2.24.132c-1.224.028-2.933-.243-4.112.107-1.28.38-1.007 2.035-1.008 3.098 0 3.187.005 6.416 0 9.6-.003 1.75-.234 2.496-.307 4.16-.398 9.086-.013 18.998-.013 28.16 0 2.284-1.063 9.435.742 10.545 1.008.62 1.802-.11 2.037-.964.363-1.32.101-3.665.101-5.101 0-4.258-.28-8.934.08-13.12.141-1.634.207-2.38.236-3.84.033-1.666.004-4.02.004-5.76 0-1.76-.984-8.3 1.297-8.586 2.96-.372 1.903 5.431 1.903 7.306 0 1.734.036 4.101-.005 5.76-.034 1.383-.272 1.95-.31 3.52-.05 2.047-.006 4.715-.006 6.72v6.08c0 1.73-1.03 9.479 2.193 8.081 1.643-.712 1.007-4.229 1.007-5.841v-23.04c0-2.208-.314-5.219.048-7.341.154-.904.63-1.261 1.552-1.261.923 0 1.399.357 1.553 1.26.3 1.764.047 4.23.047 6.062v21.76c0 1.748-.875 8.76 1.588 8.49 1.895-.207 1.184-2.64 1.384-4.33.785-6.658.228-17.003.228-24.64 0-2.048-.036-4.382.001-6.4.02-1.011 0-2.075 1.296-2.174 3.06-.234 1.956 8.129 1.898 10.494-.027 1.12-.206 1.704-.286 2.88-.338 4.93-.03 11.259-.03 16.32 0 1.713-.425 5.574.194 6.993.888 2.033 4.014 1.007 6.207 1.007" fill="none" stroke="#030303"/></svg>