<?xml version="1.0" encoding="UTF-8" standalone="no"?>
<!-- Created with Inkscape (http://www.inkscape.org/) -->

<svg
   version="1.1"
   id="svg1"
   width="307.8399"
   height="259.51172"
   viewBox="0 0 307.8399 259.51172"
   xmlns="http://www.w3.org/2000/svg"
   xmlns:svg="http://www.w3.org/2000/svg">
  <defs
     id="defs1" />
  <g
     id="g1"
     transform="translate(-2.398937,2.2895758)">
    <path
       style="fill:none;stroke:#433c34"
       d="m 2.398937,3.1808637 c 1.6730347,0 3.476396,0.0084 5.1200002,-2.53e-4 0.8293164,-0.0044 2.0300487,0.08572 2.6869128,-0.557286 1.240913,-1.214746 -0.4082201,-2.77751903 1.026175,-3.913574 0.938569,-0.743359 3.558259,-0.690195 4.276789,0.41283197 0.939329,1.441973 0.709329,7.04712903 -0.318766,8.34519603 -0.723029,0.91291 -3.057071,0.139043 -4.020987,0.841972 -0.813963,0.593575 -0.642445,1.9969733 -0.717038,2.8711143 -0.230053,2.695957 -0.05309,6.184453 -0.05309,8.96 v 18.879997 c 0,10.32784 0.004,20.71846 0,31.04001 -6.6e-4,1.71171 -0.233772,2.79837 -0.307407,4.48 -0.04955,1.13148 -0.01259,1.82484 -0.01259,2.88 0,3.91027 0,8.48609 0,12.48 0,1.83818 -0.2455931,4.02148 0.04741,5.74122 0.219641,1.28916 1.094085,1.26911 2.192839,1.29754 0.73868,0.0191 1.72053,-0.13003 2.230864,0.51432 1.077236,1.36012 0.401642,5.355378 0.322716,7.166668 -0.08217,1.88573 -0.8828,2.19598 -2.553827,2.23901 -1.211814,0.0312 -2.260223,-0.18126 -2.5125921,1.29999 -0.5111223,2.99998 -0.04741,8.78625 -0.04741,12.14125 0,9.79155 0.3769011,19.68155 -0.2913577,29.44 -0.7087378,10.34957 -0.028642,20.9839 -0.028642,31.36 0,3.52605 0.016365,7.38887 -2.465e-4,10.88 -0.00474,0.99574 -0.3239405,1.91562 -0.035309,2.77828 0.7208963,2.15453 4.6831513,-0.6525 4.8293813,2.6632 0.08724,1.97801 0.898665,6.55639 -0.506914,7.66963 -0.901989,0.7144 -3.8422462,-0.091 -4.4138259,1.07061 -1.0282166,2.08961 -0.193086,7.73681 -0.193086,10.45828 v 28.16 c 0,2.32299 0.018014,3.34953 -0.2286419,5.44 -0.3048932,2.58404 -0.2416199,4.44496 2.7883948,4.58568 1.967789,0.0914 2.228346,-0.97533 2.24,-2.66568 0.01565,-2.27074 -0.02577,-4.74945 0.0015,-7.04 0.101294,-8.51527 0.318766,-17.06031 0.318766,-25.6 0,-2.11998 -0.01434,-4.28467 2.46e-4,-6.4 0.005,-0.71887 -0.107511,-1.73979 0.512841,-2.23111 0.569679,-0.4512 1.325376,-0.29848 2.046913,-0.33483 0.879533,-0.0443 1.711484,-0.12387 2.231111,-1.00146 0.716532,-1.21018 0.328889,-2.60631 0.328889,-4.1126 0,-3.58709 0.798139,-10.68158 -0.101729,-13.7126 -0.372755,-1.25555 -1.431615,-0.96139 -2.458025,-1.01334 -1.018771,-0.0515 -1.817425,-0.12359 -2.138518,-1.29283 -0.568638,-2.07065 -0.101728,-5.02961 -0.101728,-7.34123 v -15.68 c 0,-12.59285 0.0074,-25.19172 0.315308,-37.76 0.1085,-4.42882 -1.100153,-11.56851 0.10642,-15.6326 0.343246,-1.15616 1.476095,-0.96387 2.458272,-1.01333 1.042492,-0.0525 1.910852,-0.16358 2.366913,-1.29283 0.595863,-1.47542 0.193087,-3.43304 0.193087,-5.10125 0,-3.64498 0.06685,-7.585468 -0.0015,-11.199738 -0.03844,-2.03311 -0.738383,-2.19438 -2.558272,-2.24149 -1.098758,-0.0284 -1.973197,-0.008 -2.192839,-1.29753 -0.560633,-3.29059 -0.04741,-8.5909 -0.04741,-12.14123 0,-8.77598 -0.933031,-18.19338 0.09136,-26.88001 0.985011,-8.35269 0.228643,-17.18644 0.228643,-25.6 0,-3.25318 -0.129173,-8.129587 0.0062,-11.198513 0.139991,-3.174258 3.450782,-0.750058 4.784938,-2.43457 2.178217,-2.7502353 -1.511497,-10.2763873 0.657778,-13.42814533 0.501199,-0.72820297 1.400806,-0.75093697 2.231111,-0.77357397 0.970896,-0.02647 1.741587,0.07289 2.56,0.314805 -0.519287,2.25968697 -0.20533,10.200625 -0.308643,13.4400003 -0.05013,1.571953 0.125183,2.447187 -0.03012,4.153828 -0.259306,2.849532 -4.304448,0.70457 -4.733828,3.224942 -0.579473,3.401387 -0.367407,8.538337 -0.367407,12.141227 v 25.60001 c 0,6.77457 0.421191,13.7533 -0.02864,20.48 -0.177134,2.6488 -0.873822,5.92197 -0.189382,8.27259 0.744861,2.55815 4.715632,-0.50322 4.99926,2.61358 0.282085,3.09982 0.01876,7.45709 0.01876,10.55382 0,3.162678 -0.32,6.597308 -0.32,9.919998 0,1.94829 0.732878,5.34713 -0.328889,6.93828 -0.509849,0.76405 -1.410337,0.71935 -2.231111,0.74049 -0.842569,0.0217 -1.934307,-0.13621 -2.366914,0.74296 -1.100273,2.23604 -0.193086,6.55649 -0.193086,9.17828 0,7.47945 -0.01658,14.94265 -0.307161,22.4 -0.316901,8.13269 -0.01284,16.44998 -0.01284,24.64 0,3.21094 -0.460368,7.88094 0.04741,10.86123 0.218054,1.27984 1.09229,1.2742 2.192839,1.29728 1.451878,0.0305 2.692227,-0.24685 2.860989,1.60766 0.176592,1.94055 -0.201448,4.40254 -0.288642,6.39383 -0.186104,4.2501 -0.01259,8.54562 -0.01259,12.8 0,2.0192 0.253679,5.18187 -0.04741,7.03383 -0.40137,2.46879 -4.085635,0.73455 -4.879506,2.34789 -0.99565,2.02344 -0.193087,6.62594 -0.193087,9.17828 v 19.84 c 0,2.70363 -0.631769,6.44195 0.101728,8.9126 0.337799,1.13779 2.423682,1.33765 3.719507,0.81431 1.587473,-0.64111 1.298765,-3.00693 1.298765,-4.60691 v -15.36 -9.6 c 0,-1.27949 -0.363093,-2.92797 0.193086,-4.05828 0.391311,-0.79524 1.289858,-0.71651 2.047161,-0.74147 1.17299,-0.0387 2.3903,0.0586 2.778025,-1.31506 0.69228,-2.45273 0.101728,-6.78988 0.101728,-9.56519 v -23.04 c 0,-1.74274 0.803347,-4.38848 -0.513086,-5.43112 -1.41595,-1.12144 -4.046834,0.49696 -4.268149,-1.93505 -0.313719,-3.44743 -0.01877,-10.55967 -0.01877,-14.39383 0,-9.50059 0.32,-19.00045 0.32,-28.48 0,-3.88495 -0.889602,-9.81136 0.101728,-13.42124 0.304773,-1.10982 1.136145,-1.24219 2.138519,-1.29284 0.897963,-0.0454 1.968486,0.12508 2.550864,-0.74765 1.280203,-1.91849 0.328889,-6.48385 0.328889,-8.85828 V 92.140862 c 0,-2.33279 0.17427,-6.19257 -0.01876,-8.31382 -0.230788,-2.53613 -3.761533,-0.66799 -4.588149,-2.34789 -0.913599,-1.85668 -0.193086,-4.92389 -0.193086,-7.25828 0,-5.98047 0.32,-11.96176 0.32,-17.92 v -22.72001 c 0,-2.57849 -0.340217,-6.98611 0.04741,-9.261227 0.244793,-1.436778 4.356021,-1.107188 4.879507,-2.306172 0.745894,-1.708379 0.193086,-4.420059 0.193086,-6.352598 0,-4.907676 -0.520488,-13.3902743 0.64,-17.2800003 1.346963,0.291836 2.984009,-0.447071 3.966914,0.328886 1.111253,0.87728597 0.513086,2.672051 0.513086,4.151113 V 15.660865 c 0,2.962461 0.0061,6.005762 0,8.959997 -0.0022,1.06188 0.172071,1.95608 -0.513086,2.71557 -0.665954,0.7382 -1.538877,0.73516 -2.366667,0.79307 -0.766885,0.0537 -1.653335,-0.0473 -2.047161,0.75308 -0.825269,1.67717 -0.193086,4.71219 -0.193086,6.61828 0,4.92512 -0.32,9.7995 -0.32,14.72 v 18.24001 c 0,2.46837 -0.741584,5.81183 0.193086,7.95259 0.399216,0.91436 1.198926,0.95856 2.047161,1.00149 1.164184,0.0589 2.25758,-0.19063 2.512346,1.30469 0.414236,2.4313 0.04741,6.33322 0.04741,8.94123 0,6.58437 0.357691,13.289528 -0.265678,19.839988 -0.419395,4.40708 -0.05432,9.0129 -0.05432,13.44001 0,1.67877 0.562451,3.68617 -0.328889,4.98123 -0.525642,0.76372 -1.422488,0.74301 -2.231111,0.77408 -1.013342,0.0389 -2.106829,-0.17167 -2.458271,1.01209 -0.857825,2.8894 -0.101729,8.49079 -0.101729,11.7926 v 24 c 0,3.22316 -0.257842,7.83422 0.01877,10.87383 0.138833,1.52562 0.913413,1.57109 2.221482,1.60494 0.842031,0.0218 1.923672,-0.15733 2.366667,0.74295 0.595843,1.21091 0.193086,2.97976 0.193086,4.37828 v 10.56 c 0,7.47303 -0.32,14.91566 -0.32,22.4 0,3.00059 0.649566,7.48545 -0.101728,10.22123 -0.349402,1.27232 -1.357229,1.26916 -2.458272,1.29754 -0.897988,0.0231 -1.723918,-0.12608 -2.231111,0.51432 -0.536513,0.6774 -0.328889,2.45533 -0.328889,3.32691 0,2.47996 0,4.30047 0,7.04 v 14.08 c 0,1.84766 -0.421797,4.34637 1.921482,4.44863 0.812393,0.0355 1.708337,-0.0164 2.45679,-0.45308 1.159304,-0.67639 0.741728,-2.30705 0.741728,-3.67555 0,-4.15986 0,-8.3201 0,-12.48 0,-1.94187 -0.816597,-6.04063 0.328889,-7.48691 0.508623,-0.64219 1.471197,-0.49475 2.231111,-0.51432 1.108826,-0.0286 2.106228,-0.0156 2.458272,-1.29754 0.573948,-2.08998 0.101728,-5.37979 0.101728,-7.66123 v -17.28 c 0,-6.98992 -0.448825,-14.14758 0.02864,-21.12 0.205159,-2.9959 1.004263,-8.08867 0.189629,-10.8326 -0.38072,-1.28236 -1.706265,-0.9641 -2.77679,-1.01357 -0.808476,-0.0374 -1.546267,-0.08 -1.819753,-1.00124 -0.54448,-1.83396 -0.101729,-4.03123 -0.101729,-6.03259 v -12.16 -15.04 c 0,-1.62239 -0.705239,-4.14619 0.513086,-5.11112 0.681958,-0.54011 1.587674,-0.29224 2.366668,-0.34296 1.201496,-0.0782 1.957405,-0.18107 2.192839,-1.6 0.521358,-3.14215 0.04741,-9.85058 0.04741,-13.42592 0,-10.04801 0.32,-20.044418 0.32,-30.079998 0,-3.40184 0.262422,-9.38389 -0.01876,-12.47383 -0.230668,-2.5343 -3.332487,-0.70526 -4.452392,-2.11926 -1.549587,-1.95652 -0.328889,-8.81074 -0.328889,-11.64691 v -17.92001 c 0,-2.40611 -0.537346,-5.79998 0.101729,-7.95259 0.345981,-1.16537 1.462446,-0.98299 2.458271,-1.00864 1.149952,-0.0296 2.123907,-0.0582 2.642471,-1.29754 0.611934,-1.46244 0.237529,-3.46402 0.237529,-5.10123 V 15.660865 4.1408647 c 0,-1.441524 -0.429729,-3.48146503 0.377286,-4.69851603 0.516533,-0.77898397 1.618925,-0.90513697 2.501235,-0.87234397 2.97377,0.110508 1.92148,6.077227 1.92148,8.45086 0,7.4815623 -0.32,14.9143753 -0.32,22.3999973 0,1.76723 -0.05226,3.68969 0.01234,5.44 0.03103,0.84067 0.29752,1.75057 -0.234072,2.45829 -0.501704,0.66793 -1.22728,0.69595 -2.018271,0.7358 -0.852691,0.0429 -1.901343,-0.19852 -2.366915,0.74763 -0.796499,1.61869 -0.193086,4.71387 -0.193086,6.61828 v 14.72001 c 0,1.78175 -0.219143,4.49673 0.04741,6.06123 0.335698,1.97031 3.487588,0.63312 4.423701,2.04048 0.894131,1.34426 0.03078,2.96206 0.01013,4.69829 -0.04948,4.15871 -0.0012,8.32095 -0.0012,12.48 0,11.42919 -0.32,22.825368 -0.32,34.239998 0,4.37869 0.616015,11.27323 -0.04741,15.35382 -0.223037,1.37188 -1.046987,1.54227 -2.192837,1.60025 -1.056748,0.0535 -2.070908,-0.29061 -2.458027,1.01333 -0.524431,1.76643 -0.101729,4.90648 -0.101729,6.9926 0,5.81912 -0.551103,11.82257 -0.307407,17.6 0.05633,1.33549 -0.108657,3.07843 1.049136,3.64691 1.076812,0.52873 3.263418,-0.10484 3.81605,1.20049 0.730498,1.72547 -0.07778,5.14916 -0.07778,7.3126 v 19.52 28.16 c 0,3.21699 0.449882,8.73525 -0.07309,11.51506 -0.296338,1.57517 -1.110782,1.81482 -2.487159,1.91111 -1.419287,0.0993 -2.470036,0.0409 -2.553584,1.93531 -0.184604,4.18586 -0.0062,9.17534 -0.0062,13.43852 0,1.37383 -0.509135,3.87883 1.298765,4.1 0.816704,0.0999 1.985606,-0.0144 2.759507,-0.44049 0.976323,-0.53748 0.739492,-1.61135 0.741729,-2.69951 0.0059,-2.86543 -0.67356,-7.89742 0.101728,-10.5126 0.607178,-2.0481 4.568472,-0.26025 4.970864,-2.62617 0.435503,-2.56059 0.04741,-8.23352 0.04741,-11.18123 0,-9.28281 0.32,-18.58203 0.32,-27.84 v -25.6 c 0,-3.00959 1.9e-4,-6.29973 0,-9.28 -5.9e-5,-0.94625 0.149687,-1.66576 -0.101729,-2.5126 -0.308662,-1.03967 -1.235747,-0.9732 -2.138515,-1.0074 -0.968965,-0.0367 -1.92421,0.006 -2.36667,-1.00741 -1.360645,-3.11638 -0.193086,-9.15044 -0.193086,-12.75259 0,-1.37149 -0.09702,-3.20155 0.01876,-4.47383 0.330132,-3.62773 4.920567,0.42888 5.095064,-3.52766 0.175679,-3.98338 0.0062,-10.48614 0.0062,-14.71851 0,-11.2078 0.32,-22.38183 0.32,-33.599998 0,-6.18063 -0.14668,-12.38139 0.0047,-18.56 0.06267,-2.5578 0.645615,-5.99055 0.267901,-8.31383 -0.29877,-1.8377 -1.433233,-1.54141 -2.832349,-1.61209 -1.338711,-0.0676 -2.077368,-0.29139 -2.22148,-1.91557 -0.295327,-3.32836 -0.01876,-9.18955 -0.01876,-12.79852 0,-1.16646 -0.421871,-3.339 0.328891,-4.28691 1.016905,-1.28394 3.445865,0.0387 4.462217,-1.33359 0.589683,-0.79618 0.328521,-1.8741 0.328892,-2.6995 6.3e-4,-1.40312 -0.08493,-3.33675 0.05432,-4.8 0.812398,-8.53681 0.265679,-17.339177 0.265679,-25.9199973 0,-2.79334 -1.086997,-10.10252 1.921479,-10.233828 0.941416,-0.04109 2.289039,-0.226231 2.869629,0.50691397 1.301485,1.643476 0.0089,7.47650303 0.0089,9.72691403 V 36.460862 c 0,2.88487 0.900586,8.11834 -0.193086,10.47086 -0.52063,1.11989 -1.680581,1 -2.68667,1.04594 -0.682022,0.0311 -1.44855,-0.068 -1.911353,0.51629 -1.080327,1.36402 -0.363916,4.91588 -0.327412,6.84666 0.07749,4.09834 4.211734,0.37322 4.751114,3.53902 0.388081,2.2778 0.04741,7.26389 0.04741,9.90124 0,8.32652 -0.32,16.62224 -0.32,24.95999 0,11.631498 -0.32,23.272228 -0.32,34.880008 0,4.54858 0.183481,11.3783 -0.0062,15.67851 -0.184678,4.18741 -4.602979,-0.34444 -4.787656,3.84297 -0.0644,1.46003 -0.01642,3.91653 -0.0059,5.43852 0.0049,0.70614 -0.113403,1.73511 0.512842,2.23111 1.054941,0.83553 3.600141,0.0673 4.093828,1.07061 1.412549,2.87066 0.03615,9.58195 -0.114321,13.01828 -0.460484,10.51597 -0.01259,21.15289 -0.01259,31.68 0,10.74398 0.441938,21.61164 -0.291358,32.32 -0.19354,2.82625 1.308668,7.91723 -0.03753,10.1926 -0.522534,0.88318 -1.344482,0.95681 -2.231108,1.00148 -0.768506,0.0387 -1.716865,-0.13027 -2.231109,0.51901 -1.058003,1.33584 -0.340683,5.10082 -0.328647,6.84691 0.0083,1.2099 -0.147256,2.26697 1.29852,2.5126 1.03794,0.17633 2.283467,0.239 2.98815,-0.46569 0.551235,-0.55123 0.484629,-1.29566 0.513086,-2.04666 0.02492,-0.65775 -0.06711,-1.45183 0.513086,-1.91136 0.634316,-0.50239 1.514224,-0.34176 2.36667,-0.32741 0.570864,0.01 1.24666,-0.0532 1.727158,0.32741 0.575938,0.45615 0.486509,1.20992 0.513086,1.91136 0.03089,0.81522 -0.05615,1.69844 0.741729,2.23086 1.300756,0.86799 3.756982,0.24555 4.185185,-0.7042 0.763819,-1.69414 0.206621,-4.3283 0.192842,-6.32691 -0.0052,-0.74869 0.112866,-1.73555 -0.512842,-2.23111 -0.558598,-0.44242 -1.353935,-0.31219 -2.04667,-0.33012 -0.90917,-0.0235 -1.832348,0.0251 -2.138515,-1.00617 -0.822203,-2.76942 -0.101729,-7.15803 -0.101729,-10.1926 v -22.72 c 0,-12.69209 0.32,-25.41471 0.32,-38.08 v -10.88 c 0,-1.68317 -0.347202,-3.56047 0.101729,-5.0726 0.320952,-1.08106 1.22227,-0.97268 2.138515,-1.0074 0.852725,-0.0323 1.716026,0.0298 2.230865,-0.74172 1.049668,-1.57303 0.412378,-5.22384 0.322719,-7.2568 -0.152983,-3.46875 -4.04001,-0.32309 -4.679507,-2.92889 -0.444795,-1.81244 0.192544,-3.67456 0.204693,-5.39259 0.01119,-1.58155 9.86e-4,-3.50197 9.86e-4,-5.12 v -32.00001 c 0,-9.933408 0.32,-19.821088 0.32,-29.759988 0,-3.33557 0,-6.93166 0,-10.24 0,-1.22358 -0.254839,-2.58499 0.101729,-3.79286 0.593095,-2.00914 3.980512,-0.42988 4.60123,-2.33455 0.50729,-1.5566 0.414532,-2.87213 0.417041,-4.4326 0.002,-1.25181 0.371099,-3.13082 -0.513086,-3.83111 -0.584116,-0.46264 -1.315898,-0.29783 -2.04667,-0.3348 -0.670151,-0.0339 -1.250229,-0.0302 -1.727158,-0.50717 -0.601968,-0.60197 -0.507422,-1.5791 -0.512842,-2.36692 -0.01631,-2.36941 -2.44e-4,-4.96855 -2.44e-4,-7.36 V 8.9408647 c 0,-2.390723 -0.84729,-7.838086 0.648892,-9.72691403 0.444629,-0.56130897 1.244482,-0.50335997 1.911352,-0.51136797 4.273492,-0.05131 2.239756,6.688028 2.239756,9.918282 V 32.940862 c 0,2.49157 -0.754673,7.25219 0.193086,9.17829 0.655489,1.33211 4.359707,0.18082 4.820494,2.04048 0.320293,1.29266 -0.211138,2.94352 -0.21358,4.46123 -0.006,3.73219 0.02523,7.82518 -2.44e-4,11.52001 -0.0063,0.91822 0.152549,1.92699 -0.741484,2.36691 -0.65855,0.32404 -1.418872,0.17947 -2.138028,0.19457 -0.774462,0.0162 -1.637158,-0.093 -2.047158,0.74023 -0.908628,1.84657 -0.193086,4.64381 -0.193086,6.93829 v 16.96 c 0,12.24096 -0.32,24.532978 -0.32,36.799998 0,4.35254 0.02026,9.13133 -2.44e-4,13.44 -0.0049,1.02484 -0.305937,1.92104 -0.03531,2.83259 0.527978,1.7784 3.883681,0.20707 4.64247,1.74913 0.561924,1.14198 0.193086,3.1882 0.193086,4.37828 0,3.51534 0.315142,9.03533 -0.01876,12.79851 -0.154038,1.73606 -1.059458,1.88209 -2.541236,1.92026 -1.19498,0.0308 -2.2631,-0.16436 -2.512593,1.29998 -0.505214,2.96527 -0.04741,8.239 -0.04741,11.50125 0,8.86898 -0.32,17.70578 -0.32,26.56 v 26.88 c 0,3.17885 -0.419565,8.32156 0.04741,11.19383 0.226963,1.39599 0.964351,1.5439 2.192837,1.6 1.228038,0.0561 2.559283,-0.29778 2.832349,1.30494 0.563252,3.3059 0.06342,6.30117 -0.218271,9.26123 -0.131743,1.38438 -0.386714,3.38193 0.953086,3.96691 0.973437,0.42502 2.805893,0.47362 3.599507,-0.32 1.026396,-1.0264 0.513086,-2.77841 0.513086,-4.28691 0,-4.01016 0.0726,-8.88133 -0.0015,-12.79975 -0.04021,-2.12668 -0.683511,-2.19295 -2.558276,-2.24148 -1.09564,-0.0284 -1.96898,0.0163 -2.192837,-1.29754 -0.509849,-2.99246 -0.04741,-7.93166 -0.04741,-11.18123 v -25.6 c 0,-6.72863 0.32,-13.11996 0.32,-19.84 0,-2.87485 -0.416879,-6.85621 0.04741,-9.58125 0.253007,-1.48498 4.060869,-1.39338 4.695307,-2.35924 1.101841,-1.6774 0.377286,-4.5174 0.377286,-6.61951 v -13.76 c 0,-1.91774 0.07417,-4.57682 -0.0062,-6.39852 -0.08702,-1.97309 -0.974043,-1.89966 -2.553828,-1.92148 -1.096861,-0.0152 -2.272857,0.10832 -2.512593,-1.29876 -0.346475,-2.03357 -0.125288,-4.70522 0.136792,-6.70124 0.208989,-1.59166 0.1358,-2.79374 0.1358,-4.48 0,-11.37387 -0.48497,-22.87725 0.01259,-34.239998 0.210254,-4.80155 0.307407,-9.57924 0.307407,-14.4 0,-2.09918 -0.449516,-4.81584 0.101729,-6.6726 0.320957,-1.08108 1.221582,-0.98248 2.138516,-1.00617 1.336303,-0.0345 2.559165,0.0729 2.832348,-1.60741 0.298379,-1.83527 0.04741,-4.44591 0.04741,-6.39382 v -14.08001 c 0,-2.1574 0.682685,-5.15849 -0.193086,-6.93828 -0.45542,-0.92552 -1.528008,-0.72123 -2.36667,-0.74295 -0.700884,-0.0181 -1.457823,0.0608 -1.911353,-0.51185 -0.478047,-0.6036 -0.327339,-1.61201 -0.328892,-2.36692 -0.0046,-2.21943 0,-4.49529 0,-6.72 V 8.9408647 c 0,-2.696563 -0.315268,-6.750157 0.421729,-9.23259803 0.356729,-1.20158197 2.724273,-1.42066397 3.956543,-0.81431597 1.242593,0.61142497 0.741729,3.607968 0.741729,4.926914 0,4.426191 0,9.2829693 0,13.7600003 v 10.559997 c 0,1.42047 -0.410313,3.15202 0.193086,4.37829 0.387192,0.78687 1.266289,0.72027 2.047158,0.74048 1.485391,0.0385 2.374341,-0.2239 2.540991,1.60741 0.1975,2.17027 0.01877,5.94488 0.01877,8.31382 0,5.33325 0,10.66678 0,16.00001 0,2.18318 -0.142344,4.22396 -0.291358,6.4 -0.12144,1.77339 0.667505,5.31767 -0.541728,6.52691 -0.548823,0.54883 -1.287334,0.48432 -2.04667,0.51309 -0.923799,0.035 -1.814575,-0.0837 -2.138516,1.0074 -1.133486,3.81793 -0.421728,11.59017 -0.421728,15.9526 0,6.5568 0.01051,13.302218 0,19.839988 -0.0024,1.48241 -0.191978,2.38873 -0.291358,3.84 -0.344629,5.03262 -0.122612,10.60692 -0.02716,15.68001 0.03039,1.61534 0.363081,2.39982 1.92,2.54124 0.839829,0.0763 1.450489,-0.11153 2.191114,0.21184 0.784135,0.34236 0.926098,1.02351 0.988642,1.7284 0.192588,2.17048 0.04415,7.04097 0.01753,9.27852 -0.01568,1.31804 -0.244043,2.10122 -0.306171,3.52 -0.133926,3.05848 -0.01259,4.92694 -0.01259,7.68 0,3.0825 0,6.48709 0,9.6 0,1.91496 0.373823,4.64955 -0.101729,6.38125 -0.318198,1.15869 -1.133345,1.24668 -2.138515,1.29258 -0.857652,0.0392 -2.164947,-0.31239 -2.68667,0.74789 -0.637842,1.29627 -0.193086,3.07941 -0.193086,4.37828 0,1.77275 0,3.94523 0,5.76 0,7.03853 0.03335,14.79445 -2.45e-4,21.76 -0.0064,1.33197 -0.198881,2.17312 -0.291113,3.52 -0.353887,5.16781 -0.02864,10.78976 -0.02864,16 0,1.61793 -0.436216,4.59127 0.193086,6.0326 0.420615,0.96336 1.315659,0.97908 2.366914,1.00617 0.840898,0.0217 1.910127,-0.18535 2.366914,0.74295 0.789922,1.60533 0.193086,4.03402 0.193086,5.97828 0,4.86803 0.812358,13.76906 -0.32,17.6 0.638222,0.30707 1.400469,0.61434 2.240493,0.59754 0.73898,-0.0148 1.470024,-0.0712 2.137778,-0.57779 1.445332,-1.09655 0.741729,-3.64662 0.741729,-5.45975 0,-3.49109 0,-7.07873 0,-10.56 0,-1.13189 0,-2.13441 0,-3.2 0,-1.04469 -4.4e-4,-1.74242 0,-2.88 6.64e-4,-1.73572 1.015156,-5.23395 -0.0089,-6.52691 -0.514609,-0.64975 -1.520185,-0.50327 -2.231113,-0.51309 -1.002534,-0.0139 -2.125215,0.11441 -2.458272,-1.0074 -0.866328,-2.91805 -0.101728,-7.63317 -0.101728,-10.8326 0,-8.53623 0.32,-17.08854 0.32,-25.6 0,-3.84504 -0.648428,-8.88369 0.32,-12.16 1.26332,0.34734 3.684121,0.44017 4.471113,-0.74172 1.356221,-2.03678 0.328887,-7.1191 0.328887,-9.81828 v -20.16 c 0,-2.80049 0,-6.60621 0,-9.28 0,-2.12897 1.13665,-6.91653 -0.328887,-8.76692 -1.342998,-1.69567 -4.330601,0.61148 -4.464941,-2.43457 -0.129024,-2.92544 -0.0062,-7.17526 -0.0062,-10.23851 0,-7.35789 0.32,-14.705738 0.32,-22.080008 v -9.91999 c 0,-1.43825 -0.40085,-2.85125 0.193086,-4.05829 0.401748,-0.81644 1.290469,-0.71652 2.047158,-0.74146 1.042246,-0.0344 2.191826,0.0642 2.68667,-1.03334 0.926953,-2.05594 0.193086,-5.48461 0.193086,-7.92691 0,-6.32752 0.32,-12.57836 0.32,-18.88001 v -14.4 c 0,-1.78197 0.219307,-4.4965 -0.0474,-6.06123 -0.384991,-2.25873 -3.914043,-0.0571 -4.879512,-2.04025 -0.820225,-1.68482 0.126802,-4.19504 0.126914,-5.978517 3.47e-4,-5.438086 0,-10.881426 0,-16.3200003 0,-1.800293 -0.722832,-4.55900403 0.328891,-5.88691403 0.545923,-0.68927797 1.649947,-0.54431697 2.550865,-0.50691397 2.476152,0.102812 2.239316,1.45212797 2.240244,3.513827 0.0019,4.256036 -0.32,8.5261733 -0.32,12.8000013 0,2.218281 -0.910693,6.241817 0.328887,7.806914 0.878838,1.10961 4.021982,-0.245547 4.596543,1.811853 0.604404,2.16428 -0.06533,4.11987 -0.120742,6.38123 -0.151407,6.17928 -0.0047,12.56168 -0.0047,18.88 v 23.36001 c 0,2.49693 0.929756,6.65209 -0.328887,8.53828 -1.109765,1.66308 -4.538193,-0.22537 -4.772353,2.34789 -0.297432,3.26847 0.226406,7.92371 -0.202959,11.19382 -0.725674,5.526848 -0.135801,11.864898 -0.135801,17.599998 0,2.45392 -0.564688,5.70793 0.101728,7.9526 0.306163,1.03124 1.229356,0.98265 2.138516,1.00617 1.190342,0.0308 2.26085,-0.17615 2.512354,1.3 0.587265,3.44686 0.0474,9.38488 0.0474,13.10124 0,9.41459 0.04468,19.80418 -2.44e-4,29.12 -0.0054,1.12429 -0.102383,1.81197 -0.228398,2.88 -0.14336,1.21504 -0.09136,2.08177 -0.09136,3.2 0,1.97308 0.153291,5.73945 -0.01876,7.67851 -0.154179,1.7377 -1.063945,1.88219 -2.54124,1.92026 -0.848867,0.0219 -1.935547,-0.13369 -2.366914,0.74295 -1.275156,2.59144 -0.193086,8.01943 -0.193086,11.09828 v 18.56 c 0,2.53734 -0.587119,5.95238 0.101728,8.2726 0.306709,1.03306 1.228829,0.98261 2.138516,1.00617 0.867344,0.0224 1.922315,-0.1601 2.36667,0.74295 0.47459,0.96451 0.193086,2.80806 0.193086,3.73828 0,0.81652 0,1.41467 0,2.24 0,3.10363 0,7.05373 0,10.24 v 13.44 c 0,1.7269 -0.557402,3.94813 1.606172,4.14123 1.093848,0.0976 2.26583,0.18067 3.000742,-0.53877 0.546534,-0.535 0.498545,-1.31105 0.511602,-2.00271 0.03017,-1.59815 0.0015,-3.48981 0.0015,-5.11975 v -22.4 c 0,-2.42356 0.82791,-6.78334 -0.193086,-8.85828 -0.443994,-0.90229 -1.524004,-0.72125 -2.366914,-0.74295 -1.048262,-0.027 -1.942471,-0.0298 -2.366914,-1.00617 -0.737217,-1.6959 0.107315,-3.20866 0.125684,-4.7526 0.03237,-2.72137 0.0012,-6.16707 0.0012,-8.96 v -9.92 c 0,-1.27949 -0.363096,-2.92797 0.193086,-4.05828 0.43583,-0.88571 1.516543,-0.70483 2.366914,-0.74766 0.879541,-0.0443 1.711485,-0.12387 2.231114,-1.00146 0.841435,-1.42112 0.328886,-3.31112 0.328886,-5.0726 v -13.44 c 0,-7.29692 0,-14.80429 0,-22.08 0,-1.10517 0,-1.83858 0,-2.88 0,-1.53131 0,-3.12049 0,-4.48 0,-1.05149 -0.05086,-1.71903 0.02864,-2.88 0.09272,-1.35401 0.284697,-2.18958 0.291113,-3.52 0.01523,-3.15656 2.44e-4,-6.74211 2.44e-4,-9.92 0,-1.24219 0.383203,-2.42784 -0.328886,-3.32692 -0.593868,-0.74982 -1.71251,-0.48057 -2.549629,-0.51926 -0.691084,-0.0319 -1.382832,-0.0333 -1.728399,-0.73555 -0.828633,-1.68398 -0.193086,-4.90697 -0.193086,-6.93828 V 95.660862 c 0,-2.06371 -0.287148,-4.73759 0.0474,-6.70122 0.28125,-1.65079 4.565714,-1.25344 4.97087,-2.62592 0.52293,-1.77143 0.101728,-5.20625 0.101728,-7.31285 0,-6.01602 -0.476191,-12.26622 0.228643,-18.24 1.053271,-8.92688 0.09136,-18.52721 0.09136,-27.52001 0,-3.91664 0.321963,-9.369587 -0.01876,-13.113825 -0.158575,-1.742598 -1.195821,-1.544023 -2.540997,-1.61209 -1.648994,-0.08344 -2.156816,-0.46125 -2.234072,-2.234336 -0.159775,-3.666992 -0.0062,-9.2584383 -0.0062,-13.1197473 0,-1.681582 -0.512402,-3.94941303 1.606172,-4.14123003 0.89959,-0.08145 2.013194,-0.21859397 2.680742,0.310117 0.651329,0.51586 0.507168,1.407325 0.512842,2.23111303 0.0063,0.917286 2.44e-4,1.554141 2.44e-4,2.560001 0,1.917168 0,3.20375 0,5.44 0,1.0278713 -0.227275,2.1898243 0.193086,3.1525983 0.391807,0.897382 1.154776,0.960488 2.047159,1.00123 1.066474,0.04869 2.396008,-0.273164 2.778018,1.013574 0.98944,3.332696 0.1854,10.361685 -0.16394,14.032595 -0.787366,8.27389 -0.0543,16.96612 -0.0543,25.28001 v 25.92 c 0,3.20607 0.6984,8.69785 -0.513076,11.47259 -0.395393,0.90559 -1.209426,0.9591 -2.047161,1.00149 -0.850039,0.043 -1.931699,-0.13633 -2.36667,0.74763 -0.734736,1.49317 -0.159541,3.35989 -0.377285,5.01828 -0.468769,3.570258 -0.282988,8.320028 -0.129629,11.839758 0.07531,1.72858 0.615166,2.16015 2.234073,2.23407 1.594511,0.0728 2.781172,-0.16791 2.873582,1.92766 0.222336,5.04161 -0.31383,11.29563 -0.31383,16.31852 0,11.46788 0,23.34144 0,34.88 0,4.93519 0.0562,10.52918 -0.001,15.36 -0.0129,1.0864 -0.161149,1.79463 -0.26444,2.88 -0.157432,1.65428 0.28381,4.45953 -0.156055,6.06123 -0.336758,1.22627 -1.294893,1.2549 -2.458272,1.29877 -1.052392,0.0397 -1.928261,0.003 -2.366914,1.0074 -0.469697,1.07578 -0.193086,2.35988 -0.193086,3.4726 0,3.17135 0,7.38435 0,10.56 0,1.17236 -0.407968,2.95402 0.328887,4.05828 0.507012,0.7598 1.310703,0.71678 2.231113,0.74049 0.730342,0.0188 1.710391,-0.14315 2.231114,0.51431 1.350369,1.70499 0.328886,6.8452 0.328886,9.08692 v 24.64 c 0,2.38316 -1.019785,9.98791 1.606173,10.22123 0.94943,0.0844 2.02424,0.16219 2.68074,-0.49432 0.60035,-0.60035 0.50726,-1.55701 0.51284,-2.36691 0.0167,-2.43031 2.4e-4,-4.92379 2.4e-4,-7.36 0,-9.40867 0.32,-18.70838 0.32,-28.16 0,-2.9309 1.20678,-8.08442 -0.37728,-10.45828 -0.74722,-1.11977 -3.38978,-0.40543 -4.229626,-1.07061 -1.414844,-1.12058 -0.549131,-5.04228 -0.511602,-7.03088 0.08128,-4.30666 4.535878,-0.7175 5.071108,-3.859 0.25596,-1.50233 0.0474,-4.03289 0.0474,-5.74123 0,-3.52617 0,-7.38871 0,-10.88 0,-1.31559 0,-2.18184 0,-3.52 0,-3.21383 -0.24668,-7.71701 0.0543,-10.88 0.13715,-1.44114 0.26508,-2.28483 0.26567,-3.84 0.006,-14.36489 0,-28.82633 0,-43.2 0,-2.81941 0.2852,-5.02528 0.18123,-7.67383 -0.0992,-2.52837 -3.24783,-0.96855 -4.46814,-1.93506 -1.429879,-1.13249 -0.677656,-5.65019 -0.49433,-7.664938 0.13294,-1.46094 0.98554,-1.63029 2.22149,-1.76495 1.38675,-0.15109 2.53156,0.32661 2.83235,-1.45876 0.48546,-2.88143 0.0474,-9.16826 0.0474,-12.46246 0,-10.22676 0.32,-20.42418 0.32,-30.72 V 21.100865 c 0,-3.063574 1.35056,-9.251524 0.12692,-11.7382823 -0.45383,-0.922285 -1.53362,-0.721484 -2.36692,-0.742949 -0.88166,-0.02272 -1.71711,0.02978 -2.23111,-0.740488 -0.91805,-1.375781 -0.34012,-4.633106 -0.32864,-6.298282 0.008,-1.19279203 -0.15481,-2.26499903 1.29851,-2.51259703 1.12199,-0.19115197 2.49355,-0.36369097 3.30816,0.281484 1.13056,0.89543 0.001,2.89625003 0.84197,3.95802803 0.70483,0.889941 2.6441,0.888515 3.73408,0.184199 0.91188,-0.589219 0.79517,-3.52882803 1.57012,-4.14222703 0.85441,-0.67628897 3.44375,-0.46513597 3.95803,0.1842 1.02311,1.291777 0.33237,4.51109303 0.32888,6.20691403 -0.002,1.003945 0.21933,1.971035 -0.51308,2.551113 -1.83199,1.450977 -4.38265,-0.767246 -4.59284,2.5691413 -0.2828,4.488828 -0.0141,10.414414 -0.0141,15.039743 0,10.38729 -0.32,20.68655 -0.32,31.04001 v 27.52 c 0,3.40195 -0.72903,8.79607 0.10173,11.82123 0.31973,1.16427 1.1194,1.24126 2.13852,1.29284 0.75842,0.0384 1.7122,-0.13586 2.23087,0.51901 1.05396,1.33073 0.46771,5.748948 0.31012,7.480738 -0.27638,3.0372 -4.94581,0.46317 -5.09506,3.84766 -0.15725,3.56576 -0.006,9.03977 -0.006,12.79852 0,9.49398 -0.32,19.01193 -0.32,28.48 v 30.72 c 0,3.51506 -0.26891,9.59449 0.0188,12.79506 0.25467,2.83334 4.51615,0.82314 4.76248,3.53111 0.19101,2.09971 0.8415,6.14479 -0.49432,7.48074 -0.94044,0.94055 -4.32517,0.002 -4.53086,2.1316 -0.10824,1.12047 0.15868,1.79813 0.0585,2.86149 -0.0767,0.81387 -0.0751,1.42533 -0.0899,2.24 -0.16749,9.23435 -0.0447,18.72969 -0.0447,28.16 0,3.72674 -0.002,7.47547 0,11.2 6.3e-4,1.38205 -0.28101,2.98522 1.29876,3.41828 2.86836,0.78627 3.26679,-0.97846 3.5926,-3.73828 1.09295,-9.25801 0.22864,-20.83658 0.22864,-30.72 0,-2.34311 -0.005,-4.69809 0,-7.04 0.002,-0.79719 -0.16331,-2.01539 0.51309,-2.55111 1.62951,-1.29061 3.13444,0.86103 4.09383,-1.33629 0.58495,-1.33975 0.11955,-4.22061 0.22173,-5.7126 0.0857,-1.25184 0.27594,-2.00848 0.29012,-3.2 0.0264,-2.22151 0.47727,-6.96654 -0.10049,-8.9126 -0.39032,-1.31467 -1.69933,-0.96432 -2.77803,-1.01357 -0.99996,-0.0457 -1.82541,-0.15245 -2.13852,-1.2926 -0.615,-2.23944 -0.22243,-4.69904 0.0825,-7.02123 0.64348,-4.90082 0.1358,-10.38074 0.1358,-15.36 v -37.76 c 0,-3.53803 0.32,-7.02707 0.32,-10.56 0,-1.76846 -0.38593,-4.07 0.10173,-5.7126 0.34409,-1.15898 1.47884,-0.96378 2.45803,-1.01333 0.91472,-0.0463 1.66585,-0.12814 2.04716,-1.00148 0.88516,-2.02735 0.48939,-4.46472 0.51185,-6.3526 0.0299,-2.51087 0.10239,-8.124868 -0.005,-10.558508 -0.09,-2.03981 -0.83124,-1.87813 -2.55358,-1.92272 -1.27284,-0.0329 -2.0818,-0.0699 -2.22149,-1.60494 -0.28412,-3.12218 -0.0188,-7.88207 -0.0188,-11.19382 v -24.96 c 0,-4.36247 -0.26803,-8.46768 0.0286,-12.80001 0.0922,-1.34681 0.28468,-2.18804 0.29111,-3.52 0.0218,-4.51304 2.4e-4,-9.52084 2.4e-4,-14.079997 0,-2.593554 -0.0463,-5.793047 0.001,-8.319746 0.0635,-3.359981 4.44334,-1.21 5.0084,-3.846426 0.54694,-2.5518953 0.10993,-6.6329503 0.11011,-9.5938293 9e-5,-1.351034 -0.34074,-3.19328103 1.29876,-3.47259703 1.09748,-0.18697297 2.90615,-0.27447297 3.49236,0.465684 0.9512,1.200976 0.14091,3.09736303 0.0375,4.60691403 -0.25389,3.707304 0.26626,8.9433793 -0.0474,12.4785163 -0.31745,3.577871 -4.78488,0.257285 -5.08248,3.527656 -0.27772,3.051973 -0.0188,9.096345 -0.0188,12.473825 v 30.40001 c 0,5.43814 -0.32,10.86955 -0.32,16.32 0,2.23187 -0.44754,5.02105 0.10173,7.02123 0.35023,1.27533 1.3422,1.26879 2.45827,1.29754 0.72969,0.0188 1.70861,-0.14541 2.23112,0.51431 0.62866,0.79375 0.33386,1.91024 0.32864,3.00692 -0.006,1.23128 -0.15066,1.99402 -0.26543,3.19999 -0.14067,1.47825 -0.0543,2.44318 -0.0543,3.84 0,4.104488 0,8.653938 0,12.799998 0,1.62856 0.31118,3.68185 -0.10172,5.0726 -0.63038,2.12327 -4.74677,-0.16384 -4.99952,2.61358 -0.22494,2.47188 -0.0188,7.18468 -0.0188,9.91383 v 16 c 0,2.4009 0.0266,5.33907 -0.001,7.68 -0.0115,0.96875 -0.11613,1.61683 -0.22741,2.56 -0.23773,2.01486 -0.0914,4.85763 -0.0914,7.04 0,5.54082 0,11.09773 0,16.64 0,2.05797 -0.68411,5.15558 0.19309,6.93828 0.38626,0.78498 1.27891,0.7206 2.04716,0.74049 0.91636,0.0237 1.69617,-0.12522 2.32223,0.51431 0.58913,0.60182 0.56771,1.56227 0.5437,2.36692 -0.0371,1.24326 -0.28916,2.19351 -0.30495,3.52 -0.0494,4.15209 -0.001,8.8376 -0.001,12.8 0,1.07129 0,1.75555 0,2.88 0,1.28312 0,2.0523 0,3.2 0,0.94812 0.25069,2.51642 -0.19308,3.41828 -0.70337,1.42941 -3.04216,0.30787 -4.18519,1.07061 -1.57589,1.05158 -0.74173,5.97982 -0.74173,7.67111 0,4.60828 0,9.53795 0,14.08 0,3.06174 0,5.45979 0,8.64 0,1.97773 -0.0132,4.11996 2.5e-4,6.08 0.006,0.879 -0.0979,1.99098 0.74148,2.55111 1.25688,0.83872 3.73114,0.36143 4.18519,-0.67851 0.8646,-1.98026 0.19308,-5.38901 0.19308,-7.6326 v -18.56 c 0,-1.61606 -0.0284,-3.54082 0.001,-5.11975 0.0135,-0.71677 -0.0411,-1.66269 0.74024,-2.04716 0.57893,-0.28487 1.13785,-0.1768 1.81827,-0.19432 0.83087,-0.0214 1.71969,0.0259 2.23112,-0.74049 1.34357,-2.01348 0.32888,-7.01836 0.32888,-9.49828 0,-8.42545 0,-16.85496 0,-25.28 0,-1.00621 0.28341,-2.88028 -0.51308,-3.51112 -0.57562,-0.45589 -1.30712,-0.29738 -2.04667,-0.33482 -1.0126,-0.0512 -1.8222,-0.14098 -2.13852,-1.29283 -0.79069,-2.87924 -0.10173,-7.67076 -0.10173,-10.86123 0,-6.80602 0,-13.68098 0,-20.48 0,-2.58435 -0.14544,-4.81803 0.0286,-7.36 0.074,-1.08103 0.26096,-1.8312 0.28667,-2.88 0.0993,-4.05355 -1.02185,-11.51232 0.10641,-15.3126 0.31159,-1.04951 1.23191,-0.97312 2.13852,-1.0074 1.28247,-0.0485 2.41353,-0.0844 2.77334,-1.60618 0.52015,-2.19997 -0.41543,-5.82881 -0.12223,-8.31383 0.76586,-6.49099 0.22864,-13.302718 0.22864,-19.839998 0,-3.60105 0.59251,-6.83288 -0.32,-9.91999 -0.62845,0.14963 -1.36481,0.32505 -2.24024,0.30914 -0.74254,-0.0135 -1.46249,-0.0589 -1.91087,-0.73086 -0.897,-1.34424 -0.32889,-3.93637 -0.32889,-5.65828 0,-2.61448 0,-6.14991 0,-8.64 0,-1.05047 0,-1.787 0,-2.88 0,-0.9786 0,-1.63596 0,-2.56 0,-0.87604 0,-1.65327 0,-2.56 0,-2.66204 -0.10434,-5.64961 0.0126,-8.32001 0.0659,-1.50398 0.3002,-2.39517 0.30716,-3.84 0.0183,-3.79771 2.4e-4,-8.004 2.4e-4,-11.84 0,-2.99048 -0.11842,-7.41318 0.006,-10.23851 0.12454,-2.824182 2.1045,-1.381623 3.78642,-2.114573 1.6529,-0.720293 1.28918,-2.598379 1.32272,-3.966914 0.0408,-1.66418 0.005,-4.013711 0.005,-5.76 0,-3.9171493 -0.32491,-9.0107823 0.0188,-12.79382833 0.13002,-1.431153 1.03114,-1.736211 2.22149,-1.870372 0.67973,-0.07662 1.46271,-0.19466797 2.13803,0.137286 1.1343,0.557558 0.80239,2.67845603 0.65037,3.96691303 -0.52137,4.421466 -0.22834,8.9882243 -0.22834,13.4400013 0,2.835625 0.87493,8.927837 -0.19308,11.098287 -0.61526,1.25035 -4.32742,0.22791 -4.82519,2.04048 -0.67382,2.45366 -0.10173,6.49694 -0.10173,9.26123 v 21.12001 11.52 c 0,1.63781 -0.32545,3.63369 0.10173,5.07259 0.47575,1.60246 4.47841,0.4036 4.67951,2.61358 0.26314,2.89162 0.0188,8.33715 0.0188,11.51383 0,8.0932 -0.32,16.205188 -0.32,24.319998 0,3.01291 0.6521,7.79623 -0.10172,10.54124 -0.38379,1.39753 -1.59298,1.26936 -2.77803,1.29999 -0.74218,0.0192 -1.65015,-0.0663 -2.04716,0.74049 -1.3081,2.65836 -0.19309,8.29248 -0.19309,11.41828 v 24.96 c 0,2.95761 -0.22513,7.87367 0.0188,10.55383 0.14989,1.64707 0.88431,1.57033 2.22149,1.60494 0.8675,0.0224 1.88706,-0.23174 2.36667,0.74295 0.87349,1.77515 0.19308,5.05599 0.19308,7.25828 0,6.4109 -0.32,12.78137 -0.32,19.2 v 15.04 c 0,1.93588 0.55489,4.63949 -0.19308,6.3526 -0.39861,0.91295 -4.03621,0.98172 -4.41383,1.74912 -0.59148,1.20205 -0.19309,3.01752 -0.19309,4.37828 0,3.21512 -0.22471,6.39047 -0.30395,9.6 -0.0797,3.22859 -0.0161,6.71672 -0.0161,9.92 0,1.17227 -0.3105,2.63918 0.19309,3.7926 0.54771,1.25443 1.93194,1.18514 3.32074,0.96 1.7175,-0.27842 1.60548,-1.93123 1.60617,-3.4726 0.002,-4.37187 0,-8.74775 0,-13.12 0,-2.10537 -1.06788,-6.41896 0.51309,-7.67111 1.22649,-0.97139 3.97823,0.29121 4.50519,-1.62766 0.48452,-1.76432 0.10172,-5.30604 0.10172,-7.34123 v -18.56 c 0,-7.58541 0.13,-15.15707 0.31532,-22.72 0.057,-2.3274 0.72014,-6.71602 -0.1884,-8.53703 -0.59031,-1.18321 -1.98625,-0.60864 -3.00543,-0.70743 -1.01661,-0.0985 -1.67114,-0.1432 -1.87408,-1.33429 -0.38283,-2.24694 -0.0474,-5.84457 -0.0474,-8.30125 0,-6.57157 0.32,-12.95273 0.32,-19.52 0,-2.58398 -0.91901,-7.23822 0.19309,-9.49828 0.43582,-0.88569 1.51653,-0.70483 2.36691,-0.74765 1.02079,-0.0514 1.9138,-0.17088 2.36692,-1.29283 1.36219,-3.3729 0.19308,-10.12723 0.19308,-14.06124 0,-9.92752 0.32,-19.854548 0.32,-29.759998 0,-3.52071 0.2773,-9.22045 -0.0188,-12.47383 -0.17833,-1.95955 -1.4141,-1.54627 -2.861,-1.61235 -0.92046,-0.042 -1.67052,-0.13857 -2.04716,-1.00123 -0.76151,-1.74416 -0.22747,-3.47816 -0.1884,-5.07259 0.0482,-1.96723 0.31531,-4.36999 0.31531,-6.4 v -18.88001 c 0,-2.13529 -0.62718,-5.59128 0.19309,-7.25828 0.65839,-1.338 4.31791,-0.19328 4.82519,-2.04049 0.39237,-1.42878 0.10172,-3.42984 0.10172,-5.10123 V 15.340865 c 0,-1.911035 0,-4.214512 0,-6.0800003 0,-1.572735 -0.038,-2.418262 0.005,-4.16 0.035,-1.426231 0.25578,-2.227247 0.3121,-3.519747 0.0859,-1.97070303 1.86046,-3.004628 3.79581,-2.45728503 1.24574,0.352305 1.00733,2.19754003 1.00741,3.41703103 2.7e-4,4.268145 -0.32,8.5181843 -0.32,12.8000013 v 15.999997 c 0,1.92248 0.55293,4.78217 -0.19309,6.29829 -0.81199,1.65017 -4.15584,-0.0216 -4.55951,2.36023 -0.31454,1.85592 -0.0473,4.71477 -0.0474,6.70148 -3e-4,4.80375 -0.32,9.61805 -0.32,14.40001 0,1.58808 -0.30962,5.3414 0.32889,6.29828 0.49362,0.73972 1.27378,0.71582 2.23111,0.74049 1.4768,0.038 2.37722,-0.22895 2.54125,1.6074 0.11695,1.30943 -0.2623,3.0757 -0.29656,4.47383 -0.0809,3.30257 -0.005,6.61638 -0.005,9.92 0,11.73882 -0.32,23.484508 -0.32,35.199998 v 10.88 c 0,1.53086 0.10935,3.70593 -0.0188,5.11382 -0.28365,3.11695 -4.53723,0.0348 -5.05384,3.21235 -1.01131,6.22042 -0.0474,12.54153 -0.0474,18.87383 0,2.30457 -0.29368,5.57582 0.0474,7.67383 0.22885,1.40769 0.97084,1.54419 2.19284,1.6 1.29082,0.0589 2.54553,-0.37854 2.83235,1.30492 0.43131,2.53152 -0.2715,7.38418 -0.27259,10.22125 v 25.92 21.44 c 0,2.76322 0.76933,6.55818 -0.19309,8.94123 -0.7347,1.81918 -2.91841,0.44326 -4.41383,1.62766 -0.86183,0.68257 -0.60024,3.91201 -0.74173,5.11111 -0.33231,2.81647 -0.75647,9.98883 0.0104,12.78123 0.26518,0.96563 0.9096,1.19967 1.81976,1.28 0.89632,0.0791 2.01203,0.22322 2.68543,-0.31012 0.65277,-0.51701 0.50725,-1.41974 0.51284,-2.23111 0.0139,-2.01234 2.5e-4,-5.06154 2.5e-4,-7.04 0,-1.34 -0.43584,-2.67215 0.19308,-4.1126 0.38126,-0.87322 1.16051,-0.96074 2.04716,-1.00123 0.90965,-0.0415 2.19116,0.2591 2.68667,-0.74789 1.1763,-2.39055 0.19309,-7.87805 0.19309,-10.77828 0,-7.03094 0.31957,-14.29744 0.32,-21.12 1.3e-4,-2.22508 0,-4.67436 0,-7.04 v -27.52 c 0,-2.84584 0.99985,-8.35393 -0.19309,-10.77828 -0.44777,-0.90998 -1.51504,-0.70456 -2.36667,-0.74766 -0.84696,-0.0428 -1.65032,-0.0926 -2.04716,-1.00147 -0.65179,-1.49283 -0.19308,-3.36484 -0.19308,-5.07259 0,-3.76178 -0.15676,-8.144 0.006,-11.83852 0.0745,-1.68907 0.87612,-1.8442 2.23407,-1.9326 1.41858,-0.0923 2.54161,0.1081 2.83235,-1.6074 0.21373,-1.2611 0.0474,-3.05021 0.0474,-4.46148 v -9.92 c 0,-12.41512 0.32,-24.73515 0.32,-37.119998 v -17.28 c 0,-2.02995 0.2631,-5.51875 -0.0474,-7.34123 -0.41208,-2.41866 -4.02417,-0.19528 -4.65087,-2.30618 -0.36785,-1.23902 -0.10172,-2.95607 -0.10172,-4.43259 v -9.60001 c 0,-1.27314 -0.41201,-3.03146 0.32888,-3.96691 0.45551,-0.57512 1.26747,-0.49521 1.91136,-0.51185 0.86437,-0.0223 1.74293,0.10943 2.36667,-0.51432 0.60034,-0.60035 0.50726,-1.55703 0.51284,-2.36692 0.0145,-2.11363 2.5e-4,-4.2813 2.5e-4,-6.4 0,-8.30978 -0.73189,-17.018337 0.0543,-25.2799973 0.20811,-2.186778 -0.68028,-7.448379 0.59456,-9.08814503 0.56738,-0.729785 1.93941,-0.761387 2.86963,-0.66123 3.04026,0.327363 1.60149,7.98984303 1.60149,10.70937503 V 38.060862 c 0,2.49893 1.05609,7.97823 -0.32889,9.72692 -0.67318,0.84996 -3.45905,0.19332 -4.27803,0.84197 -1.40883,1.11582 -0.59377,5.35752 -0.50691,7.35086 0.13928,3.19682 4.65914,1.24752 4.78765,4.16174 0.1105,2.5057 0.006,6.31447 0.006,8.95852 0,6.55642 0,13.30318 0,19.84 0,1.66638 -0.1192,3.26083 -0.26568,4.79999 -0.11164,1.17313 -0.0543,2.02323 -0.0543,3.2 0,2.98029 0,6.270408 0,9.279998 v 30.40001 c 0,3.02523 0.14032,5.51085 -0.36741,8.63382 -0.21353,1.31343 -1.01455,1.54062 -2.19284,1.60025 -0.79964,0.0405 -1.71131,-0.13697 -2.23087,0.51901 -0.67357,0.85046 -0.3234,2.13862 -0.32913,3.32692 -0.007,1.54741 -0.40162,2.50656 -0.2963,4.15851 0.097,1.5209 0.90089,1.85524 2.21679,1.91531 1.39427,0.0637 2.68966,-0.2705 2.861,1.61235 0.18812,2.0673 0.0188,4.88158 0.0188,7.03383 v 14.72 c 0,16.41607 -0.32,32.84348 -0.32,49.28 v 11.52 c 0,1.44139 0.43264,2.91479 -0.32889,4.02123 -0.52565,0.76373 -1.42248,0.74301 -2.23111,0.77408 -0.79647,0.0306 -1.71538,-0.1334 -2.23112,0.51778 -0.49755,0.6282 -0.3272,1.54515 -0.32888,2.36691 -0.004,1.83836 -0.50604,4.55748 0.19308,5.97828 0.48216,0.97985 3.16094,1.12766 4.09852,0.41283 1.30943,-0.99836 0.23421,-2.79629 1.15728,-3.95802 0.6704,-0.84373 2.41524,-0.72264 3.46371,-0.41137 2.32571,0.69047 -0.33608,4.92203 3.24765,5.01062 1.32928,0.0329 2.2313,-0.1891 2.52495,-1.59851 0.28615,-1.37338 0.33846,-2.24299 0.35358,-3.51383 0.0171,-1.43363 0.36492,-2.92676 -0.19186,-4.05828 -0.4568,-0.9283 -1.52603,-0.72129 -2.36691,-0.74295 -1.02868,-0.0265 -1.97554,-0.0228 -2.35433,-1.00617 -1.21006,-3.14133 0.11433,-8.13803 0.11433,-11.4726 v -33.6 c 0,-4.86926 0,-10.22016 0,-15.04 0,-1.21182 0,-2.01133 0,-3.2 0,-2.34457 -0.0916,-5.30172 0.0126,-7.68 0.058,-1.32332 0.27326,-1.99778 0.30272,-3.2 0.0653,-2.66692 -0.10752,-9.15422 0.0109,-11.83852 0.0862,-1.95473 1.02677,-1.8832 2.55358,-1.92271 1.69952,-0.044 2.07753,-0.40469 2.33013,-2.23902 0.21693,-1.57535 0.23312,-2.36495 0.23012,-4.15975 -0.002,-1.00692 0.14894,-2.28522 -0.55754,-3.00692 -0.55489,-0.56683 -1.22914,-0.48383 -2.00271,-0.51308 -1.05225,-0.0398 -1.94343,-0.038 -2.36667,-1.00741 -0.71691,-1.64199 -0.19308,-5.41835 -0.19308,-7.31259 0,-4.3129 0.25115,-8.93418 0.27135,-13.12 0.005,-1.04166 0.0473,-1.77433 0.0486,-2.88 0.009,-7.06489 0,-14.35453 0,-21.44001 0,-4.765948 0,-10.002338 0,-14.719988 0,-1.21186 0,-2.01129 0,-3.2 0,-3.12782 0.30642,-4.91579 0.31975,-7.68 0.0168,-3.49112 2.5e-4,-7.35397 2.5e-4,-10.88 0,-1.596 -0.3389,-3.58846 0.10172,-5.0726 0.3415,-1.15024 1.47787,-0.97444 2.45828,-1.01209 0.72189,-0.0277 1.48871,-0.006 2.04691,-0.55285 0.6085,-0.59567 0.5073,-1.51954 0.51283,-2.32246 0.0118,-1.7154 0.3534,-4.48014 -0.10146,-6.03383 -0.34225,-1.16905 -1.43631,-1.20215 -2.45828,-1.29875 -1.05248,-0.0995 -1.93181,-0.0383 -2.36692,-1.03483 -0.3683,-0.84355 -0.19308,-2.22361 -0.19308,-3.1526 0,-2.60349 -0.20268,-6.14796 0.0913,-8.64 0.11074,-0.93851 0.21589,-1.59173 0.22742,-2.56 0.0267,-2.24582 0.001,-5.05709 0.001,-7.36 V 9.9008647 c 0,-2.493301 -0.005,-5.210313 0,-7.680001 0.002,-0.76914 -0.15547,-1.75535103 0.32888,-2.36691303 0.56007,-0.707149 1.57597,-0.547832 2.54963,-0.506914 2.73401,0.114902 2.03268,2.52220603 1.93408,4.79382803 -0.0805,1.853808 -0.0126,3.098261 -0.0126,5.12 V 34.860862 c 0,1.97774 -0.0132,4.11997 2.5e-4,6.08 0.005,0.78758 -0.089,1.76514 0.51283,2.36692 0.55854,0.55853 1.24553,0.48273 2.04666,0.51308 0.95703,0.0363 1.83088,-0.0289 2.13854,1.00741 0.66703,2.24677 0.10172,4.00929 0.10172,6.03259 0,2.4203 0.31511,9.05338 -0.0474,11.18124 -0.36834,2.16195 -4.11265,0.48201 -4.87951,2.04048 -0.79775,1.62127 -0.19308,4.8645 -0.19308,6.93829 v 18.56 c 0,4.55917 0.0215,9.56694 -2.6e-4,14.079988 -0.0115,2.37602 -0.31974,3.72906 -0.31974,6.4 0,1.33817 0,2.20445 0,3.52001 0,5.84177 0,12.33761 0,18.24 0,2.78654 -0.65403,6.68704 0.10171,9.23259 0.30616,1.03123 1.2294,0.98265 2.13854,1.00618 0.84205,0.0218 1.92367,-0.15733 2.36666,0.74295 0.59584,1.2109 0.19309,2.97975 0.19309,4.37828 0,3.77289 0.52513,9.59207 -0.0474,13.11383 -0.24918,1.53269 -1.22392,1.57175 -2.51259,1.60494 -1.1543,0.0297 -2.26502,-0.15319 -2.5126,1.29998 -0.74332,4.36299 -0.0474,9.90431 -0.0474,14.70125 0,8.91096 -0.27784,17.86556 -0.31975,26.56 -0.007,1.46355 -2.5e-4,3.46506 -2.5e-4,5.12 v 20.16 c 0,3.03455 -0.72047,7.42318 0.10171,10.1926 0.33512,1.12879 1.4542,0.98265 2.45803,1.00863 0.94774,0.0245 1.83074,-0.0306 2.13854,1.00617 0.66812,2.25047 0.45252,4.65131 0.51504,6.6726 0.0554,1.78951 -0.92768,3.49787 -0.31161,5.74123 0.38096,1.38721 1.70336,1.40072 3.0968,1.28 2.2327,-0.19344 1.92137,-2.00724 1.92149,-3.82123 2.7e-4,-4.25738 0.002,-8.54514 0,-12.8 -5.3e-4,-1.16525 0.33289,-2.47814 -0.74172,-3.00691 -0.93252,-0.45887 -3.59053,0.0324 -3.95657,-1.20049 -0.61982,-2.08776 -0.10171,-6.43838 -0.10171,-8.9126 v -22.08 c 0,-3.63567 0,-7.59985 0,-11.2 0,-2.05908 -0.15727,-3.53668 0.0543,-5.76 0.10379,-1.09059 0.25166,-1.80457 0.26446,-2.88 0.0369,-3.10168 10e-4,-7.05518 10e-4,-10.24 0,-1.99778 -0.63782,-4.60967 0.19308,-6.29828 0.39811,-0.80905 1.30477,-0.72131 2.04717,-0.74049 1.04244,-0.0269 2.2015,0.10256 2.68666,-1.00864 0.74797,-1.7131 0.19309,-4.41669 0.19309,-6.35259 v -14.72 c 0,-2.08728 0.65457,-4.8956 -0.19309,-6.61828 -0.4568,-0.92832 -1.52602,-0.72129 -2.36691,-0.74295 -1.04813,-0.027 -1.95079,-0.0411 -2.36666,-1.00618 -0.69682,-1.61711 0.11902,-3.22337 0.1264,-4.75259 0.0183,-3.79771 2.6e-4,-8.00402 2.6e-4,-11.84 V 93.100862 c 0,-1.71511 -0.003,-3.76458 0,-5.43999 10e-4,-0.88205 0.0144,-1.63586 0.1358,-2.56 0.1065,-0.81121 0.17328,-1.42508 0.18297,-2.24 0.0384,-3.23221 -0.27112,-9.59448 0.02,-12.79383 0.13835,-1.52053 1.02543,-1.53942 2.22148,-1.61729 0.76557,-0.0498 1.69219,-0.002 2.36666,-0.60914 1.27783,-1.15068 0.51309,-3.96478 0.51309,-5.77974 v -15.36001 c 0,-2.01566 0.41834,-4.84267 -0.10172,-6.68519 -0.3516,-1.24568 -1.37391,-1.25649 -2.45803,-1.31135 -0.91064,-0.0461 -1.82945,0.0302 -2.13854,-1.01086 -0.59859,-2.01623 -0.10171,-4.79039 -0.10171,-6.9926 V 15.660865 c 0,-3.675313 0,-8.2620903 0,-11.8400003 0,-1.554727 -0.68493,-4.25291003 1.60617,-4.46123103 2.52342,-0.229453 3.49672,0.09803 3.51357,2.54123003 0.0333,4.831309 -0.31943,10.1812513 -0.31974,15.0400013 v 11.839997 c 0,1.53608 -0.36985,2.82327 0.19308,4.1126 0.39516,0.90504 1.17928,0.95764 2.04717,1.00149 1.0493,0.053 2.15879,-0.19571 2.68666,1.01332 1.03879,2.37922 0.30385,7.05527 0.18049,9.87259 -0.10176,2.32411 -0.3074,4.66139 -0.3074,7.04 0,1.44735 0,2.62186 0,4.16001 0,2.09099 0,3.85296 0,6.08 0,2.64466 0.98986,8.48203 -0.32889,10.45828 -0.60305,0.90371 -1.57566,0.71775 -2.55086,0.74295 -1.44516,0.0373 -2.16283,0.30429 -2.23408,1.92025 -0.0763,1.7302 -0.006,2.81086 -0.006,4.47852 0,6.11623 0,12.42601 0,18.55999 0,4.145928 0.0195,8.695728 -2.6e-4,12.799998 -0.005,1.1294 -0.10398,1.82569 -0.22838,2.88001 -0.2357,1.9976 -0.0914,5.2837 -0.0914,7.36 0,1.5549 0,2.52805 0,4.16 0,1.87273 -0.67723,4.03923 0.19308,6.03259 0.42061,0.96336 1.31565,0.9791 2.36692,1.00618 0.73248,0.0189 1.7089,-0.14502 2.23111,0.51431 0.51748,0.65337 0.32707,1.48315 0.32889,2.36692 0.005,2.21646 0,4.49751 0,6.72 0,6.23057 -0.32,12.41377 -0.32,18.56 0,2.90777 0.23533,6.80129 -0.0188,9.59383 -0.15846,1.74146 -1.1766,1.5873 -2.54123,1.60617 -1.13442,0.0157 -2.26973,-0.12684 -2.5126,1.29875 -0.23578,1.3839 -0.0474,3.42551 -0.0474,4.78125 0,1.17765 0,1.91551 0,3.2 0,9.51 0.81791,21.85035 -0.22864,30.72 -0.26132,2.21488 -0.0914,3.76059 -0.0914,5.76 0,0.9326 0,1.64557 0,2.56 0,2.69256 -0.0203,5.00857 2.5e-4,8 0.005,0.70408 -0.0924,1.50728 0.32863,2.13828 0.45373,0.67994 1.15528,0.70102 1.91137,0.73555 0.86906,0.0397 1.98232,-0.19858 2.55086,0.51926 0.51748,0.65337 0.32707,1.48314 0.32889,2.36691 0.006,2.74346 0,5.56893 0,8.32 v 9.6 c 0,1.01004 -0.27879,2.55965 0.32888,3.32691 0.68494,0.86481 2.34424,0.71833 3.49235,0.37432 1.92134,-0.57566 1.29877,-3.77637 1.29877,-5.30123 0,-4.34133 0,-9.64605 0,-14.08 0,-2.28063 1.04875,-7.66752 -0.32889,-9.40691 -0.5158,-0.65125 -1.47496,-0.48873 -2.23111,-0.51778 -1.1037,-0.0424 -2.09332,-0.0171 -2.45829,-1.31012 -0.72111,-2.55488 -0.10171,-7.56318 -0.10171,-10.52519 0,-8.8074 0.32,-17.48363 0.32,-26.24 0,-2.93776 -1.02459,-7.98364 0.19308,-10.45828 0.43682,-0.88774 1.4968,-0.71297 2.36692,-0.74641 1.53611,-0.059 2.37816,-0.10592 2.54123,-1.92025 0.24209,-2.69354 0.0188,-7.60696 0.0188,-10.55506 v -24.64 c 0,-3.11286 0.54877,-8.46853 0.12691,-11.1526 -0.21014,-1.33698 -1.66271,-0.96682 -2.68666,-1.01358 -0.84941,-0.0388 -1.64801,-0.087 -2.04717,-1.00123 -1.30469,-2.98824 -0.19308,-8.65998 -0.19308,-12.11259 0,-7.90625 0.32,-15.791558 0.32,-23.679998 0,-3.3243 -0.48868,-8.03471 0.0474,-11.18123 0.24346,-1.42903 1.37248,-1.25967 2.5126,-1.30346 0.91408,-0.0351 1.91289,-0.0214 2.36691,-1.0284 0.76074,-1.68732 0.19309,-4.00498 0.19309,-6.00691 v -14.4 c 0,-6.29282 -0.0435,-12.58737 9.9e-4,-18.88001 0.0159,-2.25273 0.61799,-5.62726 0.2716,-7.66123 -0.28107,-1.65047 -1.57253,-1.24742 -2.83234,-1.30494 -0.84822,-0.0387 -1.64861,-0.0884 -2.04717,-1.00123 -0.8759,-2.00615 -0.19308,-4.999315 -0.19308,-7.312597 0,-5.475664 -0.33182,-10.416621 0.0286,-15.6800003 0.0899,-1.313497 0.2706,-1.976602 0.29039,-3.200001 0.0167,-1.03271403 0.10547,-1.83091703 0.32098,-2.55999903 1.69404,0.40332 2.33847,0.433672 4.16,0 1.25463,4.24443303 0.32,12.57259733 0.32,17.60000033 0,2.034746 -0.57791,4.586719 0.19308,6.352598 0.57924,1.326659 4.41424,0.532344 4.8252,1.990859 0.80185,2.8459 -0.21828,7.6866 -0.21828,10.85654 v 25.28001 c 0,5.02839 0.0516,10.03224 -0.29137,15.04 -0.12582,1.83716 0.49066,4.08095 -0.22172,5.71259 -0.40137,0.91928 -1.19051,0.95815 -2.04717,1.00149 -0.73601,0.0373 -1.45408,-0.12057 -2.05135,0.3348 -0.80416,0.61313 -0.79712,2.10877 -0.82371,3.19112 -0.19355,7.88015 -0.005,15.796518 -0.005,23.679988 0,3.10645 -0.24682,7.63517 0.0188,10.55383 0.2333,2.56384 2.6433,0.64816 4.26814,1.93506 0.95922,0.75972 0.51309,4.54167 0.51309,5.75112 0,1.33816 0,2.20442 0,3.52 0,10.23601 0,21.65527 0,32 0,3.67547 0.19308,10.5223 -0.0286,13.76 -0.0698,1.01873 0.12922,3.07527 -1.03308,3.64691 -1.2203,0.60016 -3.15737,-0.40197 -4.0494,0.93481 -1.09318,1.63822 -0.32888,5.07431 -0.32888,6.93828 0,7.14644 0,14.29351 0,21.44 0,2.57144 -0.33809,6.62262 0.0474,8.94592 0.20736,1.24984 0.98517,1.5564 2.19285,1.58765 0.92418,0.0239 2.07781,-0.42824 2.46272,0.71854 0.63316,1.88644 0.41703,3.63752 0.41703,5.70789 0,1.86607 -0.10428,2.784 -0.26569,4.48 -0.17121,1.79896 -0.0543,3.92645 -0.0543,5.76 0,5.13994 -0.77157,11.27627 0.0474,16.31383 0.20775,1.27789 1.01916,1.57555 2.19285,1.59531 0.79506,0.0134 1.49498,0.007 2.13803,-0.41086 0.82418,-0.53535 0.73525,-1.55683 0.74146,-2.45828 0.0142,-2.05986 2.6e-4,-4.32072 2.6e-4,-6.4 0,-7.83881 0,-14.32189 0,-22.08 0,-1.6632 0.63033,-6.59582 -0.32889,-7.80691 -0.50729,-0.64049 -1.33289,-0.49108 -2.23086,-0.51432 -0.7682,-0.0199 -1.66092,0.0445 -2.04717,-0.74049 -0.81064,-1.64744 -0.19308,-4.39588 -0.19308,-6.29828 v -15.36 c 0,-1.34539 -0.003,-2.85151 0,-4.16 0.001,-0.67711 -0.15389,-1.75735 0.32888,-2.36692 0.47192,-0.59584 1.15452,-0.4715 1.91137,-0.52445 0.94986,-0.0664 1.92732,-0.0488 2.55086,-1.03777 1.2791,-2.02887 0.32889,-5.9625 0.32889,-8.55086 0,-7.04848 -0.30231,-13.28836 0.0126,-20.48 0.0659,-1.50399 0.30018,-2.39518 0.30715,-3.84 0.0356,-7.3743 2.6e-4,-15.58824 2.6e-4,-23.04 0,-3.17437 0.25775,-7.51486 -0.0188,-10.55383 -0.17106,-1.87987 -1.45114,-1.54725 -2.85975,-1.61235 -1.86308,-0.0861 -1.90914,-0.80149 -1.92123,-2.55382 -0.0398,-5.77627 -2.5e-4,-12.96977 -2.5e-4,-18.880008 0,-2.058 -0.69668,-5.45003 0.19308,-7.25827 0.39131,-0.79526 1.28987,-0.71651 2.04717,-0.74147 1.17293,-0.0387 2.39031,0.0586 2.77803,-1.31506 0.66883,-2.36963 0.10172,-8.48605 0.10172,-11.16519 0,-1.17811 0,-1.95498 0,-3.2 0,-3.94977 0.32,-6.89377 0.32,-10.56 0,-9.36891 0,-19.66569 0,-29.12001 0,-3.54607 0.51328,-9.17027 -0.0474,-12.461227 -0.25148,-1.476153 -1.32197,-1.26918 -2.51234,-1.3 -1.71939,-0.04451 -2.20389,-0.394024 -2.23877,-2.239024 -0.0824,-4.359297 -0.004,-9.9492583 -0.001,-14.3997473 7e-4,-1.55806603 -0.27711,-3.01074203 1.60617,-3.18123003 5.0858,-0.46042897 3.52,5.42019503 3.51383,9.26123103 -0.002,1.5052933 -0.75862,3.2545513 -0.12567,4.7525983 0.41436,0.980664 1.32408,0.979336 2.36567,1.006171 0.84289,0.02172 1.92293,-0.159335 2.36691,0.74295 1.22139,2.482207 0.19309,8.182344 0.19309,11.098278 0,9.56959 -0.32,19.17081 -0.32,28.80001 0,10.7247 0.44019,21.63738 -0.29137,32.32 -0.10766,1.57207 0.16613,2.66416 -0.076,4.15382 -0.21769,1.33912 -1.03095,1.54147 -2.19285,1.60026 -0.9792,0.0495 -2.11394,-0.14565 -2.45802,1.01332 -0.707,2.38134 -0.0895,6.973688 -0.10198,9.552588 -0.0122,2.53819 -0.43703,4.22518 -0.31357,7.03877 0.0803,1.82967 0.96918,2.17568 2.55383,2.23655 1.29828,0.0499 2.38506,-0.10547 2.54123,1.61086 0.22467,2.46898 0.1341,7.73951 -0.16198,10.23383 -0.13773,1.16038 -0.0921,1.94321 -0.1232,3.2 -0.0451,1.82154 -0.0161,3.352 -0.0161,5.12 0,10.66331 0,21.62904 0,32.32 0,6.45109 0.0103,13.08763 0,19.52 -0.003,1.8991 0.16293,3.69398 -0.42172,5.71728 -0.35026,1.21213 -1.46531,1.2418 -2.45803,1.31135 -1.84877,0.12955 -2.23615,0.90061 -2.24025,2.89137 -0.007,3.58131 0.0169,7.65283 -2.6e-4,11.2 -0.007,1.41758 -0.749,2.95672 -0.12541,4.4326 0.41436,0.98066 1.32405,0.97933 2.36567,1.00617 0.74082,0.0191 1.71955,-0.1316 2.23111,0.51431 1.34357,1.69639 0.32889,6.86532 0.32889,9.08692 v 24.64 c 0,1.83691 0,3.96129 0,5.76 0,1.0751 -0.25758,2.35258 0.0573,3.4726 0.22238,0.79103 0.80145,0.93627 1.54543,0.98394 0.87705,0.0562 1.72783,0.0152 2.45557,-0.43531 0.8491,-0.52564 0.73504,-1.48937 0.74146,-2.42123 0.0156,-2.2642 2.6e-4,-4.75414 2.6e-4,-7.04 0,-9.55441 0.32,-18.91471 0.32,-28.48 0,-2.45695 1.15023,-8.49938 -0.32889,-10.36692 -0.51135,-0.64562 -1.49064,-0.49523 -2.23111,-0.51431 -0.78092,-0.0201 -1.49399,0.0411 -2.04692,-0.51186 -0.54886,-0.54886 -0.49875,-1.36359 -0.5116,-2.04691 -0.0295,-1.56777 -0.12369,-4.20457 0.0173,-5.75383 0.15254,-1.67627 1.22437,-1.56027 2.54123,-1.61086 1.32451,-0.0509 2.25412,-0.0515 2.51259,-1.60937 0.48979,-2.95192 0.0474,-9.11329 0.0474,-12.46594 0,-5.07578 -0.51133,-10.43141 0.1358,-15.36 0.12109,-0.92231 0.17939,-1.61787 0.18394,-2.56 0.0194,-4.01512 2.6e-4,-8.10448 2.6e-4,-12.16 v -24.64 c 0,-4.34179 -0.002,-9.18233 0,-13.44 5.4e-4,-1.43596 1.0722,-5.71513 -0.72914,-6.52569 -1.33286,-0.59974 -2.50422,0.55391 -3.55778,-0.43654 -0.56392,-0.53015 -0.4981,-1.28286 -0.5116,-1.99802 -0.0289,-1.52828 -0.11267,-4.64533 0.0173,-6.073578 0.16664,-1.83144 1.05597,-1.56915 2.54123,-1.60741 0.83086,-0.0214 1.71968,0.0259 2.23111,-0.74049 1.43211,-2.14613 0.32889,-7.78835 0.32889,-10.45827 0,-1.56537 0,-2.57258 0,-4.16 0,-3.34692 0.32,-5.76348 0.32,-8.96 0,-7.9061 0,-16.06997 0,-24.00001 0,-8.62822 0,-18.05726 0,-26.239997 0,-1.948672 -0.0977,-3.275137 0.0286,-5.12 0.1416,-2.067871 0.85973,-5.572012 -0.039,-7.632598 -0.74825,-1.7155473 -2.0993,-0.532012 -3.78223,-1.2933203 -1.13643,-0.514082 -0.99981,-1.528379 -1.00715,-2.594082 -0.0122,-1.772911 -0.67641,-5.165547 0.32863,-6.57654303 0.63883,-0.896875 3.93366,-0.617813 4.46223,0.04963 0.97922,1.23648403 0.37641,2.40359303 0.009,3.64691403 0.79373,0.381972 1.5547,0.623574 2.56,0.633574 0.74109,0.0074 1.50941,0.03084 2.04691,-0.50666 0.55119,-0.551192 0.48463,-1.295704 0.51309,-2.046661 0.0249,-0.657753 -0.0671,-1.45181603 0.51308,-1.91136603 0.64119,-0.507833 1.4993,-0.342012 2.36666,-0.327403 0.5583,0.0094 1.24,-0.05844 1.72717,0.327403 1.21246,0.960273 0.51635,4.80478403 0.51309,6.39111303 -0.002,0.911015 0.15357,1.989863 -0.51309,2.642461 -0.5582,0.546425 -1.32504,0.525117 -2.04691,0.552851 -0.84813,0.03258 -1.93442,-0.132539 -2.36692,0.7464073 -1.39422,2.833437 -0.19308,9.124101 -0.19308,12.378281 0,8.107087 -1.17703,16.982637 -0.1358,24.959997 0.30531,2.33907 -0.18403,3.82643 -0.1842,6.40001 -8e-5,1.18871 0,1.98816 0,3.2 0,3.49128 0,7.3538 0,10.88 0,5.84574 0,11.76134 0,17.6 0,2.81304 -1.79489,9.04097 0.009,11.73827 0.41571,0.62164 1.08182,0.70492 1.91137,0.6442 0.75373,-0.0552 1.65297,-0.44417 2.36666,0.10764 0.74699,0.57755 0.5111,1.58194 0.51309,2.549877 0.004,1.99053 0.759,5.10472 -0.32889,6.53161 -0.70215,0.92092 -1.93609,0.73871 -2.86963,0.82197 -0.9657,0.0861 -1.67785,0.15336 -1.87408,1.30518 -0.34902,2.04867 -0.0474,4.86708 -0.0474,7.02125 v 14.72 c 0,15.22461 -0.32,30.50722 -0.32,45.76 0,5.00886 0,10.03265 0,15.04 0,1.30898 -0.30875,2.66262 0.009,3.7926 0.28961,1.03021 1.27315,0.98148 2.2311,1.00617 1.06271,0.0274 2.12554,-0.11213 2.45828,1.00863 0.62484,2.10465 0.11482,4.09328 0.10146,6.0326 -0.006,0.88226 0.11412,1.70873 -0.51283,2.32246 -0.64297,0.62941 -1.46451,0.52805 -2.36666,0.55777 -0.69338,0.0229 -1.44867,-0.0713 -1.91137,0.51285 -0.48437,0.61157 -0.3273,1.59778 -0.32888,2.36692 -0.004,2.16297 0,4.53674 0,6.72 v 26.24 c 0,3.21619 0.0137,6.73535 -2.6e-4,9.92 -0.004,0.97936 -0.46271,2.52031 0.45063,3.19111 1.32752,0.97498 3.36389,0.52797 4.15654,-0.41283 0.52787,-0.62652 0.49754,-1.38959 0.5116,-2.13828 0.0297,-1.5808 0.001,-3.50254 0.001,-5.12 v -25.28 c 0,-2.6766 -0.34977,-7.57002 0.0474,-9.90123 0.27682,-1.62479 1.23258,-1.23994 2.51234,-1.30471 0.92944,-0.047 1.67969,-0.15978 2.04717,-1.00146 1.04983,-2.40448 0.48471,-5.98928 0.51186,-8.2726 0.0267,-2.24555 0.043,-5.71338 -2.6e-4,-7.99977 -0.0426,-2.25519 -1.11597,-2.16593 -2.87826,-2.2464 -0.97422,-0.0445 -1.83254,-0.17836 -2.13853,-1.2926 -0.80155,-2.91875 -0.0113,-5.36707 0.18964,-8.30123 0.36803,-5.37412 0.0286,-10.86102 0.0286,-16.32 0,-12.88851 -0.30574,-26.04737 0.005,-38.72 0.0217,-0.88775 0.1775,-1.68265 0.261,-2.56 0.2751,-2.89062 -0.18373,-7.41141 0.0731,-10.23383 0.18211,-2.00144 4.25285,-1.35126 4.67951,-2.90493 0.74281,-2.70496 0.10172,-4.579 0.10172,-7.02125 0,-1.26696 0,-2.18689 0,-3.52 0,-1.967037 0.25054,-3.607897 0.20986,-5.759737 -0.0686,-3.62703 -4.70871,-0.73783 -4.99109,-3.84643 -0.24483,-2.69517 -0.0236,-9.50177 -0.0188,-12.47382 0.001,-0.91643 0.0507,-1.6662 0.10715,-2.56 0.0564,-0.89219 -0.0754,-1.64957 -0.003,-2.56 0.26758,-3.38639 0.21629,-7.12543 0.21629,-10.56 v -31.36001 c 0,-4.89099 -0.58852,-10.557106 0.13728,-15.359743 0.26574,-1.758399 0.70901,-2.175313 2.42297,-2.240254 1.11149,-0.04211 2.10467,-0.01201 2.45803,-1.29877 0.9033,-3.2893363 0.10031,-7.1146873 0.10172,-10.2212313 5.4e-4,-1.219707 -0.17752,-2.74650303 1.0074,-3.09828103 1.24389,-0.369277 3.15539,-0.381953 3.78371,0.411368 0.95068,1.20033103 0.32889,3.64859303 0.32889,5.24691403 0,2.548379 0.004,5.5001953 0,8.0000003 -0.002,1.267988 -0.12016,2.238047 -0.26715,3.519746 -0.23326,2.033848 -0.78375,2.420742 -2.6126,2.548887 -1.19572,0.08379 -2.08277,0.09303 -2.22148,1.617539 -0.32739,3.597945 -0.0188,8.428825 -0.0188,12.153825 0,7.50354 0,15.59809 0,23.04001 0,3.91955 -0.32,7.04898 -0.32,11.2 0,1.33816 0,2.20445 0,3.52 0,3.49128 0,7.3538 0,10.88 0,1.79152 -0.36131,3.76539 0.10172,5.40519 0.26834,0.95031 0.94222,1.19238 1.81976,1.18863 0.87584,-0.004 2.13686,-0.56457 2.68543,0.5479 0.67272,1.36419 0.19309,3.00634 0.19309,4.69827 0,5.50369 0,11.150517 0,16.639997 0,1.75443 0.64719,5.37041 -0.83309,6.84692 -1.48586,1.48208 -4.02246,-0.58081 -4.26814,2.11926 -0.28254,3.105 -0.0188,9.05711 -0.0188,12.47383 0,3.14276 0.0709,6.5135 -0.005,9.6 -0.0521,2.12757 -0.31531,3.45668 -0.31531,5.76 0,2.35107 0,5.04641 0,7.36 0,1.00209 0,1.85207 0,2.88 0,0.82252 0,1.44668 0,2.24 0,1.50047 0,2.46195 0,3.84 0,0.80396 0,1.43258 0,2.24 0,1.05541 0,1.78816 0,2.88 0,3.49129 0,7.35383 0,10.88 0,2.07679 -0.59278,4.55265 0.19308,6.3526 0.43965,1.00693 1.39967,0.98125 2.36692,1.00617 0.73189,0.0189 1.70924,-0.14461 2.23111,0.51431 0.75115,0.9484 0.33094,2.31977 0.32889,3.64692 -0.003,1.95402 -0.0771,3.67871 -0.26592,5.76 -0.2524,2.78187 -0.0541,4.2181 -0.0541,6.72 0,1.77019 0,3.94715 0,5.76 0,2.03305 0.75457,5.00707 -0.32889,6.58123 -0.5259,0.7641 -1.42203,0.74299 -2.23111,0.77408 -0.90516,0.0348 -1.72873,-0.11652 -2.23112,0.51778 -1.0589,1.33697 -0.32888,7.22515 -0.32888,9.08691 0,2.10686 0,3.71113 0,5.76 0,5.57184 0,11.3673 0,16.96 0,3.14891 -1.18559,7.70229 3.19383,6.9926 2.04324,-0.33111 1.91808,-2.80733 1.92591,-4.4326 0.0252,-5.22057 2.6e-4,-10.45791 2.6e-4,-15.68 0,-3.52594 -1.21061,-10.80559 0.19308,-13.65828 0.43108,-0.87604 4.25471,-0.65174 4.73383,-1.74912 0.74928,-1.71614 0.19309,-4.56287 0.19309,-6.6726 v -16.32 c 0,-3.67963 0,-6.90684 0,-10.56 0,-1.09979 0.28293,-3.0909 -0.19309,-4.05828 -0.43576,-0.88559 -1.39271,-0.71774 -2.36666,-0.74295 -0.76818,-0.0199 -1.66092,0.0445 -2.04717,-0.74049 -0.63914,-1.29891 -0.19308,-3.19502 -0.19308,-4.69828 v -11.2 c 0,-6.44537 0,-13.45192 0,-19.84 0,-1.54642 0,-2.87432 0,-4.48 0,-4.99229 -0.7917,-12.01605 0.0474,-16.94124 0.23875,-1.40137 1.30668,-1.26893 2.5126,-1.3 1.63543,-0.0421 2.47308,-0.38599 2.55383,-2.23901 0.0684,-1.56943 -0.0809,-3.60748 0.0975,-5.11975 0.12439,-1.05428 0.22292,-1.75065 0.22837,-2.88001 0.0262,-5.43274 2.6e-4,-11.47106 2.6e-4,-16.959997 0,-3.66562 0.51295,-7.57224 -0.0474,-10.86122 -0.19676,-1.15487 -0.94914,-1.24985 -1.87409,-1.2926 -1.39769,-0.0646 -2.69298,0.22027 -2.85974,-1.61235 -0.26907,-2.95699 -0.0188,-7.41929 -0.0188,-10.55382 v -23.68001 c 0,-5.24572 0.29461,-10.46505 0.31974,-15.68 0.0103,-2.14152 -0.66701,-5.18982 0.19334,-6.93828 0.61459,-1.249002 2.66287,-0.27326 3.86543,-1.070603 1.52821,-1.013243 1.06149,-5.64338 1.06149,-7.671114 0,-4.266563 0,-8.5334773 0,-12.8000013 0,-1.11873 -0.30752,-3.13062403 0.74172,-3.64691303 4.91779,-2.41986397 4.50209,4.05158103 4.36568,7.16691403 -0.22885,5.2263483 -0.3074,10.4339063 -0.3074,15.6800003 0,1.843107 0.71199,4.572717 -0.32889,5.886917 -0.73562,0.92881 -3.56191,0.46974 -4.79111,0.83308 0.90752,3.81188 0.0204,8.61633 2.5e-4,12.8 -0.006,1.33862 -2.5e-4,2.20442 -2.5e-4,3.52 0,6.76151 0,14.28782 0,21.12001 0,2.63941 -1.8e-4,5.37033 0,8 6e-5,0.96992 -0.18369,1.96964 0.19308,2.83259 0.39817,0.91196 1.19844,0.95854 2.04717,1.00149 0.99436,0.0503 2.09998,-0.19272 2.45803,1.01332 0.78043,2.62871 0.10172,7.58678 0.10172,10.5126 0,3.72654 -0.31977,7.91996 -0.32,11.519987 -6e-5,0.96529 0,1.63949 0,2.56 0,0.99618 0,1.87607 0,2.88 0,2.36709 0,4.97032 0,7.36001 0,3.20399 0.42129,9.00109 -0.0474,11.82592 -0.28487,1.7169 -1.47282,1.5695 -2.83235,1.61432 -1.09596,0.0361 -1.97513,0.0206 -2.19285,1.29852 -0.31057,1.82286 -0.0474,2.8308 -0.0474,4.46124 0,2.24639 0,5.05666 0,7.36 0,8.45966 0.0135,17.16507 0,25.6 -0.003,1.58203 -0.2375,2.56357 -0.3074,4.16 -0.0558,1.27343 -0.60366,4.87662 0.50048,5.75111 1.50006,1.18807 3.89954,-0.57787 4.5052,1.62766 0.45227,1.64685 0.10172,4.8076 0.10172,6.70123 0,5.8139 0.57316,12.52047 -0.1358,17.92 -0.30283,2.30637 -0.1842,3.35463 -0.1842,5.44 0,2.85814 0,5.80074 0,8.64 0,2.22478 0.0153,4.47064 -2.6e-4,6.72 -0.005,0.75887 0.0954,1.48514 -0.32863,2.10123 -0.52422,0.76166 -1.42437,0.74309 -2.23111,0.77408 -0.98403,0.0378 -1.93223,-0.13697 -2.36692,0.74641 -0.9788,1.9892 -0.19308,8.78785 -0.19308,11.09828 0,1.18869 0,1.98818 0,3.2 0,3.57658 -0.007,7.9165 0,11.52 0.002,1.16295 -0.23344,2.40988 1.0074,2.77828 2.39314,0.71049 4.06932,0.073 4.11111,-2.13853 0.0735,-3.88612 10e-4,-8.81368 10e-4,-12.79975 0,-2.14139 -0.97703,-7.43805 0.32888,-9.08691 0.50522,-0.63789 1.48042,-0.49498 2.23112,-0.51432 1.11236,-0.0286 2.10814,-0.0225 2.45828,-1.29754 0.88891,-3.23687 0.10172,-7.12088 0.10172,-10.22123 0,-4.59684 0,-9.95324 0,-14.72 0,-2.5727 0.30853,-4.07371 0.31974,-6.4 0.0257,-5.33055 2.6e-4,-11.25438 2.6e-4,-16.64 0,-2.38319 0.0938,-5.73215 -0.006,-7.99852 -0.11889,-2.695 -3.66524,-0.96125 -4.78495,-2.42988 -1.36693,-1.79285 -0.32888,-6.59889 -0.32888,-9.0916 0,-6.85063 0.1493,-13.70261 0.31531,-20.48 0.0576,-2.35113 -0.0918,-5.02955 0.0109,-7.35852 0.0893,-2.0257 0.98113,-1.84784 2.55357,-1.92741 1.17829,-0.0596 1.97932,-0.28682 2.19286,-1.60025 0.45734,-2.81312 0.35494,-4.82309 0.36714,-7.35382 0.0139,-2.87793 2.6e-4,-6.05385 2.6e-4,-8.96 0,-9.094 0,-18.452657 0,-27.519997 0,-1.37237 0,-2.21457 0,-3.52 0,-2.29032 0.31289,-4.78055 0.2,-7.04 -0.0442,-0.8842 -0.0148,-2.55106 -0.94172,-3.00692 -1.10479,-0.54336 -3.20141,0.41422 -3.8652,-0.9348 -0.65439,-1.32991 -0.27453,-4.23174 -0.13877,-5.65828 0.20549,-2.1593 0.26569,-3.36965 0.26569,-5.76 v -18.88001 c 0,-2.29554 -0.7377,-5.68669 0.19308,-7.57828 0.45834,-0.93146 1.5125,-0.71359 2.36692,-0.7464 1.08256,-0.0416 2.0973,-0.0312 2.45828,-1.31012 0.42547,-1.50742 0.10172,-3.39531 0.10172,-5.0852 V 16.940866 4.7808657 c 0,-1.305333 -0.38752,-3.304688 0.32889,-4.37828203 0.5574,-0.835312 1.62279,-0.751113 2.55085,-0.74 0.63512,0.0076 1.45526,-0.06451 1.91137,0.511368 0.8382,1.05832003 0.32889,3.24374903 0.32889,4.60691403 V 16.620866 c 0,4.869063 0.023,10.220427 -2.6e-4,15.039997 -0.005,1.1294 -0.10398,1.82567 -0.22837,2.88 -0.12379,1.04909 0.20283,2.74799 -0.28446,3.73829 -0.81929,1.66502 -3.91119,-0.19905 -4.54222,1.74912 -0.64797,2.00043 -0.0645,4.03416 -0.0647,6.35259 -1.4e-4,2.06948 -0.24668,4.1462 -0.27555,6.08001 -0.0486,3.25683 -0.0444,6.82939 -0.0444,10.24 0,1.29781 -0.40592,5.02324 0.51308,5.75111 0.67026,0.53086 1.47918,0.2941 2.36543,0.33506 0.93022,0.043 1.67532,0.12584 1.87409,1.2926 0.2116,1.24199 0.0474,2.18269 0.0474,3.50123 0,10.83273 0,22.42672 0,33.279987 0,3.3519 -0.32,5.95289 -0.32,9.28001 0,3.04478 0,6.25199 0,9.28 0,1.05191 0,1.87864 0,2.88 0,1.09616 0,2.00477 0,3.2 0,1.45223 0.144,3.65775 -0.0474,4.78124 -0.48723,2.85978 -4.74108,-0.30489 -5.05383,3.22024 -0.16592,1.87014 -0.0188,3.094 -0.0188,4.79852 0,2.85049 0,5.56454 0,8.32 0,1.56313 0,3.29861 0,5.12 0,1.47535 0,3.39033 0,4.8 0,1.188 -0.26926,2.15035 0.10172,3.50125 0.33588,1.22308 1.29349,1.25463 2.45802,1.29875 1.09624,0.0415 1.97467,0.0181 2.19286,1.29875 0.55257,3.24338 0.0474,7.22795 0.0474,10.54125 0,3.36133 0,7.25494 0,10.56 0,1.30543 0,2.14763 0,3.52 0,2.63824 0,5.03945 0,7.36 0,1.07945 0,2.01469 0,3.2 0,4.40221 0,9.04785 0,13.44 0,1.13187 0,2.13439 0,3.2 0,0.80777 0,1.435 0,2.24 0,2.85551 0.59277,9.98459 -0.10172,12.4452 -0.36248,1.28427 -1.35805,1.26785 -2.45828,1.31011 -2.06426,0.0793 -2.55543,0.66287 -2.56,2.88469 -0.006,3.13117 0.129,7.20893 -0.22863,10.24 -0.12459,1.05598 -0.0914,1.79645 -0.0914,2.88 0,1.79088 -0.27721,3.48969 1.60617,3.7926 1.17691,0.18928 2.56998,0.16213 3.18494,-0.73137 0.4908,-0.71308 0.32699,-1.50338 0.32889,-2.42123 0.006,-2.70293 -0.48619,-9.06748 0.51308,-11.09828 0.67797,-1.37781 3.95803,0.0939 4.5052,-1.74912 0.57902,-1.95033 -0.0336,-4.67936 0.15604,-6.6726 0.13714,-1.44113 0.26507,-2.28482 0.26568,-3.84 0.004,-9.47031 0,-19.00393 0,-28.48 0,-8.98828 0,-18.23805 0,-27.2 0,-1.46166 0,-2.39617 0,-3.84 0,-1.20295 0,-2.09414 0,-3.2 0,-1.13094 0.16697,-1.92301 -0.0474,-3.18125 -0.21877,-1.28412 -1.09512,-1.24666 -2.19286,-1.30221 -1.68334,-0.0852 -2.46517,-0.22348 -2.55357,-2.23777 -0.15078,-3.4362 -0.006,-8.84352 -0.006,-12.47877 0,-1.55125 -0.41272,-3.14712 0.19308,-4.37828 0.46176,-0.93841 1.47221,-0.7198 2.36666,-0.74295 1.09079,-0.0282 1.90489,-0.0315 2.2842,-1.29753 0.41207,-1.37533 0.27606,-2.63051 0.27606,-4.14124 0,-4.21553 0,-8.57122 0,-12.8 0,-8.14255 0,-16.52124 0,-24.640007 0,-1.56586 -0.0343,-2.56953 0.005,-4.16 0.0512,-2.09086 0.31531,-3.55582 0.31531,-5.75999 v -17.28 c 0,-2.21983 0.49432,-5.62495 -0.10172,-7.6326 -0.38057,-1.28188 -1.70596,-0.96408 -2.7768,-1.01358 -1.99894,-0.0924 -1.91789,-1.13035 -1.92148,-2.87382 -0.007,-3.59159 0,-7.2795 0,-10.88001 0,-1.79353 -0.35694,-3.5649 0.10172,-5.06791 0.35916,-1.17697 4.01023,-0.73552 4.68939,-1.7538 1.31455,-1.97098 0.32889,-6.56329 0.32889,-9.17829 0,-8.11904 0.32,-16.219255 0.32,-24.3199973 0,-2.304629 -1.05088,-9.98066403 1.60617,-10.22123103 0.89959,-0.08145 2.01322,-0.218574 2.68074,0.310117 0.68649,0.543692 0.51137,1.71476603 0.51309,2.55111303 0.005,2.448067 0,4.910606 0,7.360001 0,9.1823053 -0.32,18.3587273 -0.32,27.5199973 0,2.96944 0.92543,8.38489 -0.19309,10.79086 -0.67541,1.45282 -2.39179,0.69661 -3.91951,1.15086 -1.68281,0.50037 -1.23896,6.17612 -0.96,7.89211 0.21613,1.3295 1.03281,1.53436 2.19285,1.60123 1.29162,0.0744 2.55541,-0.0501 2.83235,1.61901 0.46773,2.81902 0.0476,7.51305 0.0474,10.54594 -5.5e-4,8.18906 -0.32,16.42537 -0.32,24.63999 0,11.854257 -0.32,23.661137 -0.32,35.520007 0,4.00095 0.30795,11.07997 -0.0188,14.71505 -0.16486,1.83425 -1.04672,1.84587 -2.54098,1.92149 -0.68295,0.0346 -1.44728,-0.0694 -1.91136,0.51654 -0.80696,1.01885 -0.32225,2.85596 -0.32915,4.28692 -0.006,1.18615 -0.29152,2.0295 -0.21802,3.19382 0.0857,1.35836 1.03326,1.5375 2.13853,1.60124 1.47117,0.0848 2.68944,0.0213 2.86098,1.92988 0.35162,3.91232 0.0188,9.65881 0.0188,13.75506 0,10.79506 -0.32,21.56764 -0.32,32 0,3.32851 0,7.87508 0,11.2 0,0.9599 0,1.58826 0,2.56 0,4.8965 0,10.32586 0,15.36 0,3.09377 0.67195,8.04397 -0.10172,10.86123 -0.35244,1.28342 -1.35049,1.269 -2.45828,1.29754 -0.76791,0.0198 -1.72377,-0.12625 -2.23111,0.51432 -1.09118,1.37773 -0.34192,4.92006 -0.32864,6.84691 0.007,0.99664 -0.15898,2.11215 1.00715,2.45828 1.08842,0.32305 2.54365,0.32449 3.27951,-0.41137 0.63043,-0.63042 0.4916,-1.48742 0.51432,-2.36666 0.0568,-2.19636 1.7142,-2.85019 4.11137,-2.13853 1.02552,0.30447 0.98591,1.18521 1.00591,2.13853 0.0195,0.92995 -0.22,2.2127 0.74321,2.68666 1.29679,0.63811 3.71539,0.26174 4.18519,-0.81431 0.71131,-1.62914 0.20569,-4.49028 0.19284,-6.3526 -0.006,-0.87562 0.13128,-1.72096 -0.51284,-2.23111 -1.05164,-0.83291 -4.31627,0.42316 -4.53086,-1.93506 -0.12634,-1.38846 0.24164,-2.40026 0.24395,-3.83383 0.0163,-10.12125 0,-20.56891 0,-30.72 0,-10.04541 0,-20.38408 0,-30.4 0,-1.37237 0,-2.21457 0,-3.52 0,-3.49461 0.14428,-7.40391 0.23703,-10.88 0.0555,-2.07883 -0.55443,-4.23996 -0.18963,-6.38125 0.22059,-1.29469 1.09891,-1.22748 2.19285,-1.3259 0.91534,-0.0824 1.77176,-0.0967 2.36666,-0.60914 1.09114,-0.93989 0.57248,-5.8754 0.50692,-7.36223 -0.0822,-1.864 -0.99088,-1.88246 -2.55383,-1.92271 -1.10084,-0.0283 -2.18932,-0.0378 -2.40395,-1.29753 -0.19873,-1.16641 0.16194,-2.24478 0.16395,-3.50124 0.007,-4.64063 0,-9.42605 0,-14.08 0,-4.76596 0,-10.00235 0,-14.72 0,-1.21185 0,-2.0113 0,-3.20001 0,-2.74941 -0.20625,-7.18198 0.0543,-9.92 0.10378,-1.09047 0.25166,-1.804587 0.26445,-2.879997 0.029,-2.43607 10e-4,-5.50105 10e-4,-7.99999 0,-4.2494 0,-8.91332 0,-13.12 0,-2.11153 0,-3.43446 0,-5.76 0,-3.16045 -0.77731,-8.19178 0.10172,-11.1526 0.30529,-1.02832 1.17515,-0.96662 2.13853,-1.01061 1.56176,-0.0713 2.67885,0.089 2.86098,-1.92271 0.1576,-1.74078 0.74814,-6.14483 -0.31012,-7.481 -0.51867,-0.65488 -1.47246,-0.48062 -2.23086,-0.519 -0.84822,-0.0429 -1.64795,-0.0871 -2.04716,-1.00149 -0.75518,-1.72963 -0.19309,-4.03605 -0.19309,-6.0326 0,-4.55929 0,-9.56675 0,-14.08 0,-1.43033 -0.007,-2.34337 2.5e-4,-3.839997 0.009,-1.913886 0.29815,-2.766894 0.31852,-4.48 0.0176,-1.483594 10e-4,-3.282109 10e-4,-4.8 0,-3.839903 -2.5e-4,-7.6801183 0,-11.5200013 8e-5,-1.148769 -0.29424,-3.03183503 1.0074,-3.41828103 1.24133,-0.368535 2.8434,-0.344746 3.59951,0.411368 0.47713,0.477129 0.49008,1.08433503 0.50223,1.72716703 0.0341,1.801348 -0.30914,3.664004 -0.30914,5.439747 0,1.632968 0,4.2361333 0,5.7600003 0,1.058086 0,1.762617 0,2.88 0,5.541074 0.009,12.337067 0,17.919997 -0.004,2.3692 -1.61119,7.07045 0.009,9.49829 0.48296,0.72377 1.28123,0.71601 2.23111,0.74048 0.73244,0.0189 1.70891,-0.14502 2.23111,0.51432 0.84649,1.06879 0.32889,2.83092 0.32889,4.28691 0,3.51993 0,7.04012 0,10.56001 0,1.26029 0.33447,2.41742 -0.32889,3.38123 -0.52123,0.75728 -1.44064,0.74371 -2.23111,0.77408 -0.97822,0.0376 -2.11623,-0.14004 -2.45828,1.01209 -0.66104,2.22656 -0.009,6.18824 -0.11432,8.5926 -0.0487,1.11261 -0.2758,2.10127 -0.30271,3.2 -0.0254,1.03492 -0.005,1.8355 -0.005,2.88 0,3.69578 0,7.78711 0,11.52 0,5.30019 0.008,10.738707 0,15.999987 -0.003,1.6909 -0.27217,2.71892 -0.31531,4.48 -0.0328,1.34107 -0.005,2.20515 -0.005,3.52001 0,5.53519 0,11.68755 0,17.28 0,2.78655 -0.65402,6.68704 0.10172,9.23259 0.33316,1.12222 1.45586,0.99356 2.45828,1.00741 0.82076,0.0113 1.92363,-0.15915 2.36691,0.74172 0.49241,1.00069 0.19309,2.2196 0.19309,3.41828 0,3.9169 0.31215,10.02875 -0.0188,13.75851 -0.26811,3.02184 -4.30908,0.7061 -4.99951,3.22024 -0.71865,2.61699 -0.10172,5.45586 -0.10172,8.30125 v 27.2 31.68 c 0,1.56525 0.0319,3.62607 -0.005,5.12 -0.0342,1.39633 -0.50699,2.23324 -0.26668,3.83383 0.19715,1.31306 1.02477,1.54672 2.19162,1.6 1.2878,0.0588 2.54514,-0.38088 2.83235,1.30494 0.30892,1.81322 0.0914,7.27541 0.0427,9.26123 -0.0218,0.89149 -0.27486,1.58299 -0.21359,2.55383 0.0762,1.20789 0.85777,1.50406 1.81976,1.5874 1.89342,0.16404 2.9869,-0.14142 3.22098,-2.22148 0.14066,-1.25 0.28219,-2.01268 0.29631,-3.19975 0.0332,-2.79492 0.21826,-10.20236 -0.0175,-12.79383 -0.35701,-3.92338 -5.01369,0.70541 -5.09975,-3.84642 -0.0729,-3.85497 -0.001,-8.83664 -0.001,-12.79975 v -27.2 c 0,-2.20535 -8.4e-4,-4.88871 0,-7.04 4.5e-4,-1.1785 0.0159,-1.91807 0.1842,-3.2 0.57912,-4.41067 -1.06576,-10.92278 0.23752,-15.3126 0.31168,-1.04986 1.23205,-0.97307 2.13853,-1.0074 1.04444,-0.0396 1.94239,-0.0357 2.36666,-1.00741 0.71625,-1.64048 0.19309,-5.99412 0.19309,-7.95259 0,-1.49047 -0.0779,-3.36528 0.0914,-4.8 0.12439,-1.05427 0.22293,-1.75066 0.22838,-2.88 0.01,-2.0551 2.5e-4,-4.05949 2.5e-4,-6.08 0,-2.10756 0.64203,-4.11986 -0.19309,-6.0326 -0.50154,-1.14873 -1.62537,-0.95972 -2.68666,-1.01333 -1.01041,-0.0511 -1.8299,-0.16898 -2.13853,-1.29283 -0.23988,-0.87354 -0.10166,-1.65491 -0.10172,-2.54124 -1.4e-4,-2.20334 0,-5.10092 0,-7.36 0,-1.55286 0,-2.68141 0,-4.16 0,-1.19356 0,-1.99887 0,-3.2 0,-3.50714 0.22912,-7.35288 0.31531,-10.88001 0.1718,-7.03085 0.005,-14.086827 0.005,-21.119987 0,-3.68221 -0.18465,-8.33739 0.22863,-11.84 0.22219,-1.88315 -0.55326,-3.95584 0.28446,-5.65829 0.8522,-1.73189 3.07168,0.32438 4.27802,-1.48343 0.90352,-1.35401 0.32889,-5.54373 0.32889,-7.25828 0,-2.9302 -0.21883,-6.40997 0.0543,-9.28001 0.16138,-1.6958 0.26568,-2.61449 0.26568,-4.48 0,-2.61599 0.63605,-4.77914 -0.33037,-6.99259 -0.71727,-1.64278 -3.11846,-0.41907 -4.27654,-1.33629 -1.54719,-1.22539 -0.26772,-6.31485 -0.27137,-7.99112 -0.004,-1.78398 0.0755,-2.77232 0.0783,-4.48 0.009,-5.799977 0,-11.7832 0,-17.5999973 0,-1.929571 -0.0252,-4.189063 10e-4,-6.080001 0.0122,-0.87748 -0.086,-1.95673803 0.77754,-2.55111303 1.18377,-0.814765 3.76199,-0.371933 4.14814,0.412832 1.19778,2.43418003 0.19309,5.98416103 0.19309,8.53828203 0,1.0469143 0.0336,2.1450393 -0.0126,3.2000003 -0.0513,1.172168 -0.26986,1.858711 -0.30271,3.2 -0.0266,1.087207 -0.005,1.819981 -0.005,2.88 0,3.822598 0.56006,12.382737 -0.32,15.359997 0.79437,0.38229 1.55787,0.59952 2.56,0.63532 1.07764,0.0385 2.12037,-0.12608 2.45828,1.01209 1.10705,3.7289 0.10172,8.89494 0.10172,12.43259 0,4.47008 0,10.09754 0,14.72001 0,2.71123 0.52344,7.62474 -0.10172,9.90123 -0.72898,2.65455 -4.86494,-0.11727 -5.01211,3.22025 -0.13547,3.07193 0.0304,10.57793 -0.007,13.75852 -0.0142,1.19154 -0.20441,1.94816 -0.29014,3.19999 -0.30945,4.51889 -0.0286,10.884427 -0.0286,15.359997 0,1.55919 0,2.4648 0,4.16 0,4.47844 0,8.96118 0,13.44001 0,2.03272 -0.45106,4.49068 0.10172,6.35259 0.33512,1.12881 1.45418,0.98266 2.45803,1.00864 1.26773,0.0328 2.08468,0.10162 2.22148,1.60494 0.38813,4.26547 0.0188,9.84172 0.0188,14.07383 0,1.08411 0,1.81846 0,2.88 0,2.24638 0,5.05666 0,7.36 0,3.38148 0.0607,7.58691 -0.001,10.87976 -0.0131,0.69614 0.0368,1.46586 -0.51161,2.0027 -0.56586,0.55394 -1.28052,0.5234 -2.04691,0.55285 -0.99897,0.0384 -2.09967,-0.19582 -2.45828,1.01209 -0.59236,1.99525 -0.10172,4.67322 -0.10172,6.9926 0,4.14592 0.0195,8.69572 -2.5e-4,12.8 -0.005,1.0939 -0.15002,1.82572 -0.17409,2.88 -0.0278,1.2166 0.17229,2.2416 0.17434,3.52 0.011,6.87867 0,14.14115 0,21.12 0,2.87074 -0.40732,6.91223 0.0474,9.58123 0.37078,2.17631 2.70715,0.414 4.23951,1.62766 0.9952,0.7882 0.51309,4.44109 0.51309,5.75111 0,4.83006 0,8.83186 0,13.76 0,1.36715 -0.42207,4.27399 1.0074,4.69828 1.73332,0.51446 3.60217,0.115 3.77383,-1.81976 0.51303,-5.78239 0.33877,-11.34235 0.33877,-17.27852 0,-2.18289 0.0103,-4.55756 -2.5e-4,-6.72 -0.005,-0.95838 0.10754,-1.96385 -0.42147,-2.77828 -0.57435,-0.88426 -1.43725,-0.696 -2.45803,-0.74764 -0.9965,-0.0504 -1.83089,-0.17262 -2.13853,-1.29285 -0.23828,-0.86766 -0.10166,-1.58336 -0.10172,-2.54123 -2e-4,-2.87807 0,-6.05373 0,-8.96 0,-7.7057 0,-14.4368 0,-22.08 0,-2.14176 -0.14586,-4.6167 0.0543,-6.72 0.10914,-1.14676 0.25964,-2.00137 0.26543,-3.2 0.006,-1.14371 -0.33659,-2.66131 0.19334,-3.73828 0.39941,-0.81172 1.25853,-0.70528 2.04716,-0.74518 1.29498,-0.0655 2.24871,-0.0217 2.51235,-1.6106 0.54164,-3.2645 0.36609,-8.74977 0.3674,-12.14594 0.004,-10.43795 0.19895,-22.67655 -10e-4,-33.27976 -0.0389,-2.05922 -0.95629,-2.16025 -2.55852,-2.25284 -0.78953,-0.0456 -1.95645,-0.027 -2.27557,-1.03654 -0.30244,-0.95677 0.0339,-2.07712 0.0356,-3.11086 0.004,-2.75906 0,-5.8483 0,-8.64 0,-6.43713 0,-13.10671 0,-19.520007 0,-1.78732 -0.0648,-3.35238 0.0126,-5.11999 0.11758,-2.68502 0.27769,-4.88442 0.30617,-7.36 0.0138,-1.19764 -0.31822,-2.69668 0.19432,-3.73829 0.39416,-0.80103 1.28339,-0.70652 2.04716,-0.74517 1.54737,-0.0783 2.37758,-0.1035 2.54098,-1.92149 0.19416,-2.16027 -0.15262,-4.02355 0.0731,-6.39505 0.1139,-1.1968 0.25951,-1.97182 0.26543,-3.2 0.0316,-6.5568 2.5e-4,-13.85469 2.5e-4,-20.48001 v -11.52 c 0,-1.55296 0.4682,-3.67435 -0.19309,-5.01828 -0.44396,-0.90226 -1.524,-0.72119 -2.36691,-0.74295 -0.85488,-0.0221 -1.69988,0.0631 -2.09531,-0.74048 -0.62545,-1.27108 -0.14469,-4.926216 -0.14469,-6.618287 0,-3.939433 0,-8.259922 0,-12.16 0,-1.0467973 0,-1.8558013 0,-2.8800003 0,-1.024063 -0.0112,-1.833399 0.001,-2.88 0.0145,-1.216504 -0.0853,-3.064532 0.64643,-3.96691403 0.65621,-0.809278 2.76882,-0.793262 3.73062,-0.32 1.01805,0.500937 0.74172,3.08511703 0.74172,4.28691403 0,4.706972 -0.32,9.3682423 -0.32,14.0800003 0,1.799629 -0.84695,4.673946 0.51309,5.751114 1.04019,0.823843 4.0466,-0.208418 4.50519,1.336293 0.53408,1.79892 0.10172,5.46422 0.10172,7.63259 0,6.72391 -0.28744,13.46098 -0.31975,20.16001 -0.0105,2.17181 -0.15164,4.57726 0.0909,6.72 0.1025,0.90568 0.14834,1.64695 0.0437,2.56 -0.14664,1.27982 0.12075,2.13468 0.0664,3.52 -0.0444,1.13337 -0.084,2.13363 -0.13852,3.2 -0.047,0.91849 -0.0623,1.59773 -0.0627,2.56 -10e-4,2.81595 0.88078,8.37304 -0.19309,10.83259 -0.40201,0.92079 -1.18863,0.95297 -2.04716,1.00246 -1.2075,0.0696 -2.35907,-0.1646 -2.77803,1.31975 -0.63022,2.23281 -0.10172,6.70984 -0.10172,9.24519 0,5.662267 0.47719,12.015117 -0.0543,17.599997 -0.27007,2.83796 -1.2391,7.52086 -0.0726,10.1926 0.39523,0.90525 1.21255,0.96312 2.04716,1.00123 1.0709,0.0489 2.40159,-0.25439 2.77803,1.01358 1.06451,3.58556 0.10172,10.66068 0.10172,14.6726 0,9.4317 -0.32,18.72132 -0.32,28.16 0,4.03273 0.32398,9.57539 -0.0188,13.43851 -0.1542,1.73813 -1.06492,1.88223 -2.54123,1.92026 -0.81354,0.0209 -1.7142,-0.13834 -2.23111,0.51431 -0.48436,0.61155 -0.32731,1.59778 -0.32889,2.36692 -0.004,2.0607 0,4.3201 0,6.4 0,7.57316 0,15.14691 0,22.72 0,2.12449 -0.82996,4.27898 -0.21828,6.3526 0.49078,1.66373 4.18129,0.67146 4.82519,2.05654 0.57379,1.23424 0.19309,3.22945 0.19309,4.71086 v 10.88 c 0,4.97158 -0.0337,10.43928 2.5e-4,15.36 0.0148,2.14799 0.54538,2.65188 2.87827,2.55383 1.99636,-0.0839 1.91802,-1.1934 1.92148,-2.87383 0.009,-4.53516 0,-9.21182 0,-13.76 0,-5.02262 0.32,-10.03211 0.32,-15.04 0,-1.9107 0.40711,-4.61578 -0.10172,-6.35383 -0.37115,-1.26777 -1.68439,-1.22156 -2.77803,-1.31974 -1.02613,-0.0921 -1.8272,-0.17151 -2.13853,-1.3052 -0.69664,-2.53682 -0.034,-6.29066 0.0983,-8.94123 0.10477,-2.09969 0.11023,-3.4686 0.11975,-5.44 0.0119,-2.4691 2.5e-4,-5.18713 2.5e-4,-7.68 0,-1.47203 -0.58277,-4.41586 0.32889,-5.56692 0.87691,-1.1072 2.54072,-0.0488 3.72939,-0.84197 0.91512,-0.6106 0.95426,-2.99998 1.03309,-4.15111 0.88006,-12.85106 -0.8228,-25.86895 0.0573,-38.72 0.3791,-5.53581 0.29137,-11.08218 0.29137,-16.64 0,-2.33834 0.18545,-5.42955 -0.0188,-7.67383 -0.17121,-1.88151 -1.46123,-1.54843 -2.86098,-1.61235 -1.67568,-0.0765 -2.1575,-0.47624 -2.23408,-2.23407 -0.0773,-1.77449 -0.0149,-4.22474 -0.006,-6.07976 0.0212,-4.40415 0.31946,-8.74443 0.31975,-13.119997 1.4e-4,-2.05808 -0.6967,-5.45 0.19309,-7.25827 0.4325,-0.87895 1.51877,-0.71383 2.36691,-0.74641 0.79139,-0.0304 1.71066,-0.0179 2.23111,-0.77408 0.4833,-0.70221 0.32707,-1.53842 0.32889,-2.42123 0.005,-2.53549 0,-5.13825 0,-7.68 v -26.88001 c 0,-7.02263 0.32,-14.07425 0.32,-21.12 0,-2.60798 0.36682,-6.509938 -0.0474,-8.941227 -0.2516,-1.476817 -1.32307,-1.269356 -2.5126,-1.3 -1.89957,-0.04893 -2.51982,-0.502227 -2.55852,-2.55877 -0.0482,-2.563965 -0.15429,-4.650567 0.0899,-6.72 0.13851,-1.1738673 0.2266,-1.9336923 0.22863,-3.2000003 0.003,-1.870059 -0.75801,-5.47459 0.32889,-6.84691403 0.59691,-0.753653 2.09002,-0.65 3.17234,-0.465684 1.5242,0.25957 1.29818,1.83742203 1.29877,3.15259703 10e-4,2.964083 -0.39434,7.5166413 0.0474,10.2338293 0.18844,1.159121 0.7836,1.510859 1.87408,1.582715 1.56067,0.102832 2.67194,-0.74377 2.85975,1.309883 0.25291,2.765469 0.0188,8.137637 0.0188,11.193571 v 27.52001 c 0,8.83027 0.80568,18.11392 -0.22863,26.88 -0.35574,3.01492 0.14795,7.00963 -0.11014,9.91851 -0.24973,2.81469 -2.77904,0.94547 -4.26814,2.43457 -0.74623,0.74623 -0.77836,4.60483 -0.82049,5.56691 -0.1261,2.879717 -0.014,7.207587 -0.0126,10.239997 4.5e-4,0.98503 -0.19471,1.99363 0.32889,2.77828 0.45488,0.68167 1.18115,0.69884 1.91136,0.7358 0.99452,0.0503 2.10002,-0.19258 2.45803,1.01333 0.42701,1.43833 0.10172,3.49383 0.10172,5.0726 v 10.56 c 0,12.9223 -0.32,25.81257 -0.32,38.72 v 16 c 0,1.93359 0.37574,4.72291 -0.10172,6.35383 -0.4199,1.43427 -1.60289,1.23855 -2.77803,1.31505 -0.92763,0.0604 -1.81349,-0.0763 -2.13853,1.01852 -0.96963,3.26598 -0.10172,9.96826 -0.10172,13.7126 0,1.21141 -0.38803,3.38172 0.32889,4.28691 0.95525,1.2061 3.16699,-0.0922 4.26543,0.84198 0.59031,0.50205 0.29211,1.51134 0.3242,2.23111 0.10318,2.3141 -0.11852,4.70508 -0.11852,7.04 v 27.2 c 0,1.75914 -0.69932,5.86871 0.32889,7.16691 0.61486,0.77633 2.1316,0.69709 3.17234,0.41137 1.35807,-0.37285 1.29033,-1.58898 1.29852,-2.77828 0.0182,-2.64139 2.5e-4,-5.35215 2.5e-4,-8 0,-9.47742 0.32,-18.9633 0.32,-28.48 0,-2.43615 0.0165,-4.92977 -2.5e-4,-7.36 -0.005,-0.74869 0.11287,-1.73555 -0.51284,-2.23111 -1.53453,-1.21538 -3.15953,0.89906 -4.22371,-1.07061 -0.4282,-0.79258 -0.0737,-1.96561 -0.0644,-2.77828 0.0176,-1.53793 -0.3224,-3.95988 0.10295,-5.3926 0.34351,-1.15709 1.47662,-0.96367 2.45803,-1.01334 1.18404,-0.0599 1.94203,-0.31074 2.32865,-1.60023 0.91691,-3.05819 -0.29024,-5.90852 -0.0598,-9.27383 0.7261,-10.60283 0.29137,-21.36184 0.29137,-32 0,-10.67922 0.32,-21.31442 0.32,-32 0,-3.549 0.84092,-9.8975 -0.10172,-13.0726 -0.35375,-1.19152 -1.45793,-0.98275 -2.45803,-1.00864 -0.68402,-0.0177 -1.46029,0.0577 -1.91136,-0.51185 -1.03213,-1.30318 -0.40301,-5.34464 -0.32272,-7.16543 0.0653,-1.479877 0.6244,-1.810617 1.91531,-1.927907 1.44235,-0.13106 2.76618,-0.0305 3.12543,-1.91975 0.9168,-4.82125 0.0731,-12.05517 0.0731,-17.27382 0,-12.48954 0.32,-24.96487 0.32,-37.44001 V 19.500865 c 0,-2.423574 0.82791,-6.78332 -0.19309,-8.858281 -0.44298,-0.9002543 -1.52468,-0.7211533 -2.36666,-0.7429503 -0.68398,-0.01771 -1.46029,0.05766 -1.91136,-0.511855 -0.47801,-0.603535 -0.32733,-1.612032 -0.32889,-2.366914 -0.003,-1.681954 -0.69678,-5.231915 0.32889,-6.52691403 0.44543,-0.562383 1.25656,-0.503516 1.91136,-0.511368 3.6917,-0.04432 1.44,2.20566403 2.88864,4.37656303 0.85187,1.276621 2.6299,0.741719 4.15111,0.741719"
       id="path1" />
  </g>
</svg>
