<?xml version="1.0" encoding="UTF-8" standalone="no"?>
<!-- Created with Inkscape (http://www.inkscape.org/) -->

<svg
   version="1.1"
   id="svg1"
   width="284.64767"
   height="49.430431"
   viewBox="0 0 284.64768 49.430431"
   xmlns="http://www.w3.org/2000/svg"
   xmlns:svg="http://www.w3.org/2000/svg">
  <defs
     id="defs1" />
  <g
     id="g1"
     transform="translate(-1.4323456,-63.548716)">
    <path
       style="fill:none;stroke:#3f321e"
       d="m 21.760001,112.13315 h 32.64 c 2.046534,0 9.512125,1.03944 10.138028,-1.29877 0.232007,-0.86671 0.109858,-2.54333 -1.150869,-2.3921 -1.116778,0.13397 -1.368789,1.52538 -2.59333,1.72346 -2.750005,0.44484 -6.137579,0.0474 -8.953829,0.0474 h -18.24 c -2.295225,0 -9.267654,1.24748 -9.267654,-1.92 0,-0.64042 0.0897,-1.71401 0.9479,-1.71654 0.859661,-0.002 1.014231,1.20065 1.7,1.5237 1.102185,0.51921 2.849649,0.19284 4.059754,0.19284 h 21.12 c 2.000835,0 7.898672,0.99355 8.271114,-1.60617 0.100918,-0.70442 -0.03186,-2.4493 -1.149629,-2.25902 -1.049668,0.1787 -1.005337,1.68299 -2.327656,1.89778 -6.417037,1.04235 -14.534044,0.0474 -21.113829,0.0474 -1.97355,0 -7.237976,0.92636 -7.632346,-1.60617 -0.129263,-0.83008 -0.129617,-2.2699 0.940988,-2.40469 1.228758,-0.1547 1.684908,1.69907 3.17284,1.76469 5.656367,0.24944 11.595813,0.006 17.278518,0.006 2.030996,0 6.707657,1.00714 6.707657,-1.92 0,-0.63321 -0.08264,-1.71402 -0.949136,-1.71654 -1.080322,-0.003 -1.57936,1.58251 -2.88,1.69778 -4.601651,0.4078 -9.744942,0.0188 -14.398521,0.0188 -1.382476,0 -5.174439,0.63489 -5.658272,-1.00741 -0.220835,-0.74959 -0.273176,-2.62579 0.858518,-2.629137 1.051687,-0.0031 1.291175,1.581917 2.565926,1.697777 3.676753,0.33418 7.794292,0.0188 11.513828,0.0188 2.078911,0 5.943521,0.41355 5.018028,-2.836048 -0.214009,-0.751433 -0.942808,-1.192062 -1.632593,-0.707407 -0.559785,0.393316 -0.582666,1.117232 -1.245684,1.430618 -2.157256,1.019665 -6.45956,0.192839 -8.859751,0.192839 -1.07573,0 -3.401509,0.407525 -3.966914,-0.741728 -0.314299,-0.63885 -0.502249,-3.334966 0.767161,-3.123457 0.897168,0.149487 0.920893,1.380188 1.7,1.752099 1.658151,0.791524 8.569114,0.7619 9.078025,-1.105678 0.211904,-0.777637 0.226367,-3.009226 -1.10148,-2.620989 -1.242988,0.363428 -5.261191,3.669463 -6.603706,0.938025 -0.379297,-0.771709 -0.336257,-3.264421 1.00543,-2.858025 0.815849,0.247119 0.734863,1.478923 1.709878,1.476299 1.347275,-0.0036 1.534863,-2.287576 0.922715,-3.177781 -0.903331,-1.313655 -4.020176,-0.778765 -5.431109,-0.778765 -3.853594,0 -7.68301,0.319754 -11.52,0.32 -1.284839,8.3e-5 -3.256766,0.348284 -4.378272,-0.365925 -1.246235,-0.793642 -0.777646,-4.733659 0.987654,-3.459507 0.562732,0.406167 0.63352,1.311687 0.830618,1.905432 1.19946,-0.604956 2.519795,-2.696132 1.086914,-3.83111 -0.860581,-0.681663 -3.819993,-0.597671 -4.831358,-0.13605 -0.645381,0.294573 -1.263917,1.867991 -2.148642,1.350864 -1.490279,-0.871074 -0.268692,-3.320454 1.099259,-3.444939 2.017371,-0.183581 5.387787,-0.477483 7.306666,0.08296 0.898438,0.262407 1.03979,1.61739 1.995554,1.614817 1.339766,-0.0036 1.583267,-2.288699 0.922718,-3.123459 -0.627015,-0.792408 -2.288772,-0.51305 -3.191111,-0.513108 -3.053301,-1.96e-4 -6.233577,-0.257566 -9.273827,0.01876 -1.059512,0.0963 -2.596033,2.648506 -3.333334,1.158028 -1.700779,-3.438179 2.530289,-3.416792 4.60716,-3.416792 3.433433,0 9.269119,-1.135108 12.434073,0.192839 0.907327,0.380696 1.451299,1.487017 2.285928,2.047161 0.514375,-0.963855 1.20342,-2.978501 0.126914,-3.831111 -1.076587,-0.852671 -3.912847,-0.328889 -5.246914,-0.328889 -4.678753,0 -9.405945,-0.08687 -14.079754,0.0015 -1.346193,0.02545 -2.505311,1.788166 -3.438272,1.623703 -0.859925,-0.151607 -1.0559713,-1.861509 -0.911604,-2.537796 0.378201,-1.771685 5.214067,-1.007407 6.589629,-1.007407 5.75648,0 11.524427,-0.10729 17.279754,0.0015 1.388379,0.02624 2.542459,1.780337 3.507408,1.623706 1.033198,-0.167707 1.097812,-1.787456 0.779506,-2.539013 -0.816491,-1.927854 -5.463388,-1.006194 -7.166667,-1.006194 H 11.84 c -1.9626536,0 -5.563629,2.422633 -5.7409874,0.313829 C 5.7752742,66.997702 11.741504,68.293147 14.4,68.293147 c 7.573282,0 15.146739,-0.01557 22.720001,0 0.780586,0.0016 1.770664,-0.113711 2.459753,0.328642 0.596104,0.382666 0.835213,1.76375 1.699998,1.616543 1.089668,-0.185488 1.10082,-2.034961 0.858521,-2.857778 -0.555577,-1.886685 -7.436131,-1.007407 -9.178272,-1.007407 H 9.2800002 c -1.2781134,0 -2.8886267,-0.251255 -4.1140742,0.101728 -1.2367749,0.35625 -3.2335804,3.237314 -3.2335804,-0.101728 0,-2.313584 2.09676,-1.92 3.8276545,-1.92 H 17.92 h 52.160002 14.08 c 1.625733,0 4.301367,-0.597159 4.459756,1.605927 0.04905,0.682256 0.01,2.027798 -0.94,2.030611 -0.939717,0.0028 -1.058389,-1.349458 -1.966914,-1.61481 -1.579668,-0.461377 -3.731152,-0.101728 -5.392842,-0.101728 H 54.080001 c -2.866694,0 -10.281997,-1.455328 -9.552593,2.860986 0.07958,0.470884 0.289458,1.108066 0.912842,1.004199 0.894409,-0.149028 0.927246,-1.383608 1.7,-1.7521 1.226646,-0.584931 3.352217,-0.109868 4.699751,-0.169135 7.968492,-0.350464 16.023233,-0.02395 24.000001,-0.02395 2.209785,0 8.348692,-1.138716 8.627656,1.924692 0.05622,0.617373 0.09809,2.099053 -0.907412,1.940737 -1.08416,-0.170698 -1.32165,-1.490498 -2.606172,-1.606665 -7.704131,-0.696738 -16.797031,-0.01877 -24.634073,-0.01877 -2.428066,0 -8.580605,-1.301157 -7.952344,2.541236 0.300728,1.839229 3.97691,-0.621123 5.712344,-0.621235 h 19.520001 c 1.83998,0 6.89624,-0.971304 7.015064,1.605925 0.03158,0.684973 -0.170752,2.103127 -1.17358,1.939507 -0.879209,-0.14345 -0.980756,-1.401829 -2.020249,-1.578025 -5.515898,-0.934954 -12.844907,-0.04741 -18.541236,-0.04741 -2.49935,0 -6.677353,-0.969942 -6.380986,2.553828 0.04472,0.531692 0.186465,1.437119 0.941235,1.311357 1.076241,-0.179326 1.045181,-1.691604 2.258516,-1.897778 4.415601,-0.750315 10.440811,-0.04741 15.021236,-0.04741 1.388608,0 5.172207,-0.643218 5.658271,1.007407 0.241729,0.820893 0.233658,2.669341 -0.85852,2.857778 -0.867359,0.149649 -1.457857,-1.505708 -2.565923,-1.606421 -3.627866,-0.329741 -7.827344,-0.01876 -11.513828,-0.01876 -1.298155,0 -4.538746,-0.620274 -5.018272,1.007407 -0.208262,0.706904 -0.251865,2.324909 0.633828,2.592099 1.188193,0.358445 1.646611,-1.437124 2.802959,-1.632099 2.658921,-0.44833 5.902774,-0.04741 8.621485,-0.04741 1.197607,0 3.632915,-0.464097 4.058027,1.007407 0.223584,0.77393 0.148408,2.364089 -0.858276,2.537778 -0.844414,0.145691 -1.180884,-1.293882 -1.966909,-1.523457 -2.095542,-0.612046 -11.077242,-1.122917 -9.040001,2.995064 0.235186,0.475393 0.74896,0.695144 1.226416,0.397036 1.699219,-1.060933 1.674634,-1.589605 4.020743,-1.573582 0.653466,0.0045 3.226689,0.117725 2.028149,1.412839 -0.80876,0.873929 -2.531084,0.06164 -3.115063,1.248643 -0.330733,0.672256 -0.482129,2.944275 0.530127,3.123457 0.974658,0.172527 2.058256,-1.825491 3.437031,-1.90074 5.583081,-0.304707 12.004566,-0.380163 17.599512,0.04074 1.403848,0.10561 3.005957,-2.262805 3.968643,-1.428889 3.388183,2.934983 -3.796573,3.573259 -3.407911,4.78074 0.922598,2.866325 5.62168,-0.683526 6.556299,-0.95679 1.322501,-0.386675 1.341622,1.82925 1.010127,2.592346 -0.719414,1.656084 -7.075381,1.385952 -8.719756,0.905679 -0.870088,-0.254126 -1.045117,-1.617542 -1.966914,-1.614817 -1.263662,0.0037 -1.139004,2.459001 -0.767158,3.214817 0.565586,1.149629 2.891055,0.741728 3.966914,0.741728 2.417901,0 6.380909,0.746912 8.594082,-0.193086 0.813145,-0.345366 0.991299,-1.296313 1.735303,-1.699506 0.668135,-0.362076 1.214473,0.0042 1.408887,0.660249 0.299531,1.010698 0.142002,2.501831 -0.905674,2.959257 -1.311328,0.572539 -3.332129,0.193086 -4.752598,0.193086 -3.514072,0 -7.399912,0.296978 -10.873828,-0.01876 -1.315171,-0.119537 -1.506904,-1.773492 -2.565923,-1.790618 -0.865825,-0.014 -0.947905,1.187161 -0.947905,1.808147 0,2.791915 3.772783,1.921235 5.747656,1.921235 4.653584,0 9.796856,0.38904 14.398516,-0.0188 1.300642,-0.11527 1.799682,-1.700918 2.880002,-1.697779 1.13972,0.0033 1.08874,1.891719 0.7684,2.629129 -0.74112,1.70604 -4.953177,1.00741 -6.526918,1.00741 -5.68499,0 -11.620478,0.24041 -17.279756,-0.006 -1.50041,-0.0654 -2.01271,-1.71382 -3.198765,-1.71037 -1.057006,0.003 -1.033481,1.60464 -0.913823,2.33778 0.351187,2.15174 5.602823,1.29876 7.312344,1.29876 H 101.12 c 1.93712,-1.2e-4 5.56686,-2.73211 5.73976,-0.31383 0.27181,3.80179 -5.74076,2.55383 -8.299757,2.55383 H 81.920002 c -2.509385,0 -5.532398,0.36871 -7.981235,-0.0474 -1.280025,-0.2175 -1.13878,-1.7112 -2.258516,-1.89778 -0.981821,-0.16359 -0.967637,1.34581 -0.952598,1.94395 0.07864,3.1275 6.625484,1.92124 8.952349,1.92124 H 103.36 c 1.35236,0 3.17776,0.33374 4.43408,-0.19284 1.26981,-0.53223 3.17306,-2.9014 3.10568,0.50691 -0.0523,2.64592 -7.81279,1.60593 -9.77976,1.60593 H 74.560002 c -1.55586,0 -3.572217,0.33656 -5.072842,-0.10173 -0.881421,-0.25744 -1.05311,-1.61752 -1.966909,-1.61481 -0.741504,0.002 -0.898428,0.8239 -0.940005,1.40247 -0.199727,2.77936 2.441709,2.23407 4.459756,2.23407 h 14.4 50.239998 12.48 c 1.25728,0 3.64979,0.44414 4.60692,-0.51309 0.63114,-0.63121 0.90334,-3.11952 -0.4484,-3.12345 -1.14538,-0.003 -1.73078,1.64641 -3.19876,1.71037 -8.91093,0.38825 -18.24936,0.006 -27.19976,0.006 -2.26727,0 -8.94765,1.22654 -8.94765,-1.92 0,-0.64042 0.0897,-1.71401 0.9479,-1.71655 0.85966,-0.002 1.01424,1.20066 1.7,1.52371 1.10218,0.51921 2.84966,0.19284 4.05975,0.19284 h 21.44 c 2.37366,0 7.98766,1.17624 7.98766,-2.23877 0,-0.66933 -0.17613,-1.99383 -1.18617,-1.68074 -0.94631,0.29334 -0.91801,1.59631 -2.02025,1.89778 -2.08364,0.56989 -4.86601,0.10173 -7.02124,0.10173 -4.80715,0 -9.60593,0.0374 -14.4,-0.2 -1.83944,-0.0911 -6.9239,1.30258 -7.57827,-1.09877 -0.23398,-0.85865 -0.25878,-2.56785 0.88692,-2.7121 1.21494,-0.15296 1.69297,1.69943 3.17284,1.7647 5.66116,0.24965 11.5922,0.006 17.27851,0.006 1.90786,0 7.06077,0.97713 6.98643,-1.92 -0.0192,-0.75029 -0.47176,-1.96877 -1.46025,-1.67976 -0.7975,0.23318 -0.85935,1.32276 -1.73333,1.57803 -4.3639,1.27456 -10.75612,0.10173 -15.31285,0.10173 -1.76064,0 -5.56644,0.80468 -5.73975,-1.60593 -0.0497,-0.691786 -0.0252,-2.027804 0.94124,-2.030614 1.00767,-0.0029 1.45432,1.489524 2.56469,1.669134 3.51508,0.56859 7.91043,0.0474 11.51382,0.0474 1.98036,0 5.22501,0.61678 5.09507,-2.235305 -0.0258,-0.566485 -0.19605,-1.477993 -0.93655,-1.494075 -0.98094,-0.0213 -1.4437,1.580195 -2.56469,1.761975 -2.55769,0.414761 -5.69514,0.04741 -8.31383,0.04741 -1.07587,0 -3.40132,0.407896 -3.96691,-0.741728 -0.3716,-0.755332 -0.49725,-3.211074 0.76716,-3.214815 0.90558,-0.0027 1.11093,1.36481 1.96691,1.614815 1.795,0.524262 8.59467,0.806069 9.13087,-1.197036 0.24646,-0.920696 0.002,-2.846958 -1.40864,-2.329632 -1.23468,0.45274 -5.2522,3.742022 -6.6163,0.966668 -0.45144,-0.918479 -0.2583,-3.482117 1.31284,-2.886668 0.66827,0.253269 0.73719,1.296621 1.45556,1.413829 1.33916,0.218493 1.4461,-2.303838 0.86963,-3.032347 -0.8381,-1.059135 -4.17329,-0.513086 -5.43112,-0.513086 -2.82495,0 -5.85251,-0.422888 -8.64,-0.216049 -1.90945,0.141684 -5.1719,0.892131 -6.93827,0.02296 -0.89094,-0.438399 -1.28641,-3.318799 -0.0188,-3.726421 1.03896,-0.334082 1.09417,1.250439 1.91852,1.384939 1.43737,0.234519 1.46937,-2.595586 0.68543,-3.216543 -2.3602,-1.869502 -7.28684,2.483503 -7.46667,-0.01482 -0.22854,-3.174968 6.68305,-2.76915 8.89383,-2.132346 0.85581,0.246509 1.12055,1.398799 1.99308,1.523704 0.78217,0.11197 1.11425,-0.689182 1.20396,-1.311358 0.11097,-0.769692 0.0153,-1.679692 -0.69285,-2.116296 -1.96249,-1.210037 -5.09178,-0.03899 -7.25827,-0.130371 -1.54729,-0.06527 -3.25282,-0.599155 -4.78148,-0.161235 -1.0138,0.290424 -1.30073,1.653447 -2.28568,1.799013 -1.45971,0.215735 -1.54277,-2.570674 -0.92395,-3.352099 0.75688,-0.955726 3.34426,-0.513113 4.47115,-0.513113 3.78765,0 8.10663,-0.320003 11.83383,0.01876 1.29169,0.117403 1.32066,1.442366 2.32766,1.606668 0.73333,0.119648 1.06417,-0.717195 1.14963,-1.311358 0.45017,-3.129956 -3.69542,-2.23407 -5.71112,-2.23407 -4.75217,0 -9.66274,-0.202588 -14.39851,0.0062 -1.24808,0.05502 -2.17304,1.788601 -3.118275,1.619013 C 98.752844,75.845517 98.825188,74.37943 98.927649,73.751664 99.273587,71.63204 103.67345,72.4529 105.28,72.4529 c 5.54584,0 11.09444,-0.0025 16.64,0 1.67211,7.52e-4 4.53947,2.410366 5.01803,0.620986 0.97956,-3.662652 -5.36582,-2.540987 -7.57803,-2.540987 -6.77171,0 -14.08342,-0.290336 -20.798513,0.0062 -1.482676,0.06547 -1.716494,1.713648 -2.865186,1.710367 -1.209961,-0.0035 -1.10499,-2.171665 -0.87457,-2.949131 0.565898,-1.909398 7.153859,-1.007405 8.858269,-1.007405 h 21.44 c 0.94316,5.8e-5 2.26674,-0.206109 3.09976,0.328642 1.3944,0.895132 1.01082,2.165772 2.98024,1.271357 -0.31311,-1.058916 0.0191,-2.795087 -1.06173,-3.326914 -2.06442,-1.01583 -6.23089,-0.193085 -8.53827,-0.193085 h -21.12 c -2.010671,0 -4.756599,-0.450596 -6.67408,0.101728 -0.824013,0.237354 -1.291826,1.68688 -2.202705,1.523457 -0.911806,-0.163589 -0.81458,-1.882349 -0.621484,-2.537778 0.435127,-1.476958 2.866064,-1.007407 4.058271,-1.007407 H 107.2 159.04 172.8 c 1.62573,0 4.30137,-0.597163 4.45977,1.605927 0.049,0.682246 0.01,2.027798 -0.94002,2.030611 -0.93971,0.0028 -1.05838,-1.349463 -1.96689,-1.61481 -1.57969,-0.461377 -3.73118,-0.101728 -5.39286,-0.101728 h -26.24 c -2.78305,0 -9.91625,-1.432696 -9.58098,2.553828 0.0443,0.527085 0.18258,1.437763 0.94123,1.311357 0.8942,-0.148994 0.92755,-1.383364 1.7,-1.7521 1.23137,-0.587807 3.35951,-0.193085 4.69975,-0.193085 h 24 c 2.06323,0 8.74543,-1.110591 8.93977,1.606171 0.0518,0.723711 -0.05,2.443345 -1.17828,2.259258 -1.08908,-0.17769 -1.47115,-1.590503 -2.96174,-1.759009 -7.49847,-0.84768 -16.06823,0.133579 -23.67975,0.133579 -2.10999,0 -8.75565,-1.168364 -8.61506,1.920001 0.0314,0.689497 0.3083,1.757077 1.22791,1.625432 0.98145,-0.140498 1.21719,-1.397869 2.28567,-1.578025 6.51549,-1.098599 14.74365,-0.04741 21.42148,-0.04741 1.69687,0 6.98321,-0.885127 7.31112,1.298764 0.1091,0.726697 -0.0394,2.42781 -1.14963,2.246668 -0.8792,-0.14345 -0.98076,-1.401831 -2.02026,-1.578025 -5.42265,-0.919138 -12.6215,-0.04741 -18.22123,-0.04741 -1.63794,0 -6.32166,-0.849993 -6.67235,1.298764 -0.11476,0.703098 -0.13863,2.334673 0.9126,2.337781 1.28474,0.0038 0.81594,-1.424619 2.25851,-1.669138 1.35589,-0.229824 3.3103,-0.04741 4.78124,-0.04741 h 10.24 c 2.0068,0 6.06766,-0.923299 6.06766,1.921235 0,0.738416 -0.18443,2.101687 -1.24049,1.94395 -1.01371,-0.151413 -1.23419,-1.557375 -2.28568,-1.843457 -3.32391,-0.904338 -8.04985,-0.141555 -11.50149,-0.100493 -1.17747,0.01401 -4.37423,-0.182893 -4.92691,1.018765 -0.30532,0.663847 -0.45564,2.668325 0.53013,2.845185 0.93756,0.168211 1.51545,-1.412563 2.4953,-1.577778 3.01833,-0.508926 6.81361,-0.05376 9.90148,-0.04741 1.36431,0.0028 2.77593,-0.110606 2.85507,1.605925 0.0313,0.678044 -0.0986,1.794897 -0.93531,1.93926 -0.84442,0.145693 -1.18087,-1.293877 -1.96691,-1.523457 -2.30333,-0.672734 -10.2802,-1.144956 -9.13112,2.730618 0.15806,0.533073 0.55348,0.926235 1.15112,0.767407 1.94037,-0.515674 2.33219,-1.725437 4.82691,-1.678272 0.65433,0.01237 2.78799,0.245142 1.70839,1.411604 -0.94058,1.01626 -2.77707,-0.08879 -3.43506,1.248643 -0.33761,0.686233 -0.48621,2.941211 0.53013,3.123457 0.89787,0.161003 2.39468,-1.800576 3.75678,-1.8879 5.39658,-0.345979 10.91157,-0.05485 16.32,-0.05729 1.37069,-6.17e-4 4.81135,-2.057595 5.24715,-1.176792 1.82979,3.698228 -4.23527,3.03366 -3.72666,4.613829 0.92264,2.86642 5.62166,-0.683667 6.55631,-0.95679 1.26461,-0.369548 1.50897,1.819194 1.14,2.592346 -0.48781,1.022183 -1.78025,1.000029 -2.8168,1.007161 -1.78669,0.01229 -4.33837,0.393415 -6.03285,-0.101482 -0.87009,-0.254131 -1.04509,-1.617542 -1.96689,-1.614817 -1.13172,0.0033 -1.07938,1.879543 -0.85854,2.629138 0.4277,1.451711 2.8609,1.007407 4.05828,1.007407 2.61915,0 5.75553,0.366421 8.31383,-0.04741 1.11106,-0.179722 1.56008,-1.672056 2.56469,-1.669136 0.74096,0.0022 0.91004,0.826949 0.93654,1.402471 0.11307,2.455095 -2.03945,2.115811 -3.81506,2.32543 -3.84335,0.45373 -8.99685,0.796958 -12.79382,0.181235 -1.14309,-0.185361 -1.79198,-2.076741 -2.80297,-1.897778 -0.94674,0.167588 -0.87596,2.420498 -0.53012,3.123457 0.65574,1.332858 4.28404,0.741728 5.56691,0.741728 h 10.56 c 1.43241,0 3.4269,0.37051 4.75409,-0.19308 0.81021,-0.344073 0.96314,-1.324818 1.73529,-1.645191 0.85859,-0.356245 1.35562,0.487929 1.46174,1.212343 0.51232,3.497748 -4.43668,2.545928 -6.67112,2.545928 -5.774,0 -12.20888,0.49976 -17.91382,-0.0188 -1.41118,-0.12826 -1.39397,-1.60584 -2.59457,-1.7521 -1.25406,-0.15277 -1.34816,1.50858 -1.20396,2.3921 0.35721,2.18863 5.33802,1.29877 6.99235,1.29877 h 19.52 c 1.57075,-1.1e-4 5.29196,-2.17988 5.65803,-0.91235 1.14571,3.96688 -5.91457,2.83235 -8.21803,2.83235 -7.89525,0 -16.13875,0.34044 -23.99851,-0.006 -1.45201,-0.064 -1.77774,-1.71364 -2.88124,-1.71037 -1.14633,0.003 -1.04181,1.89106 -0.91284,2.65777 0.37669,2.23948 7.04681,1.29877 8.91259,1.29877 h 24 c 1.42854,0 3.47055,0.41215 4.69977,-0.37704 0.6075,-0.39004 0.74766,-1.40474 1.46172,-1.62272 0.57723,-0.1762 0.95189,0.2753 1.0968,0.76741 1.32021,4.48374 -6.84153,3.15235 -9.49829,3.15235 -9.98544,0 -21.17142,0.87764 -31.03382,-0.0188 -1.40504,-0.12771 -1.39612,-1.6061 -2.59457,-1.7521 -1.35057,-0.16453 -1.41167,1.79484 -1.14988,2.68346 0.44132,1.49797 3.14122,1.0074 4.37827,1.0074 h 14.08 52.16001 c 3.97002,0 7.88804,-0.13435 11.84,-0.3074 1.51871,-0.0665 3.8167,0.42624 4.11111,-1.61852 0.0978,-0.679 0.0493,-2.02782 -0.9126,-2.03062 -0.85472,-0.002 -1.22672,1.2145 -1.96443,1.5237 -1.32705,0.55623 -3.31998,0.19284 -4.75408,0.19284 -7.88643,0 -15.8103,0.18484 -23.68,0.005 -2.28916,-0.0524 -8.94766,1.30503 -8.94766,-1.92469 0,-0.91818 0.3757,-2.16281 1.46125,-1.57383 0.84519,0.45858 0.89617,1.22434 1.76887,1.4721 1.12232,0.31864 2.89859,0.10173 4.11754,0.10173 h 20.48 c 2.03361,0 8.20929,1.04583 8.59111,-1.60593 0.11975,-0.83166 -0.0478,-2.22362 -1.20395,-2.08493 -1.11681,0.13397 -1.3688,1.52537 -2.59334,1.72345 -6.38795,1.03331 -14.55578,0.0474 -21.11382,0.0474 -2.12481,0 -7.34766,1.08966 -7.34766,-1.92 0,-0.69844 0.19023,-1.97231 1.19086,-1.67975 1.0326,0.30191 1.12849,1.43913 2.32297,1.63235 5.34539,0.86466 12.40334,0.0474 17.91383,0.0474 1.57457,0 5.78478,0.69427 6.52691,-1.00741 0.34045,-0.78063 0.42162,-2.94567 -0.7684,-2.94914 -1.12545,-0.003 -1.72363,1.6461 -3.19877,1.71038 -5.09881,0.22216 -10.25562,0.006 -15.35974,0.006 -2.11358,0 -4.92057,0.45226 -4.43235,-2.541242 0.094,-0.576235 0.43186,-1.276309 1.15086,-1.058518 0.71275,0.215891 0.80024,1.175303 1.46172,1.486914 1.02953,0.484996 2.61102,0.192839 3.73977,0.192839 h 9.28 c 1.09824,0 2.79205,0.320567 3.73357,-0.328889 0.99701,-0.687737 0.48109,-2.144089 0.74643,-3.191111 -1.96788,-0.523945 -1.87487,1.04855 -3.53852,1.498272 -2.38307,0.644197 -5.8027,0.101728 -8.30148,0.101728 -1.11977,0 -3.70067,0.45105 -4.28692,-0.741728 -0.36213,-0.736773 -0.43012,-2.891382 0.77186,-2.894815 0.95691,-0.0027 1.35381,1.360415 2.26963,1.614815 1.77382,0.492734 8.28634,0.809514 8.82345,-1.197036 0.20252,-0.756573 0.13034,-2.64972 -1.10123,-2.301978 -1.20818,0.341138 -5.27177,3.646318 -6.60371,0.939014 -0.38834,-0.789343 -0.40416,-3.604854 1.00543,-3.178025 0.70399,0.213171 0.70516,1.264805 1.44297,1.385186 1.35795,0.221557 1.42043,-2.336272 0.86963,-3.032347 -0.83651,-1.057133 -4.17447,-0.513086 -5.43111,-0.513086 -4.42918,0 -11.1351,1.138509 -15.3126,-0.101728 -1.14725,-0.340601 -1.37905,-2.365479 -0.67998,-3.219014 1.50886,-1.842282 1.58672,2.409041 3.32097,0.868892 0.86004,-0.763784 0.64934,-2.664011 -0.23011,-3.250867 -0.96965,-0.647038 -3.21924,-0.602402 -4.33114,-0.275554 -0.97099,0.285432 -1.01238,1.689065 -1.9716,1.843457 -0.85883,0.138233 -1.13547,-0.990732 -1.21357,-1.626421 -0.39828,-3.241389 6.90463,-2.798935 9.17088,-2.137036 0.78603,0.229573 1.12248,1.669148 1.96689,1.523457 1.00668,-0.173686 1.08186,-1.763847 0.85828,-2.537778 -0.4251,-1.471504 -2.86043,-1.007407 -4.05802,-1.007407 -2.71872,0 -5.96254,-0.400921 -8.62149,0.04741 -0.97984,0.165212 -1.55773,1.745994 -2.49531,1.577778 -0.77664,-0.139343 -0.74502,-1.354426 -0.70297,-1.93926 0.16752,-2.329844 3.42187,-1.605928 5.09976,-1.605928 3.66688,0 8.2646,-0.555445 11.82124,0.04741 1.03949,0.176194 1.14103,1.434573 2.02025,1.578025 1.00285,0.163625 1.20514,-1.254549 1.17357,-1.939507 -0.12822,-2.782288 -4.2558,-1.614849 -6.05505,-1.606172 -4.64928,0.02242 -9.4452,-0.197825 -14.07852,0.0064 -1.30574,0.05756 -2.1383,1.781477 -3.1726,1.619013 -1.05578,-0.165837 -1.07129,-1.768174 -0.94123,-2.566421 0.34231,-2.10102 5.00557,-1.298764 6.67234,-1.298764 5.70901,0 12.3004,-0.491826 17.91383,0.01876 1.28045,0.116465 1.56336,1.838025 2.56592,1.835061 0.87324,-0.0026 0.94791,-1.244787 0.94791,-1.85259 0,-2.981099 -5.25558,-1.921236 -7.34765,-1.921236 -6.61243,0 -13.2279,-0.0136 -19.84001,0 -1.45429,0.003 -3.21716,1.77942 -4.07679,1.625186 -0.85035,-0.152548 -0.77801,-1.618662 -0.67555,-2.246401 0.36965,-2.264814 6.48279,-1.298764 8.27234,-1.298764 h 21.12001 c 1.22789,0 2.94152,-0.333838 4.05976,0.192841 0.6183,0.291211 0.76822,1.319439 1.46172,1.432588 0.88084,0.143716 1.14469,-0.990097 1.17357,-1.625429 0.14315,-3.149229 -7.05589,-1.92 -9.25505,-1.92 H 186.24 c -1.2141,0 -2.94855,-0.31649 -4.06445,0.192841 -0.67353,0.307427 -1.06275,1.588365 -1.93234,1.432344 -0.92076,-0.1652 -0.78697,-1.905483 -0.6758,-2.566421 0.31488,-1.872085 3.03504,-1.298764 4.43259,-1.298764 h 14.08001 51.52 12.48 c 1.07468,0 3.40365,-0.404341 3.96691,0.741728 0.40307,0.820127 0.37496,2.926401 -0.76717,3.123457 -0.84441,0.145693 -1.18086,-1.293882 -1.96689,-1.523457 -1.40852,-0.411382 -3.27301,-0.101728 -4.75285,-0.101728 h -26.88 c -2.52387,0 -11.08448,-1.438199 -9.81829,2.832343 0.15805,0.533067 0.55352,0.926221 1.15112,0.767407 0.80781,-0.214682 0.99451,-1.154472 1.72271,-1.486909 1.40578,-0.641767 3.8058,-0.192841 5.34446,-0.192841 h 24.64 c 1.86943,0 7.21494,-0.999429 7.33506,1.605927 0.0316,0.684966 -0.17075,2.103121 -1.17358,1.939502 -0.8792,-0.143447 -0.98074,-1.401826 -2.02025,-1.578022 -2.52869,-0.428618 -5.69867,-0.04741 -8.30123,-0.04741 h -16.64 c -2.34911,0 -9.13225,-1.298247 -7.89829,2.831113 0.15565,0.520884 0.54993,0.888694 1.10149,0.634072 2.26012,-1.04333 2.95662,-1.545185 5.8368,-1.545185 h 19.52 c 1.99361,0 5.57006,-0.766431 5.73976,1.606172 0.0508,0.709733 -0.0529,2.443508 -1.17828,2.25926 -1.10113,-0.180281 -1.21059,-1.703413 -2.64297,-1.868889 -5.5992,-0.646844 -12.21734,0.243457 -17.91851,0.243457 -2.46871,0 -7.48784,-1.125708 -6.29829,2.831111 0.39159,1.302517 3.31338,-0.90826 4.69829,-0.911111 4.9058,-0.0101 9.814,0 14.72,0 1.58285,0 4.35328,-0.601739 4.45506,1.605925 0.0316,0.684963 -0.17077,2.103125 -1.17358,1.939507 -1.10746,-0.180691 -1.15641,-1.553704 -2.64297,-1.61926 -4.15783,-0.183357 -11.33457,-1.08502 -15.31111,0.09556 -1.10569,0.328259 -1.28252,2.049155 -0.81455,2.995064 0.73107,1.477695 2.32574,-1.066448 3.33332,-1.158028 3.03637,-0.275976 6.51353,-0.02015 9.59383,-0.01876 1.06187,4.78e-4 2.72449,-0.285572 3.09802,1.007407 0.22746,0.78739 0.13162,2.377793 -0.88691,2.537778 -0.99332,0.156028 -1.37373,-1.269028 -2.25703,-1.523457 -2.29475,-0.660986 -10.93635,-1.011904 -8.72123,3.310371 0.26894,0.524778 0.78687,0.569448 1.239,0.217529 1.47018,-1.144318 3.65184,-2.895537 5.82026,-1.380986 2.29505,1.602998 -2.70096,1.941738 -3.08323,2.424443 -0.52804,0.6668 -0.5699,2.791822 0.40666,3.086421 1.19407,0.360213 1.81,-1.542727 3.11063,-1.660742 4.73002,-0.429192 9.9382,-0.01876 14.71383,-0.01876 1.29494,0 4.21642,-0.567919 5.22814,0.327408 1.05692,0.935322 -1.47014,1.779206 -1.14765,2.789382 0.42054,1.317373 3.89224,0.0799 3.35902,1.974568 -0.43473,1.544726 -4.38213,1.295534 -5.3452,0.477036 -0.46383,-0.394212 -0.72914,-1.344324 -1.45283,-1.342219 -1.23389,0.0036 -1.14953,2.607981 -0.6326,3.260739 0.63596,0.803067 2.27725,0.513028 3.19112,0.513086 3.10621,2e-4 5.70566,0.444163 7.36,-2.24 1.53996,1.049331 1.90095,3.91565 -0.64149,4.141236 -2.06193,0.182951 -4.31638,0.01876 -6.39851,0.01876 -1.45668,0 -3.36573,0.303404 -4.75285,-0.101728 -0.98959,-0.289026 -1.10338,-1.814566 -2.25852,-1.669136 -1.67654,0.211074 -1.20274,3.385703 0.31014,3.643457 4.41906,0.752898 10.58226,0.421898 15.01974,0.02864 1.33975,-0.118733 1.9886,-1.900225 3.1726,-1.7521 1.11992,0.140107 1.15893,1.847548 0.7958,2.683448 -0.71607,1.64842 -4.38767,1.00741 -5.88691,1.00741 -4.7468,0 -10.02297,0.40759 -14.71383,-0.0188 -1.27473,-0.11586 -1.51424,-1.70089 -2.56592,-1.69778 -1.07285,0.003 -1.02752,1.61245 -0.9126,2.35037 0.34869,2.23912 4.71537,1.62984 6.67235,1.5405 5.68037,-0.25933 12.34406,0.23315 17.91383,-0.27309 1.28462,-0.11676 1.5072,-1.70091 2.56591,-1.69778 1.05991,0.003 1.02625,1.6206 0.9126,2.35037 -0.39898,2.56213 -5.66924,1.60618 -7.63234,1.60618 -6.71239,0 -14.1591,0.57697 -20.79506,-0.0188 -1.3136,-0.11793 -1.78516,-1.70091 -2.88,-1.69778 -0.97352,0.003 -1.01309,1.35675 -0.91606,2.03061 0.19348,1.34378 1.002,1.54793 2.19137,1.59976 1.73717,0.0757 3.68217,0.006 5.43975,0.006 h 22.08 c 1.09281,0 2.45873,0.23273 3.47408,-0.19284 0.9031,-0.37853 2.80107,-3.06545 3.19703,-0.4284 0.5832,3.88409 -7.08982,2.54124 -9.55111,2.54124 h -23.36 c -1.37028,0 -3.45557,0.39327 -4.69977,-0.19284 -0.6933,-0.3266 -0.96935,-1.7979 -1.93727,-1.48667 -1.40464,0.45169 -0.82632,3.48801 0.28444,3.81778 3.75971,1.1162 9.72191,-0.21827 13.7126,-0.21827 h 11.2 16"
       id="path1" />
  </g>
</svg>
