<svg xmlns="http://www.w3.org/2000/svg" viewBox="0 0 309.44 255.998"><path d="M0 .704h18.24c1.653 0 5.327-.622 6.527.329.74.585.513 1.943.513 2.871v54.4c0 .914.277 2.566-.513 3.191-.898.711-2.86.329-3.967.329H10.56c-1.04 0-2.801.341-3.647-.329-.79-.625-.513-2.277-.513-3.191 0-2.448-1.026-7.812.329-9.781.639-.929 2.137-.777 3.191-.779 2.122-.004 5.853-.732 6.061 1.606.089.996.184 2.003-.494 2.68-.908.908-3.762-.177-4.185 1.206-1.303 4.26 2.693 3.785 5.658 3.788.931.001 2.31.282 3.007-.284 1.115-.908.513-4.633.513-6.116 0-1.702.746-5.908-.513-7.167-.914-.914-3.088-.513-4.287-.513-3.365 0-9.8-.717-12.781.102-1.472.404-1.29 1.517-1.299 2.778-.014 2.053 0 4.326 0 6.4v18.88c0 3.154.18 4.135.307 7.04.073 1.664-.832 6.234 1.02 6.993 3.377 1.383 9.113.273 12.753.362 1.319.033 2.992.388 4.058-.324.867-.579.74-1.898.742-2.871.005-2.646.005-5.354 0-8-.002-.847.172-2.008-.513-2.551-.814-.645-2.548-.324-3.647-.33-2.54-.012-5.157-.963-5.118 2.24.006.488-.041 1.027.191 1.5.346.702 1.044.7 1.728.735.808.041 1.484-.101 2.137.335.67.446.717 1.204.734 1.911.018.697.017 1.525-.505 2.047-1.007 1.007-7.446 1.077-8.574.184-.74-.586-.513-2.019-.513-2.871v-7.68c0-.873-.208-2.3.513-2.871.961-.761 3.054-.329 4.287-.329 3.526 0 9.646-.82 12.753.102 1.595.473 1.194 5.1 1.298 6.618.5 7.293.029 14.879.029 22.4 0 1.874-.013 3.902 0 5.76.007 1.004-.167 2.11 1.007 2.458 3.099.92 9.568.102 13.073.102 1.2 0 3.373.4 4.287-.513 1.257-1.257.516-5.467.513-7.167-.002-1.445.224-4.83-.833-5.887-.99-.99-7.145-1.063-8.254-.184-.748.592-.575 1.969-.494 2.865.14 1.547.906 1.57 2.221 1.605.702.018 1.485-.115 2.047.33.734.582.685 1.853.411 2.852-.366 1.337-1.594 1.32-2.778 1.483-1.695.234-5.046.784-6.207-.377-.974-.974-.513-4.644-.513-6.207 0-1.736-.731-5.508.329-6.847.603-.76 3.117-.734 4.151-.804 3.099-.213 6.18.291 9.28.291 1.452 0 3.137-.418 4.378.193.831.409.736 1.542.742 2.367.016 2.32 0 4.713 0 7.04v24c0 1.977.035 4.121-.002 6.08-.013.71.026 1.51-.511 2.047-.85.85-2.747.513-3.967.513-3.484 0-10.457 1.089-13.393-.193-1.184-.517-1.005-1.895-1.007-3.007-.006-2.682-.018-5.637 0-8.32.008-1.18-.095-2.275 1.299-2.513 1.709-.29 6.095-.7 7.522.282.9.62 1.015 2.156.586 3.144-.447 1.027-1.415.971-2.367 1.007-2.848.108-3.219 4.546-.634 4.781 1.574.143 6.353.759 7.345-.494.606-.765.329-2.386.329-3.327 0-2.856.049-5.346-.002-8-.013-.691.058-1.46-.511-1.911-.556-.44-1.346-.324-2.047-.329-2.059-.014-4.321 0-6.4 0-2.327 0-4.72-.005-7.04 0-.818.002-1.74-.168-2.367.329-.62.491-.508 1.511-.513 2.231-.014 2.059 0 4.321 0 6.4v20.16c0 2.141.801 5.834-.329 7.583-.676 1.046-2.591 1.05-3.831 1.057-3.717.018-9.331.289-12.799-.019-1.72-.152-1.891-1.025-1.92-2.541-.046-2.469-.001-5.187-.001-7.68 0-1.03-.36-3.105.742-3.647 1.553-.764 4.565-.205 6.298-.193.706.005 1.736-.112 2.231.513.73.921.461 3.127-.184 3.638-.577.457-1.282.31-2.047.33-.66.017-1.452-.068-1.911.512-.446.563-.336 1.295-.327 2.047.007.584-.056 1.244.327 1.727.69.871 2.712.513 3.83.513 1.178 0 4.01.475 4.792-.513 1.44-1.818.33-8.03.329-10.367 0-.93.251-2.518-.742-3.007-1.162-.572-3.093-.193-4.378-.193-3.513 0-7.05-.007-10.56 0-1.406.003-2.693-.179-3.098 1.299-.504 1.832-.102 6.131-.102 7.981v28.16c0 1.2-.4 3.373.513 4.287 1.275 1.275 5.137.425 6.847.542 2.773.19 8.462 1.508 10.778-.038.867-.579.74-1.898.742-2.871.005-2.377 1.142-8.83-.329-10.687-.544-.687-1.773-.511-2.551-.513-1.729-.004-6.023-.638-6.353 1.299-.172 1.014-.29 2.265.282 2.988 1.336 1.686 4.346-.759 4.465 2.435.03.83.11 1.741-.507 2.286-.51.45-1.388.498-2.047.512-1.396.03-5.892.28-6.711-.753-.88-1.112-.329-4.151-.329-5.567 0-1.797-.767-5.783.329-7.167.69-.871 3.052-.513 4.151-.513h9.92c1.279 0 2.649-.343 3.738.193.769.378.727 1.31.74 2.047.041 2.163.002 4.537.002 6.72v20.48c0 1.763-.776 6.092.329 7.487 1.077 1.36 7.226.63 8.951.62 2.754-.015 6.333 1.244 8.567-.382 1.172-.852 1.046-2.039 1.028-3.245-.023-1.604-.137-3.004-.17-4.8-.015-.856.13-1.418.162-2.24.036-.88.17-1.978-.364-2.778-.58-.87-1.532-.735-2.503-.742-2.494-.017-6.679-1.055-6.718 2.24-.045 3.764 2.406 1.401 4.285 2.889.782.62.707 2.095.411 3.172-.483 1.76-4.514 1.303-6.298 1.299-.905-.002-2.253.141-2.687-.742-1.198-2.434-.129-6.992-.198-9.818-.021-.886-.576-2.55.203-3.191.904-.745 3.157-.329 4.282-.329h9.92c1.106 0 2.766-.315 3.701.329 1.075.74.779 2.672.779 3.831 0 3.536-.277 7.036-.319 10.56-.078 6.579.319 13.014.319 19.52 0 2.046.777 5.601-.329 7.258-.676 1.014-2.929.742-4.151.742H33.92c-1.184 0-2.74.39-3.647-.329-.91-.721-.452-4.43-.542-5.751-.128-1.888-1.12-6.025.038-7.487.528-.666 1.763-.511 2.551-.513 1.87-.004 4.394-.586 5.978.193.774.38.74 1.28.74 2.047 0 .799.015 1.752-.74 2.225-.686.431-1.294.112-2.137.155-1.81.093-2.752 2.682-1.592 4.147.72.91 2.978.513 4.151.513 1.259 0 3.65.443 4.607-.513.72-.72.513-2.069.513-3.007.001-2.527.384-6.3-.11-8.635-.378-1.785-1.503-1.902-3.09-1.924-3.689-.051-7.5 0-11.2 0-1.166 0-3.057-.393-3.967.328-.721.571-.513 1.998-.513 2.871v54.72c0 1.664-.502 3.31 1.606 3.501 3.063.278 7.926-.316 11.194-.3 8.518.04 17.08 0 25.6 0h8.96c1.016 0 2.79.327 3.652-.33.905-.69.815-2.503.827-3.51.038-3.2.001-6.401.001-9.6 0-11.646-.32-23.243-.32-34.88v-8.96c0-1.01.26-2.555-.513-3.328-1.294-1.294-5.732-.513-7.487-.513h-7.36c-.867 0-2.004-.212-2.687.33-.764.604-.513 2.253-.513 3.19 0 2.537-.005 5.151 0 7.68.002.762-.15 1.764.329 2.367.495.625 1.475.508 2.231.513 1.704.012 6.32.774 6.673-1.299.32-1.884-.178-3.104-2.193-3.18-.909-.035-1.831.025-2.138-1.008-.312-1.049-.37-2.846.411-3.464 1.103-.874 7.237-.833 8.254.184 1.603 1.604.518 8.133.513 10.367-.002.916.147 2.027-.513 2.687-.85.85-2.747.513-3.967.513H57.6c-1.184 0-2.74.39-3.647-.329-.625-.495-.508-1.526-.513-2.231-.015-2.28-.309-4.75-.32-7.04-.038-8 0-16 0-24 0-1.865-.004-3.916 0-5.76.002-.777-.156-1.754.329-2.367.705-.89 2.865-.513 4.151-.513 3.84 0 9.93-.927 13.393.102 1.22.362 1.007 2.244 1.007 3.418 0 2.536.017 5.151 0 7.68-.01 1.403.04 2.565-1.606 2.833-1.69.274-6.412.712-7.345-.466-.381-.482-.32-1.156-.327-1.727-.047-3.865 3.086-1.23 4.47-3.302 1.008-1.512.233-3.582-1.278-3.72-1.852-.168-6.117-1.109-7.48.22-.701.682-.514 2.018-.514 2.962-.001 2.554-.005 5.126 0 7.68.002.778-.174 2.007.513 2.551 1.602 1.268 6.742.329 8.767.329 2.237 0 4.501.324 6.72.32.815-.002 1.768.086 2.367-.513.6-.6.507-1.55.513-2.367.014-2.005 0-4.07 0-6.08v-20.8c0-1.857-.803-6.058.329-7.487.69-.871 3.052-.513 4.151-.513 3.84 0 9.929-.927 13.393.102 1.188.352 1.006 1.98 1.007 3.098.001 2.636.018 5.372 0 8-.007 1.018.066 2.218-1.007 2.687-1.54.672-3.942.205-5.713.193-.756-.005-1.736.112-2.231-.513-.584-.737-.623-2.556-.136-3.545.457-.929 3.058-.54 3.774-1.255.468-.468.49-1.118.505-1.727.083-3.315-4.931-2.66-7.35-2.554-3.255.144-1.922 8.034-1.922 10.554 0 1.026-.239 2.844.742 3.327 1.249.614 2.923.142 4.378.206 3.102.135 6.161.307 9.28.307 1.22 0 3.117.337 3.967-.513.6-.6.507-1.55.513-2.367.015-2.24-.26-4.49-.315-6.72-.18-7.365-.776-15.407.086-22.72.26-2.197 1.265-7.997-.366-9.727-1.21-1.283-6.004-.513-7.725-.513H84.8c-.867 0-2.004-.212-2.687.329-.764.605-.513 2.254-.513 3.191 0 2.537-.005 5.15 0 7.68.002.762-.149 1.763.329 2.367.937 1.183 5.057.579 6.71.507 1.173-.051 1.976-.245 2.194-1.6.664-4.142-3.693-2.051-4.331-4.201-.292-.982-.332-2.556.411-3.144 1.21-.958 4.305-.332 5.887-.329.762.002 1.763-.15 2.367.329.685.543.511 1.704.513 2.551.005 2.646.005 5.354 0 8-.002.973.125 2.292-.742 2.871-1.019.68-2.48.329-3.738.329h-9.92c-1.173 0-3.431.396-4.151-.513-.95-1.2-.329-4.874-.329-6.527v-18.88c0-2.58 1.343-11.532-1.921-11.821-3.913-.347-8.212.113-12.159.067-1.196-.014-3.429-.119-4.287.563-.739.587-.513 1.942-.513 2.871-.001 2.554-.005 5.126 0 7.68.002.873-.185 2.231.742 2.687 1.53.753 4.579.224 6.298.192.71-.014 1.51.025 2.047-.512.71-.71.828-2.193.32-3.225-.45-.916-1.507-.704-2.365-.748-.674-.034-1.382-.03-1.729-.736-.465-.945-.43-3.136.32-3.73 1.222-.967 6.29-.83 7.705-.135.925.455.742 2.033.742 3.007.001 2.66.006 5.34 0 8-.002.873.185 2.231-.742 2.687-1.103.543-2.832.193-4.058.193h-9.28c-1.173 0-3.431.396-4.151-.513-.478-.604-.327-1.605-.329-2.367-.004-2.005 0-4.07 0-6.08v-23.68c0-2.065-1.262-7.483.009-9.087 1.055-1.332 6.645-.513 8.311-.513 2.184 0 8.02-1.023 9.727.329.802.635.513 2.276.513 3.191 0 2.627.953 7.489-.193 9.818-.686 1.395-5.368.8-6.847.736-.95-.042-1.833-.182-2.138-1.293-.298-1.084-.317-2.595.411-3.172 1.54-1.22 4.17.746 4.28-2.25.132-3.538-3.042-2.88-5.753-2.879-.915 0-2.556-.29-3.191.513-1.424 1.798-.33 8.059-.329 10.367 0 .908-.267 2.575.513 3.191 1.045.825 3.04.044 4.287.014 3.196-.079 6.403-.01 9.6-.005 1.138.002 2.476.445 3.418-.063.77-.416.726-1.431.74-2.177.041-2.164.002-4.537.002-6.72v-20.16c0-1.952-.77-5.931.329-7.578 1.077-1.614 6.816-.742 8.631-.742 2.112 0 7.728-1 9.407.329.807.639.513 2.294.513 3.191 0 2.634.95 7.48-.193 9.819-.453.925-2.087.969-3.007 1.032-2.041.141-5.86.373-6.061-1.897-.075-.843-.2-1.717.31-2.36.761-.962 3.066-.136 3.958-1.027.676-.677.671-1.995.374-2.988-.614-2.053-4.808-1.311-6.581-1.299-.816.006-1.95-.107-2.367.742-1.138 2.314-.193 7.153-.193 9.818 0 .946-.238 2.292.329 3.007.69.871 2.712.513 3.831.513 3.497 0 7.086.232 10.56-.18.986-.118 2.257.136 3.098-.453.957-.67.742-2.175.742-3.207v-30.4c0-1.755.781-6.193-.513-7.487-1.467-1.467-7.068-.513-9.087-.513-1.966 0-7.334-.92-8.767.513-1.037 1.037-.513 3.873-.513 5.247 0 1.91-.78 6.776 1.05 7.898 1.383.849 3.197.111 4.71.111 1.09 0 2.19.523 3.098-.03.827-.504.769-1.637.736-2.538-.022-.569-.015-1.202-.507-1.592-.573-.453-1.322-.298-2.047-.335-1.925-.097-3.264-2.345-1.682-3.96.804-.823 2.78-.514 3.922-.514 1.146 0 3.355-.41 4.287.329.812.643.495 2.267.518 3.191.065 2.648.674 6.452.268 8.954-.299 1.834-1.922 1.605-3.473 1.606-3.647.002-7.244-.018-10.88 0-1.252.006-3.006.432-3.967-.329-.666-.528-.511-1.763-.513-2.551-.005-2.612.206-5.4-.136-8-1.566-11.929.136-24.768.136-36.8 0-3.324-.321-6.599-.32-9.92 0-1.463-.203-3.179 1.606-3.473 3.712-.603 8.349-.047 12.154-.047h33.92c1.116 0 2.776-.313 3.738.329 1.023.682.742 2.435.742 3.511 0 3.28.243 6.666-.184 9.92-.595 4.527.206 9.208.184 13.76-.031 6.473-.736 13.025-.291 19.52.22 3.21.291 6.373.291 9.6 0 1.075.31 2.824-.513 3.647-1.236 1.236-4.875.43-6.527.542-2.93.2-5.713.201-8.64 0-.866-.06-2.267.221-2.871-.542-1.105-1.395-.329-5.724-.329-7.487 0-1.335-.523-4.171.329-5.247.945-1.194 4.95-.523 6.391-.513.66.005 1.505-.1 2.047.329.623.494.56 1.413.494 2.23-.235 2.87-2.678.99-4.268 2.25-.74.587-.606 2-.466 2.865.382 2.352 4.33 1.281 6.353 1.286.866.002 2.322.243 2.871-.476 1.417-1.853.33-7.35.329-9.764 0-.938.207-2.287-.513-3.007-.87-.87-2.829-.513-3.967-.513h-9.92c-1.099 0-3.064-.386-3.967.329-1.421 1.125-.513 7.472-.513 9.271v23.68c0 2.01-.004 4.075 0 6.08.002.762-.15 1.763.329 2.367.72.91 2.978.513 4.151.513 3.618 0 9.851.79 13.101-.102 1.363-.374 1.29-1.58 1.299-2.778.018-2.628 0-5.364 0-8 0-1.117.18-2.746-1.007-3.098-1.73-.514-4.11-.115-6.033-.102-.721.005-1.74-.106-2.231.513-1.374 1.734-.06 4.181 1.911 4.281.726.037 1.474-.119 2.047.335 1.29 1.021.443 3.854-1.093 4.104-1.598.26-5.853.754-7.16-.282-.742-.587-.514-2.029-.514-2.871v-7.68c0-.873-.208-2.3.513-2.871 1.556-1.233 6.417-.339 8.447-.329 2.065.01 7.232-.756 8.858.329s.625 6.193.796 7.991c.66 6.94-.043 13.885-.054 20.8-.003 2.147-.67 6.041.644 7.861.957 1.325 3.127.58 4.476.488 3.729-.256 9.418.997 12.753.007 1.15-.342 1.005-1.891 1.007-2.916.006-2.723.019-5.603 0-8.32-.007-.975.08-2.135-1.007-2.458-1.658-.492-3.87-.114-5.713-.102-.721.005-1.74-.106-2.231.513-.641.81-.414 3.165.184 3.638 1.068.846 2.697-.346 3.638.842 1.442 1.82.126 4.247-1.911 4.286-1.612.03-5.776.67-6.711-.512-.524-.662-.329-1.828-.329-2.687v-7.68c0-.93-.256-2.516.742-3.007 1.088-.535 2.859-.193 4.058-.193h9.6c1.11 0 3.685-.482 4.287.742.875 1.777.193 5.295.193 7.258v29.12c0 1.238.462 3.608-.329 4.607-1.012 1.278-6.077.513-7.671.513-2.488 0-8.489 1.159-10.367-.329-.7-.554-.513-2.006-.513-2.871v-7.68c0-.867-.212-2.004.329-2.687.855-1.08 4.637-.516 6.071-.513.762.002 1.763-.149 2.367.329.693.549.554 1.62.586 2.55.097 2.89-3.856.923-4.451 2.928-.287.965-.323 2.586.227 3.28.495.625 1.475.508 2.231.513 1.809.012 4.544.628 5.978-.329.981-.654.742-2.196.742-3.191.001-2.463.005-5.193 0-7.68-.002-.949.156-2.272-.742-2.871-1.63-1.088-5.645-.35-7.578-.328-2.455.03-4.89.318-7.36.319-.803 0-2.021-.198-2.687.329-1.19.943-.513 4.97-.513 6.391v19.52c0 2.75.019 5.578 0 8.32-.01 1.403.04 2.565-1.606 2.833-3.352.545-9.168.047-12.794.047-1.173 0-3.431.396-4.151-.513-.95-1.2-.329-4.874-.329-6.527 0-1.47-.603-5.827.513-6.711 1.255-.994 4.564-.332 6.207-.329.762.002 1.763-.15 2.367.329.802.635.788 2.391.32 3.464-.448 1.026-1.414.97-2.367 1.007-.76.029-1.653-.059-2.047.742-.465.945-.322 2.9.32 3.41 1.312 1.038 6.165.831 7.76.135 1.177-.514 1.006-2.158 1.007-3.327.001-2.636.018-5.372 0-8-.008-1.185.073-2.279-1.299-2.513-3.363-.573-9.11-.047-12.781-.047-1.233 0-3.326-.432-4.287.329-.619.49-.508 1.51-.513 2.231-.013 1.901 0 3.854 0 5.76v30.4c0 .965-.299 2.085.377 3.098.702 1.052 1.816.741 3.143.742h10.56c1.282 0 3.397.377 4.287-.513.714-.714.513-2.003.513-3.007.001-2.72.887-7.398-.193-9.873-.74-1.696-4.928-1.036-6.527-1.006-1.102.021-2.117.053-2.458 1.298-.274.998-.344 2.267.227 2.988 1.472 1.858 4.468-.91 4.468 2.753 0 .737.03 1.507-.51 2.047-1.078 1.077-4.308.514-5.887.513-.928 0-2.286.226-2.871-.513-.848-1.071-.329-4.094-.329-5.567 0-1.857-.803-6.058.329-7.487.69-.871 3.052-.513 4.151-.513h9.92c1.279 0 2.649-.343 3.738.193.769.378.727 1.31.74 2.047.043 2.265.002 4.754.002 7.04v19.84c0 2.194-.765 5.952.193 7.898.57 1.16 3.153.742 4.287.742h10.56c1.083 0 2.563.25 3.326-.513.715-.714.513-2.003.514-3.007 0-2.633.9-7.595-.194-9.818-.433-.882-1.543-.736-2.366-.742-1.383-.01-5.872-.673-6.683.513-.493.722-.163 3.133.476 3.638 1.03.815 2.477-.134 3.453.842.9.9.599 3.406-.228 3.958-1.383.923-3.95.33-5.658.329-.932 0-2.522.244-3.007-.742-1.176-2.389-.195-7.44-.193-10.138 0-.928-.227-2.286.513-2.871.899-.712 3.06-.329 4.287-.329h10.24c1.106 0 2.499-.283 3.355.329.893.638.799 2.116.804 3.191.018 3.538-.32 7.032-.32 10.56v20.8c0 1.504.704 6.068-.513 7.031-1.73 1.37-7.51.329-9.726.329-1.916 0-6.62.865-8.127-.329-1.122-.889-.513-4.705-.513-6.071 0-1.703-.741-5.817.328-7.167.893-1.127 6.945-.896 8.264-.32 1.199.524 1.428 3.16.494 4.094-1.753 1.753-4.42-.687-4.28 3.072.02.554.022 1.208.507 1.592 1.23.974 4.931.398 6.527.556.796.08 1.725.109 2.23-.649.534-.799.33-1.79.33-2.778 0-2.65.597-7.196-.102-9.553-.404-1.36-2.758-1.007-4.058-1.007H132.8c-1.098 0-2.79-.35-3.647.329-.722.571-.513 1.998-.513 2.871v54.4c0 1.348-.335 2.874 1.298 3.153 2.9.494 8.028.047 11.182.047h35.2c1.04 0 2.52.27 3.418-.329 1.023-.682.741-2.435.742-3.511v-53.76c0-.955.216-2.258-.514-2.884-1.46-1.253-5.23-.295-7.166-.333-2.587-.051-5.084-.05-7.68.012-.96.024-2.252-.265-3.007.334-.764.605-.513 2.254-.513 3.191 0 2.537-.005 5.15 0 7.68.002.762-.15 1.763.328 2.367.496.625 1.476.508 2.232.513 1.704.011 6.32.773 6.672-1.299.17-.996.215-2.565-.694-3.172-1.244-.83-3.362.307-3.691-1.628-.164-.964-.204-2.318.466-2.988 1.041-1.041 7.191-1.062 8.253 0 1.637 1.637.518 8.401.514 10.687-.002.973.125 2.292-.742 2.871-1.085.724-2.72.329-4.058.329-3.41 0-9.682 1.152-12.753-.238-1.38-.624-1.007-2.663-1.007-3.922 0-3.816.23-7.713-.03-11.52-.435-6.407.03-13.06.03-19.52 0-1.808-.92-5.488.3-6.847.774-.863 3.022-.513 4.18-.513h9.6c1.278 0 2.648-.343 3.738.193.96.472.741 2.295.742 3.327 0 2.642.017 5.366 0 8-.009 1.148.088 2.413-1.3 2.594-1.825.239-6.653.764-7.652-.542-.375-.491-.326-1.145-.326-1.732 0-3.238 2.429-1.217 3.964-2.753 1.004-1.004.738-3.98-.785-4.24-1.644-.28-6.739-.777-7.653.454-1.083 1.46-.328 5.326-.328 7.179 0 1.338-.389 5.357.513 6.071.907.72 2.463.329 3.647.329H176c1.122 0 3.716.418 4.286-.742.95-1.93.194-5.731.194-7.898v-19.84c0-2.099-.945-7.16.328-8.767.69-.871 3.052-.513 4.152-.513 3.935 0 8.986-.587 12.789.047 1.56.26 1.234 1.589 1.346 2.833.247 2.74.283 5.57.264 8.32-.008 1.197.065 2.404-1.298 2.778-1.51.415-4.073.132-5.741.1-.657-.012-1.468.049-1.912-.511-.38-.482-.32-1.156-.327-1.727-.009-.717-.111-1.493.327-2.047.645-.813 3.451-.224 3.958-1.255.842-1.71.202-3.647-1.728-3.732-1.73-.076-5.539-.712-6.845.323-.674.533-.512 1.75-.513 2.551-.005 2.646-.001 5.354 0 8 0 .865-.187 2.317.513 2.871.907.72 2.463.329 3.647.329h10.24c1.222 0 3.474.272 4.15-.742 1.245-1.865.333-6.229.33-8.538-.013-7.689-.318-15.348-.32-23.04-.001-2.288 1.34-7.703-.01-9.407-.495-.625-1.525-.508-2.23-.513-2.165-.015-4.536.003-6.72 0-2.531-.004-6.783-1.377-8.859.009-.872.582-.74 1.866-.742 2.871-.006 2.913-.717 7.113.102 9.873.516 1.738 5.091 1.002 6.618 1.01.842.005 1.93.2 2.367-.719.5-1.052.462-2.816-.32-3.435-.992-.786-2.8.216-3.638-.842-.525-.664-.437-1.751-.281-2.668.353-2.077 4.399-1.302 6.032-1.299 1.018.002 2.423-.19 2.779 1.008.778 2.621.423 6.453.421 9.232 0 1.005.201 2.293-.513 3.007-.808.808-2.492.513-3.647.513h-10.56c-1.297 0-3.362.23-3.922-1.007-.927-2.05-.237-5.605-.237-7.953v-19.52c0-1.65.847-7.985-.742-8.767-1.09-.536-2.854-.193-4.058-.193-3.219 0-6.4.039-9.6-.266-1.03-.098-3.418-.466-4.151.46-1.117 1.409-.329 5.736-.329 7.486 0 1.49-.613 4.698.329 5.887.625.79 2.277.513 3.191.513 2.352 0 6.068.867 6.068-2.24 0-3.333-2.894-1.501-4.14-3.073-.592-.748-.538-2.23-.226-3.28.307-1.034 1.233-.988 2.138-1.006 1.54-.029 5.458-.658 6.391.74 1.285 1.927.59 8.061.644 10.459.024 1.053.23 2.21-.737 2.687-.845.416-1.925.193-2.778.193h-6.72c-2.01 0-4.075.014-6.08 0-.756-.005-1.736.112-2.231-.513-.678-.856-.329-2.805-.329-3.967v-12.16c0-5.898.491-12.411-.131-18.24-.142-1.33-.405-6.2.644-7.031 1.822-1.443 8.043-.329 10.367-.329 1.885 0 5.23-.647 6.938.193 1.011.498.742 2.087.742 3.007.001 2.335 1.11 8.55-.329 10.367-.944 1.192-5.218.54-6.71.512-2.075-.04-3.387-2.423-1.912-4.286.938-1.184 2.975.07 3.867-1.026.387-.476.3-1.164.289-1.727-.06-3.103-5.57-2.604-7.986-2.193-1.348.23-1.29 1.375-1.299 2.513-.018 2.662 0 5.337 0 8 0 .985-.296 2.816.742 3.327 1.93.95 5.731.193 7.898.193 2.216 0 7.997 1.041 9.727-.329 1.185-.939.513-5.253.513-6.711v-19.84c0-2.56-.005-5.12 0-7.68.002-.944-.156-2.195.742-2.778 1.092-.71 2.806-.422 4.058-.422 3.166 0 6.447-.246 9.6.054 1.036.099 3.16-.044 3.967.595.75.594.513 2.017.513 2.871.001 2.645.858 7.144-.193 9.553-1.102 2.525-6.848 1.002-8.767 1.327-.42-1.418-1.016-2.993.009-4.287 1.59-2.007 4.32.76 4.145-3.392-.02-.472-.012-1.015-.323-1.408-.725-.915-3.073-.513-4.151-.513-1.271 0-3.375-.399-4.287.513-1.264 1.265-.513 5.964-.513 7.807 0 1.307-.3 5.054.742 5.567 1.151.567 2.713.193 4.058.193h9.6c1.22 0 3.117.337 3.967-.513.537-.537.498-1.337.512-2.047.036-1.959 0-4.103 0-6.08 0-8.031.67-16.694-.179-24.64-.222-2.077 1.297-6.816-.334-8.447-1.293-1.294-5.73-.513-7.486-.513-2.67 0-7.767-.974-10.138.193-.998.491-.742 2.078-.742 3.007v7.68c0 .859-.195 2.025.329 2.687.585.74 1.943.513 2.871.513 1.579 0 4.81.564 5.887-.513.534-.534.524-1.301.505-2.046-.077-3.074-2.61-1.21-4.279-2.566-.74-.602-.672-2.268-.411-3.148.307-1.034 1.234-.988 2.138-1.006 1.457-.027 6.148-.68 6.847.74 1.133 2.304.193 7.228.193 9.819 0 .914.277 2.566-.513 3.191-1.686 1.335-7.25.329-9.407.329-2.01 0-4.075.014-6.08 0-.759-.005-1.732.111-2.231-.513-.498-.623-.459-1.85-.558-2.687-.37-3.127-.025-6.75.002-9.92.096-11.297-.093-22.618-.093-33.92v-9.92c0-1.075-.31-2.824.513-3.647.888-.887 2.546-.414 3.647-.284 2.683.316 5.323-.228 8-.229h28.16c2.817 0 8.499-1.144 10.779.377.862.576.74 1.848.741 2.823.006 2.873 0 5.766 0 8.64v36.16c0 3.3.007 6.622 0 9.92-.003 1.275.14 2.703-1.299 3.098-3.18.874-9.241.102-12.78.102-1.174 0-3.339.423-4.288-.329-.74-.586-.513-2.019-.513-2.871v-7.68c0-.928-.226-2.286.513-2.871 1.187-.94 4.548-.332 6.207-.329.762.002 1.763-.15 2.367.329.745.59.69 2.155.411 3.172-.766 2.793-4.849-.38-4.692 3.858.106 2.837 3.963 1.922 6.074 1.921.852 0 2.285.227 2.871-.513 1.438-1.815.334-8.032.329-10.367-.002-.949.156-2.272-.742-2.871-1.024-.684-2.868-.329-4.058-.329-3.506 0-7.074-.194-10.56.18-.862.092-2.022-.258-2.778.178-1.542.888-.742 6.334-.742 7.962 0 8.223.211 16.416.211 24.64 0 2.178-.25 4.546-.21 6.72.018.932.004 1.93 1.006 2.367 3.05 1.331 9.555.193 13.073.193 1.202 0 3.318.439 4.287-.329.78-.618.513-2.282.513-3.191 0-2.086 1.109-9.09-.742-10.219-.99-.604-2.047-.098-3.098-.21-2.088-.223-5.327-.8-5.434 2.11-.025.683-.105 1.506.323 2.046.948 1.197 6.785.29 4.142 4.251-1.32 1.98-6.742.504-8.631 1.062-1.283-2.666-.64-6.3-.64-9.6 0-1.099-.386-3.064.329-3.967.755-.954 3.355-.508 4.471-.513 3.324-.016 6.596-.04 9.92-.001 1.103.013 2.829-.318 3.647.33.625.495.508 1.475.513 2.231.015 2.215 0 4.498 0 6.72v19.52c0 2.32-.789 5.903.193 7.898.5 1.015 2.838.742 3.967.742h10.24c1.138 0 3.097.356 3.967-.513.72-.72.513-2.069.513-3.007.001-2.724.63-6.694-.139-9.261-.601-2.008-4.534-1.303-6.261-1.299-.801.002-2.018-.16-2.551.513-.667.843-.418 3.481.184 3.958 1.705 1.35 4.091-.63 3.96 2.888-.017.471-.012 1.016-.322 1.408-.92 1.163-4.95.523-6.391.513-.756-.005-1.736.112-2.231-.513-.567-.715-.329-2.06-.329-3.007 0-2.845-.699-6.856.102-9.553.428-1.443 2.858-1.007 4.058-1.007h10.56c1.133 0 3.113-.335 3.831.742 1.238 1.855-.079 5.18.068 7.258.573 8.103-.059 16.215-.059 24.32 0 2.621 1.316 7.398-.324 9.444-.653.815-3 .476-4.156.476-2.635 0-5.38-.218-8 .091-1.63.193-3.895.746-5.338.036-.96-.472-.742-2.042-.742-3.007-.001-2.726-.018-5.599 0-8.32.007-.976-.112-2.126 1.007-2.458 1.44-.428 6.302-.905 7.531-.093 1 .66 1.01 2.727.549 3.784-.585 1.338-3.1.501-4.081 1.336-.716.609-.33 3.068.123 3.638.496.625 1.474.508 2.231.513 1.676.011 5.082.612 6.207-.513.66-.66.511-1.771.513-2.687.005-2.55.001-5.13 0-7.68 0-.974.183-2.552-.742-3.007-1.995-.982-5.578-.193-7.898-.193-2.184 0-8.02-1.023-9.727.329-1.19.943-.513 4.97-.513 6.391v19.52c0 2.77.006 5.55 0 8.32-.002.873.185 2.231-.742 2.687-1.103.543-2.832.193-4.058.193h-9.28c-1.173 0-3.338.423-4.287-.329-.74-.586-.513-2.018-.513-2.87-.001-2.48.2-4.897.307-7.36.038-.849-.26-2.302.342-2.98.816-.917 4.503-.18 5.751-.234.733-.031 1.921-.519 2.687.035 1.152.832.725 3.796-.229 4.265-1.294.637-2.426-.364-3.545.522-.564.446-.503 1.253-.511 1.911-.01.733-.12 1.731.511 2.231 1.299 1.029 4.483.34 6.207.329.816-.006 1.766.088 2.367-.513.647-.647.544-1.785.484-2.687-.175-2.641.645-7.844-.484-10.138-.717-1.457-5.388-.67-6.847-.77-1.62-.112-3.529-.317-5.12-.284a29 29 0 0 0-2.24.12c-.725.07-1.255.148-1.92.18-.725.034-1.721-.119-2.231.525-.86 1.086-.415 3.439-.415 4.767l.086 26.72c.007 2.216-1.041 7.997.329 9.727.725.915 3.073.513 4.15.513h9.6c1.227 0 2.955.35 4.06-.193.926-.456.74-1.814.74-2.687.006-2.66.002-5.34 0-8 0-.974.184-2.552-.74-3.007-2.596-1.277-10.498-.829-8.346 3.545.446.908 3.598.477 4.094 1.484.503 1.023.338 3.188-.32 3.82-.959.92-6.332.72-7.705.045-.878-.431-.869-1.836-.97-2.687-.313-2.602-.098-5.382-.092-8 .002-1.095-.162-2.497 1.007-3.007 3.067-1.339 9.89-.193 13.393-.193 1.085 0 3.529-.273 4.151.513 1.11 1.403.329 5.011.329 6.847v18.24c0 3.067-.006 6.222 0 9.28.002 1.072-.234 2.41 1.007 2.778 3.099.92 9.568.102 13.073.102 1.338 0 2.973.395 4.058-.329.867-.579.74-1.898.742-2.871.005-2.63.156-5.377-.029-8-.057-.812-.13-2.04-.8-2.551-.764-.583-2.048-.329-3.011-.329-1.365 0-3.867-.51-4.927.329-.75.593-.785 2.784-.32 3.73.347.705 1.055.7 1.728.735.725.037 1.473-.118 2.046.335.623.494.56 1.413.494 2.23-.225 2.748-4.158 1.922-6.381 1.921-.853 0-2.285.227-2.871-.513-1.046-1.32-.144-4.333-.038-5.887.114-1.656-.914-5.934.039-7.167.727-.94 3.081-.513 4.15-.513h9.6c1.277 0 2.992-.383 4.058.329 1.041.695.742 2.954.742 4.151 0 4.055.32 8.09.32 12.16 0 6.188.106 12.387-.2 18.56-.09 1.821.952 4.678-.129 6.298-.751 1.126-2.964.742-4.151.742h-9.6c-1.3 0-2.918.368-4.058-.193-1.181-.581-.742-4.56-.742-5.887 0-1.73-1.043-6.24.193-7.405 1.109-1.046 2.898-.399 4.287-.304 1.146.079 3.817-.284 4.471.542.75.946.541 3.048-.184 3.774-1.536 1.536-3.964-.485-3.964 2.753 0 .58-.054 1.247.326 1.727.495.625 1.475.508 2.23.513 1.553.01 5.056.638 6.208-.513 1.603-1.604.514-8.136.513-10.367 0-.928.226-2.286-.513-2.871-.9-.712-3.06-.329-4.287-.329-3.674 0-9.721-.893-13.073.102-1.244.37-1.007 1.994-1.007 3.098v46.4c0 2.856-.006 5.792 0 8.64.002.897-.185 2.23.742 2.687 2.407 1.184 7.926.193 10.778.193h27.84c2.98 0 5.982.006 8.96 0 1.03-.002 1.98.193 2.687-.513.696-.697.512-2.073.513-3.007 0-2.952-.034-6.66 0-9.6.044-3.65 0-7.558 0-11.52 0-7.917.307-15.817.32-23.68v-8.96c0-1.107.342-2.48-.329-3.327-.608-.767-2.792-.513-3.831-.513-3.61 0-9.806-.514-13.101.047-1.948.332-1.535 5.045-1.607 6.673-.058 1.328-.012 2.118-.012 3.52 0 1.039-.26 2.899.513 3.511 1.29 1.022 4.788.379 6.527.324.897-.028 1.916-.028 2.367-1.028.487-1.08.483-2.424-.32-3.147-.553-.497-1.308-.519-2.047-.55-.711-.032-1.438.105-1.911-.541-.425-.58-.35-1.354-.323-2.087.019-.493.007-1.01.323-1.409.636-.803 2.515-.513 3.51-.513 2.483 0 3.708-.287 5.76.32-.52 2.186-.32 6.179-.32 9.28 0 1.258.352 2.72-.328 3.738-.632.947-2.405.781-3.511.65-3.442-.405-7.104-.397-10.56-.089-.954.085-3.176.432-3.831-.344-.595-.705-.303-2.112-.342-2.995-.11-2.519-.377-4.83-.079-7.36.83-7.03-.228-14.657-.228-21.76 0-2.045-.985-7.897.513-9.362 1.042-1.02 3.571-.558 4.927-.558 2.084 0 4.696-.031 6.72.008 1.065.02 1.764.036 2.88.008 1.662-.041 2.422-.21 4.16.304-.624 2.47.046 7.303-.266 10.56-.1 1.053.132 2.572-.796 3.191-1.374.917-3.939.34-5.658.329-.862-.006-1.752.102-2.367-.513-.67-.67-.817-2.488-.32-3.558.382-.821 1.243-.943 2.047-1.02.708-.066 1.478.093 2.047-.358.686-.544.575-1.63.494-2.545-.216-2.433-4.328-1.607-6.381-1.606-.874 0-2.3-.208-2.871.513-.541.683-.329 1.82-.33 2.687v7.68c.001.865-.186 2.317.514 2.871 1.019.807 2.96.329 4.287.329h9.6c1.258 0 2.719.351 3.738-.329.75-.5.725-1.437.74-2.231.04-2.061.001-4.32.001-6.4v-20.8c0-1.755-.78-6.193.513-7.487 1.338-1.338 6.04-.542 7.807-.33.887.106 1.414.056 2.24-.006.942-.07 1.687-.114 2.56-.153 1.35-.062 3.86-.469 5.019.305.897.599.74 1.922.741 2.87.005 2.559.001 5.122 0 7.68 0 .853.228 2.285-.513 2.872-1.281 1.015-5.522.459-7.16.31-1.724-.157-2.318-2.955-1.278-4.268.829-1.046 3.03-.026 3.822-1.026.668-.843.554-3.299-.412-3.774-1.563-.77-5.547-.434-7.24-.146-1.394.238-1.29 1.333-1.298 2.513-.019 2.631 0 5.361 0 8 0 1.025-.24 2.844.741 3.327 1.152.566 2.714.193 4.058.193h9.6c1.078 0 3.427.402 4.151-.513 1.335-1.686.33-7.251.33-9.407v-22.72c0-2.437.824-6.79-.194-8.858-.507-1.03-3.119-.689-4.287-.796-3.417-.314-6.805.054-10.24.054-1.097 0-2.789-.35-3.647.329-.763.605-.513 2.254-.513 3.191 0 2.77-.585 6.438.102 8.941.273.994.93 1.201 1.82 1.28 1.346.12 6.46.712 7.165-.723.429-.87.374-2.86-.32-3.41-.572-.452-1.32-.297-2.045-.334-.71-.036-1.361-.048-1.783-.736-2.403-3.922 3.206-3.738 5.621-3.738.903 0 2.566-.277 3.191.513 1.408 1.777.33 7.783.33 10.047-.001.837.24 2.275-.514 2.871-.94.745-3.157.329-4.287.329h-9.92c-1.183 0-2.739.39-3.647-.329-.625-.495-.508-1.526-.512-2.231-.015-2.062 0-4.319 0-6.4v-19.84c0-2.228.739-6.003-.194-7.898-.433-.882-1.543-.736-2.367-.742-2.164-.015-4.535 0-6.72 0-2.064 0-7.468-.953-9.087.329-.802.635-.513 2.276-.513 3.191 0 2.775-.981 7.43.193 9.818.456.925 2.034.742 3.007.742 2.227.001 6.16.79 6.381-1.921.288-3.52-2.66-1.935-4.268-3.208-.642-.509-.785-2.464-.32-3.41.636-1.29 5.319-.751 6.847-.74.822.005 1.935-.14 2.367.74.957 1.953.197 7.38.193 9.819-.002.954.171 2.287-.557 3.002-.845.83-3.096.2-4.243.198-3.321-.005-6.596.32-9.92.32-1.183 0-2.739.39-3.647-.329-.71-.563-.483-1.999-.541-2.871-.219-3.243-.056-6.364.024-9.6.18-7.35.005-14.727.005-22.08 0-1.54-.786-6.322.513-7.351 1.634-1.294 7.035-.329 9.087-.329 1.958 0 7.344-.92 8.766.513 1.003 1.01.194 3.898.194 5.247-.001 2.015 1.084 5.867-.058 7.578-.819 1.228-7.476 1.39-8.71.413-.697-.553-.648-3.526.23-3.958 1.384-.681 2.033.334 3.316-.522.785-.523 1.229-2.928.413-3.958-.495-.625-1.526-.508-2.231-.513-1.715-.012-4.163-.221-5.742.047-1.372.234-1.29 1.328-1.298 2.513-.02 2.79-.243 5.861.091 8.64.12.998.093 2.44 1.236 2.778 3.579 1.062 9.278.102 13.073.102 1.187 0 3.4.384 4.15-.742 1.136-1.7.33-5.879.33-7.898v-20.16c0-1.978-.874-6.608.329-8.127.69-.871 3.052-.513 4.15-.513h9.92c1.28 0 2.65-.343 3.739.193 1.123.553.742 4.24.742 5.567 0 1.602.765 6.649-.513 7.671-1.088.87-3.312.5-4.607.383-1.05-.095-3.108.346-3.831-.567-.603-.76-.498-3.098.184-3.638 1.176-.932 6.446-.617 3.638-4.3-1.067-1.4-4.793-.84-6.391-.829-.701.005-1.492-.111-2.047.329-.667.528-.512 1.736-.513 2.551-.005 2.523 0 5.15 0 7.68 0 .931-.214 2.616.513 3.191 1.018.807 2.96.329 4.287.329h9.28c1.225 0 2.954.35 4.058-.193.857-.422.736-1.558.741-2.367.016-2.229 0-4.488 0-6.72v-24.96c0-1.835.865-7.304-1.298-7.898-3.514-.965-8.766-.102-12.461-.102-1.351 0-3.25-.423-4.378.329-.828.552-.736 1.67-.742 2.551-.018 2.617 0 5.378 0 8 0 .865-.187 2.317.513 2.871 1.299 1.029 4.483.34 6.207.329.756-.005 1.736.112 2.231-.513.521-.658.49-2.397.227-3.28-.521-1.756-2.758-.46-3.865-1.336-.716-.567-.608-2.012-.466-2.852.329-1.933 4.625-1.303 6.353-1.299.777.002 2.007-.174 2.551.513 1.442 1.82.33 8.043.329 10.367 0 .852.227 2.285-.513 2.871-.951.754-3.145.343-4.287.193-3.227-.423-6.384-.017-9.6.123-1.16.051-2.758.383-3.647-.316-.671-.527-.743-2.289-.804-3.191-.235-3.419.453-6.842.261-10.24-.646-11.426.03-23.06.03-34.56v-8.96c0-1.025-.307-2.524.329-3.327.837-1.057 4.69-.513 6.071-.513h18.56m-38.72 249.28h.32" fill="none" stroke="#32291f"/></svg>