<?xml version="1.0" encoding="UTF-8" standalone="no"?>
<!-- Created with Inkscape (http://www.inkscape.org/) -->

<svg
   version="1.1"
   id="svg1"
   width="288.11169"
   height="129.23386"
   viewBox="0 0 288.1117 129.23386"
   xmlns="http://www.w3.org/2000/svg"
   xmlns:svg="http://www.w3.org/2000/svg">
  <defs
     id="defs1" />
  <g
     id="g1"
     transform="translate(-1.539214,-2.3641155)">
    <path
       style="fill:none;stroke:#3c3533"
       d="m 20.159999,67.519998 c 0.275244,-1.649292 3.649099,-2.528819 4.791111,-1.086914 0.369458,0.466479 0.320364,1.160048 0.327161,1.727158 0.04623,3.857602 -3.304617,2.646674 -6.072099,2.89852 -0.983016,0.08946 -2.108317,0.948145 -1.275802,2.028394 0.992903,1.288359 6.118696,0.574243 7.669382,0.506669 0.945252,-0.04119 1.662427,-0.120053 2.047161,-1.001235 0.399282,-0.914502 0.19303,-1.942334 0.193086,-2.832593 1.22e-4,-1.907666 -0.03528,-5.095248 0.0015,-7.039755 0.02087,-1.10396 0.973684,-3.30186 2.229629,-1.726909 1.295073,1.624018 0.328889,8.56267 0.328889,11.006664 0,1.036504 0.269585,2.521407 -0.328889,3.418272 -0.719964,1.078925 -2.698596,0.741728 -3.831111,0.741728 h -10.56 c -0.915551,4.1e-4 -4.81908,0.530615 -2.686666,2.231109 1.000587,0.797919 3.382599,0.328891 4.606666,0.328891 h 11.2 c 1.480808,0 3.031938,0.455899 3.831111,-0.741728 1.017465,-1.524756 0.328889,-4.016402 0.328889,-5.658272 v -2.56 -4.799999 -4.8 c 0,-0.90586 -0.0167,-1.598189 0.0015,-2.559756 0.01681,-0.888935 0.498811,-3.101997 2.045678,-1.909873 1.218675,0.939194 0.51284,4.224468 0.51284,5.749629 v 14.719999 c 0,1.622627 0.755222,4.190317 -0.741729,4.926914 -1.178806,0.580049 -4.071179,0.193086 -5.658271,0.193086 H 11.84 c -0.954529,0 -5.9382595,-0.273711 -4.1496304,2.047158 0.8785473,1.139971 4.4327044,0.512842 5.7496294,0.512842 h 17.6 c 1.283974,0 2.939736,0.0025 4.16,0 0.691904,-0.0014 1.687392,0.209297 2.366914,-0.328887 1.447048,-1.146093 0.513086,-4.796821 0.513086,-6.711113 V 57.279998 c 0,-1.830464 -0.418157,-4.281948 0.101728,-6.032593 0.301494,-1.015239 1.763997,-1.282671 2.265186,-0.265678 0.93685,1.90102 0.193085,5.770673 0.193085,7.898271 v 19.199999 c 0,1.797661 0.760176,7.355166 -1.007407,8.126914 -2.030993,0.886758 -6.005966,0.193086 -8.272592,0.193086 H 10.88 c -2.1689536,0 -4.576199,-0.03904 -6.7197533,0.0015 -0.8482015,0.01604 -1.7148102,-0.07462 -2.028395,0.73877 -0.4603428,1.194043 0.8644321,1.725986 1.7096295,1.800976 1.8977422,0.168399 4.4352592,0.01877 6.3985188,0.01877 h 15.039999 7.36 c 0.957827,0 1.606809,-0.0044 2.56,2.44e-4 1.159968,0.0056 3.957272,-0.18669 4.926914,0.604199 1.074062,0.876055 0.513085,3.883525 0.513085,5.155557 V 110.08 v 11.2 c 0,1.11213 0.365484,3.13362 -0.740246,3.82494 -1.763513,1.10256 -1.817732,-1.56274 -1.819753,-2.54494 -0.0077,-3.72922 0,-7.46975 0,-11.2 V 97.599996 c 0,-1.351689 0.541994,-4.147333 -0.32889,-5.246913 -0.965996,-1.219668 -5.235544,-0.461065 -6.71111,-0.525684 -5.65113,-0.247451 -11.288619,-0.307402 -16.96,-0.307402 -1.652366,0 -4.9315008,-0.687989 -6.2066662,0.328886 -0.7848809,0.625909 -0.3788671,1.870147 0.4940741,2.129385 1.3005481,0.386221 3.0683201,0.101729 4.4325931,0.101729 5.665171,0 11.662597,-0.553379 17.279999,0.184199 1.236623,0.162363 4.298108,-0.377617 5.111111,0.648886 0.870883,1.09958 0.328889,3.895215 0.328889,5.246918 v 14.4 c 0,1.44493 0.574404,4.62082 -0.740247,5.36394 -2.280244,1.28895 -1.819753,-3.64188 -1.819753,-4.72394 v -13.44 c 0,-1.12956 0.465805,-3.695814 -0.513086,-4.471117 -1.076885,-0.85291 -3.913254,-0.328887 -5.246914,-0.328887 -3.982568,0 -11.516357,0.366534 -14.399999,-0.32 -0.239854,0.820635 -0.731293,2.119512 0.421728,2.686914 2.823512,1.38945 9.185315,0.193086 12.378271,0.193086 1.144414,0 3.353694,-0.410234 4.286914,0.328887 0.851487,0.674397 0.513086,2.540447 0.513086,3.511117 0,2.82373 1.041535,8.28894 -0.193086,10.77802 -0.593496,1.19653 -2.017024,0.34666 -2.265186,-0.55679 -0.628559,-2.28832 -0.101567,-5.4538 -0.101728,-7.98123 -5.9e-5,-0.91332 0.289866,-2.55516 -0.513086,-3.19112 -1.029702,-0.81553 -3.655705,-0.32888 -4.926914,-0.32888 -1.112949,0 -3.70337,-0.48144 -4.469629,0.51284 -0.990878,1.28573 0.575497,1.9962 1.591111,2.04098 1.426624,0.0629 4.12238,-0.55441 5.245432,0.33506 0.804824,0.63744 0.725586,2.85589 0.32,3.78371 -1.25187,2.86375 -3.156352,-2.84713 -4.598025,-1.03926 -0.930736,1.16714 -0.328889,3.74667 -0.328889,5.24667 v 11.84 c 0,1.44144 -0.44805,3.71531 0.193086,5.01827 0.632034,1.28445 3.689819,0.74173 4.926914,0.74173 h 4.48 c 1.390781,0 3.133833,-0.0635 4.48,0.0286 1.191982,0.0816 1.899919,0.27466 3.2,0.29012 5.783027,0.0688 11.795888,0.001 17.599999,0.001 2.070083,0 4.352778,0.0594 6.4,-0.005 0.78685,-0.0247 1.73081,-0.0469 2.231108,-0.77382 0.823994,-1.19721 0.328892,-3.15145 0.328892,-4.66123 v -12.16 c 0,-1.34996 0.545571,-4.15009 -0.328892,-5.24667 -0.467935,-0.58679 -1.432148,-0.53443 -1.908393,-0.001 -0.563838,0.63096 -1.405601,2.65469 -2.553824,1.21482 -0.679721,-0.85238 -0.727651,-3.23559 0.184195,-3.95779 1.386836,-1.0984 4.2302,0.0193 5.868149,-0.43061 0.855478,-0.23499 1.715381,-1.37239 0.784194,-2.12939 -1.366958,-1.11125 -5.732534,-0.36053 -7.485185,-0.3274 -0.739297,0.014 -1.666538,-0.0333 -2.047158,0.74024 -1.290752,2.62314 0.230034,7.60863 -0.240493,10.4442 -0.175694,1.05881 -1.691377,2.24949 -2.449385,0.87111 -0.430039,-0.78199 -0.06362,-2.65963 -0.06321,-3.73703 7.18e-4,-1.86747 0.03728,-5.00666 -0.0047,-6.72 -0.02694,-1.09986 -0.893028,-3.28497 0.197778,-4.151117 0.884883,-0.702627 2.904282,-0.328887 3.966914,-0.328887 h 10.559999 c 1.209248,-5.47e-4 4.369068,-0.101523 2.869629,-2.047158 -1.130923,-1.467461 -7.17498,-0.512842 -8.949628,-0.512842 h -8 c -0.852485,3.81e-4 -2.27708,-0.236933 -2.871108,0.513086 -0.815542,1.029707 -0.328892,3.655708 -0.328892,4.926918 v 13.44 c 0,1.28498 0.376523,2.68486 -0.328892,3.70098 -0.494697,0.7126 -1.627099,0.91206 -2.222216,0.036 -0.76147,-1.12088 -0.328892,-3.92612 -0.328892,-5.33703 v -14.08 c 0,-1.506537 -0.603374,-4.905043 0.741729,-5.566918 1.20667,-0.593759 3.464917,-0.193085 5.018271,-0.193085 h 12.479999 c 2.533912,0 5.873252,0.198203 8.318521,-0.01877 0.876845,-0.07779 2.429165,-0.876211 1.586416,-2.028389 -1.057076,-1.445205 -4.828135,-0.512841 -6.704937,-0.512841 H 52.479998 c -1.518081,0 -4.977519,-0.644805 -6.206914,0.328886 -1.252177,0.991748 -0.513086,5.534551 -0.513086,7.031113 V 120 c 0,1.32894 0.34543,3.2075 -0.193086,4.43234 -0.470263,1.06961 -1.718071,1.03661 -2.173828,0 -0.73415,-1.66981 -0.193086,-5.69343 -0.193086,-7.63234 0,-6.5851 -0.243872,-13.26461 0.01234,-19.840004 0.09205,-2.362324 -1.306357,-7.397304 1.593828,-7.66123 2.294561,-0.208808 6.170596,-0.01877 8.633828,-0.01877 h 19.839999 c 1.715928,0 8.070664,0.926045 8.748144,-1.001231 0.485352,-1.380722 -1.094594,-1.539629 -2.028388,-1.557285 -2.486763,-0.04702 -5.53416,0.05423 -7.999756,-0.0062 -1.270249,-0.03112 -1.884487,-0.245117 -3.2,-0.302715 -5.234633,-0.229218 -12.678427,-0.0126 -18.239999,-0.0126 -1.598667,0 -5.241162,0.689443 -6.526914,-0.328887 -1.278447,-1.012558 -0.513086,-6.093872 -0.513086,-7.671113 V 57.599998 c 0,-1.471484 -0.76374,-6.073979 0.511607,-7.024941 1.503764,-1.12128 1.722456,1.398906 1.728149,2.224941 0.0235,3.409243 2.44e-4,6.829726 2.44e-4,10.24 v 14.399999 2.24 c 0,0.901665 -0.255752,2.789609 0.377285,3.738271 0.9748,1.460821 5.061836,0.741729 6.662715,0.741729 h 17.599999 c 1.535342,0 5.058911,0.655947 6.20543,-0.512842 2.388965,-2.435366 -4.63251,-2.047158 -5.56543,-2.047158 H 54.719998 c -1.324907,0 -4.860449,0.611465 -5.751108,-0.513086 -0.659341,-0.832485 -0.328892,-2.633183 -0.328892,-3.646914 V 67.199998 c 0,-2.275464 0.0494,-5.152393 -0.0047,-7.36 -0.02878,-1.174961 -0.953311,-3.253521 0.426177,-4.149629 2.530366,-1.643711 2.138515,2.703144 2.138515,4.149629 v 13.759999 c 0,1.309195 -0.464106,3.949722 0.513086,4.926914 0.968394,0.968394 3.329463,0.513086 4.606914,0.513086 h 10.879999 c 1.390669,0 3.009317,0.461841 3.96543,-0.512842 1.365884,-1.392417 -1.037056,-2.044423 -2.36543,-2.047158 -3.516088,-0.0072 -7.042924,0 -10.559999,0 -1.155401,0 -3.087129,0.366699 -3.966914,-0.513086 -1.332212,-1.332212 -0.513086,-6.280346 -0.513086,-8.126913 0,-1.445025 -0.72833,-5.753101 0.512842,-6.709629 2.163266,-1.667158 2.047158,2.548686 2.047158,3.509629 0,2.228447 -0.788887,6.222646 0.193086,8.218271 0.379394,0.771025 1.307485,0.726264 2.047158,0.740249 1.848823,0.03496 5.701191,0.716616 7.257783,-0.327412 1.079673,-0.724151 0.553725,-1.9944 -0.556792,-2.183701 -2.915532,-0.496988 -6.450405,1.267617 -6.379756,-2.927163 0.0094,-0.559561 -0.04147,-1.261402 0.327412,-1.727158 0.674317,-0.851392 3.776289,-0.827642 4.463701,-2.45e-4 0.413765,0.498028 0.279458,1.308389 0.84,1.712095 0.831602,0.598926 1.726748,-0.16668 1.945679,-0.963701 1.19416,-4.347407 -2.629253,-3.693882 -5.656792,-3.827407 -1.015605,-0.04479 -2.581992,-0.755244 -1.591108,-2.040986 0.766264,-0.994288 3.35667,-0.512842 4.469629,-0.512842 1.271215,0 3.897206,-0.486651 4.926913,0.328891 0.815005,0.645498 0.513028,2.252832 0.513086,3.191109 1.71e-4,2.711884 -0.24541,4.377553 0.01877,7.35852 0.09103,1.027182 1.262319,2.652138 2.212344,1.432593 0.628208,-0.806431 0.328823,-1.974058 0.328891,-3.031114 1.81e-4,-2.839653 0.0013,-5.790605 0,-8.639999 -3.81e-4,-0.852495 0.236944,-2.277075 -0.513086,-2.871109 -0.779643,-0.61749 -2.380922,-0.328891 -3.326914,-0.328891 h -8.959999 c -1.516944,0 -6.601035,-0.05705 -4.790864,-2.366914 0.882021,-1.125498 3.863466,-0.513086 5.110864,-0.513086 3.149048,0 6.857661,-0.039 10.239999,0.0012 1.235479,0.0147 3.270772,-0.165156 4.286914,0.647408 0.909444,0.727236 0.513086,2.781679 0.513086,3.831357 0,3.229629 -0.07487,6.032334 0.0047,9.279999 0.0446,1.820552 0.314585,2.918838 0.315307,4.8 4.15e-4,1.076094 -0.260659,6.775645 2.047158,4.560986 1.075186,-1.031782 0.512842,-3.98038 0.512842,-5.520986 0,-3.299423 0.03754,-6.980288 -0.0012,-10.239999 -0.01588,-1.334771 -0.246148,-2.149253 -0.306172,-3.52 -0.0678,-1.548291 0.487041,-4.874194 -0.525679,-5.886914 -1.031133,-1.031133 -3.355117,-0.513086 -4.926914,-0.513086 H 58.239998 c -2.593076,0 -5.427822,0.214746 -7.993828,-0.01877 -0.988765,-0.08998 -2.114717,-0.939848 -1.275801,-2.028403 0.66584,-0.863984 2.554619,-0.512832 3.509629,-0.512832 h 10.24 12.159999 c 1.246011,0 3.396431,-0.376396 4.286914,0.328887 1.16335,0.921396 0.513086,5.127685 0.513086,6.711113 v 19.839999 c 0,0.99188 -0.446626,8.971699 2.047158,6.52543 0.835635,-0.819717 0.512842,-2.574307 0.512842,-3.64543 v -10.24 -16.639999 c 0,-1.299766 0.312578,-4.728125 -0.741729,-5.246914 -2.076167,-1.021611 -5.78205,-0.193086 -8.218271,-0.193086 -6.577749,0 -13.986996,0.154414 -20.479999,-0.0047 -1.223115,-0.02997 -1.987832,-0.249629 -3.2,-0.302715 -1.469575,-0.06436 -5.713745,0.726767 -5.930864,-1.00124 -0.237324,-1.888809 7.015078,-1.251358 8.490864,-1.251358 h 22.719999 c 1.766924,0 6.676582,0.819463 7.258271,-1.298759 0.681875,-2.483028 0.101729,-6.02168 0.101729,-8.62124 v -18.88 c 0,-1.912011 0.437998,-4.535136 -0.101729,-6.352597 -0.263315,-0.8866894 -1.48413,-1.3032129 -2.129379,-0.4940723 -1.0523,1.3195803 -0.328892,5.2062403 -0.328892,6.8466693 v 18.24 c 0,1.753545 0.782417,6.191416 -0.513086,7.486914 -1.224477,1.224472 -5.200298,0.513085 -6.846914,0.513085 H 54.079998 c -2.469487,0 -6.071299,0.469737 -5.12,-2.879999 2.681074,0.79248 6.655356,0.314755 9.6,0.275556 3.597041,-0.04789 7.547421,0.04444 11.199999,0.04444 1.646617,0 5.622437,0.711386 6.846914,-0.513086 1.03791,-1.037911 0.513086,-3.875108 0.513086,-5.246914 v -14.4 c 0,-1.41373 0.300713,-4.729218 -0.777285,-5.424941 -2.514917,-1.623076 -1.782715,6.966416 -1.782715,8.304941 v 9.92 c 0,1.186054 0.353906,3.035049 -0.328891,4.058271 -0.783492,1.174121 -3.233262,0.741729 -4.471109,0.741729 H 58.879998 c -1.370386,0 -3.249619,0.427949 -4.378027,-0.328887 -2.208135,-1.481016 1.779296,-2.558955 3.098027,-2.549629 1.541928,0.01091 2.389497,0.278291 3.84,0.313828 2.002324,0.04906 9.064194,1.003926 10.231108,-0.737285 1.136396,-1.695674 0.328891,-5.885049 0.328891,-7.898027 0,-1.603613 0.713062,-5.764853 -0.512841,-6.709629 -1.911582,-1.473203 -2.046714,1.877979 -2.047159,2.869629 -0.001,2.255693 0.01531,4.783203 -2.44e-4,7.04 -0.0056,0.819199 0.08727,1.73501 -0.512842,2.322471 -1.077548,1.054833 -3.992748,0.557626 -5.566913,0.557529 -1.278877,-7.8e-5 -3.112886,0.216396 -3.966665,-0.59457 -1.277197,-1.213155 0.213125,-2.226563 1.408144,-2.279258 1.783242,-0.07864 4.325957,0.649638 5.565435,-0.563701 0.756606,-0.740655 0.686611,-2.539785 0.227158,-3.555069 -0.327486,-0.723662 -1.065254,-1.157197 -1.853823,-0.808144 -0.753306,0.333437 -1.94667,3.973818 -3.107163,1.619014 -0.59481,-1.206954 -0.193086,-3.592549 -0.193086,-5.018272 V 8.6399997 c 0,-1.2149707 -0.537466,-4.2790624 0.513086,-5.1111131 1.591298,-1.260332 6.763442,-0.3288867 8.766913,-0.3288867 h 24.319999 c 2.383037,0 8.123164,-0.9413183 9.726914,0.3288867 1.42677,1.1300195 0.82568,4.5872459 0.83284,6.071113 0.0181,3.7459764 2.5e-4,8.0411814 2.5e-4,11.8399994 0,1.563574 0.4153,3.386973 -0.19309,4.72666 -0.30691,0.67584 -1.19767,1.095635 -1.85433,0.506182 -0.65836,-0.590967 -2.06422,-4.171719 -2.97086,-1.030127 -0.3113,1.078711 -0.30796,2.884873 0.41136,3.604199 0.91197,0.911973 8.45938,-0.270313 6.83186,2.332842 -0.80407,1.286074 -8.55386,1.463154 -9.580744,0.227158 -1.75458,-2.111865 -0.52667,-7.880459 -0.650372,-10.685429 -0.04962,-1.125254 -1.375371,-3.179229 -2.360742,-1.179756 -1.226152,2.488066 0.126914,8.257714 0.126914,11.098271 0,1.028926 -0.360752,3.104424 0.741729,3.646914 1.086533,0.534648 2.862539,0.193086 4.058275,0.193086 h 9.28 c 1.33761,0 4.42961,0.04888 3.64074,1.819756 -0.5563,1.248789 -2.9772,0.740244 -4.28074,0.740244 -4.12583,0 -10.843344,0.593496 -14.705931,-0.0474 -2.410108,-0.399892 -1.614072,-3.348632 -1.614072,-5.392597 v -5.12 -8.32 c 0,-0.906318 -0.178145,-6.541113 -2.231114,-3.966669 -1.007226,1.263066 -0.328886,4.543388 -0.328886,6.206669 v 5.76 7.68 c 0,1.326494 -0.362725,3.981836 0.328886,5.018271 0.79918,1.197637 2.350293,0.741729 3.831113,0.741729 H 104.64 c 3.62369,0 7.25731,-0.0075 10.88,0 0.96957,0.002 3.25359,-0.106651 2.66815,1.558769 -0.62379,1.774512 -5.31551,1.00123 -6.82815,1.00123 H 94.399996 c -1.53746,0 -4.96705,0.653106 -6.206913,-0.328886 -0.865928,-0.68583 -0.502373,-2.507383 -0.514317,-3.511113 -0.01306,-1.097871 -0.209092,-2.01667 -0.290127,-3.2 -0.06539,-0.954873 -0.02864,-1.573692 -0.02864,-2.56 v -2.56 -3.84 -12.16 c 0,-1.34871 0.407187,-3.480224 -0.193086,-4.6982708 -0.421211,-0.8546973 -1.767998,-0.8234961 -2.173828,0 -0.921016,1.8688868 -0.193086,5.4194728 -0.193086,7.5782708 v 19.2 c 0,1.958525 -0.494082,7.119745 0.513086,8.126913 1.331299,1.331299 5.442187,0.513086 7.486914,0.513086 H 114.56 h 2.88 c 1.20697,0 5.26243,-0.647744 5.88074,0.740244 1.20012,2.694043 -7.34865,1.819756 -8.76074,1.819756 h -6.08 -2.24 -2.56 -10.240002 c -1.88291,0 -6.625116,-0.860566 -8.126913,0.328887 -1.086045,0.860166 -0.513086,4.167978 -0.513086,5.431113 V 69.12 80 c 0,0.991006 -0.397549,3.159043 0.512832,3.824941 2.459883,1.799248 2.047168,-4.474199 2.047168,-5.424941 V 57.599998 c 0,-1.602412 -0.486436,-6.814765 1.007402,-7.258271 3.536992,-1.050098 7.805429,-0.101729 11.152597,-0.101729 H 102.72 110.4 c 1.89929,0 6.66154,-0.889541 7.66494,0.741485 0.42139,0.68498 0.12504,1.596494 -0.67235,1.945429 -1.45224,0.635508 -3.81343,0.195625 -5.39259,0.193086 -1.71925,-0.0028 -2.58337,-0.238369 -4.16,-0.307407 -3.8187,-0.167217 -8.280773,-0.01259 -12.160002,-0.01259 -1.707578,0 -5.136542,-0.749922 -5.658271,1.007407 -0.391523,1.31875 -0.101728,3.824268 -0.101728,5.392593 V 72.96 c 0,1.54187 -0.436768,4.666489 0.512832,5.560737 0.869228,0.81857 1.708867,0.08022 1.945439,-0.779501 0.274141,-0.996285 0.101729,-2.446817 0.101729,-3.501236 V 60.160001 c 0,-1.117505 -0.362295,-3.094229 0.328886,-3.966914 0.579883,-0.732163 1.495049,-0.510913 2.551113,-0.513086 2.765342,-0.0057 5.552642,0 8.320002,0 1.75729,0 8.19331,-0.952256 9.26494,0.512842 1.41716,1.937485 -2.26939,2.046748 -3.18494,2.047158 H 99.199996 c -1.012744,0 -3.123007,-0.380972 -3.831113,0.513086 -1.143545,1.443838 -0.328887,6.005507 -0.328887,7.806914 V 69.76 c 0,0.982373 -0.207763,2.627085 0.328887,3.417036 0.677793,0.997705 2.159775,0.616744 2.436797,-0.57185 0.71374,-3.062397 -0.996123,-7.257676 -0.103955,-10.506421 0.562676,-2.048935 3.140235,-1.298764 5.018275,-1.298764 1.23018,0 4.45599,-0.37437 5.10494,0.512842 1.82043,2.488813 -4.39879,2.029243 -5.4247,2.048637 -2.16384,0.04091 -2.572246,1.178858 -2.19284,3.512349 0.52133,3.206445 2.36359,0.09545 3.33951,-0.624937 0.93349,-0.689062 3.62538,-0.647632 4.2842,0.184195 0.78615,0.992597 0.68471,3.518793 -0.1842,4.369384 -1.17596,1.151172 -3.99791,0.49457 -5.56543,0.563701 -1.14136,0.05034 -2.857773,1.099307 -1.17951,2.224937 1.34307,0.90082 8.10685,1.013896 9.30494,-0.184195 1.63324,-1.633247 0.47181,-8.104384 0.51457,-10.366669 0.0182,-0.964922 0.57597,-3.042539 2.04568,-1.909873 0.8861,0.682886 0.51277,2.077759 0.51284,3.189629 1.7e-4,2.773198 1.7e-4,5.546782 0,8.319999 -7e-5,1.006743 0.26039,2.553438 -0.51309,3.326914 C 111.89675,76.83707 109.93613,76.48 108.8,76.48 c -3.51887,0 -7.04152,-0.0016 -10.560004,0 -1.151709,5.18e-4 -4.436445,0.262134 -2.685429,2.047158 C 96.459772,79.449946 98.580846,79.04 99.839996,79.04 H 111.04 c 1.19724,0 3.37232,0.401509 4.28691,-0.513086 C 116.32505,77.52877 115.84,74.91479 115.84,73.6 V 60.479998 c 0,-0.9573 -0.33949,-6.308945 2.04716,-4.469629 0.75995,0.585669 0.51245,2.0223 0.51284,2.869629 v 8.32 c 0,3.519892 2.2e-4,7.040146 0,10.559999 -7e-5,1.032481 0.22506,2.588755 -0.51309,3.326914 -1.1018,1.101797 -4.03824,0.513086 -5.56691,0.513086 H 95.999996 c -1.407587,0 -3.11875,-0.104556 -4.473828,0.01877 -0.978007,0.089 -2.13208,0.9677 -1.091601,2.028393 1.207685,1.231143 4.529551,0.512842 6.205429,0.512842 H 114.24 c 2.02338,0 5.65784,0.983086 6.52691,-1.007402 1.16657,-2.671866 0.19309,-7.217046 0.19309,-9.872598 V 57.600003 c 0,-1.179033 -0.56686,-8.724189 2.04716,-6.709629 1.38612,1.068242 0.51284,6.326914 0.51284,7.989629 v 6.72 2.559999 11.2 c 0,1.81585 0.79337,5.540449 -0.51309,6.846914 -1.48551,1.485508 -7.0223,0.513086 -9.08691,0.513086 -6.18066,0 -13.09423,0.135469 -19.200004,-0.0047 -1.563876,-0.0359 -2.820869,-0.234228 -4.479999,-0.290127 -2.038369,-0.06868 -2.936367,0.504336 -5.12,-0.02519 -0.25917,0.912558 -0.45169,1.967724 0.421728,2.551113 1.251729,0.836055 3.504697,0.328887 5.018272,0.328887 H 103.36 118.4 c 1.17624,0 3.94959,-0.191719 4.60691,0.328886 1.43676,1.13794 0.51309,5.131778 0.51309,7.031113 V 117.44 c 0,1.37238 7e-5,3.17746 0,4.48 -6e-5,0.89277 0.3598,2.15825 -0.32889,3.00543 -0.78912,0.97071 -1.91486,-0.003 -2.12939,-0.7842 C 120.58838,122.41799 120.96,120.44441 120.96,118.4 V 98.559996 c 0,-1.90164 1.00302,-5.668378 -0.74173,-6.526913 -2.15756,-1.061661 -5.25537,-0.193086 -7.25827,-0.193086 H 95.999996 c -1.418613,0 -4.867031,-0.687412 -5.744941,0.512841 -1.561357,2.134619 3.128818,2.047159 4.144941,2.047159 H 111.68 c 1.64851,0 4.43391,-0.277891 5.71259,0.101728 1.86156,0.552666 1.00741,3.581553 1.00741,5.338271 V 113.92 c 0,1.52901 0.55543,4.35941 -0.32889,5.65678 -1.93395,2.83726 -2.23111,-3.20813 -2.23111,-4.05678 v -14.08 c 0,-1.620121 0.69432,-3.87305 -1.00741,-4.378275 -2.57631,-0.764873 -5.31872,-0.101729 -7.63259,-0.101729 h -7.04 c -1.209174,0 -4.332435,-0.58039 -4.920746,0.740245 -0.981611,2.203505 2.348906,1.819755 3.640742,1.819755 3.631544,0 7.410244,-0.09711 10.880004,0.156787 0.91737,0.06713 2.18944,-0.331962 3.00691,0.236055 0.81065,0.563272 0.52716,2.183112 0.50864,3.127162 -0.0149,0.76027 -0.0992,1.42933 -0.0884,2.24 0.0217,1.6272 0.11347,2.63315 0.0916,4.48 -0.0167,1.40682 0.51502,3.3106 -0.34026,4.66098 -1.14427,1.80664 -2.19428,-0.25777 -2.21703,-1.46123 -0.0486,-2.57171 0.016,-5.42811 -0.002,-7.99975 -0.005,-0.76679 0.11149,-1.73664 -0.51284,-2.23112 -1.06421,-0.84287 -3.72669,-0.31203 -5.24691,-0.33011 -1.25642,-0.015 -3.2396,-0.87158 -4.28543,0.19456 -1.031429,1.05145 0.0474,2.14949 1.0916,2.31926 1.58163,0.25715 4.16434,-0.49158 5.6521,0.24049 1.02056,0.50219 0.85821,2.32477 0.69432,3.31284 -0.16104,0.97095 -0.99781,1.96228 -2.00001,1.27111 -0.75343,-0.51961 -2.00542,-3.90094 -3.1995,-1.47531 -0.57124,1.16041 -0.19308,3.96936 -0.19308,5.33828 0,4.72678 -1.24008,11.43303 0.10172,15.95259 0.59506,2.00433 8.02612,1.00741 9.81828,1.00741 2.43595,0 5.65262,-0.13211 8,0.0286 1.06498,0.0729 1.75353,0.25907 2.88,0.28667 4.57156,0.11199 9.76999,0.005 14.39999,0.005 2.0701,0 4.35278,0.0594 6.4,-0.005 0.78685,-0.0247 1.73082,-0.0469 2.23112,-0.77382 0.82399,-1.1972 0.32888,-3.15146 0.32888,-4.66123 v -12.48 c 0,-1.5783 0.67527,-4.194 -0.51283,-5.10963 -0.90418,-0.69684 -3.54623,3.23729 -4.41408,1.48765 -2.44632,-4.93195 3.28078,-4.00271 5.88074,-4.42543 0.9389,-0.15265 2.14552,-1.32694 1.0916,-2.18371 -0.82824,-0.6733 -2.51086,-0.32888 -3.64543,-0.32888 -1.36927,0 -4.82369,-0.64701 -5.75135,0.51308 -0.76129,0.95201 -0.65813,3.06405 -0.64272,4.28692 0.0246,1.95001 0.39615,3.74802 0.3079,5.75877 -0.0389,0.8862 -0.96253,3.24417 -2.22494,1.7232 -0.59075,-0.71175 -0.32883,-2.12972 -0.32889,-3.00197 v -8.32 c 6e-5,-0.90174 -0.28807,-2.55659 0.51309,-3.19112 0.78576,-0.622331 2.38435,-0.328884 3.32691,-0.328884 h 8.32 c 0.93159,0 7.22374,0.412094 5.42495,-2.047158 -0.51568,-0.70501 -1.78746,-0.511279 -2.54495,-0.512842 -2.34414,-0.0048 -4.69522,0 -7.04,0 -2.44904,0 -9.16895,-1.232031 -10.55111,0.513086 -0.67713,0.854951 -0.32889,3.438188 -0.32889,4.606918 v 13.44 c 0,0.96635 0.14992,2.26673 -0.10172,3.18123 -0.27758,1.00876 -1.3534,1.69399 -2.12939,0.55555 C 130.79471,118.49969 131.2,114.93969 131.2,113.6 v -12.8 c 0,-1.394633 -0.5711,-4.430599 0.32888,-5.566918 0.88753,-1.120595 4.44043,-0.513085 5.75111,-0.513085 h 16.64 c 1.24558,0 2.98676,0.142343 4.15383,-0.0474 0.72978,-0.118662 1.80815,-0.698974 1.39433,-1.772353 C 158.84254,91.277539 155.55685,92.16 153.91999,92.16 h -17.92 c -1.19086,0 -2.70903,0.04873 -3.83999,-0.02864 -0.8151,-0.05577 -1.85451,-0.51793 -2.77828,-0.09358 -1.7287,0.794111 -0.74172,4.674902 -0.74172,6.522226 V 118.72 c 0,1.5579 0.19007,4.0275 -0.0474,5.42123 -0.18842,1.1058 -1.66434,1.88647 -2.31951,0.55704 -1.11279,-2.25805 -0.19308,-6.54462 -0.19308,-8.85827 v -6.08 -12.160004 c 0,-1.653691 -0.91093,-7.648749 1.0074,-8.218271 2.82911,-0.839931 6.92031,-0.101728 9.87259,-0.101728 1.97181,0 4.87401,-0.05111 6.72,0.06568 0.94393,0.05972 1.53635,0.224551 2.56,0.249629 2.85227,0.06987 6.0728,0.0047 8.96,0.0047 2.37824,0 5.00857,0.069 7.36,-0.0049 0.89907,-0.02826 1.95131,-0.02141 2.36075,-1.02666 0.32738,-0.803828 -0.09,-1.533398 -0.80815,-1.74667 -2.2201,-0.659306 -4.85232,-0.101728 -7.3126,-0.101728 h -21.12 c -2.17776,0 -6.40814,0.418144 -8.30124,-0.101729 -2.36185,-0.648603 -1.29875,-5.404907 -1.29875,-7.578271 0,-7.039399 -0.0337,-14.0808 2.4e-4,-21.119999 0.006,-1.289067 0.26239,-2.366133 0.26247,-3.52 7e-5,-1.037944 -0.78081,-2.664209 0.29481,-3.616787 1.30381,-1.154658 2.27046,0.964473 2.3163,2.017031 0.14165,3.252373 0.006,7.52751 0.006,10.879756 v 14.719999 c 0,1.333657 -0.52403,4.170029 0.32888,5.246914 0.68446,0.864199 2.51379,0.513086 3.51111,0.513086 h 3.52 c 2.80301,0 6.19745,-0.108379 8.96,0.0126 2.57755,0.112861 4.17273,0.307402 7.04,0.307402 1.92349,0 5.37851,0.533242 6.84543,-0.648643 2.24852,-1.811611 -2.68365,-1.911357 -3.64543,-1.911357 -3.80966,0 -8.07769,0.08748 -11.84,-0.0047 -1.10524,-0.02708 -1.80704,-0.245855 -2.88,-0.274073 -0.8114,-0.02134 -1.43324,0.151553 -2.24,0.133086 -1.59877,-0.0366 -5.21446,0.536265 -6.52691,-0.503213 -0.93284,-0.739 -0.51291,-2.224752 -0.51291,-3.511153 v -9.6 c 0,-2.976376 -1.9e-4,-5.987167 0,-8.959999 5e-5,-0.880073 -0.30524,-2.580381 0.51184,-3.184937 1.16406,-0.861284 1.80791,0.586416 1.85778,1.586416 0.061,1.223516 0.17491,1.99501 0.18914,3.198521 0.0517,4.373305 0.001,9.332045 0.001,13.759999 0,1.117686 -0.44275,3.704072 0.74173,4.286914 2.38029,1.171255 8.11522,0.193086 10.77827,0.193086 h 3.84 c 1.27253,0 3.99869,0.513467 4.78963,-0.512842 0.52707,-0.683911 0.21541,-1.54519 -0.41135,-1.854072 -1.01511,-0.500264 -2.17002,-0.193086 -3.41828,-0.193086 h -9.6 c -1.02844,0 -2.79792,0.343526 -3.64691,-0.328891 -0.83659,-0.662598 -0.51309,-2.552891 -0.51309,-3.511109 0,-2.773217 -1.7e-4,-5.546806 0,-8.319999 7e-5,-1.060249 -0.33666,-2.213667 0.32889,-2.963706 1.03576,-1.167241 2.17664,0.577197 2.22494,1.68395 0.12028,2.756201 -1.01298,7.674467 0.19926,10.138027 0.3794,0.77102 1.3075,0.726264 2.04716,0.740249 1.84882,0.03496 5.7012,0.716606 7.25778,-0.327412 1.07967,-0.724146 0.55374,-1.9944 -0.55679,-2.183701 -2.91555,-0.496993 -6.45038,1.267617 -6.37975,-2.927163 0.009,-0.559546 -0.0415,-1.261407 0.3274,-1.727159 2.52613,-3.189492 6.39698,3.845909 7.24939,0.74815 0.25022,-0.909351 0.37729,-2.86772 -0.41136,-3.492344 -1.16244,-0.920678 -3.80774,-0.220088 -5.24543,-0.347656 -0.92339,-0.08193 -2.44649,-0.852559 -1.58643,-2.028393 0.94743,-1.295289 5.8492,-0.522911 7.34494,-0.512598 0.70758,0.0049 1.73451,-0.114175 2.23112,0.512842 0.54832,0.692309 0.32851,1.856421 0.32888,2.686914 0.001,2.679531 -0.12404,4.371127 0.006,7.359755 0.0506,1.162544 1.12516,3.110488 2.22494,1.497031 1.50507,-2.208046 0.32906,-8.406996 0.32888,-11.096786 -5e-5,-0.91333 0.28988,-2.555152 -0.51308,-3.191109 -1.73617,-1.375073 -7.15008,-0.26393 -9.40692,-0.501484 -1.62586,-0.171138 -4.55331,-0.08622 -6.07851,-0.153579 -0.97775,-0.04318 -2.30802,-0.498608 -1.72223,-1.813579 0.58301,-1.308726 3.75726,-0.740249 4.92074,-0.740249 h 11.52 c 1.21922,0 2.44645,-0.368452 3.32692,0.328892 0.96621,0.765258 0.47555,3.966191 0.52568,5.111108 0.06,1.37084 0.30493,2.184472 0.30493,3.52 0,3.25455 0.002,6.926381 0.002,10.239999 0,0.973081 0.63237,6.282329 2.04692,3.418027 0.73873,-1.495849 0.19308,-4.332739 0.19308,-5.978027 V 57.279998 c 0,-1.13918 0.68997,-3.554341 -1.0074,-4.058271 -1.63446,-0.485249 -4.54787,-0.101729 -6.3526,-0.101729 h -14.72 c -1.21806,0 -7.01775,0.732612 -5.88074,-1.819756 0.48156,-1.080996 2.37438,-0.740185 3.32074,-0.740244 h 9.6 13.12 c 1.11311,0 3.71518,-0.441357 4.47112,0.513086 1.05441,1.331309 0.32888,5.187305 0.32888,6.846914 v 18.239999 c 0,1.715733 -0.90648,7.081113 0.74025,7.956289 1.37516,0.730859 1.77475,-0.992754 1.81358,-1.877519 0.077,-1.755645 0.006,-3.955826 0.006,-5.75877 V 56.639998 c 0,-2.132329 0.74551,-5.990801 -0.19308,-7.898271 -0.75799,-1.54041 -6.84094,-0.741729 -8.44692,-0.741729 h -23.04 c -1.59237,0 -3.5742,0.0833 -5.11975,-0.01407 -0.85852,-0.05408 -1.69216,-0.161084 -2.04099,-1.017529 -1.27506,-3.130576 7.17084,-1.533223 8.12074,-1.528643 7.44409,0.0359 14.95026,2.44e-4 22.4,2.44e-4 1.80659,0 6.4764,0.817432 7.80692,-0.513086 1.26015,-1.260166 0.51308,-5.466679 0.51308,-7.166913 v -20.8 c 0,-1.699638 0.89834,-7.1203998 -1.00123,-7.7881536 -1.82245,-0.6406445 -1.55829,1.9242576 -1.55877,2.9881546 -0.002,4.360527 0,8.756259 0,13.119999 v 12.16 c 0,1.538046 0.51476,3.541738 -0.32888,4.606914 -0.82838,1.045917 -4.63673,0.513085 -6.07112,0.513085 -3.30738,0 -6.69399,0.138321 -9.92,0.137286 -2.11351,-6.74e-4 -4.1893,-0.137286 -6.4,-0.137286 h -2.24 c -1.17055,0 -4.27494,0.701192 -5.56666,-0.328886 -2.73851,-2.183809 3.12826,-2.231113 3.64666,-2.231113 h 3.2 4.8 9.92 c 1.44973,0 4.4339,0.409394 5.65828,-0.193086 1.54003,-0.757803 0.74172,-3.60377 0.74172,-5.246914 v -14.4 c 0,-1.349941 0.54557,-4.150097 -0.32888,-5.246669 -1.80751,-2.266631 -2.23106,2.125751 -2.23112,3.006669 v 14.72 c 0,1.444717 0.24869,4.314248 -1.0074,4.88247 -1.39433,0.630762 -3.14532,0.23753 -4.7526,0.23753 h -10.56 c -1.38013,0 -4.64635,0.491337 -4.05209,-1.874082 0.38735,-1.541856 3.18833,-1.005918 4.37209,-1.005918 h 8.96 c 1.11216,0 2.7772,0.312431 3.73828,-0.328887 0.89877,-0.599746 0.73977,-1.923193 0.74172,-2.871113 0.006,-2.879424 0,-5.76043 0,-9.28 -0.0551,-2.319424 -2.09854,-4.011299 -2.51259,-1.58124 -0.4865,2.855205 0.99783,8.242939 -0.24049,10.759511 -0.50592,1.028145 -3.07596,0.741729 -3.96692,0.741729 h -2.24 c -0.97042,0 -2.84292,0.352265 -3.50962,-0.512832 -0.85372,-1.107754 0.29601,-1.939248 1.2758,-2.028408 2.20395,-0.200557 5.94926,0.963349 6.06741,-2.259004 0.026,-0.708027 0.0704,-1.284229 -0.18667,-1.872354 -0.32746,-0.749091 -1.16583,-1.159902 -1.85556,-0.672343 -0.59356,0.41958 -1.81402,3.628564 -2.87827,1.482968 -0.64528,-1.300937 -0.19309,-3.577617 -0.19309,-5.018027 0,-3.941836 0.36596,-8.284052 -0.0914,-12.1599993 -0.16316,-1.382832 -0.84211,-4.3770995 0.10024,-5.5669139 0.54453,-0.6875293 1.7665,-0.5114746 2.55111,-0.5130859 2.45055,-0.00505 4.90875,0 7.36,0 h 23.68 c 2.50866,0 7.19358,-0.5036328 9.2326,0.1017285 1.96971,0.5847754 1.31996,3.84916 1.32715,5.3382713 0.0156,3.2354193 0.0725,8.0590233 -0.004,11.1999993 -0.0464,1.89543 0.38966,4.309756 -0.5084,6.352344 -1.27114,2.891123 -3.36377,-3.590615 -4.73383,-0.810615 -0.2842,0.576669 -0.19904,1.175742 -0.19137,1.818271 0.009,0.730635 -0.0798,1.455781 0.51137,2.046914 1.18029,1.180283 3.85205,0.376357 5.56074,0.531846 0.96238,0.08758 2.32242,1.09873 1.09283,2.26667 -0.6773,0.643339 -1.61894,0.601621 -2.68666,0.588642 -1.93142,-0.02348 -3.85082,0.231943 -6.03259,-0.415801 -1.00332,-0.297871 -0.98623,-1.096777 -1.00592,-2.138515 -0.0502,-2.653311 0.0475,-5.649814 -0.003,-8.319512 -0.0192,-1.015429 -0.92649,-3.361044 -2.22963,-1.726914 -0.6275,0.786885 -0.32889,2.3821 -0.32889,3.32667 0,2.772451 -0.001,5.547842 0,8.32 4.7e-4,1.033183 -0.18345,2.57375 0.74172,3.191113 1.01084,0.674521 2.51787,0.328887 3.73828,0.328887 h 8.96 c 1.0133,0 6.42047,-0.127412 4.28543,2.002714 -0.94668,0.944512 -2.63552,0.557286 -3.96543,0.557286 h -11.52 c -1.12957,0 -3.69582,0.46581 -4.47111,-0.513086 -0.81553,-1.029688 -0.32889,-3.655713 -0.32889,-4.926914 v -13.44 c 0,-0.790888 -0.15097,-6.575117 -2.23111,-3.966669 -0.86908,1.089814 -0.32889,3.912617 -0.32889,5.246669 0,4.645029 0.0203,9.451299 -2.5e-4,14.08 -0.006,1.390049 -0.76609,4.719023 0.74197,5.613339 0.93955,0.557168 2.31229,0.447491 3.41828,0.463203 3.46303,0.04921 7.08219,0.0035 10.56,0.0035 3.51246,0 7.05012,-0.0016 10.56,0 0.96594,4.39e-4 3.23805,-0.311963 3.05086,1.263955 -0.24594,2.070507 -5.27795,1.296044 -6.89086,1.296044 h -17.6 c -1.80746,0 -4.91187,0.680899 -6.20691,-0.560986 -1.14564,-1.098613 -0.51309,-6.165009 -0.51309,-8.079013 v -5.12 -2.88 -6.08 -5.12 c 0,-1.188613 0.008,-2.384169 -2.5e-4,-3.519999 -0.007,-1.085967 -0.54117,-3.3900394 -2.04689,-2.2296292 -1.43977,1.1095802 -0.51286,5.1497462 -0.51286,7.0296282 v 20.8 c 0,1.794228 -0.78511,6.50871 0.51309,7.806913 1.34539,1.345391 5.97643,0.513086 7.80691,0.513086 h 22.08 c 1.97629,0 4.48305,-0.0783 6.39852,0.0062 0.93853,0.04139 2.35129,0.401436 1.72222,1.813584 -0.67923,1.524785 -4.76232,0.740244 -6.52074,0.740244 h -7.04 -16.96 c -1.58775,0 -6.62935,-0.802236 -7.67111,0.513086 -1.11816,1.411787 -0.32889,5.724976 -0.32889,7.486914 v 20.479999 c 0,1.38918 -0.79297,7.637744 1.00123,7.850859 2.43909,0.289727 1.55877,-6.067929 1.55877,-7.530859 V 56.959998 c 0,-1.353042 -0.665,-5.514712 0.74172,-6.206914 1.71205,-0.842441 5.04096,-0.193086 6.93828,-0.193086 h 17.28 c 1.25451,0 7.90772,-0.414492 6.06963,2.051602 -0.78572,1.054189 -2.90773,0.694277 -4.14963,0.615063 -5.14621,-0.328247 -11.86203,-0.106665 -17.28,-0.106665 -1.79074,0 -3.91127,-0.11979 -5.43382,0.01876 -2.27497,0.207026 -1.60618,3.24018 -1.60618,5.101235 v 14.719999 c 0,1.643296 -0.91228,4.538677 0.51286,5.880737 1.9249,1.812701 2.04714,-3.366323 2.04714,-4.600737 V 61.759998 c 0,-2.428809 -0.20367,-4.308379 0.32,-6.08 2.98623,0.710967 11.21992,0.32 15.36,0.32 1.1218,0 4.78018,-0.604038 4.97086,1.001235 0.2344,1.973384 -2.84685,1.558765 -4.01086,1.558765 h -10.56 c -1.10726,6.8e-5 -3.01636,-0.346358 -3.41828,1.007407 -0.93418,3.146572 -0.10851,8.173999 -0.10172,11.472592 0.002,1.070811 -0.25129,2.503667 1.00123,2.759502 1.55914,0.318462 1.55075,-1.312666 1.55852,-2.439502 0.0173,-2.513447 -0.0169,-5.158491 5.1e-4,-7.679999 0.007,-0.949444 -0.10088,-2.129317 1.00715,-2.458272 2.07523,-0.616108 5.79566,-0.278701 7.94642,-0.08296 0.94221,0.08575 1.94354,0.72543 1.27109,1.800987 -0.92367,1.477387 -4.5888,0.625244 -6.05875,0.759013 -1.84726,0.168106 -2.14601,2.279297 -1.32025,4.093579 0.42524,0.934278 1.30668,1.16314 2.08272,0.448892 1.26169,-1.161235 0.73451,-1.965781 2.75162,-1.999756 1.52338,-0.02566 2.68285,-0.354311 2.86097,1.604692 0.12721,1.398877 0.36149,2.738584 -0.72295,3.333335 -0.66939,0.367129 -1.44248,0.368086 -2.13828,0.370864 -0.4416,0.0018 -7.09343,-0.286533 -4.59406,2.06148 1.23201,1.157392 5.15141,0.63667 6.83406,0.627905 0.97866,-0.0051 2.29426,0.05961 2.87112,-0.77852 1.71484,-2.491553 -0.15327,-7.934443 0.37629,-11.042471 0.16826,-0.987504 1.40312,-1.764257 2.18371,-0.785429 0.63226,0.792841 0.32888,2.367285 0.32888,3.326665 0,2.772426 0.001,5.547875 0,8.319999 -4.7e-4,1.013911 0.19883,2.265576 -0.51308,2.962471 -0.83022,0.812705 -2.44979,0.557451 -3.64692,0.557529 -3.73265,2.39e-4 -7.46752,-0.0077 -11.2,0 -1.4116,0.0029 -3.68281,0.704165 -2.36543,2.047158 0.95534,0.973897 2.56694,0.512842 3.96543,0.512842 h 11.2 c 1.2567,0 3.64979,0.444048 4.60692,-0.513086 0.99814,-0.998135 0.51308,-3.612138 0.51308,-4.926914 V 60.799998 c 0,-0.958882 -0.3583,-6.323413 2.04715,-4.469629 0.75039,0.578306 0.51246,2.028066 0.51285,2.869629 0.001,2.55707 0,5.122192 0,7.68 v 10.559999 c 0,1.136138 0.35707,3.096758 -0.51308,3.966914 -1.11455,1.114541 -4.40348,0.513086 -5.88692,0.513086 h -16 c -1.11607,0 -7.28718,-0.647056 -5.74492,1.819746 0.64246,1.027598 2.39309,0.740186 3.50492,0.740254 h 10.56 11.84 c 1.19727,0 3.37233,0.401504 4.28692,-0.513086 0.92334,-0.92334 0.51308,-3.067978 0.51308,-4.286914 v -3.2 -18.879999 c 0,-1.833174 -0.42205,-4.268887 0.10172,-6.032593 0.30285,-1.019819 1.58057,-1.182299 2.1294,-0.494077 1.0815,1.356182 0.32888,5.185273 0.32888,7.16667 v 20.479999 c 0,1.731729 0.81836,6.950078 -0.74172,7.991113 -1.69955,1.134092 -5.88285,0.328887 -7.89828,0.328887 h -20.8 c -1.57232,0 -8.44004,-0.888955 -9.06814,0.740254 -0.47949,1.243701 0.78148,1.718632 1.70963,1.800976 1.96029,0.173945 4.389,0.01877 6.39851,0.01877 h 22.4 c 1.66164,0 6.35459,-0.745137 7.35112,0.513086 1.00791,1.272597 0.32888,5.416523 0.32888,7.166913 V 117.44 c 0,1.6475 0.8759,7.05877 -0.74025,7.97234 -2.0159,1.13953 -1.81969,-2.5213 -1.81975,-3.49234 -1.9e-4,-2.8846 0,-6.1095 0,-8.96 v -3.52 -12.480004 c 0,-1.084941 0.34953,-3.430351 -0.32888,-4.286913 -1.14176,-1.441582 -4.50022,-0.513086 -6.39112,-0.513086 h -17.28 c -1.51886,0 -4.97773,-0.651114 -6.20666,0.328886 -0.99076,0.790078 -0.20562,2.014844 0.78543,2.183711 2.35332,0.400977 5.25032,0.0474 7.66123,0.0474 h 13.44 c 1.42908,0 3.94321,-0.652852 5.25926,0.328886 1.16361,0.868037 0.47043,3.280215 0.59111,4.471113 0.35582,3.511417 -0.0904,8.346477 -0.0904,12.160007 v 3.52 c 0,1.55788 0.42334,3.59323 -0.32888,4.69678 -1.86612,2.73769 -2.23112,-2.85231 -2.23112,-3.73678 V 102.4 c 0,-1.17968 0.50412,-3.985472 -0.51308,-4.791117 -0.93323,-0.739121 -3.1425,-0.328887 -4.28692,-0.328887 h -11.2 c -1.08174,0 -3.73277,-0.489853 -4.28074,0.740245 -0.96205,2.159639 2.54279,1.819755 3.64074,1.819755 h 10.24 c 1.04332,0 2.56647,-0.273398 3.32692,0.328884 0.78334,0.62042 0.51302,2.17187 0.51308,3.19112 1.8e-4,2.6091 1.04885,9.59901 -0.32888,11.32667 -0.88307,1.10734 -2.02991,0.11731 -2.18371,-0.78544 -0.33444,-1.96282 -0.0323,-6.71003 -0.0477,-8.94123 -0.006,-0.83095 0.1365,-1.71682 -0.51283,-2.23112 -0.8026,-0.63566 -3.63721,-0.32888 -4.92692,-0.32888 -1.18465,0 -3.78435,-0.37635 -4.46963,0.51284 -0.75293,0.97697 0.0427,1.84202 0.9684,1.99975 1.33547,0.22754 4.51623,-0.31223 5.63951,0.24049 1.10836,0.54538 0.92231,2.29008 0.69432,3.62815 -0.57553,3.37786 -4.1448,-2.71551 -4.97088,0.0662 -1.28142,4.315 -0.0801,11.41791 -0.10197,15.9526 -0.008,1.62193 -1.04065,3.76385 0.009,5.33827 1.04613,1.56893 4.17613,0.74173 6.07111,0.74173 h 17.92 6.72 7.36 c 1.21154,0 4.26977,0.54918 5.11111,-0.51309 0.89829,-1.13416 0.32889,-4.1846 0.32889,-5.56691 0,-3.95998 0.32,-7.25132 0.32,-11.2 0,-1.56864 0.61924,-4.05775 -0.32889,-5.24667 -0.41179,-0.51639 -1.21886,-0.55385 -1.71974,-0.18322 -0.656,0.48543 -2.19924,3.72073 -2.96965,0.93087 -0.25502,-0.9235 -0.40863,-2.84264 0.41137,-3.4921 1.26781,-1.00412 4.02738,-0.12699 5.56074,-0.37629 0.87779,-0.14272 1.99334,-1.01232 1.27109,-1.99975 -0.72326,-0.98885 -3.37472,-0.51284 -4.46492,-0.51284 -1.26953,0 -3.88572,-0.49575 -4.92691,0.32888 -0.80115,0.63452 -0.51303,2.28939 -0.51309,3.19112 -1.5e-4,2.41266 0.53145,5.67619 -0.10172,7.98123 -0.26576,0.96749 -1.67677,1.74304 -2.26519,0.55679 -1.25223,-2.52453 -0.19309,-7.93896 -0.19309,-10.77802 0,-0.95845 -0.33625,-2.83843 0.51309,-3.51112 1.76924,-1.401247 7.80316,-0.32888 10.04691,-0.32888 1.83018,0 4.67266,0.54065 6.3526,-0.19309 0.86771,-0.378984 1.20711,-1.480712 0.67703,-2.173828 -0.75619,-0.988789 -3.18689,-0.513086 -4.46963,-0.513086 h -11.84 c -1.37926,0 -3.32314,-0.390898 -3.73828,1.007403 -0.40162,1.352763 -0.10172,3.804191 -0.10172,5.392601 0,4.26529 0.002,8.53517 0,12.8 -4.7e-4,1.19107 0.19602,2.1911 -0.37728,3.15234 -0.46028,0.77172 -1.49379,1.26132 -2.17383,0.26444 -0.67055,-0.98294 -0.32889,-3.14996 -0.32889,-4.37678 0,-3.83688 -0.29594,-9.11965 0.0543,-12.8 0.20724,-2.17766 -0.10082,-4.2718 0.31308,-6.701234 0.33397,-1.960176 2.6628,-1.298769 4.4326,-1.298769 4.06885,0 9.90848,-0.188047 13.44,0.228642 1.64115,0.193643 6.52645,0.260645 8.31852,0.05654 0.78431,-0.08933 2.45886,-0.834023 1.5864,-2.01333 -0.95715,-1.293769 -4.2917,-0.446797 -6.06492,-0.524453 -0.96297,-0.04217 -1.60254,-0.218984 -2.56,-0.277773 -4.19557,-0.257637 -10.03754,-0.02963 -14.4,-0.02963 -1.78531,0 -5.04451,-0.581309 -6.61828,0.193086 -1.76299,0.8675 -0.74172,5.592831 -0.74172,7.486913 0,1.406408 0.0289,3.111098 -0.005,4.480008 -0.0263,1.07503 -0.21058,1.76879 -0.28668,2.88 -0.27386,3.99923 -0.0286,8.73156 -0.0286,12.8 0,1.60817 0.54442,3.73562 -0.32888,5.01678 -0.49889,0.73189 -1.43379,0.68722 -1.90223,0 -0.67074,-0.98401 -0.32889,-2.53427 -0.32889,-3.73678 v -9.6 -4.48 c 0,-3.55218 -0.0835,-7.919187 0.005,-11.520008 0.0356,-1.45499 0.26902,-2.189492 0.31086,-3.519999 0.0253,-0.805645 -0.12649,-1.93751 0.74617,-2.366914 1.64316,-0.808535 4.79934,-0.193086 6.61828,-0.193086 h 10.24 4.48 6.72 c 2.17279,0 4.47252,0.001 6.72,0 1.18916,-5.28e-4 2.80109,0.361816 3.07951,-1.001231 0.12729,-0.623193 -0.10609,-1.111816 -0.62123,-1.365683 -0.85648,-0.42209 -2.3549,-0.193086 -3.41828,-0.193086 h -13.76 -14.72 c -1.41406,0 -4.42004,0.579453 -5.56691,-0.328887 -1.30865,-1.036484 -0.51309,-6.369062 -0.51309,-7.991113 V 57.919998 c 0,-2.044624 -0.76199,-5.418501 0.59457,-6.84667 1.156,-1.217011 2.16774,0.0057 2.26666,1.092842 0.13717,1.507344 0.0188,3.827734 0.0188,5.433828 0,1.406411 0.0289,3.111089 -0.005,4.48 -0.0359,1.465791 -0.29476,2.214892 -0.31408,3.84 -0.0221,1.85687 -0.001,4.283984 -0.001,6.079999 v 5.44 c 0,1.426826 -0.67972,6.14748 0.74172,6.846914 1.63844,0.806211 4.79451,0.193086 6.61828,0.193086 h 16.64 c 1.43488,0 6.24766,0.812305 6.82815,-0.723213 0.84654,-2.239267 -5.06223,-1.516787 -6.18815,-1.516787 -5.3692,0 -10.61502,-0.32 -16,-0.32 -1.73767,0 -4.42281,0.631016 -5.56691,-0.513086 -1.04065,-1.040649 -0.51309,-4.634961 -0.51309,-6.206914 0,-5.009892 -0.0583,-10.031269 0.001,-15.039999 0.02,-1.681377 0.15758,-2.896377 0.63877,-4.48 2.76842,0.918994 2.24,3.017241 2.24,5.76 0,4.660459 -0.0107,9.781137 -0.0123,14.079999 -3.5e-4,0.926763 -0.21863,1.603379 -0.0217,2.541235 0.38967,1.855884 2.60527,1.298765 4.19406,1.298765 h 10.56 c 1.41834,0 3.44363,0.379121 4.7526,-0.193086 2.86478,-1.252329 -1.02926,-2.366391 -2.1926,-2.366914 -3.5193,-0.0016 -7.04051,0 -10.56,0 -1.42945,0 -3.03324,0.420576 -3.96691,-0.513086 -0.73739,-0.737373 -0.51301,-2.231406 -0.51309,-3.326914 -1.7e-4,-2.786225 0.11891,-5.55288 0.0123,-8.319999 -0.0454,-1.177373 -0.23637,-2.563794 0.72914,-3.189629 2.11361,-1.37002 2.13851,2.946152 2.13851,4.469629 0,1.822124 -0.81299,6.36519 0.32889,7.806913 0.92207,1.164204 7.53515,0.918262 8.90371,0.32 1.04014,-0.454692 1.17721,-1.914921 0,-2.265185 -1.78279,-0.530444 -4.65613,0.760078 -6.15951,-0.43062 -0.86088,-0.681831 -0.89586,-3.708262 0,-4.519995 2.69525,-2.442129 3.84582,0.618403 5.11951,1.761723 0.80506,0.722647 1.71832,0.01621 1.94568,-0.787651 0.35381,-1.250903 0.44545,-3.11768 -0.41136,-3.796294 -0.54252,-0.429692 -1.3826,-0.324067 -2.04692,-0.328647 -1.07256,-0.0074 -6.66316,0.383647 -4.78963,-2.047402 0.73811,-0.957745 3.28715,-0.512842 4.46963,-0.512842 1.21483,0 4.48092,-0.282588 5.11111,0.513086 1.45022,1.831054 0.28372,7.566772 0.33038,10.046913 0.0191,1.017119 0.92804,3.726275 2.22962,1.816787 1.48211,-2.174321 0.32889,-8.455854 0.32889,-11.096786 0,-0.970674 0.33842,-2.836709 -0.51308,-3.511109 -0.8325,-0.65935 -2.63317,-0.328891 -3.64692,-0.328891 h -9.92 c -0.82748,0 -5.74664,-0.301294 -3.32666,-2.231108 0.94442,-0.75313 3.14244,-0.328892 4.28666,-0.328892 h 11.52 c 1.41133,0 3.34053,-0.531235 3.96692,0.741728 0.52421,1.065367 0.19308,3.74606 0.19308,5.018272 0,4.620781 -3.1e-4,9.441445 0,14.079999 6e-5,0.932261 0.0849,4.930322 2.04715,3.00543 1.61957,-1.588711 0.51285,-8.150308 0.51285,-10.36543 0,-3.831616 2.5e-4,-7.691196 0,-11.519999 -6e-5,-0.940747 0.19854,-2.62749 -0.51309,-3.191108 -1.32164,-1.046763 -4.10919,-0.328892 -5.88691,-0.328892 h -16.32 c -1.44228,0 -3.50533,0.468638 -4.69828,-0.328892 -0.69951,-0.467641 -0.96492,-1.632968 -0.22838,-2.222221 1.10108,-0.880879 5.32684,-0.345733 6.84666,-0.327656 1.53697,0.01828 2.39047,0.278564 3.84,0.314082 4.26817,0.10458 9.11754,0.0047 13.44,0.0047 1.35031,0 5.18139,-0.610273 6.07111,0.513086 1.05442,1.331313 0.32889,5.1873 0.32889,6.846914 0,6.281909 -0.32,12.580654 -0.32,18.879999 0,1.704863 -0.0667,3.778345 0.006,5.43877 0.0373,0.850136 0.25211,2.254902 1.5526,1.930615 1.79777,-0.448291 1.00123,-5.146528 1.00123,-6.729385 v -15.679999 -5.44 c 0,-1.649658 0.78217,-6.680898 -0.22172,-7.806914 -1.33092,-1.492842 -5.6998,-0.513086 -7.77828,-0.513086 -4.43363,0 -9.37916,0.102656 -13.76,-0.0047 -2.59951,-0.06369 -4.53289,-0.315313 -7.36,-0.315313 h -3.84 c -0.98176,0 -1.59492,0.002 -2.56,0 -0.95117,-0.002 -2.51928,0.174883 -2.75951,-1.00123 -0.50268,-2.461055 6.62662,-1.55877 8.19951,-1.55877 h 2.56 c 4.10934,0 11.80047,-0.171308 16,0.0126 1.21217,0.05309 1.9769,0.272744 3.2,0.302715 2.21619,0.05431 6.14916,0.79458 7.89828,-0.372598 1.02571,-0.684443 0.74172,-3.417373 0.74172,-4.742714 v -15.68 V 13.44 c 0,-1.058956 0.45412,-3.428672 -0.74025,-3.9607425 -2.46955,-1.1001269 -1.81975,4.2492675 -1.81975,5.5607415 0,6.826465 4.5e-4,13.653603 0,20.48 -1.4e-4,1.992177 0.41316,4.73622 -0.51309,6.618271 -0.82511,1.676562 -4.77212,0.741728 -6.52691,0.741728 h -17.28 c -1.67584,0 -4.99775,0.718301 -6.20543,-0.512832 -1.04047,-1.060693 0.11358,-1.939404 1.0916,-2.028408 1.26596,-0.115205 2.83979,-0.01876 4.15383,-0.01876 h 16.64 c 1.42813,0 4.86211,0.590527 5.75111,-0.741729 0.83971,-1.258369 0.32889,-3.867871 0.32889,-5.338271 v -14.08 c 0,-1.711416 0.77266,-4.438935 -0.51285,-5.429628 -0.84992,-0.655 -1.73742,-0.02337 -1.94543,0.677031 -0.26582,0.895117 -0.10172,2.09373 -0.10172,3.152597 v 14.4 c 0,1.56914 0.69785,3.898554 -0.74172,4.606914 -1.03797,0.510742 -3.4484,0.193086 -4.69828,0.193086 h -4.8 c -2.41154,0 -5.24139,0.01654 -7.68,-2.45e-4 -0.95449,-0.0066 -2.00861,0.117813 -2.54492,-0.739999 -1.1785,-1.884991 2.08066,-1.819688 3.18492,-1.819756 3.30656,-2.15e-4 6.61342,0 9.92,0 1.18604,0 3.03506,0.353906 4.05828,-0.328887 1.02492,-0.683916 0.74164,-2.435605 0.74172,-3.511113 1.8e-4,-2.773223 1.8e-4,-5.546807 0,-8.32 -8e-5,-1.069404 0.31088,-2.204414 -0.32889,-3.00667 -1.24345,-1.559267 -2.21058,0.719024 -2.22962,1.726914 -0.0469,2.480899 0.0155,5.502481 -0.002,7.999756 -0.006,0.819189 0.0873,1.735019 -0.51283,2.322471 -0.66985,0.655712 -1.74731,0.552333 -2.68692,0.557285 -1.98896,0.01049 -6.42943,1.043574 -7.14814,-1.000987 -0.47518,-1.351757 1.07834,-1.539326 2.0284,-1.557285 1.64632,-0.03112 4.14478,0.519629 5.24666,-0.559013 0.79251,-0.775811 0.77871,-2.318125 0.41136,-3.555069 -0.27496,-0.925918 -1.20299,-1.227783 -1.94691,-0.677285 -0.59416,0.439658 -0.49963,1.189414 -1.02274,1.671113 -0.60125,0.553643 -1.43054,0.576377 -1.90986,-0.184189 -1.0974,-1.741328 -0.24816,-3.433769 -0.24742,-5.337041 0.002,-3.993798 0.10865,-8.057998 0.10865,-12.4799993 0,-1.269541 -0.49574,-3.8857421 0.32889,-4.9269139 0.54715,-0.6908301 1.77324,-0.5114844 2.55111,-0.5130859 2.47027,-0.00509 5.23838,0 7.68,0 h 3.2 20.16 c 2.3398,0 7.11486,-0.8222559 9.17828,0.1930859 1.43809,0.7076367 0.74172,3.3389159 0.74172,4.9269139 V 21.759999 c 0,1.586865 0.54318,3.720752 -0.32889,4.980986 -0.37256,0.538389 -1.15681,0.823428 -1.71851,0.436055 -0.56658,-0.390752 -2.47205,-4.164765 -3.0252,-0.918281 -0.16304,0.957002 -0.3458,2.849648 0.46569,3.492353 1.85677,1.470596 4.42554,-0.463486 6.42519,0.521973 0.69365,0.341846 1.04201,1.660312 0,2.173828 -0.87121,0.429346 -1.91623,0.193027 -2.77828,0.193086 -1.49113,9.7e-5 -4.99686,0.629502 -6.20691,-0.328887 -0.7425,-0.588066 -0.5127,-2.029238 -0.51309,-2.871113 -10e-4,-2.526553 0.1048,-5.161943 -0.006,-7.678515 -0.046,-1.043516 -1.0934,-2.82709 -2.22494,-1.408155 -0.62752,0.786895 -0.32889,2.38209 -0.32889,3.32667 0,2.87373 -0.006,5.768359 0,8.64 0.002,1.144863 -0.24984,2.199004 0.74172,2.686914 2.05697,1.012158 6.41939,0.380605 8.53828,0.414814 1.39523,0.02253 1.95666,-0.09559 3.2,-0.155068 1.11141,-0.05316 1.85588,0.188994 2.88,0.240996 0.91012,0.04621 3.25842,0.179033 2.22492,1.832099 -0.57273,0.916084 -1.93576,0.738331 -2.86492,0.740245 -2.55947,0.0053 -5.12041,0 -7.68,0 -2.04678,0 -7.70574,0.758525 -9.40691,-0.640987 -1.45995,-1.201064 -0.51309,-3.025976 -0.51309,-4.799013 v -13.76 c 0,-0.72542 -0.24289,-6.411132 -2.23111,-3.965429 -1.01377,1.247021 -0.006,4.516992 -0.0262,5.565429 -0.0227,1.174463 -0.26608,1.895742 -0.29803,3.2 -0.0438,1.789072 -0.005,2.568398 -0.005,4.16 v 7.36 c 0,1.334502 -0.35703,4.377929 0.74172,5.111113 1.07459,0.71707 2.76168,0.328887 4.05828,0.328887 h 9.92 c 3.69502,0 7.51797,-0.02514 11.2,2.44e-4 1.06139,0.0073 2.84994,0.131015 2.34814,1.558525 -0.69906,1.988642 -4.61361,1.00123 -6.50814,1.00123 h -16.96 c -1.85273,0 -5.09352,0.688584 -6.61828,-0.328886 -1.28639,-0.858399 -0.74172,-6.014414 -0.74172,-7.671113 v -5.12 -2.88 -12.48 c 0,-1.328798 0.40635,-3.481943 -0.19309,-4.698271 -0.42492,-0.8622069 -1.74892,-0.8621776 -2.17382,0 -1.01157,2.052568 -0.19309,6.261924 -0.19309,8.538271 v 10.88 2.88 4.8 c 0,2.194179 -0.87654,8.188964 1.60617,8.592597 2.52701,0.41084 6.29238,0.0474 8.95383,0.0474 h 19.2 c 1.52699,0 8.13533,-0.849277 8.74814,0.740244 1.02651,2.662559 -7.05949,1.819756 -8.42814,1.819756 h -22.72 c -2.02607,0 -6.57828,-1.104863 -7.48691,0.741729 -1.15586,2.349013 -0.19309,6.022104 -0.19309,8.218271 v 20.479999 c 0,1.790698 -0.95906,5.747676 0.74025,6.557773 1.59475,0.760254 1.81217,-1.336171 1.8195,-2.397773 0.029,-4.207754 2.5e-4,-8.577343 2.5e-4,-12.8 V 56.319998 c 0,-1.269531 -0.49574,-3.885737 0.32889,-4.926914 0.99175,-1.252197 5.53455,-0.513086 7.03111,-0.513086 h 17.28 c 1.64336,0 5.02266,-0.632637 6.20543,0.328887 0.7383,0.60019 0.25777,1.709907 -0.49283,2.038027 -1.37694,0.601924 -3.576,0.193086 -5.0726,0.193086 h -16.96 c -1.76523,0 -4.76828,-0.881313 -5.56691,0.741729 -0.5053,1.026894 -0.19309,4.14537 -0.19309,5.338271 v 14.399999 c 0,1.195025 -0.56596,4.316348 0.51285,5.104937 0.72639,0.530976 1.5807,-0.04047 1.94543,-0.672344 0.40756,-0.706089 0.41008,-1.363457 0.40567,-2.192593 -0.0236,-4.429409 0.016,-9.787275 0.016,-14.719999 0,-1.25834 -0.3651,-4.70229 0.74172,-5.246914 1.25457,-0.617329 3.23287,-0.193086 4.69828,-0.193086 h 2.88 7.68 c 1.20129,0 3.39279,-0.384478 4.28666,0.328892 0.78076,0.6231 0.44404,1.724291 -0.22838,2.173823 -0.73517,0.491484 -1.53535,0.372173 -2.45828,0.377041 -3.64098,0.01919 -6.63029,-0.303262 -10.24,-0.319512 -1.21025,-0.0054 -3.61312,-0.454839 -4.52543,0.512842 -1.78023,1.888315 -0.59473,8.818354 -0.59457,11.326913 8e-5,1.082881 -0.27969,2.574864 0.51285,3.320738 0.99049,0.932172 2.0368,-0.29148 2.24098,-1.402217 0.54697,-2.975547 -0.13688,-6.505395 0.14494,-9.592099 0.21154,-2.31688 7.45291,-2.412251 9.47951,-1.413335 1.0649,0.524887 0.71078,1.834448 0,2.309629 -1.95535,1.307211 -4.55178,-0.777598 -6.42519,0.706176 -0.80077,0.634209 -0.92616,3.799492 -2.4e-4,4.448145 0.46373,0.324863 1.13332,0.154843 1.53578,-0.215801 0.55078,-0.507236 0.52373,-1.454253 1.25285,-1.80815 1.99153,-0.966645 4.30414,-0.218002 4.37852,2.046914"
       id="path1" />
  </g>
</svg>
