<svg viewBox="0 0 252.32 52.43" xmlns="http://www.w3.org/2000/svg"><path d="M.36 50.87H29.8c2.67 0 8.15 1.27 9.6-.74.73-1 .68-2.5.63-3.74-.04-.94-.2-1.54-.14-2.56.36-5.84.15-13.62.15-20.16 0-1.36.05-3.17 0-4.48-.04-.88-.09-1.58-1-1.8-2-.51-1.88 1.61-1.88 2.76 0 3.14.06 8.4 0 11.52-.02 1.14-.09 2.3-1.59 2.18-1.93-.16-1.29-2.63-1.29-4.42v-4.8c0-1.78.8-7.26-1.28-7.26-1.12 0-1.27 1.38-1.28 2.46-.02 2.8.03 6.21 0 8.96-.01 1.2-.11 1.77-.27 2.88-.17 1.21-.42 2.23-1.64 2.1-1.59-.18-1.29-1.96-1.29-3.38 0-3.45.32-7.16.05-10.56-.09-1.16.12-2.2-1.05-2.44-1.7-.34-1.56 2.45-1.56 3.72v9.92c0 1.16-.02 2.79-1.59 2.79-1.74 0-1.29-2.6-1.29-3.75v-9.6c0-1.14.17-3.02-1.29-3.13-1.05-.08-1.47.45-1.57 1.54-.33 3.67-.02 7.8-.02 11.51 0 1.42.3 3.2-1.29 3.37-1.46.16-1.58-1.66-1.59-3.05V20.15c0-1.4.21-2.78-1.28-2.78-1.54 0-1.28 2.86-1.28 4.06 0 2.34.03 5.07 0 7.36-.02 1.63.91 4.17-1.3 4.91-1.63.55-1.58-2.4-1.58-3.63v-9.92c0-1.1.19-2.7-1.29-2.81-1.7-.13-1.59 1.6-1.59 2.81v10.24c0 1.23-.01 4.25-2.14 3.32-1.02-.44-.74-2.1-.74-3v-9.6c0-1.37.16-3.9-1.59-3.77-.88.07-1.18.54-1.27 1.54-.28 3.08-.02 7.83-.02 10.87 0 1.1.54 3.8-1.28 4.01C-.1 34 .68 28.17.68 26.87V7.35c0-1.4-.66-5.45.52-6.39C2.19.17 4.59.63 5.8.63h11.84c15.38 0 30.72.32 46.08.32h13.12c1.28 0 3.9-.48 4.93.33 1.22.97.51 5.24.51 6.71 0 4.65.06 10.16 0 14.72-.02 1.4-.24 2.07-.3 3.52-.08 1.72.58 6.44-.53 7.49-1.41 1.34-2.05-1.13-2.05-2.69V20.47c0-1.27.02-3.25-1.87-2.77-1.3.33-1 2.07-1 3.1v9.6c0 1.2.24 3.88-1.6 3.68-1.44-.15-1.28-1.67-1.29-2.73-.02-3.24 0-6.66 0-9.92 0-1.14.45-3.74-1.28-3.74-1.8 0-1.28 2.9-1.28 4.06 0 3.15.02 6.47 0 9.6 0 1.28.05 3.07-1.87 2.75-1.39-.24-1-2.66-1-3.7v-9.93c0-1.21.12-2.95-1.6-2.81-1.57.12-1.29 2-1.29 3.13v9.6c0 1.2.25 3.9-1.58 3.7-1.54-.17-1.3-1.94-1.3-3.06v-9.92c0-1.43.38-3.75-1.56-3.62-1.22.09-1 2.63-1 3.94 0 1.84.04 3.67 0 5.44-.03 1.29-.28 2.12-.31 3.52-.04 1.52.4 3.93-1.57 3.7-1.43-.18-1-3-1-4.02 0-3.3.03-6.62 0-9.92 0-1.25-.03-2.56-1.58-2.63-1.6-.06-1.3 1.8-1.3 2.95v10.56c0 1.27.22 2.75-1.29 2.89-1.9.18-1.59-2.03-1.59-3.53 0-3.46.03-7.12 0-10.56 0-1.17.16-2.16-1-2.45-1.78-.45-1.87 1.33-1.88 2.77v10.88c0 1.24.26 2.22-.74 2.69-1.6.75-2.11-.9-2.14-2.05-.04-2.28 0-6.03 0-8.32v-3.2c0-1.09-.85-4.5-2.55-2.36-.74.94-.33 3.15-.33 4.28v22.72c0 1.45-.41 4.64.52 5.57.85.85 2.43.51 3.64.51h50.88c6.42 0 12.8.32 19.2.32 1.66 0 5.63.7 6.85-.51 1.32-1.33.51-6 .51-7.8v-7.37c0-3.2-.18-7.33.05-10.56.13-1.8-.03-3.62.03-5.44.03-1.06-.36-2.05-1.63-1.8-1.51.3-1 2.83-1 4.04v9.92c-.02 1.18.15 2.16-1.01 2.46-1.62.4-1.85-.98-1.88-2.14-.06-3.52.55-9.62-.04-13.1-.2-1.18-1.51-1.64-2.31-.97-.82.7-.2 2.71-.22 3.83-.05 2.93-.3 5.98-.3 8.96 0 1.18.37 3.33-1.3 3.46-2.1.16-1.62-2.77-1.58-4.1.04-1.56.27-2.14.3-3.52.04-1.31.01-3.1.01-4.48 0-1.45.57-4.98-1.87-4.37-1.3.33-1 2.07-1 3.1v9.6c0 1.29.32 3.74-1.6 3.74-1.74 0-1.29-2.6-1.29-3.75v-9.92c0-1.28.06-2.94-1.58-2.81-.77.06-1.11.43-1.25 1.23-.14.83-.05 1.36-.05 2.22v8.96c0 1.33.37 4.49-1.87 4.04-1.31-.26-1-2.1-1-3.08v-9.6c0-1.14.44-3.74-1.29-3.74s-1.28 2.62-1.28 3.74c0 3.22-.4 5.32-.31 8.64.03 1.38.65 4.27-1.56 4.01-1.44-.16-1-2.97-1-4v-9.93c-.02-1.25.12-2.63-1.6-2.5-1.61.14-1.29 2.53-1.29 3.78 0 3.3.03 6.62 0 9.92 0 1.16-.02 2.79-1.58 2.79-1.75 0-1.3-2.6-1.3-3.75v-9.92c0-1.2.11-2.94-1.58-2.81-1.5.12-1.3 1.7-1.3 2.81v9.92c0 1.15.36 3.5-1.28 3.7-2.07.23-1.28-5.89-1.28-7.22V8.31c0-1.64-.72-5.52.33-6.84C86.3.45 89.11.95 90.3.95h59.51c4.14 0 8.37-.25 12.48.23 1.12.13 3.07-.3 3.97.42 1.28 1.02.51 5.79.51 7.35v17.28c0 2.25.65 5.43-.19 7.29-.89 1.97-2.66.05-2.69-1.53-.06-3.52.54-9.32-.04-12.78-.22-1.28-1.77-1.71-2.5-.78-1.18 1.47-.34 3.83-.34 5.24v7.36c0 .77.12 1.44-.1 2.22-.2.74-.7 1.24-1.48 1.15-2.27-.24-1.3-8.02-1.3-9.77 0-1.07-.03-1.77.02-2.88.05-1.23.86-3.94-1.28-3.77-1.56.12-1.3 2-1.3 3.13v9.92c0 1.25.3 3.5-1.58 3.35-1.65-.13-1.3-2.49-1.3-3.67v-9.92c0-1.1.19-2.7-1.29-2.81-1.7-.13-1.58 1.6-1.59 2.81v10.24c0 1.25.3 3.5-1.58 3.35-1.46-.12-1.3-1.97-1.3-3.03v-9.6c0-1.14.45-3.74-1.28-3.74-1.8 0-1.25 2.94-1.28 4.06-.03 1.24-.24 1.84-.3 3.2-.11 2.52.03 4.21-.02 6.72-.02.9.01 2.29-1.28 2.32-1.65.05-1.28-2.5-1.28-3.6v-9.92c0-1.1.19-2.7-1.29-2.81-1.82-.14-1.59 1.89-1.59 3.13v10.24c0 1.28.2 2.72-1.29 2.9-1.86.22-1.59-1.88-1.59-3.22 0-3.57.03-7.31 0-10.88 0-1.24.1-2.46-1.29-2.46-1.77 0-1.59 2.46-1.59 3.74v9.6c0 1.13.3 2.82-1 3.21-1.41.43-1.85-1.06-1.88-2.25-.04-2.3 0-6.02 0-8.32 0-1.5.07-2.2 0-3.84-.07-1.47-1.59-2.85-2.38-1.49a4 4 0 0 0-.39 2.13c0 1.46.21 3.35.21 5.12v2.88c0 1.33.03 2.45 0 3.84-.02.84-.15 1.4-.17 2.24-.02.95.15 1.7.17 2.56.03 1.52-.18 3.55-.29 5.12-.12 1.84-.85 7.12.49 8.45 1 1 3.6.51 4.92.51h13.12c14.87 0 30-.71 44.8.14 4.18.24 8.32-.1 12.48.12 1.32.07 4.15.6 5.25-.27 1.44-1.12.83-5.1.83-6.7v-19.2c0-1.63.92-7.18-1.58-6.98-1.58.12-1.3 2-1.3 3.13v10.24c0 1.48.16 2.95-1.58 2.82-1.53-.12-1.3-2-1.3-3.14V21.11c0-1.42-.03-3.05-1.57-2.76-1.02.2-1.23 1.1-1.3 2.12-.2 3.22 0 6.68 0 9.92 0 1.16.51 4.07-1.3 4.07-1.92 0-1.59-2.47-1.59-3.75 0-3.41.03-6.82 0-10.24 0-1.3-.08-2.74-1.56-2.44-1.31.27-1 2.3-1 3.4 0 3.36.03 6.9 0 10.24 0 1.25.02 2.79-1.58 2.79-1.52 0-1.3-1.49-1.3-2.79 0-3.6.03-7.6 0-11.2 0-1.24.1-2.62-1.58-2.5-1.37.12-1.3 1.66-1.3 2.82v9.92c0 1.2.47 3.75-1.29 3.75-1.63 0-1.58-1.7-1.59-2.79v-9.6c0-1.6.64-4.06-1.28-4.06-1.54 0-1.28 2.86-1.28 4.06 0 3.15.02 6.47 0 9.6 0 1.26.13 2.71-1.58 2.76-1.7.05-1.3-2.86-1.3-4.04 0-3.25.03-6.68 0-9.92 0-1.1.16-2.38-1.29-2.5-1.64-.12-1.58 1.59-1.59 2.82v9.92c0 1.16.32 3.52-1.29 3.7-1.97.21-1.59-2.44-1.59-3.7V20.47c0-.67.1-1.76-.51-2.23-1.55-1.2-2.04 1.15-2.05 2.23-.02 3.46.14 8.54 0 11.84-.06 1.33-1.73 3.42-2.68 1.5-.89-1.79-.2-5.25-.2-7.26V8.95c0-1.54-.76-6.34.52-7.35.84-.66 2.63-.33 3.64-.33h9.6c12.29 0 24.53.32 36.8.32 8.07 0 17.3-.67 24.96.06.92.08 1.67.24 2.56.26 1.01.02 2.83-.34 3.51.52 1.2 1.5.16 5.37.04 7.16-.42 6.13-.03 12.42-.03 18.56 0 1.63.9 6.95-1.58 6.95-1.75 0-1.3-2.6-1.3-3.75v-9.6c0-1.15.25-3.01-1.29-3.13-1.99-.16-1.59 2.08-1.59 3.45v9.6c0 1.06.25 2.88-1 3.31-1.9.65-1.87-1.56-1.88-2.99V21.43c0-1.4.21-2.78-1.28-2.78-1.53 0-1.28 2.87-1.28 4.06 0 1.6-.13 2.14-.26 3.52-.17 1.7-.05 4.29-.06 6.08 0 1.32-.22 2.88-1.58 2.73-1.73-.19-1.35-2.41-1.28-4 .05-1.37.27-1.97.3-3.2.04-1.67 0-4.03 0-5.77 0-1.66.55-3.63-1.29-3.77-1.57-.12-1.58 1.22-1.59 2.5-.02 3.4.06 8.15 0 11.51-.02 1.06-.2 2.86-1.87 2.48-1.05-.24-.99-1.2-1-2.16-.06-2.7 0-7.2 0-9.92 0-1.07.51-3.99-1.01-4.37-2.08-.52-1.88 2.12-1.88 3.41v9.28c0 1.54-.53 4.5-2.14 3.5-1.44-.88-.86-8.02-.68-9.9.09-.95.23-1.52.26-2.56.03-1.32.54-3.74-1.58-3.74-1.67 0-1.3 2.85-1.3 4.06 0 2.38.05 5.73 0 8-.03 1-.1 1.57-.28 2.56-.2 1.04-.56 1.9-1.6 1.77-1.33-.15-1-2.7-1-3.69v-9.6c0-1.15.25-3.01-1.29-3.13-1.8-.14-1.58 1.55-1.59 2.81v9.92c0 1.21.17 3.89-1.58 3.7-1.8-.2-1.3-2.43-1.3-3.7v-3.2c0-2.12 1.2-9.5-1.27-9.5-1.5 0-1.27 2.7-1.3 3.74-.03 1.38-.26 1.96-.3 3.52-.05 2 0 5.15 0 7.04v11.52c0 1.49-.68 6.1.5 7.03 1.83 1.45 8.04.33 10.37.33h18.24c3.22 0 6.78-.43 9.92.32" fill="none" stroke="#050505"/></svg>