<svg viewBox="0 0 284.648 49.43" xmlns="http://www.w3.org/2000/svg"><path d="M20.328 48.584h32.64c2.047 0 9.512 1.04 10.138-1.299.232-.866.11-2.543-1.15-2.392-1.118.134-1.37 1.526-2.594 1.724-2.75.445-6.138.047-8.954.047h-18.24c-2.295 0-9.268 1.248-9.268-1.92 0-.64.09-1.714.948-1.716.86-.002 1.014 1.2 1.7 1.523 1.102.52 2.85.193 4.06.193h21.12c2 0 7.899.994 8.271-1.606.101-.704-.032-2.45-1.15-2.259-1.05.179-1.005 1.683-2.327 1.898-6.417 1.042-14.534.047-21.114.047-1.974 0-7.238.926-7.632-1.606-.13-.83-.13-2.27.94-2.405 1.23-.154 1.686 1.7 3.173 1.765 5.657.25 11.596.006 17.279.006 2.031 0 6.708 1.007 6.708-1.92 0-.633-.083-1.714-.95-1.717-1.08-.003-1.579 1.583-2.88 1.698-4.601.408-9.744.019-14.398.019-1.382 0-5.174.635-5.658-1.007-.221-.75-.273-2.626.858-2.63 1.052-.003 1.291 1.582 2.566 1.698 3.677.334 7.794.019 11.514.019 2.079 0 5.944.414 5.018-2.836-.214-.751-.943-1.192-1.633-.707-.56.393-.582 1.117-1.245 1.43-2.158 1.02-6.46.193-8.86.193-1.076 0-3.402.408-3.967-.742-.314-.639-.502-3.335.767-3.123.897.15.921 1.38 1.7 1.752 1.658.791 8.57.762 9.078-1.106.212-.777.227-3.009-1.101-2.62-1.243.363-5.261 3.669-6.604.937-.38-.771-.336-3.264 1.006-2.858.815.247.734 1.48 1.71 1.477 1.347-.004 1.534-2.288.922-3.178-.903-1.314-4.02-.779-5.431-.779-3.854 0-7.683.32-11.52.32-1.285 0-3.257.348-4.378-.366-1.247-.794-.778-4.734.987-3.46.563.407.634 1.312.831 1.906 1.2-.605 2.52-2.696 1.087-3.831-.86-.682-3.82-.598-4.831-.136-.646.294-1.264 1.868-2.15 1.35-1.49-.87-.268-3.32 1.1-3.444 2.018-.184 5.388-.478 7.307.083.898.262 1.04 1.617 1.995 1.615 1.34-.004 1.584-2.29.923-3.124-.627-.792-2.289-.513-3.191-.513-3.053 0-6.234-.258-9.274.019-1.06.096-2.596 2.648-3.333 1.158-1.7-3.438 2.53-3.417 4.607-3.417 3.433 0 9.27-1.135 12.434.193.907.38 1.451 1.487 2.286 2.047.514-.964 1.203-2.978.127-3.831s-3.913-.329-5.247-.329c-4.679 0-9.406-.087-14.08.002-1.346.025-2.505 1.788-3.438 1.623-.86-.151-1.056-1.861-.912-2.538.379-1.771 5.214-1.007 6.59-1.007 5.756 0 11.524-.107 17.28.002 1.388.026 2.542 1.78 3.507 1.623 1.033-.167 1.098-1.787.78-2.539-.817-1.928-5.464-1.006-7.167-1.006h-19.2c-1.963 0-5.564 2.423-5.741.314-.324-3.85 5.643-2.554 8.301-2.554 7.573 0 15.147-.015 22.72 0 .78.002 1.77-.114 2.46.329.596.382.835 1.764 1.7 1.616 1.09-.185 1.1-2.035.858-2.857-.555-1.887-7.436-1.008-9.178-1.008H7.848c-1.278 0-2.889-.251-4.114.102C2.497 3.282.5 6.163.5 2.824.5.511 2.597.904 4.328.904h78.4c1.626 0 4.301-.597 4.46 1.606.049.682.01 2.028-.94 2.03-.94.003-1.059-1.349-1.967-1.614-1.58-.462-3.731-.102-5.393-.102h-26.24c-2.867 0-10.282-1.455-9.553 2.861.08.471.29 1.108.913 1.004.895-.149.927-1.383 1.7-1.752 1.227-.585 3.352-.11 4.7-.169 7.968-.35 16.023-.024 24-.024 2.21 0 8.349-1.139 8.628 1.925.056.617.098 2.099-.908 1.94-1.084-.17-1.321-1.49-2.606-1.606-7.704-.697-16.797-.019-24.634-.019-2.428 0-8.58-1.301-7.952 2.541.3 1.84 3.977-.62 5.712-.62h19.52c1.84 0 6.896-.972 7.015 1.605.032.685-.17 2.103-1.174 1.94-.879-.144-.98-1.402-2.02-1.578-5.516-.935-12.845-.048-18.541-.048-2.5 0-6.677-.97-6.381 2.554.045.532.186 1.437.941 1.311 1.076-.179 1.045-1.691 2.259-1.897 4.415-.75 10.44-.048 15.021-.048 1.389 0 5.172-.643 5.658 1.008.242.82.234 2.669-.858 2.857-.868.15-1.458-1.505-2.566-1.606-3.628-.33-7.828-.019-11.514-.019-1.298 0-4.539-.62-5.018 1.008-.209.706-.252 2.324.634 2.592 1.188.358 1.646-1.437 2.803-1.632 2.658-.449 5.902-.048 8.621-.048 1.198 0 3.633-.464 4.058 1.008.224.773.148 2.364-.858 2.537-.845.146-1.181-1.294-1.967-1.523-2.096-.612-11.077-1.123-9.04 2.995.235.475.749.695 1.226.397 1.7-1.061 1.675-1.59 4.021-1.574.653.005 3.227.118 2.028 1.413-.809.874-2.53.062-3.115 1.249-.33.672-.482 2.944.53 3.123.975.173 2.058-1.825 3.437-1.9 5.583-.305 12.005-.38 17.6.04 1.404.106 3.006-2.262 3.968-1.429 3.389 2.935-3.796 3.574-3.408 4.781.923 2.866 5.622-.683 6.557-.957 1.322-.386 1.341 1.83 1.01 2.593-.72 1.656-7.075 1.386-8.72.905-.87-.254-1.045-1.617-1.967-1.614-1.263.003-1.139 2.459-.767 3.214.566 1.15 2.891.742 3.967.742 2.418 0 6.38.747 8.594-.193.813-.345.991-1.296 1.735-1.7.669-.362 1.215.005 1.41.66.299 1.011.141 2.503-.906 2.96-1.312.573-3.333.193-4.753.193-3.514 0-7.4.297-10.874-.019-1.315-.12-1.507-1.773-2.566-1.79-.866-.014-.948 1.187-.948 1.808 0 2.792 3.773 1.921 5.748 1.921 4.654 0 9.797.39 14.399-.019 1.3-.115 1.8-1.7 2.88-1.697 1.14.003 1.088 1.891.768 2.629-.741 1.706-4.953 1.007-6.527 1.007-5.685 0-11.62.24-17.28-.006-1.5-.065-2.012-1.714-3.199-1.71-1.057.003-1.033 1.604-.913 2.338.35 2.151 5.602 1.298 7.312 1.298h19.2c1.937 0 5.567-2.732 5.74-.314.272 3.802-5.741 2.554-8.3 2.554h-16.64c-2.51 0-5.532.369-7.981-.047-1.28-.218-1.139-1.711-2.259-1.898-.982-.163-.967 1.346-.952 1.944.078 3.128 6.625 1.921 8.952 1.921h23.68c1.352 0 3.178.334 4.434-.193 1.27-.532 3.173-2.901 3.106.507-.053 2.646-7.813 1.606-9.78 1.606h-26.56c-1.556 0-3.572.337-5.073-.101-.881-.258-1.053-1.618-1.967-1.615-.741.002-.898.824-.94 1.402-.2 2.78 2.442 2.234 4.46 2.234h77.12c1.257 0 3.65.444 4.607-.513.631-.631.903-3.12-.448-3.123-1.146-.003-1.731 1.646-3.2 1.71-8.91.388-18.249.006-27.199.006-2.267 0-8.948 1.227-8.948-1.92 0-.64.09-1.714.948-1.716.86-.002 1.014 1.2 1.7 1.523 1.102.52 2.85.193 4.06.193h21.44c2.374 0 7.988 1.176 7.988-2.239 0-.669-.176-1.993-1.187-1.68-.946.293-.918 1.596-2.02 1.897-2.083.57-4.866.102-7.021.102-4.807 0-9.606.038-14.4-.2-1.84-.091-6.924 1.303-7.578-1.099-.234-.858-.259-2.568.887-2.712 1.215-.153 1.693 1.7 3.172 1.765 5.662.25 11.593.006 17.279.006 1.908 0 7.06.977 6.986-1.92-.019-.75-.471-1.969-1.46-1.68-.797.233-.86 1.323-1.733 1.578-4.364 1.275-10.756.102-15.313.102-1.76 0-5.566.805-5.74-1.606-.05-.692-.025-2.028.941-2.03 1.008-.004 1.455 1.489 2.565 1.669 3.515.568 7.91.047 11.514.047 1.98 0 5.225.617 5.095-2.235-.026-.567-.196-1.478-.936-1.494-.981-.022-1.444 1.58-2.565 1.762-2.558.414-5.695.047-8.314.047-1.076 0-3.401.408-3.967-.742-.372-.755-.497-3.21.767-3.215.906-.002 1.111 1.365 1.967 1.615 1.795.524 8.595.806 9.131-1.197.246-.92.002-2.847-1.409-2.33-1.234.453-5.252 3.743-6.616.967-.451-.918-.258-3.482 1.313-2.886.668.253.737 1.296 1.455 1.413 1.34.219 1.447-2.303.87-3.032-.838-1.06-4.173-.513-5.431-.513-2.825 0-5.853-.423-8.64-.216-1.91.142-5.172.892-6.938.023-.891-.439-1.287-3.319-.02-3.727 1.04-.334 1.095 1.25 1.92 1.385 1.437.235 1.469-2.595.685-3.216-2.36-1.87-7.287 2.483-7.467-.015-.228-3.175 6.683-2.77 8.894-2.132.856.246 1.12 1.398 1.993 1.523.782.112 1.114-.689 1.204-1.311.111-.77.015-1.68-.693-2.116-1.962-1.21-5.092-.04-7.258-.13-1.547-.066-3.253-.6-4.782-.162-1.013.29-1.3 1.654-2.285 1.8-1.46.215-1.543-2.572-.924-3.353.757-.956 3.344-.513 4.471-.513 3.788 0 8.107-.32 11.834.019 1.292.117 1.32 1.442 2.327 1.606.734.12 1.065-.717 1.15-1.311.45-3.13-3.695-2.234-5.711-2.234-4.752 0-9.663-.203-14.399.006-1.248.055-2.173 1.789-3.118 1.62-.85-.153-.778-1.62-.675-2.247.346-2.12 4.745-1.3 6.352-1.3h16.64c1.672.002 4.54 2.411 5.018.622.98-3.663-5.366-2.541-7.578-2.541-6.772 0-14.083-.29-20.799.006-1.482.066-1.716 1.714-2.865 1.71-1.21-.003-1.105-2.171-.874-2.949.566-1.91 7.154-1.007 8.858-1.007h21.44c.943 0 2.267-.206 3.1.329 1.394.895 1.01 2.165 2.98 1.27-.313-1.058.02-2.794-1.062-3.326-2.064-1.016-6.23-.193-8.538-.193h-21.12c-2.01 0-4.757-.45-6.674.102-.824.237-1.292 1.687-2.203 1.523-.912-.163-.814-1.882-.621-2.538C89.985.434 92.416.904 93.608.904h77.76c1.626 0 4.301-.597 4.46 1.606.049.682.01 2.028-.94 2.03-.94.003-1.059-1.349-1.967-1.614-1.58-.462-3.731-.102-5.393-.102h-26.24c-2.783 0-9.916-1.433-9.581 2.554.044.527.183 1.438.941 1.311.894-.149.928-1.383 1.7-1.752 1.232-.588 3.36-.193 4.7-.193h24c2.063 0 8.745-1.11 8.94 1.606.052.724-.05 2.443-1.179 2.26-1.089-.178-1.47-1.591-2.961-1.76-7.499-.847-16.068.134-23.68.134-2.11 0-8.756-1.168-8.615 1.92.031.69.308 1.757 1.228 1.625.981-.14 1.217-1.398 2.286-1.578 6.515-1.098 14.743-.047 21.421-.047 1.697 0 6.983-.885 7.311 1.299.11.726-.04 2.428-1.15 2.246-.879-.143-.98-1.401-2.02-1.578-5.422-.919-12.621-.047-18.221-.047-1.638 0-6.322-.85-6.672 1.299-.115.703-.139 2.334.912 2.337 1.285.004.816-1.424 2.259-1.669 1.356-.23 3.31-.047 4.781-.047h10.24c2.007 0 6.068-.923 6.068 1.921 0 .739-.185 2.102-1.24 1.944-1.015-.151-1.235-1.557-2.287-1.843-3.323-.905-8.05-.142-11.501-.1-1.177.013-4.374-.184-4.927 1.018-.305.664-.456 2.668.53 2.845.938.168 1.516-1.412 2.496-1.578 3.018-.509 6.813-.053 9.901-.047 1.364.003 2.776-.11 2.855 1.606.031.678-.099 1.795-.935 1.94-.845.145-1.181-1.295-1.967-1.524-2.303-.673-10.28-1.145-9.131 2.73.158.533.553.926 1.15.768 1.941-.516 2.333-1.726 4.828-1.679.654.013 2.788.246 1.708 1.412-.94 1.016-2.777-.089-3.435 1.249-.338.686-.486 2.94.53 3.123.898.161 2.395-1.8 3.757-1.888 5.397-.346 10.912-.055 16.32-.057 1.37 0 4.811-2.058 5.247-1.177 1.83 3.698-4.235 3.034-3.727 4.614.923 2.866 5.622-.684 6.557-.957 1.264-.37 1.509 1.82 1.14 2.593-.488 1.022-1.78 1-2.817 1.007-1.787.012-4.338.393-6.033-.102-.87-.254-1.045-1.617-1.967-1.615-1.131.004-1.08 1.88-.858 2.63.427 1.451 2.86 1.007 4.058 1.007 2.62 0 5.756.366 8.314-.047 1.11-.18 1.56-1.673 2.565-1.67.74.003.91.827.936 1.403.113 2.455-2.04 2.116-3.815 2.325-3.843.454-8.997.797-12.794.182-1.143-.186-1.792-2.077-2.803-1.898-.947.167-.876 2.42-.53 3.123.656 1.333 4.284.742 5.567.742h10.56c1.432 0 3.427.37 4.754-.193.81-.344.963-1.325 1.735-1.645.859-.357 1.356.488 1.462 1.212.512 3.498-4.437 2.546-6.671 2.546-5.774 0-12.209.5-17.914-.019-1.411-.128-1.394-1.606-2.594-1.752-1.254-.153-1.349 1.509-1.204 2.392.357 2.189 5.338 1.299 6.992 1.299h19.52c1.57 0 5.292-2.18 5.658-.912 1.146 3.966-5.915 2.832-8.218 2.832-7.895 0-16.139.34-23.999-.006-1.452-.064-1.777-1.714-2.88-1.71-1.147.003-1.043 1.89-.914 2.657.377 2.24 7.047 1.3 8.913 1.3h24c1.429 0 3.47.411 4.7-.378.607-.39.747-1.405 1.461-1.623.578-.176.952.276 1.097.768 1.32 4.483-6.841 3.152-9.498 3.152-9.985 0-21.171.878-31.034-.019-1.405-.127-1.396-1.606-2.594-1.752-1.351-.164-1.412 1.795-1.15 2.684.441 1.498 3.14 1.007 4.378 1.007h66.24c3.97 0 7.888-.134 11.84-.307 1.519-.067 3.817.426 4.111-1.619.098-.679.05-2.028-.912-2.03-.855-.003-1.227 1.214-1.965 1.523-1.327.556-3.32.193-4.754.193-7.886 0-15.81.185-23.68.005-2.29-.052-8.948 1.305-8.948-1.925 0-.918.376-2.162 1.462-1.574.845.46.896 1.225 1.768 1.473 1.123.318 2.9.101 4.118.101h20.48c2.034 0 8.21 1.046 8.591-1.606.12-.831-.048-2.223-1.204-2.085-1.117.134-1.369 1.526-2.593 1.724-6.388 1.033-14.556.047-21.114.047-2.125 0-7.348 1.09-7.348-1.92 0-.698.19-1.972 1.191-1.68 1.033.302 1.129 1.44 2.323 1.633 5.346.865 12.404.047 17.914.047 1.575 0 5.785.695 6.527-1.007.34-.78.422-2.946-.768-2.95-1.126-.002-1.724 1.647-3.2 1.711-5.098.222-10.255.006-15.359.006-2.114 0-4.92.452-4.432-2.541.094-.576.432-1.276 1.15-1.059.713.216.8 1.176 1.462 1.487 1.03.485 2.611.193 3.74.193h9.28c1.098 0 2.792.32 3.734-.329.997-.687.48-2.144.746-3.19-1.968-.525-1.875 1.048-3.539 1.497-2.383.645-5.802.102-8.301.102-1.12 0-3.7.451-4.287-.742-.362-.736-.43-2.891.772-2.894.957-.003 1.354 1.36 2.27 1.614 1.773.493 8.286.81 8.823-1.197.203-.756.13-2.65-1.101-2.302-1.208.342-5.272 3.647-6.604.94-.388-.79-.404-3.605 1.006-3.179.704.214.705 1.265 1.442 1.386 1.358.221 1.42-2.337.87-3.033-.836-1.057-4.174-.513-5.431-.513-4.43 0-11.135 1.139-15.313-.102-1.147-.34-1.379-2.365-.68-3.219 1.51-1.842 1.587 2.41 3.321.87.86-.765.65-2.665-.23-3.252-.97-.647-3.219-.602-4.33-.275-.972.285-1.013 1.689-1.972 1.843-.86.139-1.136-.99-1.214-1.626-.398-3.241 6.905-2.799 9.17-2.137.787.23 1.123 1.669 1.968 1.523 1.006-.173 1.082-1.764.858-2.537-.425-1.472-2.86-1.008-4.058-1.008-2.719 0-5.963-.4-8.621.048-.98.165-1.558 1.746-2.496 1.577-.776-.139-.745-1.354-.703-1.939.168-2.33 3.422-1.606 5.1-1.606 3.667 0 8.265-.555 11.821.048 1.04.176 1.141 1.434 2.02 1.578 1.003.163 1.206-1.255 1.174-1.94-.128-2.782-4.256-1.615-6.055-1.606-4.65.022-9.445-.198-14.079.006-1.305.058-2.138 1.782-3.172 1.62-1.056-.167-1.071-1.769-.941-2.567.342-2.101 5.005-1.299 6.672-1.299 5.709 0 12.3-.492 17.914.019 1.28.116 1.563 1.838 2.566 1.835.873-.003.948-1.245.948-1.853 0-2.98-5.256-1.92-7.348-1.92-6.612 0-13.228-.014-19.84 0-1.454.002-3.217 1.779-4.077 1.624-.85-.152-.778-1.618-.675-2.246.37-2.265 6.482-1.299 8.272-1.299h21.12c1.228 0 2.942-.334 4.06.193.618.291.768 1.32 1.461 1.433.881.143 1.145-.99 1.174-1.626.143-3.15-7.056-1.92-9.255-1.92h-24.32c-1.214 0-2.949-.316-4.064.193-.674.307-1.063 1.588-1.933 1.432-.92-.165-.787-1.905-.676-2.566.315-1.872 3.035-1.299 4.433-1.299h78.08c1.075 0 3.404-.404 3.967.742.403.82.375 2.926-.767 3.123-.845.146-1.181-1.294-1.967-1.523-1.409-.412-3.273-.102-4.753-.102h-26.88c-2.524 0-11.084-1.438-9.818 2.832.158.534.553.927 1.15.768.809-.215.995-1.155 1.724-1.487 1.405-.642 3.805-.193 5.344-.193h24.64c1.87 0 7.215-1 7.335 1.606.032.685-.17 2.103-1.174 1.94-.879-.144-.98-1.402-2.02-1.578-2.528-.43-5.698-.048-8.301-.048h-16.64c-2.35 0-9.132-1.298-7.898 2.831.155.521.55.889 1.101.634 2.26-1.043 2.957-1.545 5.837-1.545h19.52c1.994 0 5.57-.766 5.74 1.606.05.71-.053 2.444-1.179 2.26-1.1-.18-1.21-1.704-2.642-1.87-5.6-.646-12.218.244-17.919.244-2.469 0-7.488-1.126-6.298 2.831.391 1.303 3.313-.908 4.698-.91 4.906-.011 9.814 0 14.72 0 1.583 0 4.353-.603 4.455 1.605.032.685-.17 2.103-1.174 1.94-1.107-.181-1.156-1.554-2.642-1.62-4.158-.183-11.335-1.085-15.312.096-1.105.328-1.282 2.049-.814 2.995.73 1.478 2.326-1.067 3.333-1.158 3.037-.276 6.514-.02 9.594-.019 1.062 0 2.725-.285 3.098 1.008.227.787.132 2.377-.887 2.537-.993.156-1.374-1.269-2.257-1.523-2.295-.661-10.936-1.012-8.721 3.31.269.525.787.57 1.239.218 1.47-1.145 3.652-2.896 5.82-1.381 2.295 1.603-2.7 1.942-3.083 2.424-.528.667-.57 2.792.407 3.087 1.194.36 1.81-1.543 3.11-1.661 4.73-.43 9.938-.019 14.714-.019 1.295 0 4.216-.568 5.228.328 1.057.935-1.47 1.779-1.147 2.789.42 1.317 3.892.08 3.359 1.975-.435 1.544-4.383 1.295-5.346.477-.464-.395-.729-1.345-1.453-1.343-1.233.004-1.149 2.608-.632 3.261.636.803 2.277.513 3.191.513 3.106 0 5.706.444 7.36-2.24 1.54 1.05 1.901 3.916-.641 4.141-2.062.183-4.317.02-6.399.02-1.457 0-3.366.303-4.753-.103-.99-.289-1.103-1.814-2.258-1.669-1.677.211-1.203 3.386.31 3.644 4.419.753 10.582.422 15.02.028 1.34-.118 1.988-1.9 3.172-1.752 1.12.14 1.16 1.848.796 2.684-.716 1.648-4.388 1.007-5.887 1.007-4.747 0-10.023.408-14.714-.019-1.275-.116-1.514-1.7-2.566-1.697-1.073.003-1.027 1.612-.912 2.35.348 2.239 4.715 1.63 6.672 1.54 5.68-.259 12.344.234 17.914-.273 1.284-.116 1.507-1.7 2.566-1.697 1.06.003 1.026 1.62.912 2.35-.399 2.562-5.669 1.606-7.632 1.606-6.712 0-14.16.577-20.795-.019-1.314-.118-1.785-1.7-2.88-1.697-.974.003-1.013 1.356-.916 2.03.193 1.344 1.002 1.548 2.191 1.6 1.737.076 3.682.006 5.44.006h22.08c1.093 0 2.459.233 3.474-.193.903-.378 2.801-3.065 3.197-.428.583 3.884-7.09 2.54-9.551 2.54h-23.36c-1.37 0-3.456.394-4.7-.192-.693-.327-.97-1.798-1.937-1.487-1.405.452-.826 3.488.284 3.818 3.76 1.116 9.722-.218 13.713-.218h27.2" fill="none" stroke="#3f321e"/></svg>