<svg xmlns="http://www.w3.org/2000/svg" viewBox="0 0 327.68 200.96"><path d="M.137 200h16.96c1.836 0 4.332.091 6.08-.029.999-.068 4.894-.485 3.19-2.658-.798-1.02-2.464-.513-3.83-.513H7.177c-1.73 0-3.66.318-5.073-.102-.66-.196-.877-.585-.954-1.195-.226-1.804 1.36-1.902 3.147-1.903h2.88c2.886 0 6.637.005 9.6 0 1.389-.002 4.4-.238 3.325-2.454-.557-1.148-4.655-.746-5.885-.746-3.395 0-8.95.837-12.113-.102-1.354-.402-.973-1.596-1.327-2.778 3.847-1.137 8.312.707 12.112-.422 1.203-.357 1.253-2.11.266-2.77-.75-.5-1.92-.327-2.778-.328h-4.48c-1.162 0-2.614.249-3.793-.1-1.388-.413-1.022-1.516-1.327-2.78 1.827-.54 4.307.31 5.978-.512 1.15-.567.753-2.37-.266-2.814-1.389-.607-4.724.68-5.52-.935-.713-1.45-.525-6.033-.09-7.547.255-.89 1.133-1.29 2.09-.989 2.056.65.34 3.842 1.337 5.336 1.225 1.836 4.478-.341 5.742 1.255 1.122 1.417-.651 4.376.842 5.558 1.417 1.122 4.376-.65 5.558.842 1.024 1.294-.155 4.536 1.16 5.558 1.136.883 4.644-.314 5.56.842 1.512 1.91-1.019 4.084.842 5.558 1.422 1.126 3.95-.47 5.374.658 1.916 1.518-1.002 5.197 1.812 5.97 1.73.475 3.16.1 4.78.1 1.767 0 4.145.009 6.08 0 1.8-.007 3.08-.27 4.8-.31 1.244-.03 4.258.61 5.112-.514 1.95-2.572-2.338-2.377-3.511-2.375-4.101.006-7.534 0-11.52 0-1.582 0-4.434.325-3.737-2.193.259-.934 1.004-.965 1.818-1 2.21-.098 4.372-.007 6.719-.007.984 0 1.88.12 2.861-.047.792-.135 1.155-.528 1.245-1.25.279-2.22-2.498-1.903-4.106-1.903h-11.2c-1.014 0-3.1.388-3.647-.742-.826-1.706.642-2.43 2.047-2.456 2.94-.056 6.402.438 9.261-.05 1.19-.202 1.736-1.668.97-2.639-.703-.89-2.804-.513-3.831-.513-3.616 0-7.28.077-10.88.008-1.534-.03-3.884.465-4.107-1.305-.1-.808.071-1.539.954-1.801 2.887-.857 6.857.025 9.871-.108 1.32-.058 2.311-.788 1.727-2.187-.567-1.357-3.007-1.007-4.285-1.007h-11.2c-1.264 0-3.053.432-3.412-1.006-.263-1.053.413-1.914 1.498-2.12 2.796-.533 6.103-.021 8.954-.075 1.245-.024 2.507-.38 2.132-1.873-.298-1.187-1.265-.971-2.132-1.016a37 37 0 0 0-3.2-.014c-2.284.1-5.744.024-8 .024h-2.24c-1.406 0-3.483.204-3.483-1.914 0-1.382.983-1.535 2.203-1.588 2.4-.105 4.954-.017 7.36-.018 1.27 0 3.012.288 3.134-1.297.156-2.03-2.676-1.85-4.094-1.894-3.941-.121-8.19 0-12.16-.009-1.34-.003-3.656-.172-2.977-2.193.507-1.508 3.628-1.007 4.897-1.007 3.905 0 7.949-.089 11.84.005 1.376.034 3.418-.292 4.698.46 1.766 1.035.24 4.558 1.575 5.607 1.055.83 4.713-.196 5.558 1.07 1.067 1.6-.74 4.077.842 5.33.866.686 4.189.02 5.145.658 2.362 1.576-.613 3.431 1.07 5.558.744.938 4.348.186 5.33.842 2.197 1.465-.43 3.662 1.07 5.558.816 1.03 4.153.045 5.267.842 2.059 1.47-.208 3.357 1.134 5.292.5.72 1.64.907 2.358.22 1.057-1.013.513-3.025.513-4.241 0-1.035.601-3.664-.513-4.422-1.22-.83-5.545.624-5.834-1.676-.37-2.944 3.7-1.517 5.34-2.004 1.089-.324 1.397-1.68.494-2.585-1.329-1.332-7.142-.512-9.087-.513-1.158 0-2.763.312-3.092-1.007-.345-1.379.842-2.098 2.132-2.18 2.947-.185 6.007.236 8.954-.032 1.255-.114 2.017-1.191 1.413-2.44-.593-1.224-3.183-.741-4.287-.741h-11.2c-1.287 0-3.021.422-3.417-1.007-.273-.987.031-1.948 1.196-2.146 4.411-.752 9.575-.047 14.06-.047 1.463 0 4.235.261 3.733-1.903-.423-1.824-3.54-1.297-5.012-1.297-5.003 0-11.078.295-15.68.027-1.667-.097-5.64.651-4.771-1.901.534-1.567 3.532-1.003 4.77-1.032 4.947-.116 9.501-.294 14.72-.294 1.636 0 6.201.794 6.015-1.588-.163-2.078-3.555-1.629-5.054-1.611s-2.414.28-3.84.314c-3.69.09-7.792.005-11.52.005-1.098 0-2.471.085-3.519-.035-1.067-.121-2.176-.706-1.813-2.159.458-1.834 3.88-.967 5.652-1.01 1.423-.036 2.327-.33 3.84-.31 1.313.017 2.235.318 3.52.297 2.47-.04 4.643-.303 7.36-.303 1.524 0 4.886.77 5.332-1.006.166-.66-.018-1.377-.634-1.68-2.707-1.334-8.88-.194-12.058-.194h-3.2c-1.763 0-3.385-.003-3.147-1.903.216-1.718 2.136-1.297 3.467-1.297 3.836 0 7.684.006 11.52 0 1.29-.002 3.38.224 3.965-1.057.72-1.575-1.17-2.14-2.685-2.143-2.01-.004-4.756 0-6.72 0-1.275 0-3.804.214-3.363-1.903.488-2.339 7.367-1.297 9.123-1.297 1.038 0 2.407.4 3.327-.329 1.135-.9.559-2.456-.495-2.77-1.745-.517-5.709.944-5.339-2.004.221-1.759 2.469-1.274 3.787-1.298.83-.016 1.482.053 2.047-.512.728-.728.513-2.582.513-3.647 0-1.679.646-4.555-1.007-5.245-3.513-1.468-1.204 5.16-2.935 6.012-1.486.731-4.532-.705-5.65.706-1.121 1.417.652 4.376-.841 5.558-1.52 1.204-4.31-.733-5.558.842-1.05 1.324.49 4.503-.842 5.558-.992.786-4.57-.405-5.558.842-1.122 1.417.65 4.376-.842 5.558-1.068.846-4.466-.162-5.283.842-.532.655-.29 1.437-.285 2.367.006 1.335.315 2.706-1.007 3.098-1.51.449-4.1.102-5.712.14-3.468.078-7.072-.044-10.56-.038-1.681.003-4.046 1.103-5.111-.459-1.245-1.824.892-2.411 2.23-2.42 4.179-.03 8.574 0 12.8 0 1.394-.001 3.655.354 4.053-1.314.357-1.496-.81-1.86-2.132-1.885-1.992-.038-11.232 1.196-10.585-1.905.374-1.796 3.054-1.298 4.505-1.298h10.24c1.006 0 3.118.39 3.831-.513 1.284-1.627-.54-2.66-1.911-2.686-2.057-.038-11.425 1.301-10.457-2.194.45-1.628 3.74-1.007 5.017-1.007h9.28c1.173 0 3.045.273 4.112-.193 1.334-.583 1.49-2.463 0-2.905-1.59-.472-4.322-.102-6.032-.102-1.997 0-4.156.249-6.08-.32.385-1.287.031-2.562 1.619-2.833 4.56-.777 9.718-.047 14.06-.047 1.07 0 2.78.422 3.512-.513 1.02-1.305-.325-2.556-1.593-2.668-2.833-.252-5.57.106-8.318-.006-1.456-.06-3.357-.11-2.777-2.205.44-1.587 3.456-1.008 4.697-1.008h9.6c1.293 0 3.191.391 4.378-.193.974-.48.979-2.332 0-2.814-1.569-.772-4.571-.193-6.298-.193-1.997 0-4.156.249-6.08-.32.143-.836.004-2.024.754-2.55.92-.648 2.648-.33 3.726-.33h9.6c1.312 0 4.876.658 5.337-1.007.46-1.664-.749-2.174-2.137-2.19-3.269-.039-6.656-.078-9.92.002-1.137.028-2.112.3-3.2.274-1.896-.047-4.31-.967-6.353-.041-2.203.998.305 4.596-1.441 5.833-1.46 1.034-4.472-.629-5.637.842-1.122 1.417.65 4.376-.842 5.558-1.417 1.122-4.376-.65-5.558.842-1.122 1.417.65 4.376-.842 5.558-1.363 1.08-4.047-.384-5.33.88-1.5 1.476.536 3.993-.755 5.336-1.318 1.37-3.303.046-5.194.615-.446.134-.722.343-.823.906-.21 1.161.181 2.064.108 3.15-.091 1.358-2.367 3.112-3.3 1.184-.95-1.962-.954-8.308 1.413-8.523 1.823-.166 4.594.676 4.858-1.619.288-2.517-4.694-.933-5.951-1.929-.832-.659-.581-2.28.229-2.678 1.776-.874 6.56-.192 8.858-.193.974 0 2.492.321 3.007-.742.496-1.026.022-2.218-1.106-2.41-3.012-.514-6.22.009-9.26-.05-1.384-.025-3.194-1.06-1.912-2.685 1.022-1.295 4.803-.513 6.07-.513h3.2c1.865 0 8.924.972 9.726-.742.333-.71.116-1.713-.547-2.075-.484-.265-.912-.14-1.498-.165-.99-.044-1.799-.234-2.88-.205-3.329.09-6.788-.013-10.24-.013-1.5 0-5.297.29-3.967-2.458.632-1.305 3.74-.742 4.927-.742h14.4c1.38 0 5.497.723 5.977-1.007.844-3.048-3.961-2.193-5.657-2.193-4.735 0-9.694-.087-14.4.05-1.05.031-1.852.214-2.88.235-1.35.026-2.729-.41-2.507-2.188.26-2.075 4.504-1.304 6.027-1.297 1.656.008 2.613.277 4.16.315 2.155.053 3.196-.218 5.12-.302 1.696-.075 3.255.191 4.8.15 1.386-.037 5.146.452 5.386-1.46.314-2.499-2.836-1.903-4.426-1.903H6.537c-1.323 0-5.245.637-5.652-1.007-.512-2.068 1.658-2.19 3.092-2.193h11.84c1.4 0 4.608.337 4.052-1.874-.422-1.68-2.857-1.006-4.372-1.006H4.617c-1.425 0-2.752.408-3.511-.742-1.12-1.698.68-2.433 1.911-2.457 2.008-.038 5.676.078 7.68-.014 1.23-.056 3.245-.296 2.772-2.181-.298-1.188-1.48-1-2.452-1.006-2.098-.014-7.957.7-9.498-.329-1.853-1.237-.212-2.804 1.18-2.865 1.731-.076 5.022.412 4.37-2.2-.493-1.974-4.184-.527-5.55-1.2-1.324-.65-1.24-7.852-.413-8.893.601-.757 2.053-.504 2.542.229.907 1.359-.527 4.245.842 5.329 1.457 1.154 4.714-.67 5.694 1.386.748 1.57-.498 4.317 1.25 5.15 1.875.893 3.79-.84 5.014.706.454.573.324 1.377.329 2.047.007 1.092-.536 2.68.513 3.511 1.696 1.343 3.656-.693 5.374.658 1.155.908.164 4.667 1.026 5.513 1.94 1.905 3.378-.694 5.374.887 1.31 1.037-.339 4.341 1.026 5.422.897.71 2.922.286 3.967.358.821.056 1.42.221 2.24.258 1.21.053 2.284-.252 3.52-.282 2.62-.065 5.522.214 8 .125 1.183-.043 3.348.383 4.15-.643 1.124-1.437-.702-2.743-2.55-2.674-1.085.04-1.825.248-2.88.294-2.992.131-6.846.014-9.92.013-1.522 0-4.034.053-3.59-1.906.38-1.677 2.112-1.294 3.59-1.294 2.745 0 4.212-.074 6.72-.293 1.146-.1 2.208-.092 2.44-1.32.38-2.02-3.012-1.587-4.36-1.587h-11.52c-1.122 0-2.743.388-3.326-1.007-.755-1.808.864-2.17 2.046-2.192 1.667-.031 4.66.037 6.4-.006 1.058-.025 5.54-.185 4.145-2.453-1.061-1.725-8.123-.742-9.905-.742h-4.16c-1.153 0-4.547.69-5.017-1.007-.59-2.13 1.317-2.19 2.777-2.193 2.043-.004 4.953.001 7.04 0 1.701 0 4.05-.477 2.778-2.458-.67-1.044-2.632-.742-3.738-.742h-10.88c-1.203 0-3.95.534-4.377-1.007-.574-2.071 1.315-2.19 2.777-2.193 1.925-.004 10.783 1.248 9.817-2.192-.343-1.22-1.762-.794-2.777-.885-4.112-.368-9.044.002-13.12.04-1.182.011-2.952.1-3.147-1.46-.287-2.3 1.997-1.81 3.467-1.753 1.768.068 9.242.79 9.242-1.75 0-2.693-7.071-1.6-8.922-1.6h-6.08c-1.663 0-5.224.138-3.967-2.458.783-1.617 4.536-.742 5.887-.742h12.48c.931 0 2.543-.292 3.327.329 1.594 1.262-.188 4.53 1.346 5.742 1.133.895 3.851-.295 5.054.658 1.571 1.245-.546 4.497 1.026 5.742 1.421 1.126 3.952-.468 5.374.658 1.266 1.003.058 4.155.842 5.33 1.527 2.288 4.153-.75 5.742 1.254 1.104 1.393.022 3.597.793 5.145.716 1.435 3.903.3 5.194.935.699.344.801 8.922 3.613 5.374.844-1.066.58-4.665.608-5.887.016-.719-.024-1.502-.418-2.138-.42-.679-1.031-.703-1.783-.736-1.72-.076-3.941.43-4.37-1.327-.566-2.32 2.184-1.843 3.732-1.884 1.335-.035 4.306-1.326 2.367-2.866-.61-.484-1.629-.328-2.367-.33-1.743-.003-4.016 0-5.76 0-1.331 0-3.964.463-4.372-1.296-.396-1.707 1.16-1.894 2.452-1.903 2.845-.02 5.815.232 8.638-.019 1.291-.114 2.399-1.11 1.543-2.44-.69-1.07-2.64-.741-3.781-.741-3.63 0-7.258.007-10.88.034-1.198.009-3.953.49-4.377-1.041-.571-2.063 1.293-2.19 2.777-2.193 1.842-.004 4.073.164 5.76.126 1.643-.038 3.056-.126 4.8-.126 1.189 0 2.111.016 3.2.062 1.275.055 3.36-.467 2.367-2.52-.637-1.314-3.714-.742-4.927-.742h-14.72c-1.347 0-5.186.692-5.657-1.007-.826-2.983 3.662-2.193 5.337-2.193h15.68c1.585 0 4.74.597 4.426-1.903-.274-2.183-4.826-1.172-6.346-1.116-2.045.074-4.258-.129-6.4-.077-2.744.066-5.032.216-8 .216-1.707 0-4.239.659-4.692-1.297-.748-3.223 5.169-1.94 6.612-1.908 1.696.039 2.614-.235 4.16-.302 3.552-.156 7.601-.013 11.2-.013 1.405 0 3.456.318 3.59-1.599.145-2.082-3.081-1.281-4.55-1.281h-10.56c-.988 0-3.123.384-3.831-.513-1.491-1.89.925-2.714 2.23-2.792 2.016-.12 3.662.078 5.44.022 2.393-.074 4.45-.237 7.04-.237 1.305 0 3.88.517 4.107-1.297.286-2.275-2.28-1.956-3.786-1.89-2.139.093-3.393.32-5.76.307-1.423-.007-3.281-.011-3.134-1.906.132-1.698 2.103-1.294 3.454-1.294 2.643 0 3.995-.122 6.4-.291.754-.054 2.003.157 2.55-.542.737-.94.083-2.14-.969-2.32-1.559-.265-5.715.675-4.993-2.24.353-1.427 2.62-1 3.732-1.007.771-.005 1.68.183 2.231-.513.752-.95.883-7.916-.184-8.758-3.435-2.711-2.265 5.305-3.429 5.878-1.401.69-4.294-.662-5.325.706-1.056 1.402.57 3.833-.662 5.374-1.192 1.49-4.138-.283-5.558.842-1.502 1.19.275 4.148-.842 5.558-.656.828-2.033.512-2.871.513-.8 0-1.995-.25-2.674.329-.701.596-.23 1.767-.231 2.551-.003.894-.018 1.96-.611 2.778-.734 1.011-2.124.74-3.204.742-1.171.002-2.003.06-2.88.32.215.728.338 1.437.315 2.56-.02.965.039 2.172-.816 2.925-1.164 1.027-2.673.595-4.3.595H5.897c-1.48 0-4.752.596-5.078-1.299-.4-2.319 1.483-2.216 3.479-2.14.823.032 1.385.205 2.24.222 1.226.023 1.99-.276 3.2-.278.698 0 1.246.133 1.92.15 1.47.035 6.978.633 7.99-.685 1.271-1.654-.74-2.346-1.91-2.369-2.41-.045-4.308-.212-6.4-.212-1.52-.001-4.817.32-3.875-2.567.39-1.198 3.483-.742 4.515-.742h9.92c1.143 0 3.07.35 4.053-.329.996-.687.436-1.983.107-2.871-2.607.62-7.474.45-10.559.314-1.246-.055-2.527-.801-1.728-2.452.547-1.13 2.164-.742 3.327-.742h11.2c1.23 0 4.19.583 4.426-1.297.403-3.21-8.699-1.815-10.825-1.91-1.415-.062-2.36-1.144-1.728-2.451.606-1.252 2.295-.742 3.647-.742 3.733 0 7.467.005 11.2 0 1.44-.002 3.649.348 4.052-1.317.375-1.548-.755-1.83-1.814-1.877-.901-.04-1.907-.006-2.878-.006-2.047 0-3.836.035-5.76 0-1.33-.026-2.619-.451-2.137-2.192.445-1.609 2.568-1.007 4.057-1.007 2.299 0 5.12.085 7.36-.013 1.056-.046 1.79-.247 2.88-.295 1.295-.056 4.58.646 4.734-1.305.134-1.705-1.611-1.585-2.814-1.587-1.741-.004-9.726.993-9.838-1.298-.107-2.194 2.224-1.902 3.758-1.902 3.969 0 7.482-.038 11.2-.19.953-.04 6.335-.547 3.647-2.681-.989-.785-3.414-.33-4.607-.33-3.945 0-7.908.054-11.84.004-1.187-.015-3.961-.486-4.914.325-1.978 1.683 1.569 3.93-.72 5.742-1.136.9-4.427-.347-5.693.658-1.967 1.562 1.402 4.183-.935 5.742-1.391.929-4.125-.403-5.465.658-.724.573-.511 1.752-.513 2.551-.002.87.227 1.934-.329 2.741-1.208 1.756-3.846.802-5.751.46-.395 1.334.323 4.66-.649 5.886-1.037 1.31-3.93.018-5.33.706-1.094.54-.231 9.035-3.428 6.005-1.057-1.002-.486-3.843-.592-5.238-.07-.935-.501-3.118.513-3.647 1.346-.701 3.898.267 5.224-.386 1.291-.635.819-1.984.422-3.327-.95.192-2.245.368-3.52.288-1.127-.07-3.23-.593-2.366-2.426.42-.892 1.45-.735 2.366-.742 1.956-.013 4.44 0 6.4 0 1.561 0 4.085.478 3.786-1.903-.188-1.496-1.574-1.265-2.826-1.308-1.49-.051-3.053-.31-4.48-.268-1.19.035-1.908.313-3.2.272-1.273-.04-2.795-.851-2.046-2.451.548-1.169 2.021-.717 3.326-.747 3.665-.084 7.556.011 11.52.005 1.464-.002 4.264.258 4.094-1.907s-5.658-1.293-6.974-1.293h-7.68c-1.748 0-5.13.527-4.377-2.192.468-1.69 3.221-1.008 4.697-1.008h15.36c1.719 0 5.402.823 5.402-1.6 0-2.268-3.248-1.6-4.762-1.6H6.537c-1.87 0-5.723.855-5.723-1.6 0-2.434 4.234-1.6 6.043-1.6h15.68c1.528 0 3.802.493 3.802-1.6 0-2.423-4.118-1.6-5.722-1.6H5.577c-1.554 0-4.763.664-4.763-1.6 0-2.177 2.93-1.6 4.443-1.6 3.507 0 7.058-.06 10.56.008 1.04.02 3.087.426 3.831-.52 1.886-2.402-1.86-2.687-3.191-2.687H4.617c-1.28 0-3.568.445-3.787-1.298-.247-1.97 1.522-1.9 2.827-1.902.77-.002 1.469 0 2.24 0 1.822 0 8.002 1.093 7.626-1.903-.197-1.574-1.962-1.297-3.146-1.297-1.811-.001-8.12.945-9.271-.514-1.163-1.473.305-2.623 1.592-2.68 1.214-.054 4.71.455 4.342-1.91-.363-2.336-4.218-.704-5.521-1.408-1.543-.834-.731-4.29-.743-5.968C.769 5.059.318 3.3 1.51 2.756 3.813 1.705 3.973 4.42 3.977 5.762c.003 1.178-.32 2.484.742 3.006 1.23.606 4.023-.416 5.145.707 1.366 1.366-.486 4.36 1.026 5.558 1.133.897 4.354-.154 5.33.842 1.85 1.89-.745 3.315.886 5.373.865 1.093 4.698-.142 5.742 1.318.89 1.245.036 3.955.973 5.082 1.107 1.333 3.91-.198 5.243.843 1.576 1.232-.543 4.499 1.026 5.742 1.199.95 4.396.329 5.567.329h12.48c.96 0 2.83.35 3.511-.514 1.998-2.531-2.194-2.686-3.511-2.686h-12.16c-1.523-.001-3.712.028-3.097-2.193.548-1.98 7.761-1.007 9.497-1.007 1.136 0 3.014.27 3.134-1.298.182-2.383-2.865-1.902-4.414-1.902-1.202 0-2.696-.055-3.84.054-1.012.096-1.713.274-2.88.26-1.016-.013-1.626-.19-2.56-.251-1.105-.072-4.257.645-4.964-.78-1.397-2.816 2.748-2.54 4.324-2.47.897.038 1.635.214 2.56.198.949-.017 1.918-.109 2.88-.17 1.33-.084 3.707-.858 2.231-2.728-.713-.903-2.825-.513-3.831-.513h-10.56c-1.174 0-3.987.527-4.372-1.006-.786-3.127 5.86-1.997 7.252-2.02.85-.013 1.68-.105 2.56-.129 1.387-.038 3.524-.232 2.685-2.238-.55-1.316-2.48-1.007-3.645-1.007h-10.88c-1.34 0-4.191.577-4.427-1.298-.24-1.912 1.407-1.9 2.827-1.902 1.968-.004 9.882 1.137 9.882-1.6 0-1.946-2.104-1.6-3.482-1.6h-11.52c-1.514 0-5.323.344-3.967-2.459.631-1.304 3.74-.741 4.927-.741h11.52c1.334 0 3.538-.337 4.752.193 3.25 1.419-1.1 3.802 1.52 5.878 1.148.908 4.188-.346 5.375.842 1.364 1.364-.293 3.941.842 5.373 1.182 1.493 4.141-.28 5.558.842 1.493 1.183-.28 4.142.842 5.558 1.073 1.355 3.909.007 5.33.707 1.262.621-.043 8.617 3.428 5.878 1.1-.868 1.05-8.45-.229-9.078-1.404-.691-5.004.789-5.555-1.2-.888-3.207 3.692-1.82 5.29-2.295 1.077-.32 1.26-1.823.494-2.56-1.13-1.085-3.057-.331-4.287-.247-1.31.09-3.108.03-4.48.029-1.55-.001-3.244.257-3.467-1.605-.377-3.157 8.093-1.911 10.187-1.915 1.427-.003 3.21-.061 2.735-1.903-.459-1.78-2.914-1.297-4.335-1.297-2.864 0-6.142-.086-8.96.017-1.028.037-1.857.2-2.88.251-1.382.07-3.704-.268-3.097-2.461.537-1.94 7.188-1.007 8.857-1.007h24.64c1.575 0 7.376-.873 7.897 1.007.696 2.513-2.169 2.193-3.737 2.193-3.48 0-7.094-.08-10.56.004-2.127.052-2.59.44-4.48-.004-1.425 4.832 6.253 3.198 9.28 3.2 1.034 0 2.739-.286 3.097 1.007.817 2.951-3.4 2.134-5.017 2.205-1.804.08-2.799.303-4.8.308-1.018.002-1.958-.245-2.551.513-.536.684-.271 1.983.678 2.265 1.634.485 5.71-.942 5.34 2.004-.299 2.376-4.125.762-5.605 1.49-1.279.63-1.329 8.21-.23 9.079 3.471 2.739 2.167-5.257 3.43-5.878 1.42-.7 4.256.648 5.329-.707 1.122-1.416-.651-4.375.842-5.558 1.417-1.122 4.376.651 5.558-.842 1.122-1.416-.651-4.375.842-5.558 1.421-1.125 3.952.468 5.374-.657 1.604-1.271-.82-5.275 1.52-5.97 3.6-1.068 9.348-.188 13.073-.097 1.172.029 2.04.247 3.2.254 1.536.009 4.615-1.293 5.25 1.039.429 1.573-.726 1.813-2.05 1.93-2.358.207-3.744.353-6.4.288-2.21-.054-3.649-.316-6.08-.315-1.52 0-4.918-.43-4.734 1.907.123 1.567 2.002 1.292 3.134 1.293 1.827 0 9.254-1.033 9.546 1.297.309 2.459-2.688 1.827-4.106 1.994-2.757.325-3.482-.004-6.08.066-1.54.04-2.81.163-4.48.163-1.423 0-3.307-.564-4.151.513-.656.837-.155 2.176.97 2.368 3.288.56 6.91-.491 10.215.046 1.205.196 2.169 1.498 1.277 2.64-.693.885-2.72.513-3.831.513h-10.88c-1.203 0-3.95-.534-4.377 1.007-.96 3.47 8.106 2.179 10.137 2.193 1.479.01 3.26.546 2.367 2.47-.56 1.204-4.285 1.024-5.247 1.024-.948 0-1.664-.204-2.56-.266-1.929-.132-4.413-.028-6.4-.028-1.375 0-4.504-.632-4.747 1.297-.404 3.22 8.996 1.814 11.145 1.909 1.307.057 2.03.612 1.868 1.896-.216 1.724-1.993 1.297-3.466 1.298h-11.52c-1.612 0-5.134-.542-4.377 2.192.44 1.587 3.456 1.008 4.697 1.008h12.48c1.201 0 3.614.457 4.607-.33 1.404-1.111-.26-4.316 1.026-5.553.594-.572 1.325-.345 2.047-.342 1.073.004 3.038.313 3.831-.689 1.32-1.666-1.178-4.2.522-5.558 1.417-1.13 3.949.463 5.374-.657 1.756-1.38-.266-4.082.846-5.558 1.125-1.494 4.163.26 5.554-.842 1.493-1.183-.28-4.142.842-5.558.969-1.224 3.724-.218 5.063-.615 1.785-.53.728-3.671 1.11-4.972.284-.97 1.6-1.622 2.585-.948 1.3.89.817 3.86.832 5.062.018 1.574.306 3.639-1.298 4.286-1.783.72-5.162-.977-5.355 1.486-.204 2.598 4.28 1.184 5.646 1.78.883.386 1.425 1.54.679 2.494-1.087 1.39-7.7.513-9.591.514-1.184 0-2.949-.277-3.147 1.297-.411 3.276 8.992 1.73 11.145 1.921 1.221.109 2.198.952 1.723 2.174-.516 1.328-2.37 1.007-3.641 1.008h-11.2c-1.372 0-3.964-.461-4.372 1.297-.528 2.276 2.318 1.903 3.732 1.903 4.56 0 9.207-.195 13.758.006 1.403.061 2.19.849 1.819 2.186-.467 1.684-3.19 1.007-4.697 1.007h-15.36c-1.347 0-5.186-.691-5.657 1.008-.764 2.758 3.062 2.263 4.697 2.285 5.253.07 10.708-.093 16-.093 1.198 0 3.009-.288 4.112.194.79.344 1.116 1.127.9 2-.424 1.71-4.07 1.006-5.652 1.006h-15.04c-1.58 0-3.554-.142-5.12.32.355 1.42.814 2.798 2.56 2.874.8.035 1.37.006 2.24.006h15.04c1.17 0 2.737.005 3.84-.022.691-.018 1.422-.195 1.911.473 1.742 2.38-1.69 2.75-3.191 2.75h-12.16c-1.213 0-3.641-.438-3.774 1.297-.158 2.062 2.018 1.902 3.454 1.902h10.56c1.268 0 3.221-.35 4.39.193 1.144.532 1.266 2.277.042 2.814-1.588.698-4.315.193-6.032.193-1.973 0-4.168-.245-6.08.32.42 1.402-.064 2.546 1.619 2.833 2.878.49 7.76-1.014 10.452.24 1.136.53 1.18 2.286.016 2.814-1.632.74-3.928-.007-5.687.513.34 1.138-.124 2.104 1.062 2.687 1.056.52 3.901-.113 4.916.386 1.478.728.742 3.307.742 4.927 0 1.165.556 3.658-.742 4.287-2.313 1.12-2.454-1.486-2.458-3.007-.003-1.18.127-2.511-1.007-3.007-.722-.315-1.35-.19-2.193-.193-.773-.002-1.934.268-2.687-.329-.593-.47-.493-1.126-.512-1.911-.026-1.114.183-3.06-.83-3.83-1.338-1.022-4.14.548-5.242-.843-1.48-1.868.914-3.617-.842-5.374-.93-.93-4.986.1-5.878-1.026-1.133-1.43.487-3.928-.658-5.374-1.206-1.522-4.152.417-5.45-1.026-1.247-1.383.288-4.431-1.134-5.558-.7-.555-1.908-.328-2.687-.329h-13.76c-1.212 0-4.618-.597-5.246.742-.932 1.99 1.283 2.495 2.686 2.445.778-.027 1.421-.179 2.24-.161 1.576.034 3.086.212 4.8.158.91-.028 1.612-.246 2.56-.22.919.024 1.601.208 2.56.232 1.551.038 4.442-.575 4.442 1.604 0 1.534-1.112 1.59-2.522 1.6-2.112.015-10.895-1.194-10.507 1.903.198 1.571 1.94 1.297 3.147 1.297h10.56c1.17 0 4.584-.625 5.247.742 1.47 3.035-3.551 2.458-4.927 2.458-1.954 0-3.364-.085-5.439.006-1.392.062-2.198.813-1.818 2.187.448 1.618 3.892 1.007 5.337 1.007h7.04c1.304 0 5.514-.689 6.207.742.94 1.941-.937 2.448-2.367 2.458-2.533.017-4.248-.005-7.04 0-1.343.003-3.207.028-2.772 1.903.442 1.904 3.783 1.297 5.332 1.297h8.64c1.177 0 3.881-.64 4.791.513.546.692.376 2.106-.413 2.494-1.02.502-2.255.193-3.418.193h-3.52c-1.44 0-6.104-.75-5.104 1.886.519 1.366 3.313 1.305 4.464 1.305 1.775 0 3.583-.211 5.44-.203 1.45.007 2.51.23 4.16.21 1.343-.015 2.224-.345 3.514-.287 1.332.06 1.742.962 1.557 2.19-.202 1.338-1.428 1.291-2.511 1.299-.792.005-1.43 0-2.24 0-1.766 0-3.408-.014-5.44 0-1.073.007-2.166-.132-2.452 1.006-.58 2.31 3.117 1.817 4.372 1.903.798.054 1.424.23 2.24.25 1.016.025 1.875-.222 2.88-.266 1.823-.08 11.133-1.12 9.407 2.445-.631 1.303-3.738.742-4.927.742h-12.16c-1.194 0-3.617.456-4.607-.329-1.51-1.196.382-4.15-1.026-5.476-1.56-1.471-3.976.5-5.374-.8-.693-.645-.493-1.773-.518-2.675-.023-.854.04-1.96-.615-2.687-.502-.557-1.096-.495-1.94-.511-.98-.019-2.364.432-3.327-.33-1.998-1.583.814-3.719-1.026-5.559-1.195-1.195-3.647.158-5.145-.842-.855-.57-.718-1.629-.747-2.55-.028-.908-.024-1.688-.363-2.514-.92-2.247-4.712.136-6.023-1.52-.96-1.21.351-4.1-.658-5.374-.531-.67-2.011-.672-2.542 0-.912 1.154-.038 3.095-.014 4.287.025 1.256-.342 2.067-.16 3.194.168 1.03.917 1.424 1.766 1.559 1.632.258 3.89-.747 4.376 1.046.646 2.388-1.745 2.2-3.097 2.201-.746 0-5.152.436-2.687 2.564.595.514 1.608.577 2.367.579.9.002 1.65-.21 2.56-.25 1.877-.083 7.343-.97 7.626 1.284.126 1.004-.213 1.68-1.245 1.856-1.49.254-3.64-.024-5.101.076-1.042.071-1.767.276-2.88.282-1.03.005-1.935-.331-2.778.14-.615.343-.8 1.079-.634 1.743.387 1.545 2.756 1.006 4.052 1.006 4.252 0 8.553-.179 12.8.006 1.486.065 2.956 1.343 1.91 2.68-.786 1.007-2.958.6-4.15.644-2.035.073-4.24-.212-6.4-.118-1.301.057-2.147.323-3.52.295-1.484-.03-5.065-.955-5 1.293.068 2.327 4.116 1.6 5.64 1.6 4.429 0 9.028-.103 13.44.005.906.022 1.689.207 2.56.207 1.374 0 4.848-.878 4.057 1.981-.368 1.327-2.816 1.253-3.737 1.207-3.95-.195-8.664-.368-12.8-.187-1.044.045-1.837.28-2.88.282-.824.001-1.404-.168-2.24-.15-.807.02-1.373.117-2.239.177-.96.066-1.767.177-1.855 1.29-.173 2.194 3.337 1.588 4.734 1.588h16c1.235 0 2.934-.248 4.112.102.803.238 1.093.967.9 1.8-.49 2.116-4.509 1.298-6.292 1.298h-14.08c-1.31 0-2.346-.045-3.519.006-.73.032-1.402.062-1.728.736-1.06 2.19 1.274 2.455 2.687 2.458 1.68.004 2.613 0 4.16 0 3.116 0 6.773-.058 9.92.001 1.57.03 3.047 1 2.365 2.457-.596 1.273-2.999.742-4.285.742h-10.56c-1.04 0-3.13-.379-3.88.513-1.209 1.436.271 2.62 1.64 2.68 2.676.117 5.59-.012 8.32.006 1.192.008 3.19.254 2.365 2.167-.422.979-1.416.998-2.365 1.028-1.291.04-2.201.005-3.52.005h-3.84c-1.03 0-1.986-.269-2.658.33-.718.637-.182 2.482.785 2.768 1.483.44 5.905-.61 5.285 1.989-.403 1.688-4.417.948-5.55 1.506-.8.394-.725 1.204-.74 2.047-.036 1.851-.686 5.133.327 6.58.465.665 1.758.737 2.358.184 1.627-1.499-.595-4.191 1.026-5.475 1.865-1.477 4.132 1.066 5.558-1.07.9-1.35-.493-5.014 1.336-5.557 1.706-.507 4.37.842 5.2-.844.744-1.512-.735-4.188.706-5.329 1.239-.981 4.468.534 5.558-.842 1.1-1.389-.62-4.489.842-5.545.689-.498 1.593-.077 2.367-.08.817-.001 2.274.005 3.007-.59 1.552-1.258-.542-4.501 1.026-5.743.99-.784 3.413-.329 4.607-.329h12.16c1.16 0 3.982-.512 4.791.513 2.01 2.547-2.204 2.687-3.511 2.687-2.423 0-5.093.19-7.36.182-1.484-.005-2.93-.18-4.48-.182-1.545-.002-4.076-.186-3.417 2.193.553 1.996 8.055 1.004 9.817 1.007 1.14.002 2.642-.17 2.826 1.297.302 2.407-2.54 1.903-4.106 1.903h-11.2c-1.066 0-3.1-.387-3.647.742-.52 1.073-.029 2.217 1.106 2.41 3.046.52 6.485-.082 9.58.054 1.37.06 2.66 1.329 1.592 2.681-.678.859-2.148.513-3.191.513h-10.88c-1.284 0-4.31-.538-4.692 1.007-.823 3.321 6.945 2.193 8.852 2.193 1.353 0 4.947-.227 3.647 2.458-.543 1.121-2.096.742-3.327.742h-12.16c-1.332 0-3.054-.44-3.412 1.007-.428 1.728 1.092 2.166 2.452 2.192 2.29.043 5.443-.014 7.68.002 1.203.008 3.255.251 2.365 2.138-.533 1.131-2.641.741-3.645.741h-10.88c-1.34 0-4.192-.577-4.427 1.298-.289 2.317 2.162 2.185 3.787 2.218 2.077.042 8.725-.846 8.894 1.297.061.78-.249 1.256-.942 1.54-1.04.426-1.913.375-3.152.366-1.364-.01-2.216-.249-3.52-.306-2.443-.107-5.206-.013-7.68-.013-.928 0-2.878-.329-3.618.33-.531.471-.372 1.519-.041 2.129.743 1.37 3.532.69 4.939.769 1.701.096 3.47.163 5.12.21.82.022 1.4-.16 2.24-.118 2.468.124 5.31.472 7.998.166 3.34-.38.714-4.674 2.435-6.037 2.09-1.656 3.975 1.157 5.558-.842.65-.82.025-4.91.842-5.558 1.888-1.495 4.053 1.079 5.558-1.107.824-1.197-.298-3.902.658-5.108 1.182-1.493 4.141.28 5.558-.842 1.319-1.045.039-3.974.706-5.33.869-1.765 3.93-.18 5.465-.935 1.657-.815.252-4.078.935-5.465.425-.863 2.068-.998 2.678-.228.935 1.179.605 6.412.227 7.788-.224.817-.721 1.124-1.504 1.251-1.834.298-4.47-.809-4.74 1.345-.382 3.041 4.017 1.314 5.604 2.096.923.454.938 2.116.229 2.678-1.095.867-2.667.328-3.967.328h-4.16c-1.024 0-3.362-.542-3.966.742-.77 1.638.813 2.367 2.046 2.444 2.21.14 5.748 0 8 .015 1.18.008 3.577.49 2.23 2.395-.76 1.076-2.199.802-3.51.804-3.68.006-7.25-.126-10.88-.011-1.47.047-3.648-.662-4.286.737-1.026 2.25 1.782 2.44 3.006 2.47 2.911.072 5.62-.133 8.32-.133 1.58 0 3.056.134 4.8.137 1.26.003 3.64.07 2.685 2.143-.617 1.34-2.99 1.052-4.285 1.057-5.128.019-10.267 0-15.36 0-1.694 0-5.182-.876-5.652 1.007-.5 2.002 1.618 2.185 3.092 2.193 5.597.03 11.316 0 16.96 0 1.692 0 5.56-.787 5.374 1.588-.162 2.047-4.291 1.292-5.694 1.292h-15.04c-1.63 0-4.502-.646-4.747 1.298-.112.896.14 1.559.954 1.8 1.125.335 2.912.102 4.113.102h15.36c1.453 0 4.579-.57 5.012 1.298.496 2.136-2.87 2.171-4.052 2.14-.945-.026-1.525-.227-2.56-.216-1.581.017-3.164.291-4.8.274-1.177-.012-1.968-.26-3.2-.291-1.04-.025-3.417-.422-4.151.508-1.843 2.335 1.87 2.99 3.19 3.006 3.527.042 6.622-.098 9.92-.173.914-.02 1.64.155 2.56.168 1.216.018 2.735-.512 3.093.988.462 1.938-1.79 2.042-3.092 2.073-.776.018-1.48-.13-2.24-.162-1.778-.075-8.156-1.066-7.257 2.18.358 1.293 2.062 1.007 3.097 1.007 2.09.001 7.405-.96 9.091.33 1.001.765.72 2.437-.471 2.769-1.634.454-6.19-.862-5.317 2.294.524 1.891 4.169.518 5.555 1.2 1.286.633 1.269 7.814.413 8.894-.602.76-2.246.65-2.678-.228-.682-1.386.714-4.654-.935-5.466-1.386-.682-4.654.715-5.465-.934-.699-1.42.649-4.257-.706-5.33-1.397-1.106-4.398.623-5.558-.842-1.457-1.84.829-3.496-.658-5.374-.908-1.146-4.334.128-5.558-.842-.857-.678-.498-2.618-.515-3.51-.016-.864.054-1.702-.74-2.232-1.368-.913-3.835.38-5.145-.658-1.626-1.287.624-4.941-1.52-5.878-1.462-.638-3.81-.193-5.393-.193h-11.84c-1.695 0-4.73-.305-4.323 2.193.233 1.427 3.193 1.007 4.323 1.007h10.56c1.104 0 3.13-.325 3.967.513 1.323 1.327.004 2.619-1.409 2.68-3.06.136-6.585-.456-9.58.054-1.18.201-1.745 1.657-.97 2.64.713.902 2.826.513 3.832.513h10.56c1.594 0 3.952-.513 4.372 1.297.26 1.123-.382 1.783-1.498 1.884-2.903.264-6.028-.035-8.954.02-1.403.027-2.592.547-2.137 2.192.426 1.538 3.161 1.007 4.377 1.007h10.88c1.139 0 3.076-.436 3.647.742.407.84.165 2.066-.815 2.356-3.043.904-7.025-.167-10.186.12-1.23.113-1.842.95-1.503 2.175.427 1.542 3.109 1.007 4.377 1.007h10.88c1.013 0 3.1-.388 3.647.742.932 1.925-.927 2.448-2.367 2.458-2.873.02-6.11-.435-8.941.048-1.127.191-1.607 1.375-1.106 2.41.57 1.178 2.913.742 3.967.742h9.92c1.684 0 5.082-.735 5.082 1.6 0 1.48-1.097 1.578-2.202 1.599-.789.015-1.429 0-2.24 0-1.645 0-8.45-1.01-8.254 1.6.206 2.748 8.126 1.6 10.174 1.6h5.12c1.371 0 4.726-.239 3.911 2.14-.537 1.566-4.344.748-5.511.757-2.147.016-3.77.28-5.76.302-2.428.028-4.606-.222-7.04-.21-1.072.005-1.71.41-2.861.109-1.656-.433-1.296-2.084-1.3-3.417-.001-.899.208-2.22-.74-2.687-1.768-.87-4.037.927-5.33-.706-1.133-1.431.698-4.338-.842-5.558-1.17-.926-4.567.409-5.558-.842-1.482-1.87 1.138-3.99-.842-5.558-1.24-.982-4.4.444-5.613-.842-1.342-1.425.206-3.95-.923-5.374-.99-1.25-4.18-.003-5.238-.842-.46-.364-.465-.912-.512-1.593a34 34 0 0 0-.273-2.557c-.17-1.207-1.651-3.008-2.92-1.408-1.014 1.28-.074 4.721-.02 5.887.043.95-.297 2.17.754 2.87 1.52 1.016 5.296-.83 5.604 1.627.147 1.172-.418 1.78-1.552 1.884-1.326.12-2.799-.405-4.052.212-.864.425-1 2.067-.23 2.678 1.619 1.282 7.048.328 9.088.329 1.085 0 2.741-.277 3.097 1.007.728 2.628-2.374 2.193-4.057 2.193h-5.12c-1.257 0-3.934-.347-3.412 1.902.25 1.082 1.14 1.28 2.132 1.279.96 0 1.589-.244 2.56-.244 1.029 0 1.834.232 2.88.258 2.36.058 4.976.005 7.36.005 1.401 0 5.573-.07 3.83 2.396-.673.952-2.525.803-3.83.804-4.041.002-9.063-.281-12.48-.028-1.191.088-2.863.16-2.452 1.93.403 1.74 3.146 1.298 4.692 1.298h15.36c1.469 0 5.561-.825 5.374 1.589-.152 1.949-2.582 1.61-4.094 1.611h-15.68c-1.745 0-5.891-.919-5.694 1.587.158 2.01 4.29 1.293 5.694 1.293h15.36c1.59 0 4.74-.596 4.426 1.903-.263 2.095-4.311 1.22-5.706 1.351-5.222.495-9.74-.28-15.04.053-1.159.073-4.228-.793-4.697.9-.618 2.231 1.58 2.192 3.097 2.193h11.84c1.59 0 4.785-.438 4.057 2.193-.427 1.541-3.174 1.007-4.377 1.007h-10.88c-1.074 0-3.104-.38-3.647.742-.608 1.257.127 2.322 1.413 2.44 2.1.19 12.087-1.386 11.09 2.21-.357 1.294-2.062 1.008-3.096 1.008-1.8 0-8.111-.97-9.271.513-.64.819-.179 2.12.678 2.494 1.361.594 3.35-.347 4.651.522.543.362.725.936.676 1.574-.06.768-.514 1.127-1.233 1.25-1.253.213-3.517-.472-4.588.376-1.14.902-.957 7.837 0 8.687.955.849 2.265.63 2.585-.427.376-1.24-.635-4.468.844-5.196 1.514-.745 4.96.823 5.712-1.2.539-1.452-.805-3.616.459-4.88 1.366-1.366 4.36.486 5.558-1.026 1.074-1.356-.66-4.492.842-5.53 1.374-.95 4.404.587 5.558-.87 1.093-1.38-.318-3.682.658-5.145 1.138-1.707 4.12.068 5.558-1.07 1.205-.955.13-3.833.706-5.01.703-1.438 2.755-1.055 3.967-1.016.96.03 1.622.225 2.56.261 1.506.059 2.45-.234 3.84-.294 2.754-.121 5.851-.019 8.64-.013.943.002 2.276-.16 2.87.742 1.723 2.61-2.453 2.506-3.83 2.506-3.94 0-7.894-.05-11.84-.048-1.517 0-3.715-.038-3.097 2.193.547 1.976 7.767 1.006 9.497 1.007 1.184 0 2.949-.276 3.146 1.297.303 2.409-2.544 1.903-4.106 1.903h-11.2c-1.014 0-3.1-.388-3.647.742-.604 1.248.158 2.325 1.413 2.44 2.948.268 5.994-.036 8.954.02 1.37.025 3.195 1.058 1.911 2.685-.713.903-2.825.513-3.831.513h-10.56c-1.203 0-3.95-.534-4.377 1.007-.96 3.47 8.106 2.18 10.137 2.193 1.44.01 3.299.534 2.367 2.458-.548 1.132-2.65.742-3.647.742h-10.88c-1.223 0-3.95-.536-4.377 1.007-.566 2.043 1.276 2.19 2.777 2.193 2.01.004 10.773-1.261 9.817 2.193-.395 1.426-2.61 1.007-3.737 1.007h-11.2c-1.385 0-4.123-.627-4.123 1.6 0 2.47 3.624 1.6 5.083 1.6h3.2c1.32 0 4.188-.576 4.426 1.296.256 2.015-1.478 1.87-2.826 1.9-3.94.085-8.486.004-12.48.004-1.577 0-4.932-.196-3.647 2.458.587 1.212 3.372.742 4.287.742h6.4c1.865 0 4.304-.046 6.4-.004 1.168.023 3.509.545 4.607-.325 1.514-1.2-.517-4.52 1.026-5.742 1.388-1.1 3.998.432 5.374-.658 2.025-1.604-.728-3.576.842-5.558.623-.787 1.77-.511 2.55-.513.99-.002 2.15.305 3.1-.329 1.768-1.18.956-3.94.42-5.75 1.467-.434 5.105.387 6.072-.834 1.122-1.417-.651-4.376.842-5.558 1.421-1.126 3.952.468 5.374-.658 1.621-1.284-.93-5.673 1.81-6.017 2.625-.33 2.866 8.048 1.39 9.217-1.202.952-5.424-.64-5.693 1.336-.407 2.996 3.437 1.772 5.198 2.295 1.007.299 1.319 1.774.679 2.585-.637.807-2.296.513-3.191.513-2.388 0-5.669-.576-7.953.102-1.365.405-.947 1.508-1.327 2.778 1.924.569 4.083.32 6.08.32 1.693 0 4.448-.52 6.006.193 1.267.58.966 2.537-.292 2.905-4.003 1.173-9.855.102-14.034.102-1.608 0-4.783-.43-4.057 2.193.36 1.302 1.738 1.005 2.777 1.007 1.615.003 2.647 0 4.48 0h7.04c1.537 0 5.326-.661 4.692 1.874-.426 1.704-3.614 1.324-5.012 1.326-2.45.003-4.45 0-6.72 0-1.804 0-4.015.03-6.08-.026-.904-.024-1.66 0-2.56.018-1.48.029-7.003-.107-4.791 2.695.96 1.217 5.162.563 6.39.462.812-.066 1.386-.19 2.24-.158.95.037 1.518.195 2.56.188 1.49-.009 2.684-.26 4.16-.294 5.815-.136 11.78.043 17.6.043 3.763 0 7.66-.072 11.2.109.944.048 1.65-.106 2.56-.144 1.443-.061 6.438.79 7.166-.754.897-1.902-1.279-2.131-2.365-2.139-1.174-.008-1.617 0-2.88 0h-8.32c-2.3 0-10.628 1.126-11.553-1.007-1.187-2.737 2.876-2.193 4.193-2.193h11.2c1.312 0 3.415.367 3.72-1.297.391-2.141-2.573-1.903-4.04-1.903-4.722 0-10.833 1.018-15.36-.32v-2.56c1.74-.514 3.635-.32 5.44-.32h3.52c.934 0 2.298.18 3.152-.193 1.112-.485 1.606-2.154.266-2.814-1.921-.946-6.912-.192-9.178-.193-1.336 0-3.163.235-3.163-1.6 0-3.32 5.147-.17 6.168-2.341.39-.83.01-1.85-.813-2.221-1.426-.646-3.625.426-4.88-.567-1.188-.942-1.05-8.74.495-9.168 3.893-1.078.9 5.103 2.935 6.104 1.426.702 4.246-.648 5.33.706 1.2 1.502-.456 4.443.854 5.558 1.34 1.141 4.038-.48 5.36.842 1.367 1.366-.485 4.36 1.027 5.558 1.417 1.122 4.376-.65 5.558.842 1.122 1.417-.651 4.376.842 5.558 1.414 1.12 3.944-.316 5.378.682s-.32 5.081 1.25 5.854c3.027 1.49 9.77.193 13.019.193 1.16 0 1.934.014 3.2 0 1.195-.015 5.037.385 5.506-1.322.536-1.951-2.25-1.877-3.266-1.878h-7.36c-1.481 0-6.798.998-7.991-.513-.783-.991-.318-2.29.678-2.585 3.246-.963 7.216.697 10.494-.203 1.017-.28 1.586-1.328 1.104-2.357-.645-1.377-3.909-.742-5.245-.742h-9.92c-.945 0-2.855.343-3.619-.329-.617-.542-.388-1.78-.541-2.55 2.013-.596 3.847-.32 5.76-.32 1.436 0 4.766.518 6.348-.194 1.242-.558.905-2.545-.315-2.905-3.816-1.126-9.408-.102-13.393-.102-1.148 0-4.027.494-4.606-.741-.629-1.344.488-2.33 1.727-2.44 3.127-.277 6.491.438 9.593-.066 1.232-.2 2.21-1.51 1.093-2.64-.825-.833-2.83-.513-3.967-.513h-10.24c-1.3 0-3.922.537-4.385-1.007-.222-.74-.14-1.638.62-2 2.169-1.03 6.483-.188 8.885-.193 1.462-.003 3.716-.331 2.687-2.458-.549-1.132-2.632-.742-3.647-.742h-10.88c-1.34 0-4.191.578-4.427-1.297-.393-3.135 8.12-1.898 10.187-1.903 1.33-.003 2.823.11 2.798-1.6-.03-2.047-2.3-1.6-3.758-1.6-4.266 0-8.534.01-12.8 0-1.277-.003-4.598-1.103-2.367-2.87.99-.785 3.413-.33 4.607-.33h11.84c1.258 0 3.89-.492 4.927.33 1.472 1.165-.271 4.152.842 5.557 1.182 1.493 4.141-.28 5.558.842 1.493 1.183-.28 4.142.842 5.558 1.182 1.493 4.141-.28 5.558.842 1.493 1.183-.28 4.142.842 5.558 1.073 1.355 3.909.007 5.33.706 1.813.893-.027 4.31 1.07 5.694 1.182 1.493 4.141-.28 5.558.842 1.355 1.073.007 3.91.706 5.33.486.988 2.172.87 2.814.228 1.253-1.252.525-4.366.513-6.207-.007-1.042.109-1.983-.742-2.55-1.09-.728-4.533.165-5.33-.843-.799-1.013-.35-2.28.68-2.585 1.554-.461 6.255.562 5.1-2.295-.534-1.32-2.37-1.007-3.548-1.007-2.943 0-6.45.517-9.28-.32.127-.735-.117-2.03.518-2.55 1.493-1.227 6.55-.33 8.442-.33.952 0 2.835.344 3.511-.513 1.893-2.398-1.866-2.687-3.191-2.687-4.816 0-11.064 1.045-15.68-.32.42-1.401-.064-2.546 1.619-2.832 4.008-.683 9.293-.048 13.42-.048 1.563 0 4.41.506 4.107-1.902-.242-1.93-3.372-1.298-4.746-1.298h-15.36c-1.68 0-6.162.788-5.337-2.193.45-1.626 3.735-1.007 5.017-1.007h15.36c1.286 0 3.23.256 4.432-.101.683-.203 1-.722.942-1.499-.17-2.27-3.356-1.56-5.054-1.592-1.561-.03-3.6-.083-5.12.02-.898.062-1.61.266-2.56.267-.833.001-1.414-.156-2.24-.173-2.104-.045-2.918.092-5.12-.075-1.638-.124-6.06.864-5.707-1.95.256-2.036 4.25-1.328 5.707-1.292 1.018.025 1.625.2 2.56.248.875.046 1.41-.143 2.24-.144 3.935-.005 6.275.323 10.24-.054 1.583-.151 5.025.622 5.025-1.347 0-1.074-.76-1.474-1.827-1.569-4.37-.388-8.818-.018-13.438-.019-1.54 0-3.636.43-4.052-1.313-.54-2.261 2.11-1.887 3.412-1.887 4.116 0 8.398-.097 12.48-.075 1.21.006 2.765.167 3.32-1.25.451-1.15-.354-1.76-1.406-1.856-1.92-.175-4.416-.019-6.394-.019-.937 0-1.602.006-2.56 0-1.41-.01-2.991-.263-2.457-2.193.375-1.352 1.814-1.006 3.097-1.007 2.273 0 4.788.055 7.04-.005.804-.021 1.746.001 2.367-.59.922-.878.34-2.194-.786-2.503-1.535-.422-6.182.824-5.318-2.295.551-1.991 4.19-.58 5.61-1.2.74-.324.927-.941.987-1.729.07-.926-.11-1.715-.209-2.558-.139-1.178.37-3.61-.42-4.607-.602-.76-2.246-.65-2.678.229-.682 1.386.714 4.653-.935 5.465-1.386.682-4.654-.715-5.465.935-.699 1.42.649 4.256-.706 5.329-1.417 1.122-4.376-.651-5.558.842-1.043 1.316.382 3.89-.58 5.145-1.365 1.782-3.626.058-5.407.935-1.272.626-.373 4.42-1.071 5.465-1.421 2.13-3.725-.37-5.558.805-1.395.894.36 4.59-1.026 5.688-.99.784-3.413.329-4.607.329h-12.48c-1.208 0-4.3.573-4.692-1.007-.527-2.127 1.536-1.966 2.772-1.99 1.12-.024 2.067-.172 3.2-.198 3.477-.08 6.305.166 9.6.254 1.11.03 3.893.04 3.61-1.846-.24-1.586-2.103-1.293-3.29-1.293h-4.16c-.908 0-1.641.006-2.56 0-1.2-.008-2.698-.052-2.814-1.6-.092-1.227.68-1.542 1.855-1.594 4.362-.192 8.46-.006 13.119-.006 1.16 0 3.366.5 3.967-.742 1.539-3.178-4.25-2.458-5.567-2.458-1.569 0-2.758.012-4.48 0-1.375-.01-3.687-.842-2.231-2.687.708-.897 2.85-.513 3.83-.513h10.24c1.714 0 4.259.506 4.693-1.313.72-3.017-8.267-1.874-10.132-1.887-1.44-.01-3.299-.533-2.367-2.458.547-1.13 2.633-.742 3.647-.742h10.88c1.34 0 4.19.578 4.426-1.297.393-3.124-7.827-1.899-9.866-1.903-1.484-.003-3.348-.13-2.777-2.193.379-1.367 2.336-1.007 3.417-1.007h11.2c1.34 0 4.19.578 4.426-1.297.393-3.124-7.827-1.899-9.866-1.903-1.42-.003-3.067.01-2.827-1.903.22-1.744 2.52-1.297 3.787-1.297h12.16c1.622 0 3.832-.091 3.412-1.903-.445-1.916-3.088-1.297-4.692-1.297h-12.8c-1.194 0-3.617-.455-4.607.329-1.572 1.245.545 4.497-1.026 5.742-1.422 1.126-3.953-.468-5.374.658-1.572 1.245.545 4.497-1.026 5.742-1.227.972-4.236-.244-5.374.658-1.931 1.53.646 3.68-.842 5.558-.922 1.163-4.34-.123-5.558.842-1.355 1.073-.007 3.909-.706 5.33-.802 1.629-4.121.241-5.465 1.114-1.398.908-.468 3.362-.844 4.728-.353 1.285-1.88 1.81-2.77.52-.717-1.04-.915-7.62.185-8.492 1.383-1.096 5.185.825 5.784-1.336.888-3.206-3.692-1.82-5.29-2.295-1.066-.316-1.385-2.063-.494-2.77 1.637-1.296 7.036-.327 9.087-.328.915 0 2.516.27 3.007-.742.617-1.275-.176-2.265-1.413-2.395-2.948-.309-5.99-.009-8.954-.064-1.37-.026-3.196-1.059-1.911-2.686.712-.903 2.824-.513 3.83-.513h10.56c1.105 0 3.695.483 4.288-.742 1.03-2.127-1.225-2.455-2.687-2.458h-12.48c-1.492 0-4.915.16-3.647-2.458.632-1.304 3.74-.742 4.927-.742h14.72c1.347 0 5.186.692 5.657-1.007.757-2.735-2.765-2.193-4.377-2.193h-15.68c-1.457 0-5.554.762-5.374-1.592.198-2.588 4.846-1.306 6.334-1.29 4.89.057 9.107-.318 14.08-.318 1.299 0 4.627.616 5.147-1.007.952-2.975-4.245-2.2-5.787-2.193-1.656.008-2.613.277-4.16.315-3.384.083-7.141.005-10.56.005-1.816 0-4.884.666-5.054-1.6-.158-2.104 2.747-1.598 4.414-1.6 4.056-.005 8.336-.25 12.16-.131.882.027 1.684.189 2.231-.445 1.92-2.223-1.98-2.624-3.191-2.624-3.996 0-8.15.002-12.16 0-1.456 0-3.042.3-3.412-1.297-.706-3.042 8.316-1.87 10.132-1.904 1.278-.024 2.888-.429 2.452-2.191-.412-1.664-3.557-1.008-4.692-1.008-1.701 0-6.11.868-7.487-.513-.763-.765-.59-2.263.494-2.585 1.598-.474 6.178.912 5.29-2.294-.551-1.99-4.151-.51-5.555-1.2-1.291-.636-1.258-7.83-.413-8.895.608-.765 2.04-.523 2.542.23.91 1.363-.618 4.633 1.07 5.464 1.387.682 4.654-.714 5.466.935.626 1.272-.43 4.43.706 5.33 1.464 1.159 4.32-.72 5.558.841.94 1.188-.479 4.192.842 5.238 1.437 1.138 4.016-.515 5.374.842 1.4 1.4-.485 4.67 1.255 5.83 1.477.986 3.772-.381 5.145.706 1.522 1.206-.634 4.63 1.255 5.558 2.557 1.259 8.06.205 10.778.218 1.558.008 2.445.355 4.16.283 1.224-.052 6.177.378 6.845-1.05 1.45-3.095-4.466-2.212-5.885-2.15-2.117.092-6.58.012-8.64.012-1.318 0-4.26.569-4.692-1.297-.619-2.667 3.664-1.903 5.012-1.903 1.56 0 3.907.083 5.44-.014 1.053-.066 2.075-.31 2.174-1.594.166-2.175-3.04-1.592-4.414-1.592h-10.56c-1.128 0-3.113.35-3.831-.741-1.04-1.58.469-2.71 1.911-2.772 2.528-.11 5.143-.001 7.68-.006.963-.002 2.468.204 2.772-1.006.615-2.45-2.987-1.874-4.372-1.874-4.535 0-10.372.965-14.72-.32.127-.735-.117-2.03.518-2.552 1.406-1.155 6.027-.328 7.802-.328 1.273 0 4.398.56 4.556-1.298.204-2.391-2.699-1.902-4.236-1.902h-11.2c-1.014 0-3.1.388-3.647-.742-.932-1.925.926-2.448 2.367-2.458 1.997-.014 10.202 1.155 10.202-1.6 0-1.946-2.104-1.6-3.482-1.6h-11.52c-1.562 0-4.409.505-4.107-1.903.198-1.574 1.963-1.297 3.147-1.297 1.73-.001 8.95.969 9.497-1.008.617-2.23-1.58-2.192-3.097-2.192h-12.16c-1.307 0-5.521-.141-3.511-2.687.809-1.026 3.63-.513 4.79-.513h11.84c1.234 0 3.643-.327 4.7.193 2.548 1.254-1.074 4.756 1.483 6.013 1.42.7 4.256-.648 5.329.707 1.122 1.416-.651 4.375.842 5.558 1.417 1.122 4.376-.651 5.558.842 1.108 1.4-.604 4.413.842 5.558 1.419 1.123 4.363-.667 5.558.842.956 1.206-.166 3.91.658 5.108 1.529 2.222 3.288-.162 5.33.879.797.406.198 8.58 3.748 5.695.952-.773.513-2.617.513-3.555 0-1.228.4-4.35-.742-5.112-1.335-.89-5.625.761-5.925-1.626-.377-3.007 4.011-1.515 5.66-2.004 1.05-.312 1.268-1.81.494-2.585-1.51-1.513-7.336-.513-9.407-.513-1.035 0-2.739.285-3.097-1.008-.845-3.051 3.984-2.192 5.657-2.192h2.56c.985 0 1.864.07 2.878-.02 1.29-.114 2.423-1.147 1.591-2.439-1.046-1.624-3.647-.568-5.11-.471-2.701.179-7.326.063-10.24.05-1.34-.008-3.356.21-3.731-1.326-.506-2.07 1.66-2.192 3.092-2.194 4.16-.01 8.32 0 12.48 0 1.457 0 4.474-.047 3.64-2.193-.619-1.594-3.532-1.007-4.92-1.007h-15.04c-1.347 0-5.186.691-5.657-1.008-.826-2.982 3.662-2.192 5.337-2.192h15.68c1.448 0 4.562.58 4.617-1.6.059-2.377-4.358-1.624-5.897-1.537-1.618.092-3.2-.116-4.8-.05-.97.039-1.627.22-2.56.262-2.395.105-5.227.044-7.68.044-1.781 0-4.48.568-4.747-1.612-.336-2.753 3.995-1.908 5.707-1.908h15.04c1.223 0 4.397.57 4.834-1.007.72-2.597-2.855-2.119-4.194-2.028-2.693.182-3.305-.056-5.76-.056-.892 0-1.649.184-2.56.207-1.85.045-5.386.774-6.391-.737-1.3-1.955 1.063-2.778 2.87-2.779h12.16c1.124 0 3.34.426 3.738-1.007.958-3.459-7.614-2.048-9.497-2.051-1.43-.002-3.567-.105-3.092-2.015.284-1.143 1.383-.999 2.452-1.006 2.453-.017 7.675.84 9.498-.378 1.518-1.013.468-2.683-.864-2.804-1.54-.14-5.471.736-4.69-2.232.54-2.055 4.206-.64 5.608-1.273 1.284-.579 1.29-7.625.359-8.8-.602-.76-2.246-.65-2.678.228-.665 1.352.52 5.046-1.2 5.557-2.132.632-3.676-1.138-5.064.615-1.109 1.4.494 4.514-1.07 5.558-.93.62-4.42-.309-5.33.842-1.045 1.318.524 4.131-.842 5.239-.856.694-2.33.584-3.327.635-.773.04-1.714-.128-2.231.526-1.125 1.42.49 3.552-.658 5.058-.68.89-2.208.798-3.191.824-.86.023-1.72-.179-2.367.333-.68.538-.508 1.524-.513 2.231-.006.845.332 2.522-.513 3.192-.99.784-3.414.328-4.607.328h-12.48c-1.212 0-4.294.579-4.692-1.005-.31-1.233.543-1.729 1.498-1.91 2.184-.415 4.602-.422 7.034-.256 1.776.122 2.767.368 4.8.279.948-.042 1.621-.214 2.56-.279 1.231-.085 3.275.247 3.134-1.628-.143-1.902-1.895-1.352-3.134-1.327-3.055.063-4.564.098-7.36.045-1.274-.024-2.15-.21-2.215-1.603-.11-2.36 2.389-1.916 4.135-1.916h11.2c1.014 0 3.1.388 3.647-.741.49-1.015.02-2.262-1.106-2.384-3-.324-5.764.304-8.941.244-1.242-.023-3.587-.951-2.231-2.686.683-.873 2.107-.513 3.19-.513 2.995 0 7.408.166 10.24-.028 1.251-.086 4.936.284 5.333-1.297.53-2.109-1.85-1.874-3.092-1.875h-5.44c-1.598 0-5.048.037-3.966-2.486.905-2.11 5.794-.8 7.486-.746 1.007.033 1.622-.16 2.56-.184 1.628-.04 8.334.959 8.852-1.11.621-2.482-2.931-1.874-4.372-1.874-1.625 0-9.17 1.248-8.217-2.192.424-1.533 2.308-1.008 3.737-1.008 3.972 0 7.227.082 10.88-.265 1.21-.115 4.264.553 4.414-1.347.134-1.705-1.611-1.585-2.814-1.588-1.968-.004-9.883 1.118-9.883-1.6 0-2.078 2.158-1.6 3.803-1.6 1.958 0 5.277.05 7.04-.033 1.332-.063 2.036-.28 3.52-.286 1.406-.007 5.327.653 4.692-1.875-.398-1.585-3.481-1.006-4.692-1.006h-12.48c-1.194 0-3.617-.455-4.607.33-1.572 1.244.545 4.497-1.026 5.742-1.218.964-4.28-.21-5.374.657-2.05 1.624.817 3.715-1.026 5.558-.672.672-1.745.511-2.687.513-.853.002-2.006-.21-2.687.33-.662.524-.507 1.365-.513 2.23-.007.961.246 2.232-.329 3.036-.519.726-1.443.752-2.231.792-1.28.065-2.449-.354-3.327.341-1.087.862-.111 3.797-.706 5.01-.562 1.143-2.69 1-3.647 1.05-.763.038-1.715-.127-2.231.525-1.656 2.09 1.009 3.527-.842 5.373-.487.485-1.83.665-2.358 0-1.036-1.304-.341-4.76-.329-6.527.007-.949-.145-1.93.742-2.366.57-.281 1.21-.19 1.818-.193 1.18-.008 3.551.572 3.786-1.298.39-3.105-4.024-1.318-5.604-2.096-.939-.461-1.19-1.915-.23-2.678 1.44-1.14 5.123-.329 6.848-.329 1.715 0 4.828.828 5.337-1.007.754-2.724-2.6-2.193-4.057-2.193-2.281 0-4.593.204-7.034-.018-1.313-.12-2.028-1.17-1.413-2.44.49-1.012 1.775-.74 2.687-.742 3.416-.007 8.371 0 12.48 0 1.392 0 3.389.25 3.737-1.007.527-1.906-.993-2.182-2.457-2.192-4.09-.029-8.166 0-12.48 0-1.634 0-4.739.268-4.057-2.193.496-1.793 3.374-1.008 5.017-1.008 2.697 0 5.65.061 8.32-.005 2.21-.054 3.649-.315 6.08-.315 1.5 0 6.205.846 6.014-1.587-.162-2.048-4.291-1.293-5.694-1.293h-15.04c-1.376 0-4.14.546-4.788-1.007-1.239-2.965 3.496-2.193 5.108-2.193h16c1.612 0 5.134.542 4.377-2.193-.502-1.812-5.458-1.007-6.937-1.007h-11.84c-1.738 0-4.059.38-5.729-.102-1.356-.39-.982-1.631-1.311-2.778 1.544-.456 2.954-.183 4.48-.183 3.755 0 7.686-.137 11.52-.137 1.443 0 4.992-.405 3.191-2.687-.763-.967-3.361-.513-4.471-.513-4.163 0-8.665.357-12.794-.019-1.829-.166-1.55-1.308-1.926-2.861 1.74-.514 3.635-.32 5.44-.32h3.52c.957 0 2.586.216 3.418-.193 1.11-.546.908-2.218-.266-2.593-2.61-.835-6.488-.026-9.232-.099-1.442-.038-3.07-.279-2.827-2.218.354-2.82 5.082-.028 6.231-2.038.488-.855.02-1.782-.88-2.037-1.577-.448-3.658.618-4.891-.615-1.267-1.267-1.13-8.884.784-9.157 1.04-.148 1.692.367 1.855 1.357.197 1.193-.563 3.935.79 4.6 1.42.699 4.256-.649 5.329.706 1.151 1.454-.593 4.325 1.133 5.558 1.354.967 3.769-.301 5.111.658 1.879 1.342.053 3.409.998 5.33.663 1.347 3.883.36 5.2.934 2.207.964.275 3.585 1.2 5.465.64 1.3 4.65.212 5.694 1.255 2.063 2.064-1.193 3.8 1.026 5.558.953.755 3.44.33 4.607.33h12.16c1.16 0 3.982.511 4.791-.514 1.893-2.398-1.866-2.687-3.191-2.687h-12.16c-1.354 0-3.92.146-3.412-1.874.47-1.869 3.98-1 5.652-1.008 1.368-.007 2.21-.256 3.52-.304 1.228-.046 3.247.447 3.466-1.31.3-2.409-2.542-1.904-4.106-1.904h-11.2c-1.014 0-3.1.388-3.647-.742-.501-1.035-.02-2.219 1.106-2.41 2.831-.483 6.068-.028 8.94-.048 1.287-.01 3.31-.399 2.182-2.138-.62-.957-1.723-.704-2.821-.755-1.062-.048-1.79-.247-2.88-.294-2.96-.13-6.022.14-8.96.01-1.592-.07-3.873.543-4.107-1.32-.12-.966.234-1.683 1.246-1.856 2.9-.494 6.307.007 9.26-.049 1.268-.023 2.764-.58 2.046-2.153-.485-1.063-1.616-.706-2.685-.741-2.449-.08-4.672-.365-7.36-.3-1.443.036-2.388.297-3.84.315-1.66.02-4.794.67-5.067-1.604-.199-1.663.967-1.904 2.507-1.915 2.753-.019 5.926.393 8.634-.047.908-.148 1.47-.631 1.54-1.553.142-1.894-2.01-1.6-3.454-1.6-3.805 0-8.123.233-11.84.042-1.43-.074-5.048.356-3.966-2.235.639-1.528 3.573-1.007 4.926-1.007h11.52c1.48 0 3.702-.405 5.072.193 1.388.606 1 2.51 1.008 3.647.006.81-.128 1.723.513 2.231.917.727 4.868.036 5.558 1.07 1.131 1.696-.845 3.994.842 5.33 1.095.867 4.156-.307 5.374.658 1.493 1.182-.28 4.141.842 5.558.968 1.222 4.184.078 5.33.842 1.234.824.712 2.233.742 3.83.025 1.323.969 3.267 2.686 1.912 1.056-.834.924-7.478.184-8.446-.75-.98-2.347-.528-3.511-.527-1.113 0-2.15-.124-2.457-1.293-.83-3.156 3.651-1.82 5.29-2.307 1.065-.316 1.386-2.064.494-2.77-1.676-1.324-6.627-.008-8.767-.008-1.395 0-3.231.387-3.553-1.299-.675-3.54 8.057-2.206 10.273-2.221 1.372-.01 2.818-.324 2.452-1.903-.388-1.673-2.337-1.298-3.732-1.298h-11.52c-1.5 0-5.297.29-3.967-2.458.456-.942 1.827-.74 2.687-.742h30.08c2.867 0 7.468-.084 8.884-.004.072 1.202.412 2.704-.932 3.103-3.53 1.048-8.741.101-12.432.101-1.328 0-4.87-.648-5.592.742-.988 1.9.972 2.448 2.392 2.458 2.03.014 11.098-1.277 10.137 2.193-.358 1.293-2.063 1.007-3.097 1.007-2.008.001-7.509-.829-9.087.355-1.02.765-.647 2.405.494 2.744 1.56.463 6.172-.91 5.29 2.294-.522 1.895-3.49 1.09-4.998 1.33-1.795.286-1.3 3.169-1.3 4.797 0 1.124-.468 2.96.33 3.967.601.76 2.245.65 2.678-.228.682-1.386-.715-4.654.935-5.466 1.42-.699 4.256.65 5.329-.706 1.122-1.416-.651-4.375.842-5.558 1.421-1.126 3.952.468 5.374-.658 1.493-1.182-.28-4.141.842-5.558 1.182-1.492 4.141.28 5.558-.842 1.606-1.271-.819-5.275 1.52-5.969 1.4-.415 3.303-.102 4.753-.102h11.52c1.601 0 4.895-.584 5.332 1.298.49 2.114-2.112 1.902-3.732 1.902h-11.84c-1.267 0-3.568-.447-3.787 1.298-.24 1.912 1.407 1.9 2.827 1.902 2.04.004 10.259-1.221 9.866 1.903-.235 1.875-3.086 1.297-4.426 1.297h-10.88c-1.035 0-3.096-.396-3.647.742-.91 1.88.898 2.448 2.367 2.458 2.03.014 11.098-1.277 10.137 2.193-.427 1.541-3.174 1.007-4.377 1.007h-10.56c-1.007 0-3.119-.39-3.831.513-1.285 1.628.54 2.66 1.911 2.686 2.96.056 6.006-.248 8.954.02 1.255.114 2.017 1.191 1.413 2.44-.548 1.13-2.633.741-3.647.741h-11.2c-1.562 0-4.409-.505-4.107 1.903.185 1.47 1.69 1.295 2.827 1.297 1.856.004 9.572-1.048 9.866 1.298.346 2.752-3.848 1.902-5.386 1.902h-9.92c-1.569 0-4.433-.32-3.737 2.193.45 1.628 3.74 1.007 5.017 1.007h11.84c1.257 0 3.888.494 4.927-.328 1.493-1.183-.28-4.142.842-5.559 1.244-1.571 4.497.546 5.742-1.026 1.126-1.421-.468-3.952.658-5.374 1.244-1.571 4.497.546 5.742-1.026 1.126-1.421-.468-3.952.658-5.374 1.16-1.466 4.157.191 5.607-.841 1.59-1.133-.362-4.1.793-5.559.944-1.191 3.795-.258 5.092-.614 1.194-.328 1.3-1.32 1.293-2.459-.005-.81-.073-6.277 2.586-3.327.892.991.62 2.704.62 3.967 0 1.624.737 4.2-.742 4.927-1.268.624-5.334-.751-5.875 1.2-.888 3.207 3.692 1.82 5.29 2.295 1.082.322 1.365 2.08.494 2.77-1.643 1.301-7.01.327-9.087.328-1.035 0-2.739-.285-3.097 1.008-.571 2.062 1.293 2.19 2.777 2.192 2.031.004 11.096-1.27 10.137 2.193-.397 1.433-2.614 1.007-3.737 1.007h-12.16c-1.326 0-5.084.29-3.191 2.687.712.903 2.824.513 3.83.513h10.88c1.345 0 4.552-.51 4.332 1.6-.217 2.085-3.137 1.6-4.651 1.6h-15.68c-1.964 0-6.177-.84-5.337 2.193.31 1.12 1.518 1 2.457 1.007 2.53.018 5.538 0 8 0h9.28c1.526 0 5.985-.764 5.985 1.592 0 2.023-2.509 1.608-4.065 1.608h-16c-1.467 0-6.076-.794-5.64 1.593.194 1.059 1.166 1.502 2.12 1.518.942.016 1.522-.243 2.56-.197.951.042 1.588.25 2.56.27 1.177.022 2.058-.241 3.2-.291 2.846-.125 6.077-.013 8.96-.013 1.799 0 5.79-.872 6.292 1.298.192.83-.105 1.593-.9 1.94-3.679 1.607-10.808.282-14.992.282-1.471 0-3.938-.315-3.412 1.887.43 1.802 2.953 1.322 4.692 1.313 1.517-.007 2.414-.245 3.84-.307 1.719-.075 2.64.184 4.16.224.811.022 1.482-.156 2.24-.208 1.14-.078 3.715-.389 4.285.979.83 1.99-1.21 2.49-2.685 2.511-2.38.033-5.675-.041-8 .003-1.164.022-2.545.231-2.132 1.873.325 1.295 2.08 1.005 3.092 1.006 1.993 0 8.05-.847 9.407.513.903.905.595 2.262-.495 2.585-1.208.359-3.501-.27-4.65.295-.65.32-.778.995-.689 1.71.356 2.833 4.328.493 5.834 1.838.962.86 1.085 7.873 0 8.73-2.917 2.302-2.622-3.201-2.706-4.15-.08-.894-.343-1.562-1.28-1.82-1.46-.4-4.511.536-5-1.109-.574-1.935.837-3.818-.906-5.063-1.382-.988-4.46.579-5.586-.842-.927-1.17.203-3.967-.658-5.054-1.36-1.716-3.485.34-5.33-.89-1.22-.815-.34-4.072-.934-5.282-.895-1.818-3.401-.15-5.2-.934-1.91-.834.007-5.766-2.306-6.16-4.325-.737-11.23-.047-15.661-.047-1.375 0-5.22-.71-5.374 1.297-.16 2.096 1.988 1.558 3.134 1.642.933.068 1.553.231 2.56.256 1.915.047 2.793-.171 4.48-.287 1.514-.103 8.005-.862 8.767.713.944 1.955-.857 2.749-2.367 2.777-3.747.07-6.947-.652-10.24.322.238.83.09 2.013.796 2.55 1.009.77 2.71.33 4.004.33 3.415 0 5.83.032 8.96-.266 1.397-.133 5.209-.656 5.374 1.546.138 1.846-2.157 1.883-3.454 1.915-2.632.065-4.047 0-6.4.005-1.207.002-2.948-.115-2.814 1.587.147 1.873 3.131 1.293 4.414 1.293h11.2c1.08 0 3.038-.36 3.417 1.007.952 3.438-7.518 2.192-9.497 2.193-.959 0-2.833-.269-3.006 1.007-.348 2.571 2.425 2.512 4.286 2.513h11.2c1.268 0 2.772-.433 3.325.741.584 1.238-.481 2.078-1.727 2.133-2.564.113-7.558-.912-9.816.2-.716.351-.862 1.192-.639 1.999.396 1.43 2.13 1.007 3.417 1.007h11.52c1.608 0 3.941-.43 4.094 1.6.118 1.584-1.428 1.597-2.814 1.6-1.215.002-2.657-.052-3.84.029-.874.06-1.62.273-2.56.25-1.272-.032-3.803-.967-3.803 1.321 0 1.945 2.104 1.6 3.483 1.6h11.52c1.573 0 4.406-.481 4.106 1.903-.242 1.933-3.639 1.297-5.066 1.297-5.283 0-12.219 1.176-17.28-.32.38-1.323.716-4.812-.742-5.747-1.534-.983-3.647.58-5.145-.654-1.442-1.188.41-4.063-.837-5.566-1.23-1.48-4.13.293-5.563-.842-1.357-1.075.092-3.979-.842-5.263-1.136-1.561-4.153.007-5.558-1.133-1.217-.989-.094-3.768-.706-5.013-.822-1.671-3.134-.364-4.908-.882-1.895-.553-1.29-2.226-1.3-3.7-.008-1.342-.783-3.733-2.686-2.231-.714.563-.512 1.77-.513 2.551-.004 2.037-.999 6.25 1.606 6.673 1.709.277 4.236-.763 4.686 1.054.51 2.056-1.643 2.153-3.092 2.185-1.081.024-4.564.215-2.871 2.375 1.163 1.484 7.469.512 9.27.513 1.185 0 2.95-.276 3.147 1.297.24 1.912-1.407 1.9-2.826 1.903-2.04.004-10.259-1.221-9.867 1.903.22 1.744 2.52 1.297 3.787 1.297h11.84c1.325 0 5.084.289 3.191 2.687-.713.903-2.825.513-3.831.513h-10.88c-1.521 0-4.674-.316-4.052 2.193.418 1.688 4.341 1.007 5.652 1.007h15.36c1.543 0 4.74-.6 4.426 1.903-.248 1.977-3.658 1.297-5.066 1.297-5.621 0-10.862.084-16 .307-1.747.076-4.591-.648-4.414 1.6.175 2.224 5.479 1.293 6.974 1.293h15.04c1.603 0 3.748-.337 3.466 1.903-.258 2.058-4.234 1.297-5.706 1.297h-15.04c-1.413 0-4.271-.519-4.692 1.297-.55 2.374 2.615 1.903 4.052 1.903h11.84c1.353 0 3.626-.12 3.32 1.903-.274 1.815-3.101 1.297-4.28 1.297h-11.2c-1.002 0-3.116-.39-3.646.742-1.125 2.402 2.072 2.457 3.326 2.458 1.742 0 9.866-1.09 9.172 1.903-.37 1.597-1.956 1.296-3.412 1.297-2.034 0-7.771-.982-8.951.513-1.15 1.457.261 2.622 1.592 2.68 1.432.064 4.704-.663 4.704 1.607 0 1.07-.885 1.498-1.827 1.581-1.059.094-3.622-.538-4.47.532-1.025 1.295-.891 8.437.97 8.718 1.35.204 2.135-.328 2.19-1.557.047-1.022-1.04-3.866.454-4.601 1.485-.73 4.532.704 5.649-.706.712-.899.312-2.378.33-3.327.015-.772-.079-1.644.74-2.047 1.768-.87 4.364.513 5.33-.935 1.239-1.856-.72-3.404.658-5.145 1.52-1.92 3.81 1.003 5.422-1.026.822-1.034-.133-4.32.662-5.374 1.11-1.472 5.036.282 6.058-1.255.97-1.46-.848-3.642.338-5.145.778-.986 3.36-.513 4.47-.513h12.16c1.33 0 4.212-.502 5.166.513 2.287 2.433-1.79 2.687-3.245 2.687h-12.16c-1.544 0-4.076-.188-3.417 2.193.552 1.994 8.056 1.006 9.817 1.007 1.184 0 2.949-.276 3.146 1.297.322 2.565-2.887 1.903-4.426 1.903h-10.88c-1.038 0-3.37-.525-3.966.741-.853 1.815 1.085 2.414 2.366 2.454 2.125.067 5.525 0 7.68.005 1.132.002 4.277.5 2.551 2.687-.656.83-1.76.513-2.871.513-3.576.002-7.292 0-10.88 0-1.322 0-4.621-.571-5.012 1.007-.847 3.42 8.088 2.156 10.132 2.195 1.37.025 3.23 1.003 2.23 2.376-.639.877-2.576.49-3.51.535-.948.046-1.614.233-2.56.274-2.386.105-5.826.013-8.32.013-1.523 0-4.275-.712-4.692.998-.472 1.934 1.404 2.182 2.772 2.2 2.373.034 5.685-.094 7.998.008 1.145.05 2.433.625 1.727 2.132-.463.99-2.153.983-3.005.942-3.815-.188-7.532-.22-11.52-.2-1.389.007-4.266-.27-4.414 1.612-.143 1.816 1.892 1.587 3.134 1.588 2.196 0 9.532-1.241 9.828 1.6.189 1.812-2.278 1.6-3.748 1.6-4.264 0-8.538-.03-12.8 0-1.377.009-3.613.477-2.686 2.458.61 1.302 3.754.742 4.926.742h12.16c1.233 0 3.642.326 4.698-.193 1.188-.585.765-2.261.73-3.647-.018-.747-.297-1.674.462-2.231 1.384-1.017 4.063.43 5.437-.658 1.49-1.18-.268-4.157.842-5.558 1.2-1.515 4.114.301 5.558-.842.914-.724.497-2.571.514-3.511.011-.571-.05-1.25.328-1.727 1.514-1.913 3.283.394 5.33-.935 1.793-1.165-.411-5.235 1.748-5.877 1.666-.494 3.257.5 4.651-.43 1.318-.88.672-2.423.748-4.15.06-1.37 1.651-2.998 2.865-1.18 1.186 1.777 1.008 8.366-1.277 8.785-1.53.28-4.235-.727-4.686 1.08-.514 2.056 1.643 2.185 3.092 2.193 1.1.006 5.013.579 2.687 2.614-.854.748-5.274.603-6.207.573-1.257-.04-5.522-1.368-6.151.7-.372 1.222.555 2.073 1.677 2.175 3.032.275 6.228-.233 9.272.037 1.413.126 2.415 1.512 1.593 2.723-.492.723-1.299.754-2.231.757-2.325.008-4.472-.34-6.72-.29-1.96.044-3.348.32-5.44.311-1.291-.006-3.937-.777-4.372 1.002-.578 2.362 2.666 1.879 4.052 1.879h11.84c1.562 0 3.672.017 3.097 2.205-.476 1.806-2.709 1.333-4.377 1.313-1.357-.016-2.216-.249-3.52-.306-3.754-.164-8.037-.012-11.84-.012-1.692 0-6.223-.822-6.014 1.902.158 2.067 4.546 1.298 6.014 1.298 5.577 0 10.916-.006 16.32.21 1.232.05 2.506-.417 3.19.552 1.956 2.769-3.468 2.438-4.79 2.438h-16.32c-1.03 0-2.848-.305-3.71.328-.627.461-.634 1.435-.268 2.13.697 1.324 3.657.742 4.938.742h14.72c1.472 0 5.448-.762 5.706 1.297.314 2.498-2.836 1.903-4.426 1.903h-10.56c-1.008 0-3.131-.374-3.831.513-1.802 2.282 1.748 2.687 3.19 2.687h11.84c1.124 0 3.34-.426 3.738 1.007.57 2.062-1.293 2.19-2.777 2.193-2.084.004-10.573-1.176-10.187 1.902.198 1.572 1.94 1.297 3.147 1.298 2.111 0 7.728-1.002 9.407.328.89.706.571 2.453-.495 2.77-1.599.475-6.177-.913-5.289 2.294.562 2.03 4.172.414 5.555 1.336 1.171.782 1.398 7.7.229 8.623-1.913 1.51-2.677-.872-2.687-2.231-.01-1.45.243-2.995-1.299-3.419-1.444-.396-3.356.617-4.588-.614-1.715-1.715.979-4.068-1.255-5.559-1.123-.749-4.832.217-5.465-1.07-.95-1.93.63-3.378-.837-5.145-1.153-1.388-4.282.318-5.44-1.026-1.248-1.449.146-3.971-.965-5.374-1.245-1.572-4.498.545-5.742-1.026-1.122-1.417.65-4.376-.842-5.559-.99-.783-3.413-.328-4.607-.328h-12.16c-1.16 0-3.982-.512-4.791.513-2.01 2.546 2.204 2.687 3.51 2.687h12.16c1.476 0 3.45-.028 3.413 1.903-.03 1.608-1.936 1.297-3.092 1.297-2.04.001-10.259-1.219-9.867 1.903.236 1.875 3.087 1.297 4.427 1.297h10.88c1.014 0 3.1-.388 3.647.742.932 1.925-.927 2.448-2.367 2.458-1.823.012-10.883-1.115-10.132 1.874.398 1.586 3.48 1.006 4.692 1.006 2.985 0 5.77.32 8.64.32 1.5 0 4.708-.875 5.75.742.587.913.11 1.92-.678 2.265-2.464 1.077-6.233.187-9.232.193-1.528.003-3.345.141-2.777 2.193.411 1.485 3.155 1.007 4.377 1.007h10.88c1.003 0 3.113-.39 3.645.742.763 1.621-.861 2.407-2.045 2.431-1.314.027-3.038-.205-4.48-.269-2.483-.11-4.124-.094-6.08.616.4 1.336-.063 2.68 1.926 2.861 1.64.15 3.83.02 5.434.02h5.12c1.402 0 5.654-.836 6.71.512.876 1.117-.15 2.383-1.276 2.486-3.124.284-7.094-.935-10.187-.017-1.017.302-1.183 1.456-.905 2.41.394 1.356 2.522.885 3.738.963 1.311.084 2.292.045 3.52.045h8.32c1.385 0 5.008.384 3.191 2.687-.96 1.216-4.47.477-6.071.509-2.007.039-2.988-.224-4.8-.303-2.541-.112-7.822.59-10.193-.115-1.126-.334-.994-1.337-1.007-2.458-.013-1.084.116-1.95-.422-2.778-.548-.843-5.087-.88-5.65-1.575-1.044-1.288.11-3.68-.977-5.054-1.555-1.962-3.352.827-5.24-1.026-1.432-1.406-.001-3.911-1.16-5.374-1.08-1.364-4.415.063-5.558-.842-1.332-1.055.213-4.226-.842-5.558-1.088-1.373-3.9-.003-5.33-.706-2.608-1.284 1.536-7.502-3.941-5.887.385 2.42-.802 6.935.649 8.767.976 1.232 3.375.209 4.743.615 1.165.346 1.411 2.342.266 2.905-1.584.78-3.925 0-5.658.513.274.89.163 1.953 1.062 2.551 1.648 1.097 6.207.329 8.218.33.96 0 2.765-.45 3.325.74.9 1.913-1.153 2.153-2.365 2.191-2.611.083-4.452.248-7.36.268-1.438.01-3.389.769-2.231 2.395.675.949 2.808.493 3.83.501 3.384.026 6.817-.016 10.24-.016 1.465 0 4.143-.561 4.604 1.299.205.828-.058 1.676-.836 2.028-1.104.498-2.461.193-3.767.193h-10.24c-1.192 0-2.404-.306-3.418.193-.676.333-.887 1.226-.548 1.946.637 1.35 3.553.741 4.926.741h14.72c1.483 0 5.29-.608 5.64 1.297.444 2.43-3.794 1.903-5.32 1.903h-15.68c-1.515 0-4.763-.668-4.763 1.6 0 2.425 4.118 1.6 5.723 1.6h15.36c1.415 0 4.335-.582 4.68 1.297.449 2.456-3.765 1.903-5.32 1.903h-15.36c-1.277 0-4.566-.62-5.017 1.007-.728 2.63 2.466 2.193 4.057 2.193h11.52c1.166 0 3.111-.271 3.645 1.007 1.034 2.475-2.45 2.193-3.965 2.193h-11.52c-.97 0-3.151-.393-3.634.742-.643 1.51.775 2.396 2.035 2.452 2.708.12 7.416-.873 9.871.2 1.154.503 1.28 1.998.266 2.677-.83.556-2.445.33-3.418.33h-3.2c-1.901 0-3.928-.222-5.76.32.235.891.081 2.22 1.054 2.686 1.433.687 5.003-.817 5.292 1.49.394 3.138-4.287 1.26-5.513 2.232-1.334 1.056-.525 4.589-.513 6.391.006.883-.111 2 .742 2.55.888.572 1.89.181 2.265-.677.553-1.267-.587-4.451.935-5.2 1.53-.753 3.849.518 5.145-.75 1.807-1.77-.907-3.983 1.026-5.514.981-.777 4.735.197 5.558-.842 1.609-2.031-.899-3.409.658-5.374.73-.921 5.133-.257 5.742-1.026 1.622-2.049-.853-2.84.207-5.145.826-1.799 4.339-.002 5.689-1.07 1.563-1.239-.522-4.557 1.255-5.743 1.14-.761 3.373-.329 4.698-.329h12.16c1.187 0 4.295-.562 4.927.742 1.267 2.618-2.155 2.458-3.647 2.458h-11.84c-1.158 0-3.706-.457-3.695 1.297.02 3.185 7.89 1.888 10.095 1.903 1.276.01 2.785.078 2.785 1.6 0 1.969-2.594 1.6-4.065 1.6h-11.2c-1.128 0-3.34-.426-3.737 1.007-.97 3.5 8.387 2.11 10.457 2.2 1.213.052 2.35.64 2.12 1.896-.337 1.837-2.867 1.297-4.36 1.297h-11.2c-1.326 0-3.02-.423-3.417 1.007-.304 1.098.132 1.964 1.196 2.146 2.946.502 6.882-.208 9.895.066 1.143.104 1.697.731 1.552 1.884-.238 1.9-2.874 1.297-4.426 1.297h-10.88c-1.06 0-3.396-.437-3.967.742-.877 1.811.734 2.432 2.047 2.457.773.014 1.477 0 2.24 0 1.943 0 8.602-1.032 8.602 1.6 0 1.558-1.262 1.592-2.522 1.6-1.086.007-1.829 0-2.88 0h-9.28c-1.499 0-4.763-.674-4.763 1.6 0 2.2 2.722 1.6 4.123 1.6h5.44c1.15 0 3.04-.35 3.417 1.008.192.696.085 1.471-.41 1.864-.65.514-1.509.327-2.367.329-2.076.004-4.958 0-7.04 0h-4.8c-1.556 0-5.928-.184-4.151 2.42.841 1.234 3.447.516 4.79.476 4.005-.118 8.143-.016 12.16-.016 1.195 0 3.617.455 4.608-.33 1.331-1.054-.158-4.484 1.026-5.422 2.079-1.646 4.139 1.057 5.558-1.07.552-.828.326-1.798.329-2.778.002-.928-.2-1.987.513-2.552 1.284-1.016 4.897.644 5.824-1.07.756-1.4-.869-4.185.576-5.33 1.218-.964 4.28.21 5.374-.657 1.45-1.149-.11-3.67.706-5.33.711-1.446 4.203-.313 5.465-.935 1.367-.672.68-2.736.748-4.285.053-1.195 1.186-2.773 2.68-1.593 1.07.845.514 2.986.514 4.472 0 1.194.551 3.175-.329 4.286-1.524 1.925-5.634-1.24-6.018 1.81-.127 1.013.266 1.69 1.246 1.856 1.146.196 2.982-.18 4.093.15 1.067.316 1.424 1.641.679 2.585-.521.66-1.775.511-2.551.513-2.453.005-4.907-.017-7.36 0-1.246.009-2.337-.052-2.507 1.297-.12.966.234 1.683 1.246 1.855 3.032.517 7.2-.417 10.202.095 1.131.193 1.677 1.23 1.106 2.41-.56 1.154-1.985.742-3.007.743h-9.92c-1.341 0-5.48-.79-5.977 1.007-.728 2.63 2.466 2.193 4.057 2.193 4.18 0 8.423-.028 12.48 0 1.37.009 2.608.076 2.494 1.6-.163 2.172-3.123 1.6-4.734 1.6h-15.36c-1.642 0-2.696-.2-4.141.047-.972.166-1.627.982-1.105 2.091.783 1.66 8.204.742 10.046.742h41.28c.963-.002 2.468.204 2.772-1.006.64-2.55-3.433-1.874-4.692-1.874h-15.68c-1.469 0-4.816.7-5.067-1.298-.247-1.972 1.63-1.902 3.147-1.902h11.84c1.591 0 4.785.435 4.057-2.193-.43-1.553-3.158-1.007-4.377-1.007h-10.56c-1.053 0-3.39.448-3.967-.742-.932-1.925.926-2.448 2.367-2.458 2.03-.014 11.098 1.277 10.137-2.193-.358-1.293-2.063-1.007-3.097-1.007-1.81-.001-8.099.972-9.271-.514-.64-.81-.328-2.286.678-2.585 1.634-.485 5.71.942 5.34-2.004-.307-2.44-4.589-.64-5.834-1.626-1.287-1.02-1.096-6.953-.32-8.53.73-1.484 2.74-.728 2.96.557.25 1.469-.632 3.829.56 4.773 1.37 1.084 4.402-.618 5.558.842 1.122 1.416-.651 4.375.842 5.558 1.437 1.138 4.016-.516 5.374.842 1.357 1.357-.296 3.937.842 5.373 2.036 2.572 6.861-1.668 6.045 5.02-.514 3.009 4.338.975 5.913 2.222 1.428 1.131-.229 3.886.842 5.238.678.856 2.557.513 3.51.513h9.92c1.743 0 9.101 1.036 8.895-1.587-.146-1.851-2.664-1.293-4.094-1.293h-10.56c-1.23 0-3.058.399-3.967-.513-1.597-1.6.392-2.66 1.727-2.685 2.847-.054 5.391-.268 8.32-.323 1.308-.025 3.13-.874 1.682-2.366-1.145-1.179-3.539-.513-4.882-.513h-10.24c-1.124 0-3.34.426-3.737-1.007-.73-2.635 2.488-2.193 4.057-2.193h4.8c1.474 0 4.455.4 3.737-2.193-.427-1.54-3.174-1.007-4.377-1.007h-10.88c-1.181 0-2.978.319-3.553-1.007-.804-1.856.858-2.183 2.273-2.193 2.873-.02 6.114.422 8.946-.047 1.086-.18 1.732-1.105 1.498-2.146-.416-1.851-3.517-1.007-5.004-1.007h-3.2c-2.75 0-5.564.006-8.32 0-.86-.002-2.23.2-2.687-.742-1.773-3.662 8.227-2.446 10.047-2.458 1.302-.01 3.547-.57 2.474-2.458-.635-1.118-2.69-.742-3.754-.742h-10.88c-1.44 0-4.443.603-4.443-1.6 0-2.755 8.206-1.586 10.203-1.6 1.128-.008 2.882-.142 2.694-1.6-.22-1.7-1.98-1.597-3.334-1.6-3.765-.008-7.772-.14-11.52.024-1.129.05-2.408.22-3.473-.121-.82-.263-1.061-.95-.954-1.806.233-1.855 2.6-1.297 4.107-1.297h13.12c1.188 0 3.949-.507 4.796.513 1.28 1.54-.54 4.445.838 5.558 1.362 1.1 3.687-.314 5.144.658 1.777 1.186-.308 4.504 1.255 5.742 1.423 1.127 3.93-.428 5.386.658 1.678 1.251-.356 4.06.83 5.558 1.218 1.538 4.449-.322 5.87.842 1.185.97-.016 3.398.532 4.772.952 2.39 3.968.473 5.585 1.628 2.327 1.662-.43 3.095 1.133 5.266.471.655 1.639.917 2.358.243.966-.905 1.118-7.824 0-8.71-1.15-.91-3.584-.045-4.88-.43-1.388-.412-1.023-1.521-1.327-2.778 1.368-.404 2.741-.31 4.16-.32 1.412-.01 4.228-1.821 1.818-3.007-2.628-1.293-7.554.052-10.452-.212-1.22-.11-1.853-.91-1.503-2.174.365-1.316 1.93-1.006 3.097-1.007 2.052 0 7.453.966 9.087-.329 2.44-1.933-1.463-2.87-2.687-2.871-5.004-.002-11.524 1.098-16.32-.32.119-.728-.084-2.037.526-2.551.797-.672 2.665-.329 3.634-.329h9.6c1.702 0 5.665.86 5.665-1.6 0-2.202-4.142-1.6-5.665-1.6h-15.36c-1.514 0-4.762.668-4.762-1.6 0-2.424 4.118-1.6 5.722-1.6h15.36c1.45 0 4.337.574 4.68-1.297.454-2.48-4.002-1.903-5.64-1.903-2.524 0-5.312.19-7.68.182-3.526-.012-6.339-.123-9.92-.044-1.237.027-2.522-.134-2.522-1.737 0-2.417 4.115-1.601 5.722-1.601h15.04c1.278 0 4.312.56 4.926-.741 1.024-2.173-2.6-2.387-3.966-2.446-3.655-.16-7.817-.013-11.52-.013-1.34 0-3.574.318-3.682-1.587-.112-1.964 3.677-1.24 4.962-1.321 2.017-.129 3.983.052 6.08.027.999-.012 1.926-.195 2.88-.173.805.018 1.391.157 2.24.166 1.228.014 2.952.245 3.147-1.29.294-2.329-2.116-1.902-3.787-1.902-3.958 0-8.494 1.452-9.28-2.88 2.665-.788 6.05-.319 9.28-.32 1.14 0 2.84.208 3.511-.779.633-.93.134-2.078-.678-2.32-2.157-.64-6.228 1.19-5.557-2.614.326-1.846 4.695-.555 5.822-1.176.776-.427.724-1.173.74-2.071.018-.937.002-1.636.002-2.56 0-.81.031-1.371-.006-2.24-.059-1.34-.56-2.391-2.216-2.186-2.536.314-.375 5.235-2.306 6.109-1.765.798-4.323-.859-5.198.979-.676 1.419.858 3.368-.203 4.854-1.252 1.753-3.697.036-5.65.997-1.48.728-.18 4.131-1.07 5.465-1.242 1.86-4.088-.094-5.558 1.07-.902.715-.23 3.985-.706 5.039-1.072 2.377-3.264.143-5.465 1.226-.895.44-.736 1.484-.742 2.367-.01 1.573.58 3.622-1.606 3.821-1.703.155-3.403.02-5.114.02h-9.92c-1.281 0-4.23.476-5.247-.33-2.494-1.976 1.48-2.87 2.687-2.87h9.92c1.537 0 6.042.938 6.042-1.6 0-2.694-7.909-1.597-9.882-1.6-1.42-.004-3.067.008-2.827-1.904.236-1.875 3.087-1.297 4.427-1.297h11.2c1.08 0 3.038.36 3.417-1.007.681-2.462-1.923-2.193-3.417-2.193-2.186 0-5.26.168-7.359-.019-1.173-.104-2.163-.763-1.813-2.174.381-1.54 3.2-1.007 4.372-1.007h10.88c1.03 0 3.146.421 3.818-.513 1.072-1.488-.835-2.66-2.218-2.685-2.543-.049-4.68.012-7.36-.002-1.416-.007-3.611-.116-3.092-2.194.383-1.536 2.854-1.006 4.372-1.006 2.394 0 4.848-.136 7.04-.172 1.087-.018 2.061.122 3.2.11 1.122-.011 2.66.087 3.738-.451.963-.48.863-2.07 0-2.494-1.768-.87-4.187-.193-6.778-.193-1.675 0-3.267.246-4.273-.193-.897-.392-1.545-2.184-.265-2.814 1.718-.846 4.945-.174 6.618-.194 2.106-.025 4.64-.319 7.04-.319 1.227 0 4.302.546 4.692-1.006.469-1.865-1.49-1.871-2.772-1.874-1.762-.004-9.264.989-9.817-1.007-.728-2.63 2.466-2.193 4.057-2.193 4.175 0 10.08.992 14.061-.102 1.538-.422 1.741-2.754 0-3.05-4.824-.822-10.443-.048-15.341-.048-1.382 0-4.433-.57-5.567.329-1.493 1.182.28 4.141-.842 5.558-1.245 1.572-4.498-.545-5.742 1.026-1.126 1.422.468 3.953-.658 5.374-1.15 1.452-4.2-.21-5.584.842-1.567 1.19.278 3.69-.816 5.33-.977 1.463-3.627.416-5.064.843-2.172.645-.22 4.377-1.336 5.785-1.204 1.52-4.16-.265-5.558.842-1.57 1.244.139 3.128-.706 5.064-.363.832-1.625 1.357-2.494.678-1.103-.862-1.046-8.45.229-9.078 1.483-.73 5.306.885 5.604-1.49.368-2.928-3.702-1.519-5.339-2.005-1.006-.298-1.318-1.774-.678-2.585 1.172-1.485 7.462-.512 9.27-.513 1.137 0 3.015.27 3.135-1.297.136-1.774-1.475-1.893-2.814-1.903-2.112-.014-10.266 1.295-9.867-1.902.218-1.745 2.52-1.298 3.787-1.298h11.84c1.301 0 5.26-.427 3.007-2.687-.87-.871-2.835-.513-3.967-.513h-10.88c-1.702 0-4.042.135-3.787-1.903.25-1.99 3.198-1.297 4.747-1.297h15.36c1.677 0 6.163.79 5.337-2.193-.47-1.699-4.31-1.007-5.657-1.007h-15.04c-1.524 0-4.502.648-4.747-1.297-.09-.714.04-1.39.689-1.71.935-.46 2.696-.193 3.738-.193h15.36c1.55 0 6.281.81 5.652-1.903-.463-1.995-4.41-1.297-5.972-1.297-1.603 0-3.562-.078-5.12.029-.771.052-1.432.234-2.24.234-.823 0-1.445-.191-2.24-.23-1.359-.066-3.368-.026-4.8-.033-1.363-.006-4.301.788-4.926-.688-.819-1.937 1.21-2.49 2.686-2.51 4.155-.059 8.324-.002 12.48-.002 1.43 0 4.674.27 3.645-2.193-.77-1.845-3.617-.723-4.925-.691-3.364.082-7.49.045-10.88.003-1.08-.014-2.24.09-2.871-.804-.87-1.232.246-2.527 1.592-2.68 2.924-.333 6.012.089 8.957-.041 1.177-.052 2.149-.536 1.814-1.868-.288-1.146-1.604-1-2.452-1.006-.92-.006-1.61 0-2.56 0-1.624 0-5.836.726-7.167-.329-2.093-1.659.852-2.862 2.047-2.87 1.554-.012 4.316.143 3.732-2.195-.478-1.912-3.932-.609-5.285-1.2-1.51-.658-1.671-7.644-.678-8.893.654-.823 2.07-.48 2.542.229 1.239 1.855-.796 3.523.842 5.1 1.216 1.168 4.763-.603 5.694 1.3.67 1.37-.582 4.309.706 5.329 1.184.938 4.712-.226 5.558.842 1.413 1.784-.964 3.808.842 5.238 1.147.909 4.206-.325 5.374.842 1.366 1.366-.486 4.36 1.026 5.558 1.421 1.126 3.952-.468 5.374.658 1.571 1.244-.546 4.497 1.026 5.742.99.784 3.413.329 4.607.329h12.48c1.187 0 4.295.562 4.927-.742 1.33-2.748-2.468-2.458-3.967-2.458h-11.52c-1.31 0-3.565.51-3.787-1.29-.384-3.129 7.813-1.91 9.867-1.91 1.362 0 3.564.134 3.092-1.903-.408-1.758-3-1.297-4.372-1.297h-11.2c-1.014 0-3.1.388-3.647-.742-.932-1.925.926-2.448 2.367-2.458 1.837-.013 10.874 1.12 10.132-1.875-.516-2.082-4.018-1.185-5.332-1.06-2.624.25-7.372.055-10.24.055-1.119 0-2.23.287-3.007-.33-1.785-1.414.418-2.911 1.727-2.894 1.437.02 2.658-.294 4.16-.294 1.446 0 2.483.336 3.84.3 1.186-.03 2.895-.408 2.452-2.176-.385-1.536-2.33-1.006-3.732-1.006-4.109 0-9.46.334-13.439-.019-.996-.088-1.769-.43-1.855-1.581-.089-1.186.622-1.488 1.54-1.583 1.087-.112 1.84-.208 2.874-.193 2.14.033 9.422.606 8.561-1.524-1.235-1.736-4.695-1.5-6.321-1.5h-7.68c-1.217 0-4.35.452-5.111-.513-.92-1.164-.155-2.448.97-2.64 1.37-.233 3.537-.047 4.78-.047h2.88c1.595 0 4.923.176 3.648-2.458-.548-1.13-2.633-.742-3.647-.742h-11.52c-1.508 0-4.914.158-3.647-2.458.617-1.273 3.733-.742 4.927-.742h12.16c1.189 0 3.609-.461 4.607.329 1.571 1.245-.546 4.498 1.026 5.742 1.592 1.261 3.785-.6 5.374.658 1.478 1.17-.46 4.246 1.026 5.422 1.422 1.126 3.948-.463 5.374.658 1.827 1.436-.168 3.88 1.162 5.558 1.015 1.282 3.906-.079 5.239.866.927.657.78 2.301.82 3.167.036.794-.103 1.513.205 2.138.681 1.385 3.916.332 5.145.935 1.319.648.977 3.528 1.08 4.6.117 1.212 1.753 2.482 2.853 1.094.995-1.256.782-8.256-.679-8.894-1.352-.59-4.766.688-5.289-1.2-.883-3.189 3.773-1.844 5.29-2.295 1.272-.377 1.456-1.974.265-2.769-2.108-1.407-5.53-.035-7.578-.01-1.666.02-3.894.574-4.607-1.032-.445-1.003-.07-2.24 1.106-2.44 2.946-.501 6.272.008 9.26-.048 1.136-.022 3.144-.565 2.218-2.137-.711-1.207-3.128-.742-4.457-.742h-10.88c-1.124 0-3.34.425-3.737-1.007-.497-1.794.81-2.166 2.137-2.191.828-.016 1.44-.001 2.24-.001h10.24c1.399-.001 5.057.301 4.55-1.908-.437-1.9-3.41-1.292-4.87-1.292h-15.36c-1.783 0-6.108.461-5.155-2.459.5-1.535 5.445-.741 6.755-.741 4.815 0 8.855-.298 13.44-.32 1.248-.006 4.602.624 5.012-1.006.623-2.479-2.985-1.874-4.372-1.874h-16c-1.649 0-5.399.742-5.067-1.903.238-1.89 3.262-1.544 4.747-1.58 5.115-.125 10.243-.037 15.36-.037 1.558 0 5.198.81 5.652-1.007.218-.874-.166-1.624-.9-1.956-.865-.391-2.204-.238-3.152-.237-3.979.005-7.187.32-11.2.32-1.588 0-4.43.67-4.107-1.903.243-1.932 2.884-1.297 4.427-1.297 2.686 0 6.025.102 8.64-.013.945-.041 1.611-.224 2.56-.27 1.246-.062 3.418.481 3.72-1.043.145-.737-.216-1.388-.888-1.681-2.075-.907-5.13-.193-7.632-.193-1.475 0-4.754.703-4.427-1.903.19-1.513 1.597-1.295 2.827-1.297 1.917-.004 4.527.069 6.4-.013 1.223-.054 2.996.332 3.645-1.049.495-1.052-.102-1.92-1.104-2.091-1.524-.26-5.384.854-5.384-1.648 0-1.533 1.051-1.57 2.203-1.643 1.755-.11 4.042.518 4.432-1.883.345-2.118.23-4.669-.374-6.666-.286-.946-1.536-1.245-2.265-.678-.739.574-.518 1.962-.518 3.375-.336 2.248-.68 2.665-2.235 2.695-1.163.022-2.917-.64-3.831.514-1.361 1.719.802 3.72-.842 5.33-1.194 1.168-4.188-.044-5.375.886-1.62 1.269.356 4.177-1.025 5.558-1.145 1.144-4.387-.193-5.694.842-1.493 1.182.28 4.141-.842 5.558-1.073 1.355-3.909.007-5.33.706-2.028.998.546 5.016-1.483 6.014-1.288.634-3.609.193-5.018.193h-11.52c-1.195 0-4.305.542-4.927-.742-1.183-2.443 2.017-2.458 3.647-2.458h11.84c1.378 0 3.482.345 3.482-1.6 0-2.737-7.914-1.596-9.882-1.6-1.435-.003-3.065-.007-2.827-1.903.243-1.931 3.353-1.297 4.747-1.297 4.14 0 7.899.119 11.84-.005.958-.03 1.945-.054 2.365-1.028.857-1.986-1.336-2.164-2.685-2.167-2.005-.004-10.773 1.26-9.817-2.193.427-1.541 3.174-1.007 4.377-1.007h10.88c1 0 3.116.388 3.645-.742.834-1.78-1.012-2.431-2.365-2.457-2.028-.038-11.102 1.292-10.137-2.194.427-1.541 3.174-1.007 4.377-1.007h10.56c1.137 0 3.142.32 3.967-.513 1.117-1.13.14-2.44-1.093-2.64-2.923-.475-6.303.007-9.274-.049-1.405-.026-2.873-.75-2.047-2.456.547-1.13 2.633-.742 3.647-.742h11.2c1.561 0 4.409.506 4.106-1.903-.197-1.573-1.962-1.297-3.146-1.297-1.769 0-8.953.99-9.497-1.004-.686-2.514 2.157-2.196 3.737-2.196h11.2c1.6 0 5.19.159 3.965-2.458-.61-1.305-3.753-.742-4.925-.742h-11.84c-1.34 0-3.532-.4-4.698.377-1.826 1.219.336 4.434-1.255 5.694-1.178.933-4.293.034-5.374.965-1.394 1.201.473 4.248-1.026 5.435-1.276 1.01-4.177-.286-5.411.658-1.723 1.317.353 3.252-.67 5.33-.667 1.357-4.15.288-5.464.934-2.05 1.008.08 3.4-.935 5.465-.702 1.427-4.093.26-5.465.935-1.276.628-.717 2.57-.744 3.967-.024 1.295-1.41 3.568-2.87 1.727-.851-1.076-.328-3.106-.328-4.287 0-1.348-.417-3.956 1.007-4.378 1.96-.582 4.714.976 5.285-1.415.67-2.807-4.218-1.732-5.55-2.4-.943-.471-1.105-2.037-.266-2.678 1.583-1.211 7.1-.328 9.124-.33 1.052 0 2.737.291 3.097-1.006.597-2.159-1.522-2.249-3.097-2.18-.879.038-1.672.248-2.56.224-1.562-.042-2.751-.225-4.48-.237-1.408-.01-3.177-.418-2.366-2.139.445-.942 3.011-.741 4.286-.741 3.833 0 6.883-.32 10.56-.32 1.126 0 3.487.387 3.91-1.007.698-2.29-1.967-1.89-3.27-1.874-3.48.04-7.07 0-10.56 0-1.422 0-3.16.407-4.378-.192-.779-.383-.873-1.515-.64-2.32.476-1.647 3.543-1.007 5.018-1.007h15.04c1.675 0 6.163.79 5.337-2.193-.565-2.04-4.99-.724-6.297-.692-4.812.118-10.177.005-15.04.005-1.664 0-3.73.518-4.198-1.297-.704-2.735 3.598-1.903 5.478-1.903 5.332 0 10.668.009 16 0 1.47-.002 4.263.247 4.094-1.907-.169-2.15-3.807-1.3-5.374-1.293-5.054.023-10.383 0-15.36 0-1.493 0-4.147.978-4.697-1.007-.402-1.452.599-2.162 2.137-2.192 4.475-.084 8.964.001 13.44 0 1.47-.001 3.967.049 3.412-2.193-.38-1.531-3.197-1.008-4.372-1.008h-10.88c-1.118 0-3.11.366-3.647-.741-.556-1.148-.037-2.216 1.106-2.411 2.856-.487 6.335.075 9.26-.054 1.161-.05 2.31-.552 2.067-1.896-.263-1.456-1.858-1.295-3.026-1.298-1.918-.004-8.375 1.008-9.498-.741-2.068-3.22 3.669-2.195 5-2.56.82-.226 1.342-.901 1.177-1.801-.489-2.674-4.673-.198-5.95-1.81-1.14-1.44-.205-6.794-.65-8.768 5.541-1.633 1.216 4.546 3.943 5.887 1.408.693 4.716-.471 5.649.707.98 1.238-.18 3.72.522 5.145.662 1.346 4.234.329 5.465.935 2.119 1.042-.276 3.993 1.07 5.693.968 1.222 4.653-.35 5.743 1.027 1.126 1.421-.468 3.952.658 5.373 1.175 1.485 4.162-.263 5.558.842.846.67.498 2.64.514 3.511.016.81-.058 1.672.74 2.178.908.576 1.865.12 2.779.145 1.16.033 1.92.232 3.2.237 1.838.008 2.8-.233 4.48-.307 2.725-.12 8 .907 10.511-.206 1.988-.88.274-2.989-1.233-2.988-1.087 0-1.825.243-2.878.289-3.088.135-7.067.012-10.24.012-1.658 0-4.271.413-4.094-1.902.112-1.467 1.771-1.295 2.814-1.298 2.596-.005 4.845.165 7.68-.014 1.16-.073 3.101-1.152 1.91-2.672-.718-.918-2.22-.514-3.51-.514h-10.24c-1.277 0-4.566.621-5.017-1.007-.573-2.068 1.32-2.19 2.777-2.193 2.353-.005 3.788.03 6.4 0 1.29-.016 4.382-.215 3.325-2.458-.533-1.13-2.641-.741-3.645-.741h-10.88c-1.203 0-3.95.534-4.377-1.007-.956-3.454 7.312-2.168 9.497-2.195 1.265-.015 3.396-.215 3.08-1.906-.32-1.71-3.024-1.292-4.36-1.292h-11.2c-1.253 0-3.023.415-3.417-1.008-.167-.601-.101-1.458.41-1.863 1.617-1.282 6.633-.248 8.767-.342 1.23-.054 3.603.007 3.454-1.895-.136-1.719-2.298-1.292-3.454-1.292h-8.32c-1.939 0-4.074.29-6.061-.048-1.683-.286-1.2-1.43-1.62-2.832 3.79-1.12 9.222-.32 13.12-.32h3.2c1.676 0 4.645-.656 5.888.329 1.295 1.026-.17 4.28.842 5.558.874 1.104 4.668.137 5.558.842 1.978 1.566-.666 3.654.842 5.558.51.644 1.513.507 2.23.512 1.066.007 2.566-.273 3.328.33 1.138.9-.06 4.07.842 5.241.533.692 1.777.711 2.55.71.887-.001 2.176-.524 3.008.129 1.584 1.242-1.047 7.007 2.706 5.967 1.54-.426 1.67-7.916.494-8.847-1.43-1.134-5.513.924-5.834-1.627-.281-2.24 1.77-1.862 3.467-1.907 1.198-.032 4.04-.781 2.55-2.682-.697-.89-2.602-.513-3.51-.513-1.742 0-8.923 1.148-8.923-1.6 0-2.025 2.23-1.751 3.803-1.73 1.9.026 3.744-.174 5.76-.19 1.4-.01 3.28.268 3.134-1.588-.135-1.712-2.516-1.292-3.774-1.292h-11.84c-1.293-.001-4.942-.447-3.191-2.687 1.106-1.416 6.924-.513 8.63-.513h24c2.007 0 9.487-1.555 8.538 1.872-.47 1.7-4.31 1.008-5.657 1.008-3.366 0-5.84.19-8.96.267-1.446.035-2.975-.472-3.939.381-.433.384-.396 1.597-.541 2.232 1.74.514 3.635.32 5.44.32h3.52c.993 0 2.564-.246 3.418.329 1.194.802.515 2.448-.573 2.872-2.422.943-5.983.317-8.605.319-1.133 0-3.012-.28-3.134 1.293-.136 1.758 1.473 1.887 2.814 1.905 1.086.016 2.778-.389 3.327.743.342.707.216 1.89-.549 2.266-1.483.73-3.81-.536-5.145.522-1.245.986-.904 8.46.494 8.847 3.728 1.033 1.085-4.726 2.706-5.942 1.424-1.068 3.978.422 5.374-.683 1.259-.997-.028-4.14.842-5.238.508-.642 1.334-.474 2.23-.542 1.082-.081 2.279.084 3.42-.484.972-.485.739-1.622.74-2.687.003-1.107-.308-2.203.33-3.007.897-1.133 4.069-.086 5.33-.706 2.53-1.246-1.206-5.71 2.662-5.881 2.618-.116 4.074-.212 6.399-.314 2.846-.124 6.077-.012 8.96-.012 1.339 0 4.337-.402 4.925 1.007.964 2.305-2.058 2.193-3.645 2.193h-11.84c-1.416 0-3.803-.443-3.803 1.6 0 2.793 8.787 1.562 10.843 1.601 1.433.027 2.368.453 2.186 1.901-.23 1.838-2.584 1.298-4.106 1.298h-11.2c-1.022 0-3.11-.368-3.647.741-.93 1.922.913 2.448 2.367 2.458 2.031.014 11.098-1.277 10.137 2.193-.44 1.587-3.457 1.008-4.697 1.008h-10.56c-1.141 0-3.073-.268-3.831.804-1.275 1.804.93 2.386 2.23 2.395 2.976.02 6.33-.452 9.262.048 1.126.192 1.607 1.375 1.106 2.41-.593 1.225-3.183.743-4.287.743-4.532 0-8.252.022-12.48.288-1.218.076-2.624-.062-2.494 1.616.11 1.423 1.735 1.4 2.814 1.389 1.87-.022 9.88-1.235 10.186 1.204.29 2.307-2.255 1.903-3.786 1.903-2.853 0-6.517-.16-9.28.028-.939.065-1.611.237-2.56.279-1.313.058-4.219.256-3.326 2.151.602 1.276 3.652.742 4.926.742h11.52c1.452 0 3.709.45 5.018-.193 1.814-.893-.25-4.687 1.255-5.878 1.282-1.016 4.61.356 5.558-.842 1.529-1.93-1.05-4.06.842-5.558 1.085-.86 4.56.417 5.558-.842 1.126-1.422-.468-3.953.658-5.374 1.182-1.493 4.141.28 5.558-.842 1.494-1.183-.268-4.158.842-5.558.953-1.204 3.736-.221 5.063-.615 2.001-.594.496-4.124 1.2-5.557.421-.854 1.867-.908 2.495-.412.38.299.443.712.494 1.277.07.778.019 1.43.019 2.234 0 1.235.577 4.567-.513 5.43-1.322 1.047-5.247-.79-5.677 1.337-.625 3.095 3.068 1.93 4.891 2.24 1.163.198 1.743 1.66.97 2.64-1.172 1.485-7.462.512-9.271.513-1.035 0-2.739-.286-3.097 1.007-.96 3.47 8.106 2.179 10.137 2.193 1.44.01 3.298.533 2.367 2.458-.548 1.132-2.632.794-3.647.767-3.6-.096-7.27-.025-10.88-.025-1.251 0-3.954-.519-4.377 1.007-.634 2.288 2.038 2.193 3.737 2.193h10.88c.9 0 1.692-.032 2.558.006 1.23.054 2.245.647 1.819 2.186-.47 1.7-4.31 1.007-5.657 1.007h-15.04c-1.36 0-4.244-.626-4.697 1.008-.21.755-.07 1.65.639 2 1.174.577 3.4.192 4.698.192h15.04c1.252 0 2.95-.243 4.112.102.71.21.97.727.97 1.498 0 2.124-2.71 1.6-4.442 1.6h-15.36c-1.472 0-5.45-.74-5.707 1.298-.37 2.947 5.857 1.902 7.627 1.902 1.439 0 2.254.002 3.84 0 1.478-.002 2.525-.262 3.84-.262s2.362.26 3.84.262c1.335.002 5.792-.815 6.297 1.008.783 2.828-3.069 2.192-4.697 2.192h-10.24c-1.394 0-3.342-.601-4.138.514-1.49 2.086 2.525 2.658 3.498 2.682 2.261.055 5.775.005 8 .005h3.2c1.286 0 3.953-.522 4.377 1.007.538 1.944-.975 2.182-2.457 2.193-2.261.015-4.757-.001-7.04 0-1.278 0-3.262-.036-3.134 1.587.196 2.484 7.178 1.29 9.214 1.293.901 0 2.367-.069 3.007.557.758.743.766 2.28-.229 2.77-1.657.815-5.815-1.051-5.592 1.78.18 2.288 3.845.83 5.3 1.486 1.274.574 1.032 2.057 1.034 3.327.003 1.683.56 4.349-.558 5.616-.594.674-1.807.673-2.313-.022-1.265-1.735.712-3.5-.842-5.082-1.277-1.301-4.572-.1-5.558-1.345-1.373-1.733.926-3.838-.842-5.238-.64-.507-1.555-.305-2.367-.342-1.014-.046-2.434.155-3.191-.82-1.513-1.946 1.02-4.053-1.362-5.51-1.46-.892-4.235.576-5.358-.886-1.091-1.42.492-4.044-.842-5.378-1.312-1.312-3.712.306-5.054-.805-1.489-1.233.488-4.26-1.026-5.46-.99-.784-3.413-.328-4.607-.328h-12.48c-1.115 0-4.347-.56-4.848.741-.314.817-.16 2.082.74 2.357 2.548.777 6.806.146 9.548.098 1.8-.031 8.682-1.481 8.894 1.292.092 1.216-1.08 1.785-2.174 1.882-3.106.272-5.947-.225-8.954.049-.919.083-1.438.368-1.553 1.278-.284 2.265 2.415 1.903 4.107 1.903 3.097 0 6.965-.056 9.92-.15 1.131-.037 4.01-.385 4.605.89 1.439 3.08-5.514 2.077-6.845 2.168-.92.063-1.6.235-2.56.28-1.14.051-3.668.066-2.686 2.15.534 1.132 2.647.742 3.646.742h10.88c1.356 0 3.98-.511 4.306 1.297.274 1.515-1.154 1.878-2.386 1.901-1.908.036-11.202-1.147-10.37 1.904.44 1.618 2.335 1.298 3.65 1.298h10.88c1.383 0 4.17-.563 4.533 1.297.373 1.905-1.608 1.9-2.933 1.903-2.005.004-10.773-1.26-9.817 2.193.427 1.54 3.174 1.007 4.377 1.007h10.56c1.126 0 3.116-.342 3.83.741.793 1.2-.01 2.325-1.276 2.44-3.063.279-6.2-.11-9.273.025-1.355.06-2.726 1.245-1.592 2.68.692.877 2.834.514 3.83.514 3.618 0 7.267-.042 10.88 0 1.172.015 4.386-.18 4.386 1.612 0 2.104-2.885 1.587-4.385 1.587h-12.16c-1.41 0-3.73.441-5.018-.193-1.843-.906-.05-4.67-1.575-5.878-1.422-1.125-3.953.468-5.374-.657-1.429-1.132.28-4.432-.535-5.558-1.087-1.505-4.135.275-5.545-.842-1.27-1.007.04-4.122-.842-5.238-1.276-1.616-3.754-.25-5.33-1.027-.766-.377-.705-1.14-.744-2.047-.045-1.02.033-2.134-.498-3.098-.895-1.626-4.15-.091-5.386-1.07-.657-.52-.492-1.433-.518-2.232-.03-.993.018-2.165-.496-3.098-.498-.905-2.367-1.03-2.813 0-.473 1.09.108 2.533.114 3.738.007 1.551-.38 4.256 1.007 4.883 1.879.85 4.711-1.054 5.285 1.244.409 1.637-.955 2.105-2.132 2.18-1.294.08-2.05-.212-3.153.115-.933.277-1.308 1.775-.494 2.585.984.98 2.179.3 3.327.222 1.65-.113 3.741-.029 5.44-.028 1.08 0 3.038-.36 3.417 1.007.872 3.149-4.295 2.131-5.977 2.205-1.179.052-1.991.273-3.2.303-1.35.033-4.806.015-3.191 2.463.725 1.098 2.544.75 3.83.74 1.575-.011 2.676-.21 4.16-.293 1.922-.108 4.13-.025 6.08-.025 1.286 0 4.014-.505 4.602 1.007.793 2.042-1.691 2.19-3.001 2.193-4.053.008-8.107 0-12.16 0-1.412 0-4.803-.014-3.646 2.458.651 1.39 4.583.742 5.886.742h7.04c1.168 0 1.935.011 3.2-.001 1.75-.018 3.162-.232 4.8-.287 1.417-.048 4.002-.011 4.372 1.585.184.795-.054 1.55-.9 1.801-3.65 1.084-8.99-.05-12.752.114-1.786.079-2.802.308-4.8.308-1.41 0-7.384-.937-7.185 1.587.159 2.02 4.54 1.293 5.905 1.293h15.04c1.414 0 4.265-.542 4.692 1.297.649 2.797-4.393 1.869-5.972 1.907-1.156.029-1.82.23-2.88.283-1.728.084-4.868.033-6.72.033h-4.8c-1.358 0-4.899-.675-5.054 1.292-.153 1.94 2.17 1.588 3.454 1.588h11.84c1.436 0 4.072-.026 3.72 1.902-.318 1.734-2.98 1.298-4.36 1.298-3.731 0-7.47-.026-11.2 0-1.157.009-3.044-.255-3.601 1.01-.896 2.035 1.255 2.187 2.64 2.19 2.074.004 11.048-1.094 10.138 2.193-.358 1.292-2.063 1.006-3.097 1.007-1.902 0-7.717-.757-9.087.329-1.118.886-.614 2.44.494 2.769 1.522.452 6.046-.778 5.285 2.295-.496 2-4.984.3-6.07 1.52-.644.722-.247 1.795-.227 2.687.037 1.634-.563 4.755.334 5.887.547.69 2.207.728 2.678-.229.688-1.399-.603-4.292.706-5.33 1.48-1.172 4.786.744 5.694-1.336.61-1.396-.556-4.064.706-5.063 1.424-1.129 4.364.665 5.558-.842 1.122-1.417-.651-4.376.842-5.558 1.421-1.126 3.952.468 5.374-.658 1.556-1.232-.52-4.518 1.026-5.742 1.413-1.12 3.957.464 5.374-.658 1.581-1.253-.702-4.915 1.255-5.878 1.288-.634 3.608-.193 5.018-.193h11.84c1.592 0 4.45-.468 4.93 1.297.55 2.017-1.936 1.814-3.65 1.931-.896.062-1.613.267-2.56.267-1.041 0-1.839-.237-2.88-.283-2.634-.115-5.71-.09-8.319-.005-1.002.033-1.735.231-1.868 1.29-.21 1.678 1.076 1.893 2.507 1.903 1.886.013 9.89-1.069 10.186 1.297.303 2.409-2.544 1.903-4.106 1.903h-11.2c-1.124 0-3.34-.425-3.737 1.007-.571 2.063 1.293 2.19 2.777 2.193 2.005.004 10.773-1.26 9.817 2.193-.379 1.367-2.337 1.007-3.417 1.007h-11.2c-1.34 0-4.193-.563-4.427 1.297-.388 3.097 7.784 1.889 9.867 1.903 1.289.01 3.408.32 2.68 2.193-.519 1.337-2.497 1.007-3.64 1.007h-10.88c-1.203 0-3.95-.534-4.377 1.007-.571 2.063 1.293 2.19 2.777 2.193 2.005.004 10.773-1.26 9.817 2.193-.468 1.69-3.77 1.007-5.017 1.007h-10.56c-1.228 0-3.26-.355-3.467 1.297-.387 3.087 7.79 1.899 9.867 1.903 1.331.003 3.21.011 2.772 1.903-.408 1.758-3 1.297-4.372 1.297h-10.88c-1.278 0-3.33-.461-3.737 1.007-.227.819-.078 1.647.639 2 .798.393 2.209.193 3.098.193h13.12c1.303 0 3.614.34 4.698-.193 2.029-.998-.577-5 1.484-6.014 1.42-.699 4.256.649 5.329-.706 1.03-1.301-.485-4.507.842-5.558 1.624-1.286 4.186.89 5.558-.842 1.126-1.422-.468-3.952.658-5.374 1.093-1.38 4.708.084 5.878-.842 1.86-1.474-.55-3.802.842-5.558.734-.928 4.755-.206 5.558-.842 1.571-1.245-.498-3.526.386-5.33.624-1.273 2.683-.767 3.134.266.755 1.73.975 7.247-.549 8.264-1.347.899-5.23-.633-5.696 1.626-.59 2.857 3.456 1.542 5.14 2.005 1.2.33 1.951 1.842.785 2.77-.537.426-1.695.327-2.367.328-2.345.005-4.695-.001-7.04 0-.829 0-2.604-.277-2.951.742-1.077 3.157 4.083 2.458 5.83 2.458 1.443 0 2.406-.003 3.84 0 1.332.003 3.793.156 3.002 2.193-.6 1.545-3.043 1.007-4.281 1.007h-11.52c-1.31 0-3.02-.425-3.417 1.007-.595 2.15 1.553 2.192 3.097 2.193h12.48c1.543 0 4.422.183 3.64 2.193-.626 1.612-3.476 1.007-4.92 1.007h-14.72c-1.345 0-5.545-.717-5.972 1.007-.676 2.727 2.904 2.193 4.692 2.193h16.32c1.726 0 5.1-.395 4.68 1.903-.383 2.09-3.8 1.248-5.32 1.27-1.491.022-2.382-.269-3.84-.287-1.513-.02-2.417.274-3.84.31-2.362.057-3.908-.075-6.08-.195-1.397-.077-6.099-.909-6.618.886-.916 3.166 3.216 2.513 5.018 2.513h15.36c1.243 0 4.61-.618 5.012 1.007.624 2.521-2.47 2.193-4.052 2.193h-7.68c-1.488 0-2.842-.003-4.48 0-1.528.003-3.345.141-2.777 2.193.411 1.485 3.155 1.007 4.377 1.007h10.88c1.003 0 3.113-.39 3.645.741 1.26 2.677-3.309 2.337-4.605 2.378-1.754.055-8.814-1.355-7.897 1.954.415 1.498 2.891.994 4.057 1.008 2.315.028 5.654-.593 7.898.512 1.916.943.068 2.844-1.18 2.97-1.214.124-5.245-1.13-4.197 2.204.546 1.738 2.852.9 4.513 1.052 2.107.192 2.51 7.09 1.277 8.79-.68.938-2.21.741-2.678-.253-.63-1.34.673-4.692-.935-5.483-1.379-.678-4.665.713-5.465-.935-.601-1.238.41-3.736-.51-4.85-1.676-2.035-3.61.873-5.57-1.046-.963-.942.015-4.693-1.026-5.596-1.305-1.132-4.044.332-5.374-.852-1.319-1.173.393-4.341-1.026-5.465-1.519-1.203-3.876.528-5.374-.658-1.482-1.174.481-4.548-1.026-5.742-.99-.785-3.413-.329-4.607-.329h-12.16c-1.188 0-4.295-.563-4.927.742-1.118 2.31 1.532 2.457 3.007 2.458 4.223.002 7.753.02 11.84 0 1.66-.008 4.452-.89 4.106 1.901-.29 2.34-8.02 1.295-9.866 1.299-1.211.002-2.944-.109-2.814 1.592.126 1.642 1.848 1.648 3.134 1.58 3.978-.21 7.35-.292 11.52-.292 1.235 0 3.655-.367 4.285 1.049.743 1.669-.86 2.074-2.045 2.178-2.42.213-5.036.287-7.68.293-1.367.003-3.256-.05-2.772 1.874.386 1.538 3.198 1.006 4.372 1.006 3.542 0 7.054.037 10.56.001 1.113-.011 3.123-.333 3.83.74 1.33 2.015-1.098 2.757-2.55 2.778-3.011.042-4.94-.24-7.68-.247-1.245-.003-2.506.613-2.132 2.12.382 1.543 3.2 1.008 4.372 1.008 3.248 0 7.09.258 10.24.13 1.175-.048 3.336-.623 4.15.611 1.227 1.86-.844 2.449-2.23 2.458-2.873.02-6.122-.432-8.941.048-1.145.195-1.588 1.385-1.106 2.422.599 1.289 3.777.988 4.927 1.038 2.617.115 4.711-.178 7.04-.17 1.08.005 2.084.152 3.2.175 1.158.024 4.163-.557 3.904 1.595-.174 1.441-1.87 1.29-2.944 1.293-1.762.004-9.264-.989-9.817 1.007-.618 2.23 1.58 2.192 3.097 2.193h12.16c1.233 0 5.358.328 3.51 2.687-.796 1.017-3.635.522-4.79.55-4.043.097-8.04-.037-12.16-.037-1.194 0-3.617.455-4.607-.33-1.493-1.182.28-4.14-.842-5.557-1.245-1.572-4.498.545-5.742-1.026-1.093-1.38.318-3.683-.658-5.145-1.05-1.573-4.732.02-5.742-1.255-1.063-1.342.27-3.36-.706-4.825-1.403-2.107-3.63.227-5.51-1.379-1.367-1.167.16-3.934-1.026-5.341-1.179-1.4-4.52-.564-6.207-1.062.75-2.699.688-6.587-3.2-5.44.633 2.141-.823 6.425.649 8.496.726 1.023 2.512.693 3.51.757.927.059 2.145-.208 2.453 1.034.194.783-.039 1.467-.634 1.864-.657.439-1.415.324-2.138.329-1.273.009-4.792.033-3.191 2.458.86 1.304 3.943.774 5.43.737 1.502-.037 6.348-1.538 6.933.982.401 1.729-1.159 1.894-2.452 1.903-2.84.02-5.808-.239-8.634.019-1.355.123-1.986 1.166-1.413 2.493.626 1.448 3.033.8 4.287.73 3.301-.186 6.914.062 10.24.096 1.338.014 3.956-.626 4.372 1.16.555 2.378-2.625 1.902-4.052 1.902-4.124 0-9.792-.983-13.741.101-1.033.284-1.42 1.168-1.191 2.092.386 1.559 3.38 1.007 4.692 1.007h15.04c1.472 0 5.448-.762 5.706 1.297.324 2.578-3.128 1.903-4.746 1.903h-15.68c-1.185 0-3.328-.324-4.378.193-.622.306-.78.988-.689 1.71.24 1.903 2.864 1.297 4.427 1.297h15.36c1.347 0 5.186-.692 5.657 1.007.826 2.983-3.662 2.193-5.337 2.193h-15.04c-1.437 0-4.491-.613-4.918 1.297-.487 2.178 2.293 1.903 3.638 1.903h11.52c1.678 0 4.445-.364 3.737 2.193-.427 1.54-3.174 1.007-4.377 1.007h-10.56c-1.115 0-3.133-.372-3.831.513-.844 1.068-.212 2.438.97 2.64 2.787.474 6.101.027 8.94.047 1.443.01 2.977.318 2.458 2.193-.358 1.292-2.063 1.006-3.097 1.007-2.055 0-7.473-.974-9.086.329-3.301 2.666 4.405 2.832 4.878 2.973.8.237 1.067.906.954 1.8-.31 2.476-3.912.658-5.604 1.49-.683.337-.705 1.035-.736 1.73-.07 1.57-.6 5.016.187 6.616.796 1.618 2.856.582 2.988-.864.138-1.51-.627-3.599.76-4.281 1.288-.633 4.678.666 5.466-.935.704-1.43-.656-4.25.706-5.33 1.413-1.118 4.378.65 5.558-.841 1.12-1.415-.642-4.383.842-5.558 1.41-1.118 3.96.462 5.374-.658 1.358-1.076-.214-4.76 1.026-5.742 1.514-1.2 3.843.688 5.374-.842 1.366-1.366-.486-4.36 1.026-5.558.99-.785 3.413-.33 4.607-.33h12.48c1.24 0 4.257-.579 4.697 1.008.728 2.63-2.466 2.193-4.057 2.193h-11.52c-1.379 0-3.483-.346-3.483 1.6 0 2.793 8.788 1.562 10.843 1.601 1.228.023 2.268.337 2.174 1.599-.14 1.871-1.885 1.6-3.454 1.6q-5.767.002-11.52 0c-1.203 0-3.95-.534-4.377 1.007-.571 2.062 1.293 2.19 2.777 2.193 2.005.004 10.773-1.26 9.817 2.193-.427 1.54-3.176 1.007-4.377 1.007h-10.88c-1.013 0-3.101-.386-3.647.742-.94 1.94.91 2.448 2.367 2.458 2.843.02 5.801-.24 8.634.019 1.24.112 1.844.941 1.503 2.174-.457 1.649-3.252 1.007-4.377 1.007h-9.28c-1.52 0-4.21-.64-5.111.513-.93 1.189.165 2.459 1.277 2.64 3.108.505 5.128.045 7.994.047 1.475 0 4.125.148 3.007 2.458-.593 1.225-3.184.742-4.287.742h-10.24c-1.42 0-4.585-.64-4.414 1.592.122 1.594 1.555 1.603 2.814 1.605 1.115.002 1.844-.207 2.88-.209 1.462-.002 2.899.118 4.48.11 1.115-.007 2.37-.269 2.494 1.382.134 1.793-2.199 1.737-3.454 1.737-4.604 0-8.088-.016-12.48.156-1.474.057-3.61-.163-3.092 1.9.407 1.624 3.766 1.007 5.012 1.007h11.52c1.41 0 3.73.44 5.018-.193 1.888-.93-.267-4.353 1.255-5.558 1.451-1.15 4.357.52 5.693-.842 1.223-1.247-.623-3.928.523-5.374 1.244-1.571 4.44.48 5.77-1.026 1.28-1.452-.542-3.895.63-5.374 1.183-1.494 4.143.278 5.558-.842 1.471-1.166-.266-4.16.842-5.558.954-1.205 3.756-.231 5.067-.615 1.523-.445.41-8.534 3.69-5.97 1.051.822 1.045 8.116 0 8.943-1.492 1.182-5.606-.929-5.82 1.929-.2 2.675 4.146 1.101 5.597 1.793.844.402 1.194 1.78.531 2.494-1.385 1.493-7.426.512-9.394.513-1.042 0-2.738-.29-3.097 1.007-.995 3.592 8.994 2.025 11.095 2.212 1.265.112 2.413 1.163 1.592 2.439-.713 1.107-2.653.742-3.83.742h-10.88c-1.203 0-3.95-.534-4.377 1.007-.66 2.38 1.873 2.193 3.417 2.193h12.16c1.608 0 4.145-.044 3.708 2.193-.346 1.775-4.83 1.02-6.268.981-3.19-.085-6.765.026-9.92.026h-3.84c-1.715 0-4.022-.645-5.247.329-1.946 1.546.864 2.886 2.047 2.857 2.847-.072 4.826-.378 8-.302 2.18.053 4.929.14 7.04.273 3.236.205 6.427.043 9.92.043" fill="none" stroke="#4e493c"/></svg>