<svg xmlns="http://www.w3.org/2000/svg" viewBox="0 0 271.068 140.869"><path d="M.029 1.003c1.87.11 6.495 0 9.28 0h32c.837.001 2.275-.24 2.871.514 1.075 1.357.245 5.196.358 6.847.065.957.252 1.63.274 2.56.027 1.112-.117 2.604-.223 3.84-.318 3.696-.213 8.5-.047 12.16.055 1.199.275 1.978.286 3.2.015 1.747-.217 3.64-.173 5.44.022.93.161 1.587.173 2.56.058 4.908.001 10.397.001 15.36v66.88c0 1.507.808 6.399-1.007 6.938-2.566.762-6.239.102-8.913.102h-19.2c-1.722 0-7.503.91-8.631-.513-.745-.941-.329-3.157-.329-4.287v-47.36c0-2.62.003-4.992 0-7.68-.007-5.565-.114-11.761-.008-17.28.02-1.075.008-1.87.008-2.88v-10.56c0-2.523-.005-5.143 0-7.68.002-.866-.199-2.224.742-2.687 2.881-1.418 9.16-.193 12.378-.193h13.12c1.312 0 3.928-.486 4.927.513.849.849.557 2.882.484 3.967-.206 3.089.064 6.182.028 9.28-.023 1.964-.214 3.987-.21 6.08.001 1.078.198 1.757.21 2.88.015 1.492-.24 2.65-.306 4.16-.282 6.433-.417 13.738.037 20.16.499 7.061-.05 14.632-.05 21.76 0 1.925.862 6.35-1.007 7.167-1.282.56-3.853.193-5.393.193h-13.44c-.922 0-1.653.011-2.56-.001-1.059-.015-1.993.033-2.551-.778-1.128-1.638-.329-7.937-.329-10.101v-36.8c0-.837-.24-2.275.513-2.871 1.455-1.152 5.997-.329 7.807-.329h7.68c.837 0 2.275-.24 2.871.513.967 1.22.329 4.498.329 5.887v8.32c0 2.193.644 8.437-.193 10.138-.794 1.614-7.504.743-9.407.742-.79 0-2.02.2-2.687-.329-1.163-.921-.816-6.9-.411-8.264.442-1.49 5.455-1.607 6.105-.265 1.48 3.058-3.725 1.683-2.904 4.65.454 1.64 5.414 1.532 5.982 0 .442-1.188.51-7.448-.518-8.263-1.227-.972-4.701-.329-6.207-.329-1.26 0-4.561-.585-5.431.513-.823 1.04-.329 3.67-.329 4.927v13.44c0 1.26-.585 4.561.513 5.431.89.705 2.902.329 3.967.329 3.274 0 6.7.198 9.92.081 1.134-.04 3.416.28 4.287-.41 1.107-.877.513-2.958.513-4.471v-36.8c0-1.547.821-6.934-.513-7.991-.98-.777-3.344-.329-4.287-.329h-17.28c-.862 0-2.28-.247-3.007.329-.986.78-.513 3.359-.513 4.471v54.08c0 4.186-.245 8.665.123 12.8.09 1.006-.202 2.243.303 3.145.984 1.754 5.158.993 6.934 1.014 5.48.063 11.144 0 16.64 0 2.128 0 5.137.603 6.993-.237.994-.45.988-1.38 1.006-2.323.038-2.058.001-4.32.001-6.4v-6.72c0-1.07-.079-2.138-.093-3.2-.012-.931.082-1.603.092-2.56.012-1.186-.077-2.074-.092-3.2-.01-.796.074-1.424.089-2.24.046-2.59-.48-5.353-.26-8 .088-1.06.25-1.763.263-2.88.023-1.942-.116-3.325-.138-5.12-.046-3.888-.208-7.834-.18-11.84.013-1.745.311-2.806.319-4.48.005-1.2-.048-2.097-.048-3.2 0-2.091.048-4.262.048-6.4v-27.2c0-1.257.5-3.88-.329-4.926-1.128-1.424-6.91-.513-8.631-.513h-20.16c-2.171 0-6.271-.763-8.218.193-1.203.59-.91 2.925-.873 3.967.036 1.05.119 1.807.13 2.88.023 2.292-.014 4.499-.043 6.72-.056 4.19.044 8.703.044 13.12v92.8c0 1.402-.688 5.44.513 6.39 1.134.9 4.185.33 5.567.33h14.4c8.19 0 16.458-.096 24.64 0 1.04.013 1.91.21 2.88.21 2.163 0 4.319-.264 6.72-.206 1.093.027 1.839.209 2.88.249 3.042.117 6.79.067 9.92.067h12.16c1.466 0 3.792.257 5.101-.102 2.299-.631 1.299-5.751 1.299-7.898v-3.2c0-3.132-.004-6.255-.044-9.28-.014-1.044.062-1.791.04-2.88-.024-1.074-.213-1.788-.287-2.88-.358-5.226-.029-11.332-.029-16.64v-62.08c0-4.312-.175-8.83.013-13.12.046-1.058.282-1.88.282-2.88 0-.925.198-4.393-.574-5.247-1.295-1.432-6.838-.513-8.681-.513h-19.52c-2.55 0-6.158-.621-8.593.101-1.73.514-1.007 3.687-1.007 5.339v25.92c0 1.72.02 3.594-.004 5.44-.056 4.459-.339 8.718-.316 13.44.01 1.887.311 3.02.32 4.8.04 8.221 0 16.754 0 24.96v13.44c0 2.07-.755 4.821.193 6.992.877 2.008 4.831 1.008 6.847 1.008h16.32c1.908 0 4.989.255 6.714-.073 1.914-.365 1.606-1.984 1.606-3.767v-67.84c0-1.627.508-3.805-1.299-4.113-1.553-.265-2.362-.047-3.821-.047h-12.48c-1.632 0-5.613-.902-7.167.329-.657.52-.507 1.383-.513 2.23-.014 2.082.002 4.975 0 7.04-.003 2.39.085 4.397-.013 6.72-.308 7.316-.307 14.8-.307 22.4v8c0 .954-.254 2.502.742 3.05 1.158.635 3.096.298 4.378.396 2.86.217 6.33.075 9.28.075 1.624 0 3.543.57 4.471-.779.543-.79.329-2.42.329-3.381v-17.28c0-.897.294-2.552-.513-3.191-1.634-1.294-7.036-.33-9.087-.33-.837.001-2.275-.24-2.871.514-.823 1.039-.329 3.67-.329 4.927 0 .999-.335 2.809.329 3.647.934 1.18 5.798.965 6.017-.785.32-2.55-2.549-1.126-3.043-2.91-.759-2.74 4.687-2.986 6.104-1.863 1.071.848.999 8.15 0 8.942-.673.532-1.872.328-2.687.329-2.355 0-6.736.851-8.858-.193-1.304-.642-.742-3.732-.742-4.927v-15.04c0-1.337-.658-4.844 1.007-5.339 3.81-1.13 9.412-.101 13.393-.101 1.312 0 3.691-.428 4.471.741 1.447 2.168.21 6.586.155 8.859-.156 6.384-.146 13.806-.146 20.48v15.36c0 1.512.522 4.268-.742 5.11-1.16.775-3.493.33-5.018.33h-13.76c-1.42 0-4.605.497-5.431-.742-.729-1.092-.329-3.05-.329-4.378v-67.2c0-1.034-.514-3.03.742-3.647 1.407-.692 4.67-.193 6.298-.193h16.32c2.382 0 5.454-.545 7.633.101 1.41.42 1.007 2.774 1.007 4.059v88.96c0 1.538.832 7.032-.742 7.807-2.126 1.046-6.5.19-8.858.193-1.476.002-2.486.18-3.84.227-1.515.052-3.272-.188-4.8-.223-3.584-.082-7.285-.005-10.88-.005-1.767 0-7.8.942-8.951-.513-.935-1.18-.329-4.442-.329-5.887V4.523c0-.954-.352-2.788.742-3.326 1.342-.661 3.86-.194 5.338-.194h59.84c4.986 0 9.803-.1 14.72-.164 1.347-.018 4.273-.513 5.111.643.708.976.329 3.135.329 4.321v117.44c0 1.362.394 3.394-.742 4.152-1.48.988-5.596.328-7.578.328h-21.12c-1.95 0-6.737.878-8.127-.513-1.027-1.027-.513-4.403-.513-5.887 0-2.572-.04-4.034-.266-6.4-.225-2.37-.054-5.256-.054-7.68v-74.88c0-1.305-.617-4.855.513-5.75.933-.74 3.193-.33 4.287-.33h22.4c1.508 0 3.575-.617 4.471.514.563.711.329 2.383.329 3.327v65.6c0 1.465.506 5.165-.513 6.162-1.217 1.191-3.466.558-5.247.558h-14.08c-1.818 0-4.382.745-5.431-.779-.952-1.382-.132-3.602-.038-4.981.136-1.984.032-4.329.029-6.4-.003-2.121-.264-3.827-.315-6.08-.057-2.477.287-3.845.314-6.08.063-5.316 0-11.266 0-16.64 0-2.832-.004-4.458 0-7.04.003-.742-.18-2.001.514-2.551 1.41-1.117 5.737-.33 7.487-.33h8c.81.001 2.31-.263 2.842.514.89 1.3.165 4.434.066 5.887-.276 4.058-.028 8.687-.028 12.8 0 1.444.427 4.525-.33 5.658-1.037 1.555-4.22.742-6.07.742-1.907 0-4.584.718-5.887-.558-.962-.94-.825-6.642-.412-8.035.412-1.385 2.207-1.008 3.419-1.007.935 0 2.575-.316 2.952.741.995 2.79-3.056 1.815-2.886 4.055.123 1.622 1.853 1.608 3.134 1.602 1.051-.005 1.987.042 2.55-.777.725-1.052.87-7.211 0-8.308-.597-.755-2.032-.513-2.87-.513-1.918-.001-7.618-.96-9.006.513-1.27 1.348-.475 4.264-.394 5.887.194 3.914-.2 9.022-.2 13.12 0 1.268-.343 3.692.329 4.698.839 1.258 2.637.742 4.15.742h10.24c1.339 0 2.99.445 3.968-.33.723-.572.512-1.982.513-2.87v-37.44c0-1.804.98-8.458-.513-9.587-1.277-.965-5.188-.34-6.847-.333-1.93.009-3.53.247-5.44.308-2.655.085-5.142-.163-7.68-.208-1.998-.035-3.52-.003-5.12.54 1.044 3.534.267 11.664.274 16.32.003 2.428-.274 5.053-.274 7.68v47.04c0 1.06-.376 3.11.329 3.955.579.695 1.814.444 2.55.483 1.563.084 3.434.042 5.12.042h17.92c1.47 0 4.836.643 5.752-.513.835-1.055.329-4.48.329-5.887v-74.24c0-4.97.108-10.094.136-15.04.01-1.74.86-3.251-.01-5.019-.623-1.266-6.107-.741-7.806-.741h-22.4c-1.584 0-6.62-.814-7.672.513-1.08 1.364-.328 4.905-.328 6.847 0 3.233.03 7.123-.002 10.24-.02 1.954-.09 3.662-.17 5.76-.05 1.3.165 2.192.171 3.52.033 6.777.011 15.031 0 21.76-.001 1.032-.093 1.878-.13 2.88-.032.915.105 1.652.126 2.56.107 4.679.005 9.655.005 14.4v50.24c0 1.75-.788 6.077.329 7.487.811 1.025 3.628.513 4.79.513h75.201c1.321 0 3.864.44 4.982-.33 1.606-1.104.779-5.543.779-7.35 0-2.631-.204-4.342-.308-6.72-.201-4.604-.012-9.453-.012-14.08V20.843c0-1.628.715-5.528-.33-6.847-1.175-1.485-7.445-.513-9.27-.513h-18.88c-2.544 0-6.072-.647-8.593.101-1.613.48-1.007 3.954-1.007 5.339v90.88c0 1.36-.412 3.973.741 4.742 1.526 1.018 4.608.378 6.619.378h17.279c1.61 0 5.678.79 6.71-.513.718-.906.33-3.178.33-4.287v-54.08c0-4.062.048-8.174.2-12.16.04-1 .255-3.795-.48-4.607-.95-1.051-3.871-.513-5.16-.513h-14.08c-1.26 0-4.562-.586-5.431.513-1.24 1.564-.33 6.833-.33 8.767v31.04c0 2.167-1.028 8.012.33 9.727 1.088 1.373 6.638.513 8.31.513 1.902 0 8.688 1.032 9.912-.513.823-1.04.329-3.67.329-4.927v-13.76c0-1.25.452-4.666-.513-5.431-1.699-1.345-6.666-.334-9.087-.33-1.074.003-2.164-.19-2.742.742-1.397 2.258.061 6.161-.458 8.219 1.566.464 7.832.96 6.525-1.819-.81-1.723-2.402.022-2.897-2.055-.393-1.644.927-1.858 2.132-1.885 1.181-.026 2.44-.35 3.418.166 1.39.734.844 6.172.723 7.507-.097 1.064-.445 1.478-1.588 1.587a68 68 0 0 1-6.073.337c-1.708.02-3.816.563-4.791-.803-.742-1.038-.33-3.69-.33-4.955v-13.76c0-1.316-.49-4.533.33-5.567.807-1.02 2.486-.513 3.83-.513h10.24c1.414 0 2.94-.442 3.98.329.908.672.534 3.303.505 4.47-.104 4.25-.005 8.547-.005 12.8 0 7.036-.445 15.156.029 22.08.066.958.252 1.63.274 2.56.02.833-.087 1.412-.076 2.24.025 1.875.944 3.908-.236 5.622-.785 1.142-4.281.779-5.75.779h-14.08c-1.782 0-3.656.524-4.928-.62-1.204-1.085-.513-5.794-.513-7.38v-64c0-1.095-.31-2.796.33-3.737.71-1.048 1.954-.513 2.87-.452 1.222.081 2.877.029 4.16.029 2.281 0 4.783.05 7.04-.005 1.969-.048 3.296-.245 5.44-.17 3.305.114 8.404-1.116 11.419.368 1.046.515.744 2.616.741 3.647-.007 2.209-.316 4.329-.32 6.72-.017 11.093 0 22.186 0 33.28 0 14.186-.022 28.373 0 42.56.003 1.892.274 2.769.316 4.48.038 1.572.005 3.508.005 5.12 0 1.688.596 3.748-.558 4.927-.922.942-2.547.513-3.602.513h-25.92c-2.364 0-4.743.34-7.022-.048-2.156-.367-1.298-5.038-1.298-6.672V6.443c0-1.373-.693-5.154 1.007-5.659 1.853-.55 4.426-.101 6.353-.101h58.56c5.043 0 10.51-.177 15.36.062 1.292.064 3.632-.577 4.47.68.982 1.47.33 4.907.33 6.618v101.44c0 2.157-.117 4.592.028 6.72.168 2.452.292 4.013.292 6.72 0 1.4.631 4.211-1.008 4.698-2.534.752-6.26.102-8.912.102h-19.2c-1.767 0-7.8.941-8.952-.513-1.029-1.3-.328-5.264-.328-6.847v-18.24c0-2.49.054-5.577-.005-8-.023-.925-.207-1.607-.207-2.56 0-1.267.21-2.554.211-3.84.001-3.403.017-7.458 0-10.88-.007-1.37-.201-2.208-.291-3.52-.361-5.27.008-11.416.21-16.64.065-1.696-.198-3.553-.156-5.12.043-1.597.274-2.688.233-4.48-.042-1.804-.17-3.494-.145-5.44.012-.918.117-1.687.097-2.56-.025-1.097-.275-2.006-.262-3.2.043-3.884.888-5.527-.006-9.28 2.422-.716 5.047-.32 8-.32h16c2.015 0 6.412-.883 7.807.513.68.679.529 1.75.49 2.687-.145 3.446.114 7.942.019 11.84-.315 12.834-.471 26.843-.315 40 .02 1.622.342 2.924.314 4.48-.017.946-.13 1.625-.137 2.56-.024 3.057-.178 6.188-.178 9.28 0 1.587.539 3.932-1.007 4.607-1.282.56-3.853.193-5.393.193-4.585 0-9.175.007-13.76 0-1.274-.002-4.318.332-5.11-.784-1.301-1.83-.33-7.802-.33-10.096v-36.8c0-.818-.194-2.312.513-2.871.792-.627 1.947-.33 3.007-.33h10.241c1.272 0 3.775-.583 4.927.33 1.099.87.513 4.17.513 5.43v13.76c0 1.32.532 4.16-.329 5.248-.897 1.133-4.443.513-5.75.513-1.506 0-4.98.643-6.208-.33-1.115-.882-.88-6.996-.32-8.237.647-1.431 2.778-.829 3.967-.76.918.051 1.669.006 2.047.788.271.561.23 1.481-.136 1.946-.689.876-2.941.404-2.443 2.387.369 1.467 5.181 1.627 5.909.493.656-1.023.373-5.031.305-6.207-.039-.667-.075-1.486-.558-2.047-.63-.731-1.555-.511-2.564-.513-2.446-.005-7.708-1.017-9.407.329-.777.615-.513 2.535-.513 3.51v17.6c0 .863-.247 2.28.33 3.008.748.945 3.09.513 4.15.513h9.92c1.169 0 2.985.335 4.059-.193.94-.463.74-1.822.741-2.687v-36.16c0-2.414.785-8.47-.193-10.459-.85-1.729-4.098-.981-5.887-1.024-4.241-.103-8.881-.136-13.12-.033-1.127.028-1.825.242-2.88.263-.93.018-1.994-.315-2.778-.007-1.167.459-.742 3.162-.742 4.22v12.48c0 6.727-.28 13.785.013 20.48.093 2.134.251 3.888.292 6.08.023 1.178-.137 2.282-.172 3.52-.082 2.931-.249 6.024-.12 8.96.04.908.25 1.685.25 2.56 0 .97-.233 1.84-.258 2.88-.08 3.275.315 5.611.315 8.96 0 1.424-.7 5.15 1.008 5.658 2.55.757 6.126.101 8.592.101h14.4c1.54 0 6.323.786 7.351-.513.785-.99.33-3.413.33-4.607V21.483c0-1.757.962-7.567-1.3-7.952-2.923-.498-6.295-.048-9.26-.048h-18.56c-1.767 0-7.8-.94-8.952.514-.898 1.134-.329 4.184-.329 5.566v72.32c0 6.304.13 12.966.141 19.2.002 1.408.179 2.303.18 3.84v22.08c0 .92-.27 2.51.741 3.007 1.359.669 3.85.193 5.338.193h74.88c1.17 0 4.05.57 4.796-.434.533-.717.562-1.9.589-2.766.142-4.687-.265-9.588-.265-14.4V17.963c0-1.095.347-3.36-.741-3.995-1.671-.975-5.533-.53-7.579-.48-.908.022-1.688.207-2.56.207s-1.651-.185-2.56-.207c-5.246-.128-10.731-.005-16-.005-1.721 0-7.503-.91-8.63.514-.9 1.134-.33 4.184-.33 5.566v72.64c0 4.8-.295 10.314.029 15.04.066.97.237 1.62.279 2.56.069 1.581-.645 3.865.525 4.792 1.274 1.009 5.831.328 7.487.328h16.64c1.532 0 4.949.634 6.212-.328.855-.653.777-1.999.816-2.872.068-1.538-.172-3.874-.28-5.44-.187-2.747-.028-5.857-.028-8.64v-53.76c0-1.079.37-3.77-.513-4.47-1.245-.987-3.19-.324-4.927-.33-4.663-.015-9.374 0-14.08 0-1.712 0-4.78-.857-5.567.742-.974 1.98-.193 8.05-.193 10.458v36.16c0 .838-.24 2.275.513 2.872 1.455 1.152 5.997.328 7.807.328 2.327 0 8.55 1.11 10.367-.328 1.213-.961.513-5.049.513-6.392v-13.12c0-1.237.54-3.83-.329-4.926-.456-.576-1.209-.499-1.911-.512-.904-.017-1.595-.001-2.56-.001-1.777 0-6.088-.78-7.487.329-1.075.852-.842 7.078-.32 8.238.575 1.274 1.973 1.04 3.327 1.033 1.375-.007 2.696-.021 2.814-1.6.146-1.944-4.188-1.48-2.94-4.058.476-.983 1.73-.74 2.686-.742 1.326-.003 2.764-.403 3.327.742.759 1.541.711 7.999-.814 8.665-1.433.626-4.619.193-6.353.193-1.709 0-3.749.595-4.927-.558-.933-.913-.558-4.52-.5-5.842.046-1.057.282-1.88.282-2.88 0-.906-.204-1.648-.266-2.56-.173-2.527-.029-5.436-.029-8 0-1.32-.532-4.16.33-5.247.677-.856 2.557-.513 3.51-.513h10.56c1.188 0 3.27-.477 4.287.329.783.62.513 2.223.513 3.19v36.48c0 2.252 1.09 8.577-.329 10.368-.903 1.14-3.703.513-5.11.513h-11.2c-1.904 0-6.818.558-8.219-.377-1.438-.96-.742-6.168-.742-7.943V29.803c0-.848-.227-2.305.33-3.007.554-.7 1.713-.511 2.55-.513 1.61-.003 3.091 0 4.8 0h16.32c1.942 0 4.783-.46 6.673.102 1.924.571.95 6.281 1.02 7.898.059 1.35.29 2.201.306 3.52.049 4.093.001 8.662.001 12.8 0 1.943.048 4.547-.011 6.4-.116 3.628-.045 6.948-.046 10.56 0 .983-.252 1.824-.254 2.88-.013 8.141-.106 16.4-.008 24.64.035 2.873.32 5.582.32 8.64v16c0 1.963.68 5.48-.194 7.258-.799 1.624-6.836.742-8.447.742h-20.48c-2.196 0-6.236.782-8.218-.193-1.58-.778-.741-5.578-.742-7.167 0-1.588-.187-2.636-.291-4.16-.372-5.434-.029-11.47-.029-16.96V8.683c0-1.823-.73-5.683.33-7.221.74-1.077 2.705-.816 3.83-.766 2.652.115 4.442.307 7.36.307 4.228 0 8.586.049 12.8-.001 1.057-.013 1.892-.21 2.88-.21.894 0 1.646.184 2.56.206 2.573.063 5.728.005 8.32.005h6.4" fill="none" stroke="#564121"/></svg>