<?xml version="1.0" encoding="UTF-8" standalone="no"?>
<!-- Created with Inkscape (http://www.inkscape.org/) -->

<svg
   version="1.1"
   id="svg1"
   width="269.147"
   height="322.62366"
   viewBox="0 0 269.14701 322.62365"
   xmlns="http://www.w3.org/2000/svg"
   xmlns:svg="http://www.w3.org/2000/svg">
  <defs
     id="defs1" />
  <g
     id="g1"
     transform="translate(-0.66545635,-99.671755)">
    <path
       style="fill:none;stroke:#242019"
       d="m 54.079997,100.38413 h 0.32 m 214.718383,24.96048 h -9.92 c -1.59852,0 -3.06348,-0.45388 -4.37829,0.19309 -0.81839,0.40274 -0.73099,1.27203 -0.73999,2.04717 -0.0102,0.85318 -0.11858,1.73193 0.51136,2.23086 0.70338,0.55709 2.44043,0.32888 3.32692,0.32888 2.37105,0 8.1574,-0.78162 10.13828,0.19309 1.26886,0.62438 0.74172,2.20451 0.74172,3.64691 0,3.98829 0.54696,10.73786 -0.0474,14.39383 -0.3267,2.00961 -2.46086,1.60617 -4.11259,1.60617 h -4.16 -2.56 -3.84 c -1.11371,0 -3.44877,0.33495 -4.28692,-0.32888 -1.35998,-1.07713 -0.51308,-3.5661 -0.51308,-5.43112 v -16.64 -2.24 c 0,-0.68998 0.0127,-1.18435 -0.005,-1.92 -0.0189,-0.78673 -0.55572,-2.21912 0.21037,-2.87111 0.8352,-0.7108 2.93002,-0.32889 3.95432,-0.32889 h 10.56 c 1.11224,0 3.69013,0.47299 4.47111,-0.51308 0.74508,-0.94074 0.32889,-3.15697 0.32889,-4.28691 v -10.88 c 0,-1.36299 0.51166,-3.80416 -1.29877,-4.1126 -2.687,-0.457801 -6.60063,-0.201 -9.26123,-0.0188 -1.02084,0.0699 -1.61836,0.23757 -2.56,0.27877 -1.36155,0.0596 -3.35495,0.0126 -4.8,0.0126 -1.40452,0 -3.11391,-0.0248 -4.47975,0.001 -0.61834,0.0117 -1.46215,-0.0556 -1.91137,0.5116 -0.44478,0.56158 -0.32363,1.32449 -0.32863,2.04692 -0.0127,1.83857 -2.5e-4,3.89964 -2.5e-4,5.76 v 21.43999 14.4 c 0,1.70861 0.73115,3.80552 -0.51309,4.79111 -1.38613,1.09797 -4.10445,0.64163 -5.56691,0.64863 -4.09879,0.0198 -8.36573,2.6e-4 -12.48,2.6e-4 -1.57653,0 -3.74379,0.27105 -5.10123,-0.10172 -1.761,-0.4836 -1.29877,-2.44805 -1.29877,-4.05828 0,-4.13342 -0.002,-8.4145 0,-12.48 4.5e-4,-0.99893 -0.22766,-1.98424 0.32888,-2.68692 0.72575,-0.91633 3.10805,-0.51308 4.47112,-0.51308 3.83867,0 7.68176,0.002 11.52,0 1.2633,-5.7e-4 2.54492,0.18642 3.32691,-0.74172 0.9769,-1.15948 0.51309,-3.9127 0.51309,-5.65828 0,-5.17479 0.44797,-12.83397 -0.1358,-17.28 -0.1469,-1.11881 0.21722,-5.0268 -0.69729,-5.75112 -0.80389,-0.63668 -1.76697,-0.32881 -3.00691,-0.32888 -3.26983,-2.2e-4 -7.01242,0 -10.24,0 -2.17627,0 -3.70881,-0.38092 -6.08,0.32 0.93888,3.94365 0.32,9.07449 0.32,13.76 0,1.42171 -0.481,4.22433 0.32888,5.24691 0.65633,0.82867 2.43897,0.51309 3.51112,0.51309 2.86947,0 7.68043,-1.01633 10.13828,0.19308 0.93762,0.46137 1.18109,2.57987 0.54863,3.8652 -0.70896,1.44078 -6.7016,0.74172 -8.44691,0.74172 -2.69485,0 -4.01596,0.29037 -6.4,0.31877 -3.65082,0.0432 -7.82051,0.001 -11.52,0.001 -1.75779,0 -3.70254,-0.0118 -5.44,2.5e-4 -0.72242,0.005 -1.48531,-0.11617 -2.04691,0.32863 -0.57717,0.45709 -0.50337,1.2511 -0.51137,1.91137 -0.0139,1.16228 -0.1943,2.25826 1.29705,2.51234 2.5616,0.43643 7.41787,0.0464 10.22123,0.0474 0.86748,3.9e-4 2.32078,-0.18175 2.87111,0.51309 0.76971,0.97184 0.32889,2.69168 0.32889,3.96691 v 10.56 c 0,1.39641 0.35678,3.39096 -0.51309,4.24246 -0.86924,0.8509 -2.60343,0.55754 -3.96691,0.55754 h -10.88 c -1.27524,0 -2.99508,0.44082 -3.96691,-0.32888 -0.57581,-0.45604 -0.49991,-1.2926 -0.51161,-1.91137 -0.0276,-1.48742 -0.001,-3.27811 -0.001,-4.79975 v -16.64 c 0,-1.92502 -0.8927,-4.63771 0.51309,-5.75111 0.86273,-0.6833 4.76082,-0.32889 5.88691,-0.32889 h 2.24 2.24 c 2.13221,0 4.1349,0.0662 6.4,-0.005 0.75467,-0.0237 1.48191,4.9e-4 2.04691,-0.55259 0.87,-0.85164 0.51309,-2.84598 0.51309,-4.24246 v -10.56 c 0,-1.53592 0.51889,-2.89651 -0.32889,-3.96692 -0.69359,-0.87574 -4.81058,-0.51308 -6.07111,-0.51308 -3.95645,0 -8.23682,-0.15919 -12.16,0.0126 -2.79119,0.12222 -3.41242,0.77591 -6.08,-0.0126 -0.90113,3.04853 -0.32,7.51146 -0.32,11.2 v 26.24 c 0,2.98423 0.02,6.33396 -2.5e-4,9.28 -0.007,1.02466 0.0805,2.15044 -1.00715,2.64246 -1.68477,0.76214 -3.67756,0.23754 -5.7126,0.23754 h -12.16 c -1.91732,0 -4.39029,0.81804 -5.43111,-0.74172 -0.62262,-0.93305 -0.32889,-3.21024 -0.32889,-4.37828 0,-4.10409 -0.63631,-9.08811 0.0474,-13.10123 0.3195,-1.87526 3.72389,-1.47854 5.3926,-1.59014 1.61252,-0.10789 3.15461,0.1258 4.8,0.0291 1.22428,-0.0719 2.02979,0.21307 3.2,0.23357 1.38256,0.0242 4.73814,0.28973 5.88691,-0.62023 1.16776,-0.925 0.51309,-4.71596 0.51309,-6.07112 v -13.11999 -4.16 c 0,-1.80116 0.45217,-5.4143 -1.29877,-5.7126 -3.67078,-0.62539 -10.33849,-0.0474 -14.38123,-0.0474 -1.41773,0 -3.34723,-0.51766 -3.96691,0.74171 -0.53229,1.08174 -0.19309,3.16166 -0.19309,4.37829 v 9.92 c 0,1.11068 -0.48215,3.6847 0.74172,4.28691 3.64168,1.79193 9.60012,-1.26627 13.26519,0.38617 0.96478,0.43496 1.03278,1.46176 1.02198,2.36692 -0.009,0.78433 -0.0493,1.47291 -0.73061,2.04691 -1.58695,1.33707 -4.7489,0.51309 -6.93828,0.51309 h -18.88 c -1.7827,0 -4.03223,-0.0117 -5.76,2.5e-4 -0.77742,0.005 -1.97402,-0.186 -2.3126,0.74146 -0.51044,1.39829 0.16854,3.90209 1.67877,4.03952 2.91925,0.26561 6.55702,0.13678 9.27383,0.0311 0.6493,-0.0253 2.46091,-0.10877 3.09827,0.31654 1.06855,0.71305 0.74165,2.24609 0.74173,3.51111 2.4e-4,3.73315 0,7.46682 0,11.2 0,1.27471 0.2839,3.78672 -0.74173,4.47112 -1.02606,0.68468 -2.46289,0.32888 -3.73827,0.32888 h -9.92 c -1.4396,0 -3.1587,0.56447 -4.69827,-0.19308 -0.80094,-0.39409 -0.72414,-1.19567 -0.74024,-2.04717 -0.0269,-1.44863 -0.001,-3.30645 -0.001,-4.79975 v -15.04 c 0,-2.98244 -0.35433,-5.39865 0.32,-7.68 3.67553,0.58502 9.17681,0 13.12,0 1.54679,0 3.94723,0.32739 5.3926,-0.10172 1.6867,-0.50076 1.0074,-2.72957 1.0074,-4.37828 0,-3.72455 10e-4,-7.47838 0,-11.2 -4.6e-4,-1.2008 0.22885,-2.18994 -0.37728,-3.09828 -0.46531,-0.69734 -1.20579,-0.70664 -1.86395,-0.73554 -1.03202,-0.0451 -2.42779,-0.006 -3.51877,-0.006 h -12.16 c -1.86216,0 -4.43547,-0.56608 -5.97827,0.19308 -0.86871,0.42746 -0.73548,1.54361 -0.74148,2.36692 -0.0182,2.64658 -2.5e-4,5.64035 -2.5e-4,8.32 v 28.79996 c 0,2.28104 0.0415,4.78256 -0.001,7.04 -0.0149,0.79352 0.0104,1.73022 -0.74025,2.23112 -1.33475,0.89068 -3.6847,0.32888 -5.33827,0.32888 h -12.8 c -1.70701,0 -3.67885,0.56491 -5.01827,-0.32888 -0.79124,-0.52801 -0.72554,-1.44836 -0.74024,-2.23112 -0.0665,-3.55992 0.005,-9.12933 -10e-4,-12.8 -0.002,-0.98199 -0.46846,-2.90669 0.0375,-3.64691 0.64854,-0.94879 1.91532,-0.51301 3.16247,-0.51309 3.87856,-2e-5 8.33259,0.0445 12.16,-0.001 1.08934,-0.0129 3.33493,0.23235 3.96692,-1.06025 0.6566,-1.34297 0.19308,-4.25221 0.19308,-5.65852 v -2.56 -13.11999 c 0,-1.82145 0.22225,-4.47858 -0.0474,-6.06123 -0.30018,-1.7619 -2.45625,-1.29877 -4.1126,-1.29877 h -9.28 -2.24 c -1.59474,0 -3.79492,-0.58762 -4.0008,2.72024 0.15919,5.27062 0.15719,9.45317 0.15919,13.60025 7.4e-4,1.62662 -0.34932,3.15468 1.60618,3.47259 2.26892,0.36887 7.37873,0.0463 9.91382,0.0474 0.88129,3.9e-4 2.33283,-0.16656 2.87112,0.51309 0.39017,0.49264 0.32592,1.05426 0.32592,1.72717 0,2.72308 -2.02379,2.55974 -4.47704,2.55974 h -15.68 -3.2 l -5.59991,0.13457 c -1.953302,0.0917 -4.026486,-0.70275 -5.125841,0.14938 -0.588037,0.4558 -0.472588,1.24557 -0.472588,1.95555 0,0.7731 -0.07012,1.28935 0.284443,1.77332 0.643125,0.87779 2.021787,0.76929 2.915557,0.78519 2.086211,0.0366 6.233449,0.001 8.319999,0.001 0.83987,0 2.28546,-0.34029 2.91556,0.4726 0.84843,1.09457 0.28444,2.37918 0.28444,4.0074 v 10.56 c 0,1.64819 0.53663,2.86033 -0.28444,4.02668 -0.57813,0.82122 -3.12733,0.77332 -4.51556,0.77332 -2.665761,0 -6.04996,0.045 -8.639999,-0.001 -1.035361,-0.0184 -1.566631,-0.17824 -2.56,-0.27554 -0.932353,-0.0914 -2.602705,0.24914 -3.367412,-0.51557 -1.165674,-1.16566 -0.472588,-5.01822 -0.472588,-6.5674 v -3.84 -11.52 c 0,-1.41166 -0.01281,-3.09959 0,-4.48 0.0069,-0.73879 -0.11205,-1.70981 0.709629,-2.0874 1.335361,-0.61368 2.783369,-0.1526 4.410371,-0.1526 h 9.919999 c 1.44663,0 3.37365,0.48115 4.32742,-0.4726 0.59658,-0.59658 0.47058,-1.59643 0.47258,-2.4074 0.005,-2.2792 0,-4.7436 0,-7.04 0,-2.39473 0.005,-4.98526 0,-7.36 -0.002,-0.96488 0.20106,-1.7534 -0.47258,-2.27555 -0.65338,-0.50644 -2.5042,-0.28445 -3.36742,-0.28445 h -10.239999 -2.88 -2.24 c -1.18038,0 -2.934873,-0.14078 -4.152597,0.0267 -1.489673,0.20488 -1.583143,1.59721 -1.605923,2.85334 -0.05381,2.96472 -0.10641,5.99898 0.0044,8.96 0.06395,1.70877 0.313423,2.47539 0.314073,4.16 0.0017,4.43922 0,9.47033 0,13.76 v 2.56 c 0,4.32531 0.04281,9.78633 0,14.4 -0.009,0.97406 0.12561,1.87947 -0.986665,2.17037 -1.514312,0.396 -3.820933,0.0696 -5.413335,0.0696 H 62.719995 c -1.426192,0 -4.45669,0.41433 -5.690371,-0.1526 -1.217793,-0.55963 -0.709629,-1.98195 -0.709629,-3.3674 0,-3.40438 0.192871,-6.86326 -0.237036,-10.24 -0.173506,-1.36287 -0.2802,-3.35524 0.02667,-4.4726 0.483315,-1.75984 1.812822,-1.2874 3.410371,-1.2874 h 10.239999 2.88 c 0.730806,0 2.083564,0.21461 2.727407,-0.28445 1.170869,-0.90756 0.403891,-4.76641 0.491851,-6.11555 0.100908,-1.54764 0.300127,-2.24926 0.300742,-3.84 7.91e-4,-2.05488 -0.101875,-2.69252 -0.277036,-4.48 -0.232482,-2.37244 -0.04296,-5.25807 -0.04296,-7.68 0,-1.65102 0.04297,-3.48854 -0.0015,-5.12 -0.01383,-0.50754 -0.05734,-1.31483 -0.471113,-1.63555 -0.751352,-0.58238 -1.117065,-0.26254 -2.407407,-0.28594 -1.126948,-0.0204 -1.795537,-0.22855 -2.88,-0.29925 -3.112168,-0.2029 -9.777363,-0.733157 -12.773334,0.0504 -1.399346,0.36597 -0.986665,1.77746 -0.986665,3.13037 v 10.88 c 0,1.4125 -0.138208,3.26154 0.02667,4.47408 0.258516,1.90113 1.787974,1.60525 3.493335,1.60592 3.092353,0.001 7.873779,-1.04986 10.49037,0.1526 0.78575,0.36109 0.69559,1.06625 0.70815,1.7674 0.01374,0.76683 0.02876,1.36883 -0.282969,1.85037 -0.7823,1.20846 -5.25353,0.70963 -6.755551,0.70963 H 43.83999 c -1.58647,0 -7.199939,-0.58272 -7.610371,0.98666 -0.392366,1.50029 -0.468281,3.07715 0.64,3.68 0.783926,0.42608 1.43239,0.38708 2.170371,0.43408 1.377939,0.0877 3.526338,-0.40627 5.44,-0.28148 0.887963,0.0579 1.652202,0.30685 2.559999,0.25185 0.931431,-0.0564 2.780147,-0.70576 3.687407,0.20149 0.896514,0.8965 0.472593,1.86525 0.472593,3.3674 v 12.8 c 0,1.27924 0.418535,2.52894 -0.709629,3.0474 -0.998315,0.45877 -3.267543,0.1526 -4.41037,0.1526 -3.947901,0 -10.002864,0.90604 -13.733332,-0.0696 -0.8993,-0.2352 -0.93215,-0.82033 -0.97926,-1.53186 -0.10278,-1.55232 -0.0074,-4.6457 -0.0074,-6.39851 0,-5.19989 0.002,-10.48906 0,-15.68 -6.17e-4,-1.60127 -0.826579,-3.12469 -0.167407,-4.77334 0.510496,-1.2768 1.788767,-0.98617 3.047407,-0.98666 4.010276,-10e-4 8.143691,0 12.159999,0 1.32795,0 3.039717,0.33023 4.090371,-0.1526 1.337583,-0.61469 0.709629,-2.46594 0.709629,-4.0074 v -5.44 -2.24 c 0,-2.24803 0.880781,-4.72168 -0.152593,-6.97037 -0.459199,-0.99924 -1.967919,-0.69192 -3.047407,-0.71112 -1.039399,-0.0184 -1.567905,-0.17834 -2.559999,-0.27554 -1.208111,-0.1184 -2.898208,-0.043 -4.16,-0.043 h -19.519999 -2.88 -6.4 c -1.844881,0 -4.6726483,0.0587 -6.3999993,-0.006 -0.9762399,-0.0365 -3.3463103,-0.937112 -4.1955554,0.15851 -0.5088673,0.65651 -0.2841124,1.54664 -0.2844444,2.40741 -9.569e-4,2.48035 0,5.49687 0,8 v 2.56 7.99999 16.96 5.44 2.24 c 0,0.90133 -0.3565897,2.87743 0.7096296,3.36741 1.1561055,0.53129 3.1575418,0.15259 4.4103701,0.15259 h 9.9199854 c 1.210449,0 3.839175,0.3352 4.515556,-0.70962 0.833626,-1.28774 0.284444,-2.64387 0.284444,-4.41038 v -11.52 c 0,-3.22566 -0.0012,-6.72175 0,-9.92 3.2e-4,-0.8296 -0.188174,-1.79767 0.284443,-2.4074 0.709021,-0.9147 1.984607,-0.80685 3.528889,-0.40297 1.099631,0.2876 0.986218,1.64332 0.986668,2.81037 v 8.64 c 0,6.27911 -0.387474,12.96184 0.01926,19.2 0.0831,1.27452 0.279418,1.76209 0.299258,2.88 0.02362,1.33002 0.0015,3.38659 0.0015,4.8 0,2.87282 -0.516292,7.65293 0.06963,9.89334 0.293697,1.12301 4.231106,1.64282 4.660742,0 0.234291,-0.89586 0.06963,-1.56652 0.06963,-2.53334 v -7.68 c 0,-1.08138 -0.259516,-2.34562 0.284444,-3.0474 0.449621,-0.58006 1.270903,-0.4666 1.955556,-0.4726 1.930066,-0.0179 4.415903,0 6.4,0 2.706357,0 5.636396,-0.001 8.319999,0 0.829649,3.2e-4 1.797622,-0.1882 2.407407,0.28446 0.457386,0.35451 0.436876,0.88947 0.465186,1.31703 0.06468,0.97681 0.0074,2.43791 0.0074,3.51851 v 9.6 c 0,1.3019 0.63813,2.98524 -0.284448,4.41037 -1.056768,1.63243 -3.777895,0.70963 -5.795551,0.70963 h -17.28 c -2.107658,0 -5.3454,1.00571 -6.198517,-0.98666 -0.387046,-0.9039 -0.201482,-2.48755 -0.201482,-3.49334 v -9.28 -2.56 c 0,-1.50689 0.436772,-2.7381 -0.709629,-3.41037 -1.930588,-1.13213 -3.640808,-0.12163 -5.370371,-0.10963 -2.306388,0.016 -4.009698,0 -6.0799995,0 -1.5682073,0 -2.9541576,-7.2e-4 -4.7999997,0 -1.0221265,3.9e-4 -2.2560514,-0.31607 -2.7274074,0.70963 -0.5925946,1.28953 -0.1525925,3.93606 -0.1525925,5.37037 v 12.8 c 0,1.22237 -0.5918701,4.65047 0.4725745,5.47555 1.2371404,0.95893 5.4285583,0.28445 6.8874071,0.28445 h 2.8799995 14.72 3.199999 5.76 5.76 c 2.912622,0 5.718105,-0.7713 8.933334,0.0696 1.010626,0.26432 0.962246,1.00871 0.985186,1.85037 0.02512,0.92098 0.0015,2.22676 0.0015,3.2 v 13.44104 c 0,1.71363 0.594405,4.01277 -0.284448,5.37038 -0.456548,0.70514 -1.24353,0.68884 -1.955552,0.70814 -1.8431,0.0494 -4.193471,0.001 -6.079999,0.001 h -3.84 c -1.779531,0 -6.767488,0.87334 -7.29185,-0.98666 -0.243228,-0.86278 -0.38025,-2.67864 -0.38815,-3.81334 -0.02296,-3.30626 0,-6.61366 0,-9.92001 0,-1.07138 0.278784,-3.15166 -0.152592,-4.09037 -0.302447,-0.65812 -0.847884,-0.66242 -1.44889,-0.70222 -1.573261,-0.1042 -7.586293,0.05 -9.278517,-0.0133 -0.859525,-0.0322 -1.35213,-0.18412 -2.24,-0.27112 -2.671789,-0.26186 -6.787066,-0.043 -9.5999995,-0.043 -1.3839592,0 -6.2195593,-0.74365 -6.8874071,0.70963 -0.5296966,1.15266 -0.1525925,3.16328 -0.1525925,4.41037 v 9.60001 c 0,1.12496 -0.2967163,3.51263 0.2844444,4.41037 0.7108897,1.09814 1.8207166,0.70963 3.2355554,0.70963 H 15.360002 c 1.300014,0 3.31712,0.12693 4.478518,-0.0267 3.379133,-0.44701 0.862822,-10.61602 1.671111,-13.70669 0.287632,-1.09982 1.178159,-0.97766 2.170371,-0.98666 0.932666,-0.008 1.75665,-0.21996 2.407407,0.28446 0.580044,0.44961 0.466193,1.27095 0.472593,1.95554 0.01616,1.74125 0,3.97084 0,5.76001 v 19.2 2.24 c 0,1.09226 -0.400474,3.45433 0.472592,4.3274 0.862986,0.86297 3.89948,0.85598 4.257778,-0.51406 0.737123,-2.81854 0.06963,-6.65735 0.06963,-9.57334 0,-0.98203 -0.354106,-2.8636 0.284444,-3.6874 0.743759,-0.95954 3.434977,-0.4726 4.515556,-0.4726 h 4.8 6.079999 c 1.013575,0 2.66021,-0.51176 3.687407,0.28445 1.354571,1.04996 0.472593,3.54838 0.472593,5.47555 v 3.2 c 0,1.90927 0.564561,8.13476 -0.152593,9.89334 -0.381997,0.93667 -1.130937,0.95927 -2.087407,0.98517 -1.266801,0.0338 -2.860029,10e-4 -4.159999,10e-4 h -16.64 c -1.728808,0 -4.639296,0.71398 -5.927406,-0.28446 -0.649183,-0.50318 -0.472593,-2.573 -0.472593,-3.55554 0,-3.74383 0.0072,-7.80828 0,-11.52 -0.0021,-1.10026 0.382942,-3.29407 -0.792593,-4.19555 -0.761263,-0.58379 -1.828188,-0.28445 -2.727407,-0.28445 H 9.6000035 4.8000037 c -0.8899932,0 -2.5088035,-0.4624 -3.0474073,0.70963 -0.98118082,2.13511 -0.351896,8.2733 -0.06963,10.49037 0.1132159,0.88926 0.2202295,1.37642 0.2355555,2.24 0.03419,1.92658 -0.017208,6.94638 0.00148,8.96 0.00814,0.8767 -0.1326215,1.70035 0.7096295,2.0874 2.0783318,0.9551 6.0644973,0.1526 7.9303696,0.1526 H 32.96 45.12 c 1.973994,0 4.286137,-0.73969 5.607406,0.28445 0.879986,0.68209 0.472593,4.25852 0.472593,5.47555 0,4.37291 -0.03037,8.7472 0,13.12 0.01099,1.58388 0.834813,3.38095 0.03555,4.77334 -0.541426,0.94317 -1.354336,0.96027 -2.275552,0.98517 -1.645419,0.044 -3.749384,10e-4 -5.439999,10e-4 -2.847534,0 -5.803535,0.001 -8.64,0 -0.956472,-3.7e-4 -2.060312,0.19449 -2.727407,-0.4726 -0.568923,-0.56891 -0.465893,-1.36018 -0.472593,-2.0874 -0.02931,-3.16405 0.02196,-9.63778 0,-12.8 -0.0064,-0.92508 0.108662,-2.8008 -0.602964,-3.68741 -0.435615,-0.54271 -0.93277,-0.45191 -1.637036,-0.47111 -1.01309,-0.0271 -2.740759,-0.001 -3.839999,-0.001 H 8.3199996 c -1.3986908,0 -3.11713,-0.0126 -4.4799998,0 -0.8767102,0.008 -1.7003524,-0.13264 -2.0874074,0.70963 -0.4313736,0.93869 -0.1525925,3.01896 -0.1525925,4.09037 v 9.92 c 0,1.0714 -0.278795,3.15164 0.1525915,4.09037 0.3870549,0.84226 1.2106978,0.70163 2.0874074,0.70963 2.619702,0.0243 7.9396142,0 10.5599992,0 h 2.24 1.6 c 0.74077,0 1.987556,0.28902 2.727407,-0.28446 0.838818,-0.65017 0.472593,-2.62638 0.472593,-3.55554 0,-2.86121 -0.638647,-7.1851 0.06963,-9.89334 0.309702,-1.18422 1.36415,-0.98666 2.490371,-0.98666 0.739939,0 1.507639,-0.16494 2.087408,0.28452 0.580041,0.44961 0.466193,1.27094 0.472593,1.95555 0.01265,1.36322 0,3.08105 0,4.48 v 15.68 3.84 c 0,1.49632 -1.083289,6.32082 0.472592,7.75853 0.941978,0.8704 3.527002,0.4661 4.174815,-0.043 0.766027,-0.60199 0.47216,-1.47843 0.472592,-2.59554 9.82e-4,-2.54229 0,-5.47641 0,-8 0,-0.95157 -0.292966,-2.30026 0.284444,-3.04743 0.843505,-1.09146 3.595991,-0.64051 4.835556,-0.63851 1.108286,0.002 2.625495,0.13301 3.52,0.10371 2.765927,-0.0907 7.327104,-1.28219 10.213334,-0.1052 1.366123,0.55711 0.986665,1.97813 0.986665,3.36743 v 10.24 c 0,1.52304 0.260766,3.43461 -0.06963,4.79259 -0.394458,1.62127 -4.789995,1.28741 -6.65037,1.28741 h -16 c -1.72644,0 -3.678774,0.20773 -5.438517,-0.0267 -2.305354,-0.30713 -1.588572,-2.59358 -1.601482,-4.45334 -0.0088,-1.26633 -0.21467,-1.83977 -0.30074,-3.2 -0.08518,-1.34629 0.262222,-2.31981 0.262222,-3.52 0,-0.76368 -0.210632,-1.44868 -0.262222,-2.24 -0.09598,-1.47211 0.634492,-4.71704 -0.303704,-5.92743 -0.579103,-0.7471 -2.094341,-0.47257 -2.915556,-0.47257 H 9.9199995 c -1.6946844,0 -7.0167306,-0.86422 -8.0355552,0.70963 -1.41242467,2.18185 -0.2844444,8.22117 -0.2844444,10.81037 v 9.28 c 0,1.00281 -0.2034768,2.69134 0.4725925,3.36742 1.7762013,1.77619 8.7887336,0.47258 11.6874066,0.47258 h 6.4 2.24 3.52 2.879999 2.24 12.16 c 1.673003,0 4.190644,-0.0146 5.759999,0 0.767969,0.007 1.684717,-0.16664 2.087407,0.70962 0.561573,1.22204 0.152593,3.6934 0.152593,5.05038 v 12.48 c 0,1.43757 0.370152,4.13148 -0.152593,5.41334 -0.605151,1.48392 -2.105976,0.98666 -3.687407,0.98666 H 35.839998 c -1.616084,0 -3.00185,0.53296 -4.007407,-0.47306 -0.774246,-0.77426 -0.472593,-3.16844 -0.472593,-4.32742 v -9.92 c 0,-1.07141 0.278782,-3.15166 -0.152592,-4.09038 -0.345442,-0.75174 -1.031785,-0.68814 -1.767408,-0.70814 -1.244213,-0.0334 -3.157548,-10e-4 -4.479999,-10e-4 H 7.0399996 c -1.8105217,0 -4.5503006,-0.89438 -5.2874072,0.70962 -0.347549,0.75631 -0.1525925,2.27612 -0.1525925,3.13038 0,2.5332 -0.2228062,6.23832 0.082963,8.64 0.1266047,0.99441 0.229827,1.52167 0.237037,2.56 0.00977,1.40628 -0.310025,3.58894 0.4725924,4.19554 0.915148,0.70936 2.3509951,0.28446 3.6874074,0.28446 h 9.9199993 c 1.346028,0 2.999296,0.1431 4.158518,-0.0504 1.960864,-0.32732 1.602402,-3.96197 1.601482,-6.34962 -5.1e-4,-1.3234 -0.02815,-1.777 -0.18815,-2.88 -0.149613,-1.03137 -0.261018,-3.0279 -0.105183,-4.1526 0.1895,-1.3677 1.081873,-1.2794 2.213333,-1.2874 0.891674,-0.006 1.573256,-0.11409 2.087407,0.28445 0.760122,0.58918 0.428262,3.8357 0.555556,4.83555 0.142027,1.11554 0.234637,1.65187 0.237037,2.88 0.01232,6.3888 0,13.39472 0,19.83999 0,1.30344 -0.01178,2.88858 0,4.16 0.0065,0.697 -0.08135,1.53348 0.472592,2.08743 0.56197,0.56199 1.211651,0.48669 2.087407,0.47109 1.078621,-0.0192 1.886272,-0.11822 2.170371,-1.28592 0.81575,-3.35289 -1.566191,-10.07662 0.354073,-13.04297 0.772736,-1.19369 3.302153,-0.70962 4.515556,-0.70962 h 9.92 c 1.252812,0 3.254277,-0.3787 4.41037,0.15254 1.211162,0.5566 0.709629,3.24364 0.709629,4.32742 v 10.24 c 0,1.13442 0.263374,3.11332 -0.152593,4.13334 -0.382006,0.93678 -1.130927,0.95928 -2.087407,0.98518 -1.266801,0.0338 -2.860029,10e-4 -4.159999,10e-4 h -4.48 -2.56 -8.96 c -1.372209,0 -6.009916,0.48938 -6.755556,-0.47257 -0.648132,-0.83618 -0.284443,-1.73684 -0.284443,-3.04743 0,-3.43558 0.02317,-7.86423 0,-11.2 -0.0075,-1.07398 0.342842,-3.95546 -0.792593,-4.83554 -0.973067,-0.75426 -3.472936,-0.28445 -4.647407,-0.28445 -2.904543,0 -6.089202,-0.18889 -8.9599991,0.0415 -1.4789611,0.11865 -3.9481959,0.30353 -5.1199997,-0.0415 -1.58109781,3.28548 -0.3045969,6.99478 -0.3202469,10.23999 -0.00656,1.35948 -0.1977391,2.15651 -0.2911111,3.52 -0.3601824,5.25969 -0.1540299,11.33032 -0.023951,16.64 0.057349,2.34092 0.3153087,3.85358 0.3153087,6.4 0,2.41684 -0.1439113,3.60686 -0.291358,5.76 -0.091357,1.33407 -0.67009123,5.4767 0.4844444,6.39112 0.9551853,0.7565 3.1635339,0.27631 4.2869134,0.3832 1.0478222,0.0997 2.0615501,0.3093 3.1999998,0.2368 0.8280885,-0.0527 1.3632815,-0.20248 2.2399995,-0.26248 5.483933,-0.37518 11.414277,0.29888 16.639999,0.29088 1.444366,-0.002 2.184912,-0.19948 3.52,-0.29088 2.161038,-0.14793 4.828599,-0.0286 7.04,-0.0286 h 8.639999 c 0.956499,-5e-5 2.616436,0.2125 3.191109,-0.51308 0.81771,-1.03244 0.328891,-2.42465 0.328891,-3.96692 v -10.88 c 0,-1.4973 0.581172,-3.31595 -0.741728,-3.96691 -1.632163,-0.80312 -5.678291,-0.19309 -7.578271,-0.19309 h -13.76 c -1.864082,0 -4.58644,0.42262 -6.352592,-0.10171 -1.836147,-0.54514 -0.913652,-2.64039 -1.327407,-4.37829 2.795117,-0.82619 7.222399,-0.32 10.879999,-0.32 2.35603,0 5.401167,0.0508 7.68,-0.005 1.211948,-0.0297 1.9031,-0.25196 3.2,-0.30246 1.320039,-0.0514 2.275859,0.19823 3.519999,0.24023 3.61127,0.12191 7.758135,-0.25309 11.52,-0.25309 h 9.279999 c 0.956812,-5e-5 2.616026,0.21301 3.191109,-0.51308 1.222709,-1.54379 0.465429,-3.79102 -0.969873,-4.1852 -1.887486,-0.51832 -3.134341,-0.10172 -4.781236,-0.10172 -2.336498,0 -5.744657,0.86665 -7.898271,-0.19308 -1.230756,-0.60563 -0.741728,-2.28992 -0.741728,-3.64692 v -11.2 c 0,-1.17646 -0.393926,-3.05429 0.328892,-3.96691 0.684345,-0.86406 3.048002,-0.51308 4.151108,-0.51308 3.583818,0 9.819613,-0.13947 13.11852,0.006 2.93248,0.12931 1.921479,3.26343 1.921479,5.75382 v 16.32 c 0,1.66229 0.444531,4.89221 -0.193086,6.3526 -0.532046,1.21858 -1.682007,1.0044 -3.006914,1.0074 -3.932217,0.008 -7.904702,0 -11.839999,0 -1.757808,0 -4.10794,-0.60671 -4.432593,1.29877 -0.210774,1.23707 -0.04741,3.03061 -0.04741,4.46123 v 9.92 c 0,1.40739 -0.478862,2.72547 0.513086,3.51112 0.824243,0.65281 4.181333,0.28179 5.246914,0.3832 1.073828,0.10219 1.714287,0.25055 2.879999,0.26445 2.736441,0.033 7.565264,0.0625 10.24,-0.003 1.095893,-0.0269 1.760171,-0.20232 2.88,-0.28692 2.041352,-0.15414 2.778352,-0.57808 2.866172,-2.5884 0.126704,-2.90037 -0.489517,-5.86431 -0.27753,-8.96 0.09518,-1.38984 0.284513,-2.1513 0.291113,-3.52 0.03269,-6.77742 2.45e-4,-14.56886 2.45e-4,-21.44 0,-2.98656 -1.91e-4,-5.97347 0,-8.96 5.8e-5,-0.95839 -0.26273,-2.25992 0.328891,-3.00691 0.781675,-0.98693 4.138687,-0.51308 5.431108,-0.51308 h 12.8 c 1.657778,0 3.732648,-0.2961 5.072598,0.10171 1.43151,0.425 1.0074,2.59266 1.0074,4.05828 v 10.88 c 0,1.065 0.37603,3.07688 -0.32888,3.96692 -0.88592,1.11855 -4.48945,0.51308 -5.751118,0.51308 h -3.2 -6.08 c -0.97291,0 -2.779062,-0.2789 -3.738271,0.19309 -1.66541,0.81949 -0.421729,5.17871 -0.421729,6.52691 0,1.87006 -0.173017,2.75196 -0.291357,4.48 -0.274362,4.00647 -0.02864,8.43399 -0.02864,12.48 0,1.27739 -0.631904,4.88805 0.741729,5.56692 1.27084,0.62806 3.244521,0.50371 4.378271,0.50371 1.214717,0 1.911992,-0.28713 3.2,-0.27063 1.29623,0.0166 3.237129,-0.0978 4.48,0.0146 1.272197,0.11502 2.183365,0.26551 3.519995,0.26543 1.1781,-7e-5 2.24054,0.1927 3.00692,-0.55754 0.93271,-0.91304 0.51308,-3.36537 0.51308,-4.88246 0,-3.39324 0.0159,-7.21084 -2.4e-4,-10.56 -0.005,-1.12687 0.13513,-2.13931 -0.45853,-3.09828 -0.74498,-1.2034 -4.14198,-0.74172 -5.301225,-0.74172 h -2.56 c -0.84918,0 -3.413399,0.0131 -4.159756,-10e-4 -0.580215,-0.011 -1.218545,0.0754 -1.727158,-0.3274 -0.827568,-0.65545 -0.684131,-1.88967 -0.465684,-3.17235 0.330909,-1.94298 2.937032,-1.29877 4.752598,-1.29877 4.190703,0 8.734375,0.19053 12.607465,0.14169 5.18379,0.0968 11.08761,0.62326 15.85216,-0.18852 1.27769,-0.21767 1.28376,-1.08728 1.29703,-2.19283 0.0104,-0.86434 0.13782,-1.71672 -0.51135,-2.23088 -0.6676,-0.52875 -1.77857,-0.32848 -2.68692,-0.32889 -2.92566,-10e-4 -6.77551,0.16387 -9.59975,-0.0141 -0.78014,-0.0492 -1.46576,-0.1173 -1.91136,-0.7647 -1.54106,-2.23907 -0.01,-7.08893 -0.009,-9.46124 4.1e-4,-1.26609 -0.0484,-2.23753 -0.0484,-3.52 0,-1.35492 0.022,-2.36417 0.0499,-3.83976 0.0182,-0.96051 -0.0383,-1.82848 1.00592,-2.13852 3.49685,-1.03816 9.11808,-0.10171 12.75259,-0.10171 1.38384,0 3.40109,-0.40469 4.72692,0.19308 1.03376,0.46609 1.00006,1.47371 1.02814,2.36692 0.0352,1.11808 0.005,2.65767 0.005,3.83999 v 17.28 c 0,1.1095 0.0189,2.44063 -0.001,3.51977 -0.0139,0.73477 0.0539,1.4325 -0.5116,1.96566 -0.82351,0.77637 -2.90722,0.59457 -4.28692,0.59457 -4.28547,0 -11.47793,0.45188 -14.72,-0.32 -1.23268,4.17036 -0.32,9.73176 -0.32,14.08 0,1.28705 -0.35181,3.99817 0.32889,5.01829 1.00437,1.50511 3.25611,0.74171 5.11111,0.74171 h 13.76 c 1.78091,0 3.60629,0.78434 4.92816,-0.51308 1.14243,-1.12131 0.82521,-2.96242 0.8316,-4.28692 0.02,-4.15586 2.4e-4,-8.90839 2.4e-4,-13.12 v -23.36 c 0,-2.24128 -1.12077,-6.37707 0.51309,-7.67111 0.72689,-0.57572 2.68469,-0.32888 3.64691,-0.32888 h 9.92 c 2.51314,0 7.2367,-0.91977 9.49827,0.19308 1.62408,0.79914 0.74173,6.83647 0.74173,8.44691 v 7.68 c -3.9e-4,0.86346 0.18822,2.26825 -0.51308,2.89977 -0.88692,0.79863 -2.11034,0.61412 -3.32692,0.62 -3.57386,0.0172 -7.29275,2.3e-4 -10.88,2.3e-4 -1.73459,0 -3.79516,-0.74439 -4.79111,0.51309 -0.76947,0.97152 -0.32889,4.55289 -0.32889,5.88691 v 16.64 c 0,1.7884 -0.65076,5.48293 1.0074,6.20692 2.79834,1.22179 8.67905,0.19308 11.7926,0.19308 1.44836,0 2.55921,0.0108 4.16,-2.3e-4 1.43077,-0.01 2.57072,0.005 2.8326,-1.60594 0.36399,-2.23887 0.0474,-5.12933 0.0474,-7.35383 0,-2.63238 0.0491,-5.64097 -0.001,-8.31976 -0.0134,-0.70828 0.0568,-1.46115 -0.5116,-1.91135 -0.66148,-0.52389 -1.82122,-0.32849 -2.68692,-0.32889 -2.86026,-10e-4 -8.31784,0.75532 -10.5126,-0.23753 -1.04926,-0.47465 -1.54715,-3.71971 -0.49431,-4.55358 0.89532,-0.7091 1.96861,-0.32889 3.32691,-0.32889 h 7.04 4.16 5.44 6.08 3.2 c 1.12781,0 3.97709,0.53823 4.60691,-0.74171 3.00426,-6.10543 -7.62375,-4.37829 -10.68691,-4.37829 -1.02035,0 -3.09152,0.38698 -3.64691,-0.74171 -0.52848,-1.07403 -0.19309,-2.88971 -0.19309,-4.05829 v -9.92 c 0,-1.11226 -0.47299,-3.69013 0.51309,-4.47111 1.1991,-0.94971 4.76732,-0.32888 6.20691,-0.32888 h 4.16 c 2.0642,0 4.35658,-0.0138 6.4,2.3e-4 0.66111,0.005 1.50436,-0.10106 2.04691,0.32865 1.13827,0.90151 0.51309,4.86512 0.51309,6.39111 v 17.28 c 0,1.77582 0.85984,4.45883 -0.74172,5.24692 -0.94299,0.464 -2.96771,0.19308 -4.05828,0.19308 h -10.24 c -1.10623,0 -3.70842,-0.44988 -4.47111,0.51309 -0.82037,1.0358 -0.32889,3.3358 -0.32889,4.60691 0,4.17135 -0.63346,9.00235 0.0474,13.10594 0.24504,1.47684 1.31008,1.57131 2.5126,1.60912 1.90893,0.06 4.42809,0.005 6.4,0.005 h 29.76 4.16 2.24 c 0.88871,0 1.39301,0.0307 2.23974,-0.006 0.86561,-0.0377 1.64963,-0.0907 2.04717,-1.00123 1.19514,-2.7373 0.19309,-7.65873 0.19309,-10.8326 v -25.6 c 0,-3.04318 1.14258,-8.89316 -0.32889,-11.09828 -0.70865,-1.06195 -3.20902,-0.74171 -4.47111,-0.74171 -3.88908,0 -10.42145,-0.9704 -14.0326,0.10171 -1.85049,0.5494 -1.0074,3.51082 -1.0074,5.33828 v 18.88 c 0,1.11092 0.0729,2.5068 -0.0188,3.51383 -0.14768,1.62285 -2.26598,2.28578 -4.03951,1.41309 -0.98242,-0.48342 -0.73955,-1.63227 -0.74172,-2.68692 -0.005,-2.58714 0,-6.07666 0,-8.64 0,-1.72941 -0.23861,-3.49386 -0.27877,-5.12 -0.039,-1.5796 0.27635,-2.65593 0.27877,-4.16 0.002,-1.04603 8e-5,-1.80394 0,-2.88 -1.2e-4,-1.82671 -0.23289,-3.09835 -0.3074,-4.79999 -0.12059,-2.75379 -0.0126,-5.85323 -0.0126,-8.64 0,-2.95739 0.67205,-8.22631 -0.10172,-10.8326 -0.35308,-1.1893 -1.45183,-1.01776 -2.45803,-1.00569 -0.75746,0.009 -1.64837,-0.0704 -2.04716,0.74 -1.44297,2.9325 1.28171,10.86786 -0.52198,13.1452 -0.68396,0.86355 -3.32234,0.51309 -4.47111,0.51309 -4.16715,0 -10.04588,1.08187 -14.0326,-0.10172 -1.28976,-0.38293 -1.00693,-2.04512 -1.0074,-3.09828 -0.001,-2.81825 0,-6.20239 0,-8.96 v -3.2 c 0,-1.3617 -0.31447,-2.3868 0.19309,-3.41829 0.65224,-1.32552 5.17228,-0.74171 6.52691,-0.74171 h 15.68 c 1.72676,0 4.72943,-0.57889 6.29828,0.19308 1.19762,0.5893 0.69389,2.8936 0.79604,3.96692 0.33638,3.5347 0.12347,10.05757 0.27185,13.43876 0.10922,2.48877 1.43817,2.23776 3.51383,2.24124 3.72166,0.006 7.47541,0 11.2,0 1.37685,0 4.10931,0.21183 4.79111,-0.77877 0.89406,-1.29901 0.32889,-3.29213 0.32889,-4.98123 v -13.12 c 0,-1.44688 0.27178,-4.75481 -0.74172,-5.43112 -0.81877,-0.54635 -1.72588,-0.32842 -2.77828,-0.32888 -2.97815,-0.001 -5.97971,0 -8.96,0 h -24.64 c -2.95771,0 -7.82049,0.22418 -10.55851,-0.0188 -2.57737,-0.2287 -1.92149,-2.53082 -1.92149,-4.78125 v -13.12 c 0,-1.6433 -0.35588,-4.17125 0.10172,-5.7126 0.37242,-1.25442 1.57773,-1.00494 2.77828,-1.0074 3.88891,-0.008 7.93645,0 11.84,0 1.17387,0 4.15563,-0.28928 4.79111,0.51308 0.85442,1.07879 0.32889,3.19297 0.32889,4.60692 0,3.5491 -1.09184,10.90699 0.19309,13.67086 0.47632,1.0246 1.48923,0.99173 2.36691,1.03628 1.11873,0.0568 2.65709,0.0129 3.84,0.0129 h 17.6 c 1.44935,0 4.4649,0.0373 5.24691,-0.63629 0.90551,-0.77998 0.51301,-1.88953 0.51309,-3.20371 2.5e-4,-3.73082 0.0431,-7.46907 -0.001,-11.2 -0.0132,-1.11239 0.0977,-3.73676 -0.83186,-4.47112 -0.88363,-0.69806 -2.88244,-0.32888 -3.96691,-0.32888 h -10.56 c -1.17363,0 -3.539,-0.25975 -4.15111,0.51308 -0.50348,0.63569 -0.32713,1.51576 -0.32889,2.36692 -0.005,2.51574 0.18295,7.67074 -0.0188,9.91505 -0.16678,1.85569 -0.96717,1.8985 -2.54098,1.91852 -0.71101,0.009 -1.46433,0.0578 -1.91136,-0.50666 -0.97889,-1.23594 -0.32889,-5.12512 -0.32889,-6.84691 v -18.88 c 0,-1.68705 0.0216,-3.80422 -0.001,-5.44 -0.0131,-0.9366 0.0873,-1.95586 -0.77754,-2.55112 -1.42635,-0.98172 -4.04486,-0.49138 -4.29383,0.96989 -0.34392,2.01865 -0.0309,8.43138 -0.0477,10.86123 -0.006,0.91955 0.13586,1.71726 -0.51284,2.23111 -0.91203,0.72242 -2.92455,0.54016 -3.96691,0.54023 -0.78965,6e-5 -1.4258,-0.19054 -2.24,-0.17011 -1.13055,0.0284 -1.7999,0.24761 -2.88,0.27408 -1.68646,0.0413 -4.01947,0.007 -5.76,0.005 -1.3534,-0.002 -3.88289,0.35099 -4.37828,-1.32715 -1.1597,-3.92856 -0.10172,-9.96154 -0.10172,-14.03285 0,-1.06233 -0.3284,-3.48465 0.51309,-4.15112 0.73646,-0.58328 1.60097,-0.32839 2.68691,-0.32888 2.97742,-0.001 5.98023,0 8.96,0 h 12.8 c 1.18385,0 3.47506,-0.74455 4.47111,0.51308 0.86852,1.09658 0.32889,2.66012 0.32889,4.28692 v 10.88 c 0,1.31072 -0.22156,3.11259 0.74172,3.73828 1.3976,0.90779 3.06594,0.44371 5.01828,0.42049 1.14535,-0.0136 1.78842,-0.20625 2.88,-0.2358 0.78656,-0.0213 1.45252,0.17537 2.24,0.15406 2.27775,-0.0616 5.68779,0.33363 7.9526,-0.33875 1.15255,-0.34219 0.99972,-1.38178 1.00714,-2.45828 0.0182,-2.64256 2.6e-4,-5.64336 2.6e-4,-8.32 v -27.52 c 0,-2.8791 1.06885,-8.04365 -0.32889,-10.13828 -1.54242,-2.31145 -8.55388,-0.42186 -10.55111,-0.42172 -9.81291,6.4e-4 -19.62699,0 -29.44,0 -2.12478,0 -4.63922,-0.0141 -6.72,2.5e-4 -0.82178,0.006 -1.92455,-0.15754 -2.36691,0.74147 -0.58526,1.18939 -0.19309,2.45371 -0.19309,3.73828 v 10.24 c 0,1.21724 -0.34051,3.43332 0.51309,4.28691 1.38486,1.38486 5.12273,0.51309 7.16691,0.51309 h 13.76 4.48 c 0.83709,0 2.35824,-0.17106 3.09828,0.19308 1.22678,0.60366 1.05777,2.13196 0.64,3.61211 -0.38646,1.3692 -1.58236,1.2969 -2.77828,1.31358 -2.74387,0.0383 -5.86072,0.001 -8.64,0.001 h -26.88 c -2.98353,0 -7.99669,-1.01817 -10.45827,0.19308 -0.6773,0.33328 -0.70939,1.02991 -0.73531,1.7284 -0.0431,1.16135 -0.15508,2.37932 1.29234,2.7768 1.07086,0.29408 2.14656,0.10172 3.50124,0.10172 h 2.56 c 1.53897,0 2.4089,-1.2e-4 4.16,0 0.94057,6e-5 2.31849,-0.21635 3.00692,0.32888 0.6602,0.52289 0.50706,1.39272 0.51284,2.23112 0.0127,1.84242 2.4e-4,3.89687 2.4e-4,5.76 0,2.73703 1.12818,8.8472 -0.32889,10.68691 -0.674,0.851 -3.02625,0.51309 -4.15111,0.51309 h -10.88 c -1.01812,0 -3.2015,0.27732 -3.96691,-0.32889 -1.40579,-1.11342 -0.51309,-3.82611 -0.51309,-5.75111 v -16.64025 c 0,-1.95537 -0.98603,-5.29518 0.51309,-6.37852 0.77826,-0.5624 2.0216,-0.0368 3.00691,-0.0681 3.88476,-0.12342 7.69959,-0.27334 11.84,-0.27334 1.65075,0 3.9209,0.36672 4.37827,-1.29877 0.53571,-1.95074 -0.0583,-2.86406 -0.18963,-4.78123 -0.20431,-2.98348 -0.0286,-6.26789 -0.0286,-9.28 0,-0.94196 0.21215,-2.59473 -0.19308,-3.41828 -0.44013,-0.89446 -1.38056,-0.73467 -2.36692,-0.74147 -2.64256,-0.0182 -5.64337,-2.5e-4 -8.32,-2.5e-4 h -28.48 c -2.36976,0 -5.01993,-0.0159 -7.36,2.5e-4 -0.9195,0.006 -1.71735,-0.13584 -2.23111,0.51283 -1.06128,1.33998 -0.32889,7.79561 -0.32889,9.72692 v 19.52 c 0,2.85974 0.39297,5.52728 0.1484,8.32 -0.0841,0.96056 -0.0392,3.60615 0.0161,4.48 0.0484,0.76599 0.16107,1.3367 0.14963,2.24 -0.014,1.1065 -0.90196,3.26906 0.69333,3.96691 3.46936,1.51764 10.23748,0.19309 14.03259,0.19309 1.14877,0 3.78717,0.35047 4.47112,-0.51309 0.95769,-1.20918 0.32888,-3.14812 0.32888,-4.92691 v -13.12 c 0,-2.67993 -0.94975,-7.49575 0.19309,-9.81828 0.4241,-0.86188 1.51635,-0.75022 2.36667,-0.74 0.78692,0.009 1.47157,-0.0439 1.91136,0.51136 0.54356,0.68631 0.32888,2.42223 0.32888,3.32692 v 8.96 c 0,2.10716 -0.14134,4.66394 0.0543,6.72 0.12818,1.34695 0.26336,2.07984 0.26567,3.52 0.0135,8.40379 0,17.16363 0,25.6 0,3.93742 -0.002,7.90568 0,11.84 5.6e-4,1.23841 -0.34634,2.4715 0.74173,3.00691 3.53421,1.73906 4.05827,-1.59324 4.05827,-4.28691 v -17.92 c 0,-1.6859 -0.69724,-5.23133 0.32889,-6.52692 0.70942,-0.89572 3.31919,-0.51308 4.47111,-0.51308 h 10.56 c 1.43056,0 2.57397,-0.37985 3.73827,0.19308 0.91933,0.45239 0.73998,1.84 0.74173,2.68692 0.005,2.53089 0,5.43199 0,8 v 28.48 c 0,2.26748 0.0152,4.80078 -2.4e-4,7.04 -0.006,0.91949 0.13584,1.71734 -0.51284,2.23111 -1.33998,1.06127 -7.79561,0.32889 -9.72692,0.32889 -3.24091,0 -5.30309,0.31882 -8.32,0.32 -5.6366,0.002 -13.88918,0.0658 -19.52,-0.001 -1.26093,-0.015 -1.97423,-0.20619 -3.2,-0.29013 -1.64934,-0.11293 -7.3341,0.86424 -7.89827,-1.03604 -0.30883,-1.04021 -0.0791,-2.99703 -0.10641,-4.11259 -0.0331,-1.35063 -0.32745,-1.99475 -0.29803,-3.52 0.0342,-1.77106 -0.0357,-4.41844 0.0496,-6.08 0.0511,-0.99399 0.2078,-1.59436 0.24987,-2.55977 0.043,-0.9867 -0.006,-1.83682 1.01062,-2.13852 3.53169,-1.04851 9.90978,-0.10171 13.71259,-0.10171 1.14876,0 3.78717,0.35046 4.47112,-0.51309 1.07041,-1.3515 0.32888,-3.90836 0.32888,-5.88691 v -16.32 c 0,-1.3995 0.0242,-3.12067 -0.001,-4.47977 -0.0123,-0.65148 0.0614,-1.4575 -0.5116,-1.91135 -0.80262,-0.63568 -2.43881,-0.32888 -3.64692,-0.32888 h -10.24 c -1.51406,0 -3.20911,-0.26153 -4.43259,0.10172 -1.43151,0.425 -1.00741,2.59265 -1.00741,4.05828 v 10.88 c 0,1.15091 -0.3309,3.05933 0.55753,3.96691 0.8111,0.82855 2.55675,0.51309 3.60247,0.51309 2.59154,0 7.48774,-0.9537 9.81827,0.19308 1.21032,0.59555 0.95909,3.6834 0.22865,4.41383 -2.05182,2.05182 -7.62825,0.46469 -10.36692,0.46469 -0.86889,0 -1.65727,0.0453 -2.56,0.0482 -5.47409,0.0176 -11.14757,2.4e-4 -16.639995,2.4e-4 -2.883838,0 -6.443379,-0.0565 -8.96,-0.008 -2.038466,0.0393 -5.230561,-0.007 -7.359999,0.008 -0.980635,0.007 -2.124238,-0.11824 -2.458272,1.00717 -0.364008,1.22638 -0.316455,2.52304 0.411358,3.23506 0.47852,0.46814 1.051811,0.51203 1.727158,0.51605 1.455698,0.009 2.910005,-0.18324 4.479756,-0.24543 3.998456,-0.15838 8.217069,0.17828 12.159999,0.17828 1.215293,0 2.207031,-0.25414 3.52,-0.19877 0.999668,0.0422 1.631075,0.24323 2.559995,0.26618 0.92314,0.0228 1.66248,-0.22094 2.55852,-0.24397 1.40989,-0.0362 1.80595,0.50785 1.90272,1.57137 0.0848,0.93226 0.0188,2.16611 0.0188,3.19383 v 9.28 c 0,1.31144 0.89378,4.31685 -0.51308,5.43111 -1.77438,1.40508 -7.094977,0.3288 -9.727125,0.3288 H 67.199996 c -2.6754,0 -5.679086,0.0482 -8.319999,-0.001 -1.048467,-0.0197 -1.925737,0.005 -2.366914,-1.00592 -0.457476,-1.04779 -0.193086,-2.1555 -0.193086,-3.15259 v -6.4 -8.96 -2.88 -3.2 -11.2 c 0,-2.97368 -1.237456,-9.98926 0.328892,-11.96692 0.683955,-0.86355 3.322343,-0.51308 4.471108,-0.51308 h 9.919999 c 1.170034,0.002 3.28957,-0.26377 4.299507,0.37851 1.184936,0.7536 0.820005,2.83371 0.820493,4.10149 0.0014,3.72125 0,7.47582 0,11.2 0,1.10531 -0.311441,2.83843 0.328891,3.64691 0.851382,1.07496 4.318535,0.51309 5.751109,0.51309 h 16.959999 c 1.765475,0 5.829485,0.40828 6.298275,-1.29875 0.40654,-1.48043 0.10172,-3.47039 0.10172,-5.10125 0,-3.40538 0.002,-6.83729 0,-10.24 -6.4e-4,-1.43983 0.32581,-2.87582 -1.29876,-3.1526 -4.26658,-0.72693 -9.707075,-0.0491 -14.061235,-0.0474 -1.250781,4.7e-4 -3.667715,-0.24248 -4.286914,1.05703 -0.954423,2.00304 -0.193086,5.79496 -0.193086,8.22297 0,1.58013 0.413975,2.69558 -0.101728,4.43259 -0.408262,1.37514 -3.658818,1.39147 -4.36938,0.49432 -1.259721,-1.59051 -0.328891,-4.27244 -0.328891,-6.52691 v -18.88 c 0,-1.87897 0.03294,-4.25916 -0.0015,-6.07975 -0.0134,-0.70881 0.04056,-1.66297 -0.740249,-2.04717 -0.668149,-0.32877 -1.276186,-0.20611 -2.138027,-0.1916 -1.243242,0.0209 -2.117065,0.0797 -2.216787,1.60469 -0.112334,1.71785 0.288662,2.5701 0.296299,4.15383 0.0091,1.88859 0.03437,4.50781 -0.0012,6.4 -0.01756,0.9332 -0.0019,1.92853 -1.005927,2.36691 -1.380215,0.60262 -3.172788,0.19309 -4.752593,0.19309 h -9.919999 c -1.462603,0 -3.352207,0.50752 -3.966914,-0.74172 -0.4729,-0.96106 -0.193086,-2.51084 -0.193086,-3.73828 v -10.56 c 0,-1.5044 -0.477881,-2.89022 0.328892,-3.9795 1.023784,-1.38228 5.072763,-0.8205 6.711108,-0.8205 5.449682,0 9.976991,0.32 15.359999,0.32 2.060371,0 5.112587,-0.79129 6.526913,0.32888 0.816895,0.647 0.513086,2.75407 0.513086,3.83112 0,3.60632 0.32,6.4899 0.32,9.92 0,1.25511 -0.34456,4.43185 0.513086,5.11111 0.953916,0.75551 2.696201,0.32889 3.966914,0.32889 3.733193,0 7.466845,2.5e-4 11.199999,0 1.52843,-10e-5 3.02384,0.41968 3.64692,-1.00741 0.86405,-1.979 0.19308,-8.57365 0.19308,-10.83259 v -3.52 c 0,-2.07055 0.0139,-4.66826 -2.4e-4,-6.72 -0.005,-0.77662 0.1197,-1.73014 -0.51284,-2.23112 -0.5577,-0.4417 -1.39082,-0.3241 -2.04692,-0.32863 -3.297753,-0.0227 -7.786464,-2.5e-4 -11.199999,-2.5e-4 h -12.159999 -2.56 -8.64 -4.159999 -2.56 c -0.980572,0 -1.603365,0.006 -2.56,-2.6e-4 -0.957276,-0.007 -1.733154,0.12094 -2.366914,-0.51283 -0.842598,-0.8426 -0.513086,-3.81908 -0.513086,-5.24691 v -13.44 c 0,-1.77877 -0.628789,-3.71774 0.328892,-4.92692 0.607836,-0.76746 2.895444,-0.51308 3.831108,-0.51308 h 11.199999 c 1.246304,0 3.049311,-0.47401 3.831108,0.51308 0.669781,0.84567 0.288223,2.96875 0.383213,3.96692 0.116831,1.22767 0.259331,1.93492 0.265435,3.2 0.01222,2.53412 2.44e-4,4.4189 2.44e-4,6.72 0,0.91545 -0.0019,1.64092 0,2.56 0.0027,1.28994 -0.267192,2.5658 1.298764,2.83259 1.831192,0.31198 4.666177,0.0474 6.701235,0.0474 h 15.04 c 1.301519,0 2.895759,0.0224 4.159759,-0.001 0.94857,-0.0179 1.82698,0.0434 2.13852,-1.00592 0.49225,-1.65804 0.10172,-5.25498 0.10172,-6.99259 v -3.2 -3.52 c 0,-1.43774 0.28299,-2.81676 -0.10172,-4.1126 -0.43296,-1.45832 -2.34201,-1.0074 -3.73828,-1.0074 H 90.559995 c -1.013496,0 -3.173838,-0.29924 -3.966914,0.32888 -0.811992,0.64311 -0.512588,1.77141 -0.513086,2.87112 -0.0014,3.11621 0.911641,7.97226 -0.237529,10.51259 -0.461631,1.02047 -1.403115,0.99467 -2.322715,1.00569 -0.890546,0.0107 -1.948916,0.10898 -2.366669,-0.74 -1.272867,-2.5868 -0.193086,-7.75889 -0.193086,-10.77828 v -26.24098 c 0,-2.77927 0.01864,-5.89615 -2.45e-4,-8.64 -0.0083,-1.20951 0.09294,-2.39617 -1.29852,-2.77828 -0.928325,-0.25494 -3.11729,-0.3982 -3.628149,0.64 -0.771978,1.56887 -0.193086,4.57153 -0.193086,6.29828 v 15.68001 c 0,1.38099 0.580615,5.84488 -0.513086,6.71111 -0.724453,0.57377 -1.702173,0.32844 -2.686914,0.32889 -2.738296,10e-4 -7.220151,0 -9.919999,0 -1.282422,0 -5.122398,0.68476 -6.071108,-0.51309 -0.578926,-0.73096 -0.328443,-1.69144 -0.328892,-2.68691 -0.0012,-2.76481 0,-5.55305 0,-8.32001 v -26.56 c 0,-2.82695 -1.011191,-8.01087 0.193086,-10.45828 0.443247,-0.90078 1.798432,-0.73988 2.686914,-0.74172 2.765839,-0.006 5.55227,0 8.319999,0 h 28.799999 c 2.069834,0 4.716055,-0.0136 6.719995,2.6e-4 0.88308,0.006 1.91797,-0.1709 2.36692,0.74146 0.49192,0.99971 0.19308,2.94184 0.19308,4.05828 v 9.92 c 0,1.12993 0.41622,3.34616 -0.32888,4.28692 -0.71463,0.9023 -2.82286,0.51308 -3.83112,0.51308 H 90.559995 c -1.143418,0 -4.061211,-0.3673 -4.606914,0.74172 -0.64999,1.32094 -0.193086,2.87826 -0.193086,4.69828 v 16.96001 c 0,1.66228 -0.444531,4.8922 0.193086,6.3526 0.432823,0.99132 1.303965,0.98591 2.366914,1.00591 2.943174,0.0554 6.29791,0.001 9.28,0.001 2.097588,0 5.983565,0.86179 7.486915,-0.32889 1.10307,-0.87365 0.51308,-3.305 0.51308,-4.47111 0,-3.84577 0.002,-7.98268 0,-11.84001 -5.5e-4,-1.23836 0.34633,-2.47152 -0.74172,-3.00691 -0.88276,-0.43438 -2.72512,-0.19309 -3.73828,-0.19309 -2.704185,0 -6.66397,0.66088 -9.232593,-0.10172 -1.072099,-0.31828 -0.994941,-1.24449 -1.005673,-2.13853 -0.0089,-0.7424 -0.08685,-1.25266 0.191357,-1.81803 0.395352,-0.80345 1.32624,-0.7266 2.047158,-0.74023 1.737549,-0.0329 3.969775,-0.002 5.759756,-0.002 h 8.959995 3.84 4.8 c 1.85832,0 6.6418,1.1008 8.44692,-0.32889 0.6019,-0.47672 0.52248,-1.30441 0.51135,-2.23086 -0.0113,-0.94402 0.0528,-1.82429 -1.00567,-2.13853 -2.22231,-0.65977 -3.70778,-0.10172 -5.7126,-0.10172 -2.83954,0 -7.93347,1.20017 -7.99851,-2.24026 -0.0766,-4.0524 -0.001,-9.27496 -0.001,-13.43974 0,-1.50088 -0.5545,-2.98557 0.51309,-3.83111 0.64304,-0.5093 2.16187,-0.32883 3.00691,-0.32889 h 7.68 c 1.8198,0 6.01224,-0.74525 7.51556,0.32889 1.40081,1.00089 0.80444,3.35982 0.80444,5.11111 v 17.28 c 0,1.3999 0.0242,3.12014 -0.001,4.47974 -0.0173,0.91922 0.0249,1.85637 -1.00592,2.32272 -3.13655,1.41891 -10.20355,0.23754 -14.0326,0.23754 -1.66283,0 -3.52088,-0.68668 -4.47111,0.51308 -0.66357,0.83784 -0.32889,3.48057 -0.32889,4.60692 v 10.56051 c 1.2e-4,1.81976 -0.22371,3.41836 1.60618,3.76691 2.46941,0.47037 7.01252,0.0731 9.59382,0.0731 h 8 c 1.09554,0 2.48179,0.0513 3.51976,-0.0141 0.6513,-0.041 1.43852,-0.0777 1.91136,-0.76471 0.49975,-0.7261 0.32691,-1.4619 0.32888,-2.42123 0.005,-2.52403 0,-5.1468 0,-7.68001 v -26.56 c 0,-2.95478 -0.006,-6.01605 0,-8.96 0.002,-1.05722 -0.22206,-1.96886 0.51309,-2.55111 0.68629,-0.54355 2.42224,-0.32889 3.32691,-0.32889 h 8.64 8 c 0.93133,0 2.5433,-0.29175 3.32692,0.32889 0.80953,0.64115 0.48327,2.30756 0.56741,3.19111 0.15347,1.61168 0.26555,2.3676 0.26567,4.16 1.9e-4,2.9437 0.006,6.02688 0,8.96 -0.002,1.032 0.17796,2.20901 -0.74173,2.82272 -1.27503,0.85082 -3.45278,0.37728 -5.01827,0.37728 h -7.36 -2.24 c -1.30149,0 -2.72583,-0.30509 -3.73827,0.19309 -0.72726,0.35787 -0.70712,1.0835 -0.73556,1.7284 -0.077,1.74685 -0.006,4.53117 -0.006,6.39851 v 14.72004 c 0,1.98008 -0.39987,5.83181 1.29876,6.29828 2.98804,0.82057 6.20334,0.10172 8.94124,0.10172 1.80093,0 7.31369,0.56695 8.85827,-0.19309 1.48781,-0.73209 0.74173,-2.93717 0.74173,-4.60691 0,-3.52276 -0.31872,-5.9486 -0.32,-9.28001 -4.5e-4,-1.17929 0.36218,-4.05437 -0.32889,-4.92691 -0.51377,-0.64869 -1.3116,-0.50648 -2.23111,-0.51283 -2.39953,-0.0165 -8.89713,0.4374 -10.86124,-0.10198 -1.41667,-0.38904 -2.05283,-3.18623 -0.96987,-4.5005 0.84864,-1.02992 4.42799,-0.19778 6.07111,-0.19778 h 20.48 c 1.49455,0 3.34973,0.0338 4.8,-0.005 1.16729,-0.031 2.41688,0.0787 3.00691,-1.31802 0.50957,-1.20625 0.28586,-3.28719 -1.12962,-3.69557 -2.85385,-0.82338 -6.90612,-0.10152 -9.87729,-0.10172 -1.17553,-8e-5 -3.06551,0.32424 -3.64691,-1.0074 -1.48381,-3.39852 -0.19309,-9.99729 -0.19309,-13.7126 0,-1.19557 -0.36834,-3.29137 0.19309,-4.36568 0.48634,-0.93065 1.81006,-0.45477 2.68691,-0.43926 1.03914,0.0184 1.88777,-0.10309 2.88,-0.14494 2.75895,-0.11637 6.45445,-0.16992 9.28,-0.17012 1.09041,-8e-5 3.47271,-0.31598 4.28691,0.32889 1.39036,1.10117 0.51309,3.85535 0.51309,5.75111 v 16.64 c 0,1.39799 0.0242,3.1227 -0.001,4.47975 -0.0139,0.73478 0.0539,1.4325 -0.51161,1.96568 -0.75486,0.71166 -2.19224,0.59275 -3.32691,0.59457 -3.84184,0.006 -10.50324,-0.15148 -14.07851,0.006 -3.57818,0.15779 -1.92149,8.56168 -1.92149,11.51383 0,1.71398 -0.84232,6.61408 0.74172,7.67111 1.07471,0.71715 4.12971,0.32889 5.33828,0.32889 h 13.12 c 1.23547,0 4.58766,0.59808 5.24691,-0.74172 0.77983,-1.58483 0.19309,-3.19525 0.19309,-4.69828 v -5.76 -25.28 c 0,-3.05981 -0.11902,-8.03955 0.006,-10.87852 0.0498,-1.12859 0.21207,-1.77875 1.6,-1.90271 5.34518,-0.4774 11.20006,-0.0188 16.63383,-0.0188 1.49609,0 4.70137,-0.43524 5.97828,0.19308 1.08807,0.53539 0.74115,1.76854 0.74172,3.00692 0.002,3.93422 0,7.90267 0,11.84 0,1.3964 0.35678,3.39095 -0.51309,4.24246 -0.92281,0.90336 -2.47197,0.55754 -3.96691,0.55754 h -4.48 -5.44 c -1.36432,0 -3.28295,-0.50334 -4.69828,0.19308 -0.80028,0.39379 -0.72414,1.19545 -0.74024,2.04717 -0.0256,1.35641 -0.001,3.08227 -0.001,4.47975 v 16.95999 c 0,2.09324 -0.93522,4.28404 0.51309,5.43111 0.74087,0.5868 4.15117,0.32846 5.24691,0.32889 1.55717,6e-4 2.74074,0.21295 4.16,0.26543 2.46308,0.0911 6.38769,0.38246 8.9126,-0.36715 1.03974,-0.30867 0.98783,-1.1818 1.00591,-2.13854 0.0732,-3.87103 0.001,-9.1174 0.001,-13.11975 0,-1.24691 0.34154,-3.15423 -0.51309,-3.83111 -0.61351,-0.48592 -1.58424,-0.32727 -2.36691,-0.32889 -2.51647,-0.005 -8.38045,0.49166 -10.54123,-0.10172 -1.49983,-0.41187 -1.31158,-1.56531 -1.29705,-2.77802 0.0105,-0.87496 -0.0379,-1.66438 0.74,-2.04717 1.98088,-0.97471 7.76724,-0.19309 10.13828,-0.19309 h 26.88 7.04 c 1.47791,0 3.61853,0.52346 4.28691,-1.0074 2.09898,-4.8075 -3.62043,-4.11279 -6.52691,-4.1126 -2.32434,1.6e-4 -3.37135,0.29416 -5.44,0.31877 -3.34838,0.0398 -7.16735,0.001 -10.56,0.001 -1.99957,0 -5.18069,0.83315 -6.52692,-0.51308 -0.69644,-0.69645 -0.51308,-3.04481 -0.51308,-4.28692 v -10.55997 c 0,-1.54228 -0.48881,-2.93447 0.32888,-3.96691 0.96297,-1.21584 7.80256,-0.51309 9.59112,-0.51309 h 6.08 2.88 19.84 c 2.06921,0 4.71691,0.0444 6.72,-0.005 1.04388,-0.0256 1.77505,-0.34283 2.86123,-0.23925 0.74697,0.0712 1.04656,0.42465 1.19705,0.93134 0.60847,2.04862 0.10172,7.27778 0.10172,9.8726 v 27.2 c 0,2.76746 0.006,5.55451 0,8.32 -0.002,0.9217 0.14671,2.02711 -0.51309,2.68691 -0.86215,0.86215 -2.69898,0.51309 -3.96691,0.51309 h -10.56 c -1.51026,0 -2.97139,0.39638 -4.05828,-0.32889 -1.0217,-0.68178 -0.74172,-2.56578 -0.74172,-3.83111 v -10.87999 c 0,-1.15388 0.52283,-3.98468 -0.74172,-4.60691 -1.56803,-0.77156 -4.57186,-0.19309 -6.29828,-0.19309 h -15.36 c -1.6316,0 -5.23194,-0.48908 -6.61828,0.19309 -1.34895,0.66377 -0.74172,2.44057 -0.74172,3.96691 v 10.56001 c 0,1.67572 -0.49731,3.14017 0.32888,4.37828 0.69911,1.04766 2.93456,0.74172 4.15112,0.74172 3.73187,0 8.34371,2.1e-4 11.52,0 0.76279,-6e-5 2.62763,0.18619 3.32691,-0.51309 0.7427,-0.74269 0.51262,-1.96926 0.51309,-3.00691 0.001,-2.81953 -1.00619,-8.02102 0.19308,-10.45829 0.47746,-0.97033 2.66608,-1.12222 3.86989,-0.54863 1.24136,0.59148 1.02613,1.9567 1.05234,3.00691 0.032,1.28262 0.005,3.12092 0.005,4.48001 0,6.32808 0.0101,12.89611 0,19.2 -0.002,1.34957 -0.0884,1.99486 -0.22864,3.2 -0.12066,1.03676 -0.25699,2.7742 0.52889,3.64691 0.85492,0.9494 3.9927,0.87098 4.39803,-0.49432 0.57597,-1.94005 0.10172,-5.01566 0.10172,-6.99259 0,-2.4234 -0.37719,-2.92903 0.0474,-5.42123 0.27252,-1.59959 2.59318,-1.29877 4.1126,-1.29877 h 10.24 c 1.29564,0 3.21244,-0.26053 4.43259,0.10172 1.53166,0.45472 1.00741,2.23031 1.00741,3.73828 0,3.96279 1.25572,11.75349 -0.19309,14.96691 -0.45178,1.00203 -1.47301,1.00004 -2.36691,1.02815 -1.26664,0.0398 -2.85647,0.005 -4.16,0.005 h -16.64 c -1.74483,0 -4.71774,0.65609 -5.88692,-0.51309 -0.73597,-0.73598 -0.51308,-2.49058 -0.51308,-3.64691 v -11.84 c 0,-1.40739 0.47884,-2.72549 -0.51309,-3.51112 -0.80226,-0.63541 -3.21416,-0.32888 -4.28691,-0.32888 h -11.2 c -1.41987,0 -3.3307,-0.36543 -3.73828,1.0074 -0.41403,1.39455 -0.10172,3.66615 -0.10172,5.3926 v 13.12 c 0,1.00111 -0.0356,2.25064 0.006,3.19851 0.0288,0.65342 0.0397,1.3678 0.73555,1.81977 0.74672,0.48502 1.5415,0.40918 2.45828,0.42049 2.84429,0.0351 6.07873,0.001 8.96,0.001 3.72447,0 7.67906,-0.0484 11.2,-0.0484 1.62978,0 2.98498,0.0687 4.8,0.0472 1.1657,-0.0139 1.80619,-0.16227 2.88,-0.26446 1.66226,-0.1582 4.66111,-0.11785 6.4,-0.0417 1.15052,0.0504 1.81027,0.26948 2.88,0.29012 1.13275,0.0219 2.02158,-0.25131 3.2,-0.28888 1.3891,-0.0443 2.31884,0.28664 3.52,0.26519 0.64115,-0.0114 1.41683,-0.35217 2.04691,0.0785 1.28762,0.88013 0.51309,3.44455 0.51309,5.08246 v 13.12 c 0,1.81752 0.48111,3.96812 -0.19309,5.33828 -0.55582,1.12955 -3.0116,0.74172 -4.28691,0.74172 h -10.24 c -1.24916,0 -3.23254,0.3707 -4.37828,-0.19309 -1.32971,-0.6543 -0.74172,-3.14014 -0.74172,-4.28691 v -11.2 c 0,-1.28364 0.38986,-2.41942 -0.32889,-3.32692 -0.50473,-0.63726 -1.55143,-0.50814 -2.23111,-0.51283 -1.26856,-0.009 -2.85508,-2.5e-4 -4.16,-2.5e-4 h -17.92 c -1.41877,0 -4.39,-1.10883 -5.01828,1.0074 -0.36325,1.2235 -0.10172,2.91853 -0.10172,4.4326 0,3.69248 -0.0251,7.5214 2.5e-4,11.2 0.01,1.433 -0.002,2.5706 1.60592,2.83259 2.14268,0.3492 3.21471,0.3436 5.11383,0.36618 3.07773,0.0366 6.25726,0.0155 9.28,9.7e-4 1.22775,-0.006 3.05508,0.19049 3.83111,-0.82814 0.79813,-1.04764 0.20188,-2.19444 0.0632,-3.6516 -0.24039,-2.52584 -0.78859,-7.93362 0.13877,-9.81828 0.49834,-1.01278 3.87719,-1.13877 4.59803,-0.22864 1.15047,1.45258 0.32889,4.72934 0.32889,6.84692 v 19.2 c 0,1.76675 -0.0118,3.69046 2.5e-4,5.44 0.006,0.825 -0.14185,1.93226 0.74147,2.36691 1.70855,0.84072 3.62507,0.10145 3.95656,-1.10566 0.24574,-0.89489 0.10166,-1.63711 0.10172,-2.54125 1.3e-4,-2.09133 0,-4.87942 0,-7.04 0,-1.11469 -0.15432,-3.20602 0.74172,-3.64692 3.08503,-1.51804 10.23326,-0.19308 13.97828,-0.19308 1.29904,0 3.66919,-0.41379 4.60691,0.32888 0.94156,0.74573 0.51309,3.23424 0.51309,4.47112 v 9.92 c 0,1.51943 0.36541,2.92328 -0.19309,4.05828 -0.64137,1.3034 -4.70162,0.74172 -6.20691,0.74172 h -17.28 c -1.30782,0 -4.85338,0.62039 -5.75112,-0.51309 -0.81611,-1.03043 -0.32888,-3.68922 -0.32888,-4.92691 v -3.2 -5.44 c 0,-1.29479 0.3381,-4.71557 -0.74172,-5.24692 -1.17537,-0.57836 -2.67242,-0.19308 -4.05828,-0.19308 h -10.56 c -1.2034,0 -3.85129,-0.1436 -4.28692,0.74171 -0.75056,1.52536 -0.19308,3.49379 -0.19308,5.33829 v 12.8 c 0,1.41808 -0.24238,4.64388 0.82051,5.43111 1.9516,1.44545 7.53011,0.32889 10.05949,0.32889 h 27.84 c 2.64216,0 5.36627,-0.005 8,0 0.76617,0.002 1.76353,-0.14907 2.36691,0.32888 1.15906,0.91809 0.13309,3.6728 0.28568,5.11112 0.48178,4.54111 0.22741,9.19203 0.22741,13.76 0,1.69449 0.54699,3.38865 -0.32889,4.66123 -0.51516,0.74847 -1.47029,0.7499 -2.23111,0.77382 -1.91293,0.0601 -4.42504,0.005 -6.4,0.005 -2.57409,0 -5.45862,0.0343 -8,-10e-4 -1.09039,-0.0152 -2.19618,0.0566 -2.68692,-1.03185 -1.01109,-2.24258 -0.19308,-8.65609 -0.19308,-11.12691 v -3.2 c 0,-1.6076 0.57793,-3.28702 -0.51309,-4.15112 -0.97154,-0.76947 -4.55287,-0.32888 -5.88691,-0.32888 h -16.64 c -1.37658,0 -5.82871,-0.67719 -6.52692,0.74171 -0.69378,1.40998 -0.19308,2.85321 -0.19308,4.37829 0,3.23623 -0.12897,6.68693 0.0126,9.92 0.0356,0.81265 0.15722,3.78449 0.55482,4.24246 0.57203,0.6589 1.40699,0.54367 2.31258,0.5563 2.64219,0.0369 5.64365,10e-4 8.32,10e-4 1.85847,0 3.92388,0.0244 5.76,-10e-4 0.84035,-0.0117 1.74806,0.0495 2.36691,-0.5563 0.66656,-0.6525 0.51111,-1.68688 0.51309,-2.64246 0.006,-2.87137 -0.67268,-7.90422 0.10172,-10.5126 0.33714,-1.13565 1.47052,-1.0069 2.45828,-1.0069 0.72478,0 1.73035,-0.11968 2.23111,0.51258 1.11742,1.41086 0.32889,4.99024 0.32889,6.84692 v 18.87999 c 0,1.78047 -0.0311,4.03497 10e-4,5.75977 0.0161,0.85172 -0.06,1.65336 0.74024,2.04715 2.12751,1.04687 3.98136,-0.1243 4.0521,-1.7284 0.0406,-0.92098 0.006,-1.56605 0.006,-2.55852 0,-2.38765 -0.005,-4.95535 0,-7.36 0.002,-0.86521 -0.19907,-2.22398 0.74172,-2.68691 1.14595,-0.56389 3.12904,-0.19308 4.37828,-0.19308 h 9.92 c 1.07271,0 3.48464,-0.30653 4.28691,0.32888 1.06758,0.84553 0.51309,2.33028 0.51309,3.83111 v 10.24 c 0,1.59991 0.39736,3.17834 -0.19309,4.37829 -0.64137,1.30339 -4.70162,0.74171 -6.20691,0.74171 h -17.28 c -1.3078,0 -4.85338,0.6204 -5.75112,-0.51308 -0.82099,-1.03658 -0.32888,-3.675 -0.32888,-4.92692 v -3.52 -5.76 c 0,-1.66291 0.68679,-3.52078 -0.51309,-4.47111 -1.32642,-1.05055 -3.83457,-0.32888 -5.24691,-0.32888 h -4.16 c -1.4867,0 -8.63973,-0.68813 -9.59112,0.51308 -1.2239,1.54531 -0.32888,3.60035 -0.32888,5.56691 v 12.48 c 0,1.37043 -0.3368,3.85899 0.19308,5.0726 0.43282,0.99131 1.30395,0.98592 2.36692,1.00592 2.94318,0.0554 6.29791,10e-4 9.28,10e-4 h 24.64 2.88 c 1.73984,0 7.96078,-0.56345 9.49828,0.19309 1.54804,0.76174 0.74172,3.19418 0.74172,4.92691 v 13.12 c 0,1.70805 0.31197,3.99914 -0.10172,5.3926 -0.55237,1.86051 -8.42209,1.0074 -10.45828,1.0074 h -3.84 c -1.52934,0 -3.15948,0.36278 -4.4326,-0.19308 -1.22475,-0.53473 -1.0074,-2.88475 -1.0074,-4.28692 v -10.88 c 0,-1.51234 0.47832,-2.94773 -0.32889,-3.96691 -0.82199,-1.03783 -4.96543,-0.51309 -6.39111,-0.51309 h -17.28 c -1.57406,0 -5.10865,-0.70267 -5.65828,1.29877 -1.12209,4.08604 -0.10172,9.81752 -0.10172,14.06123 0,1.27797 -0.45061,3.65034 1.0074,4.28692 1.22367,0.53426 3.12,0.19308 4.4326,0.19308 h 9.92 c 1.11076,0 3.68468,0.48215 4.28691,-0.74171 0.75871,-1.54194 0.19309,-2.92803 0.19309,-4.37829 0,-1.70812 -0.20793,-6.80253 0.0474,-8.30123 0.24893,-1.46105 3.34164,-2.15191 4.42371,-0.78568 0.60004,0.7576 0.31023,2.69439 0.33357,3.64691 0.0378,1.54387 0.27719,2.15477 0.31063,3.52 0.0246,1.00299 0.005,2.42618 0.005,3.52 v 26.88 7.04 c 0,1.1551 -0.64043,3.52608 1.0074,4.06297 0.91633,0.29856 2.51291,0.63612 3.27951,-0.10074 0.9977,-0.95898 0.51309,-3.599 0.51309,-4.92223 v -13.44 -4.48 c 0,-2.04632 -0.95996,-5.22443 0.51308,-6.39111 0.76541,-0.60621 2.94881,-0.32889 3.96692,-0.32889 3.83265,0 6.58203,0.32 10.24,0.32 1.65746,0 4.52011,-0.81041 5.01828,0.98 0.69066,2.48227 0.10172,8.7443 0.10172,11.82 v 9.28 2.88 2.24 10.24 c 0,2.92116 1.0797,8.4718 -0.19309,11.09951 -0.67408,1.39166 -3.25158,1.08848 -4.60691,1.05581 -2.04926,-0.0494 -2.76616,-0.47733 -5.12,-0.17977 -1.68198,0.21264 -2.18633,-0.0505 -3.84,-0.12295 -2.37245,-0.10389 -4.97188,-0.0126 -7.36,-0.0126 h -6.08 -12.8 c -2.26643,0 -4.80217,0.0406 -7.04,-0.001 -1.06297,-0.02 -1.9341,-0.0146 -2.36692,-1.00592 -0.44716,-1.0242 -0.19308,-2.96441 -0.19308,-4.1126 v -10.24 c 0,-1.11072 -0.48213,-3.6847 0.74172,-4.28691 1.07406,-0.5285 2.88968,-0.19309 4.05828,-0.19309 3.32761,0 7.01299,-0.1707 10.24,0.16815 1.24316,0.13053 3.62306,0.41082 4.47111,-0.68 1.04094,-1.33893 0.32889,-5.20524 0.32889,-6.84815 v -14.08 -2.88 c 0,-1.75056 0.66511,-3.85795 -0.51309,-4.79111 -1.32453,-1.04904 -3.83596,-0.32889 -5.24691,-0.32889 -3.59762,0 -6.2294,-0.32 -9.92,-0.32 -1.05332,0 -3.40369,-0.43843 -3.96567,0.74172 -0.48545,1.01948 0.10832,2.45078 0.0844,3.41828 -0.0397,1.60746 -0.39528,2.68387 -0.22446,4.48 0.20065,2.10977 0.26569,3.057 0.26569,5.44 0,1.67715 -0.77149,4.41371 0.51308,5.43112 0.72797,0.57656 2.41389,0.32888 3.32692,0.32888 2.70527,0 7.36752,-0.64199 9.8726,0.10172 1.01654,0.3018 0.9939,1.15781 1.00568,2.13854 0.0109,0.90816 0.11558,1.70849 -0.51137,2.3222 -0.55754,0.54581 -1.33908,0.53036 -2.04691,0.5526 -1.3593,0.0428 -3.08031,0.005 -4.48,0.005 h -19.52 c -1.59115,0 -3.57649,0.03 -5.12,-0.005 -0.66147,-0.0149 -1.76096,-0.32069 -2.36691,0.0679 -0.53338,0.34205 -0.48299,0.99093 -0.50692,1.53828 -0.0589,1.34761 -0.28506,2.7149 1.00123,3.09679 2.49807,0.74163 6.87168,0.10172 9.5526,0.10172 0.94974,0 2.59148,-0.21375 3.41828,0.19309 1.34561,0.66211 0.74172,2.45242 0.74172,3.96691 v 10.88 c 0,1.35584 0.39994,2.96606 -0.32889,4.05828 -0.62847,0.94182 -2.39308,0.74164 -3.51111,0.74172 -3.83983,2.6e-4 -7.68014,0 -11.52,0 -1.30623,0 -3.48164,0.26155 -4.15111,-0.74172 -0.98037,-1.46918 -0.32889,-4.37138 -0.32889,-6.29828 v -15.68 c 0,-1.86148 -0.34404,-4.53115 0.10172,-6.03259 0.54586,-1.83862 2.89603,-1.00741 4.37828,-1.00741 h 11.2 c 1.6909,0 3.60293,0.35938 4.05828,-1.29877 0.32687,-1.19027 0.10172,-3.07046 0.10172,-4.46123 v -9.92 c 0,-1.47961 0.54408,-2.9938 -0.51309,-3.83111 -0.91877,-0.72768 -3.99732,-0.32889 -5.24691,-0.32889 h -13.76 c -1.20977,0 -3.95641,-0.43976 -4.92691,0.32889 -0.87823,0.69557 -0.51301,2.07342 -0.51309,3.19111 -2.2e-4,3.36403 0,6.86346 0,10.24 v 26.56 c 0,1.80791 0.0434,4.01852 0.2274,5.76 0.0957,0.90586 0.15854,1.94662 -0.50197,2.77828 -0.67078,0.84457 -1.48154,0.73373 -2.60543,0.74147 -3.25861,0.0224 -6.64918,2.5e-4 -9.92,2.5e-4 -3.48803,0 -7.16934,0.50424 -10.54123,-0.42172 -1.46439,-0.40214 -1.29613,-1.81921 -1.29877,-3.09828 -0.008,-3.78451 0,-7.72146 0,-11.52 0,-1.34974 -0.36346,-3.41277 0.32889,-4.28691 0.45385,-0.57303 1.25988,-0.4993 1.91136,-0.5116 1.34766,-0.0255 3.09151,-0.001 4.47975,-0.001 h 3.84 c 1.59791,0 7.12064,0.50448 8.53828,-0.19308 1.65422,-0.81399 0.74172,-3.72028 0.74172,-5.56692 v -17.6 c 0,-1.3015 0.0224,-2.89574 -0.001,-4.15976 -0.0161,-0.85172 0.06,-1.65336 -0.74024,-2.04715 -0.94092,-0.46299 -2.97471,-0.19309 -4.05828,-0.19309 h -10.24 c -1.11226,0 -3.69014,-0.47298 -4.47111,0.51309 -0.7049,0.89002 -0.32889,2.90191 -0.32889,3.96691 v 10.24 c 0,1.16805 -0.29373,3.44524 0.32889,4.37828 0.49916,0.74803 1.26234,0.72202 2.23111,0.74024 2.5926,0.0488 6.36676,3.1e-4 8.96,10e-4 0.98475,4.5e-4 1.96246,-0.24488 2.68691,0.32889 0.72022,0.57041 0.72329,2.9098 0.32,3.72939 -0.74853,1.52123 -5.70205,0.74172 -7.16691,0.74172 -1.46217,0 -3.40406,-0.0785 -4.8,0.0543 -1.63141,0.15525 -2.27156,0.26859 -4.16,0.26568 -2.50251,-0.004 -3.9084,-0.43052 -6.72,-0.3074 -1.37978,0.0604 -2.15231,0.29625 -3.52,0.30592 -1.70965,0.0121 -5.55836,-1.51707 -7.48691,0.0104 -0.56301,0.44592 -0.5026,1.18068 -0.51136,1.91137 -0.0109,0.91222 -0.17056,1.94324 0.74,2.55086 0.7804,0.52076 1.83229,0.32845 2.77827,0.32888 2.29738,0.001 7.98101,-0.27976 9.90124,0.0474 1.72287,0.29353 1.29876,2.11402 1.29876,3.79259 v 10.56 c 0,1.2385 0.31415,3.28186 -0.19308,4.40692 -0.58141,1.28955 -1.98117,1.03084 -3.32692,1.03308 -3.509,0.006 -7.04824,0 -10.56,0 -1.55784,0 -3.17824,0.24565 -4.46124,-0.13877 -1.94336,-0.58226 -1.29876,-4.33687 -1.29876,-6.26123 v -16.32 c 0,-1.5639 -0.4622,-4.96654 0.19309,-6.29828 0.62437,-1.26887 2.20452,-0.74172 3.64691,-0.74172 h 10.56 c 1.49561,0 3.2507,0.32293 4.4326,-0.19308 1.9967,-0.87178 1.0074,-8.69795 1.0074,-11.00692 0,-1.6675 0.92093,-7.96578 -1.0074,-8.53828 -1.76385,-0.52365 -4.19932,-0.10172 -6.0326,-0.10172 h -12.48 c -2.40566,0 -4.99125,-0.8582 -5.11383,1.92149 -0.11146,2.52756 -0.006,6.87892 -0.006,9.59851 0,7.38256 0.0349,15.75844 -2.4e-4,23.04 -0.006,1.26508 -0.1486,1.97233 -0.26543,3.2 -0.21278,2.23596 0.12431,4.53121 0.1827,6.72 0.0306,1.14494 -0.0227,2.67752 -0.33876,3.82123 -0.59724,2.161 -3.62621,1.29877 -5.65827,1.29877 -4.07179,0 -8.75197,0.0469 -12.8,-10e-4 -1.22375,-0.0146 -4.1221,0.24332 -5.24691,-0.64765 -1.32269,-1.04772 -0.51309,-6.0893 -0.51309,-7.67112 v -8.32 c 3.8e-4,-0.83738 -0.23985,-2.27476 0.51309,-2.87111 0.89002,-0.7049 2.90191,-0.32889 3.96691,-0.32889 h 10.24 c 1.1759,0 3.70575,0.36209 4.56247,-0.51308 1.32603,-1.35457 0.55753,-3.53414 0.55753,-5.56692 v -16.64 c 0,-1.39863 0.0241,-3.12209 -0.001,-4.48 -0.0167,-0.88953 0.032,-1.71576 -0.74025,-2.23111 -0.91413,-0.61 -2.95962,-0.32889 -4.05827,-0.32889 h -10.24 c -1.12996,0 -3.34613,-0.41621 -4.28691,0.32889 -0.9023,0.71465 -0.51309,2.82287 -0.51309,3.83111 0,1.99411 -0.1279,4.10086 0.0541,6.08 0.11566,1.25789 0.28793,2.96805 0.22937,4.16 -0.0694,1.41323 -0.81716,3.22125 -0.0904,4.69828 0.56025,1.13858 2.43288,0.74166 3.32691,0.74172 0.9487,6e-5 1.5897,0 2.56,0 2.13191,0 5.54117,-0.50304 7.63729,0.10172 1.45214,0.41899 1.67199,2.44332 1.12963,3.69088 -0.61655,1.41818 -6.30656,1.0074 -8.12692,1.0074 H 97.919995 c -1.628047,0 -5.527881,-0.7158 -6.846914,0.32889 -1.498115,1.18654 -0.658477,4.45895 1.093086,4.74371 1.580361,0.25693 6.940205,0.0474 8.633823,0.0474 1.16378,0 3.0689,-0.6358 4.28692,0.32889 0.72697,0.57578 0.5109,1.4868 0.51308,2.55111 0.007,3.59676 0,7.55866 0,11.2 0,1.28649 0.34552,4.00762 -0.32888,5.01828 -0.86125,1.29065 -2.96412,0.74172 -4.47112,0.74172 h -5.759995 c -2.601211,0 -6.235683,1.20762 -8.538271,-0.32888 -0.791279,-0.52803 -0.725518,-1.44838 -0.740244,-2.23112 -0.02397,-1.27398 -0.0015,-2.85103 -0.0015,-4.16 v -15.04 c 0,-1.8405 -0.132236,-4.73449 0.01876,-6.39382 0.204209,-2.24411 2.48291,-1.60618 4.46124,-1.60618 h 11.52 c 1.40741,0 2.72547,0.47887 3.51112,-0.51308 1.07019,-1.35123 0.32888,-5.62162 0.32888,-7.16692 v -5.76 c 0,-1.17207 0.007,-1.86595 -2.4e-4,-3.2 -0.006,-1.1283 0.17458,-2.46254 -1.03284,-3.00691 -2.45855,-1.10846 -7.450807,-0.19309 -10.16692,-0.19309 h -9.6 c -0.998886,0 -2.80915,-0.33463 -3.646913,0.32889 -0.806856,0.63904 -0.513028,2.29416 -0.513086,3.19111 v 8.64 c 0,4.28401 -0.262588,8.86717 0.02864,13.12 0.08002,1.16862 0.294331,2.08782 0.285679,3.2 -0.0066,0.8458 -0.09875,1.36918 -0.08716,2.24 0.01099,0.82575 0.08315,1.4183 0.0916,2.24 0.01589,1.54459 0.0012,3.52803 0.0012,5.12 0,2.29004 1.41e-4,4.77799 0,7.04 -7.8e-5,1.21078 0.250019,2.76114 -0.55753,3.67555 -0.960527,1.08766 -3.216948,0.80445 -4.88247,0.80445 H 62.719997 c -2.027066,0 -4.071802,0.50473 -5.712593,-0.23754 -1.241079,-0.56142 -1.007324,-2.29048 -1.007407,-3.60246 -2.1e-4,-3.29638 0,-6.62101 0,-9.92 0,-1.45062 -0.09639,-3.2084 0.01877,-4.47382 0.213007,-2.34067 2.014702,-1.60618 3.821235,-1.60618 h 3.84 2.559999 4.16 c 1.432129,0 4.147217,0.0819 4.926914,-0.62025 1.278813,-1.15154 0.513086,-3.58742 0.513086,-5.45975 v -16.96 c 0,-1.97875 1.044214,-5.64812 -0.741729,-6.52691 -0.942988,-0.464 -2.967709,-0.19309 -4.058271,-0.19309 H 60.479997 c -1.110728,0 -3.684688,-0.48214 -4.286914,0.74172 -0.563877,1.14596 -0.193086,3.12901 -0.193086,4.37828 v 9.92 c 0,1.24653 -0.278892,3.43248 0.557529,4.28692 0.510542,0.52154 1.143457,0.49539 2.002715,0.5116 2.312812,0.0437 8.474091,-0.16899 10.553583,0.0203 1.771192,0.16117 2.471885,2.75983 1.277281,4.26815 -1.078555,1.36177 -6.359761,0.51308 -7.991108,0.51308 -5.302637,0 -11.840903,0.47715 -16.959999,0.15555 -2.207163,-0.13865 -3.90085,-0.0319 -6.08,0.0188 -0.812839,0.0189 -1.96793,-0.40018 -2.686914,0.1558 -1.025876,0.79328 -0.851016,4.28875 0.494321,4.68816 2.742849,0.8143 6.691684,0.10172 9.552592,0.10172 0.998892,0 2.809146,-0.33463 3.646914,0.32889 0.986079,0.781 0.513086,3.35885 0.513086,4.47111 0,3.90364 0.904356,10.07764 -0.101728,13.74123 -0.406787,1.48129 -1.67458,1.29584 -3.098272,1.29877 -3.615317,0.007 -7.261833,0 -10.879999,0 -1.397449,0 -3.276118,0.22373 -4.461235,-0.10172 -2.138904,-0.58738 -1.298765,-4.56597 -1.298765,-6.61828 v -15.04 c 0,-2.13322 -0.443591,-5.0125 0.367408,-6.99259 0.607434,-1.48307 2.301855,-1.00741 3.792592,-1.00741 h 9.6 c 1.352172,0 3.255629,0.14842 4.475063,-0.0474 2.413139,-0.38752 1.924814,-2.20553 1.924936,-4.1126 8.3e-5,-1.25562 -0.0484,-2.08765 -0.0484,-3.2 0,-0.80902 0.04192,-1.46298 0.04741,-2.24 0.01094,-1.54711 9.86e-4,-3.52617 9.86e-4,-5.12 0,-1.55039 0.132827,-4.40125 -1.033086,-4.92691 -0.920332,-0.41494 -1.658383,-0.19301 -2.806914,-0.19309 -5.010126,-3.1e-4 -10.932272,0 -15.359999,0 -1.166738,0 -4.898176,-0.61732 -5.566913,0.74172 -0.810591,1.64735 -0.193086,5.1591 -0.193086,6.93828 v 3.52 9.28 2.56 13.76 c 0,2.98657 1.92e-4,5.97346 0,8.96 -8.6e-5,1.34688 0.329643,2.48418 -0.513086,3.32692 -0.960645,0.96064 -4.540889,0.51308 -5.886914,0.51308 h -3.84 -2.56 c -2.173798,0 -9.0203416,0.42248 -10.8372831,-0.10172 -1.91242953,-0.55177 -1.343389,-3.49662 -1.3214814,-5.33828 0.021764,-1.82959 0.2981819,-2.53343 0.3175308,-4.16 0.02488,-2.09152 -0.3881129,-7.57849 0.102963,-9.23259 0.4403352,-1.48319 2.8698565,-1.00741 4.3782714,-1.00741 h 4.7999993 5.44 c 1.502335,0 3.340864,0.36336 4.378271,-0.32888 0.704956,-0.47041 0.705764,-1.22762 0.735557,-1.91137 0.043,-0.98682 0.0062,-2.47713 0.0062,-3.51975 v -3.84 -4.16 -2.88 -6.08 c 0,-1.45986 0.540903,-6.21578 -0.741729,-6.84691 -2.550714,-1.25512 -9.978127,-0.19309 -13.3382704,-0.19309 -1.3139788,0 -4.0468711,-0.2849 -5.0182714,0.19309 -1.2522588,0.61619 -0.7417283,2.50322 -0.7417283,3.96691 v 10.56 c 0,1.4717 -0.4221632,3.12793 0.1930864,4.37828 0.4799388,0.97536 2.5572629,0.74172 3.6469134,0.74172 2.5737706,0 5.4586903,-0.005 7.9999993,0 0.964625,0.002 1.967316,-0.22402 2.551111,0.51309 0.672458,0.84904 0.650194,3.7907 -0.678518,4.18519 -3.685345,1.09413 -10.8448322,0.0593 -13.7125921,0.42172 M 200.95838,134.30461 h 0.32 M 90.880019,385.5033 v 0.32"
       id="path1" />
  </g>
</svg>
