<svg xmlns="http://www.w3.org/2000/svg" viewBox="0 0 307.84 259.512"><path d="M0 5.47c1.673 0 3.476.01 5.12 0 .83-.004 2.03.086 2.687-.557C9.047 3.699 7.399 2.136 8.833 1c.939-.744 3.558-.69 4.277.413.94 1.442.71 7.047-.319 8.345-.723.913-3.057.139-4.02.842-.815.593-.643 1.997-.718 2.87C7.823 16.167 8 19.655 8 22.43v18.88c0 10.329.004 20.72 0 31.04 0 1.713-.234 2.8-.307 4.48-.05 1.132-.013 1.826-.013 2.88v12.48c0 1.84-.246 4.022.047 5.742.22 1.29 1.094 1.27 2.193 1.298.739.019 1.72-.13 2.231.514 1.077 1.36.402 5.355.323 7.167-.082 1.885-.883 2.196-2.554 2.239-1.212.03-2.26-.182-2.513 1.3-.51 3-.047 8.786-.047 12.14 0 9.792.377 19.682-.291 29.44-.71 10.35-.03 20.985-.03 31.36 0 3.527.017 7.39 0 10.88-.004.997-.323 1.916-.035 2.78.721 2.154 4.684-.653 4.83 2.662.087 1.978.898 6.557-.507 7.67-.902.714-3.842-.091-4.414 1.07-1.028 2.09-.193 7.737-.193 10.459v28.16c0 2.323.018 3.35-.229 5.44-.305 2.584-.241 4.445 2.789 4.586 1.967.09 2.228-.976 2.24-2.666.015-2.27-.026-4.75.001-7.04.101-8.515.319-17.06.319-25.6 0-2.12-.014-4.285 0-6.4.005-.719-.107-1.74.513-2.231.57-.451 1.325-.299 2.047-.335.88-.044 1.711-.124 2.231-1.002.717-1.21.329-2.606.329-4.112 0-3.587.798-10.682-.102-13.713-.373-1.255-1.431-.961-2.458-1.013-1.019-.052-1.817-.124-2.138-1.293-.569-2.07-.102-5.03-.102-7.341v-15.68c0-12.593.007-25.192.315-37.76.109-4.429-1.1-11.569.107-15.633.343-1.156 1.476-.964 2.458-1.013 1.042-.053 1.91-.164 2.367-1.293.596-1.475.193-3.433.193-5.101 0-3.645.067-7.586-.002-11.2-.038-2.033-.738-2.194-2.558-2.241-1.099-.029-1.973-.008-2.193-1.298-.56-3.29-.047-8.59-.047-12.141 0-8.776-.933-18.194.091-26.88.985-8.353.229-17.187.229-25.6 0-3.253-.13-8.13.006-11.199.14-3.174 3.45-.75 4.785-2.434 2.178-2.75-1.51-10.278.658-13.428.501-.729 1.4-.751 2.231-.774.97-.026 1.742.073 2.56.315-.52 2.26-.205 10.2-.309 13.44-.05 1.572.126 2.447-.03 4.154-.26 2.85-4.304.704-4.734 3.225-.58 3.401-.367 8.538-.367 12.14v25.6c0 6.775.421 13.754-.029 20.48-.177 2.65-.873 5.923-.19 8.273.746 2.559 4.717-.503 5 2.614.282 3.1.019 7.457.019 10.554 0 3.163-.32 6.597-.32 9.92 0 1.948.733 5.347-.329 6.938-.51.764-1.41.72-2.231.74-.843.022-1.934-.136-2.367.744-1.1 2.236-.193 6.556-.193 9.178 0 7.48-.017 14.943-.307 22.4-.317 8.133-.013 16.45-.013 24.64 0 3.21-.46 7.88.047 10.861.218 1.28 1.093 1.274 2.193 1.297 1.452.03 2.692-.246 2.861 1.608.177 1.94-.201 4.403-.288 6.394-.187 4.25-.013 8.545-.013 12.8 0 2.02.254 5.182-.047 7.034-.402 2.468-4.086.734-4.88 2.348-.996 2.023-.193 6.626-.193 9.178v19.84c0 2.704-.632 6.442.102 8.912.337 1.138 2.423 1.338 3.72.815 1.587-.641 1.298-3.007 1.298-4.607v-24.96c0-1.28-.363-2.928.193-4.058.391-.796 1.29-.717 2.047-.742 1.173-.039 2.39.059 2.778-1.315.693-2.453.102-6.79.102-9.565v-23.04c0-1.743.803-4.389-.513-5.431-1.416-1.122-4.047.497-4.268-1.935-.314-3.448-.019-10.56-.019-14.394 0-9.5.32-19 .32-28.48 0-3.885-.89-9.811.102-13.421.304-1.11 1.136-1.243 2.138-1.293.898-.046 1.969.125 2.551-.748 1.28-1.918.329-6.484.329-8.858V94.43c0-2.333.174-6.193-.019-8.314-.23-2.536-3.761-.668-4.588-2.348-.914-1.857-.193-4.924-.193-7.258 0-5.98.32-11.962.32-17.92V35.87c0-2.579-.34-6.986.047-9.261.245-1.437 4.356-1.108 4.88-2.307.746-1.708.193-4.42.193-6.352 0-4.908-.52-13.39.64-17.28 1.347.292 2.984-.447 3.967.329 1.111.877.513 2.672.513 4.15v12.8c0 2.963.006 6.007 0 8.96-.002 1.063.172 1.957-.513 2.716-.666.739-1.539.736-2.367.794-.767.053-1.653-.048-2.047.753-.825 1.677-.193 4.712-.193 6.618 0 4.925-.32 9.8-.32 14.72v18.24c0 2.468-.742 5.812.193 7.952.4.915 1.199.959 2.047 1.002 1.164.059 2.258-.19 2.513 1.305.414 2.43.047 6.333.047 8.94 0 6.585.358 13.29-.266 19.84-.42 4.408-.054 9.014-.054 13.44 0 1.68.562 3.687-.329 4.982-.526.764-1.422.743-2.231.774-1.013.04-2.107-.171-2.458 1.012-.858 2.89-.102 8.491-.102 11.793v24c0 3.223-.258 7.834.019 10.874.139 1.525.913 1.57 2.221 1.605.842.021 1.924-.158 2.367.743.596 1.21.193 2.98.193 4.378v10.56c0 7.473-.32 14.916-.32 22.4 0 3 .65 7.485-.102 10.221-.35 1.272-1.357 1.27-2.458 1.298-.898.023-1.724-.126-2.231.514-.537.677-.329 2.455-.329 3.327v21.12c0 1.848-.422 4.346 1.921 4.448.813.036 1.709-.016 2.457-.453 1.16-.676.742-2.307.742-3.675v-12.48c0-1.942-.817-6.04.329-7.487.508-.642 1.471-.495 2.231-.514 1.109-.029 2.106-.016 2.458-1.298.574-2.09.102-5.38.102-7.661v-17.28c0-6.99-.449-14.148.029-21.12.205-2.996 1.004-8.089.19-10.833-.381-1.282-1.707-.964-2.778-1.013-.808-.038-1.546-.08-1.82-1.002-.544-1.833-.101-4.03-.101-6.032v-27.2c0-1.623-.705-4.146.513-5.111.682-.54 1.588-.292 2.367-.343 1.201-.078 1.957-.181 2.193-1.6.52-3.142.047-9.85.047-13.426 0-10.048.32-20.045.32-30.08 0-3.402.262-9.384-.019-12.474-.23-2.534-3.332-.705-4.452-2.12-1.55-1.956-.33-8.81-.33-11.646V44.51c0-2.406-.536-5.8.103-7.953.346-1.165 1.462-.983 2.458-1.008 1.15-.03 2.124-.059 2.642-1.298.612-1.462.238-3.464.238-5.101V6.43c0-1.442-.43-3.482.377-4.699.517-.779 1.62-.905 2.501-.872 2.974.11 1.922 6.077 1.922 8.45 0 7.482-.32 14.915-.32 22.4 0 1.768-.052 3.69.012 5.44.031.842.298 1.751-.234 2.46-.501.667-1.227.695-2.018.735-.853.043-1.901-.199-2.367.748-.796 1.618-.193 4.713-.193 6.618v14.72c0 1.782-.22 4.497.047 6.061.336 1.97 3.488.633 4.424 2.04.894 1.345.03 2.963.01 4.699-.05 4.159-.001 8.32-.001 12.48 0 11.43-.32 22.825-.32 34.24 0 4.379.616 11.273-.047 15.354-.223 1.372-1.047 1.542-2.193 1.6-1.057.053-2.071-.29-2.458 1.013-.525 1.767-.102 4.907-.102 6.993 0 5.819-.551 11.822-.307 17.6.056 1.335-.11 3.078 1.049 3.647 1.077.529 3.263-.105 3.816 1.2.73 1.726-.078 5.15-.078 7.313v47.68c0 3.217.45 8.735-.073 11.515-.296 1.575-1.11 1.815-2.487 1.911-1.42.1-2.47.04-2.554 1.935-.184 4.186-.006 9.176-.006 13.439 0 1.374-.51 3.879 1.299 4.1.816.1 1.985-.015 2.76-.44.976-.538.739-1.612.74-2.7.007-2.866-.673-7.898.103-10.513.607-2.048 4.568-.26 4.97-2.626.436-2.56.048-8.233.048-11.181 0-9.283.32-18.582.32-27.84v-34.88c0-.946.15-1.666-.102-2.513-.308-1.04-1.236-.973-2.138-1.007-.97-.037-1.925.006-2.367-1.008-1.36-3.116-.193-9.15-.193-12.752 0-1.372-.097-3.202.019-4.474.33-3.628 4.92.429 5.095-3.528.175-3.983.006-10.486.006-14.718 0-11.208.32-22.382.32-33.6 0-6.18-.147-12.382.005-18.56.062-2.558.645-5.99.268-8.314-.3-1.838-1.434-1.541-2.833-1.612-1.338-.068-2.077-.291-2.221-1.916-.296-3.328-.019-9.19-.019-12.798 0-1.167-.422-3.34.329-4.287 1.017-1.284 3.446.039 4.462-1.334.59-.796.329-1.874.329-2.7 0-1.402-.085-3.336.054-4.8.813-8.536.266-17.338.266-25.92 0-2.792-1.087-10.102 1.921-10.233.942-.041 2.29-.226 2.87.507 1.302 1.643.009 7.476.009 9.727v27.52c0 2.885.9 8.118-.193 10.47-.52 1.12-1.68 1-2.687 1.047-.682.03-1.448-.068-1.911.516-1.08 1.364-.364 4.916-.328 6.847.078 4.098 4.212.373 4.752 3.539.388 2.277.047 7.264.047 9.9 0 8.327-.32 16.623-.32 24.96 0 11.632-.32 23.273-.32 34.88 0 4.55.183 11.38-.006 15.68-.185 4.187-4.603-.345-4.788 3.842-.064 1.46-.016 3.917-.006 5.439.005.706-.113 1.735.513 2.231 1.055.836 3.6.067 4.094 1.07 1.412 2.871.036 9.583-.114 13.019-.46 10.516-.013 21.153-.013 31.68 0 10.744.442 21.612-.291 32.32-.194 2.826 1.308 7.917-.038 10.192-.522.884-1.344.957-2.231 1.002-.769.039-1.717-.13-2.231.519-1.058 1.336-.34 5.1-.329 6.847.009 1.21-.147 2.267 1.299 2.512 1.038.177 2.283.24 2.988-.465.551-.551.485-1.296.513-2.047.025-.658-.067-1.452.513-1.911.634-.503 1.514-.342 2.367-.328.57.01 1.246-.053 1.727.328.576.456.486 1.21.513 1.911.03.815-.056 1.699.742 2.231 1.3.868 3.757.246 4.185-.704.764-1.694.207-4.329.193-6.327-.005-.749.113-1.736-.513-2.231-.559-.443-1.354-.312-2.047-.33-.909-.024-1.832.025-2.138-1.007-.822-2.769-.102-7.158-.102-10.192v-22.72c0-12.692.32-25.415.32-38.08v-10.88c0-1.683-.347-3.56.102-5.073.32-1.08 1.222-.972 2.138-1.007.853-.032 1.716.03 2.231-.742 1.05-1.573.412-5.224.323-7.257-.153-3.468-4.04-.323-4.68-2.929-.444-1.812.193-3.674.205-5.392.011-1.582.001-3.502.001-5.12v-32c0-9.934.32-19.821.32-29.76V64.99c0-1.224-.255-2.585.102-3.793.593-2.01 3.98-.43 4.601-2.335.507-1.556.414-2.872.417-4.432.002-1.252.371-3.131-.513-3.831-.584-.463-1.316-.298-2.047-.335-.67-.034-1.25-.03-1.727-.507-.602-.602-.507-1.58-.513-2.367-.016-2.37 0-4.969 0-7.36v-28.8c0-2.39-.847-7.838.649-9.727C59.334.942 60.133 1 60.8.992c4.274-.052 2.24 6.688 2.24 9.918v24.32c0 2.491-.755 7.252.193 9.178.656 1.332 4.36.181 4.82 2.04.32 1.293-.21 2.944-.213 4.462-.006 3.732.025 7.825 0 11.52-.007.918.152 1.927-.742 2.367-.658.324-1.419.18-2.138.194-.774.017-1.637-.093-2.047.74-.909 1.847-.193 4.644-.193 6.939v16.96c0 12.24-.32 24.533-.32 36.8 0 4.352.02 9.131 0 13.44-.005 1.025-.306 1.92-.036 2.832.528 1.779 3.884.208 4.643 1.75.562 1.142.193 3.188.193 4.378 0 3.515.315 9.035-.019 12.798-.154 1.736-1.06 1.882-2.541 1.92-1.195.031-2.263-.164-2.513 1.3-.505 2.966-.047 8.24-.047 11.502 0 8.869-.32 17.706-.32 26.56v26.88c0 3.179-.42 8.321.047 11.194.227 1.396.965 1.544 2.193 1.6s2.56-.298 2.833 1.305c.563 3.306.063 6.3-.219 9.26-.131 1.385-.386 3.383.953 3.968.974.425 2.806.473 3.6-.32 1.026-1.027.513-2.779.513-4.287 0-4.01.073-8.881-.001-12.8-.04-2.127-.684-2.193-2.559-2.241-1.095-.029-1.969.016-2.193-1.298-.51-2.992-.047-7.932-.047-11.181v-25.6c0-6.729.32-13.12.32-19.84 0-2.875-.417-6.856.047-9.581.253-1.485 4.061-1.394 4.696-2.36 1.102-1.677.377-4.517.377-6.62v-13.76c0-1.917.074-4.576-.006-6.398-.087-1.973-.974-1.9-2.554-1.921-1.097-.015-2.273.108-2.513-1.299-.346-2.033-.125-4.705.137-6.701.21-1.592.136-2.794.136-4.48 0-11.374-.485-22.877.013-34.24.21-4.802.307-9.58.307-14.4 0-2.1-.45-4.816.102-6.673.32-1.08 1.221-.982 2.138-1.006 1.336-.034 2.56.073 2.833-1.607.298-1.836.047-4.446.047-6.394V48.03c0-2.158.683-5.159-.193-6.938-.456-.926-1.528-.722-2.367-.743-.7-.018-1.458.06-1.911-.512-.478-.604-.327-1.612-.329-2.367-.005-2.22 0-4.495 0-6.72V11.23c0-2.697-.315-6.75.422-9.233.356-1.201 2.724-1.42 3.956-.814 1.243.611.742 3.608.742 4.927v24.32c0 1.42-.41 3.152.193 4.378.387.787 1.266.72 2.047.74 1.486.04 2.375-.223 2.541 1.608.198 2.17.019 5.945.019 8.314v16c0 2.183-.142 4.224-.291 6.4-.122 1.773.667 5.318-.542 6.527-.549.549-1.287.484-2.047.513-.924.035-1.814-.084-2.138 1.007-1.134 3.818-.422 11.59-.422 15.953 0 6.557.01 13.302 0 19.84-.002 1.482-.192 2.389-.291 3.84-.345 5.032-.123 10.607-.028 15.68.03 1.615.364 2.4 1.92 2.541.84.076 1.45-.111 2.192.212.784.342.926 1.023.988 1.728.193 2.17.044 7.041.018 9.279-.016 1.318-.244 2.101-.306 3.52-.134 3.058-.013 4.927-.013 7.68v9.6c0 1.915.374 4.65-.102 6.381-.318 1.159-1.133 1.247-2.138 1.293-.858.039-2.165-.313-2.687.748-.638 1.296-.193 3.079-.193 4.378v5.76c0 7.038.033 14.794 0 21.76-.007 1.332-.2 2.173-.291 3.52-.354 5.168-.029 10.79-.029 16 0 1.618-.436 4.591.193 6.032.42.964 1.316.98 2.367 1.007.84.021 1.91-.186 2.367.743.79 1.605.193 4.034.193 5.978 0 4.868.812 13.769-.32 17.6.638.307 1.4.614 2.24.597.74-.014 1.47-.07 2.138-.577 1.446-1.097.742-3.647.742-5.46v-16.64c0-1.736 1.015-5.234-.009-6.527-.515-.65-1.52-.503-2.231-.513-1.003-.014-2.125.114-2.458-1.008-.867-2.918-.102-7.633-.102-10.832 0-8.536.32-17.089.32-25.6 0-3.845-.648-8.884.32-12.16 1.263.347 3.684.44 4.471-.742 1.356-2.037.329-7.119.329-9.818v-29.44c0-2.13 1.137-6.917-.329-8.767-1.343-1.696-4.33.611-4.465-2.435-.129-2.925-.006-7.175-.006-10.238 0-7.358.32-14.706.32-22.08v-9.92c0-1.438-.4-2.851.193-4.058.402-.817 1.29-.717 2.047-.742 1.042-.034 2.192.064 2.687-1.033.927-2.056.193-5.485.193-7.927 0-6.328.32-12.578.32-18.88v-14.4c0-1.782.22-4.497-.047-6.061-.385-2.26-3.915-.057-4.88-2.04-.82-1.685.127-4.196.127-5.98V7.39c0-1.8-.723-4.558.329-5.886.546-.69 1.65-.544 2.55-.507 2.477.103 2.24 1.452 2.24 3.514.003 4.256-.32 8.526-.32 12.8 0 2.218-.91 6.242.33 7.807.879 1.11 4.022-.246 4.596 1.812.605 2.164-.065 4.12-.12 6.38C87.853 39.49 88 45.873 88 52.19v23.36c0 2.498.93 6.653-.329 8.54-1.11 1.662-4.538-.226-4.772 2.347-.298 3.269.226 7.924-.203 11.194-.726 5.527-.136 11.865-.136 17.6 0 2.454-.565 5.708.102 7.952.306 1.032 1.229.983 2.138 1.007 1.19.03 2.261-.177 2.513 1.3.587 3.446.047 9.385.047 13.1 0 9.415.045 19.805 0 29.12-.006 1.125-.103 1.813-.229 2.88-.143 1.216-.091 2.083-.091 3.2 0 1.974.153 5.74-.019 7.68-.154 1.737-1.064 1.882-2.541 1.92-.849.022-1.936-.134-2.367.743-1.275 2.591-.193 8.019-.193 11.098v18.56c0 2.537-.587 5.952.102 8.272.306 1.034 1.228.983 2.138 1.007.868.022 1.922-.16 2.367.743.474.964.193 2.808.193 3.738v25.92c0 1.727-.557 3.948 1.606 4.141 1.094.098 2.266.18 3-.539.547-.535.5-1.31.512-2.002.03-1.599.002-3.49.002-5.12v-22.4c0-2.424.828-6.783-.193-8.858-.444-.903-1.524-.722-2.367-.743-1.048-.027-1.943-.03-2.367-1.007-.737-1.695.107-3.208.126-4.752.032-2.721 0-6.167 0-8.96v-9.92c0-1.28-.362-2.928.194-4.058.436-.886 1.517-.705 2.367-.748.88-.044 1.711-.124 2.231-1.002.841-1.42.329-3.31.329-5.072v-42.88c0-1.052-.051-1.72.029-2.88.092-1.354.284-2.19.29-3.52.016-3.157 0-6.742 0-9.92 0-1.242.384-2.428-.328-3.327-.594-.75-1.713-.48-2.55-.52-.69-.031-1.382-.033-1.728-.735-.829-1.684-.193-4.907-.193-6.938V97.95c0-2.064-.287-4.738.047-6.701.282-1.651 4.566-1.254 4.971-2.626.523-1.772.102-5.207.102-7.313 0-6.016-.476-12.266.229-18.24 1.053-8.927.09-18.527.09-27.52 0-3.917.323-9.37-.018-13.114-.158-1.743-1.196-1.544-2.54-1.612-1.65-.083-2.158-.461-2.235-2.234-.16-3.667-.006-9.259-.006-13.12 0-1.682-.513-3.95 1.606-4.141.9-.082 2.013-.219 2.68.31.652.516.508 1.407.514 2.23.006.918 0 1.555 0 2.56v5.44c0 1.029-.227 2.19.193 3.153.392.898 1.155.961 2.047 1.002 1.067.048 2.396-.273 2.778 1.013.99 3.333.186 10.362-.164 14.033-.787 8.274-.054 16.966-.054 25.28v25.92c0 3.206.698 8.698-.513 11.472-.396.906-1.21.96-2.047 1.002-.85.043-1.932-.136-2.367.748-.735 1.493-.16 3.36-.377 5.018-.47 3.57-.283 8.32-.13 11.84.075 1.728.615 2.16 2.234 2.234 1.595.072 2.781-.168 2.874 1.927.222 5.042-.314 11.296-.314 16.319v34.88c0 4.935.056 10.53-.001 15.36-.013 1.086-.161 1.794-.265 2.88-.157 1.654.284 4.46-.156 6.061-.336 1.226-1.294 1.255-2.458 1.299-1.052.04-1.928.003-2.367 1.007-.47 1.076-.193 2.36-.193 3.473v10.56c0 1.172-.408 2.954.329 4.058.507.76 1.31.717 2.231.74.73.02 1.71-.143 2.231.515 1.35 1.705.33 6.845.33 9.087v24.64c0 2.383-1.02 9.988 1.605 10.221.95.084 2.025.162 2.681-.494.6-.6.507-1.557.513-2.367.017-2.43 0-4.924 0-7.36 0-9.409.32-18.709.32-28.16 0-2.931 1.207-8.085-.377-10.458-.747-1.12-3.39-.406-4.23-1.071-1.415-1.12-.549-5.042-.511-7.03.08-4.308 4.535-.718 5.07-3.86.257-1.502.048-4.033.048-5.741v-14.4c0-3.214-.247-7.717.054-10.88.138-1.441.265-2.285.266-3.84.006-14.365 0-28.826 0-43.2 0-2.82.285-5.025.181-7.674-.099-2.528-3.248-.969-4.468-1.935-1.43-1.133-.677-5.65-.494-7.665.133-1.46.985-1.63 2.221-1.765 1.387-.151 2.532.327 2.833-1.459.485-2.881.047-9.168.047-12.462 0-10.227.32-20.424.32-30.72V23.39c0-3.064 1.35-9.252.127-11.738-.454-.923-1.534-.722-2.367-.743-.882-.023-1.717.03-2.231-.74-.918-1.377-.34-4.634-.329-6.3.008-1.192-.154-2.264 1.299-2.512 1.122-.19 2.493-.363 3.308.282 1.13.895.001 2.896.842 3.958.705.89 2.644.888 3.734.184.912-.59.795-3.529 1.57-4.142.855-.677 3.444-.465 3.958.184 1.023 1.292.333 4.511.33 6.207-.003 1.004.218 1.97-.514 2.551-1.832 1.451-4.383-.767-4.593 2.57-.283 4.488-.014 10.414-.014 15.039 0 10.387-.32 20.686-.32 31.04v27.52c0 3.402-.729 8.796.102 11.821.32 1.164 1.12 1.241 2.138 1.293.759.038 1.713-.136 2.231.519 1.054 1.33.468 5.749.31 7.48-.276 3.038-4.946.464-5.095 3.848-.157 3.566-.006 9.04-.006 12.799 0 9.494-.32 19.012-.32 28.48v30.72c0 3.515-.269 9.594.019 12.795.255 2.833 4.516.823 4.763 3.531.19 2.1.841 6.145-.495 7.48-.94.941-4.325.003-4.53 2.132-.109 1.12.158 1.799.058 2.862-.077.814-.075 1.425-.09 2.24-.168 9.234-.045 18.73-.045 28.16 0 3.727-.002 7.475 0 11.2 0 1.382-.28 2.985 1.299 3.418 2.868.786 3.267-.978 3.593-3.738 1.093-9.258.228-20.837.228-30.72 0-2.343-.005-4.698 0-7.04.002-.797-.163-2.016.513-2.551 1.63-1.29 3.135.86 4.094-1.337.585-1.34.12-4.22.222-5.712.086-1.252.276-2.009.29-3.2.026-2.222.477-6.967-.1-8.913-.39-1.314-1.7-.964-2.779-1.013-1-.046-1.825-.153-2.138-1.293-.615-2.24-.222-4.699.082-7.021.644-4.9.136-10.38.136-15.36v-37.76c0-3.538.32-7.027.32-10.56 0-1.769-.386-4.07.102-5.713.344-1.159 1.479-.964 2.458-1.013.915-.046 1.666-.128 2.047-1.002.885-2.027.49-4.464.512-6.352.03-2.511.102-8.125-.005-10.559-.09-2.04-.831-1.878-2.554-1.922-1.272-.033-2.081-.07-2.221-1.605-.284-3.122-.019-7.882-.019-11.194V56.99c0-4.363-.268-8.468.029-12.8.092-1.347.284-2.188.29-3.52.023-4.513.001-9.521.001-14.08 0-2.594-.046-5.793.001-8.32.064-3.36 4.443-1.21 5.009-3.846.546-2.552.11-6.633.11-9.594 0-1.351-.341-3.193 1.298-3.473 1.098-.187 2.907-.274 3.493.466.951 1.2.14 3.097.037 4.607-.254 3.707.267 8.943-.047 12.478-.318 3.578-4.785.258-5.083 3.528-.277 3.052-.018 9.096-.018 12.474v30.4c0 5.438-.32 10.87-.32 16.32 0 2.232-.448 5.02.101 7.021.35 1.275 1.343 1.269 2.459 1.298.73.018 1.708-.146 2.23.514.63.794.335 1.91.33 3.007-.007 1.231-.151 1.994-.266 3.2-.14 1.478-.054 2.443-.054 3.84v12.8c0 1.628.31 3.682-.102 5.072-.63 2.124-4.747-.163-5 2.614-.225 2.472-.018 7.185-.018 9.914v16c0 2.4.026 5.339-.001 7.68-.012.969-.117 1.617-.228 2.56-.238 2.015-.091 4.858-.091 7.04v16.64c0 2.058-.684 5.155.193 6.938.386.785 1.279.72 2.047.74.916.024 1.696-.125 2.322.515.59.602.568 1.562.544 2.367-.037 1.243-.29 2.193-.305 3.52-.05 4.152-.001 8.837-.001 12.8v6.08c0 .948.25 2.516-.193 3.418-.703 1.43-3.042.308-4.185 1.07-1.576 1.052-.742 5.98-.742 7.672v22.72c0 1.978-.013 4.12 0 6.08.006.879-.098 1.99.742 2.551 1.257.839 3.73.361 4.185-.679.865-1.98.193-5.389.193-7.632v-18.56c0-1.616-.028-3.54.001-5.12.013-.717-.041-1.663.74-2.047.58-.285 1.138-.177 1.818-.194.831-.022 1.72.026 2.232-.74 1.343-2.014.328-7.02.328-9.5v-25.28c0-1.005.284-2.88-.513-3.51-.575-.456-1.307-.298-2.046-.335-1.013-.051-1.822-.141-2.139-1.293-.79-2.88-.102-7.67-.102-10.861v-20.48c0-2.584-.145-4.818.03-7.36.073-1.081.26-1.831.286-2.88.1-4.054-1.022-11.512.106-15.313.312-1.05 1.232-.973 2.139-1.007 1.282-.049 2.413-.085 2.773-1.606.52-2.2-.415-5.83-.122-8.314.766-6.491.228-13.303.228-19.84 0-3.601.593-6.833-.32-9.92-.628.15-1.364.325-2.24.309-.742-.013-1.462-.059-1.91-.73-.898-1.345-.33-3.937-.33-5.66V62.11c0-2.661-.104-5.649.013-8.32.066-1.503.3-2.394.307-3.84.019-3.797 0-8.003 0-11.84 0-2.99-.118-7.412.006-10.238.125-2.824 2.105-1.381 3.787-2.114 1.653-.72 1.289-2.599 1.323-3.967.04-1.664.005-4.014.005-5.76 0-3.917-.325-9.01.018-12.794.13-1.431 1.032-1.736 2.222-1.87.68-.077 1.463-.195 2.138.137 1.134.558.802 2.678.65 3.967-.521 4.421-.228 8.988-.228 13.44 0 2.835.875 8.928-.193 11.098-.615 1.25-4.328.228-4.825 2.04-.674 2.454-.102 6.498-.102 9.262v32.64c0 1.638-.326 3.634.102 5.072.475 1.603 4.478.404 4.68 2.614.262 2.892.018 8.337.018 11.514 0 8.093-.32 16.205-.32 24.32 0 3.013.652 7.796-.102 10.541-.384 1.398-1.593 1.27-2.778 1.3-.742.02-1.65-.066-2.047.74-1.308 2.659-.193 8.293-.193 11.419v24.96c0 2.957-.225 7.874.019 10.554.15 1.647.884 1.57 2.221 1.605.868.022 1.887-.232 2.367.743.873 1.775.193 5.056.193 7.258 0 6.41-.32 12.781-.32 19.2v15.04c0 1.936.555 4.64-.193 6.352-.399.913-4.036.982-4.414 1.75-.591 1.202-.193 3.017-.193 4.378 0 3.215-.225 6.39-.304 9.6-.08 3.228-.016 6.717-.016 9.92 0 1.172-.31 2.639.193 3.792.548 1.255 1.932 1.186 3.32.96 1.718-.278 1.606-1.93 1.607-3.472q.002-6.56 0-13.12c0-2.106-1.068-6.42.513-7.671 1.227-.972 3.978.291 4.505-1.628.485-1.764.102-5.306.102-7.341V205.79c0-7.586.13-15.157.315-22.72.057-2.328.72-6.716-.188-8.537-.59-1.183-1.986-.609-3.006-.708-1.016-.098-1.67-.143-1.874-1.334-.382-2.247-.047-5.844-.047-8.301 0-6.572.32-12.953.32-19.52 0-2.584-.919-7.238.193-9.498.436-.886 1.517-.705 2.367-.748 1.02-.051 1.914-.17 2.367-1.293 1.362-3.373.193-10.127.193-14.061 0-9.928.32-19.855.32-29.76 0-3.52.277-9.22-.019-12.474-.178-1.96-1.414-1.546-2.86-1.612-.921-.042-1.671-.139-2.048-1.002-.761-1.744-.227-3.478-.188-5.072.048-1.967.315-4.37.315-6.4V43.87c0-2.135-.627-5.591.193-7.258.658-1.338 4.318-.194 4.825-2.04.393-1.43.102-3.43.102-5.102V11.55c0-1.573-.038-2.418.005-4.16.035-1.426.256-2.227.312-3.52.086-1.97 1.86-3.005 3.796-2.457 1.246.352 1.007 2.197 1.007 3.417 0 4.268-.32 8.518-.32 12.8v16c0 1.922.553 4.782-.193 6.298-.812 1.65-4.156-.021-4.56 2.36-.314 1.856-.047 4.715-.047 6.702 0 4.804-.32 9.618-.32 14.4 0 1.588-.31 5.341.33 6.298.493.74 1.273.716 2.23.74 1.477.039 2.377-.228 2.541 1.608.117 1.31-.262 3.076-.296 4.474-.081 3.302-.005 6.616-.005 9.92 0 11.739-.32 23.484-.32 35.2v10.88c0 1.53.11 3.706-.019 5.114-.284 3.117-4.537.034-5.054 3.212-1.011 6.22-.047 12.542-.047 18.874 0 2.304-.294 5.576.047 7.674.23 1.407.971 1.544 2.193 1.6 1.291.059 2.546-.379 2.832 1.305.432 2.531-.271 7.384-.272 10.22v47.36c0 2.764.77 6.559-.193 8.942-.735 1.82-2.919.443-4.414 1.628-.862.682-.6 3.912-.742 5.11-.332 2.817-.756 9.99.01 12.782.266.966.91 1.2 1.82 1.28.897.08 2.012.223 2.686-.31.653-.517.507-1.42.513-2.231.014-2.012 0-5.062 0-7.04 0-1.34-.436-2.672.193-4.113.381-.873 1.16-.96 2.047-1.001.91-.041 2.191.26 2.687-.748 1.176-2.39.193-7.878.193-10.778 0-7.031.32-14.298.32-21.12v-34.56c0-2.846 1-8.354-.193-10.778-.448-.91-1.515-.705-2.367-.748-.847-.043-1.65-.093-2.047-1.002-.652-1.492-.193-3.364-.193-5.072 0-3.762-.157-8.144.006-11.839.074-1.689.876-1.844 2.234-1.932 1.419-.093 2.542.108 2.832-1.608.214-1.26.048-3.05.048-4.461v-9.92c0-12.415.32-24.735.32-37.12V73.95c0-2.03.263-5.519-.048-7.341-.412-2.419-4.024-.196-4.65-2.307-.368-1.239-.102-2.956-.102-4.432v-9.6c0-1.273-.412-3.032.329-3.967.455-.575 1.267-.495 1.911-.512.864-.022 1.743.11 2.367-.514.6-.6.507-1.557.513-2.367.014-2.114 0-4.281 0-6.4 0-8.31-.732-17.018.054-25.28.208-2.187-.68-7.449.595-9.088.567-.73 1.939-.762 2.87-.662 3.04.328 1.6 7.99 1.6 10.71v28.16c0 2.499 1.057 7.978-.328 9.727-.673.85-3.46.193-4.278.842-1.409 1.116-.594 5.357-.507 7.35.14 3.197 4.659 1.248 4.788 4.162.11 2.506.006 6.315.006 8.959v19.84c0 1.666-.12 3.26-.266 4.8-.112 1.173-.054 2.023-.054 3.2v39.68c0 3.025.14 5.51-.368 8.634-.213 1.313-1.014 1.54-2.193 1.6-.8.04-1.711-.137-2.23.519-.674.85-.324 2.139-.33 3.327-.007 1.547-.401 2.506-.296 4.158.097 1.521.9 1.856 2.217 1.916 1.394.063 2.69-.27 2.86 1.612.189 2.067.02 4.882.02 7.034v14.72c0 16.416-.32 32.843-.32 49.28v11.52c0 1.441.432 2.915-.33 4.021-.525.764-1.422.743-2.23.774-.797.03-1.716-.133-2.232.518-.497.628-.327 1.545-.328 2.367-.004 1.838-.506 4.557.193 5.978.482.98 3.16 1.128 4.098.413 1.31-.998.234-2.796 1.157-3.958.67-.844 2.416-.723 3.464-.411 2.326.69-.336 4.922 3.248 5.01 1.33.033 2.231-.189 2.525-1.598.286-1.374.338-2.243.353-3.514.017-1.434.365-2.927-.191-4.058-.457-.929-1.527-.722-2.367-.743-1.03-.027-1.976-.023-2.355-1.007-1.21-3.14.115-8.138.115-11.472v-51.84c0-2.345-.092-5.302.012-7.68.058-1.323.273-1.998.303-3.2.065-2.667-.108-9.154.01-11.839.087-1.954 1.028-1.883 2.554-1.922 1.7-.044 2.078-.405 2.33-2.24.217-1.575.234-2.364.23-4.16-.001-1.006.15-2.284-.557-3.006-.555-.567-1.229-.484-2.003-.513-1.052-.04-1.943-.038-2.366-1.008-.717-1.642-.193-5.418-.193-7.312 0-4.313.25-8.934.271-13.12.005-1.042.047-1.774.049-2.88.009-7.065 0-14.355 0-21.44V85.47c0-3.128.306-4.916.32-7.68.016-3.491 0-7.354 0-10.88 0-1.596-.34-3.589.101-5.073.342-1.15 1.478-.974 2.459-1.012.722-.028 1.488-.006 2.047-.553.608-.595.507-1.52.512-2.322.012-1.716.354-4.48-.101-6.034-.342-1.169-1.436-1.202-2.458-1.299-1.053-.1-1.932-.038-2.367-1.035-.369-.843-.193-2.223-.193-3.152 0-2.604-.203-6.148.09-8.64.112-.939.217-1.592.228-2.56.027-2.246.001-5.057.001-7.36V12.19c0-2.493-.005-5.21 0-7.68.002-.77-.155-1.755.33-2.367.56-.707 1.575-.548 2.549-.507 2.734.115 2.033 2.522 1.934 4.794-.08 1.854-.013 3.098-.013 5.12v25.6c0 1.978-.013 4.12 0 6.08.006.787-.088 1.765.513 2.367.559.558 1.246.483 2.047.513.957.036 1.83-.029 2.139 1.007.667 2.247.101 4.01.101 6.033 0 2.42.315 9.053-.047 11.181-.368 2.162-4.113.482-4.88 2.04-.797 1.622-.193 4.865-.193 6.939v18.56c0 4.559.022 9.567 0 14.08-.011 2.376-.32 3.729-.32 6.4v21.76c0 2.786-.654 6.687.102 9.232.306 1.032 1.23.983 2.139 1.007.842.021 1.923-.158 2.366.743.596 1.21.193 2.98.193 4.378 0 3.773.525 9.592-.047 13.114-.25 1.532-1.224 1.571-2.513 1.605-1.154.03-2.265-.154-2.512 1.3-.744 4.363-.048 9.904-.048 14.7 0 8.912-.277 17.866-.32 26.56-.006 1.464 0 3.466 0 5.12v20.16c0 3.035-.72 7.424.102 10.193.335 1.13 1.454.983 2.458 1.01.948.024 1.83-.032 2.139 1.005.668 2.25.452 4.652.515 6.673.055 1.79-.928 3.498-.312 5.741.381 1.387 1.703 1.4 3.097 1.28 2.233-.193 1.921-2.007 1.921-3.821 0-4.258.002-8.545 0-12.8 0-1.165.333-2.478-.741-3.007-.933-.459-3.59.032-3.957-1.2-.62-2.088-.102-6.439-.102-8.913v-33.28c0-2.06-.157-3.537.055-5.76.103-1.09.251-1.805.264-2.88.037-3.102.001-7.055.001-10.24 0-1.998-.638-4.61.193-6.298.398-.81 1.305-.722 2.047-.74 1.043-.028 2.202.102 2.687-1.01.748-1.713.193-4.416.193-6.352v-14.72c0-2.087.655-4.896-.193-6.618-.457-.929-1.526-.722-2.367-.743-1.048-.027-1.95-.041-2.367-1.007-.696-1.617.12-3.223.127-4.752.018-3.798 0-8.004 0-11.84V95.39c0-1.715-.003-3.765 0-5.44.001-.882.015-1.636.136-2.56.106-.811.173-1.425.183-2.24.038-3.232-.271-9.595.02-12.794.138-1.52 1.025-1.54 2.221-1.617.766-.05 1.693-.002 2.367-.61 1.278-1.15.513-3.964.513-5.78V48.99c0-2.015.418-4.842-.102-6.684-.351-1.246-1.374-1.257-2.458-1.312-.91-.046-1.83.03-2.138-1.01-.599-2.017-.102-4.79-.102-6.993V6.11c0-1.555-.685-4.253 1.606-4.461 2.524-.23 3.497.098 3.514 2.54.033 4.832-.32 10.182-.32 15.04v11.84c0 1.537-.37 2.824.193 4.113.395.906 1.18.958 2.047 1.002 1.05.053 2.16-.196 2.687 1.013 1.039 2.38.304 7.056.18 9.873-.101 2.324-.307 4.661-.307 7.04v10.24c0 2.645.99 8.482-.329 10.458-.603.904-1.575.718-2.55.743-1.446.037-2.163.304-2.235 1.92-.076 1.73-.006 2.811-.006 4.479v18.56c0 4.146.02 8.696 0 12.8-.005 1.13-.104 1.826-.228 2.88-.236 1.997-.092 5.284-.092 7.36v4.16c0 1.873-.677 4.04.193 6.032.42.964 1.316.98 2.367 1.007.733.019 1.71-.145 2.231.514.518.653.327 1.483.33 2.367.004 2.216 0 4.497 0 6.72 0 6.23-.32 12.414-.32 18.56 0 2.908.235 6.801-.02 9.594-.158 1.741-1.176 1.587-2.54 1.606-1.135.016-2.27-.127-2.513 1.299-.236 1.384-.048 3.425-.048 4.78v3.2c0 9.51.818 21.851-.228 30.72-.262 2.216-.092 3.761-.092 5.76v2.56c0 2.693-.02 5.01 0 8 .005.705-.092 1.508.329 2.14.454.68 1.155.7 1.911.735.87.04 1.983-.199 2.551.519.518.653.327 1.483.33 2.367.005 2.743 0 5.569 0 8.32v9.6c0 1.01-.28 2.56.328 3.327.685.865 2.344.718 3.492.374 1.922-.576 1.3-3.776 1.3-5.301v-14.08c0-2.28 1.048-7.668-.33-9.407-.516-.651-1.475-.489-2.23-.518-1.105-.042-2.094-.017-2.46-1.31-.72-2.555-.1-7.563-.1-10.525 0-8.808.32-17.484.32-26.24 0-2.938-1.025-7.984.192-10.458.437-.888 1.497-.713 2.367-.747 1.536-.059 2.378-.106 2.541-1.92.242-2.694.02-7.607.02-10.555v-24.64c0-3.113.548-8.469.126-11.153-.21-1.337-1.663-.967-2.687-1.013-.849-.04-1.648-.087-2.047-1.002-1.304-2.988-.193-8.66-.193-12.112 0-7.906.32-15.792.32-23.68 0-3.324-.488-8.035.048-11.181.243-1.43 1.372-1.26 2.512-1.304.914-.035 1.913-.021 2.367-1.028.76-1.688.193-4.005.193-6.007v-14.4c0-6.293-.043-12.587.001-18.88.016-2.253.618-5.627.272-7.661-.281-1.65-1.573-1.248-2.833-1.305-.848-.039-1.648-.089-2.047-1.002-.876-2.006-.193-4.999-.193-7.312 0-5.476-.332-10.417.029-15.68.09-1.314.27-1.977.29-3.2.017-1.033.106-1.831.321-2.56 1.694.403 2.339.434 4.16 0 1.255 4.244.32 12.572.32 17.6 0 2.035-.578 4.587.193 6.352.58 1.327 4.414.533 4.825 1.991.802 2.846-.218 7.687-.218 10.857v25.28c0 5.028.052 10.032-.291 15.04-.126 1.837.49 4.08-.222 5.712-.401.92-1.19.959-2.047 1.002-.736.037-1.454-.12-2.051.335-.805.613-.798 2.109-.824 3.19-.194 7.881-.005 15.797-.005 23.68 0 3.107-.247 7.636.019 10.555.233 2.564 2.643.648 4.268 1.935.959.76.513 4.541.513 5.75v35.52c0 3.676.193 10.523-.029 13.76-.07 1.02.13 3.076-1.033 3.648-1.22.6-3.157-.402-4.05.935-1.092 1.638-.328 5.074-.328 6.938v21.44c0 2.571-.338 6.622.047 8.946.208 1.25.985 1.556 2.193 1.587.924.024 2.078-.428 2.463.719.633 1.886.417 3.637.417 5.708 0 1.866-.104 2.784-.266 4.48-.171 1.799-.054 3.926-.054 5.76 0 5.14-.772 11.276.047 16.314.208 1.278 1.02 1.575 2.193 1.595.795.013 1.495.007 2.138-.41.824-.536.735-1.558.742-2.46.014-2.059 0-4.32 0-6.4v-22.08c0-1.662.63-6.595-.329-7.806-.507-.64-1.333-.491-2.23-.514-.769-.02-1.662.044-2.048-.74-.81-1.648-.193-4.397-.193-6.3V196.19c0-1.345-.003-2.85 0-4.16 0-.676-.154-1.756.329-2.366.472-.596 1.154-.472 1.911-.525.95-.066 1.927-.048 2.551-1.037 1.28-2.03.329-5.963.329-8.551 0-7.049-.302-13.288.013-20.48.065-1.504.3-2.395.307-3.84.035-7.374 0-15.588 0-23.04 0-3.175.258-7.515-.019-10.554-.17-1.88-1.451-1.547-2.86-1.612-1.863-.086-1.909-.802-1.92-2.554-.04-5.776-.001-12.97-.001-18.88 0-2.058-.697-5.45.193-7.258.391-.796 1.29-.717 2.047-.742 1.173-.039 2.39.059 2.778-1.315.669-2.37.102-8.486.102-11.165v-3.2c0-3.95.32-6.894.32-10.56V35.23c0-3.546.513-9.17-.047-12.461-.252-1.477-1.322-1.27-2.513-1.3-1.72-.045-2.204-.394-2.239-2.24-.082-4.359-.004-9.949 0-14.4 0-1.557-.278-3.01 1.606-3.18 5.085-.46 3.52 5.42 3.513 9.26-.002 1.506-.758 3.255-.125 4.753.414.981 1.324.98 2.365 1.007.843.021 1.923-.16 2.367.743 1.222 2.482.193 8.182.193 11.098 0 9.57-.32 19.17-.32 28.8 0 10.725.44 21.637-.291 32.32-.108 1.572.166 2.664-.076 4.154-.218 1.339-1.03 1.541-2.193 1.6-.979.05-2.114-.146-2.458 1.013-.707 2.382-.09 6.974-.102 9.553-.012 2.538-.437 4.225-.313 7.039.08 1.83.969 2.175 2.553 2.236 1.299.05 2.385-.105 2.542 1.611.224 2.469.134 7.74-.162 10.234-.138 1.16-.092 1.943-.124 3.2-.045 1.821-.016 3.352-.016 5.12v32.32c0 6.451.01 13.087 0 19.52-.003 1.899.163 3.694-.421 5.717-.35 1.212-1.466 1.242-2.458 1.311-1.85.13-2.237.901-2.24 2.892-.008 3.581.016 7.653 0 11.2-.008 1.417-.75 2.957-.126 4.432.414.981 1.324.98 2.365 1.007.741.019 1.72-.132 2.231.514 1.344 1.696.33 6.865.33 9.087v30.4c0 1.075-.258 2.352.057 3.472.222.791.801.937 1.545.984.877.057 1.728.016 2.456-.435.849-.526.735-1.49.741-2.421.016-2.264 0-4.754 0-7.04 0-9.555.32-18.915.32-28.48 0-2.457 1.15-8.5-.328-10.367-.512-.646-1.491-.495-2.232-.514-.78-.02-1.494.04-2.047-.512-.548-.55-.498-1.364-.511-2.047-.03-1.568-.124-4.205.017-5.754.153-1.676 1.225-1.56 2.541-1.61 1.325-.052 2.255-.052 2.513-1.61.49-2.952.047-9.113.047-12.466 0-5.076-.51-10.432.136-15.36.121-.922.18-1.618.184-2.56.02-4.015 0-8.105 0-12.16v-24.64c0-4.342-.002-9.182 0-13.44 0-1.436 1.073-5.715-.729-6.526-1.333-.6-2.504.554-3.558-.436-.563-.53-.498-1.283-.511-1.998-.029-1.529-.113-4.646.017-6.074.167-1.831 1.056-1.57 2.541-1.607.831-.022 1.72.026 2.232-.74 1.432-2.147.328-7.79.328-10.46v-4.16c0-3.346.32-5.763.32-8.96V25.63c0-1.948-.097-3.274.029-5.12.142-2.067.86-5.571-.039-7.632-.748-1.715-2.1-.532-3.782-1.293-1.137-.514-1-1.528-1.007-2.594-.013-1.773-.677-5.166.328-6.577.64-.897 3.934-.617 4.463.05.979 1.236.376 2.404.009 3.647.793.382 1.554.623 2.56.633.74.008 1.509.031 2.046-.506.552-.551.485-1.296.513-2.047.025-.658-.067-1.452.514-1.911.64-.508 1.499-.342 2.366-.328.559.01 1.24-.058 1.727.328 1.213.96.517 4.805.514 6.39-.002.912.153 1.99-.514 2.643-.558.547-1.325.525-2.046.553-.849.033-1.935-.132-2.367.747-1.395 2.833-.193 9.124-.193 12.378 0 8.107-1.178 16.983-.136 24.96.305 2.339-.184 3.826-.184 6.4v31.68c0 2.813-1.795 9.04.009 11.738.415.622 1.081.705 1.91.644.755-.055 1.654-.444 2.368.108.747.578.51 1.582.513 2.55.004 1.99.759 5.105-.33 6.531-.701.921-1.935.74-2.869.822-.966.087-1.678.154-1.874 1.306-.349 2.048-.047 4.867-.047 7.02v14.72c0 15.225-.32 30.508-.32 45.76v15.04c0 1.31-.31 2.663.009 3.793.29 1.03 1.273.982 2.23 1.007 1.063.027 2.126-.112 2.459 1.008.625 2.105.115 4.094.101 6.033-.006.882.115 1.709-.512 2.322-.643.63-1.465.528-2.367.558-.693.023-1.449-.071-1.911.513-.485.612-.328 1.598-.33 2.367-.003 2.163 0 4.537 0 6.72v26.24c0 3.216.014 6.735 0 9.92-.004.98-.462 2.52.451 3.191 1.328.975 3.364.528 4.157-.413.527-.626.497-1.39.511-2.138.03-1.58.001-3.503.001-5.12V224.99c0-2.677-.35-7.57.048-9.901.276-1.625 1.232-1.24 2.512-1.305.93-.047 1.68-.16 2.047-1.002 1.05-2.404.485-5.989.512-8.272.027-2.246.043-5.714 0-8-.043-2.255-1.116-2.166-2.879-2.246-.974-.045-1.832-.179-2.138-1.293-.802-2.919-.011-5.367.19-8.301.368-5.374.028-10.861.028-16.32 0-12.889-.306-26.048.005-38.72.022-.888.178-1.683.261-2.56.275-2.89-.184-7.412.073-10.234.182-2.001 4.253-1.351 4.68-2.905.743-2.705.102-4.579.102-7.021v-3.52c0-1.967.25-3.608.21-5.76-.07-3.627-4.71-.738-4.992-3.846-.245-2.695-.023-9.502-.019-12.474.001-.917.051-1.666.108-2.56.056-.892-.076-1.65-.003-2.56.267-3.387.216-7.126.216-10.56V34.27c0-4.891-.589-10.557.137-15.36.266-1.758.71-2.175 2.423-2.24 1.112-.042 2.105-.012 2.458-1.299.904-3.29.1-7.115.102-10.221 0-1.22-.178-2.747 1.007-3.098 1.244-.37 3.156-.382 3.784.411.95 1.2.329 3.649.329 5.247 0 2.548.004 5.5 0 8-.002 1.268-.12 2.238-.267 3.52-.233 2.033-.784 2.42-2.613 2.548-1.196.084-2.083.094-2.221 1.618-.328 3.598-.02 8.429-.02 12.154v23.04c0 3.92-.32 7.049-.32 11.2v14.4c0 1.791-.36 3.765.103 5.405.268.95.942 1.192 1.82 1.189.875-.004 2.136-.565 2.685.548.673 1.364.193 3.006.193 4.698v16.64c0 1.754.647 5.37-.833 6.847-1.486 1.482-4.023-.581-4.268 2.119-.283 3.105-.02 9.057-.02 12.474 0 3.143.072 6.513-.004 9.6-.052 2.127-.315 3.457-.315 5.76v32.32c0 2.077-.593 4.553.193 6.352.44 1.007 1.4.982 2.367 1.007.731.019 1.709-.145 2.23.514.752.948.332 2.32.33 3.647a62 62 0 0 1-.266 5.76c-.253 2.782-.054 4.218-.054 6.72v5.76c0 2.033.754 5.007-.33 6.581-.525.764-1.421.743-2.23.774-.906.035-1.73-.116-2.232.518-1.058 1.337-.328 7.225-.328 9.087v22.72c0 3.149-1.186 7.702 3.193 6.992 2.044-.33 1.918-2.807 1.926-4.432.025-5.22 0-10.458 0-15.68 0-3.526-1.21-10.806.194-13.658.43-.876 4.254-.652 4.733-1.75.75-1.716.194-4.562.194-6.672v-26.88c0-1.1.282-3.091-.194-4.058-.435-.886-1.392-.718-2.366-.743-.768-.02-1.661.044-2.047-.74-.64-1.3-.193-3.196-.193-4.7V143.39c0-4.991-.792-12.015.047-16.94.239-1.402 1.307-1.27 2.513-1.3 1.635-.042 2.473-.386 2.553-2.24.069-1.569-.08-3.607.098-5.12.124-1.053.223-1.75.228-2.88.026-5.432 0-11.47 0-16.96 0-3.665.513-7.571-.047-10.86-.197-1.155-.949-1.25-1.874-1.293-1.398-.065-2.693.22-2.86-1.612-.269-2.957-.019-7.42-.019-10.554V49.95c0-5.246.295-10.465.32-15.68.01-2.142-.667-5.19.194-6.938.614-1.25 2.662-.274 3.865-1.071 1.528-1.013 1.061-5.643 1.061-7.671V5.79c0-1.119-.307-3.13.742-3.647 4.918-2.42 4.502 4.052 4.366 7.167-.229 5.226-.308 10.434-.308 15.68 0 1.843.712 4.573-.328 5.887-.736.929-3.562.47-4.792.833.908 3.812.02 8.616 0 12.8-.005 1.338 0 2.204 0 3.52v29.12c0 .97-.183 1.97.194 2.832.398.912 1.198.959 2.047 1.002.994.05 2.1-.193 2.458 1.013.78 2.629.101 7.587.101 10.513 0 3.726-.32 7.92-.32 11.52v12.8c0 3.204.422 9.001-.047 11.826-.285 1.717-1.473 1.57-2.832 1.614-1.096.036-1.975.02-2.193 1.299-.31 1.822-.048 2.83-.048 4.46v7.36c0 8.46.014 17.166 0 25.6-.003 1.583-.237 2.564-.307 4.16-.056 1.274-.604 4.877.5 5.752 1.5 1.188 3.9-.578 4.506 1.628.452 1.646.101 4.807.101 6.7 0 5.815.574 12.521-.135 17.92-.303 2.307-.185 3.355-.185 5.44v8.64c0 2.226.016 4.472 0 6.72-.005.76.096 1.486-.328 2.102-.525.762-1.425.743-2.232.774-.984.038-1.932-.137-2.366.747-.98 1.989-.194 8.787-.194 11.098v3.2c0 3.576-.007 7.916 0 11.52.002 1.163-.233 2.41 1.008 2.778 2.393.71 4.07.073 4.111-2.138.073-3.887.001-8.814.001-12.8 0-2.142-.977-7.438.329-9.087.505-.638 1.48-.495 2.231-.514 1.112-.029 2.108-.023 2.458-1.298.89-3.237.102-7.12.102-10.221v-14.72c0-2.573.309-4.074.32-6.4.025-5.33 0-11.255 0-16.64 0-2.383.094-5.732-.006-7.999-.119-2.695-3.665-.96-4.785-2.43-1.367-1.792-.329-6.598-.329-9.091 0-6.85.15-13.703.315-20.48.058-2.351-.091-5.03.011-7.359.09-2.025.981-1.847 2.554-1.927 1.178-.06 1.98-.287 2.193-1.6.457-2.813.355-4.823.367-7.354.014-2.878 0-6.054 0-8.96V86.11c0-2.29.313-4.78.2-7.04-.044-.884-.015-2.551-.942-3.007-1.104-.543-3.2.414-3.865-.935-.654-1.33-.274-4.232-.138-5.658.205-2.16.265-3.37.265-5.76V44.83c0-2.296-.738-5.687.193-7.578.459-.932 1.513-.714 2.367-.747 1.083-.041 2.097-.031 2.458-1.31.426-1.507.102-3.395.102-5.085V7.07c0-1.305-.387-3.305.33-4.378.556-.836 1.622-.752 2.55-.74.635.007 1.455-.065 1.911.511.839 1.058.33 3.244.33 4.607v11.84c0 4.869.022 10.22-.001 15.04-.005 1.13-.104 1.826-.228 2.88-.124 1.049.202 2.748-.285 3.738-.82 1.665-3.911-.199-4.542 1.75-.648 2-.065 4.033-.065 6.352 0 2.07-.246 4.146-.275 6.08-.049 3.257-.045 6.83-.045 10.24 0 1.298-.406 5.023.513 5.751.67.53 1.48.294 2.366.335.93.043 1.675.126 1.874 1.293.211 1.242.047 2.182.047 3.5v33.28c0 3.353-.32 5.954-.32 9.28v15.36c0 1.453.144 3.659-.047 4.782-.487 2.86-4.741-.305-5.054 3.22-.166 1.87-.019 3.094-.019 4.799v18.24c0 1.188-.27 2.15.102 3.501.336 1.223 1.293 1.255 2.458 1.299 1.096.041 1.975.018 2.193 1.299.552 3.243.047 7.228.047 10.54v43.52c0 2.856.593 9.985-.102 12.446-.362 1.284-1.358 1.268-2.458 1.31-2.064.08-2.555.663-2.56 2.885-.006 3.131.13 7.209-.228 10.24-.125 1.056-.092 1.796-.092 2.88 0 1.79-.277 3.49 1.606 3.792 1.177.19 2.57.163 3.185-.73.491-.714.327-1.504.33-2.422.005-2.703-.487-9.068.512-11.098.678-1.378 3.958.093 4.505-1.75.58-1.95-.033-4.679.156-6.672.138-1.441.266-2.285.266-3.84.004-9.47 0-19.004 0-28.48v-34.24c0-1.131.167-1.923-.047-3.181-.219-1.284-1.095-1.247-2.193-1.303-1.683-.085-2.465-.223-2.554-2.237-.15-3.437-.006-8.844-.006-12.48 0-1.55-.412-3.146.193-4.377.462-.939 1.473-.72 2.367-.743 1.09-.029 1.905-.032 2.284-1.298.412-1.375.276-2.63.276-4.141v-37.44c0-1.566-.034-2.57.005-4.16.052-2.091.316-3.556.316-5.76V74.91c0-2.22.494-5.625-.102-7.633-.38-1.282-1.706-.964-2.777-1.013-1.999-.093-1.918-1.13-1.921-2.874-.007-3.592 0-7.28 0-10.88 0-1.794-.357-3.565.101-5.068.36-1.177 4.01-.736 4.69-1.754 1.314-1.97.329-6.563.329-9.178 0-8.12.32-16.22.32-24.32 0-2.305-1.051-9.98 1.606-10.221.9-.082 2.013-.219 2.68.31.687.543.512 1.715.514 2.55.005 2.449 0 4.911 0 7.36 0 9.183-.32 18.36-.32 27.52 0 2.97.925 8.386-.193 10.792-.676 1.453-2.392.696-3.92 1.15-1.683.501-1.239 6.177-.96 7.893.216 1.33 1.033 1.534 2.193 1.6 1.292.075 2.555-.05 2.832 1.62.468 2.819.048 7.513.048 10.546 0 8.189-.32 16.425-.32 24.64 0 11.854-.32 23.661-.32 35.52 0 4 .308 11.08-.02 14.715-.164 1.834-1.046 1.846-2.54 1.921-.683.035-1.447-.069-1.911.517-.807 1.019-.323 2.856-.33 4.287-.006 1.186-.291 2.03-.218 3.194.086 1.358 1.034 1.537 2.139 1.6 1.471.086 2.69.022 2.86 1.93.352 3.913.02 9.66.02 13.756 0 10.795-.32 21.568-.32 32v29.12c0 3.094.672 8.044-.102 10.861-.353 1.284-1.35 1.27-2.458 1.298-.768.02-1.724-.127-2.231.514-1.092 1.378-.342 4.92-.33 6.847.008.997-.158 2.112 1.008 2.458 1.088.323 2.544.325 3.28-.411.63-.63.491-1.488.514-2.367.057-2.196 1.714-2.85 4.111-2.138 1.026.304.986 1.185 1.006 2.138.02.93-.22 2.213.743 2.687 1.297.638 3.716.262 4.186-.815.71-1.629.205-4.49.192-6.352-.006-.876.132-1.721-.512-2.231-1.052-.833-4.317.423-4.531-1.935-.127-1.389.241-2.4.244-3.834.016-10.121 0-20.569 0-30.72v-33.92c0-3.495.144-7.404.237-10.88.055-2.079-.555-4.24-.19-6.381.22-1.295 1.099-1.228 2.193-1.326.915-.083 1.772-.097 2.367-.61 1.09-.94.572-5.875.506-7.362-.082-1.864-.99-1.882-2.553-1.922-1.101-.029-2.19-.038-2.404-1.298-.199-1.166.162-2.245.164-3.501.007-4.64 0-9.426 0-14.08v-17.92c0-2.75-.207-7.182.054-9.92.104-1.09.252-1.805.264-2.88.03-2.436.001-5.501.001-8V73.63c0-3.16-.777-8.192.102-11.153.305-1.028 1.175-.966 2.139-1.01 1.561-.072 2.678.089 2.86-1.923.158-1.74.749-6.145-.31-7.481-.518-.655-1.472-.48-2.23-.519-.849-.043-1.648-.087-2.048-1.002-.755-1.73-.193-4.036-.193-6.032V30.43c0-1.43-.007-2.344 0-3.84.01-1.914.299-2.767.32-4.48.017-1.484 0-3.282 0-4.8V5.79c0-1.149-.294-3.032 1.008-3.418 1.24-.369 2.843-.345 3.6.411.476.477.49 1.084.501 1.727.034 1.801-.309 3.664-.309 5.44v8.64c0 5.54.01 12.337 0 17.92-.004 2.37-1.611 7.07.01 9.498.482.724 1.28.716 2.23.74.733.02 1.71-.144 2.231.515.847 1.069.33 2.83.33 4.287v10.56c0 1.26.334 2.417-.33 3.381-.52.757-1.44.744-2.23.774-.979.038-2.117-.14-2.459 1.012-.661 2.227-.009 6.189-.114 8.593-.049 1.112-.276 2.101-.303 3.2-.025 1.035-.005 1.835-.005 2.88v11.52c0 5.3.008 10.739 0 16-.003 1.69-.272 2.719-.315 4.48-.033 1.34-.005 2.205-.005 3.52v17.28c0 2.786-.654 6.687.101 9.232.334 1.123 1.456.994 2.459 1.008.82.011 1.923-.16 2.367.742.492 1 .193 2.22.193 3.418 0 3.917.312 10.029-.02 13.758-.267 3.022-4.308.706-4.999 3.22-.718 2.618-.101 5.456-.101 8.302v58.88c0 1.565.032 3.626-.005 5.12-.035 1.396-.507 2.233-.267 3.834.197 1.313 1.025 1.546 2.192 1.6 1.287.058 2.545-.381 2.832 1.305.309 1.813.091 7.275.043 9.26-.022.892-.275 1.584-.214 2.555.076 1.208.858 1.504 1.82 1.587 1.893.164 2.987-.141 3.22-2.221.141-1.25.283-2.013.297-3.2.033-2.795.218-10.202-.017-12.794-.357-3.923-5.014.705-5.1-3.846-.073-3.855-.001-8.837-.001-12.8v-34.24c0-1.179.016-1.918.184-3.2.58-4.41-1.066-10.923.238-15.313.311-1.05 1.232-.973 2.138-1.007 1.045-.04 1.942-.036 2.367-1.008.716-1.64.193-5.994.193-7.952 0-1.49-.078-3.365.091-4.8.125-1.054.223-1.75.229-2.88.01-2.055 0-4.06 0-6.08 0-2.108.642-4.12-.193-6.033-.502-1.148-1.626-.96-2.687-1.013-1.01-.051-1.83-.169-2.138-1.293-.24-.873-.102-1.655-.102-2.541v-14.72c0-3.507.229-7.353.315-10.88.172-7.031.005-14.087.005-21.12 0-3.682-.184-8.338.229-11.84.222-1.883-.553-3.956.284-5.658.852-1.732 3.072.324 4.278-1.484.904-1.354.33-5.544.33-7.258 0-2.93-.22-6.41.053-9.28.162-1.696.266-2.615.266-4.48 0-2.616.636-4.78-.33-6.993-.717-1.643-3.119-.419-4.277-1.336-1.547-1.225-.267-6.315-.271-7.991-.004-1.784.075-2.772.078-4.48.01-5.8 0-11.783 0-17.6 0-1.93-.025-4.19.001-6.08.012-.878-.086-1.957.778-2.551 1.183-.815 3.762-.372 4.148.413 1.198 2.434.193 5.984.193 8.538 0 1.047.034 2.145-.013 3.2-.051 1.172-.27 1.859-.302 3.2-.027 1.087-.005 1.82-.005 2.88 0 3.822.56 12.383-.32 15.36.794.382 1.557.6 2.56.635 1.077.039 2.12-.126 2.458 1.012 1.107 3.73.102 8.895.102 12.433v14.72c0 2.711.523 7.625-.102 9.901-.73 2.655-4.865-.117-5.012 3.22-.136 3.072.03 10.578-.007 13.759-.014 1.191-.205 1.948-.29 3.2-.31 4.519-.029 10.884-.029 15.36v17.6c0 2.033-.451 4.49.102 6.352.335 1.13 1.454.983 2.458 1.01 1.268.032 2.084.1 2.221 1.604.388 4.266.02 9.842.02 14.074v10.24c0 3.381.06 7.587-.002 10.88-.013.696.037 1.465-.512 2.002-.565.554-1.28.524-2.046.553-1 .039-2.1-.196-2.459 1.012-.592 1.996-.101 4.673-.101 6.993 0 4.146.02 8.696 0 12.8-.006 1.094-.15 1.826-.175 2.88-.028 1.216.173 2.241.175 3.52.01 6.879 0 14.141 0 21.12 0 2.87-.408 6.912.047 9.581.37 2.176 2.707.414 4.24 1.628.995.788.513 4.44.513 5.75v13.76c0 1.368-.423 4.275 1.007 4.7 1.733.514 3.602.114 3.774-1.82.513-5.783.339-11.343.339-17.28 0-2.182.01-4.557 0-6.72-.006-.958.107-1.963-.422-2.777-.575-.885-1.437-.696-2.458-.748-.997-.05-1.831-.173-2.139-1.293-.238-.868-.101-1.583-.101-2.541v-31.04c0-2.142-.146-4.617.054-6.72.109-1.147.26-2.001.265-3.2.006-1.144-.336-2.661.194-3.738.399-.812 1.258-.706 2.047-.746 1.295-.065 2.249-.021 2.512-1.61.542-3.265.366-8.75.368-12.146.004-10.438.198-22.677-.001-33.28-.04-2.06-.957-2.16-2.559-2.253-.79-.045-1.956-.027-2.276-1.036-.302-.957.034-2.077.036-3.111.004-2.76 0-5.848 0-8.64V98.27c0-1.787-.065-3.353.013-5.12.117-2.685.277-4.885.306-7.36.014-1.198-.318-2.697.194-3.738.394-.801 1.284-.707 2.047-.746 1.548-.078 2.378-.103 2.541-1.921.194-2.16-.152-4.024.073-6.395.114-1.197.26-1.972.266-3.2.031-6.557 0-13.855 0-20.48V37.79c0-1.553.468-3.674-.193-5.018-.444-.903-1.524-.722-2.367-.743-.855-.022-1.7.063-2.095-.74-.626-1.272-.145-4.927-.145-6.62V9.63c0-1.023-.011-1.833.001-2.88.015-1.216-.085-3.064.646-3.966.657-.81 2.77-.793 3.731-.32 1.018.5.742 3.085.742 4.287 0 4.707-.32 9.368-.32 14.08 0 1.8-.847 4.674.513 5.751 1.04.824 4.047-.208 4.505 1.336.534 1.8.102 5.464.102 7.633 0 6.724-.288 13.46-.32 20.16-.01 2.172-.152 4.577.091 6.72.102.906.148 1.647.044 2.56-.147 1.28.12 2.135.066 3.52a263 263 0 0 1-.138 3.2 46 46 0 0 0-.063 2.56c-.001 2.816.88 8.373-.193 10.832-.402.921-1.189.953-2.047 1.003-1.208.07-2.36-.165-2.778 1.32-.63 2.232-.102 6.71-.102 9.245 0 5.662.477 12.015-.054 17.6-.27 2.838-1.24 7.52-.073 10.192.395.906 1.213.964 2.047 1.002 1.071.049 2.402-.255 2.778 1.013 1.065 3.586.102 10.661.102 14.673 0 9.432-.32 18.721-.32 28.16 0 4.033.324 9.575-.019 13.438-.154 1.739-1.065 1.883-2.541 1.92-.814.022-1.714-.138-2.231.515-.485.612-.328 1.598-.33 2.367-.003 2.06 0 4.32 0 6.4v22.72c0 2.124-.83 4.279-.217 6.352.49 1.664 4.18.672 4.825 2.057.574 1.234.193 3.23.193 4.71v10.88c0 4.972-.034 10.44 0 15.36.015 2.149.545 2.653 2.878 2.555 1.997-.084 1.918-1.194 1.922-2.874.009-4.535 0-9.212 0-13.76 0-5.023.32-10.032.32-15.04 0-1.91.407-4.616-.102-6.354-.371-1.268-1.684-1.222-2.778-1.32-1.026-.092-1.827-.171-2.138-1.305-.697-2.537-.034-6.29.098-8.941.105-2.1.11-3.469.12-5.44.012-2.47 0-5.187 0-7.68 0-1.472-.583-4.416.329-5.567.877-1.107 2.54-.049 3.73-.842.914-.61.953-3 1.032-4.151.88-12.851-.823-25.87.058-38.72.379-5.536.29-11.082.29-16.64 0-2.338.186-5.43-.018-7.674-.171-1.881-1.461-1.548-2.86-1.612-1.677-.077-2.158-.477-2.235-2.234-.077-1.775-.015-4.225-.006-6.08.021-4.404.32-8.745.32-13.12 0-2.058-.697-5.45.193-7.258.432-.88 1.519-.714 2.367-.747.791-.03 1.71-.018 2.23-.774.484-.702.328-1.538.33-2.421.005-2.536 0-5.138 0-7.68V53.47c0-7.023.32-14.074.32-21.12 0-2.608.367-6.51-.048-8.941-.251-1.477-1.323-1.27-2.512-1.3-1.9-.05-2.52-.503-2.559-2.56-.048-2.563-.154-4.65.09-6.72.139-1.173.227-1.933.229-3.2.003-1.87-.758-5.474.329-6.846.597-.754 2.09-.65 3.172-.466 1.524.26 1.298 1.838 1.299 3.153 0 2.964-.395 7.517.047 10.234.189 1.159.784 1.51 1.874 1.582 1.561.103 2.672-.743 2.86 1.31.253 2.766.019 8.138.019 11.194v27.52c0 8.83.806 18.114-.229 26.88-.356 3.015.148 7.01-.11 9.918-.25 2.815-2.779.946-4.268 2.435-.746.746-.778 4.605-.82 5.567-.127 2.88-.015 7.207-.013 10.24 0 .985-.195 1.993.329 2.778.455.682 1.18.699 1.911.736.995.05 2.1-.193 2.458 1.013.427 1.439.102 3.494.102 5.073v10.56c0 12.922-.32 25.812-.32 38.72v16c0 1.933.376 4.723-.102 6.354-.42 1.434-1.603 1.238-2.778 1.315-.928.06-1.813-.077-2.138 1.018-.97 3.266-.102 9.969-.102 13.713 0 1.211-.388 3.382.329 4.287.955 1.206 3.167-.092 4.265.842.59.502.292 1.511.324 2.23.104 2.315-.118 4.706-.118 7.04v27.2c0 1.76-.7 5.87.329 7.168.615.776 2.131.697 3.172.411 1.358-.373 1.29-1.589 1.299-2.778.018-2.642 0-5.352 0-8 0-9.478.32-18.963.32-28.48 0-2.436.016-4.93 0-7.36-.005-.749.112-1.736-.513-2.231-1.535-1.216-3.16.899-4.224-1.07-.428-.793-.074-1.966-.064-2.78.017-1.537-.323-3.959.103-5.392.343-1.157 1.476-.963 2.458-1.013 1.184-.06 1.942-.31 2.328-1.6.917-3.058-.29-5.909-.06-9.274.727-10.603.292-21.362.292-32 0-10.68.32-21.315.32-32 0-3.55.84-9.898-.102-13.073-.354-1.191-1.458-.982-2.458-1.008-.684-.018-1.46.057-1.911-.512-1.032-1.303-.403-5.345-.323-7.166.065-1.48.624-1.81 1.915-1.928 1.443-.13 2.766-.03 3.126-1.92.917-4.82.073-12.054.073-17.273 0-12.49.32-24.965.32-37.44V21.79c0-2.424.828-6.783-.193-8.858-.443-.9-1.525-.722-2.367-.743-.684-.018-1.46.057-1.911-.512-.478-.604-.328-1.612-.33-2.367-.002-1.682-.696-5.232.33-6.527.445-.562 1.256-.504 1.911-.511 3.692-.045 1.44 2.205 2.889 4.376.852 1.277 2.63.742 4.15.742" fill="none" stroke="#433c34"/></svg>