<svg viewBox="0 0 288.112 129.234" xmlns="http://www.w3.org/2000/svg"><path d="M18.62 65.156c.275-1.65 3.65-2.529 4.791-1.087.37.467.32 1.16.327 1.727.047 3.858-3.304 2.647-6.072 2.899-.983.09-2.108.948-1.276 2.028.993 1.289 6.12.574 7.67.507.945-.041 1.662-.12 2.047-1.001.4-.915.193-1.943.193-2.833 0-1.908-.035-5.095.001-7.04.021-1.104.974-3.302 2.23-1.727 1.295 1.624.329 8.563.329 11.007 0 1.037.27 2.521-.329 3.418-.72 1.08-2.698.742-3.831.742H14.14c-.916 0-4.82.53-2.687 2.231 1 .798 3.383.329 4.607.329h11.2c1.48 0 3.032.456 3.831-.742 1.018-1.524.329-4.016.329-5.658v-12.16c0-.906-.017-1.598.002-2.56.016-.889.498-3.102 2.045-1.91 1.219.94.513 4.225.513 5.75v14.72c0 1.623.755 4.19-.742 4.927-1.178.58-4.07.193-5.658.193H10.3c-.955 0-5.938-.274-4.15 2.047.879 1.14 4.433.513 5.75.513h17.6c1.284 0 2.94.002 4.16 0 .692-.001 1.687.21 2.367-.329 1.447-1.146.513-4.797.513-6.711v-19.52c0-1.83-.418-4.282.102-6.033.301-1.015 1.764-1.282 2.265-.265.937 1.9.193 5.77.193 7.898v19.2c0 1.798.76 7.355-1.007 8.127-2.031.887-6.006.193-8.273.193H9.34c-2.169 0-4.576-.039-6.72.001-.848.017-1.715-.074-2.028.74-.46 1.193.864 1.725 1.71 1.8 1.897.169 4.435.019 6.398.019h22.4c.958 0 1.607-.004 2.56 0 1.16.006 3.957-.186 4.927.604 1.074.877.513 3.884.513 5.156v26.56c0 1.112.365 3.134-.74 3.825-1.764 1.102-1.818-1.563-1.82-2.545-.008-3.73 0-7.47 0-11.2v-13.76c0-1.352.542-4.147-.329-5.247-.966-1.22-5.235-.461-6.711-.526-5.651-.247-11.289-.307-16.96-.307-1.652 0-4.932-.688-6.207.329-.785.626-.379 1.87.494 2.13 1.301.385 3.069.101 4.433.101 5.665 0 11.663-.553 17.28.184 1.237.163 4.298-.377 5.111.65.871 1.099.329 3.894.329 5.246v14.4c0 1.445.574 4.62-.74 5.364-2.28 1.289-1.82-3.642-1.82-4.724v-13.44c0-1.13.466-3.696-.513-4.471-1.077-.853-3.913-.329-5.247-.329-3.983 0-11.516.367-14.4-.32-.24.82-.731 2.12.422 2.687 2.823 1.39 9.185.193 12.378.193 1.144 0 3.354-.41 4.287.329.851.674.513 2.54.513 3.511 0 2.824 1.042 8.289-.193 10.778-.594 1.197-2.017.347-2.265-.557-.629-2.288-.102-5.454-.102-7.981 0-.913.29-2.555-.513-3.191-1.03-.816-3.656-.329-4.927-.329-1.113 0-3.703-.481-4.47.513-.99 1.286.576 1.996 1.591 2.04 1.427.064 4.123-.554 5.246.336.805.637.725 2.856.32 3.784-1.252 2.863-3.156-2.848-4.598-1.04-.93 1.167-.329 3.747-.329 5.247v11.84c0 1.441-.448 3.715.193 5.018.632 1.285 3.69.742 4.927.742h4.48c1.39 0 3.134-.063 4.48.029 1.192.081 1.9.274 3.2.29 5.783.069 11.796 0 17.6 0 2.07 0 4.353.06 6.4-.004.787-.025 1.73-.047 2.231-.774.824-1.197.329-3.152.329-4.661v-12.16c0-1.35.546-4.15-.329-5.247-.468-.587-1.432-.534-1.908-.001-.564.631-1.406 2.655-2.554 1.215-.68-.853-.728-3.236.184-3.958 1.387-1.098 4.23.02 5.868-.43.856-.236 1.716-1.373.784-2.13-1.367-1.111-5.732-.36-7.485-.327-.74.014-1.666-.034-2.047.74-1.29 2.623.23 7.609-.24 10.444-.176 1.059-1.692 2.25-2.45.871-.43-.782-.063-2.66-.063-3.737 0-1.867.037-5.007-.005-6.72-.027-1.1-.893-3.285.198-4.151.885-.703 2.904-.329 3.967-.329h10.56c1.21 0 4.37-.101 2.87-2.047-1.131-1.467-7.175-.513-8.95-.513h-8c-.852 0-2.277-.237-2.871.513-.816 1.03-.329 3.656-.329 4.927v13.44c0 1.285.377 2.685-.329 3.701-.495.713-1.627.912-2.222.036-.762-1.12-.329-3.926-.329-5.337v-14.08c0-1.506-.603-4.905.742-5.567 1.206-.594 3.465-.193 5.018-.193h12.48c2.534 0 5.873.198 8.319-.019.876-.077 2.429-.876 1.586-2.028-1.057-1.445-4.828-.513-6.705-.513H50.94c-1.518 0-4.978-.645-6.207.329-1.252.992-.513 5.535-.513 7.031v20.8c0 1.329.345 3.208-.193 4.432-.47 1.07-1.718 1.037-2.174 0-.734-1.67-.193-5.693-.193-7.632 0-6.585-.244-13.265.012-19.84.092-2.362-1.306-7.397 1.594-7.661 2.295-.209 6.17-.019 8.634-.019h19.84c1.716 0 8.07.926 8.748-1.001.485-1.381-1.094-1.54-2.028-1.558-2.487-.047-5.534.055-8-.006-1.27-.03-1.884-.245-3.2-.302-5.235-.23-12.678-.013-18.24-.013-1.599 0-5.241.69-6.527-.329-1.278-1.012-.513-6.094-.513-7.671v-20.8c0-1.471-.764-6.074.512-7.025 1.503-1.121 1.722 1.399 1.728 2.225.023 3.41 0 6.83 0 10.24v16.64c0 .902-.256 2.79.377 3.738.975 1.461 5.062.742 6.663.742h17.6c1.535 0 5.059.656 6.205-.513 2.39-2.435-4.632-2.047-5.565-2.047H53.18c-1.325 0-4.86.611-5.751-.513-.66-.833-.329-2.633-.329-3.647v-10.24c0-2.275.05-5.152-.005-7.36-.028-1.175-.953-3.254.426-4.15 2.53-1.643 2.139 2.704 2.139 4.15v13.76c0 1.31-.464 3.95.513 4.927.968.968 3.33.513 4.607.513h10.88c1.39 0 3.01.462 3.965-.513 1.366-1.392-1.037-2.044-2.365-2.047-3.516-.007-7.043 0-10.56 0-1.155 0-3.087.367-3.967-.513-1.332-1.332-.513-6.28-.513-8.127 0-1.445-.728-5.753.513-6.71 2.163-1.667 2.047 2.55 2.047 3.51 0 2.228-.789 6.223.193 8.218.38.771 1.308.727 2.047.74 1.85.035 5.701.717 7.258-.327 1.08-.724.554-1.994-.557-2.184-2.915-.497-6.45 1.268-6.38-2.927.01-.56-.041-1.261.328-1.727.674-.851 3.776-.828 4.464 0 .413.498.279 1.308.84 1.712.831.599 1.726-.167 1.945-.964 1.194-4.347-2.629-3.694-5.657-3.827-1.015-.045-2.582-.755-1.59-2.041.766-.994 3.356-.513 4.469-.513 1.271 0 3.897-.487 4.927.329.815.645.513 2.253.513 3.191 0 2.712-.245 4.378.019 7.359.09 1.027 1.262 2.652 2.212 1.432.628-.806.329-1.974.329-3.031v-8.64c0-.852.237-2.277-.513-2.871-.78-.618-2.381-.329-3.327-.329h-8.96c-1.517 0-6.601-.057-4.79-2.367.881-1.125 3.863-.513 5.11-.513 3.149 0 6.858-.039 10.24.001 1.235.015 3.27-.165 4.287.648.91.727.513 2.781.513 3.831 0 3.23-.075 6.032.005 9.28.044 1.82.314 2.919.315 4.8 0 1.076-.26 6.776 2.047 4.56 1.075-1.03.513-3.98.513-5.52 0-3.3.038-6.98-.001-10.24-.016-1.335-.246-2.15-.306-3.52-.068-1.548.487-4.874-.526-5.887-1.031-1.031-3.355-.513-4.927-.513H56.7c-2.593 0-5.428.215-7.994-.019-.989-.09-2.115-.94-1.276-2.028.666-.864 2.555-.513 3.51-.513h22.4c1.246 0 3.396-.376 4.287.329 1.163.921.513 5.128.513 6.711v19.84c0 .992-.447 8.972 2.047 6.525.836-.82.513-2.574.513-3.645v-26.88c0-1.3.313-4.728-.742-5.247-2.076-1.022-5.782-.193-8.218-.193-6.578 0-13.987.154-20.48-.005-1.223-.03-1.988-.25-3.2-.302-1.47-.065-5.714.726-5.93-1.002-.238-1.889 7.014-1.251 8.49-1.251h22.72c1.767 0 6.677.82 7.258-1.299.682-2.483.102-6.021.102-8.621v-18.88c0-1.912.438-4.535-.102-6.353-.263-.886-1.484-1.303-2.13-.494-1.051 1.32-.328 5.207-.328 6.847v18.24c0 1.753.782 6.191-.513 7.487-1.225 1.224-5.2.513-6.847.513H52.54c-2.47 0-6.071.47-5.12-2.88 2.681.792 6.655.315 9.6.276 3.597-.048 7.547.044 11.2.044 1.647 0 5.622.711 6.847-.513 1.038-1.038.513-3.875.513-5.247v-14.4c0-1.414.3-4.73-.777-5.425-2.515-1.623-1.783 6.966-1.783 8.305v9.92c0 1.186.354 3.035-.329 4.058-.783 1.174-3.233.742-4.471.742H57.34c-1.37 0-3.25.428-4.378-.329-2.208-1.481 1.78-2.559 3.098-2.55 1.542.011 2.39.279 3.84.314 2.002.05 9.064 1.004 10.231-.737 1.137-1.696.329-5.885.329-7.898 0-1.604.713-5.765-.513-6.71-1.911-1.473-2.047 1.878-2.047 2.87-.001 2.256.015 4.783 0 7.04-.006.82.087 1.735-.513 2.322-1.078 1.055-3.993.558-5.567.558-1.279 0-3.113.216-3.967-.595-1.277-1.213.213-2.226 1.408-2.279 1.784-.079 4.326.65 5.566-.564.757-.74.687-2.54.227-3.555-.327-.723-1.065-1.157-1.854-.808-.753.334-1.946 3.974-3.107 1.62-.595-1.208-.193-3.593-.193-5.02V6.276c0-1.215-.537-4.28.513-5.111 1.591-1.26 6.764-.329 8.767-.329H93.5c2.383 0 8.123-.941 9.727.329 1.427 1.13.826 4.587.833 6.071.018 3.746 0 8.041 0 11.84 0 1.564.415 3.387-.193 4.727-.307.675-1.198 1.095-1.854.506-.659-.591-2.065-4.172-2.971-1.03-.312 1.078-.308 2.885.411 3.604.912.912 8.46-.27 6.832 2.333-.804 1.286-8.554 1.463-9.58.227-1.755-2.112-.527-7.88-.651-10.686-.05-1.125-1.376-3.179-2.36-1.18-1.227 2.489.126 8.258.126 11.099 0 1.029-.36 3.104.742 3.647 1.086.535 2.862.193 4.058.193h9.28c1.338 0 4.43.049 3.64 1.82-.556 1.249-2.976.74-4.28.74-4.126 0-10.843.593-14.706-.047-2.41-.4-1.614-3.349-1.614-5.393v-13.44c0-.906-.178-6.541-2.231-3.967-1.007 1.263-.329 4.544-.329 6.207v13.44c0 1.326-.363 3.982.329 5.018.8 1.198 2.35.742 3.831.742h10.56c3.624 0 7.257-.007 10.88 0 .97.002 3.254-.107 2.668 1.559-.624 1.774-5.315 1.001-6.828 1.001H92.86c-1.537 0-4.967.653-6.207-.329-.866-.686-.502-2.507-.514-3.511-.013-1.098-.21-2.017-.29-3.2-.066-.955-.029-1.574-.029-2.56v-18.56c0-1.349.407-3.48-.193-4.698-.421-.855-1.768-.824-2.174 0-.92 1.869-.193 5.42-.193 7.578v19.2c0 1.959-.494 7.12.513 8.127 1.331 1.331 5.442.513 7.487.513h24.64c1.207 0 5.262-.648 5.88.74 1.2 2.694-7.348 1.82-8.76 1.82H91.9c-1.883 0-6.625-.86-8.127.329-1.086.86-.513 4.168-.513 5.431v26.56c0 .991-.398 3.159.513 3.825 2.46 1.8 2.047-4.474 2.047-5.425v-20.8c0-1.602-.486-6.815 1.007-7.258 3.537-1.05 7.806-.102 11.153-.102h10.88c1.9 0 6.662-.89 7.665.741.421.685.125 1.597-.672 1.946-1.453.635-3.814.196-5.393.193-1.72-.003-2.583-.238-4.16-.307-3.819-.168-8.28-.013-12.16-.013-1.708 0-5.137-.75-5.658 1.007-.392 1.32-.102 3.825-.102 5.393v13.76c0 1.542-.437 4.666.513 5.56.87.82 1.709.081 1.945-.779.274-.996.102-2.447.102-3.501v-14.08c0-1.118-.362-3.094.329-3.967.58-.732 1.495-.51 2.551-.513 2.765-.006 5.553 0 8.32 0 1.757 0 8.193-.952 9.265.513 1.417 1.937-2.27 2.047-3.185 2.047H97.66c-1.013 0-3.123-.381-3.831.513-1.144 1.444-.329 6.006-.329 7.807v3.2c0 .982-.208 2.627.329 3.417.678.998 2.16.617 2.437-.572.713-3.062-.996-7.257-.104-10.506.562-2.05 3.14-1.299 5.018-1.299 1.23 0 4.456-.374 5.105.513 1.82 2.489-4.399 2.03-5.425 2.048-2.164.041-2.572 1.18-2.193 3.513.522 3.206 2.364.095 3.34-.625.933-.69 3.625-.648 4.284.184.786.993.685 3.519-.184 4.37-1.176 1.15-3.998.494-5.566.563-1.14.05-2.857 1.1-1.179 2.225 1.343.9 8.107 1.014 9.305-.184 1.633-1.633.472-8.104.514-10.367.019-.965.576-3.042 2.046-1.91.886.683.513 2.078.513 3.19v8.32c0 1.007.26 2.553-.513 3.327-.87.87-2.83.513-3.967.513-3.519 0-7.042-.002-10.56 0-1.152 0-4.436.262-2.685 2.047.905.923 3.026.513 4.285.513h11.2c1.197 0 3.372.402 4.287-.513.998-.998.513-3.612.513-4.927v-13.12c0-.957-.34-6.309 2.047-4.47.76.586.513 2.023.513 2.87v18.88c0 1.032.225 2.589-.513 3.327-1.102 1.102-4.038.513-5.567.513H94.46c-1.408 0-3.119-.105-4.474.019-.978.089-2.132.967-1.091 2.028 1.207 1.231 4.53.513 6.205.513h17.6c2.023 0 5.658.983 6.527-1.007 1.166-2.672.193-7.217.193-9.873v-15.68c0-1.179-.567-8.724 2.047-6.71 1.386 1.069.513 6.327.513 7.99v20.48c0 1.816.793 5.54-.513 6.847-1.486 1.485-7.022.513-9.087.513-6.18 0-13.094.135-19.2-.005-1.564-.036-2.82-.234-4.48-.29-2.038-.069-2.936.505-5.12-.025-.26.913-.452 1.968.422 2.551 1.251.836 3.504.329 5.018.329h27.84c1.176 0 3.95-.192 4.607.329 1.437 1.138.513 5.132.513 7.031v25.28c0 .893.36 2.158-.329 3.005-.789.971-1.915-.003-2.13-.784-.473-1.723-.101-3.697-.101-5.741v-19.84c0-1.902 1.003-5.668-.742-6.527-2.157-1.062-5.255-.193-7.258-.193H94.46c-1.419 0-4.867-.687-5.745.513-1.561 2.134 3.129 2.047 4.145 2.047h17.28c1.649 0 4.434-.278 5.713.102 1.861.552 1.007 3.581 1.007 5.338v14.08c0 1.529.555 4.36-.329 5.657-1.934 2.837-2.231-3.208-2.231-4.057v-14.08c0-1.62.694-3.873-1.007-4.378-2.577-.765-5.32-.102-7.633-.102h-7.04c-1.21 0-4.332-.58-4.92.74-.982 2.204 2.348 1.82 3.64 1.82 3.632 0 7.41-.097 10.88.157.917.067 2.19-.332 3.007.236.81.563.527 2.183.509 3.127-.015.76-.1 1.43-.089 2.24.022 1.627.114 2.633.092 4.48-.017 1.407.515 3.31-.34 4.661-1.145 1.807-2.195-.258-2.218-1.461-.048-2.572.016-5.428-.002-8-.005-.767.112-1.737-.512-2.231-1.065-.843-3.727-.312-5.247-.33-1.257-.015-3.24-.872-4.286.194-1.031 1.052.048 2.15 1.092 2.32 1.582.257 4.164-.492 5.652.24 1.02.502.858 2.325.694 3.313-.16.97-.998 1.962-2 1.271-.753-.52-2.005-3.9-3.2-1.475-.57 1.16-.192 3.97-.192 5.338 0 4.727-1.24 11.433.101 15.953.595 2.004 8.027 1.007 9.819 1.007 2.436 0 5.652-.132 8 .029 1.065.072 1.753.259 2.88.286 4.571.112 9.77.005 14.4.005 2.07 0 4.352.06 6.4-.005.787-.024 1.73-.047 2.23-.774.825-1.197.33-3.151.33-4.66v-12.48c0-1.58.675-4.195-.513-5.11-.904-.697-3.546 3.237-4.414 1.487-2.447-4.932 3.28-4.002 5.88-4.425.94-.153 2.146-1.327 1.092-2.184-.828-.673-2.51-.329-3.645-.329-1.37 0-4.824-.647-5.752.513-.76.952-.658 3.064-.642 4.287.024 1.95.396 3.748.308 5.759-.04.886-.963 3.244-2.225 1.723-.591-.712-.33-2.13-.33-3.002v-8.32c0-.902-.287-2.556.514-3.19.786-.623 2.384-.33 3.327-.33h8.32c.931 0 7.223.412 5.425-2.047-.516-.705-1.788-.511-2.545-.513-2.344-.005-4.696 0-7.04 0-2.45 0-9.17-1.232-10.551.513-.678.855-.33 3.438-.33 4.607v13.44c0 .967.15 2.267-.101 3.181-.278 1.01-1.353 1.694-2.13.556-.733-1.077-.328-4.637-.328-5.977v-12.8c0-1.395-.571-4.43.329-5.567.887-1.12 4.44-.513 5.751-.513h16.64c1.246 0 2.987.142 4.154-.047.73-.12 1.808-.7 1.394-1.773-.625-1.622-3.911-.74-5.548-.74h-17.92c-1.19 0-2.709.049-3.84-.029-.815-.055-1.855-.518-2.778-.093-1.729.794-.742 4.675-.742 6.522v20.16c0 1.558.19 4.028-.047 5.421-.189 1.106-1.665 1.887-2.32.557-1.113-2.258-.193-6.544-.193-8.858v-18.24c0-1.654-.91-7.649 1.007-8.218 2.83-.84 6.92-.102 9.873-.102 1.972 0 4.874-.051 6.72.066.944.06 1.536.224 2.56.25 2.852.07 6.073.004 8.96.004 2.378 0 5.009.069 7.36-.005.9-.028 1.951-.021 2.36-1.027.328-.803-.09-1.533-.807-1.746-2.22-.66-4.853-.102-7.313-.102h-21.12c-2.178 0-6.408.418-8.301-.102-2.362-.648-1.299-5.405-1.299-7.578 0-7.04-.034-14.08 0-21.12.006-1.289.263-2.366.263-3.52 0-1.038-.781-2.664.295-3.617 1.303-1.154 2.27.965 2.316 2.017.141 3.253.006 7.528.006 10.88v14.72c0 1.334-.524 4.17.329 5.247.684.864 2.514.513 3.51.513h3.52c2.804 0 6.198-.108 8.96.013 2.578.113 4.174.307 7.04.307 1.924 0 5.38.533 6.846-.649 2.249-1.811-2.683-1.911-3.645-1.911-3.81 0-8.078.088-11.84-.005-1.105-.027-1.807-.246-2.88-.274-.812-.021-1.433.152-2.24.133-1.599-.036-5.215.537-6.527-.503-.933-.739-.513-2.225-.513-3.511v-18.56c0-.88-.305-2.58.512-3.185 1.164-.861 1.808.586 1.858 1.586.06 1.224.175 1.995.189 3.199.051 4.373 0 9.332 0 13.76 0 1.118-.442 3.704.742 4.287 2.38 1.171 8.116.193 10.779.193h3.84c1.272 0 3.998.513 4.79-.513a1.22 1.22 0 0 0-.412-1.854c-1.015-.5-2.17-.193-3.418-.193h-9.6c-1.029 0-2.798.344-3.647-.329-.837-.662-.513-2.553-.513-3.511v-8.32c0-1.06-.337-2.214.329-2.964 1.035-1.167 2.176.577 2.225 1.684.12 2.756-1.013 7.675.199 10.138.38.771 1.307.727 2.047.74 1.849.035 5.701.717 7.258-.327 1.08-.724.554-1.994-.557-2.184-2.916-.497-6.45 1.268-6.38-2.927.01-.56-.041-1.261.328-1.727 2.526-3.19 6.397 3.846 7.249.748.25-.91.377-2.867-.411-3.492-1.163-.92-3.808-.22-5.246-.348-.923-.082-2.446-.852-1.586-2.028.947-1.295 5.849-.523 7.345-.513.707.005 1.734-.114 2.23.513.55.692.33 1.857.33 2.687 0 2.68-.124 4.371.006 7.36.05 1.162 1.125 3.11 2.225 1.497 1.505-2.208.329-8.407.329-11.097 0-.913.29-2.555-.513-3.191-1.737-1.375-7.15-.264-9.407-.502-1.626-.17-4.554-.086-6.079-.153-.978-.043-2.308-.499-1.722-1.814.583-1.308 3.757-.74 4.92-.74h11.52c1.22 0 2.447-.368 3.328.329.966.765.475 3.966.525 5.111.06 1.37.305 2.184.305 3.52l.002 10.24c0 .973.632 6.282 2.047 3.418.739-1.496.193-4.333.193-5.978v-15.04c0-1.14.69-3.554-1.007-4.058-1.635-.486-4.548-.102-6.353-.102H136.06c-1.218 0-7.018.733-5.88-1.82.48-1.08 2.374-.74 3.32-.74h22.72c1.113 0 3.715-.441 4.471.513 1.055 1.331.33 5.187.33 6.847v18.24c0 1.716-.907 7.081.74 7.956 1.375.731 1.774-.992 1.813-1.877.077-1.756.006-3.956.006-5.759v-19.84c0-2.132.745-5.99-.193-7.898-.758-1.54-6.841-.742-8.447-.742H131.9c-1.592 0-3.574.083-5.12-.014-.858-.054-1.692-.161-2.04-1.018-1.276-3.13 7.17-1.533 8.12-1.528 7.444.036 14.95 0 22.4 0 1.807 0 6.476.817 7.807-.513 1.26-1.26.513-5.467.513-7.167v-20.8c0-1.7.898-7.12-1.001-7.788-1.823-.64-1.559 1.924-1.56 2.988v25.28c0 1.538.516 3.542-.328 4.607-.828 1.046-4.637.513-6.071.513-3.307 0-6.694.138-9.92.137-2.114 0-4.19-.137-6.4-.137h-2.24c-1.17 0-4.275.701-5.567-.329-2.738-2.184 3.129-2.231 3.647-2.231h17.92c1.45 0 4.434.41 5.658-.193 1.54-.758.742-3.604.742-5.247v-14.4c0-1.35.546-4.15-.329-5.247-1.807-2.266-2.231 2.126-2.231 3.007v14.72c0 1.445.249 4.314-1.007 4.882-1.395.631-3.146.238-4.753.238h-10.56c-1.38 0-4.646.491-4.052-1.874.387-1.542 3.188-1.006 4.372-1.006h8.96c1.112 0 2.777.312 3.738-.329.899-.6.74-1.923.742-2.871.006-2.88 0-5.76 0-9.28-.055-2.32-2.099-4.011-2.513-1.581-.486 2.855.998 8.243-.24 10.76-.506 1.027-3.076.741-3.967.741h-2.24c-.97 0-2.843.352-3.51-.513-.853-1.108.296-1.94 1.276-2.028 2.204-.2 5.95.963 6.068-2.26.026-.707.07-1.283-.187-1.872-.328-.749-1.166-1.16-1.856-.672-.593.42-1.814 3.629-2.878 1.483-.645-1.3-.193-3.578-.193-5.018 0-3.942.366-8.284-.091-12.16-.164-1.383-.843-4.377.1-5.567.544-.687 1.766-.511 2.55-.513 2.451-.005 4.91 0 7.36 0h23.68c2.51 0 7.194-.504 9.233.102 1.97.585 1.32 3.849 1.328 5.338.015 3.235.072 8.059-.004 11.2-.047 1.895.39 4.31-.509 6.352-1.27 2.891-3.364-3.59-4.734-.81-.284.576-.199 1.175-.191 1.818.009.73-.08 1.456.511 2.047 1.18 1.18 3.852.376 5.561.532.963.087 2.323 1.098 1.093 2.266-.677.644-1.619.602-2.687.59-1.931-.024-3.85.231-6.032-.417-1.004-.298-.986-1.097-1.006-2.138-.05-2.654.047-5.65-.003-8.32-.02-1.015-.927-3.36-2.23-1.727-.627.787-.329 2.382-.329 3.327v8.32c0 1.033-.183 2.574.742 3.191 1.01.675 2.518.329 3.738.329h8.96c1.014 0 6.42-.127 4.286 2.003-.947.944-2.636.557-3.966.557h-11.52c-1.13 0-3.696.466-4.47-.513-.816-1.03-.33-3.656-.33-4.927v-13.44c0-.79-.15-6.575-2.23-3.967-.87 1.09-.33 3.913-.33 5.247 0 4.645.02 9.451 0 14.08-.006 1.39-.766 4.719.742 5.613.94.558 2.312.448 3.418.464 3.463.049 7.082.003 10.56.003 3.513 0 7.05-.002 10.56 0 .966 0 3.238-.312 3.051 1.264-.246 2.07-5.278 1.296-6.89 1.296h-17.6c-1.808 0-4.913.68-6.208-.56-1.145-1.1-.513-6.166-.513-8.08v-19.2c0-1.189.008-2.384 0-3.52-.007-1.086-.541-3.39-2.047-2.23-1.44 1.11-.513 5.15-.513 7.03v20.8c0 1.794-.785 6.509.513 7.807 1.346 1.345 5.977.513 7.807.513h22.08c1.977 0 4.483-.078 6.399.006.938.042 2.351.402 1.722 1.814-.68 1.525-4.762.74-6.52.74h-24c-1.588 0-6.63-.802-7.672.513-1.118 1.412-.329 5.725-.329 7.487v20.48c0 1.39-.793 7.638 1.002 7.85 2.439.29 1.558-6.067 1.558-7.53v-19.84c0-1.353-.665-5.515.742-6.207 1.712-.842 5.041-.193 6.938-.193h17.28c1.255 0 7.908-.414 6.07 2.052-.786 1.054-2.908.694-4.15.615-5.146-.329-11.862-.107-17.28-.107-1.79 0-3.911-.12-5.434.019-2.274.207-1.606 3.24-1.606 5.101v14.72c0 1.643-.912 4.539.513 5.88 1.925 1.813 2.047-3.366 2.047-4.6v-12.48c0-2.429-.203-4.308.32-6.08 2.987.711 11.22.32 15.36.32 1.122 0 4.78-.604 4.971 1.001.235 1.974-2.847 1.559-4.01 1.559h-10.56c-1.108 0-3.017-.346-3.419 1.007-.934 3.147-.108 8.174-.102 11.473.002 1.07-.251 2.504 1.002 2.76 1.559.318 1.55-1.313 1.558-2.44.017-2.513-.017-5.158 0-7.68.008-.95-.1-2.13 1.008-2.458 2.075-.616 5.795-.279 7.946-.083.942.086 1.944.725 1.271 1.8-.923 1.478-4.589.626-6.059.76-1.847.168-2.146 2.28-1.32 4.093.425.935 1.307 1.163 2.083.45 1.262-1.162.734-1.967 2.752-2 1.523-.026 2.682-.355 2.86 1.604.128 1.4.362 2.739-.722 3.334-.67.367-1.443.368-2.139.37-.441.002-7.093-.286-4.594 2.062 1.232 1.157 5.152.637 6.834.628.979-.005 2.295.06 2.871-.779 1.715-2.491-.153-7.934.377-11.042.168-.988 1.403-1.764 2.183-.786.633.793.33 2.368.33 3.327v8.32c-.001 1.014.198 2.266-.514 2.962-.83.813-2.45.558-3.647.558-3.732 0-7.467-.008-11.2 0-1.411.003-3.683.704-2.365 2.047.955.974 2.567.513 3.965.513h11.2c1.257 0 3.65.444 4.607-.513.998-.998.513-3.612.513-4.927v-13.12c0-.959-.358-6.323 2.047-4.47.75.579.513 2.028.513 2.87v18.24c0 1.136.357 3.097-.513 3.967-1.114 1.114-4.403.513-5.887.513h-16c-1.116 0-7.287-.647-5.745 1.82.643 1.027 2.393.74 3.505.74h22.4c1.198 0 3.373.402 4.287-.513.924-.923.513-3.068.513-4.287v-22.08c0-1.833-.422-4.269.102-6.033.303-1.02 1.58-1.182 2.13-.494 1.08 1.357.328 5.186.328 7.167v20.48c0 1.732.819 6.95-.741 7.991-1.7 1.134-5.883.329-7.899.329h-20.8c-1.572 0-8.44-.889-9.068.74-.48 1.244.782 1.719 1.71 1.801 1.96.174 4.389.019 6.398.019h22.4c1.662 0 6.355-.745 7.351.513 1.008 1.273.33 5.417.33 7.167v20.16c0 1.648.875 7.059-.741 7.972-2.016 1.14-1.82-2.521-1.82-3.492v-24.96c0-1.085.35-3.43-.329-4.287-1.141-1.441-4.5-.513-6.39-.513h-17.28c-1.52 0-4.978-.651-6.207.329-.991.79-.206 2.015.785 2.184 2.353.4 5.25.047 7.661.047h13.44c1.43 0 3.943-.653 5.26.329 1.163.868.47 3.28.59 4.471.356 3.511-.09 8.346-.09 12.16v3.52c0 1.558.424 3.593-.329 4.697-1.866 2.737-2.23-2.853-2.23-3.737v-13.76c0-1.18.503-3.985-.514-4.791-.933-.74-3.142-.329-4.287-.329h-11.2c-1.081 0-3.733-.49-4.28.74-.963 2.16 2.542 1.82 3.64 1.82h10.24c1.044 0 2.567-.273 3.327.329.784.62.513 2.172.513 3.191 0 2.61 1.05 9.599-.329 11.327-.883 1.107-2.03.117-2.183-.786-.335-1.963-.033-6.71-.048-8.941-.006-.83.136-1.717-.513-2.231-.802-.636-3.637-.329-4.927-.329-1.184 0-3.784-.376-4.47.513-.752.977.043 1.842.969 2 1.335.227 4.516-.313 5.64.24 1.108.545.922 2.29.694 3.628-.576 3.378-4.145-2.715-4.971.066-1.281 4.315-.08 11.418-.102 15.953-.008 1.622-1.04 3.764.009 5.338 1.046 1.57 4.176.742 6.071.742h32c1.212 0 4.27.55 5.111-.513.898-1.134.33-4.185.33-5.567 0-3.96.32-7.251.32-11.2 0-1.569.618-4.058-.33-5.247-.412-.516-1.219-.553-1.72-.183-.656.486-2.199 3.72-2.97.931-.254-.923-.408-2.843.412-3.492 1.268-1.004 4.028-.127 5.56-.376.879-.143 1.994-1.013 1.272-2-.723-.989-3.375-.513-4.465-.513-1.27 0-3.886-.496-4.927.329-.801.634-.513 2.29-.513 3.191 0 2.413.532 5.676-.102 7.981-.265.968-1.676 1.743-2.265.557-1.252-2.524-.193-7.939-.193-10.778 0-.958-.336-2.838.513-3.511 1.77-1.401 7.803-.329 10.047-.329 1.83 0 4.673.54 6.353-.193.867-.379 1.207-1.48.677-2.174-.756-.989-3.187-.513-4.47-.513h-11.84c-1.38 0-3.323-.39-3.738 1.007-.402 1.353-.102 3.805-.102 5.393 0 4.265.002 8.535 0 12.8 0 1.191.196 2.191-.377 3.152-.46.772-1.494 1.262-2.174.265-.67-.983-.329-3.15-.329-4.377 0-3.837-.296-9.12.054-12.8.208-2.178-.1-4.272.313-6.701.334-1.96 2.663-1.299 4.433-1.299 4.069 0 9.909-.188 13.44.229 1.641.193 6.527.26 8.319.056.784-.09 2.458-.834 1.586-2.013-.957-1.294-4.292-.447-6.065-.525-.963-.042-1.602-.219-2.56-.277-4.196-.258-10.037-.03-14.4-.03-1.785 0-5.044-.581-6.618.193-1.763.868-.742 5.593-.742 7.487 0 1.406.029 3.111-.005 4.48-.026 1.075-.21 1.769-.287 2.88-.273 4-.028 8.732-.028 12.8 0 1.608.544 3.736-.33 5.017-.498.732-1.433.687-1.901 0-.671-.984-.33-2.534-.33-3.737v-14.08c0-3.552-.083-7.92.006-11.52.035-1.455.269-2.19.31-3.52.026-.806-.126-1.937.747-2.367 1.643-.808 4.8-.193 6.618-.193h28.16c1.19 0 2.801.362 3.08-1.001.127-.623-.106-1.112-.622-1.366-.856-.422-2.355-.193-3.418-.193H213.5c-1.414 0-4.42.58-5.567-.329-1.308-1.036-.513-6.369-.513-7.991v-20.8c0-2.045-.762-5.419.595-6.847 1.156-1.217 2.167.006 2.266 1.093.137 1.508.02 3.828.02 5.434 0 1.406.028 3.111-.006 4.48-.036 1.466-.295 2.215-.314 3.84-.022 1.857-.001 4.284-.001 6.08v5.44c0 1.427-.68 6.147.742 6.847 1.638.806 4.794.193 6.618.193h16.64c1.435 0 6.248.812 6.828-.723.847-2.24-5.062-1.517-6.188-1.517-5.37 0-10.615-.32-16-.32-1.738 0-4.423.631-5.567-.513-1.04-1.04-.513-4.635-.513-6.207 0-5.01-.058-10.031.001-15.04.02-1.681.158-2.896.639-4.48 2.768.919 2.24 3.017 2.24 5.76 0 4.66-.01 9.781-.012 14.08 0 .927-.22 1.603-.022 2.541.39 1.856 2.605 1.299 4.194 1.299h10.56c1.418 0 3.443.38 4.752-.193 2.865-1.252-1.029-2.366-2.192-2.367h-10.56c-1.43 0-3.033.42-3.967-.513-.737-.737-.513-2.231-.513-3.327 0-2.786.119-5.553.012-8.32-.045-1.177-.236-2.564.73-3.19 2.113-1.37 2.138 2.947 2.138 4.47 0 1.822-.813 6.365.329 7.807.922 1.164 7.535.918 8.903.32 1.04-.455 1.178-1.915 0-2.265-1.782-.53-4.656.76-6.16-.43-.86-.683-.895-3.71 0-4.52 2.696-2.443 3.847.618 5.12 1.76.805.723 1.719.017 1.946-.787.354-1.25.446-3.117-.411-3.796-.543-.43-1.383-.324-2.047-.329-1.073-.007-6.663.384-4.79-2.047.738-.958 3.287-.513 4.47-.513 1.215 0 4.48-.283 5.11.513 1.451 1.831.285 7.567.331 10.047.02 1.017.928 3.726 2.23 1.817 1.482-2.175.329-8.456.329-11.097 0-.97.338-2.837-.513-3.511-.833-.66-2.633-.329-3.647-.329h-9.92c-.828 0-5.747-.301-3.327-2.231.945-.753 3.143-.329 4.287-.329h11.52c1.411 0 3.34-.531 3.967.742.524 1.065.193 3.746.193 5.018v14.08c0 .932.085 4.93 2.047 3.005 1.62-1.588.513-8.15.513-10.365v-11.52c0-.94.198-2.627-.513-3.191-1.322-1.047-4.11-.329-5.887-.329H218.3c-1.442 0-3.506.469-4.698-.329-.7-.468-.965-1.633-.229-2.222 1.101-.881 5.327-.346 6.847-.328 1.537.019 2.39.279 3.84.314 4.268.105 9.117.005 13.44.005 1.35 0 5.181-.61 6.07.513 1.055 1.331.33 5.187.33 6.847 0 6.282-.32 12.58-.32 18.88 0 1.705-.067 3.778.006 5.439.037.85.252 2.255 1.552 1.93 1.798-.448 1.002-5.146 1.002-6.729v-21.12c0-1.65.782-6.68-.222-7.807-1.331-1.493-5.7-.513-7.778-.513-4.434 0-9.38.103-13.76-.005-2.6-.063-4.533-.315-7.36-.315h-3.84c-.982 0-1.595.002-2.56 0-.952-.002-2.52.175-2.76-1.001-.503-2.461 6.627-1.559 8.2-1.559h2.56c4.109 0 11.8-.171 16 .013 1.212.053 1.977.272 3.2.302 2.216.055 6.149.795 7.898-.372 1.026-.685.742-3.418.742-4.743v-27.2c0-1.059.454-3.429-.74-3.96-2.47-1.1-1.82 4.249-1.82 5.56v20.48c0 1.992.413 4.736-.513 6.618-.826 1.677-4.773.742-6.527.742h-17.28c-1.676 0-4.998.718-6.206-.513-1.04-1.06.114-1.94 1.092-2.028 1.266-.115 2.84-.019 4.154-.019h16.64c1.428 0 4.862.59 5.75-.742.84-1.258.33-3.868.33-5.338v-14.08c0-1.711.772-4.439-.513-5.43-.85-.655-1.738-.023-1.946.677-.265.896-.101 2.094-.101 3.153v14.4c0 1.57.698 3.899-.742 4.607-1.038.51-3.448.193-4.698.193h-4.8c-2.412 0-5.242.017-7.68 0-.955-.007-2.009.118-2.545-.74-1.179-1.885 2.08-1.82 3.185-1.82h9.92c1.186 0 3.035.354 4.058-.329 1.025-.684.742-2.435.742-3.511v-8.32c0-1.07.31-2.204-.33-3.007-1.243-1.559-2.21.72-2.229 1.727-.047 2.481.016 5.503-.002 8-.006.82.087 1.735-.513 2.322-.67.656-1.747.553-2.687.558-1.989.01-6.429 1.043-7.148-1.001-.475-1.352 1.079-1.54 2.029-1.558 1.646-.03 4.144.52 5.246-.559.793-.775.779-2.318.412-3.555-.275-.926-1.203-1.227-1.947-.677-.594.44-.5 1.19-1.023 1.671-.601.554-1.43.577-1.91-.184-1.097-1.741-.248-3.434-.247-5.337.002-3.994.108-8.058.108-12.48 0-1.27-.495-3.886.33-4.927.546-.69 1.773-.511 2.55-.513 2.47-.005 5.239 0 7.68 0h23.36c2.34 0 7.115-.822 9.179.193 1.438.708.741 3.339.741 4.927v13.12c0 1.587.544 3.72-.329 4.981-.372.538-1.156.823-1.718.436-.567-.39-2.472-4.165-3.025-.918-.163.957-.346 2.85.465 3.492 1.857 1.47 4.426-.463 6.426.522.693.342 1.042 1.66 0 2.174-.872.43-1.917.193-2.779.193-1.49 0-4.996.63-6.207-.329-.742-.588-.512-2.03-.513-2.871 0-2.527.105-5.162-.006-7.679-.046-1.043-1.093-2.827-2.225-1.408-.627.787-.328 2.382-.328 3.327 0 2.874-.006 5.768 0 8.64.002 1.145-.25 2.199.741 2.687 2.057 1.012 6.42.38 8.539.415 1.395.022 1.956-.096 3.2-.155 1.111-.054 1.855.189 2.88.24.91.047 3.258.18 2.224 1.833-.572.916-1.935.738-2.864.74-2.56.005-5.12 0-7.68 0-2.047 0-7.706.759-9.407-.641-1.46-1.201-.513-3.026-.513-4.799v-13.76c0-.725-.243-6.411-2.232-3.965-1.013 1.247-.006 4.517-.026 5.565-.022 1.174-.266 1.896-.298 3.2-.044 1.79-.005 2.568-.005 4.16v7.36c0 1.335-.357 4.378.742 5.111 1.075.717 2.762.329 4.058.329h9.92c3.695 0 7.518-.025 11.2 0 1.062.008 2.85.131 2.348 1.559-.699 1.988-4.613 1.001-6.508 1.001h-16.96c-1.853 0-5.093.689-6.618-.329-1.286-.858-.742-6.014-.742-7.671v-20.48c0-1.329.407-3.482-.193-4.698-.425-.862-1.749-.862-2.174 0-1.011 2.052-.193 6.262-.193 8.538v18.56c0 2.194-.876 8.189 1.606 8.593 2.527.41 6.293.047 8.954.047h19.2c1.527 0 8.136-.85 8.748.74 1.027 2.663-7.06 1.82-8.428 1.82h-22.72c-2.026 0-6.578-1.105-7.487.742-1.156 2.349-.193 6.022-.193 8.218v20.48c0 1.79-.959 5.748.74 6.558 1.595.76 1.813-1.336 1.82-2.398.029-4.208 0-8.577 0-12.8v-12.8c0-1.27-.496-3.886.33-4.927.99-1.252 5.534-.513 7.03-.513h17.28c1.644 0 5.023-.633 6.206.329.738.6.257 1.71-.493 2.038-1.377.602-3.576.193-5.073.193h-16.96c-1.765 0-4.768-.881-5.567.742-.505 1.027-.193 4.145-.193 5.338v14.4c0 1.195-.566 4.316.513 5.105.726.53 1.58-.04 1.945-.672.408-.706.41-1.364.406-2.193-.023-4.43.016-9.787.016-14.72 0-1.258-.365-4.702.742-5.247 1.254-.617 3.233-.193 4.698-.193h10.56c1.201 0 3.393-.384 4.287.329.78.623.444 1.724-.229 2.174-.735.491-1.535.372-2.458.377-3.64.019-6.63-.304-10.24-.32-1.21-.005-3.613-.455-4.525.513-1.78 1.888-.595 8.818-.595 11.327 0 1.083-.28 2.575.513 3.32.99.933 2.037-.29 2.241-1.401.547-2.976-.137-6.506.145-9.593.211-2.316 7.453-2.412 9.48-1.413 1.064.525.71 1.835 0 2.31-1.956 1.307-4.552-.778-6.426.706-.8.634-.926 3.8 0 4.448.464.325 1.133.155 1.536-.216.55-.507.524-1.454 1.253-1.808 1.991-.967 4.304-.218 4.378 2.047" fill="none" stroke="#3c3533"/></svg>