<?xml version="1.0" encoding="UTF-8" standalone="no"?>
<!-- Created with Inkscape (http://www.inkscape.org/) -->

<svg
   version="1.1"
   id="svg1"
   width="292.16"
   height="117.97332"
   viewBox="0 0 292.16 117.97332"
   xmlns="http://www.w3.org/2000/svg"
   xmlns:svg="http://www.w3.org/2000/svg">
  <defs
     id="defs1" />
  <g
     id="g1"
     transform="translate(-4.1600001,-80.092738)">
    <path
       style="fill:none;stroke:#30281f"
       d="m 4.1600001,86.245141 c 2.9227997,0 8.1681369,0.688692 10.8325929,-0.101728 1.866548,-0.553711 0.14827,-1.802832 2.014814,-2.356543 1.721158,-0.510586 4.506766,0.33043 6.305186,-0.203457 1.272424,-0.377744 0.653054,-1.765205 1.520493,-2.449385 1.231533,-0.971348 4.698001,-0.328887 6.206914,-0.328887 3.306673,0 7.332088,-0.253447 10.559756,0.03013 2.134141,0.1875 1.466783,1.011172 2.567652,2.337041 1.082553,1.303809 5.34768,0.128662 6.985185,0.614561 1.231431,0.3654 0.839151,1.792227 1.748892,2.455557 0.60208,0.438993 3.19147,1.228935 1.623945,2.592099 -0.641718,0.558057 -2.284399,0.561699 -3.005185,0.526416 -2.201621,-0.107764 -1.384302,-1.398916 -2.753086,-2.466914 -1.311436,-1.023242 -4.280479,-0.06405 -6.200987,-0.376289 -1.999922,-0.325146 -0.791416,-2.190176 -2.613579,-2.730869 -2.481963,-0.736475 -9.364302,-0.705137 -11.745185,0 -1.638455,0.485254 -1.092051,2.570537 -3.247654,2.759511 -1.955003,0.171387 -4.577918,-0.673691 -5.886914,0.347647 -0.544383,0.424756 -0.407162,1.419629 -1.025679,1.902227 -1.497815,1.168671 -7.975313,-1.059551 -7.740988,1.916289 0.08907,1.131103 0.8999,1.244297 1.855309,1.286425 1.794761,0.07915 6.028296,0.137022 7.672345,-0.01259 2.034144,-0.185108 0.778009,-1.89626 2.347902,-2.668155 1.8948,-0.93164 4.565657,0.300039 6.570864,-0.294814 1.664026,-0.493633 0.636804,-2.126465 2.306172,-2.410869 2.009204,-0.342295 5.898491,-0.744873 6.925679,0.694082 0.904011,1.266406 0.926785,2.057011 2.655803,2.132343 1.774841,0.07733 3.968435,-0.566982 5.338274,0.335059 0.647363,0.426289 0.631895,1.426406 1.253086,1.902227 1.486709,1.138779 4.982983,-0.10917 6.800986,0.430615 0.884288,0.262558 1.151827,1.317578 0.812837,2.036787 -1.127046,2.391182 -5.606826,-0.310586 -7.70395,1.070371 -0.777139,0.511748 -0.629858,1.798057 -1.748887,2.129385 -1.993818,0.590351 -4.311816,-0.388311 -6.305185,0.203457 -1.27241,0.377734 -0.653059,1.765215 -1.520493,2.449385 -1.147984,0.905445 -4.793909,0.438145 -6.200743,0.310125 -1.998232,-0.18184 -0.972297,-1.991785 -2.3479,-2.668153 -1.894798,-0.93164 -4.565725,0.300176 -6.570864,-0.294814 -1.279122,-0.379551 -0.828699,-2.067676 -2.014815,-2.585186 -1.632903,-0.712441 -10.312118,-0.963965 -10.12642,1.394317 0.218146,2.770351 6.176521,0.387734 7.74074,1.621484 0.772805,0.609531 0.286505,1.881924 1.254816,2.358022 1.950381,0.95898 4.902898,-0.495385 6.865185,0.38617 0.982742,0.44151 1.137891,2.04379 2.040247,2.44939 1.976335,0.88834 8.145767,0.37257 10.512593,0.22346 2.524343,-0.15904 1.128301,-1.76417 2.981975,-2.67285 1.897173,-0.929993 4.564463,0.30083 6.570864,-0.29481 1.329527,-0.394685 0.63148,-2.035651 1.749136,-2.585183 1.336841,-0.657304 5.334683,-0.523652 4.897774,1.680996 -0.246734,1.245017 -1.77233,0.719277 -2.432095,1.518747 -0.566201,0.68609 -0.379756,1.53153 -1.069136,1.98988 -1.343267,0.8931 -4.133271,0.22871 -5.9721,0.39605 -1.816977,0.16534 -1.111738,1.99398 -2.613579,2.43951 -1.328008,0.39396 -3.636452,0.10173 -5.072593,0.10173 -3.869856,0 -8.332998,0.60139 -12.141235,-0.0474 -1.953731,-0.33284 -1.103347,-2.46507 -3.539011,-2.51111 -2.00122,-0.0378 -3.874422,0.44245 -5.338025,-0.46026 -1.215025,-0.74939 -0.326189,-2.08177 -2.040495,-2.37383 -1.026798,-0.17493 -4.044833,-0.494905 -4.340739,0.95383 -0.335948,1.64477 1.43244,1.23445 2.246418,1.88741 0.76679,0.61512 0.288407,1.88311 1.254816,2.35828 2.002912,0.9848 4.83274,-0.59697 6.836543,0.38617 1.580725,0.77555 0.416755,2.32554 2.3479,2.63951 1.30126,0.21155 3.391033,0.0474 4.793828,0.0474 3.897896,0 10.476067,-0.30473 14.075064,0.0188 2.901216,0.26077 0.918052,2.58268 3.846416,2.84248 1.387905,0.12314 4.236045,-0.22217 5.391113,0.12049 1.029473,0.3054 0.607413,1.05974 1.334815,1.94568 0.763017,0.92932 2.57707,0.51341 2.403457,2.09999 -0.19105,1.74589 -3.048394,1.4605 -4.3121,1.2452 -1.65976,-0.28279 -0.776782,-2.01817 -2.040493,-2.63951 -1.738457,-0.85478 -4.396147,0.0804 -6.279507,-0.24049 -1.699067,-0.28948 -0.825674,-2.29136 -2.306172,-2.73087 -1.674646,-0.49715 -3.97289,-0.10173 -5.712593,-0.10173 -3.678032,0 -7.877627,-0.56997 -11.501235,0.0474 -1.748684,0.29794 -0.856372,2.48855 -2.597529,2.7852 -1.804605,0.30746 -3.457981,-0.0188 -5.099754,0.0536 -2.002331,0.0883 -1.224246,1.13817 -2.434321,2.27951 -0.964187,0.90941 -2.272345,0.27651 -2.272345,1.87431 0,1.78266 4.33199,1.59119 5.152345,0.95112 0.749093,-0.58449 0.351229,-1.59529 1.254568,-2.03803 1.74164,-0.8536 4.437934,0.21987 6.279507,-0.33186 1.159821,-0.34748 1.220454,-2.45922 2.597529,-2.69382 2.554768,-0.43525 9.387253,-0.9986 11.719507,0.14568 1.148303,0.5634 0.590798,2.1871 2.040493,2.58518 1.853701,0.50903 4.207046,-0.33252 6.013828,0.20346 1.171797,0.34762 0.948482,1.86865 1.749136,2.40099 1.703306,1.13247 7.803452,-0.9752 7.803452,1.65728 0,0.92596 -0.656557,1.18345 -1.511352,1.26124 -2.062945,0.18773 -6.684619,0.48121 -8.586421,-0.083 -1.269502,-0.3766 -0.776143,-1.7883 -1.749136,-2.26519 -1.680947,-0.82386 -4.031816,0.10325 -5.9721,-0.26617 -1.353667,-0.25772 -1.461523,-2.08473 -2.639258,-2.61383 -1.499841,-0.67381 -3.07541,-0.20643 -5.046914,-0.19284 -2.818711,0.0194 -1.292959,1.38214 -3.301728,2.36667 -1.897217,0.92985 -4.564392,-0.30056 -6.570865,0.29482 -1.147414,0.34046 -0.874397,1.62837 -1.520246,2.26518 -1.933532,1.90646 -6.477699,-1.28375 -7.607901,1.25334 -0.6151351,1.38086 1.230957,1.83166 2.040987,1.95407 2.128685,0.32168 4.116063,0.25701 5.759753,-0.13432 0.205452,0.68633 0.240288,1.83093 0.648643,2.39555 2.04862,2.83259 5.502212,-1.17273 7.66864,1.31729 0.942127,1.08285 0.804861,1.96437 2.562964,2.04099 2.267964,0.0988 6.365537,0.77628 6.079753,-2.23383 2.32846,-0.69315 4.965738,0.3777 7.632593,-0.64297 0.878638,-0.33627 0.901245,-1.7451 1.520249,-2.22814 1.07731,-0.84069 3.22544,-0.32889 4.607159,-0.32889 1.280395,0 7.052436,-0.6943 5.716294,1.81975 -1.036602,1.95044 -5.789346,0.0771 -7.534566,0.93333 -1.719526,0.84366 -0.385039,2.46601 -2.663208,2.66815 -2.289429,0.20314 -5.485291,-1.00489 -6.315557,1.0247 -0.704824,1.72293 -1.48664,1.87312 -3.602964,1.87407 -2.517207,0.001 -6.649694,0.52752 -8.941235,-0.10173 -1.165711,-0.3201 -1.012661,-1.82399 -1.811604,-2.44938 -1.72989,-1.35411 -4.548067,0.23783 -6.799754,-0.43062 -1.386453,-0.41159 -0.628603,-1.74592 -1.520494,-2.44938 -0.791738,-0.62447 -5.517284,-0.81883 -5.126418,1.25851 0.306649,1.62976 1.533709,0.71099 2.432098,1.80519 0.725775,0.88397 0.279278,1.73909 1.626173,2.00469 2.847869,0.5616 3.662398,-0.81768 6.279506,0.51136 0.836579,0.42484 0.692138,2.13424 2.040493,2.36395 4.762139,0.8113 12.160877,0.81121 16.922471,0 1.988374,-0.33875 0.964109,-2.40692 3.220244,-2.50642 1.978369,-0.0873 4.617168,0.66059 5.885679,-0.5637 1.006191,-0.97111 0.259824,-2.0107 1.811606,-2.27507 1.221665,-0.20813 4.178228,-0.37457 4.220743,1.24519 0.03128,1.19168 -1.122437,1.28735 -1.898023,1.76173 -0.934897,0.57183 -0.401753,1.66255 -1.483213,2.19259 -1.674033,0.82048 -4.499189,-0.0628 -6.279507,0.24049 -1.923804,0.32775 -1.174424,2.66956 -3.539009,2.81853 -3.85363,0.24277 -9.12886,0.0141 -13.119756,0.0141 -1.587688,0 -3.955283,-0.11579 -5.433828,0.0188 -1.977683,0.17997 -0.749917,1.56494 -2.3479,2.34814 -2.091873,1.02527 -5.066055,-0.64168 -7.156543,0.38618 -0.96226,0.47312 -0.499795,1.73503 -1.254568,2.3595 -0.843139,0.69759 -2.215075,0.43568 -1.926666,1.89087 0.305474,1.54129 3.310423,1.83028 4.577777,0.98765 0.89964,-0.59815 0.43672,-2.05995 1.749135,-2.44938 1.891513,-0.56127 4.430345,0.17518 6.333829,-0.14914 0.838925,-0.14293 1.057334,-0.48241 1.270122,-1.24518 0.405674,-1.45421 1.11696,-1.62006 2.908642,-1.58272 4.673404,0.0974 10.634937,-0.75913 15.341236,0.0427 2.243901,0.38231 0.243247,1.75583 2.040493,2.63951 1.572979,0.77341 4.825689,-0.22303 6.570864,0.29482 1.257691,0.37319 0.845694,1.78751 1.747657,2.45555 0.863681,0.6397 2.014424,0.55173 1.747651,1.88939 -0.265635,1.33195 -3.26687,1.21611 -4.360493,0.8916 -1.296123,-0.3846 -0.801294,-1.80063 -1.749136,-2.26519 -1.162495,-0.56976 -3.78292,-0.13149 -5.338027,-0.19925 -2.612366,-0.11384 -1.210489,-2.16762 -3.247652,-2.7721 -2.565478,-0.76125 -6.238047,-0.10173 -8.912593,-0.10173 -1.006379,0 -2.489143,-0.26278 -3.418271,0.19308 -1.719539,0.84366 -0.385029,2.46601 -2.663211,2.66815 -1.541303,0.13676 -4.495105,-0.35751 -5.656789,0.21185 -0.826703,0.40518 -0.427854,1.39298 -1.254568,2.03803 -1.716552,1.33934 -7.712345,-1.3235 -7.712345,1.62148 0,2.46005 5.246169,1.58741 6.945184,1.58741 1.058996,0 2.145373,0.24636 3.152593,-0.19309 1.536907,-0.67056 0.292734,-1.77927 1.749136,-2.49383 1.742058,-0.8547 5.020708,0.50381 6.836543,-0.38617 2.044599,-1.00209 0.619172,-2.36074 3.621728,-2.36691 1.635848,-0.003 3.824903,-0.53116 4.927161,0.32889 0.620418,0.48408 0.354548,1.5969 1.254568,2.03802 2.004316,0.98235 4.83355,-0.59867 6.836543,0.38617 0.968301,0.4761 0.482031,1.7485 1.254815,2.35803 1.526923,1.20433 8.202046,-1.18379 7.952099,1.90024 -0.218818,2.69997 -5.970874,0.64276 -7.723457,1.50173 -0.947974,0.46462 -0.452905,1.88066 -1.749136,2.26519 -2.005205,0.59485 -4.676064,-0.63683 -6.570864,0.29481 -1.235044,0.60725 -0.381047,2.35678 -2.040493,2.63951 -1.389712,0.23677 -5.113972,0.42739 -6.279507,-0.14568 -1.529478,-0.75201 0.04602,-1.74182 -1.483457,-2.49383 -1.167876,-0.57422 -5.276355,0.0892 -6.570864,-0.29481 -1.346155,-0.39934 -0.533892,-1.66957 -1.749136,-2.26519 -1.888216,-0.92544 -5.782898,-0.20741 -7.898272,-0.19283 -0.897479,0.006 -2.21032,-0.12107 -2.439505,1.00099 -0.216518,1.06004 0.551104,1.45495 1.485678,1.54 1.578611,0.14366 4.894962,-0.68226 6.20074,0.34765 0.772787,0.60953 0.286514,1.88193 1.254816,2.35803 2.00292,0.98479 4.832739,-0.59696 6.836543,0.38617 1.93155,0.94767 0.49563,2.63264 3.301728,2.68543 1.765164,0.0332 4.367593,0.001 6.08,0.001 0.91681,0 1.595708,0.006 2.56,-2.5e-4 0.669903,-0.005 1.320552,0.048 1.872593,-0.19284 1.528267,-0.66678 0.555747,-2.15223 2.014815,-2.58518 1.699585,-0.50432 4.522778,0.32567 6.305185,-0.20346 1.184693,-0.35169 0.711963,-1.49044 1.33605,-2.26519 0.671782,-0.83396 3.795064,-0.82185 4.598272,-0.1842 1.985,1.57588 -1.169326,2.38981 -1.719507,3.06372 -0.533989,0.65406 -0.322339,1.49359 -1.069136,1.99011 -2.24041,1.48959 -5.747749,0.0616 -7.898271,0.69729 0.294858,1.10734 0.387251,1.95996 -0.978765,2.1926 -2.250813,0.3833 -5.038247,0.0474 -7.341236,0.0474 -2.850581,0 -7.186035,0.69079 -9.872839,-0.10173 -1.806143,-0.53276 -1.174041,-2.41161 -3.567407,-2.45679 -1.931514,-0.0365 -4.330443,0.63436 -5.566914,-0.55901 -0.506346,-0.48871 -0.397785,-1.5033 -1.025679,-1.99359 -1.133378,-0.885 -4.832345,-0.60822 -4.832345,0.95112 0,1.30781 1.122104,0.92049 1.952345,1.6074 0.689167,0.57019 0.323387,1.66959 1.025926,2.22371 1.447,1.14129 5.108564,0.0833 6.828149,0.37629 1.688513,0.28766 1.155056,2.5007 2.904936,2.78519 3.728779,0.60621 9.78845,0.0474 13.753828,0.0474 1.525669,0 3.683345,-0.10992 5.115064,0.0188 2.635264,0.23686 1.305859,2.64333 4.165181,2.83901 1.521396,0.10412 3.951313,-0.46434 5.338027,0.21531 1.019321,0.49959 0.518921,1.43911 1.254321,2.03951 0.68271,0.55737 2.701475,0.61461 1.955308,2.20147 -0.650781,1.38402 -3.648911,1.31349 -4.606172,0.67705 -0.85708,-0.56985 -0.403828,-1.82833 -1.483457,-2.35803 -1.672319,-0.82049 -4.501108,0.0625 -6.279507,-0.24049 -0.980464,-0.16705 -1.079702,-0.65207 -1.327407,-1.54 -0.475081,-1.70301 -2.135137,-1.2926 -3.811358,-1.2926 -4.139548,0 -10.796645,-1.04889 -14.672592,0.10173 -2.027826,0.60198 0.03149,2.06907 -2.014815,2.67654 -1.814092,0.53854 -5.097784,-0.5868 -6.890864,0.29482 -0.962257,0.47312 -0.499798,1.73504 -1.254568,2.35951 -0.830187,0.68686 -1.952345,0.29973 -1.952345,1.6074 0,1.61955 3.696454,1.87686 4.832345,0.95556 0.669974,-0.54341 0.410992,-1.62902 1.254568,-2.04247 1.897295,-0.92989 4.564399,0.30083 6.570864,-0.29482 1.390625,-0.41282 0.624187,-2.26372 2.014815,-2.67654 2.565136,-0.76149 6.238305,-0.10173 8.912592,-0.10173 1.005667,0 2.490079,-0.26329 3.418272,0.19309 1.029912,0.50639 0.454426,1.98787 1.483457,2.49383 1.874136,0.92147 4.799233,-0.23075 6.570864,0.29481 1.032647,0.30634 0.769663,1.54374 1.520249,2.12939 1.540332,1.20184 7.985694,-1.19135 7.740987,1.91628 -0.154497,1.96203 -8.865659,1.85004 -10.3921,1.09952 -1.0321,-0.50746 -0.451357,-1.98637 -1.483457,-2.49383 -1.8948,-0.93164 -4.565657,0.30004 -6.570864,-0.29482 -1.128423,-0.33474 -0.7349,-1.51661 -1.520247,-2.12938 -1.133376,-0.88432 -5.137866,-0.51497 -6.508396,-0.28149 -1.602432,0.27301 -0.814146,1.78936 -2.040493,2.44939 -0.707385,0.38072 -1.675662,0.065 -2.458272,0.0805 -1.397217,0.0277 -2.68011,-0.21908 -4.112593,0.31827 -1.403742,0.52656 -0.500889,1.73957 -1.749135,2.35136 -2.00674,0.98353 -7.758659,-1.35071 -7.512099,1.78048 0.117512,1.49236 2.520662,1.29254 3.453827,1.2926 1.312946,9e-5 2.608406,-0.51763 4.058272,0.19309 0.906274,0.44426 0.848327,2.04217 1.749135,2.44938 1.57972,0.71412 4.183277,-0.0269 6.013829,0.28493 1.432068,0.24398 0.900302,1.47267 1.811604,2.18372 0.940576,0.73388 5.674355,0.561 6.799753,0.22715 1.237188,-0.36701 0.872783,-2.01775 2.014815,-2.35654 2.506284,-0.7435 4.394057,0.63073 6.570864,-0.58444 1.389795,-0.77584 0.655791,-2.22453 2.3479,-2.37852 1.533208,-0.13953 5.986495,-0.0869 7.672349,-0.0126 0.905786,0.04 1.82666,0.15015 1.82666,1.27383 0,1.43186 -1.616855,1.45869 -2.46518,1.54543 -1.293916,0.13232 -3.616841,-0.20718 -4.752593,0.11186 -1.254766,0.35246 -0.585381,1.97683 -2.014815,2.40098 -1.8825,0.5586 -5.203159,-0.81915 -6.799753,0.43062 -1.757818,1.37598 -0.513325,2.53104 -3.39284,2.55087 -2.54936,0.0175 -7.263139,0.33176 -9.593828,-0.0472 -1.931145,-0.31396 -0.76717,-1.86396 -2.3479,-2.63951 -1.896507,-0.93048 -4.564822,0.3007 -6.570865,-0.29482 -1.202398,-0.35694 -0.723087,-1.86057 -1.520494,-2.37407 -1.102031,-0.70967 -2.943414,-0.53048 -3.919506,-0.28988 -0.709886,0.17499 -1.002009,0.70121 -0.941234,1.47308 0.122947,1.56149 1.296477,0.73447 2.16642,1.80544 0.612878,0.75451 0.348602,1.55921 1.069136,2.03828 1.130283,0.75148 4.459291,0.20998 5.972098,0.34765 1.887128,0.17173 0.954447,1.55748 2.347902,2.48395 1.610173,1.07055 5.06001,0.37728 7.258271,0.37728 2.68023,0 5.14981,-0.19262 7.68,-0.28617 0.899483,-0.0333 2.236014,0.22821 3.102964,-0.21087 1.025752,-0.5195 0.887867,-1.77385 1.786172,-2.18987 1.253506,-0.58053 4.466026,0.006 5.984693,-0.24049 2.295293,-0.37316 0.846172,-2.70816 3.527651,-2.82643 2.794966,-0.12326 8.588443,-1.04376 11.096792,0.18692 1.830479,0.89808 0.419429,2.56908 2.981973,2.68074 1.269482,0.0553 3.654561,-0.13832 4.780991,0.0536 1.270904,0.21653 0.810332,0.97864 1.626172,2.01927 0.95042,1.21229 3.753198,0.44649 5.112593,0.50592 1.228765,0.0537 1.959336,0.27232 3.2,0.30272 3.067061,0.0751 7.687217,0.76743 10.192598,-0.32568 1.160351,-0.50626 1.193945,-2.46694 2.928887,-2.54346 1.536572,-0.0678 4.332412,0.54548 5.656787,-0.33505 1.122119,-0.74607 0.374248,-1.78243 1.483217,-2.35952 0.99856,-0.51963 2.0437,-0.1191 2.0437,-1.4716 0,-1.6482 -2.629925,-1.32295 -3.743704,-1.27383 -2.312735,0.10201 -0.918838,1.5058 -2.663213,2.36075 -1.741065,0.85332 -4.394424,-0.0807 -6.279512,0.24048 -1.924854,0.32793 -0.907432,2.26678 -2.59752,2.73087 -1.930009,0.52997 -8.28374,0.19392 -10.540996,0.0956 -2.413057,-0.10515 -1.217949,-1.34328 -2.753086,-2.54494 -1.596523,-1.24971 -4.91729,0.12782 -6.799751,-0.43062 -1.473677,-0.43716 -0.731377,-1.97581 -2.014814,-2.35654 -2.249649,-0.66736 -6.678638,1.24086 -7.192095,-1.41037 -0.293482,-1.51539 1.169624,-1.55191 2.119746,-1.56987 1.64644,-0.0311 5.857178,-0.1189 7.353584,0.0173 1.774106,0.16145 1.038027,1.61305 2.3479,2.48395 1.312315,0.87252 4.580303,0.1352 6.279507,0.42468 1.747163,0.29766 0.675303,2.13772 2.59753,2.4652 1.499814,0.25551 4.900649,0.53012 6.279507,-0.14568 0.779306,-0.38196 0.640683,-1.33838 1.06913,-1.85408 1.074082,-1.29282 4.173623,-0.36324 6.071114,-0.53161 2.278183,-0.20214 0.943672,-1.82449 2.663213,-2.66814 1.653574,-0.81129 4.493877,-0.0482 6.2921,-0.21186 0.85294,-0.0776 1.51136,-0.35513 1.51136,-1.27383 0,-0.91668 -0.62577,-1.39601 -1.51136,-1.54 -1.709708,-0.27795 -5.094981,0.73637 -6.520997,-0.37628 -0.681963,-0.53211 -0.456055,-1.45779 -1.025664,-1.90223 -1.069619,-0.83457 -3.625684,-0.2594 -5.247168,-0.34173 -2.570781,-0.13053 -1.381113,-1.21812 -3.072832,-2.53827 -1.092695,-0.85269 -5.50188,-0.61218 -6.799761,-0.22716 -1.209604,0.35884 -0.909707,1.84288 -1.749136,2.40099 -1.262265,0.83924 -3.890678,0.30556 -5.656792,0.38345 -2.382719,0.10508 -0.958984,1.86773 -2.928886,2.4521 -2.701563,0.80143 -11.062403,1.29252 -9.872593,-2.77827 1.535488,0.35285 5.379179,0.79288 7.258271,-0.1884 0.96958,-0.50631 0.584121,-1.92426 1.749136,-2.26987 1.238203,-0.36731 2.677515,-0.10166 3.792593,-0.10173 0.832129,-6e-5 1.938623,0.21976 2.778271,-0.19308 1.228506,-0.60404 0.386099,-2.35764 2.040494,-2.63951 3.021313,-0.51476 8.839458,-0.81678 11.773833,0.0543 1.718164,0.51005 0.588984,2.66891 2.928886,2.7721 1.497559,0.0661 4.652149,-0.63052 5.885684,0.33506 1.424385,1.11498 0.293125,2.3432 2.434317,2.53234 1.255527,0.11092 3.121254,0.25901 3.639254,-1.01283 0.74522,-1.82968 -1.20558,-1.41092 -2.16791,-2.17704 -0.871081,-0.69349 -0.353171,-1.84909 -1.520231,-2.35828 -1.923858,-0.83937 -4.668672,0.5322 -6.57211,-0.38617 -1.629218,-0.78606 -0.702636,-2.17173 -2.665429,-2.34814 -1.331612,-0.1197 -3.370909,-0.0188 -4.795059,-0.0188 -3.410586,0 -7.18752,-0.0623 -10.559756,0.001 -2.391353,0.0452 -1.514722,1.64631 -2.981973,2.36543 -1.56039,0.76477 -5.09562,-0.23789 -6.890864,0.29481 -1.47707,0.43829 -0.791211,2.05132 -2.014814,2.58519 -1.475757,0.64387 -3.703506,0.53146 -4.233331,-0.81285 -0.637797,-1.61825 1.526084,-1.69337 2.167896,-2.20271 0.742573,-0.5893 0.353984,-1.59688 1.25457,-2.03827 1.429639,-0.7007 3.996123,-0.0645 5.656792,-0.21186 1.341597,-0.11903 1.492974,-0.60502 2.004444,-1.8553 0.378779,-0.92593 0.936284,-0.95997 1.838515,-0.99976 1.000469,-0.0441 1.559615,-0.006 2.558521,-0.006 0.826445,0 1.42352,0 2.24,0 2.062153,0 6.493057,0 8.64,0 1.930762,0 3.598877,0.51741 5.713828,-0.10172 1.377461,-0.40324 0.932901,-2.24445 2.332344,-2.59506 2.003897,-0.50206 4.322188,0.30368 6.306426,-0.28494 1.227793,-0.36423 0.96082,-1.85985 2.287401,-2.51259 0.65344,-0.32153 1.42392,-0.8369 1.06816,-1.76569 -0.6073,-1.58546 -3.629126,-0.78103 -4.908159,-1.06 -1.194922,3.88424 -3.304228,2.55938 -7.033828,2.89877 -2.055898,0.18708 -0.774561,1.89396 -2.613574,2.43951 -1.674971,0.49688 -3.972657,0.10172 -5.712598,0.10172 -3.678052,0 -7.877598,0.56994 -11.501235,-0.0474 -2.192071,-0.37345 -0.784771,-2.39901 -3.220245,-2.50642 -1.598281,-0.0705 -4.446391,0.4697 -5.656792,-0.33506 -0.766225,-0.50944 -0.527954,-1.644 -1.25457,-2.22247 -0.879619,-0.70028 -2.43604,-0.20097 -2.300986,-1.91605 0.132382,-1.68118 3.812846,-1.79021 4.860742,-0.96371 0.772783,0.60954 0.286514,1.88194 1.254814,2.35803 1.939541,0.95363 4.857251,-0.30861 6.890865,0.29482 1.53833,0.45646 0.768813,2.25438 2.306172,2.67654 1.790122,0.49156 8.504721,0.26352 10.539751,0.083 2.278125,-0.20213 0.943613,-1.82461 2.663213,-2.66815 1.665654,-0.81707 3.486718,0.11197 5.018271,0.12075 1.732324,0.01 2.812012,-0.71753 2.56,-2.55383 2.382695,-0.70429 4.547256,0.27184 7.341239,-0.4958 1.03415,-0.28414 1.71623,-1.59705 0.55679,-2.37531 -1.16954,-0.78503 -8.913,-0.806 -9.945197,0 -0.85543,0.66797 -0.336377,1.56335 -1.25456,2.17382 -2.173907,1.44536 -4.13418,-0.32666 -6.57087,0.43457 -1.187871,0.3711 -0.635,1.48303 -1.520244,2.17383 -0.980244,0.76494 -5.171181,0.50816 -6.508642,0.28149 -1.726944,-0.2927 -1.08542,-2.28027 -2.624688,-2.73087 -1.995625,-0.5842 -4.312861,0.38794 -6.306421,-0.20346 -1.144395,-0.33949 -0.836426,-1.59582 -1.520249,-2.12938 -1.906406,-1.48748 -6.561577,1.31997 -7.607896,-1.33482 -0.968803,-2.45811 5.815533,-1.69559 7.141973,-1.92148 1.418408,-0.24155 1.28645,-1.03708 0.978765,-2.19259 1.967685,-0.58162 5.310156,0.49234 7.632593,-0.55753 1.40455,-0.63493 0.937646,-2.54848 2.928886,-2.6363 1.774429,-0.0783 2.950406,-0.15503 4.792349,0.0126 2.007373,0.18268 1.421123,2.65556 3.527656,2.84247 1.74667,0.15498 3.85875,-0.33409 5.391114,0.12049 1.108301,0.32878 0.667724,1.73517 1.749131,2.26519 1.206806,0.59148 8.94896,0.65844 9.94494,-0.13581 1.13116,-0.90204 0.1697,-2.02095 -0.78543,-2.1837 -2.075145,-0.35358 -4.022372,0.86234 -6.279764,-0.24049 -1.02249,-0.49953 -0.617149,-1.97237 -1.774561,-2.49383 -1.972969,-0.88889 -4.905469,0.57432 -6.865185,-0.38617 -1.231807,-0.60373 -0.531993,-1.90412 -1.749131,-2.26519 -2.668804,-0.79171 -6.399517,-0.27689 -8.912598,-0.38839 -1.643853,-0.0729 -1.966255,0.26986 -3.52,-0.0333 -1.180518,3.82938 -3.428677,2.57069 -7.033828,2.89876 -1.428999,0.13005 -1.553081,2.08102 -2.613579,2.52741 -1.359615,0.57231 -4.657774,0.49431 -4.657774,-1.26617 0,-1.16668 0.98044,-1.06862 1.779253,-1.46691 1.116411,-0.55665 0.600049,-1.64505 1.51877,-2.3642 1.589697,-1.24437 4.923032,0.12652 6.799751,-0.43062 1.390058,-0.41266 0.622817,-2.27101 2.014814,-2.6763 1.20521,-0.3509 2.069961,0.10444 3.152593,0.13507 0.738535,0.0209 1.207109,-0.12954 1.92,-0.1284 0.819692,0.001 1.456157,0.16475 2.24,0.19877 2.154624,0.0935 6.805322,-0.0267 8.959756,0.0141 0.976269,0.0185 1.730986,-0.0376 2.157275,1.00445 0.511465,1.25028 0.662862,1.73627 2.004453,1.8553 1.541299,0.13676 4.495098,-0.35751 5.656788,0.21185 0.947968,0.46462 0.4529,1.88066 1.749131,2.26519 1.348076,0.39991 4.657786,0.57369 4.657786,-1.17827 0,-0.32976 -3.396165,-3.94065 -3.792591,-4.05827 -2.066045,-0.61306 -3.25667,0.24914 -5.706426,-0.14914 -1.749863,-0.28449 -1.216436,-2.49752 -2.904932,-2.78519 -5.902148,-1.00552 -14.251494,1.58525 -20.093833,-0.14913 -1.329546,-0.3947 -0.631445,-2.03573 -1.749136,-2.58519 -1.931718,-0.94963 -4.487046,0.33534 -6.570864,-0.29457 -1.512051,-0.45707 -0.799971,-1.92198 -2.3,-2.45851 -0.900254,-0.32201 -1.693535,-0.73061 -1.466909,-1.87407 0.207339,-1.04616 1.163823,-0.98644 2.119746,-1.00445 1.073384,-0.0202 2.231577,-0.2795 3.006914,0.32741 0.986226,0.77199 0.576768,2.25296 2.119014,2.5037 2.120781,0.3448 4.326108,-0.71126 5.972348,0.3763 1.152505,0.76138 0.84022,2.25864 2.347652,2.5037 1.188437,0.1932 2.890395,0.0474 4.153828,0.0474 3.383613,0 8.675898,0.32539 11.838516,-0.0348 1.935527,-0.22044 1.367265,-2.2802 2.928886,-2.74346 1.783614,-0.52911 4.86544,0.54372 6.57087,-0.29481 1.046972,-0.51478 0.413711,-1.68354 1.254817,-2.35827 0.97759,-0.78423 2.59232,-0.19393 2.24642,-1.88741 -0.26785,-1.31137 -3.870192,-1.65272 -5.126677,-0.67234 -0.683818,0.53356 -0.37584,1.78989 -1.520234,2.12938 -1.993428,0.59135 -4.311895,-0.38829 -6.305196,0.20345 -1.32955,0.3947 -0.631474,2.03565 -1.74913,2.58519 -2.510176,1.23422 -8.304151,0.31008 -11.096793,0.18691 -2.44478,-0.10782 -1.056899,-1.45832 -2.434565,-2.54493 -1.210215,-0.95454 -5.183584,0.0207 -6.82815,-0.43062 -1.600937,-0.43932 -1.003374,-1.9708 -2.306171,-2.35655 -1.123599,-0.33268 -4.082437,0.0125 -5.391114,-0.13654 -0.874458,-0.0996 -1.82666,-0.38578 -1.82666,-1.56049 0,-1.06555 0.949673,-1.23985 1.82666,-1.27852 2.184439,-0.0963 6.560386,-0.78278 8.536792,0.18691 1.719532,0.84366 0.385039,2.46601 2.663208,2.66815 1.541304,0.13676 4.495108,-0.35751 5.656792,0.21185 0.947964,0.46461 0.452911,1.88065 1.749136,2.26519 1.297935,0.38504 5.707027,0.62545 6.799761,-0.22717 1.441084,-1.12442 0.283213,-2.13006 2.434316,-2.22493 1.542305,-0.068 4.538008,0.40878 5.656788,-0.33507 0.785713,-0.5224 0.41456,-1.56468 1.25456,-2.22221 1.363213,-1.06709 4.872266,-0.19762 6.520997,-0.34766 0.94433,-0.0859 1.68009,-0.5355 1.48568,-1.56864 -0.53255,-2.83011 -5.777038,-0.50509 -7.77778,-1.48568 -1.742754,-0.85416 -0.353282,-2.25887 -2.663213,-2.36074 -1.542295,-0.068 -4.538008,0.40878 -5.656787,-0.33506 -0.985069,-0.65494 -0.453389,-2.23333 -2.040489,-2.50371 -1.379775,-0.23507 -5.373618,-0.60679 -6.508398,0.28148 -1.423496,1.11427 -0.295772,2.34261 -2.434322,2.53235 -1.541303,0.13676 -4.495107,-0.35751 -5.656792,0.21185 -0.88458,0.43355 -0.430297,1.65766 -1.483457,2.17383 -1.981855,0.97134 -6.340386,0.28378 -8.536792,0.18691 -0.860664,-0.038 -1.82666,-0.23623 -1.82666,-1.27383 0,-1.25292 1.120366,-1.25914 2.145425,-1.27852 1.849482,-0.035 4.207295,0.58579 5.658027,-0.37876 0.966148,-0.64236 0.42522,-2.00824 1.749136,-2.40099 1.323555,-0.39263 5.780415,0.37318 6.799507,-0.43061 1.574951,-1.24222 0.111733,-2.56452 3.073086,-2.54963 1.745342,0.009 2.718745,0.32949 4.48,0.31703 1.335986,-0.01 1.982002,-0.23168 3.2,-0.28518 0.918594,-0.0403 2.501807,-0.0693 3.192598,0.79481 0.390283,0.48819 0.308564,1.30813 0.840234,1.72297 1.143994,0.89261 4.300694,0.55931 5.566924,0.59604 2.45543,0.0712 1.327617,1.19403 2.981719,2.28396 1.264824,0.83343 5.090694,0.6342 4.869394,-1.22989 -0.17448,-1.46978 -2.189,-1.07379 -2.730869,-2.58863 -0.409023,-1.14345 -0.919775,-1.24225 -1.921484,-1.28642 -1.182451,-0.0522 -3.599278,0.14039 -4.792344,-0.0536 -1.247734,-0.20285 -1.696055,-2.45862 -2.613574,-2.73087 -4.043028,-1.19969 -11.341143,-0.13327 -15.952598,-0.10149 -0.914971,0.006 -1.696016,-0.13325 -2.232593,0.51259 -0.578774,0.69664 -0.377471,1.78703 -1.626172,1.99977 -1.930307,0.32885 -4.129653,-0.41022 -6.013828,0.14913 -1.271802,0.37756 -0.653809,1.7658 -1.520493,2.44938 -0.839727,0.66233 -2.471255,0.38592 -3.325435,0.31013 -0.879951,-0.0781 -1.628823,-0.35893 -1.800981,-1.27384 -0.300606,-1.59755 1.41792,-1.25837 2.24666,-1.91604 0.822231,-0.65251 0.428144,-1.63323 1.25457,-2.03827 1.16169,-0.56937 4.115489,-0.0751 5.656792,-0.21185 2.400328,-0.21298 1.032588,-2.44114 3.220245,-2.81384 4.624057,-0.78777 10.006201,-0.0474 14.701235,-0.0474 1.620762,0 3.84585,0.35724 5.392598,-0.10173 1.062881,-0.31539 0.890986,-1.66972 1.520234,-2.17383 1.923721,-1.54111 4.884043,0.68546 7.06544,-0.6874 0.704394,-0.44331 0.598242,-1.38952 1.069131,-1.96445 0.585776,-0.71522 2.771126,-0.67617 2.432106,-2.38667 -0.30653,-1.546639 -4.024733,-1.539598 -5.126677,-0.67703 -1.298271,1.01625 -0.303769,2.20859 -2.119004,2.50371 -2.080156,0.33818 -5.181084,-0.89431 -6.386426,0.56023 -1.233613,1.48867 -0.795947,2.34834 -3.207402,2.36494 -1.179453,0.008 -3.745908,0.0421 -4.8,-0.0267 -0.942202,-0.0615 -1.526909,-0.23327 -2.56,-0.27851 -2.402524,-0.10522 -5.630806,0.54313 -7.981235,-0.11408 -1.980225,-0.5537 -0.875225,-2.25507 -2.904937,-2.43976 -1.512832,-0.13766 -4.841802,0.40386 -5.9721,-0.34765 -0.786284,-0.52277 -0.418432,-1.5568 -1.25457,-2.22247 -0.783735,-0.62394 -2.272339,-0.18676 -2.272339,-1.609867 0,-1.818897 3.702207,-2.145586 4.83333,-1.269883 0.810801,0.627715 0.490987,1.883184 1.544937,2.35803 2.036391,0.91746 4.843808,-0.605588 6.865185,0.38617 0.868814,0.42627 0.630127,1.55812 1.254571,2.17383 1.030171,1.01574 3.195185,0.51308 4.607158,0.51308 1.96062,0 5.663926,0.35886 7.34124,-0.10173 1.491758,-0.40963 0.674492,-1.91499 2.040489,-2.58518 1.792724,-0.879571 5.07792,0.24299 6.890869,-0.29482 1.243799,-0.36897 0.642099,-1.444214 1.520234,-2.12938 1.47875,-1.153799 8.346587,1.072354 7.686677,-2.206416 -0.18092,-0.898965 -0.90925,-0.956973 -1.80099,-0.996299 -2.188704,-0.09652 -6.559574,-0.782314 -8.53679,0.186914 -1.853702,0.908682 -0.457608,2.513809 -2.981973,2.672842 -1.419277,0.08941 -4.021113,-0.438281 -5.338027,0.207158 -1.288877,0.6317 -0.421377,2.043671 -2.040494,2.319511 -1.32435,0.22562 -4.762397,0.31718 -6.013828,-0.0543 -0.92269,-0.273915 -0.790586,-0.894999 -1.102964,-1.772353 -0.785981,-2.207519 -5.171772,-0.50207 -7.217036,-1.107646 -1.121348,-0.332022 -0.87478,-1.553789 -1.748887,-2.129385 -1.563891,-1.029824 -7.483701,1.015381 -7.483701,-1.916289 0,-2.621748 5.771362,-0.646563 7.483452,-1.485684 1.023472,-0.501621 0.359673,-1.623047 1.483457,-2.173828 1.731973,-0.848867 4.561465,0.182871 6.279507,-0.331855 1.33626,-0.400342 0.843994,-1.656778 1.811607,-2.412344 0.885971,-0.691816 4.646821,-0.377344 5.885678,-0.322715 2.091763,0.09225 1.767281,2.540225 3.527652,2.826426 2.069551,0.336465 4.238857,-0.609004 5.9721,0.240488 0.848252,0.415742 0.670888,1.945323 1.74913,2.265186 2.212588,0.656367 6.289776,0.291963 8.586427,0.08297 0.92272,-0.08397 1.70216,-0.480166 1.48568,-1.54001 -0.45771,-2.240938 -5.627614,-0.307901 -7.459021,-1.194317 -0.973564,-0.471211 -0.656357,-1.725566 -1.544931,-2.358027 -1.556084,-1.107578 -4.7246,0.06701 -6.536797,-0.430615 -1.444834,-0.396794 -0.899219,-2.02529 -2.040488,-2.585232 -2.507725,-1.230371 -8.64296,-0.37792 -11.4121,-0.125928 -2.394346,0.217881 -0.992901,2.40461 -3.212344,2.76544 -2.156201,0.350557 -4.300059,-0.57915 -5.9721,0.240488 -1.132094,0.554951 -0.830229,2.185635 -2.040493,2.548145 -2.124995,0.636494 -3.829897,-0.191426 -4.461235,-2.421231 0.738481,-0.221064 2.039121,-0.195049 2.551357,-0.833086 0.540132,-0.672783 0.173755,-1.732978 1.070371,-2.173828 1.8948,-0.93164 4.565664,0.30003 6.570865,-0.294814 1.144419,-0.339492 0.836421,-1.59583 1.520249,-2.129385 1.030356,-0.803936 2.769956,-0.328887 4.287158,-0.328887 3.848852,0 9.098623,-0.156992 12.798516,0.0062 3.373535,0.14877 0.359697,2.311387 3.527656,2.826426 1.503232,0.244395 4.801035,-0.333467 5.9721,0.240488 0.88459,0.433545 0.430293,1.657657 1.483457,2.173828 2.500674,1.225616 8.33835,0.375596 11.09803,0.28 2.11851,-0.07339 1.7547,-2.103144 3.24764,-2.545185 2.25853,-0.668721 5.09744,0.924385 6.79977,-0.667158 1.64539,-1.538301 0.99181,-2.314375 4.03283,-2.314571 4.13897,-2.63e-4 11.36413,-0.974941 14.9926,0.101729 1.47755,0.438428 1.09029,2.678105 3.24765,2.7721 1.41668,0.06173 4.4373,-0.548497 5.56692,0.335058 0.64247,0.50252 0.38564,1.425606 1.02566,1.946914 1.01768,0.828916 2.58028,0.09893 2.24668,1.871602 -0.29179,1.550605 -2.19437,1.338379 -3.39926,1.286425 -2.52394,-0.108818 -1.16572,-1.789629 -2.98198,-2.680742 -1.62821,-0.798857 -4.22398,0.016 -5.9721,-0.167402 -2.53317,-0.265752 -0.92785,-2.464863 -3.52765,-2.579512 -2.36657,-0.104365 -8.69911,-0.536904 -10.83112,0.09556 -1.09048,0.323496 -0.8353,2.006641 -2.0148,2.356544 -1.43483,0.425644 -5.28971,-0.333214 -6.57087,0.294814 -1.09588,0.537197 -0.41721,1.321221 -1.25456,2.129385 -1.35187,1.304736 -8.28925,-0.833809 -7.68668,2.116299 0.15383,0.753125 0.70419,0.911357 1.48568,0.982471 2.07348,0.188681 6.64627,0.749951 8.5321,-0.174327 1.05317,-0.516172 0.59886,-1.740273 1.48346,-2.173828 1.16169,-0.569355 4.11548,-0.07509 5.65679,-0.211846 2.13857,-0.189746 1.01082,-1.418076 2.43431,-2.532353 1.10124,-0.862022 5.50496,-0.596153 6.81236,-0.227158 1.62568,0.458818 0.92994,2.44414 2.61357,2.730869 2.09105,0.356113 4.96761,-0.829805 6.50841,0.376289 0.48293,0.378027 0.59367,1.61208 1.02566,2.038027 1.17073,1.154336 8.21635,-0.521318 7.68668,2.071856 -0.46641,2.283535 -6.15678,0.135488 -7.68668,1.330117 -0.89289,0.697217 -0.42201,1.817129 -1.52023,2.313584 -2.35383,1.064053 -4.29449,-0.685264 -6.57087,0.430615 -0.60987,0.298965 -0.95536,1.958516 -1.48346,2.309628 -1.31607,0.87502 -4.96825,0.7235 -6.59951,0.27556 -1.15337,-0.31671 -0.86901,-1.346809 -1.62616,-2.265188 -1.20729,-1.464375 -4.29779,-0.220918 -6.38643,-0.560488 -1.92753,-0.313369 -0.76783,-1.864277 -2.3479,-2.639512 C 114.3735,94.56563 113.0401,94.885141 112,94.885141 c -1.07668,0 -2.1014,-6.8e-5 -3.2,0 -1.43705,8.8e-5 -3.32144,-0.388681 -3.45383,1.292598 -0.23468,2.98043 6.44371,0.700732 7.60643,2.100234 0.42845,0.515704 0.28982,1.472129 1.06913,1.854087 1.77319,0.86906 4.4686,0.0564 6.2921,0.42172 1.98788,0.39828 1.0198,2.07684 2.61357,2.54963 2.57843,0.7649 8.32907,0.33935 11.14643,0.083 2.01594,-0.18344 1.1583,-2.0078 2.61357,-2.43951 1.20451,-0.35731 4.71447,0.15335 6.01384,-0.20346 1.4572,-0.40014 0.77529,-1.96443 2.04049,-2.585182 1.18872,-0.583222 5.2949,-0.578701 4.89778,1.365684 -0.30213,1.479298 -1.59995,0.478516 -2.43087,1.514318 -0.7995,0.99664 0.0484,1.85419 -1.33604,2.26518 -1.70122,0.50504 -4.5215,-0.32582 -6.3052,0.20346 -1.82214,0.54069 -0.61367,2.40573 -2.61357,2.73087 -1.22577,0.19929 -3.15435,0.0474 -4.47383,0.0474 -3.42486,0 -8.61239,0.4763 -11.83383,-0.0474 -1.66676,-0.27096 -1.25002,-2.04571 -2.61357,-2.63951 -1.37801,-0.60009 -4.90276,0.12122 -6.3052,-0.29482 -1.12155,-0.3327 -0.64409,-1.07936 -1.3348,-1.96938 -0.96616,-1.244962 -4.22282,-0.74707 -5.4326,-0.16889 0.8068,2.43039 1.93901,2.56332 3.2074,4.37852 1.43838,2.05846 4.72721,0.17338 6.9852,0.84321 0.937,0.27796 1.05712,2.19808 2.30616,2.41087 4.25374,0.72469 9.83287,-0.10504 14.06124,0.0597 1.47365,0.0574 4.52894,0.1114 5.74124,0.35037 1.39994,0.27596 0.81258,1.02518 1.62616,2.00446 1.17051,1.40888 5.40144,0.14473 6.9852,0.61456 0.71355,0.21168 4.01133,3.87253 3.68814,4.59802 -0.52617,1.18117 -4.06903,1.17513 -5.04791,0.41136 -0.91382,-0.71302 -0.44952,-1.81176 -1.52023,-2.12938 -1.3241,-0.3928 -4.50723,0.21025 -6.01384,-0.20346 -1.46601,-0.40257 -0.84563,-2.24317 -2.30616,-2.67654 -2.16671,-0.64293 -4.08797,-0.10173 -6.0326,-0.10173 -0.73528,0 -1.20952,0 -1.92,0 -1.50656,0 -3.01399,0 -4.8,0 -1.80968,0 -4.36934,-0.76776 -5.4326,0.51283 -1.11383,1.3415 -0.82599,2.24966 -2.8874,2.35433 -1.78964,0.0909 -4.43153,-0.68 -5.4326,0.52567 -1.26562,1.52432 -1.14387,1.98078 -3.2074,2.68717 0.55273,2.01898 2.7002,3.45233 5.01827,1.91111 1.1196,-0.74438 0.36528,-1.80941 1.48346,-2.35803 1.19712,-0.58734 4.8774,-0.002 6.27951,-0.24049 1.41217,-0.24058 1.18008,-2.07681 2.30616,-2.41086 2.38329,-0.70701 7.21118,-0.10721 9.8726,-0.10173 0.97484,0.002 1.68972,-0.16799 2.42149,0.32888 0.70903,0.48144 0.74735,1.82312 1.78567,2.12939 1.51494,0.44685 4.85885,-0.33634 6.30544,0.29481 1.17947,0.51461 0.63814,1.66755 1.52023,2.35803 1.68252,1.31703 7.71236,-1.22777 7.71236,1.60913 0,0.62962 -0.31835,1.00984 -0.91259,1.26939 -2.03339,0.88812 -6.46741,0.89493 -8.89384,0.22864 -1.07247,-0.2945 -1.21167,-2.17855 -2.04049,-2.58519 -1.93669,-0.9502 -4.35909,0.36149 -6.57087,-0.29481 -1.49031,-0.44222 -0.771,-2.43131 -2.61357,-2.73087 -1.28865,-0.2095 -5.27955,-0.43981 -6.201,0.28148 -1.02416,0.80168 -0.31518,2.21045 -2.119,2.50372 -1.62272,0.26381 -4.66514,-0.2547 -6.02643,0.14913 -1.34977,0.40041 -0.46408,1.63232 -1.74913,2.37234 -0.59702,0.34381 -3.46834,0.37367 -4.05827,0.36593 -0.89071,-0.0117 -3.20209,-0.50851 -3.26371,1.04 -0.12131,3.04853 6.0298,0.69822 7.55088,1.88889 0.84,0.65753 0.46885,1.69982 1.25456,2.22222 1.12396,0.74729 4.1044,0.30099 5.65803,0.33037 2.43665,0.0461 1.46173,1.66873 2.98197,2.41383 1.15938,0.56823 4.95589,0.41063 6.27827,0.043 1.59595,-0.44373 0.80555,-2.15646 2.28,-2.41087 1.4361,-0.24778 4.82411,0.41766 6.3326,-0.24049 1.12689,-0.49167 0.70495,-1.98152 1.74913,-2.49383 1.75144,-0.85931 6.86688,-0.35498 8.8521,-0.17432 0.77468,0.0705 1.33254,0.22278 1.48568,0.9837 0.63931,3.17643 -6.22004,1.06207 -7.68668,2.20643 -0.87049,0.67921 -0.30776,1.57397 -1.25456,2.03802 -1.16151,0.56927 -5.28204,-0.0878 -6.57087,0.29481 -1.87374,0.55625 -0.0938,1.77131 -1.74913,2.58519 -0.77415,0.38064 -2.17343,0.19308 -3.09827,0.19308 -2.82,0 -6.17764,0.42345 -8.94124,-0.0474 -2.44596,-0.41673 -0.10639,-2.36075 -2.59752,-2.78518 -1.40639,-0.23962 -4.65912,0.25274 -6.01384,-0.14914 -1.7155,-0.50891 -0.60627,-2.34966 -2.92888,-2.4521 -1.48884,-0.0657 -3.40869,-0.51939 -3.71803,0.99507 -0.3052,1.49418 1.4669,1.26207 2.24643,1.8874 0.69885,0.56062 0.32272,1.66763 1.02617,2.22247 1.43462,1.13154 4.77552,0.0811 6.50815,0.3763 2.08107,0.35454 0.82916,2.4477 2.90493,2.78518 1.30126,0.21156 3.39103,0.0474 4.79383,0.0474 3.4771,0 7.45455,0.14308 10.87976,-0.006 2.77433,-0.12089 1.26065,-2.61975 3.84641,-2.85506 1.72902,-0.15734 3.71628,0.34599 5.41507,-0.12049 1.39037,-0.38179 0.88828,-1.72664 1.81159,-2.44938 1.04965,-0.82164 4.56572,-0.69971 5.03533,0.67703 0.49168,1.44147 -0.93158,1.51084 -1.92667,2.06099 -1.07782,0.59587 -0.67323,1.9693 -1.74889,2.45556 -1.48792,0.67262 -4.38748,0.008 -6.01384,0.28493 -1.74718,0.29766 -0.67529,2.13771 -2.59752,2.46519 -6.347,1.08131 -13.93095,-1.67957 -20.09384,0.14913 -1.95021,0.57869 -0.58614,2.55164 -2.92888,2.75951 -1.24737,0.11068 -3.97283,-0.12582 -5.09976,0.0662 -1.06118,0.18079 -0.96359,0.77956 -1.48567,1.82667 -0.89742,1.79988 -2.59827,0.15102 -2.59827,2.28592 0,1.68167 3.28078,1.41755 4.36642,1.2326 1.73805,-0.29611 0.63191,-1.59904 2.04049,-2.38223 1.32672,-0.73767 3.77378,-0.0459 5.33803,-0.14444 2.13019,-0.1342 1.55733,-1.97448 2.98197,-2.67284 1.70873,-0.83762 4.27635,-0.19309 6.29827,-0.19309 2.97846,0 6.34183,-0.001 9.28,0 0.94789,4.3e-4 1.70779,-0.17512 2.45827,0.19309 1.64268,0.80595 0.61859,2.57776 2.98198,2.68074 1.4584,0.0636 4.39842,-0.57667 5.56692,0.33507 0.68857,0.53726 0.38192,1.39159 1.02566,1.90246 0.7811,0.61987 1.76253,0.19941 2.1726,1.07013 0.45039,0.95633 0.0292,1.78677 -0.81283,2.03679 -0.89104,0.26455 -3.12809,0.34269 -4.01087,-0.0914 -1.03209,-0.50747 -0.45136,-1.98637 -1.48346,-2.49383 -1.89324,-0.93088 -4.56793,0.29936 -6.57087,-0.29482 -1.5502,-0.45987 -0.73474,-2.14315 -2.30616,-2.41086 -2.16745,-0.36926 -8.40946,-0.25118 -10.85507,-0.0286 -2.24371,0.20417 -1.65453,2.5215 -4.48617,2.54099 -1.33434,0.009 -4.1439,-0.53447 -5.24717,0.32914 -1.15304,0.90257 -0.35731,2.05004 -1.81159,2.44938 -2.06386,0.56672 -5.49575,-0.0292 -7.02124,0.42172 0.22314,0.81508 0.19711,1.63171 1.06049,2.04692 1.51595,0.72904 7.8443,0.76139 9.39778,0 0.95656,-0.46882 0.65887,-1.76968 1.48346,-2.17383 1.308,-0.64107 3.89296,-0.0554 5.65679,-0.21185 2.13856,-0.18976 1.01084,-1.41808 2.43431,-2.53234 1.13743,-0.89035 5.14536,-0.50514 6.521,-0.28149 2.16294,0.35165 1.02561,2.71608 3.52766,2.82642 1.59778,0.0705 3.83945,-0.3524 5.39111,0.1079 1.88848,0.56022 0.10484,1.78995 2.0148,2.35655 1.33904,0.39723 5.00602,-0.18228 6.3052,0.20345 1.56931,0.46595 1.37442,2.26847 0,2.67655 -1.36761,0.40605 -4.93314,-0.20357 -6.3052,0.20345 -1.26779,0.3761 -0.98168,2.07372 -2.0148,2.54075 -2.32221,1.04975 -5.66516,-0.024 -7.6326,0.55753 0.62634,2.83442 -4.52154,2.90447 -6.71383,2.48691 -1.83596,-0.3497 -0.93423,-1.92085 -2.3479,-2.61383 -1.2138,-0.59501 -4.81998,0.10597 -6.27951,-0.29481 -1.79843,-0.49385 -0.68148,-2.55717 -2.90493,-2.75951 -1.56682,-0.14258 -9.09878,-0.85133 -9.47334,0.98247 -0.58474,2.86277 6.37398,0.85169 7.68643,1.88765 1.40198,1.10665 0.0801,2.49219 2.11925,2.82371 2.04621,0.33267 5.00922,-0.80328 6.521,0.37629 0.68329,0.53315 0.52789,1.835 1.52023,2.12939 2.56793,0.76177 7.44725,0.15189 10.1926,0.10024 1.71742,-0.0323 1.95818,-0.57422 2.73432,-1.81827 1.10861,-1.77695 4.37782,-0.40159 6.53951,-0.81333 1.61043,-0.30674 0.99158,-1.57291 2.119,-2.54074 1.29999,-1.11597 4.89929,-0.46326 5.12668,0.71111 0.34073,1.75972 -1.62462,1.09075 -2.43087,2.0958 -0.65885,0.82132 -0.20698,1.74932 -1.07037,2.17383 -1.19701,0.58855 -4.81431,-0.009 -6.27951,0.24049 -1.23179,0.20985 -0.83249,0.99006 -1.62616,2.01235 -0.85679,1.1036 -2.40802,0.81796 -3.8326,0.82025 -3.04564,0.005 -6.60244,0.0834 -9.6,-0.009 -1.52891,-0.0472 -3.13391,0.11491 -4.7526,-0.40469 -1.00622,-0.323 -0.97701,-1.89466 -1.74913,-2.27309 -2.08258,-1.0207 -4.61297,0.70363 -6.83654,-0.38617 -0.80529,-0.39469 -0.59881,-1.52598 -1.25456,-2.03803 -1.03603,-0.80898 -4.90469,-1.05617 -5.09804,0.65976 -0.11204,0.99431 0.66119,1.29339 1.43827,1.57136 1.56352,0.55927 0.77831,2.15975 2.59136,2.51728 1.00431,0.19805 1.90937,0.30543 2.86124,0.30543 1.02521,0 2.28858,-0.61757 3.41827,-0.0694 1.1198,0.54338 0.41941,2.1902 1.74913,2.58494 5.87738,1.74478 14.14324,-0.86464 20.09384,0.14913 1.86064,0.317 1.07755,2.62371 3.22025,2.81383 1.95239,0.17324 4.57868,-0.67214 5.88568,0.34766 0.54246,0.42326 0.41763,1.4098 1.02566,1.90371 0.9574,0.77767 1.98616,0.23537 2.24668,1.62 0.14845,0.78893 -0.23697,1.29262 -0.88691,1.48567 -0.89306,0.26528 -3.44081,0.40281 -4.23951,-0.22715 -0.7728,-0.60954 -0.28651,-1.88193 -1.25482,-2.35803 -2.00298,-0.98483 -4.83223,0.59617 -6.83654,-0.38617 -1.59798,-0.7832 -0.37022,-2.16819 -2.3479,-2.34815 -1.24693,-0.11348 -3.13991,-0.0188 -4.47383,-0.0188 -3.47086,0 -8.18039,-0.14104 -11.51851,0.006 -2.30993,0.10188 -0.92047,1.5066 -2.66322,2.36074 -1.41715,0.69457 -3.94803,0.36093 -5.33802,0.41655 -2.29585,0.0919 -1.34528,1.21068 -2.75308,2.3279 -0.71952,0.57101 -2.01671,0.17416 -2.24668,1.33457 -0.41241,2.081 2.73117,2.49587 4.63211,1.63654 1.10153,-0.49796 0.62275,-1.89723 1.74913,-2.44938 1.25382,-0.61462 5.1752,0.11951 6.57087,-0.29482 1.78004,-0.52842 0.26377,-1.95335 1.74913,-2.55679 0.63755,-0.25902 1.48716,-0.0303 2.13827,-0.0116 1.69808,0.0488 4.00467,0.10435 5.76,0.10989 1.45127,0.005 3.51649,-0.6037 4.6358,0.26518 0.75353,0.58492 0.72135,1.87467 1.81037,2.19333 1.66813,0.48811 4.72932,-0.39197 6.30643,0.29482 1.09493,0.47681 0.97789,2.04228 2.0148,2.49383 2.13502,0.92974 5.67262,-0.99338 6.98223,0.70592 0.73734,0.95675 -0.0251,1.83903 -0.96839,1.99976 -1.91203,0.32578 -7.39187,0.72066 -9.15951,-0.14568 -0.99926,-0.48975 -0.56147,-1.72196 -1.48346,-2.17383 -1.34037,-0.65694 -4.4822,0.002 -5.9721,-0.24049 -1.80557,-0.29356 -1.04342,-1.99949 -2.3479,-2.63951 -1.48425,-0.72821 -6.21285,-0.37127 -7.89827,0.12691 0.58304,3.57094 -4.30743,2.35979 -6.71383,2.57877 -1.84135,0.16756 -0.81078,1.19159 -2.119,2.21235 -0.73448,0.57308 -2.13969,0.32882 -3.00717,0.32888 -1.09665,7e-5 -6.56063,-0.29973 -4.47087,2.36692 1.31435,1.67717 5.4564,-0.1734 7.24914,0.70617 1.58074,0.77555 0.41676,2.32554 2.3479,2.63951 1.53486,0.24953 4.76099,-0.33658 5.9768,0.24049 1.25206,0.59428 1.13291,2.32453 3.29728,2.36543 1.32815,0.0251 4.22967,0.35161 5.33802,-0.1916 1.10095,-0.53959 0.36508,-1.85461 1.74913,-2.26519 1.90996,-0.56659 4.4731,0.50453 6.3052,-0.29481 1.19306,-0.52053 0.70279,-1.98046 1.74913,-2.49383 1.89411,-0.92931 4.78347,-0.19321 6.61827,-0.19309 1.24327,8e-5 3.50507,-0.37553 3.69087,1.28469 0.15877,1.41873 -1.42317,1.55932 -2.41087,1.59037 -1.56871,0.0493 -4.05148,-0.5991 -5.24717,0.33383 -0.82217,0.6415 -0.26461,1.55284 -1.25456,2.03803 -1.24418,0.60979 -5.19192,-0.11358 -6.57087,0.29481 -1.23003,0.36429 -1.17569,2.12895 -2.30616,2.58519 -2.08847,0.84289 -8.08335,0.294 -10.54099,0.18691 -2.41309,-0.10515 -1.21794,-1.34327 -2.75308,-2.54494 -1.47057,-1.15112 -5.14644,0.0598 -6.79977,-0.43062 -1.20454,-0.35732 -0.99049,-2.05268 -2.0148,-2.35654 -0.88208,-0.26167 -1.78061,-0.14188 -2.83111,-0.0956 -0.98604,0.0435 -2.34088,0.42372 -1.72223,1.81359 0.39578,0.88917 1.5207,0.55363 2.16791,1.06888 0.92995,0.74036 0.45629,1.89408 1.52023,2.35828 1.2063,0.5263 4.67978,0.0132 6.01384,0.24048 2.43952,0.41562 0.32077,2.36507 2.90493,2.7852 2.65004,0.43083 9.59594,0.11321 12.47383,0.0427 1.26451,-0.031 3.74077,0.28162 4.92717,-0.64419 1.30816,-1.02084 0.27778,-2.0448 2.119,-2.21235 1.51281,-0.13766 4.84182,0.40383 5.9721,-0.34765 0.83597,-0.55581 0.41836,-1.83546 1.48346,-2.35803 2.52588,-1.23927 7.9653,-0.21224 10.77827,-0.19284 2.86712,0.0198 1.84881,2.2261 3.85876,2.77802 1.98827,0.54597 4.53153,-0.5619 6.27952,0.29482 0.63061,0.30907 0.82358,1.83209 1.48344,2.19803 1.33279,0.73911 4.31893,0.46577 5.65828,0.4637 0.87715,-0.001 1.48424,-0.16858 2.24,-0.2405 2.7274,-0.25955 6.92102,0.58665 9.58123,0.0281 1.95776,-0.41101 1.04942,-2.59391 3.53903,-2.64098 1.48404,-0.0281 4.4782,0.55888 5.56689,-0.51457 0.57996,-0.57186 0.38076,-1.52483 1.0257,-2.03828 0.99756,-0.79417 2.27233,-0.0617 2.27233,-1.60864 0,-1.71871 -3.72037,-1.67656 -4.92346,-1.08691 -0.88457,0.43354 -0.43029,1.65765 -1.48344,2.17383 -1.8972,0.92985 -4.56443,-0.30056 -6.57088,0.29481 -1.65509,0.49111 -0.70027,2.23557 -2.30617,2.67654 -1.67418,0.45973 -5.39951,0.10173 -7.34123,0.10173 -1.41084,0 -3.24351,0.42559 -4.37828,-0.32888 -0.8359,-0.55578 -0.58572,-2.10417 -1.74912,-2.44939 -1.94465,-0.57703 -5.01001,0.62702 -6.89087,-0.29481 -1.23179,-0.60372 -0.53199,-1.90412 -1.74913,-2.26519 -1.12231,-0.33293 -4.08341,0.0124 -5.39111,-0.13654 -0.85461,-0.0973 -1.82667,-0.3773 -1.82667,-1.5605 0,-1.31272 1.23126,-1.26592 2.14543,-1.2832 1.65186,-0.0312 6.18583,-0.20539 7.66099,0.0459 1.69122,0.28813 0.72953,1.6321 2.04048,2.50372 1.17453,0.7809 4.79781,0.12386 6.27951,0.37628 1.74717,0.29766 0.67533,2.13772 2.59754,2.4652 1.38201,0.23544 5.37063,0.60626 6.50838,-0.28148 1.30824,-1.02078 0.27768,-2.04479 2.11902,-2.21235 2.18362,-0.19871 4.51717,0.55425 6.29112,-0.48222 0.81297,-0.475 0.54816,-1.79248 1.45877,-2.22346 1.77525,-0.84024 7.16806,1.13466 7.4548,-1.48569 0.10076,-0.92085 -0.63176,-1.40582 -1.45703,-1.54 -1.57162,-0.25552 -4.58187,0.43666 -5.97234,-0.24048 -1.19799,-0.58342 -0.82856,-2.07255 -2.34766,-2.31952 -2.5568,-0.41564 -4.18879,0.54368 -6.29211,-0.5558 -0.88432,-0.46224 -0.69461,-1.95705 -1.74912,-2.26987 -0.82406,-0.24446 -1.66496,-0.10167 -2.5126,-0.10173 -0.8889,-6e-5 -3.35314,-0.40222 -4.28715,0.32889 -1.30683,1.02297 -0.31162,2.20986 -2.11902,2.50371 -1.50322,0.24438 -4.80104,-0.33348 -5.97211,0.24049 -0.8846,0.43355 -0.43029,1.65765 -1.48345,2.17383 -1.88941,0.92602 -5.80731,0.23107 -7.89802,0.1916 -0.81294,-0.0153 -2.00672,-0.0676 -2.21259,-0.99975 -0.62481,-2.8289 5.29175,-1.02183 6.96494,-1.75185 1.22352,-0.53382 0.53782,-2.14693 2.0148,-2.58519 2.00522,-0.595 4.67604,0.63685 6.57088,-0.29481 1.23504,-0.60725 0.38106,-2.35678 2.04049,-2.63952 3.02133,-0.51475 8.83944,-0.81679 11.77383,0.0543 1.59457,0.47337 0.5892,2.57528 2.61357,2.7595 1.74311,0.15864 4.37563,-0.57143 5.97211,0.21186 1.72092,0.84434 0.38221,2.46666 2.66321,2.66814 1.25545,0.11091 3.41539,0.27282 3.71802,-1.28987 0.29815,-1.53944 -0.98212,-1.22273 -2.01802,-1.76296 -1.52582,-0.79574 0.0626,-1.73525 -1.48321,-2.49531 -1.16787,-0.57422 -5.27636,0.0892 -6.57088,-0.29482 -1.39464,-0.41372 -0.58146,-1.93133 -2.0148,-2.35654 -3.36602,-0.99853 -8.55082,-0.10173 -12.1126,-0.10173 -1.41877,0 -3.46933,-0.10176 -4.79383,0.0188 -2.05589,0.18708 -0.77457,1.89396 -2.61357,2.43951 -2.00479,0.59472 -4.6766,-0.63658 -6.57087,0.29481 -1.03972,0.51121 -0.44429,1.98289 -1.48346,2.49383 -0.84028,0.41315 -3.17158,0.38641 -3.95654,0 -0.68621,-0.33781 -0.94233,-1.1036 -0.54716,-1.94543 0.38579,-0.82185 1.10461,-0.45647 1.85284,-1.06889 0.80863,-0.66186 0.43845,-1.63964 1.25432,-2.03951 1.1625,-0.56976 3.78291,-0.13149 5.33803,-0.19926 2.57223,-0.11208 1.20449,-2.16584 3.24764,-2.7721 1.53163,-0.45447 2.63668,-0.10173 4.4326,-0.10173 1.49684,0 2.18168,0 3.52,0 1.30309,0 3.1301,0 4.48,0 1.37658,0 2.27627,0 3.52,0 1.36215,0 3.4516,0.82244 4.92715,-0.32888 0.73215,-0.57128 0.38836,-1.61348 1.25457,-2.03803 1.89094,-0.92679 4.55766,0.49221 6.57088,-0.38617 1.01221,-0.44163 0.77,-1.73677 1.52025,-2.36297 0.74955,-0.6256 2.37149,-0.54785 2.21801,-1.91926 -0.19172,-1.7132 -4.35092,-1.90269 -5.28344,-0.7716 -0.96621,1.17195 -0.30878,2.05535 -1.93359,2.31951 -1.21121,0.19692 -4.27312,-0.0997 -5.41506,0.0948 -1.50066,0.25567 -0.77613,1.326 -1.81162,2.31507 -0.88043,0.84096 -3.57453,0.51544 -4.92715,0.51753 -3.6081,0.006 -8.69972,0.28812 -12.15851,-0.0188 -2.64156,-0.23438 -0.79975,-2.12772 -2.92889,-2.7595 -1.85326,-0.54991 -5.82542,0.81654 -6.9852,-0.84322 -1.11169,-1.59093 -2.78701,-2.57703 -3.2074,-4.69851 l 0.32,-0.32 c 1.73711,0.41357 2.78841,-0.42297 4.69827,0.51309 0.97299,0.47687 0.47964,1.88859 1.74913,2.26518 1.53137,0.45428 4.05492,-0.0298 5.70643,0.1205 2.37428,0.21605 1.03479,2.4598 3.21234,2.81383 1.80114,0.29281 9.19797,0.4007 10.85506,-0.0543 1.45428,-0.39934 0.65856,-1.54679 1.81162,-2.44939 1.4577,-1.14105 5.09709,-0.0815 6.82838,-0.37629 1.4184,-0.24155 1.28645,-1.03709 0.97877,-2.19259 1.65453,-0.79514 2.84651,-0.37973 4.48,-0.34865 1.1501,0.0219 2.83043,0.28615 3.64543,-0.52913 0.79199,-0.79224 0.23949,-1.93931 -0.7842,-2.2205 -1.80959,-0.49706 -4.48293,-0.10185 -6.38123,-0.10172 -1.23896,7e-5 -2.70742,-0.37441 -3.33308,0.74049 -0.42813,0.76289 -0.28143,1.45924 -1.19432,1.85753 -1.98604,0.86651 -4.30281,-0.0244 -6.32914,0.2479 -1.12043,0.15058 -0.99859,2.50382 -2.90494,2.5879 -1.36824,0.0603 -4.88426,0.45865 -5.88567,-0.32271 -0.81822,-0.63844 -0.32,-1.57997 -1.25457,-2.03803 -1.53718,-0.75341 -3.79367,-0.0897 -5.65803,-0.20716 -2.52437,-0.15903 -1.12829,-1.76416 -2.98198,-2.67284 -1.62665,-0.79739 -4.21683,0.0564 -5.95951,-0.24049 -1.46707,-0.24994 -1.24506,-1.30117 -1.61876,-2.5126 1.04112,-0.24603 2.16341,-0.3533 3.2,-0.29037 0.76538,0.0465 1.40752,0.23135 2.24,0.20741 0.70029,-0.0201 1.49818,-0.0666 2.13827,-0.41753 1.67488,-0.91835 0.4621,-2.27626 2.66322,-2.37333 1.86691,-0.0823 4.51089,0.59508 5.97654,-0.38346 0.86184,-0.57541 0.64867,-1.32895 0.42197,-2.18272 1.65922,-0.49043 6.35801,-1.03577 7.8358,0.009 1.23166,0.87068 0.76075,2.23596 2.41037,2.50371 2.18248,0.35422 4.19657,-0.62975 5.97211,0.24049 1.04684,0.51308 0.40063,1.8474 1.74912,2.26642 1.19104,0.3701 2.13,0.32183 3.1526,0.39185 1.43748,0.0984 7.69834,0.66337 6.82815,-1.84889 -0.59459,-1.71654 -2.76973,-1.00247 -3.94815,-1.00247 -0.96504,0 -3.05433,0.39089 -3.96691,-0.32889 -0.75574,-0.59608 -0.28893,-1.88311 -1.25481,-2.35802 -2.00246,-0.98458 -4.83261,0.596 -6.83656,-0.38617 -1.42119,-0.69656 -0.44404,-2.04753 -2.04049,-2.31951 -2.06006,-0.35096 -7.51863,-0.0636 -9.90123,-0.0472 -2.67847,0.0185 -1.61574,1.54034 -3.30172,2.36667 -0.90414,0.44314 -1.85891,0.19303 -2.77828,0.19309 -1.34301,8e-5 -2.38808,-0.31492 -3.7926,0.10173 -1.25676,0.37282 -1.1123,2.28183 -2.30616,2.6395 -1.91158,0.57271 -4.89977,0.43994 -4.35334,-1.73531 0.29296,-1.1662 1.50959,-0.73962 2.25927,-1.33457 0.82222,-0.6525 0.42815,-1.63323 1.25456,-2.03827 1.17106,-0.57396 4.46888,0.004 5.9721,-0.24049 1.61084,-0.26189 1.01165,-1.63689 2.119,-2.5037 1.72854,-1.35306 6.26352,-0.32889 8.76717,-0.32889 2.65987,0 7.89944,-1.10181 9.72715,0.32889 1.21953,0.95462 0.50332,2.361 2.43434,2.53234 1.54129,0.13676 4.49511,-0.35751 5.65679,0.21185 1.02709,0.5034 0.47914,2.05351 2.04049,2.31951 1.42498,0.24277 4.72903,0.39065 4.34074,-1.51136 -0.2348,-1.15023 -1.54644,-0.81386 -2.24666,-1.51407 -0.83214,-0.83217 -0.22414,-1.66851 -1.25457,-2.17408 -1.20197,-0.58973 -4.98113,-0.0193 -6.27951,-0.24049 -2.42105,-0.41246 -0.49556,-2.57207 -3.22025,-2.81383 -6.01215,-0.53346 -13.69158,1.59401 -19.47112,-0.12049 -1.66403,-0.49364 -0.63677,-2.12646 -2.30616,-2.41087 -1.89105,-0.32216 -5.6048,0.76963 -6.69384,-0.78889 -1.37524,-1.96811 -2.49473,-2.38829 -3.2074,-4.69851 1.24477,-0.36794 4.2559,-0.76705 5.24717,0.009 0.99836,0.78149 0.40866,2.22563 2.119,2.5037 2.34014,0.38046 3.83484,-0.5761 5.70643,0.24049 1.24062,0.54129 0.84551,2.50725 2.61357,2.66815 3.46813,0.31561 7.36387,0.0188 10.87383,0.0188 1.76697,0 4.05041,0.36257 5.74123,-0.10173 1.65643,-0.45485 0.76559,-1.95967 2.04049,-2.58518 1.19434,-0.58599 4.54619,-0.0821 5.97211,-0.21185 1.17541,-0.10697 1.35727,-0.57377 1.63481,-1.56865 0.18513,-0.66369 0.32322,-0.96417 0.97728,-1.19703 0.8641,-0.30764 2.63012,-1.32193 1.13211,-2.32667 -1.27758,-0.85688 -3.69246,-1.01759 -4.69061,0.18395 -0.5033,0.60585 -0.32435,1.64794 -1.33482,1.98346 -1.9974,0.66322 -4.65561,-0.68492 -6.57088,0.25679 -1.37558,0.67635 -0.34967,2.48631 -2.34789,2.66815 -3.29658,0.29999 -6.92853,0.1583 -10.23234,0.0126 -1.15887,-0.0511 -1.5634,-0.28539 -1.92149,-1.28643 -0.27162,-0.75932 -0.4634,-1.25628 -1.29877,-1.48567 -1.8981,-0.52122 -4.41659,0.36529 -6.33383,-0.20346 -1.29623,-0.38453 -0.80115,-1.80057 -1.74913,-2.26519 -1.16169,-0.56936 -4.11548,-0.0751 -5.65678,-0.21185 -1.02494,-0.0909 -2.0575,-0.56108 -1.801,-1.8553 0.19834,-1.00074 1.3038,-0.98903 2.11976,-1.00445 2.15919,-0.0408 6.27666,-0.76089 8.21802,0.1916 1.54849,0.75973 0.40426,2.32351 2.3479,2.63951 1.6953,0.27562 5.04028,-0.52936 6.20098,0.3763 0.62041,0.48408 0.35457,1.59691 1.25457,2.03802 1.37885,0.67581 4.77973,0.40119 6.27951,0.14568 1.92223,-0.32748 0.85037,-2.16753 2.59754,-2.46519 1.66828,-0.28421 4.80418,0.40656 6.33383,-0.28493 1.1015,-0.49795 0.62277,-1.89724 1.74912,-2.44939 1.39645,-0.68454 8.4792,0.87351 7.36643,-2.01283 -0.71518,-1.85504 -5.41385,-0.24289 -7.11334,-0.93433 -1.16721,-0.47487 -0.77198,-1.56477 -1.82295,-2.35703 -1.36166,-1.02647 -4.37119,-0.21286 -5.89037,-0.34765 -2.16313,-0.19193 -1.00604,-1.41431 -2.43434,-2.53236 -1.15105,-0.90101 -4.4807,-0.38466 -5.88566,-0.32271 -2.66577,0.11756 -1.14078,2.47214 -3.22026,2.82643 -1.65521,0.282 -5.32844,-0.54736 -6.5084,0.37629 -1.01733,0.79635 -0.43204,2.07056 -1.81159,2.44938 -1.41834,0.38947 -6.05031,0.18912 -7.66099,0.0877 -0.95361,-0.0601 -2.14543,-0.27104 -2.14543,-1.58124 0,-1.14611 0.94,-1.23941 1.82667,-1.27852 1.36793,-0.0603 4.28067,0.28523 5.39111,-0.19926 1.2235,-0.53381 0.53781,-2.14691 2.0148,-2.58518 1.79522,-0.5327 5.33051,0.46995 6.89088,-0.29482 1.53522,-0.75244 0.70662,-2.34877 3.30172,-2.36667 2.65024,-0.0183 6.01713,-0.0181 8.64,0 1.11961,0.008 2.00803,-0.13196 2.47703,1.00469 1.13133,2.74179 3.72166,1.614 6.7968,1.89383 1.9777,0.17997 0.7499,1.56495 2.34789,2.34815 1.39496,0.68371 5.27272,0.47089 4.89779,-1.36568 -0.2348,-1.15023 -1.54644,-0.81385 -2.24666,-1.51406 -1.17634,-1.17635 -0.37097,-2.27 -2.43433,-2.361 -1.93422,-0.0853 -2.96201,0.31065 -5.09975,-0.0536 -1.86537,-0.31781 -0.74785,-2.47006 -2.59754,-2.78519 -3.56146,-0.60679 -8.45443,-0.0474 -12.14123,-0.0474 -1.51746,0 -3.64347,-0.32223 -5.0726,0.10173 -1.76355,0.52316 -0.85212,2.61328 -3.24765,2.76419 -1.60581,0.10117 -3.96273,-0.46689 -5.33802,0.20716 -1.00939,0.49472 -0.59985,2.07409 -2.04049,2.31951 -1.0343,0.17622 -4.04973,0.4771 -4.34075,-0.95408 -0.34145,-1.67923 1.34058,-1.34942 2.24668,-2.16888 1.13187,-1.02364 0.21932,-1.95096 1.81159,-2.22223 0.84925,-0.14468 1.68867,-0.0474 2.54124,-0.0474 1.10347,0 2.4183,0.21103 3.4726,-0.10173 2.08932,-0.6198 0.42948,-2.34187 2.92889,-2.4521 4.0616,-0.17911 9.85172,-0.006 14.07851,-0.006 1.78506,0 3.85996,0.4553 5.3926,-0.23753 1.09822,-0.49645 0.62734,-1.61635 1.52025,-2.31358 1.09448,-0.85463 5.44555,0.0689 6.79975,-0.52197 0.76176,-0.33237 0.78068,-0.92341 1.09037,-1.681 0.46955,-1.14863 2.70475,-0.85996 2.35654,-2.56469 -0.29904,-1.46411 -2.73791,-1.36649 -4.31211,-0.8995 -1.21712,0.36106 -0.51732,1.66145 -1.74912,2.26519 -1.8973,0.9299 -4.56439,-0.30084 -6.57088,0.29481 -1.27234,0.37771 -0.6531,1.76525 -1.52048,2.44938 -1.12381,0.88639 -3.08354,0.32889 -4.28692,0.32889 -3.03451,0 -10.32172,0.40653 -13.11383,-0.0474 -1.93116,-0.31396 -0.76716,-1.86395 -2.3479,-2.63951 -2.00381,-0.98313 -4.83362,0.59863 -6.83654,-0.38617 -0.96638,-0.47516 -0.48804,-1.74317 -1.25481,-2.35827 -0.76495,-0.61364 -2.2721,-0.23123 -2.2721,-1.608647 0,-1.580869 1.73205,-1.30373 3.10518,-1.278515 2.92965,0.0538 1.26866,1.687939 3.30173,2.685432 1.23812,0.60746 3.64504,0.18387 5.01827,0.19333 2.7076,0.0187 1.82801,2.16638 3.85877,2.51235 2.35674,0.40151 9.6091,0.79601 11.77383,-0.14568 1.23549,-0.53746 0.80791,-2.06437 2.30617,-2.31951 1.53627,-0.26162 4.43029,0.3108 5.69383,-0.24049 1.09781,-0.478987 0.52482,-1.578821 1.52025,-2.35803 1.34008,-1.048994 8.24573,0.986426 7.68666,-1.900244 -0.38255,-1.975283 -8.7766,-1.883164 -10.33779,-1.115557 -1.11767,0.549551 -0.41959,2.190489 -1.74912,2.585186 -1.87824,0.557588 -5.21898,-0.806777 -6.79975,0.430615 -1.55062,1.213799 -0.34086,2.43983 -2.7531,2.54494 -1.26613,0.0552 -4.25561,0.43342 -5.25135,-0.32271 -0.61908,-0.470111 -0.58066,-1.701097 -1.31283,-2.22223 -0.60994,-0.434131 -1.23711,-0.322861 -2.07557,-0.328642 -0.72402,-0.005 -1.17355,-1.96e-4 -1.92,-2.45e-4 -0.9121,-5.8e-5 -1.57604,0.163311 -2.54124,-0.101728 -1.46539,-0.402393 -0.75136,-1.619463 -1.81159,-2.449385 -1.3795,-1.079844 -7.71235,0.89043 -7.71235,-1.608887 0,-1.121728 0.91944,-1.233818 1.82667,-1.273828 1.36793,-0.06032 4.28067,0.285235 5.39111,-0.199258 1.15985,-0.506045 0.51616,-1.888896 1.74913,-2.493828 1.89652,-0.930498 4.56481,0.300713 6.57087,-0.294814 1.27242,-0.377735 0.65307,-1.765215 1.52049,-2.449385 1.09303,-0.862109 4.57535,-0.453233 5.88543,-0.268399 1.98447,0.279981 1.28142,1.94919 2.6632,2.626426 1.9691,0.965088 5.30315,-0.857509 7.06543,0.521973 1.29826,1.01625 0.30381,2.208594 2.11902,2.503711 1.57631,0.25627 6.01479,0.175713 7.67235,0.02864 0.97347,-0.08638 1.82666,-0.425235 1.82666,-1.568643 0,-2.534609 -6.31613,-0.5321 -7.71233,-1.621484 -0.82671,-0.645059 -0.42787,-1.632842 -1.25457,-2.038028 -1.13754,-0.557539 -4.18257,-0.06 -5.65679,-0.2279 -2.19075,-0.249512 -1.07676,-1.874424 -2.66321,-2.6521 -1.7034,-0.835019 -8.43201,-0.235947 -10.77802,-0.191601 -2.47768,0.04684 -1.50616,1.940166 -3.24766,2.456787 -1.34156,0.397978 -5.35257,-0.30292 -6.57087,0.294814 -1.20813,0.592754 -0.61766,2.000166 -1.74913,2.493828 -0.79244,0.345743 -1.50506,0.230342 -2.51235,0.186914 -1.14531,-0.04938 -2.40634,-0.421826 -2.11976,-1.86791 0.22349,-1.127724 1.58777,-0.81166 2.24668,-1.33456 0.66091,-0.524483 0.50558,-1.671182 1.25456,-2.038272 1.33314,-0.653388 4.38641,0.01731 5.9721,-0.240488 1.98141,-0.322129 0.84488,-2.206045 2.61357,-2.730869 3.59284,-1.066094 8.98596,-0.101729 12.7526,-0.101729 1.34332,0 3.51291,-0.266289 4.7526,0.101729 1.49537,0.443926 0.44016,1.941582 1.74912,2.585185 2.59166,1.274278 4.51715,-0.751816 6.83656,0.386172 0.99586,0.488614 0.88399,2.267608 2.04049,2.585186 2.05725,0.564912 6.29311,0.101875 8.62123,0.101728 0.98522,-5.8e-5 2.03483,0.15499 2.8326,-0.193086 0.88096,-0.384365 0.67918,-1.378564 1.33482,-2.173828 1.17036,-1.41957 4.00702,-0.348701 6.0711,-0.531845 1.90588,-0.169102 1.18566,-1.058497 2.2489,-2.348155 0.70163,-0.851035 2.54141,-0.513086 3.51258,-0.513086 4.36754,0 10.50389,-1.078379 14.6852,0.101729 1.62566,0.458818 0.92994,2.44414 2.61357,2.730869 2.42565,0.413096 7.27998,-1.228106 6.70123,2.287402 0.95746,0.286612 4.51276,1.167549 2.36692,2.871114 -0.76233,0.605195 -3.38141,0.529755 -4.1852,0.1358 -2.00336,-0.981894 -0.6916,-2.361279 -3.94172,-2.366914 -1.4109,-0.0025 -3.61951,0.165147 -4.6084,-0.639756 -0.58027,-0.472304 -0.63957,-1.507363 -1.25308,-1.911357 -2.00981,-1.323467 -8.82506,-0.437021 -11.41703,-0.322715 -1.51487,0.06681 -1.43032,0.52711 -2.1084,1.842227 -0.71217,1.381272 -2.09383,1.031087 -3.65309,1.031682 -1.44529,5.57e-4 -2.99146,-0.432392 -3.96715,0.328887 -0.6838,0.533545 -0.37586,1.789893 -1.52025,2.129385 -1.0567,0.313476 -9.7876,-0.542783 -6.79926,2.468642 1.35155,1.361983 7.95311,1.05587 9.67926,0.275557 1.15391,-0.521631 0.90418,-2.468154 2.61357,-2.623711 1.51598,-0.137949 4.70397,0.41168 5.97211,-0.211846 1.71127,-0.841406 -0.19357,-2.008467 1.74913,-2.585185 1.19066,-0.353467 5.8006,-0.560713 6.79951,0.227158 0.83965,0.662256 0.22009,1.849277 1.2548,2.358027 1.97748,0.972305 4.85115,-0.586924 6.83656,0.386172 0.84973,0.416475 0.56873,1.502891 1.25457,2.038028 1.54032,1.201836 7.98569,-1.191348 7.74098,1.916289 -0.20275,2.574853 -5.90236,0.694189 -7.51211,1.485683 -1.03215,0.507491 -0.45131,1.986348 -1.48344,2.493828 -1.88103,0.924883 -4.59246,-0.292246 -6.57087,0.294815 -1.34483,0.399053 -0.81489,1.828232 -1.74913,2.44939 -1.70695,1.1349 -6.57668,0.95576 -7.39136,-0.677037 -1.16168,-2.328242 -2.4258,-1.874082 -4.66692,-1.874082 -1.23232,0 -2.14787,0.272813 -3.09828,-0.193086 -1.30916,-0.641757 -0.17892,-1.719863 -1.74912,-2.404941 -1.63137,-0.711768 -10.77883,-1.170781 -10.08471,1.592109 0.42932,1.708819 3.97955,1.00545 5.01211,1.005918 0.8752,3.91e-4 1.54182,-0.09138 2.1926,0.101729 1.44766,0.42956 0.90568,2.29197 2.30617,2.67654 1.29938,0.35681 4.80934,-0.15385 6.01383,0.20346 1.36238,0.40415 0.56912,2.11494 2.30617,2.41087 2.65731,0.4527 4.31008,0.0474 6.70123,0.0474 1.04828,0 1.60436,4.3e-4 2.56,0 0.76787,-3.4e-4 1.46711,0.10526 2.22123,-0.10173 1.3051,-0.35822 0.89284,-1.44506 1.81037,-2.23654 0.61036,-0.5265 1.34803,-0.28377 2.0484,-0.24889 1.27326,0.0634 3.91856,0.42945 5.01828,-0.30173 0.9537,-0.63409 0.51913,-2.084403 1.74913,-2.449383 0.99904,-0.296445 4.33777,-0.435293 4.33777,1.190869 0,1.164634 -0.87235,1.299654 -1.77926,1.670374 -1.28475,0.52517 -0.47285,1.65915 -1.74764,2.28394 -1.6441,0.80581 -4.58968,-0.19798 -6.25087,0.29482 -1.32467,0.39297 -1.04708,2.26227 -2.30618,2.6395 -1.31756,0.39474 -2.98257,0.13877 -4.46123,0.13877 -3.54656,0 -8.4441,0.28242 -11.83851,-0.0188 -1.98733,-0.17633 -1.4101,-2.00676 -2.92889,-2.66816 -1.50184,-0.65401 -4.73492,0.17013 -6.3052,-0.29481 -1.06888,-0.31648 -1.12306,-1.87727 -2.0148,-2.26519 -1.74482,-0.75902 -4.65777,-0.63209 -4.65777,1.08692 0,1.6353 2.03318,0.94696 2.59357,2.02148 0.35113,0.67328 0.0941,1.32802 0.70469,1.80963 0.72336,0.57053 1.89346,0.32853 2.68691,0.32889 1.31543,5.9e-4 2.6935,-0.31937 4.1126,0.10173 1.53838,0.45648 0.7751,2.44099 2.61357,2.73062 1.52559,0.24033 2.17108,-0.19174 3.51383,-0.23136 3.66928,-0.10831 9.29651,-0.12037 13.12,-0.0328 1.09885,0.0252 3.06342,-0.18978 3.83258,0.80419 0.68406,0.884 0.22666,1.63719 1.33483,1.96593 1.4024,0.41603 4.92718,-0.30527 6.30519,0.29482 1.11586,0.48592 0.77297,1.64687 1.7474,2.3642 0.81008,0.59632 1.72518,0.42468 1.72518,1.60271 0,1.63876 -3.82434,1.73761 -4.83233,0.95111 -1.59699,-1.24607 -0.34869,-2.18418 -2.7531,-2.22962 -1.55567,-0.0294 -4.12318,0.47734 -5.33803,-0.33038 -0.59674,-0.39675 -0.79553,-2.0205 -1.48344,-2.35802 -1.29636,-0.63605 -2.83148,-0.19309 -4.37828,-0.19309 -3.63508,0 -9.4015,-0.28994 -12.79383,0.0188 -2.12531,0.1934 -0.97634,2.22992 -2.90494,2.75951 -2.07549,0.56994 -4.95017,-0.78518 -6.50838,0.43062 -0.53117,0.41444 -0.45267,1.44153 -1.0257,1.91852 -0.86164,0.71724 -2.43369,0.22107 -2.30098,1.90025 0.14254,1.80346 3.94297,1.63441 4.95211,0.96346 1.24739,-0.82936 0.14764,-1.70264 1.48344,-2.35803 1.24024,-0.60851 4.84277,0.004 6.27951,-0.24049 1.41211,-0.24058 1.18012,-2.07683 2.30617,-2.41087 2.73407,-0.81106 4.48909,-0.29966 6.9926,-0.40913 1.39674,-0.0611 3.37907,-0.26241 4.7526,0.10518 1.33229,0.35655 0.63857,2.02309 1.74912,2.56914 1.87344,0.92114 4.31231,-0.19311 6.27951,0.42468 1.50479,0.47257 0.83735,1.52741 2.04026,2.31952 1.80238,1.18687 7.69506,-1.17601 7.69506,1.60888 0,0.93469 -0.92506,1.19087 -1.71803,1.26124 -1.86158,0.16519 -6.9983,0.57973 -8.5368,-0.17432 -1.21121,-0.59365 -0.37933,-1.63268 -1.48344,-2.17383 -0.66656,-0.3267 -1.36638,-0.1915 -2.13828,-0.19309 -1.55369,-0.003 -3.46287,0.41435 -4.69828,-0.19308 -1.95221,-0.95988 0.24459,-2.43225 -2.34789,-2.66816 -1.38709,-0.12622 -5.39975,-0.62165 -6.5084,0.31013 -0.53002,0.44546 -0.29111,1.2908 -0.58715,1.80963 -0.59851,1.04895 -1.94892,0.74095 -3.13828,0.74148 -1.7422,7.9e-4 -3.39097,-0.62078 -4.60715,0.32889 -0.8174,0.63829 -0.62808,1.91027 -1.52025,2.31358 -1.21768,0.55046 -3.83277,0.17497 -5.39111,0.2437 -0.90721,0.04 -1.82666,0.1521 -1.82666,1.27383 0,2.49878 6.33334,0.52945 7.71232,1.60889 1.42348,1.11428 0.29578,2.3426 2.43434,2.53235 2.07539,0.18415 5.25683,-0.94491 6.2116,0.75926 0.82078,1.46502 0.87998,2.07659 2.74691,2.13457 1.84696,0.0574 2.82739,-0.0287 4.47383,-0.2768 1.73781,-0.26186 1.0876,-1.78748 2.34789,-2.40518 1.90832,-0.93531 4.62686,0.46201 6.57088,-0.38617 1.20422,-0.52541 0.68815,-1.97327 1.74912,-2.49383 1.85627,-0.91075 6.06506,-0.28181 8.2168,-0.18692 0.87221,0.0385 1.82666,0.23727 1.82666,1.28643 0,3.21643 -5.34762,0.73367 -7.48346,1.78049 -0.94795,0.46461 -0.45289,1.88065 -1.74912,2.26518 -2.00521,0.59486 -4.67607,-0.63683 -6.57088,0.29482 -1.37558,0.67635 -0.34969,2.48631 -2.34789,2.66815 -2.73074,0.2485 -8.94976,1.03273 -11.41211,-0.17432 -1.81385,-0.88917 -0.56598,-2.46095 -3.30172,-2.39185 -1.49736,0.0378 -3.44062,0.35828 -5.01828,-0.44371 -1.03025,-0.52373 -0.54529,-1.75839 -1.48344,-2.21827 -0.85033,-0.41684 -1.71406,-0.21166 -2.77802,-0.19161 -1.02823,0.0194 -2.14543,0.0277 -2.14543,1.27852 0,1.37742 1.50713,0.995 2.27209,1.60865 0.76677,0.6151 0.28841,1.88311 1.2548,2.35827 1.74705,0.859 4.79065,-0.23344 6.57088,0.29481 1.37959,0.40937 0.90908,2.29291 2.30617,2.67654 1.15342,0.31673 2.86496,0.10173 4.14123,0.10173 3.36944,0 9.40387,0.45171 12.47383,-0.0474 2.07576,-0.33747 0.82387,-2.43064 2.90494,-2.78518 1.88332,-0.32086 4.54108,0.61426 6.27951,-0.2405 1.23506,-0.60726 0.38104,-2.35677 2.04049,-2.6395 1.09045,-0.18579 3.68141,-0.44228 4.03334,0.95852 0.42387,1.68716 -1.13039,1.53871 -1.93951,2.20148 -0.83894,0.68718 -0.47154,1.8411 -1.52,2.31506 -1.87787,0.84891 -4.59355,-0.53852 -6.57088,0.43062 -1.20931,0.59272 -0.42267,1.87169 -1.74912,2.26518 -1.4607,0.43332 -4.12344,0.10173 -5.7126,0.10173 -4.5933,0 -9.85724,-0.72337 -14.38123,0.0474 -2.24095,0.38181 -0.57422,2.60173 -2.90494,2.81383 -2.30762,0.20999 -4.19881,-0.6582 -5.97211,0.21185 -1.3276,0.65137 -0.60639,2.04939 -2.03432,2.60395 -0.77462,0.30083 -1.49257,0.3824 -1.49257,1.36296 0,1.68166 3.28074,1.41755 4.3664,1.2326 1.53975,-0.26232 0.77323,-1.37348 1.81162,-2.18371 1.18,-0.92071 4.1275,-0.27234 5.5669,-0.33506 1.97558,-0.0861 1.62269,-1.21454 2.56767,-2.36074 0.47491,-0.57603 1.18135,-0.49778 1.91284,-0.51161 3.54713,-0.0671 7.60459,-0.002 11.19974,-0.002 1.75471,0 3.51692,-0.35988 5.0726,0.10173 1.31367,0.38981 1.11576,2.59863 2.92889,2.75951 1.61019,0.14287 4.18777,-0.50815 5.65679,0.21185 1.12739,0.55255 0.46491,1.6171 1.48321,2.18 0.90164,0.4984 2.14187,0.40412 1.98937,1.75827 -0.18711,1.6613 -3.59619,1.82611 -4.86914,0.97975 -0.88814,-0.5905 -0.44408,-2.06213 -1.74912,-2.44938 -1.51394,-0.44923 -2.67666,-0.10108 -4.1126,-0.10173 -1.35633,-6.1e-4 -2.41914,0.31293 -3.01308,-0.74025 -0.81774,-1.45001 -1.02344,-1.81554 -3.06692,-1.81975 -2.8906,-0.006 -7.12259,-0.71251 -9.8726,0.10173 -1.04439,0.30924 -0.92408,1.58624 -1.74888,2.12938 -1.25947,0.82938 -3.86684,0.31899 -5.33852,0.32914 -2.82812,0.0195 -1.31945,1.16771 -3.07308,2.55086 -0.94639,0.74646 -2.65149,0.32889 -3.96692,0.32889 -1.16101,0 -3.74517,-0.4715 -3.74517,1.28 0,1.21147 1.22537,1.26113 2.14543,1.27852 2.16785,0.041 6.26064,0.76775 8.21802,-0.1916 1.54805,-0.75873 0.47006,-2.17727 2.34789,-2.34815 1.67196,-0.15215 5.07897,0.57447 6.20098,-0.53185 1.32832,-1.30974 0.41608,-2.32125 2.75311,-2.36544 1.25703,-0.0238 3.6672,-0.14382 4.78097,0.0459 1.19864,0.20421 0.89768,1.04356 1.62619,2.05408 1.17991,1.63663 4.26276,0.60402 6.38641,0.79728 1.84133,0.16756 0.8108,1.19158 2.11902,2.21234 1.42602,1.11267 4.81127,0.0983 6.52098,0.3763 0.88561,0.14398 1.51135,0.62332 1.51135,1.54 0,0.91869 -0.65838,1.19621 -1.51135,1.27383 -1.68691,0.15351 -4.44225,-0.52074 -5.99803,0.21185 -1.30406,0.61406 -0.75472,2.20949 -2.32197,2.58049 -1.22557,0.29014 -3.41973,-0.37143 -5.11234,-0.17876 -2.03242,0.23134 -1.27045,1.96936 -2.66321,2.6521 -1.39875,0.68568 -4.43828,0.31391 -5.97211,0.17432 -1.83414,-0.16691 -1.22947,-1.79998 -2.34789,-2.34815 -1.12132,-0.54958 -3.8449,-0.11309 -5.33802,-0.20716 -2.52434,-0.15903 -1.1283,-1.76415 -2.98198,-2.67284 -1.95718,-0.95942 -6.05033,-0.23259 -8.21802,-0.19161 -0.76334,0.0144 -1.9725,-0.006 -2.0284,1.00445 -0.19084,3.45116 5.34635,1.07707 7.36642,2.06716 0.88457,0.43356 0.4303,1.65766 1.48344,2.17383 1.81262,0.8884 4.70203,-0.22623 6.59951,0.29481 1.46668,0.40275 0.81209,1.66698 1.81162,2.44939 1.15985,0.9079 4.13711,0.32889 5.56715,0.32889 1.79465,0 5.23555,0.43389 6.6726,-0.19309 1.2235,-0.53382 0.53783,-2.14692 2.01481,-2.58519 2.00646,-0.59538 4.67367,0.63505 6.57087,-0.29481 1.05317,-0.51617 0.59889,-1.74028 1.48344,-2.17383 1.20309,-0.58966 4.92346,-0.63179 4.92346,1.08692 0,1.53494 -1.31649,0.84205 -2.27209,1.60864 -0.80658,0.64704 -0.33748,1.67928 -1.02617,2.22247 -1.05508,0.83218 -4.43014,0.27088 -5.88543,0.33506 -2.14186,0.0945 -1.42028,2.19976 -3.22026,2.50642 -2.80988,0.4787 -7.68701,-0.065 -10.54123,0.06 -1.73109,0.0758 -2.54218,0.31662 -4.48,0.30716 -1.1601,-0.006 -2.20451,0.14839 -2.87258,-0.77827 -1.11039,-1.54023 -0.74056,-2.08644 -2.88742,-2.10124 -1.52013,-0.0105 -3.78982,0.48765 -5.01828,-0.32913 -1.07898,-0.7174 -0.43437,-2.23008 -2.04049,-2.50371 -1.00695,-0.17155 -4.05752,-0.47053 -4.34074,0.95852 -0.34959,1.76389 1.3299,1.45448 2.24666,2.20148 0.62059,0.50568 0.60764,1.79358 1.25457,2.22371 1.29291,0.85962 4.36656,0.20154 5.97211,0.34765 2.12705,0.19356 0.81949,2.13854 2.90494,2.49383 2.70639,0.46107 6.23981,0.0474 8.94123,0.0474 0.99807,0 1.60785,0 2.56,0 2.65602,0 6.26233,-0.58973 8.5926,0.10173 0.98738,0.29299 1.30359,2.51789 2.61357,2.73087 1.83366,0.29811 4.57635,-0.44361 5.97211,0.24049 0.71873,0.35226 0.52219,1.18815 1.06914,1.85431 0.79598,0.96949 2.7575,0.7448 2.43209,2.38667 -0.29949,1.51112 -4.45404,1.5565 -5.31085,0.49285 -0.62409,-0.77474 -0.15137,-1.9135 -1.33606,-2.26519 -1.88414,-0.55933 -4.08355,0.17972 -6.01383,-0.14913 -2.23965,-0.38156 -0.88484,-2.46094 -3.53902,-2.51111 -3.83715,-0.0725 -8.26709,-0.001 -12.15975,-0.001 -1.44588,0 -3.27539,-0.34746 -4.37828,0.19308 -0.94795,0.46461 -0.45291,1.88067 -1.74912,2.26519 -2.0052,0.59485 -4.67607,-0.63683 -6.57088,0.29481 -0.89664,0.44086 -0.53023,1.50103 -1.07037,2.17383 -0.51225,0.63804 -1.81285,0.61202 -2.55135,0.83308 0.86305,3.17901 6.18885,3.60873 5.44,0 2.21326,-0.65422 5.56106,0.19323 7.6326,-0.42173 1.91361,-0.56807 0.0753,-1.76219 1.74912,-2.58518 0.7817,-0.38434 2.21928,-0.19308 3.09828,-0.19308 2.67453,0 6.34713,-0.65953 8.9126,0.10172 1.2815,0.38026 0.82861,2.06765 2.01481,2.58519 1.90392,0.83068 4.31511,-0.29242 6.30544,0.29481 1.25885,0.37141 1.09653,2.07687 2.32196,2.58519 0.92308,0.3829 2.24023,0.19308 3.16519,0.19308 1.04211,0 1.74453,-0.14286 2.86123,0.0474 0.94272,0.16064 1.95381,1.25199 0.78543,2.18372 -1.21293,0.96724 -8.07064,0.77414 -9.67925,0.2716 -1.07614,-0.33619 -0.80614,-1.61656 -1.52026,-2.17383 -0.88941,-0.69406 -2.03902,-0.32889 -3.32715,-0.32889 -1.17189,0 -2.4065,0.27205 -3.47259,-0.19308 -1.78969,-0.78085 -0.3428,-2.46151 -2.61358,-2.66815 -1.43369,-0.13047 -4.72469,-0.43718 -5.97211,0.17432 -1.49816,0.73441 -0.60892,2.52334 -2.98197,2.67284 -1.55768,0.0981 -4.48717,-0.36671 -5.65803,0.20716 -0.88459,0.43355 -0.43029,1.65765 -1.48344,2.17383 -2.10783,1.03308 -5.27961,-0.16638 -7.57828,0.51308 0.3249,1.29562 0.12721,2.25858 1.61877,2.5126 1.60026,0.27252 4.8233,-0.60896 6.21703,0.37629 1.23168,0.87068 0.76071,2.23596 2.41037,2.50371 1.63743,0.26575 4.43514,-0.51281 5.97211,0.24049 1.37811,0.67544 0.43965,2.1745 2.34789,2.34814 1.32166,0.12028 4.87227,0.36474 5.97211,-0.17431 1.10096,-0.5396 0.36506,-1.8546 1.74913,-2.26519 2.25986,-0.67039 4.66777,0.78632 6.57087,-0.47901 0.58801,-0.39095 0.69981,-1.74063 1.25457,-2.17383 0.63022,-0.49211 1.62178,-0.32735 2.36715,-0.32889 1.56192,-0.003 3.54076,-7.1e-4 5.12,0 0.9794,4.4e-4 2.51856,-0.34906 3.00075,0.7405 0.29123,0.65807 3e-5,1.39954 -0.54247,1.76222 -2.09711,1.40198 -5.55318,-0.72346 -7.38543,0.70617 -0.68378,0.53354 -0.37587,1.7899 -1.52025,2.12938 -1.79414,0.53224 -4.60961,-0.50542 -6.25111,0.29482 -1.54285,0.75214 -0.95854,2.57914 -3.30149,2.68074 -2.4881,0.10789 -8.36113,0.75178 -10.5126,-0.18691 -1.15033,-0.5019 -0.70337,-2.19606 -2.0148,-2.58519 -1.34131,-0.39801 -5.35262,0.30228 -6.57088,-0.29481 -1.07838,-0.52854 -0.49846,-1.69107 -1.48344,-2.17383 -1.09707,-0.5377 -4.97603,-0.5859 -4.57779,1.36568 0.21492,1.0532 1.08563,0.6379 1.92691,1.32863 0.82348,0.67612 0.47678,1.70675 1.25432,2.22372 1.11154,0.73904 3.48375,0.31855 5.01828,0.32913 2.75703,0.019 1.56078,1.34496 3.30172,2.50247 1.11879,0.74385 2.5218,0.37728 4.05828,0.37728 3.30356,0 6.61752,0.0104 9.92,-2.4e-4 1.2033,-0.004 2.79895,0.1668 3.7926,-0.25334 0.94209,-0.39835 0.73719,-1.39237 1.33482,-2.11358 1.13809,-1.37337 4.84,-0.10552 6.69381,-0.61457 2.15397,-0.59146 0.7742,-2.75675 3.85877,-2.77802 2.82176,-0.0195 7.93733,-0.66268 10.5126,0.10148 1.74504,0.5178 0.77397,2.66431 3.24766,2.7721 1.75072,0.0763 4.30912,-0.6471 5.56689,0.33506 0.61317,0.4788 0.70254,1.9589 1.52026,2.30914 2.26689,0.97093 6.23984,0.0192 8.59259,0.0304 1.15317,0.005 1.90518,0.20511 3.2,0.21136 1.63555,0.008 4.47346,0.32287 5.7126,-0.23729 1.11914,-0.50591 0.65592,-2.13762 2.01481,-2.54074 1.99345,-0.59137 4.31187,0.38828 6.30519,-0.20346 1.26904,-0.37672 0.65996,-1.75931 1.52049,-2.44963 0.69217,-0.55525 1.53312,-0.18548 2.03654,-0.84148 0.65209,-0.84972 0.13772,-1.70348 -0.67703,-1.94543 -0.89775,-0.2666 -2.81271,-0.27662 -3.74519,0 -1.24702,0.36993 -0.7678,1.98661 -2.01481,2.35654 -2.00002,0.59331 -4.68281,-0.63351 -6.57088,0.29482 -1.13996,0.5605 -0.39633,2.18359 -1.74912,2.58518 -3.1523,0.9358 -7.41418,0.24625 -10.83111,0.0956 -2.26698,-0.1 -1.28908,-1.64145 -2.43457,-2.54494 -0.75205,-0.5932 -2.62752,-0.32892 -3.64692,-0.32892 -1.17697,0 -3.04658,0.39597 -3.83728,-0.51284 -0.5478,-0.62962 -0.47838,-1.48355 -1.33012,-1.85407 -1.52473,-0.66328 -3.90953,-0.0491 -5.70668,-0.21186 -1.06275,-0.0962 -2.45947,-1.12238 -1.58418,-2.34814 0.45318,-0.63465 1.54274,-0.50819 2.21826,-0.51284 1.87131,-0.0129 6.62133,-0.85008 8.12715,0.32864 0.84002,0.65755 0.46885,1.69982 1.25457,2.22223 1.1185,0.74366 3.78602,0.30102 5.33803,0.33037 2.63039,0.0497 1.19393,1.84754 3.24766,2.45678 1.29796,0.38504 5.70695,0.6255 6.79974,-0.22715 0.69166,-0.53968 0.40168,-1.62 1.25457,-2.03803 1.23405,-0.60484 3.45781,-0.19053 4.69828,-0.19309 3.09907,-0.006 1.49567,-1.05454 3.39309,-2.55111 1.35637,-1.06981 4.87598,-0.19798 6.52074,-0.34766 0.97576,-0.0888 1.91899,-0.65146 1.40692,-1.80098 -0.46866,-1.05204 -2.01414,-0.72968 -3.00075,-0.74148 -1.70175,-0.0204 -3.82816,-0.0483 -5.44,-0.63877 0.51795,-4.03931 -5.93431,-1.0919 -7.80691,-2.56888 -0.70311,-0.55457 -0.32082,-1.66589 -1.02617,-2.22223 -0.98434,-0.77637 -6.30776,-0.77205 -7.29407,0 -0.84001,0.65756 -0.46886,1.69982 -1.25457,2.22223 -1.11877,0.74384 -4.11451,0.26704 -5.65679,0.33505 -2.3827,0.10508 -0.95899,1.86773 -2.92889,2.4521 -1.99432,0.59162 -6.90385,0.57784 -8.86545,0 -1.07162,-0.31567 -1.06842,-1.19317 -1.32715,-2.13827 2.4569,-0.72623 4.41323,0.10606 7.03383,-0.39308 1.74094,-0.3316 1.11176,-2.25967 2.61358,-2.70519 1.68509,-0.49989 4.61019,0.4678 6.27828,-0.29481 1.31918,-0.60311 0.41017,-2.36272 2.01431,-2.63951 2.45389,-0.42342 5.85207,-0.14201 8.3,-0.0348 0.97879,0.0428 1.87815,0.1774 2.87383,0.31357 2.01502,0.2756 0.96553,2.17602 2.90494,2.50643 1.87319,0.31912 4.54733,-0.61119 6.27951,0.24049 1.23502,0.60724 0.38106,2.35678 2.04049,2.63951 1.30971,0.22313 4.4391,0.39895 4.28643,-1.54 -0.10535,-1.33783 -1.36184,-0.94538 -2.19234,-1.62 -0.69504,-0.56458 -0.44942,-1.64489 -1.25458,-2.03952 -1.65222,-0.80979 -4.01488,0.0777 -5.9721,-0.24048 -1.74989,-0.2845 -1.21641,-2.49753 -2.90495,-2.7852 -2.19722,-0.37433 -6.76527,-0.0474 -8.94123,-0.0474 -1.89,0 -2.65359,0 -4.8,0 -1.11648,0 -3.05525,-0.38263 -3.96715,0.32889 -0.97384,0.75985 -0.21626,1.74254 -1.52025,2.12938 -1.48654,0.44099 -4.77771,-0.24999 -6.30519,0.20346 -1.83463,0.54464 -0.13125,1.78971 -1.74913,2.58519 -1.38505,0.681 -5.05802,0.52574 -4.81902,-1.68099 0.12727,-1.17502 1.46289,-0.77508 2.16789,-1.33457 0.61492,-0.48801 0.48111,-1.47755 1.0257,-1.90247 1.29311,-1.00896 3.94952,-0.17586 5.88567,-0.34766 2.40031,-0.21297 1.0326,-2.44112 3.22025,-2.81383 4.62407,-0.78777 10.00619,-0.0474 14.70123,-0.0474 1.43659,0 4.44828,0.39996 5.65828,-0.19308 0.98993,-0.48518 0.43243,-1.39654 1.25457,-2.03803 1.45278,-1.13354 4.38448,-0.056 6.20098,-0.40197 1.57088,-0.2992 1.20545,-2.2109 2.61209,-2.71136 1.09192,-0.38848 2.22531,-0.57292 1.67483,-1.96963 -0.531,-1.3473 -3.93911,-1.5514 -5.04766,-0.67704 -0.77279,0.60952 -0.28648,1.88192 -1.25481,2.35803 -2.00291,0.98479 -4.83275,-0.59697 -6.83656,0.38617 -1.58076,0.77556 -0.41674,2.32554 -2.34789,2.63951 -1.22576,0.19928 -3.15433,0.0474 -4.47383,0.0474 -3.44607,0 -8.21382,0.27445 -11.51851,-0.0188 -1.13533,-0.10073 -1.52022,-0.4469 -1.92149,-1.56863 -0.39406,-1.1016 -0.84468,-1.23894 -1.92148,-1.28643 -1.54231,-0.068 -4.53801,0.40879 -5.6568,-0.33506 -0.78627,-0.52278 -0.41842,-1.55679 -1.25457,-2.22247 -0.77965,-0.62069 -2.55096,-0.39758 -2.24666,-1.88741 0.27293,-1.33626 1.74678,-1.00957 3.07951,-1.00099 2.59325,0.0167 1.76299,1.61251 3.30172,2.36667 1.11715,0.54754 4.39604,0.0757 5.6568,0.25358 2.99867,0.42307 0.60912,2.32726 3.22025,2.77211 2.42432,0.413 9.4518,0.96931 11.71951,-0.14569 1.11768,-0.54954 0.41957,-2.19049 1.74913,-2.58518 1.75414,-0.52075 5.38384,0.44382 6.89087,-0.29482 0.94674,-0.46402 0.38409,-1.35881 1.25458,-2.03803 1.55041,-1.20972 8.00078,1.13872 7.658,-1.92419 -0.0882,-0.78859 -0.70322,-1.11473 -1.45703,-1.23728 -1.96832,-0.32003 -6.75609,-0.48866 -8.58642,0.0543 -1.26778,0.37608 -0.9817,2.07372 -2.01481,2.54074 -1.83016,0.82733 -4.8143,-0.24634 -6.62519,0.29087 -1.2212,0.36226 -0.63436,1.99541 -2.01481,2.40493 -1.29562,0.38434 -5.0918,0.54897 -6.25088,-0.0543 -1.58205,-0.82345 -0.53256,-2.35615 -2.98197,-2.40246 -1.55361,-0.0294 -4.53408,0.41691 -5.65803,-0.33038 -0.78568,-0.52239 -0.41457,-1.56467 -1.25457,-2.22222 -2.17795,-1.70486 -8.97877,1.89445 -7.48715,-3.20889 1.46258,0.34822 5.09625,0.9543 6.9926,0.12692 1.15982,-0.50604 0.51617,-1.8889 1.74912,-2.49383 1.88406,-0.92439 4.59703,0.26197 6.59828,-0.29482 1.72188,-0.47905 0.5458,-2.57351 2.58618,-2.7595 1.40664,-0.12823 5.05292,-0.59519 6.20074,0.31012 0.8674,0.68416 0.24808,2.07165 1.52049,2.44938 1.88353,0.55915 4.82339,-0.33105 6.62519,0.20346 1.86652,0.55371 0.14828,1.80283 2.01481,2.35654 1.44619,0.42902 9.81892,0.84922 9.90765,-1.17827 0.10795,-2.46682 -6.25387,-0.62617 -7.5232,-1.60889 -0.99711,-0.77195 -0.28906,-1.79221 -1.54494,-2.35802 -1.85129,-0.83407 -4.64114,0.28615 -6.59951,-0.29482 -1.83899,-0.54554 -0.55772,-2.25242 -2.61358,-2.4395 -1.83849,-0.16731 -6.70166,0.0472 -8.63383,-0.0311 -0.84224,-0.0341 -1.63349,-0.31858 -2.51259,-0.12889 -1.86995,0.40348 -0.0546,1.67498 -1.74913,2.50814 -1.16908,0.57482 -5.27478,-0.09 -6.57087,0.29482 -1.66313,0.49372 -0.30067,1.48727 -1.52049,2.44938 -0.96723,0.76289 -5.15209,0.79134 -5.15209,-1.25852 0,-1.45661 1.46959,-0.98419 2.27232,-1.62123 0.8276,-0.65678 0.42543,-1.63189 1.25457,-2.03827 1.13756,-0.55754 4.18256,-0.06 5.6568,-0.2279 3.2273,-0.36757 0.52455,-2.55314 3.52766,-2.82642 0.99736,-0.0908 2.07843,-0.0188 3.19382,-0.0188 3.77231,0 10.1843,-0.94523 13.7126,0.10172 1.66988,0.49551 0.78834,2.56958 2.92889,2.75951 1.55601,0.13807 4.48365,-0.36314 5.65679,0.21185 0.82668,0.40518 0.42788,1.39298 1.25458,2.03802 1.10714,0.86387 4.90382,0.73415 5.098,-0.9511 0.14723,-1.27773 -1.56316,-1.138 -2.218,-1.79285 -0.83217,-0.83217 -0.22413,-1.6685 -1.25458,-2.17407 -1.33476,-0.65489 -5.06292,0.15038 -6.57113,-0.29481 -1.51256,-0.44648 -0.77648,-2.2284 -2.32986,-2.67655 -6.08315,-1.75495 -13.52438,0.91636 -19.77852,-0.14913 -2.23963,-0.38156 -0.88486,-2.46093 -3.53902,-2.51111 -1.55203,-0.0293 -4.21951,0.4133 -5.33803,-0.33038 -0.78629,-0.52278 -0.41842,-1.55678 -1.25457,-2.22246 -0.94137,-0.74944 -2.73469,-0.31037 -2.25926,-2.20272 0.35215,-1.40167 3.2435,-1.22517 4.32471,-0.9042 1.32953,0.3947 0.63147,2.03566 1.74912,2.58519 1.65235,0.81244 4.49449,0.0483 6.29211,0.21185 1.89186,0.17216 1.46035,2.52899 3.21235,2.81383 3.31529,0.53899 8.63191,0.0474 12.15382,0.0474 1.47866,0 3.14369,0.25597 4.46123,-0.13877 1.25916,-0.37724 0.98147,-2.24652 2.30618,-2.6395 1.57101,-0.46605 5.11923,0.54866 6.56742,-0.43062 0.78929,-0.53374 0.47386,-1.37604 1.03554,-2.03827 0.61069,-0.72001 2.17481,-0.50388 2.17481,-1.79284 0,-1.68959 -2.63316,-1.68395 -4.33777,-1.17827 -1.08918,0.32311 -0.73264,1.76698 -1.74913,2.26518 -1.50001,0.7352 -4.95253,-0.18561 -6.57087,0.29482 -1.83461,0.54463 -0.13123,1.78969 -1.74913,2.58518 -1.56593,0.76995 -6.00777,0.19309 -7.89828,0.19309 -1.25986,0 -3.88455,0.49327 -4.92691,-0.32889 -0.86744,-0.68418 -0.24809,-2.07165 -1.52049,-2.44938 -2.00644,-0.59564 -4.67361,0.63508 -6.57088,-0.29482 -1.05318,-0.51619 -0.59887,-1.74028 -1.48344,-2.17383 -2.13584,-1.04682 -7.48345,1.43595 -7.48345,-1.78049 0,-1.04915 0.95445,-1.24795 1.82666,-1.28642 2.19545,-0.0968 6.55619,-0.78484 8.53679,0.18691 1.71956,0.84368 0.38502,2.46601 2.66321,2.66815 1.38541,0.12293 4.53664,-0.33716 5.65679,0.21185 1.01706,0.49849 0.38823,1.86147 1.74913,2.26519 1.29781,0.385 5.70707,0.62541 6.79974,-0.22716 1.4411,-1.12443 0.28324,-2.13007 2.43434,-2.22494 1.54228,-0.068 4.53803,0.40878 5.65679,-0.33506 0.78575,-0.52242 0.41456,-1.56467 1.25458,-2.22222 1.41046,-1.10409 7.71232,0.97728 7.71232,-1.60889 0,-1.16745 -0.98871,-1.23687 -1.82666,-1.27383 -1.30227,-0.0574 -3.9682,0.19407 -5.09975,-0.14494 -1.46363,-0.4385 -0.76713,-2.18294 -2.30617,-2.6395 -2.00517,-0.59485 -4.67611,0.63681 -6.57088,-0.29482 -1.23506,-0.60725 -0.38103,-2.35677 -2.04049,-2.63951 -1.37183,-0.23373 -5.38537,-0.60409 -6.50814,0.28149 -1.4892,1.17458 -0.0699,2.44066 -2.43457,2.54494 -1.53588,0.0677 -4.50434,-0.36559 -5.6568,0.19925 -0.88455,0.43354 -0.43029,1.65767 -1.48344,2.17383 -1.95738,0.95936 -6.05017,0.2326 -8.21802,0.19161 -0.81641,-0.0154 -1.91463,0.005 -2.11977,-0.99976 -0.27279,-1.33558 0.8942,-1.5126 1.801,-1.55259 1.30463,-0.0575 4.30123,0.27626 5.39111,-0.19926 1.22348,-0.53381 0.53783,-2.14692 2.01481,-2.58518 2.00646,-0.59538 4.67365,0.63505 6.57087,-0.29482 1.74276,-0.85416 0.35331,-2.25887 2.66321,-2.36074 2.64865,-0.11681 8.80789,-0.59956 11.15111,0.0956 0.96008,0.28482 0.98633,2.18602 2.30617,2.41087 1.43535,0.24453 5.04123,-0.36836 6.27951,0.24049 1.33317,0.6555 0.15393,1.48972 1.25481,2.35803 0.99096,0.78159 5.02432,0.81876 4.86074,-1.25852 -0.11531,-1.4643 -1.45678,-0.95129 -2.30097,-1.62124 -0.60389,-0.47924 -0.46051,-1.46147 -1.02571,-1.90247 -1.30908,-1.02142 -3.68353,-0.22431 -5.56689,-0.34296 -2.57907,-0.16248 -1.19323,-2.15475 -3.24766,-2.7642 -1.24168,-0.36835 -3.18988,-0.10173 -4.4326,-0.10173 -1.19861,0 -1.8831,0 -3.2,0 -1.58623,0 -4.57566,0 -6.08,0 -1.05396,0 -1.75869,-0.0827 -2.87382,0.0188 -1.93202,0.17581 -1.74354,2.78012 -4.16618,2.8563 -2.16334,0.068 -3.41642,-0.74614 -5.07259,-0.10938 -0.96374,0.37052 -0.77551,1.48283 -1.33483,2.16124 -0.79094,0.95935 -4.70135,0.93543 -4.99209,-0.48815 -0.27191,-1.33135 0.84738,-1.32369 1.7536,-1.79012 1.06382,-0.54757 0.70072,-1.94236 1.74763,-2.45556 1.6449,-0.80634 4.85414,0.21482 6.57088,-0.29482 1.98025,-0.58787 0.21877,-2.54158 2.61358,-2.75951 4.75628,-0.43281 9.92164,-0.0249 14.71382,-0.0188 1.36229,0.002 3.31846,0.41351 4.46123,0.11605 2.57948,-0.67145 0.50983,-2.6173 3.53903,-2.67456 1.49222,-0.0282 4.25916,0.38694 5.33802,-0.33037 0.7237,-0.48117 0.45151,-1.28578 1.06915,-2.03803 0.75462,-0.91911 2.76939,-0.30791 2.43209,-2.10049 -0.2959,-1.57247 -2.76461,-1.4592 -4.02075,-1.2452 -1.84779,0.3148 -0.65179,1.9177 -2.30617,2.63952 -1.79795,0.78446 -4.70603,-0.27466 -6.62519,0.29481 -1.82215,0.54069 -0.61366,2.40572 -2.61358,2.73087 -1.22578,0.19929 -3.15433,0.0474 -4.47383,0.0474 -3.40509,0 -6.83769,0.0232 -10.24,-2.5e-4 -2.6905,-0.0185 -1.93064,-1.31125 -3.6842,-2.55086 -0.70732,-0.50002 -1.64796,-0.32735 -2.3958,-0.32889 -1.74547,-0.004 -3.02142,0.47264 -4.37828,-0.19309 -1.21904,-0.5981 -0.30615,-1.54001 -1.4832,-2.35951 -0.64983,-0.45243 -1.80789,-0.2993 -2.01803,-1.328632 -0.40994,-2.008184 3.78496,-2.02707 4.80666,-1.229883 0.68582,0.535127 0.40485,1.621563 1.25457,2.038025 2.0049,0.98265 4.83055,-0.593972 6.8368,0.38617 1.02625,0.50137 0.66842,1.99546 1.77457,2.49383 2.28016,1.0273 9.6367,0.80467 12.03951,0.0914 1.39065,-0.41283 0.62416,-2.26371 2.01481,-2.67654 1.97709,-0.586934 4.8805,0.69098 6.57087,-0.25309 0.81413,-0.454674 0.56249,-1.539732 1.25458,-2.079752 1.56033,-1.217461 7.52376,1.136836 7.74097,-1.621484 0.18153,-2.305235 -8.7716,-2.191094 -10.39211,-1.394317 -1.03215,0.5075 -0.45129,1.986338 -1.48344,2.493828 -1.7238,0.847569 -4.8955,-0.202187 -6.57087,0.294815 -1.18565,0.351719 -0.65547,1.454629 -1.52026,2.129385 -1.13781,0.887795 -5.12635,0.516935 -6.50838,0.281485 -1.59047,-0.27096 -1.00705,-2.194229 -2.59754,-2.465196 -1.88336,-0.32086 -4.54109,0.614267 -6.27951,-0.240489 -1.03215,-0.5075 -0.45131,-1.986337 -1.48344,-2.493828 -1.52037,-0.747549 -7.02673,0.974883 -7.45779,-1.199004 -0.44769,-2.257773 2.38869,-1.556035 3.39951,-1.571113 1.05528,-0.01574 3.47112,0.164932 4.28715,-0.578769 0.67869,-0.618526 0.43779,-1.861358 1.52026,-2.182471 1.78035,-0.528145 4.59619,0.303886 6.30519,-0.203457 1.33623,-0.39668 0.91936,-1.415186 1.3274,-2.778272 2.00641,0.472158 4.71928,-0.5133 6.9926,0.109629 1.34219,0.367783 0.62387,2.024014 1.74912,2.577285 1.88805,0.928321 4.5709,-0.298486 6.57088,0.294815 1.18422,0.351299 0.7458,1.773437 1.74912,2.265185 1.68094,0.823858 3.70053,0.42877 5.33828,0.500489 1.90864,0.08358 5.48709,0.598632 4.99952,-1.861485 -0.42282,-2.13334 -6.43846,-0.360127 -7.68666,-1.334804 -1.21762,-0.950792 -0.25202,-2.125557 -2.11903,-2.478028 -1.58336,-0.298926 -3.07892,0.281035 -4.47357,0.22 -2.24135,-0.0981 -1.41229,-1.488037 -2.98174,-2.524199 C 272.05102,82.956424 266.68346,84.0045 264,84.005711 c -1.11355,4.98e-4 -1.95722,-0.240634 -2.68715,0.328887 -0.65804,0.513457 -0.44318,1.809873 -1.52025,2.129385 -2.00519,0.594853 -4.67609,-0.636826 -6.57088,0.294814 -0.89726,0.441172 -0.52888,1.501621 -1.07037,2.173828 -0.6718,0.833965 -3.79506,0.821866 -4.59826,0.1842 -1.98268,-1.574034 1.15365,-2.372383 1.71949,-3.063702 0.72621,-0.887246 0.3051,-1.640214 1.33483,-1.945683 1.20451,-0.357324 4.71445,0.153349 6.01382,-0.203457 1.60594,-0.440987 0.6511,-2.18543 2.30618,-2.676543 1.67484,-0.496983 3.97275,-0.101729 5.71259,-0.101729 3.67807,0 7.87758,-0.569931 11.50123,0.0474 2.08106,0.354541 0.82918,2.447725 2.90495,2.785196 1.94089,0.315547 4.63886,-0.569795 6.2921,0.240488 0.98495,0.482734 0.40508,1.645303 1.48344,2.173828 1.82563,0.894776 7.27188,0.193086 9.49828,0.193086"
       id="path1" />
  </g>
</svg>
