<svg viewBox="0 0 293.519 50.777" xmlns="http://www.w3.org/2000/svg"><path d="M.53 50.118h13.12c1.958 0 4.531.413 6.381-.139 1.095-.326 1.074-1.572 2.02-1.86 1.2-.367 1.027 1.498 1.934 1.733 1.175.304 1.52-1.193 1.464-1.974-.136-1.922-1.25-1.909-2.839-1.92-.98-.006-2.202-.224-3.026.327-.526.353-.76 1.19-1.453 1.299-1.136.178-1.055-1.873-.86-2.539.5-1.697 7.569-1.362 9.132-.905.852.249 1.233 1.946 2.204 1.442.837-.435.952-2.184.53-3.042-.8-1.628-7.687-.794-9.407-.718-1.257.055-2.209-.163-3.501.028-1.148.17-3.207 3.417-3.207-.052 0-2.29 2.088-1.92 3.828-1.92 4.176 0 8.655-.176 12.799.006 1.234.055 2.024 1.767 2.88 1.62 1.007-.174 1.082-1.765.859-2.538-.487-1.687-4.561-1.008-5.978-1.008-4.777 0-9.982-.41-14.714.019-1.319.12-1.677 1.7-2.857 1.698-.886-.003-.977-1.063-.977-1.718 0-3.273 4.767-2.239 7.028-2.239 5.716 0 11.936-.105 17.6.002 1.537.029 2.326 2.093 3.2 1.943 1.028-.176 1.04-1.78.912-2.566-.358-2.199-5.885-1.299-7.632-1.299-6.78 0-15.125-1.068-21.741.047-1.117.189-1.278 1.365-2.286 1.633-1.048.278-1.24-.934-1.24-1.68 0-3.13 6.408-1.92 8.627-1.92h16.96c2.604 0 5.77-.381 8.301.048 1.04.176 1.142 1.434 2.02 1.578 1.129.184 1.23-1.536 1.179-2.26-.198-2.766-7.753-1.606-9.9-1.606-9.049 0-18.507-.8-27.514.019-1.478.134-1.58 2.018-2.857 2.018-1.168-.001-1.071-1.888-.942-2.658.395-2.343 7.929-1.299 9.873-1.299h27.2c1.86 0 4.517-.626 5.906.507.64.522 1.565 1.903 2.221.404 1.457-3.327-2.393-3.15-4.607-3.15H29.65c-1.642 0-3.828.362-5.393-.103-1.776-.527-1.384-4.115 1.233-3.418-.044 2.745 7.21 1.6 9.28 1.6h25.92c2.37 0 7.988 1.16 7.988-2.239 0-.777-.182-1.903-1.24-1.772-1.003.125-1.114 1.519-1.995 1.898-1.235.532-3.095.193-4.433.193h-24c-1.924 0-9.17.974-9.553-1.299-.155-.926-.176-2.88 1.205-2.712 1.057.129 1.126 1.527 2.287 1.724 7.819 1.325 16.996.047 24.941.047 2.396 0 9.147 1.25 8.591-2.546-.418-2.853-2.237.025-3.197.433-.846.36-1.923.193-2.834.193h-19.2c-1.582 0-7.048.781-7.578-1.007-.23-.778-.35-2.949.858-2.95 1.165 0 1.397 1.887 2.881 2.018 5.742.51 12.123-.3 17.919-.3 2.249 0 7.523 1.002 6.991-2.542-.106-.708-.612-1.392-1.383-.956-.898.507-.977 1.292-2.094 1.504-4.427.84-10.734.073-15.354.073-1.282 0-4.911.592-5.567-.742-.36-.731-.431-2.89.767-2.894 1.051-.004 1.292 1.581 2.566 1.697 3.577.325 7.576.02 11.194.02 1.42 0 3.441.378 4.753-.194 1.005-.439 1.117-1.697.96-2.668-.093-.57-.425-1.284-1.152-1.058-.936.29-.946 1.604-2.02 1.897-2.735.748-6.712.102-9.581.102-.914 0-2.555.29-3.191-.513-.535-.675-.702-3.44.631-3.443.922-.003 1.097 1.36 1.967 1.614 2.17.634 9.354 1.03 9.208-2.132-.027-.578-.198-1.4-.936-1.402-.855-.003-1.227 1.214-1.965 1.523-2.296.963-5.918.08-5.264-2.96.558-2.588 2.447 1.042 3.07.938.894-.149.928-1.383 1.7-1.752 1.375-.656 3.839-.193 5.34-.193h26.88c2.183 0 8.018-1.025 9.727.329.748.592.845 3.004-.21 3.4-1.052.396-1.185-1.606-2.157-1.605-1.565 0-1.099 3.33-.218 3.763 1.049.516 3.613.467 4.602-.134.588-.357.907-1.392 1.695-1.39 1.14.004 1.088 1.893.768 2.63-.728 1.674-7.37 1.393-9.04.905-.87-.254-1.045-1.617-1.967-1.614-1.263.003-1.139 2.459-.767 3.214.566 1.15 2.891.742 3.967.742 2.693 0 6.369.602 8.941-.102 1.055-.288 1.097-1.686 2.02-1.843.74-.126 1.069.741 1.15 1.311.354 2.474-1.581 2.553-3.471 2.554-4.23.002-8.933.361-13.114-.019-1.405-.127-1.232-1.27-2.34-1.69-.823-.311-1.34.358-1.458 1.088-.49 2.997 2.3 2.541 4.432 2.541 5.269 0 10.753.222 16-.006 1.467-.064 2.054-1.714 3.199-1.71 1.293.003 1.121 2.481.632 3.214-.889 1.333-4.323.742-5.751.742H80.85c-1.712 0-5.648-2.115-5.978-.936-1.143 4.084 5.15 2.856 7.578 2.856 6.952 0 14.197.296 21.12-.006 1.467-.064 2.054-1.714 3.199-1.71 1.21.003 1.103 2.18.768 2.949-.815 1.87-6.654 1.007-8.447 1.007H77.33c-1.126 0-3.033.381-3.968-.329-.573-.434-.51-1.41-1.247-1.7-.844-.33-1.339.38-1.458 1.088-.706 4.198 6.073 2.861 8.913 2.861h19.52c2.838 0 6.541.459 9.27-.073 1.21-.236 1.221-1.634 2.282-1.742 1.254-.128 1.374 1.583 1.146 2.436-.41 1.535-2.147 1.299-3.418 1.3H59.41c-2.784 0-11.607-1.515-11.512 2.238.016.668.103 1.715.98 1.718.983.002 1.189-1.16 1.988-1.524 1.262-.576 3.327-.193 4.704-.193h24.32c1.873 0 8.887-.995 9.231 1.299.11.726-.04 2.428-1.15 2.247-.878-.144-.98-1.402-2.02-1.579-2.53-.428-5.697-.047-8.301-.047H60.37c-2.483 0-8.4-1.264-8.312 2.239.018.727.184 1.973 1.244 1.68 1.001-.276.965-1.594 1.995-1.897 2.035-.598 4.877-.102 6.993-.102h15.04c1.747 0 7.274-.9 7.632 1.299.129.788.116 2.389-.912 2.566-.786.136-2.138-1.615-3.52-1.625-5.734-.04-11.54 0-17.28 0-2.075 0-7.028-1.05-7.028 1.92 0 .655.092 1.714.977 1.717 1.18.003 1.538-1.578 2.857-1.698 4.834-.439 10.154-.019 15.034-.019 1.797 0 5.519-.814 5.756 1.606.07.712.043 2.028-.948 2.03-1.106.004-1.238-1.576-2.574-1.697-3.73-.34-8.044-.019-11.834-.019-1.482 0-4.742-.667-5.073 1.299-.122.728-.235 2.351.689 2.595 1.184.312 1.694-1.45 2.803-1.66 2.666-.503 5.888-.314 8.621-.314 1.548 0 4.13-.444 4.431 1.614.126.855-.063 2.268-1.203 2.306-.942.03-1.12-1.322-1.995-1.578-1.665-.486-3.961-.102-5.713-.102-1.107 0-3.016-.349-3.418 1.007-.205.69-.339 3.058.858 2.858.868-.144.959-1.398 1.7-1.752 1.128-.538 4.947-.51 5.467.549.453.921.32 3.21-1.059 3.215-1.134.003-3.158-3.24-2.888.517.2 2.768 8.34 1.606 10.54 1.606h27.84c1.179 0 2.7.266 3.794-.193.748-.313 1.103-1.523 1.965-1.523.977 0 2.037 2.93 3.008.708 1.414-3.233-3.386-4.12-5.471-2.823-.632.393-1.023 1.777-1.933 1.616-.86-.152-.757-1.627-.704-2.259.205-2.438 7.301-2.063 9.214-1.504.898.262 1.04 1.617 1.995 1.615 1.388-.004 1.535-2.314.923-3.173-.72-1.012-2.75-.47-3.831-.464-2.747.013-6.622-.65-9.234.102-.916.264-1.09 1.338-1.993 1.578-.907.24-1.176-.671-1.234-1.366-.068-.808-.105-1.954.723-2.36 1.244-.613 3.317-.194 4.698-.194 3.688 0 7.883-.311 11.514.019 1.303.118 1.508 1.7 2.594 1.698 1.29-.004 1.492-2.01 1.059-2.895-.632-1.292-4.567-.742-5.887-.742-4.8 0-10.655-.743-15.341.047-1.069.18-1.305 1.438-2.286 1.579-.92.131-1.197-.936-1.228-1.626-.134-2.946 5.042-1.92 7.015-1.92 5.814 0 12.516-.5 18.234.019 1.25.113 1.556 1.694 2.594 1.66 1.27-.04 1.382-1.702 1.113-2.62-.368-1.258-1.307-1.276-2.421-1.297-2.145-.04-4.55-.002-6.72-.002-6.503 0-13.018-.121-19.52.002-1.51.028-2.507 2.11-3.437 1.943-1.22-.217-.757-2.576-1.043-3.545 2.127-.629 5.412-.32 8.32-.32h20.48c1.627 0 3.87-.337 5.394.102.804.231.968 1.153 1.735 1.389.618.19 1.11-.332 1.29-.871 1.186-3.582-3.59-2.86-5.859-2.86-1.255 0-2.643-.053-3.84.029-1.192.081-2.202.284-3.52.29-6.168.03-12.387.001-18.56.001-1.92 0-4.522-.426-6.354.102-.858.247-1.101 1.388-1.965 1.523-.757.12-.897-.774-.942-1.311-.324-3.848 5.628-2.554 8.301-2.554h27.84c1.855 0 4.298-.405 6.033.102.809.236 1.633 2.48 2.6 1.299 1.608-1.965-.499-3.309-2.233-3.32-5.786-.04-12.509.501-18.234-.02-1.61-.146-2.14-2.218-1.476-3.398.251-.445.77-.737 1.284-.396.54.359.492 1.162 1.018 1.539 1.205.865 4.131.404 5.568.341 9.005-.394 18.145-.413 27.2-.306 2.421.03 9.908 1.658 9.908-1.92 0-.633-.083-1.715-.95-1.717-.854-.003-1.226 1.214-1.964 1.523-1.327.556-3.32.193-4.754.193h-24.32c-1.897 0-8.85.98-9.233-1.299-.174-1.036-.13-2.552.942-2.667 1.393-.151 1.407 1.962 3.172 2.04 7.862.347 16.102.006 23.999.006 2.615 0 9.217 1.33 8.94-2.554-.202-2.82-1.85-.321-2.906.121-.933.392-2.15.193-3.154.193h-19.2c-1.58 0-7.05.785-7.578-1.007-.245-.832-.245-2.541.887-2.684 1.242-.156 1.665 1.698 3.172 1.765 5.873.259 12.021.006 17.919.006 2.511 0 7.27.809 6.672-2.861-.09-.558-.412-1.287-1.15-1.058-.925.286-.966 1.609-2.02 1.897-4.343 1.188-11.08.102-15.662.102-1.282 0-4.912.59-5.567-.742-.367-.746-.487-2.853.53-3.177 1-.32 1.925 1.555 3.118 1.66 3.73.33 7.76.02 11.519.02 1.707 0 5.518.71 5.28-1.92-.058-.634-.284-1.715-1.121-1.717-.988-.003-1.458 1.49-2.565 1.669-3.026.49-6.814.053-9.914.047-1.41-.003-2.718.102-2.861-1.606-.051-.612-.156-2.107.704-2.26.96-.17 1.401 1.412 2.203 1.753 1.626.69 4.271.196 6.034.193 1.045-.002 2.864.19 3.273-1.033.265-.793.051-2.92-1.034-2.923-.788-.003-1.107 1.032-1.695 1.389-.922.56-2.364.368-3.423.32-1.636-.071-2.75-1.902-1.594-3.314 1.092-1.334 1.783 1.79 3.099 1.054.705-.395.728-1.344 1.474-1.7 2.223-1.06 6.723-.193 9.18-.193h22.4c2.56 0 5.12-.013 7.68 0 .95.005 2.264-.104 2.871.779.496.721.49 2.243-.18 2.85-1.23 1.116-1.94-1.88-3.144-1.041-.86.598-.703 2.922.006 3.483.837.663 2.939.447 3.96.282 1.2-.194 1.688-1.87 2.858-1.724 1.214.152 1.19 2.155.66 2.95-.896 1.343-7.689 1.227-9.175.548-.777-.355-1.022-1.526-1.987-1.523-.992.002-1.02 1.33-.969 2.03.123 1.713 1.466 1.603 2.86 1.606 3.082.006 6.912.438 9.914-.047 1.187-.192 1.709-1.867 2.857-1.724 1.103.138 1.227 2.014.796 3.004-.666 1.526-3.55 1.007-4.927 1.007-3.613 0-9.023.906-12.433-.102-1.03-.304-.825-1.566-1.742-1.926-.841-.33-1.337.372-1.458 1.087-.142.849-.187 2.234.695 2.668 1.435.706 4.067.193 5.658.193 4.637 0 9.462.195 14.08-.006 1.498-.065 2.263-1.918 3.491-1.765 1.133.142 1.153 1.863.796 2.684-.742 1.707-4.953 1.007-6.527 1.007h-17.28c-1.64-.003-4.697-2.924-5.072-.621-.654 4.013 5.329 2.861 7.952 2.861 6.817 0 14.38.58 21.119-.019 1.561-.138 1.71-2.018 2.91-2.018 1.171.001 1.422 1.648 1.149 2.642-.602 2.192-6.347 1.315-8.218 1.315h-22.08c-1.21 0-2.958.326-4.06-.193-.661-.311-.749-1.27-1.461-1.487-.718-.217-1.057.48-1.151 1.059-.644 3.946 6.678 2.541 9.232 2.541h18.88c2.916 0 6.426.413 9.274-.047 1.224-.198 1.477-1.59 2.593-1.724 1.368-.164 1.396 1.813 1.151 2.712-.391 1.436-1.882 1.297-3.098 1.3-2.986.005-5.974 0-8.96 0h-38.08c-3.376 0-10.01-1.288-13.018.192-.746.367-.774 1.31-.722 2.041.034.474.11 1.205.703 1.311.895.16 1.396-1.29 2.203-1.523 1.313-.378 3.064-.102 4.434-.102h24.64c1.895 0 8.857-1.003 9.232 1.299.136.833.061 2.683-1.204 2.53-1.164-.143-1.177-1.761-2.594-1.89-7.705-.701-16.796-.019-24.634-.019-1.628 0-2.993.071-4.48.037-1.94-.044-4.091-.544-4.152 1.884-.016.61-.035 2.1.953 1.944.966-.151 1.193-1.398 2.258-1.578 6.712-1.131 15.182-.047 22.061-.047 1.726 0 7.3-.907 7.631 1.299.126.84-.068 2.335-1.203 2.338-1.086.003-1.291-1.58-2.594-1.698-5.718-.52-12.42-.019-18.234-.019-1.391 0-5.82-.695-6.527.742-.338.687-.48 2.943.53 3.123 1.016.181 1.524-1.81 2.803-1.926 4.925-.448 10.087-.019 15.034-.019 2.209 0 6.511-.798 6.031 2.554-.102.712-.58 1.615-1.457 1.366-1.09-.31-.963-1.536-2.34-1.661-4.128-.375-8.92-.019-13.114-.019-1.924 0-4.004-.327-3.82 2.234.052.717.343 1.602 1.233 1.366 1.02-.271 1.152-1.441 2.286-1.633 2.701-.455 9.924-1.052 12.36.146.746.368.773 1.307.72 2.046-.047.683-.31 1.766-1.23 1.626-.9-.136-.972-1.39-1.73-1.752-1.712-.817-5.029-.206-6.939-.193-.712.005-1.736-.113-2.231.513-.544.687-.644 3.09.407 3.407 1.117.337 1.89-1.55 3.11-1.661 1.047-.095 3.116-.36 3.96.31.784.62.779 2.638-.214 3.135-1.407.705-1.55-2.154-2.925-1.196-.772.537-.691 2.303-.314 3.07.458.93 1.814.74 2.687.742 2.56.005 5.12 0 7.68 0h27.52c1.265 0 2.94.299 4.114-.193.818-.343 1.075-1.467 1.993-1.578 1.1-.132 1.827 2.517 2.846 1.023 2.164-3.176-2.971-4.185-5.013-3.22-.659.313-1.012 1.896-1.937 1.58-1.198-.409-.9-3.047.019-3.499 1.637-.805 4.804-.197 6.618-.193 1.946.004 2.239 1.403 3.602 1.625 1.394.228 1.382-2.34.87-3.086-.657-.954-2.172-.777-3.192-.779-3.065-.005-6.584-.24-9.581.351-1.041.206-1.305 1.445-2.257 1.594-.882.139-.94-1.046-.954-1.626-.022-.878.017-1.846 1-2.137 1.492-.443 3.515-.102 5.072-.102 3.46 0 7.85-.517 11.181.047 1.047.178 1.334 1.738 2.259 1.578 1.075-.185 1.132-2.056.767-2.803-.643-1.314-4.292-.742-5.567-.742-4.899 0-10.878-.76-15.661.047-1.065.18-1.292 1.427-2.258 1.578-.753.119-.902-.772-.94-1.31-.238-3.295 4.68-2.44 7.019-2.542 5.628-.247 11.64-.286 17.28 0 1.378.07 2.696 2.074 3.52 1.932 1.092-.188 1.1-2.037.858-2.858-.522-1.774-5.704-1.007-7.258-1.007h-19.52c-1.77 0-5.81 1.982-6.032.621-.631-3.85 5.816-2.54 8.272-2.54 8.022 0 16.683-.346 24.639.005 1.48.066 1.768 1.714 2.91 1.71 1.221-.003 1.4-1.753 1.149-2.629-.523-1.82-4.492-1.144-5.978-1.098-1.448.044-2.203-.22-3.84-.229-1.36-.006-2.187 0-3.52 0h-14.72c-1.061 0-1.786-.014-2.88.042-1.092.056-1.773.005-2.88-.03-1.807-.058-3.055.266-4.8-.012-1.028 2.256-3.814 1.766-2.367-1.178.46-.937 1.819-.74 2.687-.742 2.56-.005 5.12 0 7.68 0h26.24c1.63 0 4.185-.502 5.66.193.795.375 1.081 2.06 2.244 1.38.944-.552.827-2.046.359-2.751-.553-.832-1.547-.735-2.503-.742-5.53-.038-13.143.872-18.541-.047-1.362-.232-2.012-2.91-.792-3.765 1-.702 1.47 1.057 2.153 1.38 1.452.683 4.054.192 5.66.192h26.56c2.534 0 5.155.046 7.68-.001.978-.019 1.987-.028 2.472-1.006.428-.863.292-2.626-.846-2.63-.867-.002-1.203 1.194-1.992 1.524-1.25.524-3.085.193-4.434.193h-24.32c-2.588 0-9.363 1.373-9.272-2.239.017-.688.182-1.993 1.19-1.68 1.083.335.996 1.735 2.328 1.952 2.43.395 5.496.047 7.994.047h16.96c1.962 0 4.503.15 6.399-.019 1.067-.094 1.694-.438 1.873-1.587.155-.994.043-2.664-1.155-2.314-.79.231-1.27 1.462-2.323 1.633-6.393 1.034-14.552.047-21.114.047-1.972 0-7.79 1.026-7.98-1.606-.05-.69-.025-2.028.94-2.03 1.103-.004 1.43 1.646 2.881 1.71 5.977.263 12.236.006 18.239.006 2.142 0 6.47.979 6.487-1.921.004-.802-.206-2.326-1.286-1.999-.874.265-.985 1.409-2.02 1.661-2.022.494-2.723.166-4.461.048-.859-.059-1.39-.026-2.24-.003-.907.024-1.641 0-2.56-.018-2.923-.056-4.811.109-7.36.283-1.627.112-4.22.42-4.698-1.286-.244-.871-.267-2.55.887-2.696 1.22-.154 1.52 1.63 2.857 1.752 4.172.38 8.89.02 13.114.02 1.658-.001 3.716.267 3.815-1.92.036-.786-.194-1.896-1.228-1.772-1.011.122-1.275 1.396-2.286 1.67-2.557.69-6.259.101-8.941.101-1.241 0-3.374.353-3.967-1.007-.403-.924-.381-3.183 1.058-3.004 1.096.137.953 1.681 1.996 1.99 1.993.589 8.819.793 9.185-1.513.121-.76.141-2.34-.942-2.342-.88-.003-1.299 1-1.973 1.389-2 1.15-6.164.578-5.255-2.505.635-2.155 2.106.761 3.07.617.898-.134 1.175-1.356 1.994-1.703 1.125-.478 2.6-.188 3.794-.172 9.27.124 18.566-.07 27.84-.07 1.999 0 9.458-1.086 10.367 1.007.338.778.323 2.334-.53 2.777-1.153.598-1.358-1.868-2.701-1.332-1.06.423-.961 2.714-.223 3.3.859.68 2.911.403 3.966.31 1.148-.102 2.17-1.964 3.118-1.661 1.047.334.876 2.454.394 3.177-.89 1.334-7.693 1.249-9.17.55-.773-.366-.818-1.555-1.73-1.709-1.169-.197-1.287 1.434-1.23 2.215.156 2.192 2.837 1.606 4.459 1.606 2.698 0 5.993.398 8.621-.047 1.152-.196 1.372-1.872 2.55-1.724 1.056.133 1.105 1.58.887 2.392-.514 1.919-3.793 1.3-5.338 1.3-3.72 0-7.835.315-11.514-.02-1.151-.104-1.833-1.972-2.803-1.66-.915.294-.802 1.868-.676 2.62.349 2.07 4.73 1.3 6.353 1.3 4.504 0 9.284.188 13.76-.007 1.761-.077 1.59-1.106 2.745-1.9.95-.65 1.646.312 1.715 1.272.218 3.053-2.862 2.554-5.1 2.554h-17.6c-1.046 0-2.464.257-3.42-.193-.661-.311-.749-1.27-1.461-1.487-.574-.173-.952.275-1.097.768-1.162 3.942 4.903 2.832 7.258 2.832 6.952 0 14.197.296 21.12-.006 1.492-.065 2.029-1.714 3.199-1.71 1.262.003 1.274 2.783.714 3.443-1.074 1.264-5.547.513-7.113.513h-21.44c-1.514 0-3.685.39-5.074-.193-.749-.314-.95-1.26-1.723-1.487-.572-.167-.953.266-1.101.768-1.23 4.172 6.388 2.832 8.858 2.832 9.163 0 18.717.391 27.84-.006 1.467-.064 2.054-1.714 3.199-1.71 1.14.003 1.088 1.892.768 2.629-.506 1.164-1.942 1.005-3.007 1.007-2.986.006-5.974 0-8.96 0h-48c-1.631 0-3.356-.131-3.5 1.921-.048.687-.026 2.033.956 2.036.967.002 1.064-1.351 1.955-1.615 1.401-.416 3.275-.102 4.749-.102h24.32c2.229 0 6.222-.789 8.218.193.76.374.774 1.307.722 2.041-.034.464-.065 1.16-.703 1.366-1.014.326-1.171-1.126-1.937-1.487-1.116-.526-2.834-.193-4.06-.193h-21.44c-1.673 0-7.978-.884-8.538 1.007-.206.694-.35 2.684.621 2.858.87.156 1.259-1.125 1.933-1.432.808-.369 1.909-.193 2.784-.193 6.785 0 12.888-.32 19.52-.32 1.938 0 4.531-.255 6.394.047 1.28.209 1.758 1.11 1.557 2.507-.104.724-.592 1.61-1.462 1.231-.902-.392-.96-1.318-2.028-1.498-5.432-.915-12.906-.047-18.541-.047-1.48 0-6.097-.751-6.618 1.007-.205.693-.35 2.685.621 2.858 1.036.185 1.686-1.876 3.118-1.939 4.633-.204 9.722-.006 14.399-.006 2.356 0 6.899-.955 6.352 2.554-.093.597-.403 1.427-1.18 1.311-.957-.141-1.232-1.394-2.31-1.578-3.73-.637-8.035-.047-11.822-.047-1.198 0-4.296-.542-4.927.742-.321.654-.437 2.63.53 2.803.937.168 1.516-1.412 2.496-1.578 2.701-.455 9.924-1.052 12.36.146.746.367.773 1.307.72 2.046-.045.646-.276 1.734-1.176 1.578-.826-.143-.731-1.35-1.464-1.704-1.546-.747-4.251-.193-5.979-.193-.976 0-2.804-.32-3.327.742-.34.69-.483 3.32.768 3.123.78-.122 1.039-1.137 1.695-1.478 1.295-.675 4.775-.78 5.242.86.213.746-.017 3.129-1.317 2.458-.63-.325-.747-1.61-1.698-1.304-1.355.435-.684 2.967-.403 3.919 2.107-.5 5.556-.32 8-.32h18.56" fill="none" stroke="#44341a"/></svg>