<svg viewBox="0 0 269.15 322.62" xmlns="http://www.w3.org/2000/svg"><path d="M53.41.71h.32m214.72 24.96h-9.92c-1.6 0-3.07-.45-4.38.2-.82.4-.73 1.27-.74 2.04-.01.86-.12 1.74.51 2.24.7.55 2.44.32 3.33.32 2.37 0 8.16-.78 10.14.2 1.27.62.74 2.2.74 3.64 0 4 .55 10.74-.05 14.4-.33 2-2.46 1.6-4.11 1.6h-10.56c-1.12 0-3.45.34-4.29-.32-1.36-1.08-.51-3.57-.51-5.44v-20.8c-.03-.78-.56-2.21.2-2.87.84-.7 2.93-.33 3.96-.33h10.56c1.11 0 3.69.48 4.47-.5.74-.95.33-3.17.33-4.3V4.87c0-1.36.51-3.8-1.3-4.1-2.69-.47-6.6-.2-9.26-.03-1.02.07-1.62.24-2.56.28-1.36.06-3.36.01-4.8.01-1.4 0-3.12-.02-4.48 0-.62.02-1.46-.05-1.91.52-.45.56-.33 1.32-.33 2.04v41.6c0 1.71.73 3.81-.52 4.8-1.38 1.1-4.1.64-5.56.64-4.1.02-8.37 0-12.48 0-1.58 0-3.75.28-5.1-.1-1.76-.48-1.3-2.45-1.3-4.06V33.99c0-1-.23-1.98.33-2.68.72-.92 3.1-.52 4.47-.52h11.52c1.26 0 2.54.2 3.32-.74.98-1.16.52-3.91.52-5.66 0-5.17.45-12.83-.14-17.28-.14-1.11.22-5.02-.7-5.75-.8-.63-1.76-.33-3-.33h-10.24c-2.18 0-3.71-.38-6.08.32.94 3.95.32 9.08.32 13.76 0 1.43-.48 4.23.33 5.25.65.83 2.44.51 3.5.51 2.88 0 7.69-1.01 10.15.2.93.46 1.18 2.58.54 3.86-.7 1.44-6.7.74-8.44.74-2.7 0-4.02.3-6.4.32-3.65.05-7.82 0-11.52 0h-5.44c-.72 0-1.49-.11-2.05.33-.58.46-.5 1.25-.51 1.91-.01 1.17-.2 2.26 1.3 2.52 2.56.43 7.41.04 10.22.04.87 0 2.32-.18 2.87.52.77.97.33 2.69.33 3.96v10.56c0 1.4.35 3.4-.52 4.25-.86.85-2.6.55-3.96.55h-10.88c-1.28 0-3 .44-3.97-.33-.57-.45-.5-1.29-.51-1.9-.03-1.5 0-3.28 0-4.8V26.95c0-1.92-.9-4.63.51-5.75.86-.68 4.76-.33 5.89-.33h4.48c2.13 0 4.13.07 6.4 0 .75-.02 1.48 0 2.05-.55.87-.86.5-2.85.5-4.25V5.51c0-1.53.53-2.9-.32-3.96-.7-.88-4.81-.52-6.07-.52-3.96 0-8.24-.16-12.16.02-2.8.12-3.41.77-6.08-.02-.9 3.05-.32 7.52-.32 11.2v26.24c0 2.99.02 6.34 0 9.28 0 1.03.08 2.15-1 2.65-1.7.76-3.69.23-5.72.23h-12.16c-1.92 0-4.4.82-5.43-.74-.63-.93-.33-3.2-.33-4.38 0-4.1-.64-9.08.05-13.1.32-1.87 3.72-1.48 5.39-1.59 1.61-.1 3.15.13 4.8.03 1.22-.07 2.03.21 3.2.24 1.38.02 4.74.28 5.89-.63 1.16-.92.5-4.71.5-6.07V7.11c0-1.8.46-5.41-1.29-5.7-3.67-.63-10.34-.06-14.38-.06-1.42 0-3.35-.51-3.97.75-.53 1.08-.2 3.16-.2 4.37v9.92c0 1.11-.47 3.69.75 4.3 3.64 1.78 9.6-1.28 13.27.38.96.43 1.03 1.46 1.02 2.36-.01.79-.05 1.48-.73 2.05-1.59 1.34-4.75.51-6.94.51h-24.64c-.78 0-1.98-.18-2.31.75-.51 1.4.16 3.9 1.67 4.04 2.92.26 6.56.13 9.28.03.65-.03 2.46-.11 3.1.31 1.07.72.74 2.25.74 3.51v11.2c0 1.28.28 3.79-.74 4.47-1.03.69-2.47.33-3.74.33h-9.92c-1.44 0-3.16.57-4.7-.19-.8-.4-.72-1.2-.74-2.05-.03-1.45 0-3.3 0-4.8V28.55c0-2.98-.36-5.4.32-7.68 3.67.59 9.18 0 13.12 0 1.55 0 3.95.33 5.4-.1 1.68-.5 1-2.73 1-4.38V5.19c0-1.2.23-2.19-.38-3.1-.46-.7-1.2-.7-1.86-.73-1.03-.05-2.43 0-3.52 0h-12.16c-1.86 0-4.44-.57-5.98.19-.87.42-.73 1.54-.74 2.36-.02 2.65 0 5.64 0 8.32v28.8c0 2.28.04 4.79 0 7.04-.02.8 0 1.73-.74 2.24-1.34.89-3.69.32-5.34.32h-12.8c-1.7 0-3.68.57-5.02-.32-.79-.53-.72-1.45-.74-2.24-.07-3.56 0-9.13 0-12.8 0-.98-.47-2.9.04-3.64.65-.95 1.91-.52 3.16-.52 3.88 0 8.33.05 12.16 0 1.09-.01 3.33.24 3.97-1.06.65-1.34.19-4.25.19-5.66V8.71c0-1.82.22-4.47-.05-6.06-.3-1.76-2.45-1.3-4.11-1.3h-11.52c-1.6 0-3.8-.58-4 2.72.16 5.27.16 9.46.16 13.6 0 1.63-.35 3.16 1.6 3.48 2.27.37 7.38.04 9.92.04.88 0 2.33-.16 2.87.52.39.49.33 1.05.33 1.72 0 2.73-2.03 2.56-4.48 2.56h-18.88l-5.6.14c-1.95.1-4.03-.7-5.13.15-.59.45-.47 1.24-.47 1.95 0 .78-.07 1.3.28 1.78.65.88 2.03.77 2.92.78 2.09.04 6.23 0 8.32 0 .84 0 2.29-.34 2.92.48.84 1.1.28 2.38.28 4v10.56c0 1.65.54 2.86-.28 4.03-.58.82-3.13.77-4.52.77-2.67 0-6.05.05-8.64 0-1.04-.02-1.57-.18-2.56-.27-.93-.1-2.6.25-3.37-.52-1.16-1.16-.47-5.02-.47-6.57V27.91c0-1.4-.01-3.1 0-4.48 0-.73-.11-1.7.71-2.08 1.34-.62 2.78-.16 4.41-.16h9.92c1.45 0 3.37.49 4.33-.47.6-.6.47-1.6.47-2.4V3.91c0-.96.2-1.75-.47-2.27-.66-.5-2.5-.29-3.37-.29H85.73c-1.18 0-2.93-.14-4.15.03-1.5.2-1.59 1.6-1.6 2.85-.06 2.97-.11 6 0 8.96.06 1.71.3 2.48.31 4.16v16.32c0 4.33.04 9.79 0 14.4 0 .98.13 1.88-.99 2.17-1.51.4-3.82.07-5.41.07H62.05c-1.43 0-4.46.42-5.69-.15-1.22-.56-.71-1.98-.71-3.37 0-3.4.2-6.86-.24-10.24-.17-1.36-.28-3.35.03-4.47.48-1.76 1.81-1.29 3.41-1.29h13.12c.73 0 2.08.22 2.73-.28 1.17-.9.4-4.77.49-6.12.1-1.54.3-2.25.3-3.84 0-2.05-.1-2.69-.28-4.48-.23-2.37-.04-5.25-.04-7.68 0-1.65.04-3.48 0-5.12-.02-.5-.06-1.31-.47-1.63-.75-.58-1.12-.26-2.41-.29-1.13-.02-1.8-.23-2.88-.3-3.11-.2-9.78-.73-12.77.05-1.4.37-.99 1.78-.99 3.13v10.88c0 1.42-.14 3.27.03 4.48.26 1.9 1.78 1.6 3.49 1.6 3.1 0 7.87-1.05 10.49.16.79.36.7 1.06.7 1.76.02.77.04 1.37-.27 1.85-.79 1.21-5.26.71-6.76.71H43.17c-1.59 0-7.2-.58-7.61 1-.4 1.5-.47 3.07.64 3.67.78.43 1.43.39 2.17.43 1.38.1 3.53-.4 5.44-.28.89.06 1.65.31 2.56.26.93-.06 2.78-.71 3.69.2.9.9.47 1.86.47 3.36v12.8c0 1.28.42 2.53-.71 3.05-1 .46-3.27.15-4.41.15-3.95 0-10 .91-13.73-.07-.9-.23-.94-.82-.98-1.53-.1-1.55-.01-4.64-.01-6.4V26.63c0-1.6-.83-3.12-.17-4.77.51-1.28 1.8-.99 3.05-.99h12.16c1.33 0 3.04.33 4.09-.15 1.34-.61.71-2.46.71-4V9.03c0-2.24.88-4.72-.15-6.97-.46-1-1.97-.69-3.05-.7-1.04-.03-1.57-.19-2.56-.28-1.2-.12-2.9-.05-4.16-.05h-28.8c-1.84 0-4.67.06-6.4 0-.98-.04-3.35-.94-4.2.16-.5.65-.28 1.54-.28 2.4v43.2c0 .9-.36 2.88.71 3.37 1.16.53 3.16.15 4.41.15h9.92c1.21 0 3.84.34 4.52-.7.83-1.3.28-2.65.28-4.42V23.75c0-.83-.19-1.8.28-2.4.71-.92 1.99-.81 3.53-.4 1.1.28.99 1.64.99 2.8v8.64c0 6.28-.39 12.97.02 19.2.08 1.28.28 1.77.3 2.88.02 1.33 0 3.4 0 4.8 0 2.88-.52 7.66.07 9.9.3 1.12 4.23 1.64 4.66 0 .23-.9.07-1.57.07-2.54v-7.68c0-1.08-.26-2.34.28-3.04.45-.58 1.28-.47 1.96-.48h14.72c.83 0 1.8-.18 2.4.29.46.35.44.89.47 1.32.07.97.01 2.43.01 3.51v9.6c0 1.3.64 2.99-.28 4.41-1.06 1.64-3.78.71-5.8.71H27.17c-2.1 0-5.35 1.01-6.2-.98-.39-.9-.2-2.49-.2-3.5V58.95c0-1.5.44-2.73-.71-3.4-1.93-1.14-3.64-.13-5.37-.12-2.3.02-4.01 0-6.08 0h-4.8c-1.02 0-2.26-.31-2.73.71-.59 1.3-.15 3.94-.15 5.37v12.8c0 1.23-.6 4.65.47 5.48 1.24.96 5.43.28 6.89.28h32.32c2.91 0 5.72-.77 8.93.07 1.01.27.97 1.01.99 1.85.02.93 0 2.23 0 3.2v13.45c0 1.7.6 4-.28 5.37-.46.7-1.25.68-1.96.7-1.84.05-4.2 0-6.08 0h-3.84c-1.78 0-6.77.88-7.3-.98-.24-.86-.37-2.68-.38-3.82v-9.92c0-1.07.28-3.15-.15-4.09-.3-.65-.85-.66-1.45-.7-1.57-.1-7.59.05-9.28-.01-.86-.03-1.35-.19-2.24-.27-2.67-.26-6.79-.05-9.6-.05-1.38 0-6.22-.74-6.89.71-.53 1.16-.15 3.17-.15 4.41v9.6c0 1.13-.3 3.52.28 4.41.72 1.1 1.83.71 3.24.71h10.24c1.3 0 3.32.13 4.48-.02 3.38-.45.86-10.62 1.67-13.7.29-1.1 1.18-.99 2.17-1 .93 0 1.76-.22 2.4.29.59.45.47 1.27.48 1.95.02 1.75 0 3.98 0 5.76v21.44c0 1.1-.4 3.46.47 4.33.87.86 3.9.86 4.26-.51.74-2.82.07-6.66.07-9.58 0-.98-.35-2.86.28-3.68.75-.96 3.44-.48 4.52-.48h10.88c1.01 0 2.66-.5 3.69.29 1.35 1.05.47 3.55.47 5.47v3.2c0 1.91.56 8.14-.15 9.9-.38.93-1.13.96-2.09.98-1.27.04-2.86 0-4.16 0H27.49c-1.73 0-4.64.72-5.93-.28-.65-.5-.47-2.57-.47-3.56v-11.52c0-1.1.38-3.29-.8-4.2-.75-.58-1.82-.28-2.72-.28H4.13c-.89 0-2.5-.46-3.05.71-.98 2.14-.35 8.28-.07 10.5.12.88.22 1.37.24 2.23.03 1.93-.02 6.95 0 8.96 0 .88-.13 1.7.71 2.1 2.08.95 6.06.14 7.93.14h34.56c1.97 0 4.29-.74 5.6.29.89.68.48 4.26.48 5.47 0 4.38-.03 8.75 0 13.12.01 1.59.83 3.39.04 4.78-.55.94-1.36.96-2.28.98-1.65.05-3.75 0-5.44 0h-8.64c-.96 0-2.06.2-2.73-.47-.57-.57-.46-1.36-.47-2.09-.03-3.16.02-9.63 0-12.8 0-.92.1-2.8-.6-3.68-.44-.55-.94-.46-1.64-.47-1.01-.03-2.74 0-3.84 0H7.65c-1.4 0-3.12-.02-4.48 0-.88 0-1.7-.14-2.09.7-.43.94-.15 3.02-.15 4.1v9.91c0 1.08-.28 3.16.15 4.1.39.84 1.21.7 2.09.7 2.62.03 7.94 0 10.56 0h3.84c.74 0 1.99.3 2.73-.28.84-.65.47-2.63.47-3.56 0-2.86-.64-7.18.07-9.89.3-1.18 1.36-.99 2.49-.99.74 0 1.5-.16 2.09.29s.46 1.27.47 1.95c.01 1.37 0 3.09 0 4.48v19.52c0 1.5-1.08 6.32.47 7.76.94.87 3.53.47 4.18-.04.76-.6.47-1.48.47-2.6v-8c0-.95-.3-2.3.28-3.04.85-1.1 3.6-.64 4.84-.64 1.1 0 2.63.13 3.52.1 2.77-.09 7.33-1.28 10.21-.1 1.37.55.99 1.97.99 3.36v10.24c0 1.53.26 3.44-.07 4.8-.4 1.62-4.79 1.28-6.65 1.28h-16c-1.73 0-3.68.21-5.44-.02-2.3-.31-1.59-2.6-1.6-4.46 0-1.26-.21-1.84-.3-3.2-.09-1.34.26-2.32.26-3.52 0-.76-.2-1.44-.26-2.24-.1-1.47.63-4.71-.3-5.92-.58-.75-2.1-.48-2.92-.48H9.25c-1.7 0-7.02-.86-8.04.71-1.4 2.19-.28 8.22-.28 10.81v9.28c0 1-.2 2.7.47 3.37 1.78 1.78 8.8.47 11.69.47h35.2c.77.01 1.68-.16 2.09.71.56 1.23.15 3.7.15 5.05v12.48c0 1.44.37 4.14-.15 5.42-.6 1.48-2.1.98-3.69.98H35.17c-1.62 0-3 .54-4-.47-.78-.77-.48-3.17-.48-4.33v-9.92c0-1.07.28-3.15-.15-4.09-.35-.75-1.03-.68-1.77-.7-1.24-.04-3.16 0-4.48 0H6.37c-1.81 0-4.55-.9-5.29.7-.34.76-.15 2.28-.15 3.13 0 2.54-.22 6.24.08 8.64.13 1 .23 1.53.24 2.56.01 1.41-.31 3.6.47 4.2.92.7 2.35.28 3.69.28h9.92c1.35 0 3 .15 4.16-.05 1.96-.32 1.6-3.96 1.6-6.35a16 16 0 0 0-.19-2.88 19 19 0 0 1-.1-4.15c.19-1.37 1.08-1.28 2.21-1.29.9 0 1.57-.11 2.09.29.76.59.43 3.83.55 4.83.14 1.12.24 1.66.24 2.88v24c0 .7-.08 1.54.47 2.1.56.55 1.21.48 2.09.46 1.08-.02 1.89-.12 2.17-1.28.82-3.36-1.57-10.08.35-13.05.78-1.19 3.3-.7 4.52-.7h9.92c1.25 0 3.25-.38 4.41.15 1.21.55.71 3.24.71 4.32v10.24c0 1.14.26 3.12-.15 4.14-.38.93-1.13.96-2.09.98-1.27.04-2.86 0-4.16 0h-16c-1.37 0-6.01.5-6.76-.47-.64-.84-.28-1.74-.28-3.05 0-3.43.02-7.86 0-11.2 0-1.07.34-3.95-.8-4.83-.97-.76-3.47-.29-4.64-.29-2.9 0-6.09-.19-8.96.05-1.48.11-3.95.3-5.12-.05-1.58 3.29-.3 7-.32 10.24 0 1.36-.2 2.16-.3 3.52-.35 5.26-.15 11.33-.02 16.64.06 2.34.32 3.86.32 6.4 0 2.42-.14 3.61-.3 5.76-.08 1.34-.66 5.48.5 6.4.95.75 3.16.27 4.28.38 1.05.1 2.06.3 3.2.23.83-.05 1.36-.2 2.24-.26 5.48-.37 11.41.3 16.64.3 1.44 0 2.18-.2 3.52-.3 2.16-.15 4.83-.03 7.04-.03h8.64c.96 0 2.62.22 3.2-.51.8-1.03.32-2.42.32-3.97v-10.88c0-1.5.58-3.31-.74-3.96-1.63-.8-5.68-.2-7.58-.2H28.45c-1.86 0-4.59.43-6.35-.1-1.84-.54-.92-2.64-1.33-4.38 2.8-.82 7.22-.32 10.88-.32 2.36 0 5.4.05 7.68 0 1.21-.03 1.9-.25 3.2-.3 1.32-.06 2.28.2 3.52.24 3.61.12 7.76-.26 11.52-.26h9.28c.96 0 2.62.22 3.2-.51 1.21-1.54.46-3.8-.98-4.19-1.89-.51-3.13-.1-4.78-.1-2.34 0-5.74.87-7.9-.19-1.23-.6-.74-2.29-.74-3.65v-11.2c0-1.17-.4-3.05.33-3.96.68-.87 3.05-.52 4.15-.52 3.58 0 9.82-.14 13.12 0 2.93.14 1.92 3.27 1.92 5.76v16.32c0 1.67.44 4.9-.2 6.36-.53 1.21-1.68 1-3 1H60.13c-1.76 0-4.1-.6-4.43 1.3-.21 1.24-.05 3.03-.05 4.46v9.92c0 1.41-.48 2.73.51 3.51.83.66 4.18.29 5.25.39s1.71.25 2.88.26c2.74.03 7.57.06 10.24 0 1.1-.03 1.76-.2 2.88-.29 2.04-.15 2.78-.58 2.87-2.59.12-2.9-.5-5.86-.28-8.96.1-1.39.28-2.15.29-3.52.03-6.77 0-14.57 0-21.44v-8.96c0-.95-.26-2.26.33-3 .78-.99 4.14-.52 5.43-.52h12.8c1.66 0 3.73-.3 5.07.1 1.43.43 1.01 2.6 1.01 4.06v10.88c0 1.07.38 3.08-.33 3.97-.88 1.12-4.49.51-5.75.51h-9.28c-.97 0-2.78-.28-3.74.2-1.66.82-.42 5.18-.42 6.52 0 1.87-.17 2.76-.3 4.48-.27 4.01-.02 8.44-.02 12.48 0 1.28-.63 4.9.74 5.57 1.27.63 3.25.5 4.38.5 1.21 0 1.91-.28 3.2-.27s3.24-.1 4.48.02c1.27.11 2.18.26 3.52.26 1.18 0 2.24.2 3-.55.94-.92.52-3.37.52-4.89 0-3.39.02-7.2 0-10.56 0-1.12.13-2.14-.46-3.1-.74-1.2-4.14-.74-5.3-.74h-2.56c-.85 0-3.41.02-4.16 0-.58 0-1.22.08-1.73-.32-.82-.66-.68-1.9-.46-3.18.33-1.94 2.93-1.3 4.75-1.3 4.2 0 8.73.2 12.6.15 5.2.1 11.1.62 15.86-.2 1.28-.21 1.28-1.08 1.3-2.19 0-.86.13-1.71-.51-2.23-.67-.53-1.78-.32-2.7-.33-2.92 0-6.77.17-9.6-.01-.77-.05-1.46-.12-1.9-.76-1.54-2.24-.01-7.1-.01-9.47 0-1.26-.05-2.23-.05-3.52 0-1.35.02-2.36.05-3.84.02-.96-.04-1.82 1-2.13 3.5-1.04 9.12-.1 12.76-.1 1.38 0 3.4-.41 4.73.19 1.03.46 1 1.47 1.02 2.36.04 1.12 0 2.66 0 3.84v17.28c0 1.11.03 2.45 0 3.52 0 .74.06 1.44-.5 1.97-.83.78-2.91.6-4.3.6-4.28 0-11.47.45-14.71-.33-1.23 4.17-.32 9.74-.32 14.08 0 1.3-.35 4 .33 5.02 1 1.5 3.25.74 5.1.74h13.77c1.78 0 3.6.79 4.93-.5 1.14-1.13.82-2.97.83-4.3.02-4.15 0-8.9 0-13.12v-23.36c0-2.24-1.12-6.37.51-7.67.73-.57 2.69-.33 3.65-.33h9.92c2.51 0 7.24-.92 9.5.2 1.62.8.74 6.83.74 8.44v7.68c0 .87.19 2.27-.51 2.9-.9.8-2.11.62-3.33.62-3.58.02-7.3 0-10.88 0-1.74 0-3.8-.74-4.8.52-.76.97-.32 4.55-.32 5.88v16.64c0 1.8-.65 5.49 1 6.21 2.8 1.22 8.69.2 11.8.2h4.16c1.43-.02 2.57 0 2.83-1.61.37-2.24.05-5.13.05-7.36 0-2.63.05-5.64 0-8.32-.02-.7.05-1.46-.51-1.9-.67-.53-1.82-.34-2.7-.34-2.85 0-8.3.76-10.5-.23-1.05-.48-1.55-3.72-.5-4.56.9-.7 1.97-.33 3.33-.33h25.92c1.13 0 3.98.54 4.6-.74 3.01-6.1-7.62-4.38-10.68-4.38-1.02 0-3.1.4-3.65-.74-.53-1.07-.2-2.89-.2-4.06v-9.92c0-1.1-.46-3.69.52-4.47 1.2-.95 4.77-.33 6.2-.33h10.57c.66.01 1.5-.1 2.05.33 1.13.9.5 4.87.5 6.4v17.27c0 1.78.87 4.46-.73 5.25-.95.47-2.97.2-4.06.2h-10.24c-1.1 0-3.7-.46-4.47.5-.82 1.04-.33 3.34-.33 4.61 0 4.18-.63 9 .05 13.11.24 1.48 1.3 1.57 2.5 1.61 1.92.06 4.44 0 6.4 0h36.17c.89 0 1.4.04 2.24 0 .86-.04 1.65-.1 2.05-1 1.2-2.74.19-7.66.19-10.84v-25.6c0-3.04 1.14-8.89-.33-11.1-.7-1.06-3.2-.74-4.47-.74-3.89 0-10.42-.97-14.03.1-1.85.56-1.01 3.52-1.01 5.34v18.88c0 1.12.07 2.51-.02 3.52-.15 1.62-2.27 2.28-4.04 1.41-.98-.48-.74-1.63-.74-2.69v-8.64c0-1.72-.24-3.49-.28-5.12-.04-1.57.28-2.65.28-4.16v-2.88c0-1.82-.23-3.1-.3-4.8-.13-2.75-.02-5.85-.02-8.64 0-2.95.67-8.22-.1-10.83-.36-1.19-1.45-1.02-2.46-1-.76 0-1.65-.07-2.05.74-1.44 2.93 1.28 10.86-.52 13.14-.68.87-3.32.51-4.47.51-4.17 0-10.05 1.09-14.03-.1-1.3-.38-1.01-2.04-1.01-3.1v-12.16c0-1.36-.32-2.38.2-3.41.64-1.33 5.16-.75 6.52-.75h15.68c1.73 0 4.73-.57 6.3.2 1.2.59.7 2.9.8 3.96.33 3.54.12 10.06.27 13.44.1 2.5 1.43 2.24 3.5 2.24h11.2c1.39 0 4.12.22 4.8-.77.9-1.3.33-3.3.33-4.99v-13.12c0-1.44.27-4.75-.74-5.43-.82-.54-1.73-.32-2.78-.33h-33.6c-2.96 0-7.82.23-10.56-.01-2.58-.23-1.92-2.53-1.92-4.79v-13.12c0-1.64-.36-4.17.1-5.7.37-1.26 1.58-1.01 2.78-1.02h11.84c1.17 0 4.15-.28 4.79.52.85 1.08.33 3.2.33 4.6 0 3.55-1.1 10.91.2 13.68.47 1.02 1.48.99 2.36 1.03 1.12.06 2.66.01 3.84.01h17.6c1.45 0 4.46.04 5.25-.63.9-.78.5-1.9.5-3.2.01-3.74.05-7.47 0-11.2 0-1.12.1-3.74-.82-4.48-.89-.7-2.89-.33-3.97-.33h-10.56c-1.17 0-3.54-.25-4.15.52-.5.63-.33 1.51-.33 2.36 0 2.52.18 7.68-.02 9.92-.17 1.86-.97 1.9-2.54 1.92-.71 0-1.46.06-1.91-.5-.98-1.24-.33-5.13-.33-6.86v-18.88c0-1.68.02-3.8 0-5.44-.01-.93.09-1.95-.78-2.55-1.43-.98-4.04-.49-4.3.97-.34 2.02-.02 8.43-.04 10.86 0 .92.14 1.72-.51 2.24-.92.72-2.93.54-3.97.54-.79 0-1.43-.2-2.24-.17-1.13.02-1.8.24-2.88.27-1.69.04-4.02 0-5.76 0-1.35 0-3.88.36-4.38-1.32-1.16-3.93-.1-9.96-.1-14.03 0-1.07-.33-3.49.51-4.16.74-.58 1.6-.32 2.69-.32h21.76c1.18 0 3.47-.75 4.47.5.87 1.1.33 2.67.33 4.3v10.88c0 1.3-.22 3.1.74 3.73 1.4.91 3.07.45 5.02.42 1.15-.01 1.79-.2 2.88-.23.79-.02 1.45.17 2.24.15 2.28-.06 5.69.34 7.95-.34 1.15-.34 1-1.38 1-2.45.03-2.65.01-5.65.01-8.32V120.4c0-2.88 1.07-8.05-.33-10.14-1.54-2.31-8.55-.43-10.55-.42h-29.44c-2.13 0-4.64-.02-6.72 0-.82 0-1.92-.16-2.37.74-.58 1.19-.19 2.45-.19 3.74v10.24c0 1.21-.34 3.43.51 4.28 1.39 1.39 5.13.52 7.17.52h18.24c.84 0 2.36-.18 3.1.19 1.22.6 1.06 2.13.64 3.61-.39 1.37-1.58 1.3-2.78 1.31-2.74.04-5.86 0-8.64 0h-26.88c-2.98 0-8-1.01-10.46.2-.68.33-.7 1.03-.73 1.73-.05 1.16-.16 2.38 1.29 2.77 1.07.3 2.14.1 3.5.1h6.72c.94 0 2.32-.21 3 .33.67.53.51 1.4.52 2.23v5.76c0 2.74 1.13 8.85-.33 10.7-.67.84-3.03.5-4.15.5h-10.88c-1.02 0-3.2.28-3.97-.32-1.4-1.12-.51-3.83-.51-5.76v-16.64c0-1.95-.99-5.3.51-6.37.78-.57 2.02-.04 3.01-.07 3.88-.13 7.7-.28 11.84-.28 1.65 0 3.92.37 4.38-1.3.53-1.94-.06-2.86-.2-4.78-.2-2.98-.02-6.26-.02-9.28 0-.94.21-2.59-.2-3.41-.43-.9-1.37-.74-2.36-.75h-44.16c-.92.01-1.72-.13-2.23.52-1.06 1.34-.33 7.8-.33 9.72v19.52c0 2.86.4 5.53.15 8.32-.09.97-.04 3.61.01 4.48.05.77.17 1.34.15 2.24-.01 1.11-.9 3.27.7 3.97 3.47 1.52 10.23.2 14.03.2 1.15 0 3.79.35 4.47-.52.96-1.2.33-3.15.33-4.93v-13.12c0-2.68-.95-7.5.2-9.81.42-.87 1.5-.75 2.36-.74.79 0 1.47-.05 1.91.5.54.7.33 2.43.33 3.33v8.96c0 2.11-.14 4.67.05 6.72.13 1.35.27 2.08.27 3.52v37.44c0 1.24-.35 2.48.74 3.01 3.54 1.74 4.06-1.6 4.06-4.29v-17.92c0-1.68-.7-5.23.33-6.52.7-.9 3.32-.52 4.47-.52h10.56c1.43 0 2.57-.38 3.74.2.92.45.74 1.84.74 2.68v43.52c0 .92.14 1.72-.51 2.24-1.34 1.06-7.8.32-9.73.32-3.24 0-5.3.32-8.32.32-5.64 0-13.89.07-19.52 0-1.26-.01-1.97-.2-3.2-.29-1.65-.1-7.33.87-7.9-1.03-.3-1.04-.08-3-.1-4.12-.04-1.35-.33-1.99-.3-3.52.03-1.77-.04-4.41.05-6.08.05-.99.2-1.59.25-2.55.04-1-.01-1.84 1-2.14 3.54-1.05 9.92-.1 13.72-.1 1.15 0 3.79.35 4.47-.52 1.07-1.35.33-3.9.33-5.89v-16.32c0-1.4.02-3.12 0-4.47-.01-.66.06-1.46-.51-1.92-.8-.63-2.44-.33-3.65-.33h-10.24c-1.51 0-3.2-.26-4.43.1-1.43.43-1.01 2.6-1.01 4.06v10.88c0 1.16-.33 3.06.56 3.97.8.83 2.55.51 3.6.51 2.6 0 7.49-.95 9.82.2 1.2.6.96 3.68.23 4.41-2.05 2.05-7.63.47-10.37.47-.87 0-1.66.04-2.56.04-5.47.02-11.15 0-16.64 0-2.88 0-6.44-.05-8.96 0-2.04.04-5.23-.01-7.36 0-.98.01-2.12-.11-2.46 1.01-.36 1.23-.31 2.53.41 3.24.48.47 1.06.5 1.73.51 1.46.01 2.91-.18 4.48-.24 4-.16 8.22.18 12.16.18 1.22 0 2.2-.26 3.52-.2 1 .04 1.63.24 2.56.26.92.03 1.66-.22 2.56-.24 1.4-.04 1.8.5 1.9 1.57.09.93.02 2.17.02 3.2v9.27c0 1.32.9 4.32-.51 5.44-1.78 1.4-7.1.32-9.73.32H66.53c-2.68 0-5.68.05-8.32 0-1.05-.02-1.93 0-2.37-1-.45-1.05-.19-2.16-.19-3.15v-32.64c0-2.98-1.24-10 .33-11.97.68-.87 3.32-.51 4.47-.51h9.92c1.17 0 3.29-.27 4.3.37 1.18.76.82 2.84.82 4.1v11.2c0 1.11-.31 2.84.33 3.65.85 1.08 4.32.52 5.75.52h16.96c1.77 0 5.83.4 6.3-1.3.4-1.48.1-3.47.1-5.1V166.8c0-1.44.33-2.88-1.3-3.16-4.27-.72-9.7-.05-14.06-.04-1.25 0-3.67-.25-4.29 1.05-.95 2-.19 5.8-.19 8.23 0 1.58.41 2.7-.1 4.43-.41 1.37-3.66 1.39-4.37.5-1.26-1.6-.33-4.28-.33-6.53V152.4c0-1.88.03-4.26 0-6.08-.01-.71.04-1.67-.74-2.05-.67-.33-1.28-.2-2.14-.2-1.24.03-2.12.09-2.22 1.61-.1 1.72.3 2.57.3 4.16 0 1.88.03 4.5 0 6.4-.02.93 0 1.92-1 2.36-1.39.6-3.18.2-4.76.2h-9.92c-1.46 0-3.35.5-3.97-.75-.47-.96-.19-2.5-.19-3.73v-10.56c0-1.5-.48-2.9.33-3.98 1.02-1.39 5.07-.82 6.71-.82 5.45 0 9.98.32 15.36.32 2.06 0 5.11-.8 6.53.32.81.65.51 2.76.51 3.84 0 3.6.32 6.49.32 9.92 0 1.25-.34 4.43.51 5.1.96.76 2.7.34 3.97.34h11.2c1.53 0 3.02.41 3.65-1.01.86-1.98.19-8.58.19-10.83v-10.24c0-.78.12-1.74-.51-2.24-.56-.44-1.4-.32-2.05-.32-3.3-.03-7.79 0-11.2 0H58.53c-.96-.01-1.73.12-2.37-.52-.84-.84-.51-3.82-.51-5.24v-13.44c0-1.78-.63-3.72.33-4.93.6-.77 2.9-.51 3.83-.51h11.2c1.25 0 3.05-.48 3.83.5.67.85.29 2.98.38 3.98.12 1.22.26 1.93.27 3.2v9.28c0 1.29-.27 2.56 1.3 2.83 1.83.31 4.66.05 6.7.05h15.04c1.3 0 2.9.02 4.16 0 .95-.02 1.83.04 2.14-1.01.5-1.66.1-5.26.1-7v-6.71c0-1.44.28-2.82-.1-4.12-.43-1.46-2.34-1-3.74-1h-11.2c-1.01 0-3.17-.3-3.97.32-.8.65-.51 1.78-.51 2.88 0 3.11.91 7.97-.24 10.5-.46 1.03-1.4 1-2.32 1.01-.9.01-1.95.11-2.37-.74-1.27-2.58-.19-7.76-.19-10.77V86.47c0-2.77.02-5.9 0-8.64 0-1.2.1-2.4-1.3-2.77-.93-.26-3.12-.4-3.63.64-.77 1.57-.19 4.57-.19 6.3v15.67c0 1.39.58 5.85-.51 6.72-.73.57-1.7.32-2.69.32h-9.92c-1.28 0-5.12.69-6.07-.5-.58-.74-.33-1.7-.33-2.7V66.63c0-2.82-1.01-8 .2-10.45.44-.9 1.8-.74 2.68-.75h43.84c.88.01 1.92-.17 2.37.75.49 1 .19 2.94.19 4.05v9.92c0 1.13.42 3.35-.33 4.3-.71.9-2.82.5-3.83.5H89.89c-1.14 0-4.06-.36-4.6.75-.66 1.32-.2 2.87-.2 4.7v16.95c0 1.67-.44 4.9.2 6.36.43.99 1.3.98 2.36 1 2.94.06 6.3 0 9.28 0 2.1 0 5.98.87 7.49-.32 1.1-.88.51-3.31.51-4.48V88.07c0-1.23.35-2.47-.74-3-.88-.44-2.73-.2-3.74-.2-2.7 0-6.66.66-9.23-.1-1.07-.32-1-1.24-1-2.14-.02-.74-.1-1.25.18-1.81.4-.8 1.33-.73 2.05-.74 1.74-.04 3.97 0 5.76 0h17.6c1.86 0 6.64 1.1 8.45-.34.6-.47.52-1.3.5-2.23 0-.94.06-1.82-1-2.13-2.22-.66-3.7-.1-5.71-.1-2.84 0-7.93 1.2-8-2.25-.08-4.05 0-9.27 0-13.44 0-1.5-.55-2.98.51-3.83.65-.5 2.17-.33 3.01-.33h7.68c1.82 0 6.01-.74 7.52.33 1.4 1 .8 3.36.8 5.11v17.28c0 1.4.02 3.12 0 4.48-.02.92.02 1.86-1 2.33-3.14 1.41-10.21.23-14.04.23-1.66 0-3.52-.68-4.47.52-.66.83-.33 3.48-.33 4.6v10.56c0 1.82-.22 3.42 1.6 3.77 2.48.47 7.02.07 9.6.07h8c1.1 0 2.48.06 3.52-.01.65-.04 1.44-.08 1.91-.76.5-.73.33-1.47.33-2.43v-43.2c0-1.05-.22-1.96.51-2.55.69-.54 2.43-.33 3.33-.33h16.64c.93 0 2.54-.29 3.33.33.8.64.48 2.31.57 3.2.15 1.6.26 2.36.26 4.15v8.96c0 1.04.18 2.21-.74 2.83-1.28.85-3.45.37-5.02.37h-9.6c-1.3 0-2.72-.3-3.74.2-.72.36-.7 1.08-.73 1.73-.08 1.74 0 4.53 0 6.4v14.71c0 1.98-.4 5.84 1.29 6.3 2.99.82 6.2.1 8.94.1 1.8 0 7.31.57 8.86-.19 1.49-.73.74-2.94.74-4.6 0-3.53-.32-5.95-.32-9.29 0-1.18.36-4.05-.33-4.92-.51-.65-1.3-.5-2.23-.52-2.4-.01-8.9.44-10.86-.1-1.42-.39-2.05-3.18-.97-4.5.85-1.03 4.43-.2 6.07-.2h20.48c1.5 0 3.35.04 4.8 0 1.17-.03 2.42.08 3-1.32.52-1.2.3-3.29-1.12-3.7-2.86-.82-6.9-.1-9.88-.1-1.17 0-3.06.33-3.65-1-1.48-3.4-.19-10-.19-13.72 0-1.2-.37-3.29.2-4.36.48-.93 1.8-.46 2.68-.44 1.04.02 1.89-.1 2.88-.15 2.76-.11 6.46-.17 9.28-.17 1.1 0 3.47-.31 4.29.33 1.39 1.1.51 3.86.51 5.75v16.64c0 1.4.03 3.13 0 4.48-.01.74.05 1.44-.51 1.97-.76.71-2.2.6-3.33.6-3.84 0-10.5-.16-14.08 0s-1.92 8.56-1.92 11.51c0 1.72-.84 6.62.74 7.67 1.08.72 4.13.33 5.34.33h13.12c1.24 0 4.59.6 5.25-.74.78-1.58.2-3.2.2-4.7V68.23c0-3.06-.13-8.04 0-10.87.05-1.13.21-1.78 1.6-1.9 5.34-.49 11.2-.03 16.63-.03 1.5 0 4.7-.43 5.98.2 1.09.53.74 1.77.74 3v11.84c0 1.4.36 3.4-.51 4.25-.92.9-2.47.55-3.97.55h-9.92c-1.36 0-3.28-.5-4.7.2-.8.39-.72 1.2-.74 2.04-.02 1.36 0 3.09 0 4.48v16.96c0 2.1-.93 4.29.52 5.43.74.6 4.15.33 5.24.33 1.56 0 2.74.22 4.16.27 2.47.09 6.39.38 8.91-.37 1.04-.3 1-1.18 1.01-2.14.07-3.87 0-9.11 0-13.12 0-1.24.34-3.15-.51-3.83-.62-.48-1.59-.32-2.37-.33-2.52 0-8.38.5-10.54-.1-1.5-.41-1.31-1.56-1.3-2.78.01-.87-.03-1.66.74-2.04 1.98-.98 7.77-.2 10.14-.2h33.92c1.48 0 3.62.53 4.29-1 2.1-4.81-3.62-4.12-6.53-4.12-2.32 0-3.37.3-5.44.32-3.35.04-7.17 0-10.56 0-2 0-5.18.84-6.53-.51-.7-.7-.5-3.04-.5-4.29V59.91c0-1.54-.5-2.93.32-3.96.96-1.22 7.8-.52 9.6-.52h28.79c2.07 0 4.72.05 6.72 0 1.05-.03 1.78-.34 2.86-.24.75.07 1.05.42 1.2.93.6 2.05.1 7.28.1 9.87v35.52c0 .92.15 2.03-.51 2.69-.86.86-2.7.51-3.97.51h-10.56c-1.5 0-2.97.4-4.06-.33-1.02-.68-.74-2.56-.74-3.83V89.67c0-1.15.52-3.98-.74-4.6-1.57-.78-4.57-.2-6.3-.2h-15.36c-1.63 0-5.23-.49-6.62.2-1.35.66-.74 2.44-.74 3.96v10.56c0 1.68-.5 3.14.33 4.38.7 1.05 2.93.74 4.15.74h11.52c.76 0 2.63.19 3.33-.51.74-.74.51-1.97.51-3 0-2.83-1-8.03.2-10.47.47-.97 2.66-1.12 3.86-.54 1.25.59 1.03 1.95 1.06 3 .03 1.29 0 3.12 0 4.48v19.2c0 1.35-.09 2-.23 3.2-.12 1.04-.25 2.78.53 3.65.86.95 4 .87 4.4-.5.58-1.93.1-5.01.1-6.99 0-2.42-.38-2.93.05-5.42.27-1.6 2.6-1.3 4.11-1.3h10.24c1.3 0 3.21-.26 4.43.1 1.54.46 1.01 2.24 1.01 3.74 0 3.97 1.26 11.76-.2 14.97-.44 1-1.46 1-2.36 1.03-1.26.04-2.85 0-4.16 0h-16.64c-1.74 0-4.72.66-5.89-.51-.73-.74-.5-2.5-.5-3.65v-11.84c0-1.4.47-2.72-.52-3.5-.8-.64-3.22-.34-4.29-.34h-11.2c-1.42 0-3.33-.36-3.74 1.01-.41 1.4-.1 3.67-.1 5.4v13.11c0 1-.03 2.25 0 3.2.04.66.05 1.37.74 1.82.75.49 1.54.41 2.46.42 2.85.04 6.08 0 8.96 0 3.73 0 7.68-.05 11.2-.05 1.63 0 2.99.07 4.8.05 1.17-.01 1.8-.16 2.88-.26 1.66-.16 4.66-.12 6.4-.04 1.15.05 1.81.27 2.88.29 1.13.02 2.02-.26 3.2-.3 1.4-.04 2.32.3 3.52.27.64 0 1.42-.35 2.05.08 1.29.88.51 3.45.51 5.08v13.12c0 1.82.48 3.97-.2 5.34-.55 1.13-3 .74-4.28.74h-10.24c-1.25 0-3.23.37-4.38-.19-1.33-.65-.74-3.14-.74-4.29v-11.2c0-1.28.4-2.42-.33-3.32-.5-.64-1.55-.51-2.23-.52h-22.08c-1.42 0-4.39-1.1-5.02 1.01-.36 1.22-.1 2.92-.1 4.43 0 3.7-.02 7.52 0 11.2.01 1.44 0 2.57 1.6 2.84 2.15.34 3.22.34 5.12.36 3.08.04 6.26.02 9.28 0 1.23 0 3.06.2 3.83-.83.8-1.04.2-2.19.07-3.65-.24-2.52-.8-7.93.13-9.82.5-1 3.88-1.13 4.6-.22 1.15 1.45.33 4.73.33 6.84v24.64c0 .83-.14 1.94.74 2.37 1.71.84 3.63.1 3.96-1.1.25-.9.1-1.64.1-2.55v-7.04c0-1.11-.15-3.2.74-3.64 3.09-1.52 10.24-.2 13.98-.2 1.3 0 3.67-.41 4.6.33.95.75.52 3.24.52 4.47v9.92c0 1.52.37 2.93-.2 4.06-.63 1.3-4.7.74-6.2.74h-17.28c-1.3 0-4.85.62-5.75-.51-.82-1.03-.33-3.69-.33-4.93v-8.64c0-1.3.34-4.71-.74-5.24-1.18-.58-2.67-.2-4.06-.2h-10.56c-1.2 0-3.85-.14-4.29.74-.75 1.53-.19 3.5-.19 5.34v12.8c0 1.42-.24 4.65.82 5.43 1.95 1.45 7.53.33 10.06.33h35.84c.77 0 1.77-.15 2.37.33 1.16.92.13 3.67.28 5.11.49 4.54.23 9.2.23 13.76 0 1.7.55 3.4-.33 4.66-.51.75-1.47.75-2.23.78-1.91.06-4.42 0-6.4 0-2.57 0-5.46.04-8 0-1.09-.01-2.2.06-2.69-1.03-1-2.24-.19-8.66-.19-11.13v-3.2c0-1.6.58-3.28-.51-4.15-.97-.77-4.55-.33-5.89-.33h-16.64c-1.38 0-5.83-.67-6.53.74-.69 1.41-.19 2.86-.19 4.38 0 3.24-.13 6.69.01 9.92.04.82.16 3.79.56 4.25.57.65 1.4.54 2.31.55 2.64.04 5.65 0 8.32 0 1.86 0 3.93.03 5.76 0 .84-.01 1.75.05 2.37-.55.67-.66.51-1.7.51-2.65 0-2.87-.67-7.9.1-10.5.34-1.15 1.47-1.02 2.46-1.02.73 0 1.73-.12 2.23.52 1.12 1.4.33 4.99.33 6.84v18.88c0 1.78-.03 4.04 0 5.76.02.85-.06 1.66.74 2.05 2.13 1.05 3.98-.12 4.05-1.73.05-.92.01-1.56.01-2.56v-7.36c0-.86-.2-2.22.74-2.68 1.15-.57 3.13-.2 4.38-.2h9.92c1.07 0 3.49-.3 4.29.33 1.07.85.51 2.33.51 3.83v10.24c0 1.6.4 3.18-.2 4.38-.63 1.3-4.7.74-6.2.74h-17.28c-1.3 0-4.85.62-5.75-.51-.82-1.04-.33-3.67-.33-4.93v-9.28c0-1.66.69-3.52-.51-4.47-1.33-1.05-3.84-.33-5.25-.33h-4.16c-1.49 0-8.64-.68-9.59.52-1.22 1.54-.33 3.6-.33 5.56v12.48c0 1.37-.34 3.86.2 5.08.43.99 1.3.98 2.36 1 2.94.06 6.3 0 9.28 0h27.52c1.74 0 7.96-.56 9.5.2 1.55.76.74 3.19.74 4.92v13.12c0 1.71.31 4-.1 5.4-.55 1.86-8.42 1-10.46 1h-3.84c-1.53 0-3.16.37-4.43-.19-1.23-.54-1-2.89-1-4.29v-10.88c0-1.51.47-2.94-.34-3.96-.82-1.04-4.96-.52-6.39-.52h-17.28c-1.57 0-5.1-.7-5.66 1.3-1.12 4.09-.1 9.82-.1 14.06 0 1.28-.45 3.65 1 4.29 1.23.53 3.13.2 4.44.2h9.92c1.11 0 3.69.47 4.29-.75.76-1.54.2-2.93.2-4.38 0-1.7-.22-6.8.04-8.3.25-1.46 3.34-2.15 4.42-.78.6.75.31 2.69.34 3.64.03 1.55.27 2.16.3 3.52.03 1 .01 2.43.01 3.52v33.92c0 1.16-.64 3.53 1 4.07.92.3 2.52.63 3.29-.1 1-.96.51-3.6.51-4.93v-17.92c0-2.04-.96-5.22.51-6.39.77-.6 2.95-.33 3.97-.33 3.83 0 6.58.32 10.24.32 1.66 0 4.52-.8 5.02.98.69 2.49.1 8.75.1 11.82v24.64c0 2.92 1.08 8.47-.2 11.1-.67 1.4-3.24 1.1-4.6 1.06-2.05-.05-2.76-.48-5.12-.18-1.68.21-2.19-.05-3.84-.12-2.37-.1-4.97-.02-7.36-.02h-18.88c-2.27 0-4.8.04-7.04 0-1.06-.02-1.93-.01-2.37-1-.44-1.03-.19-2.97-.19-4.12v-10.24c0-1.1-.48-3.68.74-4.28 1.08-.53 2.9-.2 4.06-.2 3.33 0 7.01-.17 10.24.17 1.24.13 3.62.41 4.47-.68 1.04-1.34.33-5.2.33-6.85v-16.96c0-1.75.67-3.85-.51-4.79-1.33-1.05-3.84-.33-5.25-.33-3.6 0-6.23-.32-9.92-.32-1.05 0-3.4-.44-3.96.74-.49 1.02.1 2.46.08 3.42-.04 1.61-.4 2.69-.22 4.48.2 2.11.26 3.06.26 5.44 0 1.68-.77 4.42.51 5.43.73.58 2.42.33 3.33.33 2.7 0 7.37-.64 9.87.1 1.02.3 1 1.16 1 2.14.02.91.13 1.71-.5 2.33-.56.54-1.34.53-2.05.55-1.36.04-3.08 0-4.48 0h-19.52c-1.59 0-3.58.03-5.12 0-.66-.02-1.76-.32-2.37.07-.53.34-.48.99-.5 1.53-.06 1.35-.29 2.72 1 3.1 2.5.74 6.87.1 9.55.1.95 0 2.6-.21 3.42.2 1.35.66.74 2.45.74 3.96v10.88c0 1.36.4 2.97-.33 4.06-.63.94-2.4.74-3.5.74h-11.53c-1.3 0-3.48.26-4.15-.74-.98-1.47-.33-4.37-.33-6.3v-15.68c0-1.86-.34-4.53.1-6.03.55-1.84 2.9-1 4.38-1h11.2c1.7 0 3.6.35 4.06-1.3.33-1.2.1-3.08.1-4.47v-9.92c0-1.48.55-3-.51-3.83-.92-.73-4-.33-5.25-.33h-13.76c-1.2 0-3.96-.44-4.93.33-.87.7-.5 2.08-.5 3.2v36.79c0 1.81.03 4.02.22 5.76.1.9.16 1.95-.5 2.78-.67.85-1.48.73-2.6.74-3.27.03-6.66 0-9.93 0-3.49 0-7.17.5-10.54-.42-1.46-.4-1.3-1.82-1.3-3.1v-11.52c0-1.35-.36-3.41.33-4.28.45-.58 1.26-.5 1.91-.52 1.35-.02 3.1 0 4.48 0h3.84c1.6 0 7.12.5 8.54-.19 1.65-.81.74-3.72.74-5.57v-17.6c0-1.3.02-2.9 0-4.16-.02-.85.06-1.65-.74-2.04-.94-.47-2.97-.2-4.06-.2h-10.24c-1.11 0-3.69-.47-4.47.52-.7.89-.33 2.9-.33 3.96v10.24c0 1.17-.3 3.45.33 4.38.5.75 1.26.72 2.23.74 2.6.05 6.37 0 8.96 0 .99 0 1.96-.24 2.69.33.72.57.72 2.91.32 3.73-.75 1.52-5.7.74-7.17.74s-3.4-.08-4.8.06c-1.63.15-2.27.27-4.16.26-2.5 0-3.9-.43-6.72-.3-1.38.06-2.15.3-3.52.3-1.7.01-5.56-1.52-7.49.01-.56.45-.5 1.18-.5 1.91-.02.92-.18 1.95.73 2.55.78.52 1.84.33 2.78.33 2.3 0 7.98-.28 9.9.05 1.73.3 1.3 2.11 1.3 3.8v10.55c0 1.24.32 3.28-.2 4.41-.57 1.29-1.97 1.03-3.32 1.03h-10.56c-1.56 0-3.18.25-4.46-.14-1.94-.58-1.3-4.33-1.3-6.26v-16.32c0-1.56-.46-4.96.2-6.3.62-1.26 2.2-.74 3.64-.74h10.56c1.5 0 3.25.33 4.43-.19 2-.87 1.01-8.7 1.01-11 0-1.67.92-7.97-1-8.55-1.77-.52-4.2-.1-6.04-.1h-12.48c-2.4 0-4.99-.86-5.11 1.92-.11 2.53 0 6.88 0 9.6 0 7.39.03 15.76 0 23.04-.01 1.27-.16 1.98-.27 3.2-.22 2.24.12 4.53.18 6.72a14 14 0 0 1-.34 3.82c-.6 2.17-3.63 1.3-5.66 1.3-4.07 0-8.75.05-12.8 0-1.22-.01-4.12.25-5.25-.65-1.32-1.04-.5-6.08-.5-7.67v-8.32c0-.83-.25-2.27.5-2.87.9-.7 2.9-.33 3.97-.33h10.24c1.18 0 3.7.37 4.56-.51 1.33-1.35.56-3.53.56-5.57v-16.64c0-1.4.03-3.12 0-4.48-.02-.89.03-1.71-.74-2.23-.91-.6-2.96-.33-4.06-.33h-10.24c-1.13 0-3.34-.41-4.28.33-.9.72-.52 2.82-.52 3.83 0 2-.13 4.1.06 6.08.11 1.26.28 2.97.23 4.16-.07 1.42-.82 3.22-.1 4.7.57 1.14 2.44.74 3.33.74h2.56c2.13 0 5.54-.5 7.64.1 1.45.42 1.67 2.45 1.13 3.7-.62 1.41-6.3 1-8.13 1h-19.2c-1.63 0-5.53-.71-6.85.33-1.5 1.19-.66 4.46 1.1 4.75 1.58.25 6.94.04 8.63.04 1.16 0 3.07-.63 4.29.33.72.58.5 1.49.51 2.55v11.2c0 1.29.35 4.01-.33 5.02-.86 1.3-2.96.74-4.47.74h-5.76c-2.6 0-6.24 1.21-8.54-.33-.79-.52-.72-1.44-.74-2.23-.02-1.27 0-2.85 0-4.16v-15.04c0-1.84-.13-4.73.02-6.4.2-2.23 2.48-1.6 4.46-1.6h11.52c1.4 0 2.73.48 3.51-.51 1.07-1.35.33-5.62.33-7.17v-8.96c0-1.13.17-2.46-1.03-3-2.46-1.11-7.45-.2-10.17-.2h-9.6c-1 0-2.8-.33-3.65.33-.8.64-.51 2.3-.51 3.2v8.63c0 4.29-.26 8.87.03 13.12.08 1.17.3 2.1.28 3.2 0 .85-.1 1.37-.08 2.24 0 .83.08 1.42.09 2.24v12.16c0 1.21.25 2.76-.56 3.68-.96 1.09-3.21.8-4.88.8h-12.8c-2.03 0-4.07.5-5.71-.23-1.24-.57-1.01-2.3-1.01-3.6v-9.93c0-1.45-.1-3.2.02-4.47.21-2.34 2.01-1.6 3.82-1.6h10.56c1.43 0 4.15.08 4.93-.63 1.28-1.15.51-3.58.51-5.46v-16.96c0-1.98 1.04-5.64-.74-6.52-.94-.47-2.97-.2-4.06-.2H59.81c-1.11 0-3.68-.48-4.29.74-.56 1.15-.19 3.13-.19 4.38v9.92c0 1.25-.28 3.44.56 4.29.5.52 1.14.5 2 .51 2.31.05 8.47-.17 10.55.02 1.78.16 2.48 2.76 1.28 4.27-1.08 1.36-6.36.51-7.99.51-5.3 0-11.84.48-16.96.16-2.2-.14-3.9-.03-6.08.02-.81.02-1.97-.4-2.69.15-1.02.8-.85 4.3.5 4.7 2.74.8 6.69.1 9.55.1 1 0 2.8-.34 3.65.32.98.78.51 3.36.51 4.47 0 3.9.9 10.08-.1 13.74-.4 1.49-1.68 1.3-3.1 1.3H36.13c-1.4 0-3.28.23-4.46-.1-2.14-.59-1.3-4.56-1.3-6.62v-15.04c0-2.13-.44-5 .37-6.99.6-1.48 2.3-1 3.79-1h9.6c1.35 0 3.26.14 4.48-.05 2.4-.4 1.92-2.21 1.92-4.12 0-1.25-.05-2.08-.05-3.2 0-.8.04-1.46.05-2.24v-5.12c0-1.55.13-4.4-1.03-4.92-.92-.42-1.66-.2-2.81-.2H31.33c-1.17 0-4.9-.61-5.57.75-.8 1.64-.19 5.15-.19 6.93v38.08c0 1.35.33 2.49-.51 3.33-.96.96-4.54.51-5.89.51h-6.4c-2.17 0-9.02.43-10.84-.1-1.91-.55-1.34-3.5-1.32-5.34s.3-2.53.32-4.16c.02-2.09-.39-7.58.1-9.23.44-1.48 2.87-1 4.38-1h10.24c1.5 0 3.34.36 4.38-.34.7-.47.7-1.22.73-1.9.05-1 .01-2.48.01-3.53v-16.96c0-1.46.54-6.21-.74-6.84-2.55-1.26-9.98-.2-13.34-.2-1.31 0-4.05-.28-5.02.2-1.25.61-.74 2.5-.74 3.96v10.56c0 1.47-.42 3.13.2 4.38.47.98 2.55.74 3.64.74h8c.96 0 1.97-.22 2.55.52.67.85.65 3.79-.68 4.18-3.68 1.1-10.84.06-13.71.42m199.36-262.4h.32m-110.4 251.2v.32" fill="none" stroke="#242019"/></svg>