<svg xmlns="http://www.w3.org/2000/svg" viewBox="0 0 244.612 76.836"><path d="M0 57.29h13.76c1.942 0 4.337-.611 5.978.193.94.46.426 1.408 1.255 2.037.588.446 1.536.232 1.854-.412.547-1.11.599-3.62-.549-4.185-2.335-1.149-8.255 1.432-6.938-3.073 2.582.47 5.004.314 7.68.32.91.002 2.233-.18 2.687.742 1.029 2.09.192 6.654.193 9.178 0 .968-.213 2.831 1.001 3.08 1.386.282 1.535-.91 1.558-2.12.066-3.526.88-9.451-.1-12.753-.401-1.349-1.811-1.007-3.099-1.007-3.934-.002-7.903 0-11.84 0-.83 0-5.745-.303-3.327-2.231.946-.754 3.14-.33 4.287-.33h11.84c1.162 0 4.01-.472 4.791.514.716.903.329 2.868.329 3.967v10.56c0 2.488-.755 5.797.193 7.952.32.729 1.17 1.133 1.854.489 1.092-1.029.513-4.35.513-5.881v-14.4c0-1.382.57-4.433-.329-5.567-.925-1.168-4.716-.513-6.071-.513H10.56c-1.592 0-3.88.348-5.393-.102-.885-.263-1.303-1.483-.494-2.13 1.276-1.016 4.945-.328 6.527-.328h18.24c2.022 0 5.93-1.065 6.848.742.654 1.287.505 3.021.512 4.378.008 1.767.037 4.366-.005 6.08-.023.946-.206 1.587-.232 2.56-.04 1.468.237 3.569.237 5.44 0 4.263-.009 8.539 0 12.8.003 1.444.715 3.673 2.047 2.365 1.206-1.183.513-6.274.513-8.125V46.41c0-1.742.755-6.118-.329-7.487-1.107-1.398-6.605-.513-8.311-.513H9.28c-1.565 0-6.083.53-7.167-.329-1.366-1.082-.513-4.19-.513-6.071 0-3.294.036-7.002-.001-10.24-.024-2.06-.319-3.132-.319-5.44V5.77c0-1.146-.524-4.009.741-4.606C5.091-.282 4.16 6.854 4.16 8.33v20.48c0 1.537-.443 5.92.742 6.711 1.531 1.022 4.748.329 6.618.329h17.6c1.914 0 5.862.712 7.167-.329.868-.692.351-1.878-.494-2.13-2.67-.792-7.173-.101-10.193-.101H12.8c-1.532 0-3.758.51-5.018-.329-1.357-.904-1.142-4.487-1.033-6.071.057-.833.23-1.433.25-2.24.022-.898-.19-1.678-.25-2.56-.148-2.153-.029-5.522-.029-7.68v-3.2c0-1.262-.472-3.598.329-4.607C9.296 3.773 9.6 9.613 9.6 10.57v14.08c0 1.335-.523 4.171.329 5.247.805 1.016 3.609.513 4.791.513h11.2c1.334 0 3.554.439 4.698-.329 2.567-1.721-1.83-2.231-2.778-2.231H16.32c-1.303 0-3.085.377-3.831-.742-.597-.895-.329-2.673-.329-3.738 0-2.918-.006-6.034 0-8.96.002-.888-.222-2.253.74-2.68.783-.349 1.553.142 1.854.807 1.285 2.84-.23 7.829.333 11.134.182 1.065.824 1.246 1.874 1.293 1.778.078 6.327.509 7.951-.232 1.639-.746.413-2.186-.913-2.303-1.802-.16-4.632.721-5.886-.532-.619-.62-.513-1.568-.513-2.367 0-.77-.131-1.726.513-2.23.47-.37 1.393-.357 1.854 0 .58.447.445 1.448 1.026 1.901 1.3 1.015 4.911.329 6.527.329H56c1.738 0 3.758.732 4.793-.513.522-.63 1.059-3 2.694-1.718.578.453.5 1.217.512 1.911.014.868.152 2.023-.512 2.687-1.213 1.213-4.62.388-6.2.532-.934.085-2.265.833-1.092 2.028.779.794 1.711.51 2.685.513 1.44.003 6.347.754 7.351-.513.62-.784.329-2.396.329-3.327 0-2.594-.215-5.424.019-7.994.132-1.452 1.776-2.046 2.532-1.093 1.308 1.647.329 7.15.329 9.407 0 1.684.63 3.507-.193 5.393-.626 1.433-2.098 1.007-3.647 1.007-4.15 0-8.334-.009-12.48 0-1.367.003-3.77.615-2.365 2.047.854.87 2.56.513 3.965.513h11.84c1.257 0 3.888.494 4.927-.329 1.025-.812.513-3.629.513-4.791v-14.4c0-1.329-.273-6.54 2.367-4.47 1.2.94.513 4.502.513 6.07v14.72c0 1.382.38 4.275-.329 5.338-1.055 1.582-4.128.742-6.071.742H50.56c-1.322 0-3.285-.153-4.461.047-1.365.233-1.792 1.664-.292 2.32 1.393.608 4.62.193 6.353.193h17.28c1.748 0 6.214.582 7.578-.329 1.778-1.186.742-4.868.742-7.031 0-6.93-.32-12.642-.32-19.52 0-2.056-.292-4.71.047-6.701.165-.967.825-1.443 1.827-1.191 1.904.478 1.006 6.612 1.006 8.212v21.76c0 1.668.561 6.07-.513 7.122-1.307 1.28-4.882.631-6.847.545-1.082-.047-1.753-.245-2.88-.294-5.968-.262-13.122-.013-19.2-.013-1.898 0-7.037-.897-8.447.513-1.296 1.296-.211 3.836-.194 5.247.059 4.95.001 10.66.001 15.68v12.16c0 .998-.439 3.494.74 3.948 1.338.516 1.766-.929 1.814-2.028.161-3.702.006-7.49.006-11.2V46.41c0-1.899-.797-4.716 1.299-5.073 1.614-.275 4.863-.047 6.701-.047h18.24c1.316 0 5.568-.604 6.385.513.707.967-.353 1.85-1.271 2-2.496.405-5.454.047-7.994.047H53.44c-1.272 0-4.339-.39-5.247.329-1.247.988-.513 3.39-.513 5.11v15.36c0 1.81-.817 4.725.513 5.75 1.76 1.357 2.047-3.066 2.047-4.47v-13.44c0-1.275-.331-3.952.193-5.017.732-1.489 2.949-.742 4.607-.742h12.48c1.516 0 3.302-.587 4.15.513 1.174 1.523-1.832 2.047-3.19 2.047H57.92c-1.08 0-3.146-.256-4.058.193-.994.489-.74 1.514-.742 2.687-.006 3.083 0 6.195 0 9.28 0 1.273-.343 2.484.329 3.327.633.793 1.981.403 2.184-.786.447-2.623.047-5.64.047-8.301 0-1.033-.244-2.592.513-3.191 1.28-1.014 6.48-.41 8.446-.323.929.041 2.07.234 1.8 1.553-.26 1.276-1.781.999-2.759 1-1.32.004-4.031-.446-4.791.514-.55.693-.364 1.746-.323 2.685.186 4.258 2.163.11 3.296-.445 2.336-1.145 7.222-.193 9.818-.193h23.68c1.586 0 4.61-.575 5.979.329.97.64.559 1.687 1.481 2.203.496.278.94.174 1.307-.171.83-.781.981-4.133-.229-4.728-1.796-.884-4.77.475-6.516-.386-.952-.469-.769-1.795 0-2.174.574-.283 1.142-.188 1.818-.193 1.641-.011 6.843-.937 7.991.513 1.527 1.928.23 8.256.335 10.687.046 1.052.558 2.569 1.826 1.892 1.193-.636 1.015-1.78 1.043-2.852.039-1.44.005-3.648.005-5.12 0-1.681.667-6.486-.833-7.671-.942-.745-3.155-.33-4.287-.33H94.4c-1.132 0-4.741-.592-2.687-2.23 1.16-.925 3.748-.33 5.247-.33h10.56c1.209 0 4.27-.548 5.111.514.745.94.329 3.157.329 4.287v11.52c0 1.982-.266 4.467.047 6.394.154.945 1.012 2.017 2 1.087.879-.828.472-2.742.526-3.961.115-2.631.408-5.524.27-8.32-.046-.948-.271-1.491-.216-2.56.076-1.479.271-2.128.252-3.84-.016-1.354-.245-2.128-.306-3.52-.047-1.07.436-3.39-.526-4.151-1.227-.972-4.701-.33-6.207-.33H91.84c-.923 0-8.633.215-5.567-2.23.722-.576 2.112-.329 3.007-.33h22.4c1.402 0 5.44-.687 6.391.514 1.08 1.365.329 5.478.329 7.167v19.84c0 1.885-.25 4.24.047 6.074.17 1.04.975 1.91 2.092 1.222.783-.482.724-1.38.74-2.176.034-1.837 0-3.901 0-5.76V46.41c0-1.756.032-3.704 0-5.44-.013-.665.048-1.467-.512-1.911-.543-.43-1.38-.324-2.047-.329-2.04-.014-4.335 0-6.4 0H91.84c-1.855 0-3.928.044-5.76-.005-.779-.02-1.495 0-2.138-.417-.739-.48-.725-1.33-.74-2.138-.039-2.033-.002-4.34-.002-6.4 0-3.289-.082-5.583-.291-8.64-.247-3.602-.029-7.856-.029-11.52V4.17c0-.888-.241-1.91.193-2.762 1.165-2.288 2.664.334 2.686 1.482.147 7.828.001 16.422.001 24.32 0 1.972-.035 4.128.002 6.08.013.693-.027 1.51.511 2.047.814.814 2.155.513 3.327.513h24.32c1.047 0 3.42.435 4.15-.513 2.009-2.607-4.7-2.047-5.43-2.047H94.72c-1.321 0-5.22.615-5.887-.742-1.37-2.784-.178-8.926-.193-12.058-.007-1.326-.151-1.996-.266-3.2-.126-1.333-.054-3.096-.054-4.48 0-1.497-.6-5.518.513-6.39 1.971-1.546 2.367 2.503 2.367 4.15v13.12c0 1.546-.186 4.053.047 5.421.308 1.804 2.082 1.299 3.793 1.299h12.48c1.265 0 4.292.548 5.11-.513.493-.64.201-1.552-.412-1.854-.981-.484-1.876-.193-3.098-.193H98.56c-1.1 0-3.064.386-3.967-.329-.878-.695-.513-2.814-.513-3.831 0-2.815-.32-5.356-.32-8.32 0-1.004-.389-3.113.741-3.646 1.71-.806 2.115.837 2.138 2.046.048 2.574-.046 6.386.003 8.96.019 1.023-.017 1.835 1.005 2.138 1.79.531 6.98.56 8.866 0 1.361-.404.994-2.061 0-2.356-2.186-.65-4.72.962-6.48-.431-1.039-.823-1.096-3.936 0-4.78 1.347-1.039 2.056 1.505 2.56 1.991 1.351 1.305 3.874.558 5.887.558h23.04c2.691 0 7.112.248 9.599-.035 2.14-.244 1.265-2.75 3.201-2.75 1.813 0 1.826 4.518.538 5.152-1.67.822-5.846-.708-6.928.706-.542.71-.146 1.814.677 2.174 1.699.742 7.339.646 8.866-.045 1.938-.876 1.006-8.096 1.007-10.322 0-1.15-.18-3.412 1.587-3.08 1.248.235 1.271 1.355 1.292 2.44.055 2.937 0 6.303 0 9.28 0 1.148.183 2.515-.101 3.473-.432 1.453-2.25 1.007-3.738 1.007h-10.88c-1.368 0-4.025-.639-4.36 1.001-.15.738.226 1.26.887 1.549 1.082.472 1.834.328 3.153.33 3.893.006 7.647 0 11.52 0 1.377 0 3.574.23 4.781-.102 1.86-.51 1.299-2.589 1.299-4.378V12.49c0-1.31-.455-7.92 2.367-5.75.819.63.513 2.278.513 3.19v8.96c0 3.625.002 7.255 0 10.88 0 1.337.31 2.489-.742 3.191-1.2.8-4.78.329-6.298.329H132.8c-1.224 0-8.285-.297-5.567 2.285.569.54 1.352.547 2.047.582 1.54.078 3.53.013 5.12.013h17.92c2.118 0 5.124.816 6.527-.558.937-.917.513-4.153.513-5.522V13.77c0-3.489-.155-7.225.006-10.879.056-1.277 1.068-2.605 2.36-1.592.887.694.514 2.376.514 3.51v28.48c0 1.871.796 4.46-1.007 5.248-1.746.762-5.654.193-7.633.193h-20.16c-2.383 0-6.683-.465-8.593.102-1.806.536-1.007 6.335-1.007 8.218v21.12c0 1.809-.616 6.186.329 7.577.601.885 1.73.672 2.222-.036 1.072-1.544.329-4.621.329-6.581V48.97c0-2.031-.784-5.787.329-7.166.79-.979 2.658-.198 3.831-.199 4.429-.003 8.954.005 13.44.005h11.2c1.075 0 2.857-.373 3.505.513 1.891 2.586-5.501 2.047-6.385 2.047h-16.96c-1.974 0-4.52-.754-5.887.329-.965.764-.513 4.454-.513 5.75v15.04c0 1.435-.462 4.297.513 5.246.959.933 2.225-.017 2.348-1.407.195-2.196.019-4.265.019-6.398v-9.92c0-1.754-.614-4.377.329-5.567.691-.873 2.965-.513 4.151-.513h12.8c1.269 0 4.737-.42 4.36 1.587-.345 1.832-2.41 1.293-4.04 1.293h-11.52c-1.374 0-2.741-.45-3.327.742-.396.805-.193 2.472-.193 3.418v8.64c.002 1.186-.192 2.832 1.293 2.988 1.728.182 1.586-2.098 1.587-3.308.001-2.35-.016-5.04 0-7.36.007-1.055-.148-2.115 1.007-2.458 1.985-.59 5.848-.27 7.952-.083.846.075 1.96.49 1.68 1.54-.712 2.678-6.314-.41-7.75 1.743-.873 1.307-.48 4.747 1.258 4.512 1.374-.187 1.229-2.168 2.592-2.42 3.093-.571 7.22.046 10.541.046h22.08c2.047 0 4.782-.783 6.207.329.543.423 1.445 3.141 2.88 1.718.58-.576.523-1.375.511-2.367-.008-.69.055-1.463-.511-1.911-1.55-1.228-4.084.147-6.188-.43-1.22-.336-1.694-1.94-.292-2.357 1.909-.568 5.322-.138 7.313-.1 1.023.019 1.835-.017 2.138 1.005.695 2.34.084 6.982.102 9.553.007 1.05.164 3.098 1.82 2.36 1.078-.48.74-2.384.74-3.32v-8.64c0-.931.292-2.543-.329-3.327-.716-.904-2.823-.513-3.831-.513h-10.24c-.96 0-5.564.203-3.83-2.047 1.172-1.52 7.741-.513 9.59-.513h8.32c.842 0 2.284-.228 2.871.513 1.008 1.272.329 3.95.329 5.247v13.44c0 1.003.36 6.588 2.231 4.285.888-1.092.252-4.828.383-6.205.12-1.262.264-2.243.266-3.52.005-3.076 0-6.778 0-9.92 0-1.546.186-4.054-.047-5.421-.375-2.2-3.736-1.3-5.713-1.3h-17.92c-1.533 0-3.704.305-5.073-.1-.888-.265-1.338-1.457-.494-2.13 1.276-1.017 4.945-.33 6.527-.33h17.92c2.027 0 5.87-.952 7.031.514.694.876.329 3.705.329 4.927v13.76c0 4.368-.08 8.753.001 13.12.021 1.14.567 2.92 1.818 2.212 1.736-.981.74-6.99.74-8.932 0-2.313-.156-5.464.055-7.68.102-1.076.25-1.733.264-2.88.036-3.04.001-6.52.001-9.6 0-2.222.751-5.96-.329-7.578-1.152-1.727-4.342-.447-5.75-.57-1.88-.165-4.002-.25-6.08-.16-.905.04-1.64.24-2.56.226-4.948-.073-9.853-.238-15.04-.238-1.632 0-6.913.849-7.992-.513-1.151-1.455-.328-5.997-.328-7.807V9.29c0-1.783-.927-7.34.741-8.126.59-.277 1.417-.176 1.81.319.642.81.329 1.92.329 3.007v26.24c0 1.43-.443 3.542.329 4.698.933 1.398 5.658.742 7.351.742h16.96c1.683 0 5.81.753 7.167-.329 1.094-.873.166-2.022-.786-2.184-1.11-.189-2.895-.047-4.141-.047h-16.64c-1.827 0-4.847.32-6.381-.139-1.982-.594-1.299-3.693-1.299-5.621V13.13c0-1.207-.002-2.668 0-3.84.001-.724-.192-1.711.329-2.367 2.165-2.727 2.551 2.774 2.551 3.967v14.08c0 1.335-.523 4.171.329 5.247 1.206 1.523 8.107.513 9.911.513h7.68c.885 0 2.566.296 3.19-.513 1.404-1.823-1.444-2.045-2.55-2.047-3.402-.007-6.835 0-10.24 0-1.413 0-3.263.22-4.461-.139-2.223-.666-1.299-6.588-1.299-8.821v-2.88c0-1.197-.618-2.774.329-3.967.573-.722 1.762-.579 2.222 0 .839 1.056.329 2.883.329 4.287 0 2.518-1.082 6.346.329 8.127.452.57 1.524.508 2.231.513 1.832.012 6.014.761 7.536-.329.858-.614.48-1.703-.25-2.038-1.379-.632-3.94.043-5.68-.24-1.601-.26-2.778-3.743-1.093-5.064 1.95-1.528 2.272 1.945 3.666 2.184 1.632.278 2.696.29 4.141.276 1.054-.01 1.863-.196 2.88-.171 1.071.026 1.803.23 2.88.257 2.663.065 4.974-.132 7.36-.132 2.053 0 4.094.163 6.4.136 1.323-.016 1.997-.208 3.2-.29 1.56-.107 3.245.043 4.8.064 2.05.027 4.441.285 6.381-.128 1.02-.217 1.013-.648 1.382-1.524.308-.73 1.12-1.321 1.964-.67.936.72.876 4.372-.229 4.916-1.296.637-9.025-.904-6.928 2.331.601.927 1.86.74 2.87.742 2.119.004 5.841.919 7.143-.742.834-1.064.524-2.602.536-3.738.018-1.806-.003-4.52 0-6.4.003-1.008.204-3.97 2.048-2.55 1.265.975.513 5.556.513 7.03 0 2.565.015 4.089 0 6.4-.006.827.128 1.723-.513 2.231-.755.598-2.563.329-3.647.329-4.31 0-9.96-1.013-13.713.102-.745.221-1.323 1.107-.677 1.945.81 1.052 4.075.484 5.43.518 1.303.032 1.995.25 3.2.302 2.279.1 8.8.326 10.878-.06 2.326-.432 1.922-2.399 1.922-4.407V11.85c0-1.561-.278-2.833.101-4.113.227-.763 1.081-1.343 1.946-.677 1.082.834.513 5.03.513 6.39v14.08c0 1.405.163 3.177-.047 4.474-.232 1.425-.931 1.545-2.193 1.6-1.31.057-2.46.006-3.84.006h-17.6c-1.643 0-3.93-.501-5.338.193-.705.348-.927 1.481-.229 2.038 1.118.891 5.047.329 6.527.329h17.92c1.494 0 6.028.754 7.031-.513.662-.836.291-2.68.383-3.647.115-1.204.26-1.874.266-3.2.027-5.564 0-11.374 0-16.96V6.41c0-1.32-.114-2.06.019-3.514.112-1.231 1.329-2.08 2.303-1.093 1.502 1.522.514 5.453.448 7.487-.222 6.89-.21 14.154-.21 21.12 0 1.893.915 7.157-.742 8.263-1.818 1.213-5.6.377-7.898.377-3.592 0-7.37-.012-10.88-.029-1.184-.005-2.048-.202-3.2-.266-1.792-.1-3.93-.025-5.76-.025-2.051 0-7.453-.965-9.087.329-1.299 1.028-.513 5.81-.513 7.35v21.76c0 1.743-.927 7.071.74 7.957.928.493 1.633-.41 1.773-1.25.347-2.093.046-4.576.047-6.706 0-2.177.296-3.17.319-5.12.05-4.246 0-9.134 0-13.44 0-1.892-.808-6.05.33-7.487.741-.936 3.858-.513 5.11-.513h23.04c.941 0 2.85-.347 3.51.513 1.65 2.145-2.226 2.424-3.51 2.338-3.745-.249-7.603.05-11.84.029-1.505-.008-2.176-.2-3.52-.291-1.155-.08-2.643-.03-3.84-.03-1.401 0-5.439-.687-6.39.514-.886 1.118-.33 3.815-.33 4.927v15.04c0 1.472-.002 2.182 0 3.52.003.969-.14 1.777.33 2.367.462.58 1.636.587 2.038-.229.493-1 .193-2.651.193-3.738V53.13c0-1.375-.394-4.146.193-5.338.722-1.468 2.973-.742 4.607-.742h12.48c1.546 0 3.273-.625 4.15.513 1.266 1.643-1.948 2.047-3.19 2.047h-10.56c-1.08 0-3.146-.256-4.058.193-.994.489-.74 1.514-.742 2.687-.006 2.765-.79 10.383.193 12.378.514 1.043 2.09.79 2.32-.557.464-2.723.047-5.858.047-8.621 0-.897-.294-2.552.513-3.191 1.188-.941 4.464-.337 5.887-.266 1.108.054 2.755-.39 3.738.266.94.626.853 2.117-.265 2.45-1.695.503-4.37-.277-5.986.203-1.44.427-1.795 3.03-.678 4.546.567.77 1.747.449 2.148-.525.784-1.903 1.77-1.563 3.923-1.563h16" fill="none" stroke="#2e2922"/></svg>