<?xml version="1.0" encoding="UTF-8" standalone="no"?>
<!-- Created with Inkscape (http://www.inkscape.org/) -->

<svg
   version="1.1"
   id="svg1"
   width="271.75143"
   height="104.03979"
   viewBox="0 0 271.75143 104.03979"
   xmlns="http://www.w3.org/2000/svg"
   xmlns:svg="http://www.w3.org/2000/svg">
  <defs
     id="defs1" />
  <g
     id="g1"
     transform="translate(-2.6133022,-1.8768528)">
    <path
       style="fill:none;stroke:#453d32"
       d="m 256.76457,2.3768528 h 0.32 m -5.44,0.64 h 0.32 M 2.6845773,49.416855 c 6.379785,0.918823 13.0019477,0.0016 19.5199997,2.9e-5 2.244272,-5.57e-4 6.098637,0.721904 8.10622,-0.355698 1.529072,-0.820752 -0.762119,-1.929898 -0.529404,-3.004409 0.169609,-0.78314 1.4281,-1.304756 1.154824,-2.20086 -0.286362,-0.939014 -1.908877,-0.820425 -2.654082,-0.833721 -2.353594,-0.042 -7.287666,1.037632 -7.357558,-2.245341 4.252993,0.862666 9.373647,0.331689 13.759999,0.07364 1.244873,-0.07324 3.704722,0.370078 4.633326,-0.707231 0.780434,-0.90541 -1.115538,-1.715161 -0.896509,-2.726485 0.179399,-0.828349 1.437373,-1.274355 1.154824,-2.200859 -0.485127,-1.590752 -6.313999,-0.783301 -7.760439,-0.860508 -0.686211,-0.03663 -2.851646,-0.386201 -1.982593,-1.56167 0.689238,-0.932256 2.551763,-0.654228 3.571523,-0.656504 3.41187,-0.0076 6.827661,9.08e-4 10.239868,-4.2e-4 0.988653,-3.81e-4 4.224746,0.425391 4.487695,-0.981396 0.153545,-0.821485 -1.097275,-1.312989 -1.095644,-2.16586 0.0017,-0.90251 2.076113,-2.065361 0.787197,-2.887236 -1.734775,-1.106172 -5.38167,-0.237402 -7.367802,-0.4046 -0.654424,-0.05509 -2.327354,-0.334033 -2.020645,-1.367148 0.371343,-1.250821 2.885029,-0.832578 3.929238,-0.833594 3.625137,-0.0035 7.254746,0.01612 10.879824,-0.0011 1.043164,-0.005 3.266182,0.169756 3.611875,-1.033145 0.245918,-0.855713 -0.969424,-1.296289 -1.070888,-2.165859 -0.1096,-0.939277 1.985634,-2.001035 0.678398,-2.834531 -1.747051,-1.113926 -5.362266,-0.235772 -7.367793,-0.4046 -0.653135,-0.05498 -2.331924,-0.31874 -2.020664,-1.367148 0.471641,-1.588624 5.486387,-0.833721 6.809209,-0.833721 h 18.560002 c 1.33327,0 5.25629,-0.656768 6.08777,0.656885 1.00036,1.580468 -2.87855,1.579033 -3.52791,1.582119 -3.41269,0.01624 -6.82702,5.17e-4 -10.23986,10e-4 -1.241828,1.75e-4 -3.090842,-0.304385 -4.196936,0.365205 -1.512549,0.915644 0.814346,1.872011 0.695742,2.845166 -0.104238,0.855273 -1.311601,1.284717 -1.185078,2.155478 0.264854,1.822725 6.173042,1.001241 7.560792,1.045196 0.66538,0.02107 2.36224,-0.0084 2.36224,1.01206 0,1.576416 -3.33285,1.21584 -4.27677,1.216758 -3.519748,0.0034 -7.040139,-0.0074 -10.559865,5.08e-4 -0.97,0.0022 -3.19667,-0.295313 -3.674893,0.838682 -0.363056,0.860888 0.763116,1.440185 0.911309,2.206562 0.18042,0.933086 -1.137988,1.679346 -0.851221,2.542832 0.491817,1.480889 4.965615,0.809229 6.174541,0.811924 0.666856,0.0015 4.436777,-0.156426 3.52791,1.405899 -0.611396,1.050976 -2.506152,0.827861 -3.52791,0.832724 -3.519297,0.01675 -7.04041,-3.32e-4 -10.559853,10e-4 -1.059043,4.11e-4 -3.788901,-0.414179 -4.313364,0.836094 -0.399619,0.952647 1.035893,1.386455 1.132251,2.227178 0.110688,0.965747 -1.13291,1.401709 -1.101372,2.337559 0.05684,1.686596 5.133032,0.995034 6.202094,1.000127 0.815664,0.0039 3.989365,0.0624 3.208154,1.405278 -0.618886,1.063843 -2.34166,0.827085 -3.52791,0.832729 -3.411352,0.01623 -6.828037,-2.97e-4 -10.239853,0.001 -1.064092,4.15e-4 -3.786665,-0.413272 -4.31477,0.839023 -0.363409,0.861748 0.762978,1.439473 0.911298,2.206558 0.187994,0.972246 -0.937055,1.429477 -0.884736,2.355249 0.0969,1.71459 4.510762,0.998232 5.568169,0.999263 0.989687,9.61e-4 4.333179,-0.249063 4.134702,1.19289 -0.230361,1.673575 -4.478389,1.046963 -5.734673,1.046978 H 19.004577 c -0.993613,0 -7.302065,-0.390196 -6.552315,1.406274 0.477193,1.143389 2.68649,0.831143 3.672447,0.833345 3.519672,0.0079 7.040151,-9.52e-4 10.559858,4.2e-4 1.014663,3.95e-4 3.864995,-0.416094 4.25165,0.824033 0.25687,0.823867 -0.987856,1.420674 -1.154824,2.205 -0.223257,1.04874 2.020918,2.214663 0.529404,3.015259 -1.87331,1.005527 -5.073203,0.266821 -7.134775,0.400972 -0.595449,0.03875 -2.313135,0.161743 -2.020644,1.176269 0.345307,1.19773 2.277885,1.006431 3.28958,1.016026 3.620273,0.03433 7.257861,10e-4 10.879609,0.0024 0.971894,3.81e-4 3.867099,-0.421948 4.25165,0.839024 0.272417,0.893281 -0.985571,1.41937 -1.154824,2.200859 -0.210406,0.971499 1.232934,1.511367 1.070879,2.378662 -0.280469,1.501026 -4.934063,1.238506 -6.087315,1.281153 -0.514741,0.01903 -4.119409,-0.0099 -3.208144,1.312011 0.628652,0.911963 2.585381,0.625772 3.527895,0.627871 3.413013,0.0076 6.826812,-9.08e-4 10.239858,4.2e-4 0.983511,3.91e-4 3.856397,-0.4275 4.254688,0.844747 0.275273,0.879296 -0.874336,1.53705 -0.874336,2.400644 0,0.853184 0.950596,1.377022 0.907861,2.218555 -0.08651,1.703603 -3.519453,1.255498 -4.608203,1.255976 -0.708955,3.13e-4 -5.383842,-0.373261 -4.889199,1.129942 0.380181,1.155371 3.03043,0.789092 3.929238,0.789961 3.624951,0.0035 7.255078,-0.01612 10.87958,0.0011 0.912363,0.0043 2.948652,-0.265928 3.294971,0.843789 0.27789,0.890439 -0.877852,1.544941 -0.955244,2.390254 -0.15961,1.743359 2.508457,3.144453 -1.070801,3.445818 -1.819912,0.15324 -3.890361,-0.0779 -5.726064,0.078 -0.517452,0.0439 -1.998711,0.21877 -1.71169,1.09102 0.462764,1.40631 4.720068,0.79009 5.849209,0.79009 h 18.560002 c 1.17177,0 6.44894,0.67491 6.72222,-0.96357 0.23189,-1.390246 -3.4583,-0.98478 -4.16223,-0.97193 -3.61816,0.0661 -7.26241,0.0474 -10.879611,0.0131 -1.029873,-0.01 -2.944707,0.18128 -3.292032,-1.031777 -0.255732,-0.893144 0.986905,-1.431328 1.154747,-2.218555 0.360371,-1.690215 -3.081504,-3.234687 0.868359,-3.44582 1.158857,-0.06195 8.386657,0.690068 7.757757,-1.427695 -0.34174,-1.150782 -3.21073,-0.804922 -4.24922,-0.766631 -2.987648,0.110156 -6.799504,0.259365 -9.919982,0.2525 -1.305117,-0.0029 -3.169912,0.286797 -3.99333,-0.838682 -0.670586,-0.916602 0.726963,-1.610879 0.897011,-2.407949 0.233164,-1.092871 -2.547626,-2.377842 -0.557988,-3.21667 2.020322,-0.851768 5.003594,-0.113252 7.162227,-0.29545 0.62706,-0.05292 2.076562,-0.227304 1.934296,-1.177753 -0.207871,-1.38879 -3.216679,-1.022061 -4.162236,-1.022979 -3.527734,-0.0034 -7.032138,0.0073 -10.559863,-5.18e-4 -0.942217,-0.0021 -2.916538,0.282002 -3.528901,-0.635996 -0.547417,-0.820634 0.907954,-1.574004 1.071836,-2.31459 0.232954,-1.05271 -2.337588,-2.140903 -0.779995,-3.083818 1.708833,-1.034473 5.141074,-0.273789 7.071455,-0.394023 0.702334,-0.04375 2.362236,-0.165005 2.362236,-1.207564 0,-1.39144 -3.092686,-1.002656 -3.956797,-1.003496 -4.185586,-0.0041 -9.281186,0.700649 -13.366728,-0.109546 -2.265205,-0.449209 -0.253584,-1.854507 -0.253584,-3.075591 0,-0.893921 -1.133511,-1.575234 -0.874321,-2.385225 0.49331,-1.54164 5.774169,-0.82977 7.134672,-0.82977 h 17.28 c 1.840049,0 4.924648,-0.591338 6.419492,0.366084 1.25273,0.802353 -0.64152,2.037358 -0.45806,3.108242 0.11071,0.646187 0.91457,1.223487 0.77224,1.926538 -0.0827,0.408413 -0.44854,0.617715 -0.78655,0.747583 -2.341273,0.899522 -5.096898,-0.113891 -7.476819,0.36208 -0.72878,0.145752 -1.642852,0.713589 -1.0817,1.472588 0.784258,1.060757 3.344727,0.656704 4.531397,0.656875 3.652642,5.23e-4 9.585142,-1.088349 12.967542,0.253638 1.95881,0.777173 -0.49119,2.066724 -0.3836,3.208628 0.0932,0.989214 1.32245,1.806021 1.81606,2.617744 -1.67449,0.340313 -3.12361,0.3425 -4.80001,0.49542 -0.73582,0.06712 -6.411272,0.03864 -5.44777,1.436328 0.62867,0.911963 2.58539,0.625772 3.52791,0.627871 3.51914,0.0078 7.0408,-0.0029 10.55984,5.18e-4 1.12751,0.0011 3.50497,-0.379414 4.07622,0.823926 0.40279,0.848476 -0.81345,1.416016 -0.98233,2.167109 -0.2069,0.920205 0.97176,1.318203 1.04979,2.170596 0.17264,1.885791 -4.57797,1.233369 -5.74361,1.325342 -0.57769,0.04559 -4.76448,0.194629 -3.84782,1.524629 0.62856,0.911973 2.58547,0.625781 3.52791,0.627881 3.51967,0.0078 7.04015,-9.48e-4 10.55986,4.2e-4 0.96869,3.81e-4 3.86655,-0.42543 4.25162,0.839023 0.29437,0.96666 -1.16683,1.512285 -1.26335,2.407949 -0.10043,0.931973 1.10445,1.181348 1.18516,2.001641 0.16101,1.636695 -4.22588,1.151182 -5.13342,1.151358 -0.77793,1.46e-4 -5.37453,-0.3721 -4.63233,1.406267 0.65802,1.57664 5.49755,0.83372 6.87233,0.83372 h 18.240002 c 1.68094,0 5.08785,0.7102 6.23231,-0.68691 0.67203,-0.82037 -0.58491,-1.33458 -1.15692,-1.443341 -1.28448,-0.244238 -2.77405,-0.109727 -4.11539,-0.109746 -3.19947,-3.9e-5 -6.40031,0.0142 -9.599622,-9.96e-4 -0.88393,-0.0042 -2.63551,0.225023 -3.2106,-0.638321 -0.56841,-0.853291 0.94829,-1.77624 0.76676,-2.715068 -0.14231,-0.735967 -1.09405,-1.203467 -0.96575,-2.011436 0.29689,-1.869697 6.194722,-0.958564 7.557752,-1.07331 0.65749,-0.05535 2.33311,-0.314756 2.02067,-1.367149 -0.38692,-1.303232 -3.5756,-0.833564 -4.569212,-0.833711 -3.30589,-4.78e-4 -6.6143,0.007 -9.91996,-3.9e-4 -1.08331,-0.0024 -2.91169,0.275722 -3.67336,-0.648057 -0.73752,-0.894492 0.92301,-1.681738 0.92127,-2.54419 -0.002,-0.906142 -1.86329,-1.839931 -0.96428,-2.707158 1.44116,-1.390176 5.53093,-0.369804 7.54487,-0.539346 0.63596,-0.05353 2.6303,-0.452158 1.93923,-1.543984 -0.59739,-0.943818 -2.59247,-0.654424 -3.52791,-0.656504 -3.51192,-0.0078 -7.04981,0.0029 -10.55985,-5.17e-4 -1.12352,-0.0011 -3.51396,0.385517 -4.1071,-0.801016 -0.40955,-0.819282 1.02561,-1.529727 1.04077,-2.346143 0.016,-0.863662 -1.12394,-1.330322 -0.98289,-2.21853 0.2756,-1.735581 5.06597,-1.024981 6.28883,-1.036577 0.68644,-0.0065 4.16132,-0.0748 3.20815,-1.580713 -0.59264,-0.936304 -2.57231,-0.65437 -3.52791,-0.656504 -3.51278,-0.0078 -7.046,9.52e-4 -10.55985,-4.2e-4 -1.12757,-4.39e-4 -3.79449,0.402012 -4.31334,-0.836084 -0.43159,-1.029878 1.00449,-1.315684 1.21618,-2.183584 0.23982,-0.983267 -2.16261,-2.121812 -0.7621,-3.014829 1.7047,-1.086978 5.38253,-0.237466 7.36779,-0.404595 0.63595,-0.05353 2.63031,-0.452153 1.93923,-1.543984 -0.93936,-1.484092 -6.13737,-0.656885 -7.68777,-0.656885 H 53.244576 c -2.764629,0 -5.522881,0.615263 -6.72,-1.92 4.47667,-0.908037 9.225723,-0.319785 13.76,-0.32 1.278779,-5.9e-5 4.028362,0.476357 4.953362,-0.64668 0.7353,-0.892725 -0.91181,-1.829351 -0.81276,-2.71855 0.09,-0.8077 1.55601,-1.476099 0.98821,-2.375483 -0.93638,-1.483203 -5.821752,-0.599409 -7.362718,-0.680728 -0.76043,-0.04013 -2.393242,-0.123735 -2.218291,-1.178022 0.196572,-1.184537 3.549296,-0.75208 4.452207,-0.73689 3.34957,0.05636 6.878652,0.113003 10.239852,-0.0026 1.09869,-0.03778 2.93161,0.02012 3.47017,-1.084429 0.36614,-0.750937 -0.74711,-1.439687 -0.8113,-2.159839 -0.0855,-0.958906 1.45602,-1.866635 0.87145,-2.794565 -0.5978,-0.948936 -2.58967,-0.659746 -3.53032,-0.661846 -2.59451,-0.0058 -4.67031,0.147373 -6.719862,-0.640381 2.506152,-2.563261 10.181312,-1.543271 14.080002,-1.592529 1.25093,-0.0158 4.3883,0.521807 5.06706,-0.80291 0.43392,-0.846875 -1.03561,-1.353262 -1.11905,-2.158086 -0.10383,-1.001348 1.10468,-1.465391 1.18541,-2.401914 0.14432,-1.674541 -4.72808,-1.043672 -5.77339,-1.044688 -0.9705,-9.47e-4 -4.66056,0.167305 -4.22536,-1.406152 0.35816,-1.294932 3.14479,-0.833262 4.22534,-0.833682 3.51789,-0.0014 7.04242,0.0157 10.55985,-10e-4 1.17111,-0.0056 2.8998,0.247051 3.53035,-0.838066 0.53447,-0.919756 -0.78987,-1.519854 -0.78987,-2.378633 0,-0.856602 1.14947,-1.459073 0.87433,-2.337549 -0.54315,-1.734239 -5.63052,-0.808369 -7.12928,-0.855811 -0.66428,-0.02103 -3.25672,-0.273681 -2.29679,-1.57206 0.96895,-1.310567 4.70336,-0.656885 6.1314,-0.656885 h 18.240002 c 1.24279,0 6.35057,-0.711104 6.80921,0.833721 0.50164,1.689668 -3.44558,1.405371 -4.24922,1.406152 -3.622,0.0035 -7.25902,-0.01612 -10.879612,0.0011 -0.95384,0.0045 -2.94906,-0.2829 -3.29212,0.838066 -0.26604,0.869317 0.98051,1.391084 1.07089,2.162959 0.18739,1.600459 -2.70388,3.051006 0.9523,3.358848 1.92183,0.161807 4.112612,-0.08854 6.046072,0.07826 0.60172,0.05191 1.97873,0.239629 1.71169,1.177754 -0.39742,1.396142 -3.19288,1.021963 -4.24922,1.022988 -3.519752,0.0034 -7.040142,-0.0074 -10.559862,5.08e-4 -0.94242,0.0021 -2.93248,-0.286543 -3.52891,0.658916 -0.56441,0.894678 0.90296,1.600283 1.07196,2.380625 0.21818,1.007402 -1.8347,2.030234 -0.73404,2.87624 1.57424,1.21001 5.109,0.43419 7.02538,0.494893 0.66539,0.02107 2.36223,-0.0084 2.36223,1.012061 0,1.576416 -3.33284,1.215839 -4.27676,1.216757 -3.51863,0.0034 -7.04157,-0.0073 -10.55986,5.08e-4 -1.00326,0.0022 -2.91894,-0.307988 -3.52891,0.658916 -0.55445,0.878906 0.90912,1.626065 1.07187,2.380625 0.21971,1.018623 -2.08619,2.200928 -0.76234,3.00441 1.69875,1.03102 5.11778,0.305405 7.05377,0.366723 0.66538,0.02107 2.36224,-0.0084 2.36224,1.012061 0,1.846518 -5.07568,1.216885 -6.19676,1.216885 -3.09194,0 -6.18742,-0.02699 -9.27899,0.0024 -0.8259,0.0079 -2.66244,-0.1804 -2.97266,0.836655 -0.29377,0.963125 1.18012,1.451353 1.17926,2.368784 -8.8e-4,0.949605 -1.87445,1.58148 -1.13939,2.546329 1.00379,1.317592 4.66681,0.64583 6.13178,0.64583 5.62748,0 12.89871,0 18.88,0 1.41967,0 5.62716,0.677236 6.347092,-0.819375 0.45587,-0.947681 -1.036882,-1.419659 -1.035042,-2.361133 0.004,-1.809663 2.731672,-3.085864 -1.15753,-3.208457 -0.98884,-0.03117 -7.97654,0.562544 -7.44373,-1.180059 0.3927,-1.284365 3.53637,-1.030835 4.56921,-1.055664 3.73381,-0.08975 6.678202,0.01594 10.239612,-0.01771 1.04322,-0.0099 2.6525,0.192466 3.1505,-0.809136 0.3918,-0.787973 -0.7332,-1.55249 -0.73039,-2.343135 0.003,-0.877861 1.14414,-1.540664 0.87495,-2.400546 -0.53559,-1.71084 -5.30757,-0.823282 -6.81225,-0.850127 -0.68353,-0.0122 -3.641572,-0.187666 -2.613822,-1.577774 0.68925,-0.932256 2.551772,-0.654228 3.571522,-0.656504 3.41185,-0.0076 6.82768,9.08e-4 10.23988,-4.2e-4 1.00441,-3.9e-4 4.23167,0.436221 4.48769,-1.014619 0.15644,-0.886484 -1.0959,-1.319951 -1.0959,-2.185342 0,-0.84001 1.03294,-1.18206 1.10188,-1.985625 0.13446,-1.567451 -3.51301,-1.213906 -4.49367,-1.214336 -0.92092,-4e-4 -5.72243,0.322393 -5.20921,-1.406318 0.37733,-1.270977 3.26372,-0.833301 4.24922,-0.833682 3.62497,-0.0014 7.25515,0.03193 10.87961,-0.0024 0.96877,-0.0092 2.94729,0.15125 3.29203,-1.026055 0.2679,-0.914893 -0.97211,-1.226065 -1.15475,-2.003311 -0.26147,-1.112793 2.40348,-2.332236 0.54701,-3.116142 -1.94738,-0.822305 -5.04552,-0.113848 -7.15246,-0.291221 -0.65622,-0.05524 -2.33263,-0.316357 -2.02066,-1.367148 0.46147,-1.554395 5.56022,-0.833721 6.80921,-0.833721 h 18.56 c 1.32916,0 5.38789,-0.720196 5.84921,0.833721 0.43514,1.465732 -2.98398,1.403789 -3.92925,1.405898 -3.7261,0.0083 -7.47489,-0.01634 -11.19957,0.0014 -0.96114,0.0046 -3.27826,-0.305459 -3.32287,0.998662 -0.0278,0.813359 1.01603,1.23249 1.10214,1.976514 0.131,1.13166 -2.14627,2.093476 -0.42023,3.058359 1.63002,0.911211 5.21602,0.285733 7.1091,0.386914 0.6351,0.03395 2.31363,0.166231 2.02068,1.19544 -0.34304,1.205195 -2.25511,1.010898 -3.2896,1.020713 -3.72422,0.03532 -7.47381,-0.0011 -11.19957,0.0025 -1.09281,0.0011 -3.54318,-0.434785 -3.93169,0.838936 -0.26712,0.875742 0.97736,1.385517 1.15483,2.175009 0.20924,0.93084 -1.00171,1.332911 -1.07686,2.191045 -0.16406,1.873467 4.59497,1.193858 5.77364,1.19501 0.66975,6.55e-4 4.79439,-0.221054 3.84781,1.406153 -0.61084,1.050048 -2.51377,0.8279 -3.52791,0.832724 -3.51904,0.01674 -7.04068,-3.32e-4 -10.55985,10e-4 -1.00615,3.91e-4 -3.86458,-0.430185 -4.25166,0.839024 -0.27236,0.893037 0.98473,1.415478 1.15483,2.200859 0.21381,0.987217 -1.23565,1.49711 -1.07088,2.378638 0.31055,1.66146 4.49188,0.980327 5.76766,0.981572 0.6697,6.55e-4 4.79441,-0.221045 3.84781,1.406143 -0.61085,1.050044 -2.51375,0.827905 -3.52791,0.832729 -3.51903,0.01674 -7.04069,-3.36e-4 -10.55985,0.001 -1.09179,4.24e-4 -3.4912,-0.4148 -4.16879,0.659248 -0.55966,0.887114 0.8994,1.581333 1.07187,2.365644 0.23248,1.057202 -1.21681,1.423321 -1.18533,2.386255 0.0529,1.618824 5.14906,0.986846 6.2021,0.989195 0.65915,0.0015 4.44274,-0.166685 3.52791,1.405893 -0.86276,1.483072 -4.65766,0.833726 -6.08777,0.833726 H 89.084578 c -1.25564,0 -7.00483,-0.746939 -7.24373,1.023115 -0.21119,1.564766 3.19693,1.215928 4.04377,1.216753 3.73174,0.0036 7.46823,-0.01661 11.19958,0.0011 0.85828,0.0041 3.283362,-0.213447 3.322522,0.985054 0.0288,0.881289 -1.194832,1.082099 -1.293792,1.962231 -0.1185,1.053828 2.241362,1.916944 0.8709,2.952119 -1.64286,1.240909 -5.40502,0.416255 -7.36805,0.52104 -0.67365,0.03596 -2.27773,0.137505 -2.13493,1.195445 0.19916,1.475566 3.36048,1.022685 4.36374,1.023076 3.41188,0.0013 6.828402,-0.0072 10.239852,4.2e-4 1.09934,0.0025 2.90173,-0.335107 3.53035,0.661841 0.53353,0.846123 -0.80348,1.683027 -0.78389,2.509702 0.0189,0.799277 1.03412,1.060225 1.19433,1.800449 0.0814,0.376143 -0.1083,0.706636 -0.40141,0.928028 -1.73721,1.312158 -5.5959,0.359638 -7.67738,0.53873 -0.67395,0.05798 -2.454892,0.486768 -1.673262,1.543985 0.68685,0.929013 2.574112,0.654277 3.571522,0.656503 3.51969,0.0079 7.04014,-9.47e-4 10.55987,4.2e-4 1.04643,4.11e-4 3.50176,-0.398027 4.16879,0.659248 0.56603,0.897217 -0.89254,1.574415 -1.07188,2.337022 -0.22703,0.965391 1.21354,1.258193 1.18533,2.175781 -0.0594,1.933145 -5.30069,1.223096 -6.52185,1.228907 -0.71842,0.0034 -4.04576,-0.03453 -3.20816,1.405283 0.61993,1.065644 2.45713,0.827627 3.52791,0.832724 3.51817,0.01673 7.04131,-3.32e-4 10.55986,0.001 1.04723,4.1e-4 3.50336,-0.395508 4.16879,0.659248 0.6225,0.986699 -1.09649,1.625947 -1.09649,2.530332 0,0.923965 1.44483,1.275342 1.17936,2.181933 -0.4654,1.589335 -4.53594,1.027295 -5.85161,1.028584 -0.78887,7.62e-4 -4.66766,-0.211875 -3.99237,1.406141 0.62295,1.49261 4.61956,0.83372 5.91233,0.83372 h 18.88 c 1.18777,0 6.83675,0.70176 6.83675,-1.21688 0,-1.424279 -3.41369,-1.022736 -4.27675,-1.023078 -3.62559,-0.0014 -7.25414,0.01619 -10.87961,-10e-4 -0.84065,-0.004 -2.94248,0.251033 -3.29506,-0.810537 -0.27397,-0.824893 0.8756,-1.499151 0.87406,-2.32544 -0.002,-0.816562 -0.93863,-1.233438 -0.99457,-2.024707 -0.12588,-1.780723 3.99389,-1.237998 5.01518,-1.23835 0.98015,-3.42e-4 5.04185,0.329795 4.80222,-1.236338 -0.21248,-1.388681 -3.1325,-1.0025 -4.16222,-1.003496 -3.51891,-0.0034 -7.0409,0.0073 -10.55989,-5.17e-4 -1.18341,-0.0026 -3.14344,0.30249 -3.788,-0.838682 -0.49796,-0.881602 0.83643,-1.534756 0.92818,-2.360938 0.0916,-0.824804 -1.32336,-1.539707 -1.07203,-2.360937 0.52861,-1.727315 5.30738,-0.817715 6.81072,-0.844404 0.65008,-0.01154 3.7799,-0.169893 2.88879,-1.577774 -0.70107,-1.107646 -3.38421,-0.656719 -4.48777,-0.656875 -3.53179,-5.08e-4 -9.70193,1.159522 -12.92401,-0.257285 -1.56191,-0.686807 0.27463,-2.085259 0.15387,-3.112403 -0.1069,-0.909287 -1.25961,-1.881342 -1.62986,-2.710322 2.26069,-0.458555 4.89643,-0.243755 7.67755,-0.331055 0.71781,-0.02253 3.02819,-0.126933 2.65166,-1.395219 -0.35961,-1.211255 -2.99125,-0.832681 -3.92925,-0.833594 -3.98242,-0.0039 -8.54949,0.290703 -12.46851,-0.03926 -3.71084,-0.312441 -0.77,-1.771406 -0.9523,-3.389189 -0.0877,-0.778238 -1.54247,-1.481265 -0.98796,-2.32793 0.91996,-1.404673 4.50515,-0.64375 6.08881,-0.64375 h 18.56 c 1.16306,0 6.7872,-0.716528 6.84222,0.999663 0.0267,0.833477 -1.01115,1.20064 -1.18533,1.970796 -0.24551,1.085532 2.14578,1.88501 0.76234,2.929941 -1.64125,1.239668 -5.40718,0.41625 -7.36778,0.52104 -0.62062,0.03317 -2.31973,0.144781 -2.02066,1.195445 0.33774,1.186514 2.34027,1.011709 3.2896,1.020713 3.62396,0.03436 7.25507,10e-4 10.87961,0.0024 1.01115,3.96e-4 3.85767,-0.435469 4.25173,0.824024 0.26954,0.861455 -0.97865,1.364887 -1.07087,2.167104 -0.11079,0.963721 1.35289,1.39333 1.07087,2.374688 -0.51367,1.787505 -5.41152,1.023247 -6.81072,1.036548 -0.69642,0.0066 -3.69078,0.02523 -2.88879,1.403867 0.61992,1.065654 2.45709,0.827637 3.52789,0.832734 3.51817,0.01674 7.04135,-3.32e-4 10.55989,0.001 1.01566,3.91e-4 3.86365,-0.416377 4.25173,0.824024 0.25625,0.819023 -0.97929,1.37041 -1.07087,2.167109 -0.12321,1.071719 2.1405,2.137354 0.46304,3.04336 -1.85004,0.999228 -5.09594,0.277109 -7.15269,0.386914 -0.67041,0.03578 -2.56473,0.231777 -2.08352,1.384834 0.47656,1.141904 2.70471,0.831182 3.67242,0.83334 3.51969,0.0079 7.04016,-9.48e-4 10.55989,4.2e-4 0.98357,3.9e-4 3.85621,-0.427491 4.25466,0.844707 0.27641,0.88249 -0.87433,1.503232 -0.87433,2.337558 0,0.900577 1.15418,1.253643 0.87433,2.183555 -0.48293,1.604728 -4.24091,1.033652 -5.53466,1.03418 -0.9443,3.81e-4 -4.65219,-0.198838 -4.24922,1.216848 0.52842,1.85637 5.26418,1.02311 6.80922,1.02311 h 18.56 c 1.43007,0 5.22501,0.64934 6.08777,-0.83372 1.02742,-1.76615 -4.38959,-1.406267 -5.12777,-1.406277 -3.3061,-4.9e-5 -6.61368,0.01475 -9.91963,-9.96e-4 -0.92225,-0.0044 -2.91869,0.233713 -3.35369,-0.843662 -0.39633,-0.981602 1.2605,-2.295635 1.75332,-2.995342 -5.30764,-2.479649 4.52619,-2.388594 6.37751,-2.62752 0.73733,-0.09516 2.64938,-0.964336 1.32161,-1.807402 -1.08073,-0.686192 -2.95383,-0.364893 -4.17912,-0.365069 l -9.28,-1.9e-5 c -1.13817,-1.66e-4 -4.09373,0.464951 -4.63485,-0.844746 -0.35281,-0.853936 0.74998,-1.529278 0.83037,-2.370235 0.0836,-0.87415 -1.0298,-1.544629 -0.77045,-2.351103 0.49664,-1.544356 5.49577,-0.811661 6.81391,-0.842032 0.66531,-0.01533 3.74914,-0.256836 2.88879,-1.58584 -0.61912,-0.956386 -2.51402,-0.643398 -3.52789,-0.645654 -3.51496,-0.0078 -7.04367,9.47e-4 -10.55988,-4.2e-4 -1.08532,-4.29e-4 -3.78993,0.426787 -4.31336,-0.839018 -0.40075,-0.969082 1.02912,-1.492198 1.13226,-2.360943 0.10756,-0.905932 -1.13008,-1.290776 -1.10138,-2.165854 0.0537,-1.636939 4.48,-1.03211 5.56244,-1.034527 0.94523,-0.0021 4.36439,0.05982 3.92925,-1.405893 -0.37296,-1.256255 -2.85904,-0.832554 -3.92925,-0.833594 -3.51903,-0.0034 -7.04075,0.0073 -10.55985,-5.13e-4 -0.97148,-0.0022 -3.19304,0.304927 -3.67484,-0.838681 -0.39645,-0.941011 0.936,-1.533218 1.01209,-2.389727 0.0807,-0.908389 -1.09381,-1.183316 -1.27775,-1.985381 -0.38528,-1.679907 3.853,-1.18564 4.90039,-1.18584 1.04041,-2e-4 5.35982,0.178877 4.88921,-1.406265 -0.46132,-1.553921 -4.52003,-0.833725 -5.84921,-0.833725 h -18.56 c -1.22495,0 -6.68924,0.714277 -6.92373,-1.023115 -0.2121,-1.571456 3.1972,-1.215933 4.04377,-1.216753 3.73149,-0.0036 7.46859,0.03284 11.19957,-0.0025 0.9632,-0.0091 3.28248,0.08036 3.32261,-1.225507 0.0259,-0.841617 -0.99492,-0.998975 -1.18533,-1.79649 -0.24684,-1.033872 2.35783,-2.348271 0.54701,-3.121972 -1.8165,-0.776128 -4.865,-0.171177 -6.83843,-0.275069 -0.73901,-0.03891 -2.36223,-0.135747 -2.36223,-1.195444 0,-1.427144 3.36,-1.02272 4.27676,-1.023076 3.51916,-0.0014 7.04084,0.01566 10.55986,-10e-4 0.93918,-0.0045 2.95244,0.229644 3.46723,-0.800156 0.42111,-0.842422 -1.03666,-1.494595 -1.03504,-2.346143 0.002,-0.927817 1.23894,-1.282099 1.21017,-2.218525 -0.053,-1.726484 -5.70111,-1.025742 -6.84123,-1.036582 -0.6501,-0.0062 -4.0364,-0.08738 -2.93238,-1.580713 0.68623,-0.928203 2.57521,-0.654277 3.5715,-0.656504 3.41311,-0.0076 6.82674,9.08e-4 10.23989,-4.2e-4 1.18464,-4.59e-4 3.77586,0.405586 4.4888,-0.839023 0.54881,-0.958047 -0.89058,-1.520987 -0.98794,-2.368311 -0.10176,-0.885527 1.33835,-1.513642 1.07087,-2.368564 -0.4765,-1.522998 -5.20908,-0.814307 -6.49134,-0.826465 -0.71625,-0.0068 -4.11108,-0.154199 -3.20817,-1.580713 0.61053,-0.9646 2.52897,-0.654278 3.52789,-0.656504 3.51828,-0.0079 7.04127,0.0029 10.55989,-5.08e-4 1.13011,-0.0011 3.49029,0.346582 4.16878,-0.838935 0.53952,-0.942667 -0.89662,-1.59459 -1.07197,-2.413672 -0.20898,-0.976192 0.99951,-1.324073 1.07686,-2.223223 0.14336,-1.666446 -4.72022,-0.921807 -5.77364,-0.924883 -0.89775,-0.0026 -4.34816,-0.04126 -3.92925,-1.42043 0.49367,-1.625312 5.42654,-0.81873 6.80922,-0.81873 h 18.56 c 1.22986,0 5.32515,-0.651504 6.02464,0.628252 0.73446,1.343691 -3.47832,1.291015 -4.10464,1.291621 -2.42008,0.0024 -4.1404,1.27e-4 -6.4,1.27e-4 -1.38989,0 -3.09256,-0.0056 -4.47963,9.96e-4 -1.01037,0.0048 -3.20862,-0.313965 -3.40655,1.027461 -0.12812,0.86833 1.08504,1.22085 1.26899,2.02916 0.25351,1.114053 -2.34322,2.347276 -0.77975,3.296914 1.79612,1.090938 5.34207,0.27833 7.38547,0.386846 0.61242,0.03252 2.32176,0.134512 2.02068,1.17165 -0.42041,1.448233 -3.46193,1.046075 -4.56921,1.046875 -3.41307,0.0025 -6.82684,-0.0071 -10.23989,4.79e-4 -0.99734,0.0022 -2.88867,-0.270479 -3.57254,0.658906 -0.64138,0.87166 0.64559,1.545449 0.72772,2.353116 0.0905,0.889902 -1.02483,1.443593 -0.88475,2.343125 0.27528,1.767588 5.35432,1.039502 6.60906,1.045468 0.7293,0.0035 3.68325,-0.163935 3.28961,1.192032 -0.38908,1.340273 -2.84388,1.042422 -3.92925,1.04622 -3.62432,0.01268 -7.2551,-0.007 -10.87985,0.0011 -0.96992,0.0022 -3.19308,-0.303652 -3.67488,0.838682 -0.36502,0.86543 0.76191,1.433618 0.91129,2.191562 0.18953,0.961792 -0.93447,1.462471 -0.88473,2.35939 0.0848,1.528823 3.93844,1.009805 4.92821,1.009995 1.01253,1.96e-4 4.59675,-0.435844 4.59675,1.023106 0,1.488965 -2.93978,1.214238 -3.95679,1.216504 -4.01096,0.0089 -9.16981,-0.665635 -13.04965,0.110918 -2.50408,0.501191 -0.20914,1.883823 -0.36483,3.118008 -0.10211,0.809394 -1.51183,1.666587 -0.81884,2.520083 1.10111,1.356162 4.57156,0.651372 6.23336,0.651372 h 18.24 c 1.38058,0 6.30283,0.74291 6.81164,-1.034175 0.29357,-1.025347 -1.17936,-1.465225 -1.17936,-2.422681 0,-0.92228 1.23811,-1.131401 1.20994,-1.997783 -0.0472,-1.453584 -3.65344,-0.962271 -4.60222,-0.95083 -0.93698,0.0113 -5.75135,0.425259 -5.20922,-1.400806 0.37017,-1.24688 3.26271,-0.833301 4.24922,-0.833686 3.51916,-0.0014 7.04084,0.0157 10.55988,-10e-4 1.01461,-0.0048 2.92601,0.214449 3.52892,-0.838061 0.53996,-0.942622 -0.89084,-1.528662 -0.98795,-2.360943 -0.10043,-0.860669 1.12924,-1.323671 1.10163,-2.165859 -0.0551,-1.679951 -5.11407,-1.029961 -6.20237,-1.035137 -0.9083,-0.0043 -4.02879,0.0076 -3.60933,-1.405283 0.39111,-1.317402 3.12945,-0.833242 4.24922,-0.833682 3.62171,-0.0014 7.25947,0.02333 10.87988,-0.0018 1.05851,-0.0074 2.90691,0.193408 3.52888,-0.861894 0.58055,-0.985 -1.08115,-1.488086 -1.1805,-2.399424 -0.10916,-1.001114 1.36283,-1.404336 1.17933,-2.335743 -0.27615,-1.40163 -4.72422,-0.796084 -5.76759,-0.803769 -0.98979,-0.0073 -4.27676,0.09729 -4.27676,-1.251973 0,-1.477109 3.25365,-0.984971 4.27676,-0.985371 3.518,-0.0014 7.04238,0.01569 10.55996,-0.001 1.15724,-0.0055 2.94121,0.237852 3.61166,-0.838066 0.55691,-0.893731 -0.86411,-1.604854 -0.94414,-2.413672 -0.11096,-1.12125 2.60421,-2.641143 0.40994,-3.294981 -2.08063,-0.61998 -4.73438,-0.07888 -6.90596,-0.193633 -0.57582,-0.03043 -2.04822,-0.0673 -2.04822,-0.938652 0,-1.594658 6.0947,-0.95793 7.15675,-0.960615 1.86129,-0.0047 3.35532,-0.224903 5.12,-0.247129 1.15415,-0.01453 2.08567,0.161865 3.2,0.175517 1.21707,0.01491 2.30647,-0.168769 3.52,-0.21915 1.92698,-0.08001 3.82735,-0.02862 5.76,-0.02862 1.72625,0 5.03084,-0.695059 6.27596,0.499219 0.75184,0.721132 -0.32174,1.407519 -0.9092,1.568535 -1.05135,0.288164 -2.32209,0.171767 -3.44676,0.172207 -3.51533,0.0014 -7.04574,-0.0157 -10.5596,0.001 -0.97854,0.0047 -2.94791,-0.290283 -3.29204,0.838066 -0.28902,0.947715 1.17936,1.489043 1.17936,2.413672 0,0.949366 -1.45643,1.465391 -1.17936,2.433086 0.55575,1.940948 5.49518,1.010489 7.12911,1.039512 0.56152,0.01 2.74046,-0.08361 2.56476,0.954668 -0.23318,1.37794 -3.54006,0.95959 -4.48223,0.959961 -3.43787,0.0013 -6.83394,0.02267 -10.23988,0.02626 -0.89281,9.47e-4 -2.95705,-0.249463 -3.5289,0.640439 -0.56807,0.884004 0.90033,1.577784 1.07189,2.373272 0.24848,1.15209 -1.92062,1.937558 -0.93943,3.020771 1.33693,1.475948 5.64746,0.579327 7.54486,0.680743 0.64232,0.03434 2.59834,0.251816 1.93924,1.384834 -0.61082,1.050019 -2.51375,0.8279 -3.52789,0.832724 -3.51932,0.01675 -7.04041,-3.32e-4 -10.55988,10e-4 -1.00274,3.91e-4 -3.86323,-0.434394 -4.25165,0.839024 -0.27207,0.891943 0.97319,1.384062 1.15471,2.157241 0.25346,1.07961 -2.57551,2.296533 -0.55736,3.147378 2.06699,0.871436 5.25787,0.106104 7.47181,0.295283 0.65875,0.05629 2.22467,0.36189 1.63026,1.306543 -0.68817,1.093638 -3.08676,0.865996 -4.16777,0.885196 -3.41118,0.06058 -6.85032,-0.113296 -10.23997,-0.02505 -1.02662,0.02673 -3.21587,-0.257754 -3.84882,0.665 -0.66889,0.975127 1.09732,1.283882 1.0964,2.312495 -8.8e-4,0.966782 -1.67845,1.558477 -1.24093,2.617788 0.67363,1.630972 5.7588,0.818848 7.19085,0.844405 0.65151,0.01163 3.35219,0.05676 2.57024,1.400932 -0.86244,1.482539 -4.62461,0.833726 -6.08777,0.833726 h -18.24 c -1.42459,0 -6.62911,-0.850816 -7.12922,0.833725 -0.4108,1.383697 2.73295,1.401109 3.60933,1.405279 3.72979,0.01774 7.46959,-0.0069 11.19975,0.0014 0.79695,0.0018 3.31139,-0.291695 3.52783,0.800771 0.15551,0.784912 -1.09725,1.291602 -1.09564,2.13167 0.002,1.046035 2.23896,2.201265 0.57185,3.101714 -1.85144,1.00001 -5.10306,0.277368 -7.15244,0.386904 -0.65437,0.03498 -2.31797,0.151055 -2.02068,1.195445 0.37785,1.327427 2.84334,1.020312 3.92925,1.022734 3.62516,0.0081 7.25467,-0.0073 10.87983,7.62e-4 0.86582,0.0019 2.96978,-0.293774 3.46732,0.638926 0.40096,0.751631 -0.85287,1.537998 -0.92695,2.275981 -0.0937,0.933443 1.1301,1.367691 1.10225,2.246387 -0.059,1.859673 -4.7202,1.237329 -5.88245,1.238462 -0.90955,8.79e-4 -4.32328,-0.16751 -3.92925,1.216748 0.39056,1.372139 2.77371,1.020156 3.92925,1.022734 3.62497,0.0081 7.25487,-0.0073 10.87983,7.62e-4 0.91,0.002 2.95793,-0.294404 3.47017,0.638926 0.46485,0.846973 -0.89847,1.573311 -0.81093,2.497666 0.0798,0.842324 1.21355,1.368184 0.95547,2.228848 -0.33567,1.119433 -1.99961,1.011504 -2.97559,1.028838 -2.69147,0.04778 -5.18135,-0.116367 -7.35898,0.325342 1.64185,3.302734 10.00439,1.919941 13.75999,1.92 1.40327,1.9e-5 4.31334,-0.633243 5.1302,0.662216 0.54389,0.862549 -0.78986,1.667735 -0.78986,2.520088 0,0.829258 1.1366,1.312051 0.87433,2.183555 -0.71451,2.374208 -6.86736,0.59207 -8.93207,1.206388 -0.95154,0.2831 -1.22752,1.1756 -0.24648,1.70267 1.69322,0.90968 4.87543,0.36508 6.84388,0.36508 h 16.96 c 1.39561,0 6.61952,0.76754 7.12922,-1.02311 0.45028,-1.581877 -3.4849,-1.216545 -4.24922,-1.216848 -3.62175,-0.0014 -7.25933,0.03189 -10.8796,-0.0024 -1.00959,-0.0096 -2.94497,0.17631 -3.29213,-1.031738 -0.25823,-0.898584 0.9765,-1.35709 1.07088,-2.165859 0.12988,-1.113135 -2.40563,-2.37545 -0.21657,-3.027715 2.0076,-0.598203 4.80065,-0.03418 6.90596,-0.211416 0.65748,-0.05535 2.33312,-0.314756 2.02068,-1.367149 -0.37275,-1.255566 -3.29474,-0.83331 -4.24922,-0.833681 -3.51972,-0.0014 -7.04021,0.0074 -10.55988,-4.2e-4 -1.00234,-0.0022 -2.8906,0.273838 -3.57189,-0.658907 -0.66123,-0.905283 0.73937,-1.633896 0.98074,-2.380634 0.37225,-1.15168 -1.84648,-1.928809 -0.80531,-2.876231 1.37133,-1.247861 5.385,-0.408105 7.23086,-0.505293 0.68515,-0.03606 2.68191,-0.215293 2.3347,-1.384824 -0.37275,-1.255567 -3.29478,-0.833321 -4.24922,-0.833692 -3.51974,-0.0014 -7.04017,0.0074 -10.55988,-4.2e-4 -0.97193,-0.0022 -3.1992,0.308252 -3.67347,-0.838676 -0.37026,-0.895376 0.83226,-1.437476 1.08232,-2.162964 0.38184,-1.107827 -2.05584,-2.122266 -0.62822,-3.032515 1.59025,-1.013945 5.17373,-0.28793 7.05377,-0.386904 0.72728,-0.03829 2.36224,-0.135952 2.36224,-1.195445 0,-1.632539 -5.16642,-1.023115 -6.19675,-1.023115 -3.09186,0 -6.18758,0.02699 -9.27901,-0.0024 -0.8592,-0.0082 -2.61924,0.168315 -3.03431,-0.83666 -0.43463,-1.052286 1.24003,-1.623809 1.24093,-2.617789 7.6e-4,-0.852734 -1.4689,-1.287944 -1.17926,-2.147715 0.49018,-1.454956 4.98532,-0.795434 6.17165,-0.795434 6.503,0 13.19984,0.09014 19.51999,-0.258257 1.29909,-0.07161 5.37946,-0.712773 5.85163,0.797598 0.26343,0.842671 -0.98762,1.449687 -1.21639,2.177671 -0.37721,1.200332 2.22926,2.121958 0.824,3.183388 -1.65967,1.253609 -5.37959,0.414898 -7.36802,0.52104 -0.67434,0.036 -2.56475,0.231714 -2.08352,1.384835 0.52348,1.254321 3.26021,0.833276 4.3123,0.833686 3.51952,0.0014 7.04047,-0.0074 10.55987,4.2e-4 0.86836,0.0019 2.95955,-0.295732 3.4672,0.633213 0.43645,0.798613 -1.03734,1.516118 -1.11896,2.293516 -0.10604,1.010014 1.32227,1.296445 1.29404,2.244951 -0.0528,1.774814 -4.14765,1.227744 -5.24215,1.227949 -0.81378,1.56e-4 -5.03773,-0.429092 -4.56921,1.216875 0.38992,1.369824 3.17908,1.021943 4.24921,1.022979 3.51924,0.0034 7.04075,-0.0073 10.55989,5.17e-4 0.95013,0.0021 2.90947,-0.283291 3.5289,0.637647 0.55414,0.823877 -0.90935,1.410429 -1.07189,2.114687 -0.26258,1.137676 2.13535,2.1042 0.76234,3.147071 -1.64877,1.252324 -5.38758,0.415937 -7.36802,0.52166 -0.6842,0.03652 -2.27752,0.138906 -2.13493,1.195439 0.19612,1.453116 3.39381,1.022696 4.36371,1.023077 3.51959,0.0014 7.04045,-0.0074 10.55989,4.19e-4 0.96779,0.0022 2.92924,-0.281025 3.52892,0.648057 0.56436,0.874317 -0.89525,1.536436 -0.98795,2.342735 -0.16097,1.40039 2.58785,2.738632 -0.34254,3.298291 -2.10369,0.401764 -4.52058,-0.03454 -6.65584,0.149668 -0.61822,0.05333 -1.97867,0.239856 -1.71169,1.177756 0.45718,1.60618 4.5788,1.02311 5.84921,1.02311 h 19.2 c 1.31155,0 6.51676,0.62813 6.51676,-1.21688 0,-1.361975 -2.99004,-1.022043 -3.9568,-1.022981 -3.62566,-0.0035 -7.25408,0.0076 -10.87984,-5.17e-4 -1.00012,-0.0022 -3.19963,0.294878 -3.67344,-0.835742 -0.41923,-1.00041 1.01237,-1.347959 1.21618,-2.183584 0.26951,-1.104942 -2.56975,-2.531778 -0.30028,-3.208008 2.05602,-0.612637 4.76637,-0.0313 6.90596,-0.211416 0.65748,-0.05535 2.33312,-0.314746 2.02068,-1.367149 -0.37275,-1.255566 -3.29474,-0.83331 -4.24922,-0.833681 -3.51976,-0.0014 -7.04017,0.0074 -10.55988,-4.2e-4 -0.99545,-0.0022 -2.89629,0.271767 -3.57254,-0.661846 -0.6441,-0.889219 0.6474,-1.714619 0.72795,-2.557266 0.0868,-0.90832 -1.2099,-1.704824 -0.68582,-2.522978 0.86324,-1.347618 5.27996,-0.632256 6.72928,-0.665655 0.62869,-0.01449 3.77812,-0.21205 2.88879,-1.58584 -0.70979,-1.096425 -3.3819,-0.645859 -4.48778,-0.646025 -3.89689,-5.57e-4 -9.27685,0.921983 -13.00312,-0.172383 -2.22508,-0.653486 0.24869,-2.273159 -0.002,-3.501206 -0.18398,-0.900488 -1.25996,-1.689209 -1.71467,-2.406421 2.21692,-0.449673 4.93336,-0.244912 7.67754,-0.331055 0.77076,-0.02419 3.00994,-0.188452 2.65168,-1.395219 -0.39111,-1.317417 -3.12943,-0.833247 -4.24922,-0.833687 -3.50349,-0.0014 -10.24453,0.932114 -13.31742,-0.25645 -2.29154,-0.886348 0.56957,-2.087603 0.3091,-3.423428 -0.19759,-1.013364 -1.32377,-1.866445 -1.71168,-2.720161 2.41696,-0.490249 4.90475,-0.299151 7.35899,-0.322398 0.81566,-0.0077 2.38547,0.104297 2.88879,-0.625854 0.52359,-0.759561 -0.68158,-1.139815 -1.32946,-1.224849 -1.8891,-0.247939 -4.10722,-0.0669 -6.03832,-0.0669 h -17.92 c -2.79011,0 -5.52365,0.486533 -6.71999,-1.92 3.46384,-0.702598 10.13787,-0.3194 14.39999,-0.32001 1.16586,-1.66e-4 4.44571,0.496816 4.89163,-1.028447 0.27867,-0.953199 -1.16776,-1.357242 -1.26336,-2.234663 -0.10229,-0.938716 1.11314,-1.383726 1.18515,-2.218462 0.15535,-1.800889 -3.25603,-1.057183 -4.17342,-1.068384 -0.86312,-0.01054 -6.11277,0.473462 -5.52921,-1.299942 0.36789,-1.118027 3.24025,-0.789658 4.24921,-0.790053 3.61582,-0.0014 7.26754,0.04303 10.87961,-0.004 0.98143,-0.01277 2.93912,0.135859 3.29202,-1.048379 0.28056,-0.941514 -1.16745,-1.331016 -1.26336,-2.210796 -0.10508,-0.963726 1.09957,-1.267778 1.18515,-2.155454 0.13514,-1.40167 -3.34451,-0.981065 -4.17342,-0.981397 -0.90197,-3.61e-4 -6.07593,0.435235 -5.52921,-1.406318 0.3888,-1.309619 3.56921,-0.833564 4.56921,-0.833711 3.40967,-4.88e-4 6.83147,0.0219 10.23989,-0.0018 1.04603,-0.0073 2.91496,0.191953 3.5289,-0.864834 0.5301,-0.912471 -0.90287,-1.593848 -1.07189,-2.386172 -0.22881,-1.072549 1.21654,-1.41751 1.18533,-2.433027 -0.0478,-1.557285 -4.48805,-1.033262 -5.56223,-1.034307 -0.79822,-7.81e-4 -4.39103,0.192588 -4.16222,-1.129775 0.21681,-1.252979 3.23523,-0.782901 4.16222,-0.795782 3.51862,-0.04889 7.03323,-0.297334 10.55987,-0.315253 1.00343,-0.0051 2.93974,0.25497 3.46722,-0.800215 0.39061,-0.781358 -1.03656,-1.547432 -1.03504,-2.346143 0.002,-0.789697 1.03885,-1.2946 1.18862,-2.014385 0.34279,-1.647617 -2.97692,-1.237256 -3.9407,-1.238193 -1.14157,-0.0011 -6.4752,0.702265 -5.84918,-1.406406 0.41476,-1.39709 5.79302,-0.833721 7.12921,-0.833721 5.97315,0 11.94682,0 17.92,0 1.74852,0 5.27795,-0.745674 6.59596,0.491845 1.43152,1.344102 -2.69273,1.741475 -3.39607,1.746368 -3.83332,0.02664 -7.68502,-0.0064 -11.51977,0.0022 -0.91849,0.0021 -3.25873,-0.31876 -3.61176,0.838681 -0.2716,0.890479 0.98241,1.402159 1.15475,2.18587 0.27275,1.240254 -2.64281,2.750429 -0.0299,3.26584 2.03324,0.401064 4.58308,0.02099 6.63529,0.130673 0.62754,0.03354 2.04822,0.08488 2.04822,1.00167 0,1.599444 -3.22172,1.215733 -4.27676,1.216758 -3.48211,0.0034 -7.0967,-0.0072 -10.55988,5.08e-4 -0.95408,0.0021 -3.19299,-0.303984 -3.67488,0.838682 -0.41578,0.985908 0.93246,1.510312 0.93416,2.424052 0.002,0.834307 -0.95002,1.366192 -0.9076,2.200811 0.0937,1.842637 4.36049,1.242715 5.5682,1.24085 0.59323,-9.18e-4 4.83428,-0.383018 4.10465,1.118496 -0.60082,1.236435 -3.31865,0.816221 -4.42465,0.816689 -3.42824,0.0014 -6.74306,0.312285 -10.23988,0.32041 -0.94199,0.0022 -2.91416,-0.28457 -3.53041,0.638946 -0.4933,0.739258 0.6225,1.555439 0.68619,2.286357 0.0804,0.922657 -1.02695,1.519688 -0.88535,2.429766 0.26545,1.706108 4.78151,1.042295 5.96932,1.044941 0.75002,0.0017 3.71699,-0.190473 3.52236,0.95962 -0.22834,1.349282 -3.13596,0.958872 -4.16223,0.959868 -3.09517,0.003 -6.36773,-0.007 -9.28,7.61e-4 -1.09744,0.0029 -4.11681,-0.339272 -4.57466,1.09189 -0.24625,0.769756 0.71783,1.244624 0.85173,1.953369 0.20104,1.064048 -1.34248,1.784175 -0.91183,2.829331 0.38361,0.931006 1.90795,0.825 2.71717,0.839439 2.76877,0.0494 5.54781,0.0053 8.31759,0.0053 h 38.72 m 16.64,55.999997 h 0.32"
       id="path1" />
  </g>
</svg>
