<?xml version="1.0" encoding="UTF-8" standalone="no"?>
<!-- Created with Inkscape (http://www.inkscape.org/) -->

<svg
   version="1.1"
   id="svg1"
   width="317.49445"
   height="139.26669"
   viewBox="0 0 317.49444 139.26669"
   xmlns="http://www.w3.org/2000/svg"
   xmlns:svg="http://www.w3.org/2000/svg">
  <defs
     id="defs1" />
  <g
     id="g1"
     transform="translate(-7.3062235,-134.56845)">
    <path
       style="fill:none;stroke:#3b3628"
       d="m 7.3570981,135.53491 c 3.3465009,-0.34228 2.6975979,2.99817 2.9086419,6.08 0.08316,1.21435 0.275501,1.97081 0.290123,3.2 0.09172,7.7101 0.0012,16.50945 0.0012,24.32 0,2.65825 -0.01806,5.3447 2.47e-4,8 0.0059,0.85672 -0.0661,2.28412 1.000987,2.41087 2.359666,0.28028 1.558771,-4.7507 1.558771,-6.25087 0,-5.60299 0.0427,-14.94374 -9.88e-4,-21.12 -0.01724,-2.43789 -0.318015,-4.45475 -0.319012,-7.04 -9.46e-4,-2.45142 -0.04478,-4.90888 0.0015,-7.35975 0.01671,-0.88525 0.06447,-2.28272 1.278518,-2.28272 1.736634,0 1.233985,2.79228 1.308641,3.88247 0.09098,1.32859 0.284392,2.12662 0.291112,3.52 0.03955,8.20071 2.47e-4,16.72929 2.47e-4,24.96 0,1.50482 -0.832743,8.91303 1.001235,9.13087 0.916292,0.10884 1.373309,-0.60798 1.511357,-1.45704 0.360494,-2.21721 0.04741,-5.07448 0.04741,-7.35383 0,-4.60014 0,-9.8688 0,-14.4 0,-1.10791 0,-1.81323 0,-2.88 0,-2.39371 0,-5.53159 0,-8 0,-1.77662 -0.132593,-4.41054 0.01877,-6.07382 0.07387,-0.81173 0.585093,-1.94857 1.800987,-1.40692 1.179087,0.52525 0.740161,1.99451 0.740247,3.32074 1.34e-4,2.08227 0,3.46906 0,5.76 v 18.56 c 0,3.38342 -0.02448,6.87101 0.265678,9.92 0.100114,1.052 -0.02944,3.98711 0.07309,5.11383 0.07412,0.81445 0.391893,1.72018 1.54,1.48568 1.039413,-0.2123 0.981989,-1.18016 0.999753,-2.11975 0.0386,-2.04156 0.0015,-4.33397 0.0015,-6.39976 0,-4.9392 0.05678,-10.48284 -0.0012,-15.36 -0.01348,-1.1334 -0.173957,-1.80815 -0.263208,-2.88 -0.09798,-1.17665 0.09993,-4.463 0.08666,-5.76 -0.01102,-1.07764 0.163606,-1.78651 0.176543,-2.88 0.03233,-2.73208 -0.05335,-4.01665 -0.264197,-6.4 -0.06986,-0.78969 -0.177675,-2.27731 0.946668,-2.41087 2.291284,-0.27216 1.685088,5.26828 1.747654,6.57087 0.270725,5.63635 0.13111,13.06643 0.13111,19.2 0,1.30269 -0.04967,2.89231 0.0062,4.15852 0.03587,0.81343 0.0714,1.61233 0.995064,1.80099 1.157109,0.23635 1.469018,-0.70565 1.54,-1.48568 0.122524,-1.34641 0.01876,-3.36159 0.01876,-4.79383 v -20.16 c 0,-1.39612 -0.172014,-6.88036 2.047161,-4.87234 1.408748,1.27471 0.512839,6.80732 0.512839,8.71234 0,4.8377 0,10.26261 0,15.04 0,1.12013 0,1.81783 0,2.88 0,1.99578 0,4.65493 0,6.72 0,2.76032 -0.113913,5.56384 0.0062,8.31976 0.03896,0.894 0.21751,1.96939 1.273828,2.09111 1.223282,0.14096 1.261292,-1.17992 1.278518,-2.09111 0.05037,-2.6644 0.0015,-5.33481 0.0015,-7.99976 0,-3.76755 0,-7.50872 0,-11.2 0,-3.04901 0,-6.15399 0,-9.28 0,-1.5723 0,-2.53148 0,-4.16 0,-1.97117 -0.963449,-7.6107 0.328889,-9.0484 1.75479,-1.95215 2.231111,2.58515 2.231111,3.6084 0,0.93117 0,1.61082 0,2.56 0,1.09931 0,1.65074 0,2.88 0,2.94101 0,5.24908 0,8.32 0,1.28739 0.04689,5.08611 1.819754,4.08396 1.221977,-0.69074 0.740246,-3.15413 0.740246,-4.40396 v -12.48 c 0,-1.10926 -0.640371,-5.19215 1.28,-4.97087 2.096499,0.24159 1.238137,5.53776 1.415803,6.89087 0.405494,3.08826 0.184197,6.43114 0.184197,9.92 v 17.6 c 0,2.44593 -0.0166,4.91665 2.47e-4,7.36 0.0057,0.82265 -0.04851,2.28621 1.000988,2.41087 1.070113,0.12711 1.453199,-0.79409 1.54,-1.77235 0.246885,-2.78245 0.01876,-5.83222 0.01876,-8.63852 0,-1.91493 0,-3.00743 0,-4.8 0,-6.30946 0,-12.86771 0,-19.2 0,-2.29932 -0.297886,-6.59559 0.04741,-8.62124 0.401651,-2.35625 2.351001,-0.98693 2.493828,0.62273 0.170938,1.92649 -0.063,6.3001 0.02494,8.31827 0.04077,0.93551 0.444209,2.66665 1.813579,1.89259 1.745278,-0.98656 0.727822,-7.73421 0.740493,-9.57235 0.0076,-1.09747 -0.08819,-2.46518 1.279756,-2.46518 1.137222,0 1.235771,0.9638 1.273828,1.82667 0.08033,1.82136 0.0062,4.19943 0.0062,6.07851 0,5.56772 -0.06519,10.09664 0.0012,15.68 0.01937,1.62777 0.27813,2.3729 0.314073,3.84 0.04948,2.01969 0.0047,4.63877 0.0047,6.72 0,2.64396 -0.04835,5.36402 0.0015,7.99976 0.01622,0.85758 0.04855,2.23284 1.278521,2.09111 1.548301,-0.17842 1.279507,-2.27048 1.28,-3.37087 v -11.52 c 0,-5.24685 0.0604,-11.13929 -0.0012,-16.32 -0.01729,-1.45384 -0.276406,-2.30249 -0.314072,-3.84 -0.06361,-2.59661 -0.625034,-5.84113 0.09704,-8.27259 0.77607,-2.6133 3.107437,1.67464 4.332344,1.4321 1.747183,-0.34595 0.498872,-2.34469 2.285928,-2.34469 1.823549,0 1.28,2.58904 1.28,4.06518 v 15.68 c 0,7.28165 0,14.8247 0,22.08 0,1.37896 0,2.19877 0,3.52 0,3.70002 -0.04344,8.08504 0.0012,11.84 0.01646,1.38403 0.268086,2.28777 0.298271,3.52 0.101124,4.12785 0.02049,8.69856 0.02049,13.12 v 13.44 c 0,1.21107 0.445122,3.48873 -1.001236,3.84938 -1.447959,0.36107 -1.540268,-1.34813 -1.557285,-2.24963 -0.04248,-2.25091 -0.0015,-4.7636 -0.0015,-7.03975 0,-1.79198 0.03795,-4.01934 -0.0047,-5.76 -0.02636,-1.07587 -0.210488,-1.76759 -0.286665,-2.88 -0.270932,-3.95645 -0.02864,-11.48953 -0.02864,-15.36 0,-0.95008 0,-1.60138 0,-2.56 0,-1.07902 0.07574,-3.11529 -0.01876,-4.15383 -0.07098,-0.78003 -0.382881,-1.72203 -1.54,-1.48568 -1.039414,0.2123 -0.981992,1.18017 -0.999756,2.11975 -0.04242,2.24376 -0.0015,4.76898 -0.0015,7.03976 0,2.83896 0,4.46647 0,7.04 0,3.32007 0,7.18308 0,10.56 0,1.67584 -0.09953,3.82332 0.05432,5.44 0.09075,0.95361 0.237275,1.59209 0.260986,2.56 0.04568,1.86445 0.792989,6.13198 -1.001235,6.71926 -2.841396,0.93002 -1.874072,-6.43827 -1.874072,-7.99926 0,-4.19315 0,-8.98925 0,-13.12 0,-1.20837 0,-1.98284 0,-3.2 0,-3.25918 0,-6.94096 0,-10.24 0,-2.37878 0.04299,-5.00756 -0.0015,-7.35976 -0.01868,-0.98792 -0.08634,-2.4202 -1.557285,-2.11975 -1.126401,0.23008 -0.9948,1.54117 -1.000991,2.43951 -0.01744,2.53008 -2.44e-4,5.14227 -2.44e-4,7.68 v 25.28 c 0,2.04271 1.031391,7.06031 -0.512842,8.35457 -1.126006,0.94373 -1.949741,-0.44049 -2.028393,-1.31729 -0.115308,-1.28542 -0.01876,-2.7972 -0.01876,-4.15728 0,-6.95061 0.517432,-15.43685 -0.228643,-21.76 -0.175879,-1.49061 0.434112,-4.46522 -1.650122,-4.03951 -1.697597,0.34674 -1.001235,4.2348 -1.001235,5.63951 0,1.39203 0,2.33073 0,3.84 0,2.99027 0.250239,4.38397 0.315308,7.04 0.05858,2.39123 0.0047,5.53342 0.0047,8 0,1.5965 0.06213,3.56725 -0.0062,5.11851 -0.03762,0.85446 -0.218472,2.21079 -1.552593,1.93829 -1.008037,-0.2059 -0.984179,-1.42886 -0.999755,-2.2568 -0.04646,-2.46898 -0.0015,-5.18701 -0.0015,-7.68 0,-2.59006 -0.290273,-4.32504 -0.318765,-6.72 -0.01984,-1.66749 -0.0012,-3.82635 -0.0012,-5.44 0,-1.06216 0,-1.75989 0,-2.88 0,-3.46164 0,-7.37579 0,-10.88 0,-1.9633 0.03521,-4.13932 -0.0015,-6.07976 -0.01776,-0.93958 0.03965,-1.90745 -0.999756,-2.11975 -1.292034,-0.26391 -1.51315,0.90663 -1.552593,1.801 -0.100664,2.28251 -0.0062,5.32022 -0.0062,7.67851 0,4.94027 0,10.4814 0,15.36 0,1.12012 0,1.81784 0,2.88 0,2.08695 0,4.87988 0,7.04 0,1.79048 0.941428,7.7924 -0.512839,8.97531 -2.271384,1.84756 -2.047161,-3.24613 -2.047161,-4.17531 0,-2.56496 0,-5.47128 0,-8 0,-1.81322 0,-2.79766 0,-4.8 0,-1.12602 0.49732,-5.31292 -1.819753,-4.28074 -1.270855,0.56613 -0.740247,3.47733 -0.740247,4.60074 0,2.00234 0,2.98677 0,4.8 0,2.22826 0,4.78038 0,7.04 0,1.26047 0.623609,5.16247 -1.28,5.16247 -1.86101,0 -1.28,-3.55767 -1.28,-4.84247 0,-1.32123 0,-2.14104 0,-3.52 0,-5.79099 0.06701,-13.14281 -0.0012,-18.88 -0.02979,-2.50401 -0.285493,-4.25664 -0.317529,-7.04 -0.02823,-2.45259 0.01543,-4.9072 -0.0015,-7.36 -0.006,-0.87155 0.104167,-2.21378 -1.000989,-2.43951 -1.287983,-0.26308 -1.5103,0.842 -1.552593,1.801 -0.05967,1.35298 -0.0062,4.12616 -0.0062,5.43851 0,8.59284 0.32,17.17203 0.32,25.92 0,2.78853 0.591077,7.4443 -0.101728,9.88494 -0.604248,2.12866 -2.388176,0.53028 -2.4521,-0.92617 -0.138078,-3.14608 0.04352,-5.23678 -0.273332,-7.99853 -0.11115,-0.9688 -0.3573,-2.71599 -1.872593,-2.04098 -1.778467,0.79225 -0.504453,7.44502 -0.552593,8.76074 -0.03928,1.07348 0.196138,3.15357 -1.466418,3.15357 -1.217153,0 -1.262573,-1.28479 -1.279754,-2.19382 -0.04834,-2.55792 -0.0015,-5.12131 -0.0015,-7.67975 0,-1.77973 0,-4.03801 0,-5.76 0,-1.06217 0,-1.75989 0,-2.88 0,-5.42721 0.158247,-12.34273 -0.21605,-17.28 -0.101851,-1.3435 0.784775,-7.81348 -1.105185,-8.19951 -1.991009,-0.40667 -1.559204,2.58209 -1.558765,3.71951 8.03e-4,2.08347 0.269654,2.93648 0.315308,4.8 0.04264,1.74066 0.0047,3.96803 0.0047,5.76 0,2.46841 0,5.60629 0,8 0,1.06678 0,1.77211 0,2.88 0,3.42991 0,7.39914 0,10.88 0,1.79644 0.745639,6.6156 -0.51284,7.80074 -1.410193,1.32799 -2.080403,-2.23027 -3.605925,-1.92024 -1.246243,0.25327 -0.895161,2.16083 -2.281235,2.19901 -2.210732,0.0609 -1.22136,-6.77277 -1.292593,-8.39951 -0.164312,-3.75158 -0.307443,-8.28016 -0.307443,-12.48 0,-1.20851 0,-1.97985 0,-3.2 0,-1.2526 0,-2.06604 0,-3.2 0,-2.57315 0,-5.53476 0,-8.32 0,-2.07083 0.08229,-4.7126 -0.0062,-6.71851 -0.03805,-0.86287 -0.136601,-1.82667 -1.273827,-1.82667 -1.75764,0 -1.28,2.47246 -1.28,4.06518 0,1.21717 0,1.99164 0,3.2 0,4.11905 0,8.94164 0,13.12 0,2.65258 -0.150034,5.71082 0.02864,8.32 0.108229,1.58045 0.290692,2.43405 0.291358,4.16 0.0027,7.04285 0,14.50713 0,21.43999 0,1.37979 0,2.1987 0,3.52 0,4.63133 0,10.01809 0,14.72 0,4.39992 0.194157,8.89925 0.01259,13.12 -0.05862,1.36262 -0.28067,3.95075 0.817777,4.90815 0.902439,0.78656 1.556889,-0.30475 1.682223,-1.07432 0.348446,-2.13953 0.04741,-4.83946 0.04741,-7.03383 0,-2.06506 0,-4.72422 0,-6.72 0,-1.06216 0,-1.75988 0,-2.88 0,-5.18223 0,-11.072 0,-16.32 0,-1.63347 -0.94717,-9.50517 1.28,-9.50517 2.182109,0 1.28,7.56654 1.28,9.18517 0,7.93857 -0.484076,17.7215 0.265678,25.6 0.110221,1.15822 0.04589,2.57976 0.05457,3.84 0.0062,0.89824 -0.135841,2.27064 1.000989,2.48396 1.966125,0.36891 1.607332,-2.68727 1.546172,-4.08396 -0.362665,-8.28267 -0.307385,-19.50689 -0.307385,-28.48 0,-1.69286 0,-2.59228 0,-4.16 0,-1.22206 -0.494828,-5.3118 1.819753,-4.28074 1.227424,0.54678 0.740247,3.18143 0.740247,4.28074 0,1.56773 0,2.46714 0,4.16 0,4.43534 -0.269855,9.72111 0.02864,14.08 0.07618,1.11242 0.26031,1.80413 0.286667,2.88 0.06313,2.57692 0.0047,5.98082 0.0047,8.64 0,2.50545 -0.102561,5.19528 0.0062,7.67951 0.03969,0.90689 0.304795,2.19421 1.552592,1.91852 1.873691,-0.41398 1.001235,-6.7856 1.001235,-8.31803 0,-5.65705 0.06521,-12.01459 -0.0012,-17.6 -0.01346,-1.13184 -0.16292,-1.81317 -0.264443,-2.88 -0.15385,-1.61668 -0.05432,-3.76416 -0.05432,-5.44 0,-2.59839 -0.215611,-5.4183 0.01876,-7.99382 0.07625,-0.83787 0.350862,-1.51135 1.261235,-1.51135 1.698445,0 1.218228,2.24043 1.415804,3.74517 0.7077,5.38991 0.184196,14.67242 0.184196,20.8 0,1.33452 -0.742714,6.25643 0.740247,6.82815 2.241995,0.86435 1.819753,-2.74757 1.819753,-4.26815 0,-6.11881 0,-14.20373 0,-20.8 0,-1.10593 -0.566399,-8.0838 2.047161,-6.06962 0.632434,0.4874 0.507886,1.54671 0.512593,2.22962 0.0057,0.83241 2.46e-4,1.40164 2.46e-4,2.24 0,1.30237 0,2.02981 0,3.2 0,0.70865 0,1.22229 0,1.92 0,1.3203 0,2.40907 0,3.84 0,1.94164 0,4.51479 0,6.4 0,1.32231 0,2.06936 0,3.52 0,3.36294 0.368628,8.27125 0.147161,11.2 -0.101638,1.3441 0.138437,1.98416 0.168147,3.2 0.03384,1.38516 -0.739907,5.89547 1.284692,5.8395 1.279485,-0.0354 1.26178,-1.43296 1.278518,-2.31974 0.04632,-2.454 0.0015,-5.19796 0.0015,-7.67976 0,-1.69548 0.03567,-3.79242 -0.0047,-5.44 -0.03257,-1.32925 -0.274927,-2.06327 -0.310615,-3.52 -0.09394,-3.83448 -0.0047,-8.01776 -0.0047,-11.84 0,-1.14412 0,-2.1124 0,-3.2 0,-0.824 0,-1.43503 0,-2.24 0,-1.7632 -0.975395,-7.58517 1.28,-7.58517 1.838469,0 1.28,3.74366 1.28,5.02517 0,2.6767 0,5.6791 0,8.32 0,1.40824 0,2.37526 0,3.84 0,1.37674 -0.607385,4.14302 1.005926,4.55952 2.331435,0.60187 1.654169,-3.1961 1.582717,-4.23952 -0.326382,-4.76613 -0.235652,-10.84471 -0.02247,-15.67851 0.05143,-1.16623 1.115413,-2.79949 2.224939,-1.40815 1.059578,1.32871 0.307927,6.90073 0.330124,8.76666 0.02115,1.77813 0.310335,2.78319 0.318519,4.48 0.03195,6.62441 2.46e-4,13.51153 2.46e-4,20.16 0,2.53442 -0.04603,5.15483 0.0015,7.68 0.01825,0.96996 0.107537,2.32424 1.291111,2.27506 1.375107,-0.0571 1.569145,-1.3012 1.568642,-2.2753 -0.0011,-2.13747 -0.301235,-3.62268 -0.301235,-6.07976 0,-1.61726 0,-2.58259 0,-4.16 0,-7.04511 0,-14.36931 0,-21.44 0,-2.55287 -0.04674,-5.12933 0.0015,-7.67975 0.01741,-0.92098 0.0611,-2.14542 1.27852,-2.14542 1.47085,0 1.277905,1.76686 1.28,2.78517 0.0036,1.73225 -0.949326,7.87545 0.512842,8.94495 1.156216,0.8457 1.940537,-0.59627 2.028393,-1.58643 0.08442,-0.95144 0.01877,-1.61478 0.01877,-2.55852 0,-1.73764 -0.142578,-4.30089 0.01876,-6.07382 0.106806,-1.17366 1.622514,-2.33687 2.348149,-0.86445 1.132837,2.29869 0.193086,7.23214 0.193086,9.81827 0,7.81067 0.32,15.52112 0.32,23.36 0,2.47576 -0.04477,5.23382 0.0015,7.67976 0.01859,0.98349 0.02105,2.14543 1.278521,2.14543 1.137226,0 1.235771,-0.96381 1.273828,-1.82667 0.08033,-1.82137 0.0062,-4.19943 0.0062,-6.07852 0,-7.38685 0.03525,-15.03999 -2.44e-4,-22.4 -0.0071,-1.46433 -0.311836,-2.37693 -0.254077,-3.84 0.09597,-2.4308 -0.110855,-4.89201 -0.0642,-7.35975 0.01849,-0.9778 0.08109,-2.14542 1.278521,-2.14542 1.11499,0 1.693237,2.26172 2.576045,2.26172 1.964248,0 1.26353,-3.88262 3.630869,-2.0274 1.314629,1.03023 0.513086,5.78483 0.513086,7.35085 v 21.76 c 0,3.72002 -0.0017,7.48454 0,11.2 4.54e-4,1.00688 -0.140664,3.31655 1.28,3.31655 1.067158,0 1.231777,-1.07172 1.273828,-2.03679 0.09377,-2.15189 0.0062,-3.34741 0.0062,-5.75976 v -26.56 c 0,-1.63272 -0.931719,-9.08472 1.001235,-9.4795 1.66249,-0.33954 1.333022,1.87411 2.56,2.19901 1.748056,0.46286 1.613193,-3.43329 3.618515,-1.98913 1.561182,1.12431 0.820249,5.90586 0.820249,7.66962 v 23.04 c 0,3.30374 -0.0068,6.61725 0,9.92 0.002,0.9896 -0.189668,2.95173 1.28,2.91112 1.224493,-0.0339 1.261485,-1.36918 1.278521,-2.27136 0.04368,-2.31327 0.0015,-4.71763 0.0015,-7.03976 v -26.24 c 0,-1.51486 -0.867548,-7.81779 1.001236,-8.1995 1.551831,-0.31696 1.551367,1.40202 1.55852,2.4395 0.01772,2.57126 -0.623808,6.15329 0.101973,8.5926 0.826762,2.77869 2.455796,-0.98773 2.458271,-2.1926 v -2.88 c 0,-1.37688 -0.05439,-2.78534 0.0062,-4.15851 0.05214,-1.18222 1.509141,-2.90777 2.360742,-1.17976 1.100244,2.23255 0.193086,6.98843 0.193086,9.49827 0,7.78968 0.32,15.59501 0.32,23.36 0,2.55817 -0.01739,5.12246 2.44e-4,7.68 0.0067,0.97852 -0.06236,2.46519 1.279756,2.46519 1.36584,0 1.273027,-1.48968 1.279756,-2.46519 0.01757,-2.54799 2.44e-4,-5.1289 2.44e-4,-7.68 0,-4.01624 0.04596,-8.51344 -0.0012,-12.48 -0.0331,-2.78186 -0.31877,-4.50712 -0.31877,-7.68 0,-1.20836 0,-1.98285 0,-3.2 0,-2.11564 -1.007051,-8.05138 0.328887,-9.72666 1.961191,-2.45933 2.298769,2.80768 2.366914,3.32666 0.605478,4.61141 0.184199,9.24365 0.184199,14.08 0,1.03889 -0.476103,4.66346 1.55877,3.94815 1.643105,-0.57759 1.00123,-4.1809 1.00123,-5.54815 0,-4.70391 0.578262,-12.22709 -0.32,-15.99999 0.914268,-0.26723 1.896885,-0.63186 2.551113,0.19308 1.167295,1.4719 0.328887,5.21949 0.328887,7.16691 v 26.24 c 0,2.55223 -0.01733,5.13049 2.44e-4,7.68 0.0067,0.97248 -0.06138,2.48105 1.292354,2.4395 2.585224,-0.0793 1.587402,-6.69422 1.587402,-8.5195 0,-1.89918 0.02056,-4.23176 -0.0035,-6.08 -0.01816,-1.39846 -0.13875,-2.30257 -0.265684,-3.84 -0.113554,-1.37546 -0.05086,-2.19894 -0.05086,-3.52 0,-3.86649 0,-8.24547 0,-12.16 0,-2.55288 -0.04673,-5.12933 0.0015,-7.67975 0.01889,-0.99927 0.170186,-2.40306 1.557285,-2.11975 1.761583,0.35981 1.001231,5.5181 1.001231,6.9195 v 18.56 c 0,1.37905 -0.682871,5.32657 1.005912,5.8521 2.3969,0.74589 1.56862,-3.13298 1.55531,-4.2521 -0.0731,-6.14503 -10e-4,-13.78369 -10e-4,-20.48 0,-1.15796 -0.69186,-8.31177 2.07581,-6.38962 1.57856,1.09631 0.8042,6.4854 0.8042,8.30962 v 25.28 c 0,2.55223 -0.0173,5.13049 2.4e-4,7.68 0.006,0.82123 -0.1318,2.27631 1.00099,2.41086 2.51071,0.29822 1.55877,-7.53502 1.55877,-9.13086 v -26.88 c 0,-1.53499 -0.94927,-8.39176 1.55877,-7.8795 1.04708,0.21387 0.98402,1.2879 0.99974,2.11975 0.0406,2.14932 10e-4,4.54646 10e-4,6.71975 v 24.96 c 0,1.16172 -0.7068,8.60456 1.81975,7.02494 0.91614,-0.57277 0.73833,-1.93564 0.74025,-2.86494 0.005,-2.55948 0,-5.12038 0,-7.68 v -24 c 0,-3.08045 0.76331,-7.5997 -0.10173,-10.51259 -0.24971,-0.84084 -1.22438,-1.21013 -1.94691,-0.67727 -0.73598,0.54276 -0.44716,1.35794 -1.25136,1.71061 -1.22875,0.53883 -1.72645,-0.585 -1.80124,-1.40691 -0.14418,-1.58436 -0.0188,-4.06307 -0.0188,-5.75383 v -12.8 c 0,-3.19578 0.0363,-6.76294 -10e-4,-9.92 -0.0135,-1.13183 -0.16292,-1.81318 -0.26445,-2.88 -0.13427,-1.41101 -0.0543,-3.33938 -0.0543,-4.8 0,-1.49983 0.82074,-6.30518 -1.28,-6.30518 -1.3492,0 -1.27307,1.49445 -1.27976,2.46518 -0.0176,2.55755 -2.4e-4,5.12184 -2.4e-4,7.68 0,2.84914 0,4.4722 0,7.04 0,2.99572 0.008,6.60676 0.009,9.6 5.7e-4,1.46187 0.27345,2.19453 0.30593,3.52 0.0427,1.74066 0.005,3.96803 0.005,5.76 0,1.88025 0.0742,4.2556 -0.006,6.07851 -0.04,0.90702 -0.14193,1.79212 -1.28643,1.89976 -1.60949,0.15137 -1.579,-1.3536 -1.58716,-2.53827 -0.0156,-2.25569 0.0151,-4.78412 -4.9e-4,-7.04 -0.006,-0.82471 0.12628,-1.97484 -0.74,-2.36074 -1.29481,-0.57679 -1.768971,0.71073 -1.81358,1.72222 -0.103467,2.34627 0.08867,6.02291 -0.01234,8.31703 -0.07322,1.66297 -2.0871,3.14123 -2.506426,0.62717 -0.396494,-2.37718 -0.0474,-6.948 -0.0474,-9.58568 v -23.36 c 0,-2.01869 1.088252,-10.06451 -1.587402,-9.85383 -1.543848,0.12157 -1.290567,1.82719 -1.292598,2.81383 -0.003,1.44611 -0.104248,2.17368 0.05433,3.84 0.09088,0.95497 0.237266,1.59195 0.260986,2.56 0.05859,2.39123 0.0047,5.53343 0.0047,8 v 16.96 c 0,2.48181 0.04483,5.22575 -0.0015,7.67975 -0.01674,0.88678 9.76e-4,2.28439 -1.278516,2.31976 -1.90335,0.0526 -1.28,-3.65166 -1.28,-4.87951 0,-4.26654 2.73e-4,-8.53351 0,-12.8 -8.8e-5,-1.31349 0.327939,-3.40701 -1.031602,-3.96074 -0.870869,-0.35469 -1.518925,0.0413 -1.746669,0.80815 -0.307637,1.03593 -0.103506,2.68382 -0.101729,3.79259 0.0031,1.94113 0.272764,2.74371 0.315313,4.48 0.06311,2.57542 0.0047,5.98232 0.0047,8.64 0,1.21179 -0.674004,5.89769 -2.551113,3.36049 -1.229033,-1.66123 -0.328887,-7.03646 -0.328887,-9.12049 0,-1.49393 0,-3.3524 0,-4.8 0,-1.06217 0,-1.75988 0,-2.88 0,-5.38466 0,-11.50685 0,-16.96 0,-2.48153 0.0449,-5.22611 -0.0015,-7.67976 -0.0179,-0.94688 0.01151,-2.14542 -1.278516,-2.14542 -2.225356,0 -1.28,7.80436 -1.28,9.50518 v 26.56 c 0,1.70982 0,2.65931 0,4.16 0,0.85951 0.50043,3.87029 -1.28,3.91951 -2.047744,0.0566 -1.28,-5.23545 -1.28,-6.79951 v -18.88 c 0,-1.29006 0.675459,-5.25569 -0.741235,-5.88074 -2.629556,-1.16017 -1.818765,4.17359 -1.818765,5.56074 v 20.16 c 0,1.07677 0.204536,7.60373 -2.047158,5.55283 -1.547788,-1.40976 -0.512842,-6.9961 -0.512842,-9.07283 0,-3.70857 0.04234,-7.857 -0.0012,-11.52 -0.01462,-1.22916 -0.206968,-1.98567 -0.290122,-3.2 -0.212622,-3.10491 -0.02864,-6.76229 -0.02864,-9.92 0,-2.73889 0.114107,-5.59127 -0.0062,-8.31851 -0.04087,-0.92673 -0.225136,-1.82667 -1.273828,-1.82667 -1.336889,0 -1.272353,1.39128 -1.279755,2.46518 -0.01752,2.54139 -2.45e-4,5.13138 -2.45e-4,7.68 0,6.70381 0.211358,13.5632 0.211358,20.16 0,1.21764 -0.269102,2.22818 -0.182715,3.52 0.07441,1.11279 0.260308,1.8041 0.286665,2.88 0.04575,1.86753 0.694946,6.4301 -1.025679,7.33234 -1.290732,0.67682 -1.677382,-0.92458 -1.752343,-1.89259 -0.116075,-1.49889 0.234438,-2.75258 0.202221,-4.15975 -0.0208,-0.90851 -0.209306,-1.66106 -0.270864,-2.56 -0.216099,-3.15566 -0.02864,-8.7617 -0.02864,-11.84 0,-1.06216 0,-1.75988 0,-2.88 0,-2.93772 0,-6.30676 0,-9.28 0,-1.63463 0,-2.37464 0,-3.84 0,-1.10587 0.488252,-5.41763 -1.558764,-4.99951 -0.904697,0.18478 -0.958467,0.97125 -0.995064,1.801 -0.07625,1.72903 -0.0062,3.97535 -0.0062,5.75851 v 24.96 c 0,2.17352 0.0391,4.57014 -0.0015,6.71975 -0.01674,0.88679 9.52e-4,2.28439 -1.27852,2.31976 -1.851954,0.0512 -1.28,-3.36695 -1.28,-4.55951 v -15.04 c 0,-7.59738 0,-15.47085 0,-23.04 0,-2.97359 -0.32,-5.26202 -0.32,-8.32 0,-1.91493 0,-3.00743 0,-4.8 0,-5.99419 0,-12.22419 0,-18.24 v -13.44 c 0,-1.40994 -0.555269,-3.40159 1.001235,-3.71951 1.512427,-0.30892 1.388511,2.03638 2.564692,2.33161 1.090635,0.27376 1.56062,-0.34 1.874072,-1.1721 0.403233,-1.07043 2.12898,-2.23263 2.512593,0.0188 0.352539,2.06901 0.04741,6.01758 0.04741,8.30124 v 19.84 c 0,3.74044 0,6.75557 0,10.56 0,1.45502 -0.533369,3.7431 1.005928,4.26816 2.436826,0.8312 1.874072,-6.5048 1.874072,-8.10816 0,-1.88846 0.04023,-4.24627 -0.0047,-6.08 -0.03594,-1.46712 -0.294707,-2.21221 -0.314072,-3.84 -0.03396,-2.85492 -0.0012,-4.47879 -0.0012,-7.04 0,-3.05676 0,-6.50611 0,-9.6 0,-2.37325 -0.04285,-5.01491 0.0015,-7.35975 0.01567,-0.82873 -0.03718,-1.9768 0.999756,-2.06543 0.735034,-0.0628 1.251006,0.41022 1.457036,1.14 0.661826,2.34422 0.100571,5.07005 0.101728,7.64518 5.76e-4,1.28855 -0.305136,2.86095 1.005928,3.30816 2.352314,0.80237 1.918647,-6.16257 1.861479,-7.46816 -0.04077,-0.93095 -0.226547,-1.54595 -0.277285,-2.55975 -0.05242,-1.04737 0.924112,-3.32812 2.200987,-1.72692 0.582304,0.73021 0.298906,2.15132 0.357534,3.00667 0.148247,2.16279 0.291357,3.3493 0.291357,5.76 v 25.28 c 0,2.53841 -0.04636,5.1492 0.0015,7.67976 0.01804,0.9542 0.218252,2.4991 1.55729,2.0284 1.788515,-0.62872 1.00123,-5.10417 1.00123,-6.50816 0,-1.11379 0,-1.96108 0,-3.2 0,-0.78462 0,-1.35038 0,-2.24 0,-1.79005 0,-2.70891 0,-4.8 0,-1.20839 0,-1.98284 0,-3.2 0,-4.97982 0,-10.63715 0,-15.68 0,-2.79095 -0.438008,-6.07554 0.32,-8.64 0.744258,0.21132 1.688086,0.28273 2.046914,1.04543 0.547559,1.16386 0.193086,3.10149 0.193086,4.39457 0,3.5528 0,7.04408 0,10.56 0,1.47796 -0.999053,5.02079 0.740244,6.00396 1.673477,0.94596 1.819678,-2.20816 1.819756,-3.44396 3.52e-4,-5.57779 -0.486543,-11.401 0.01876,-16.95382 0.132646,-1.45767 1.748525,-2.0812 2.348154,-0.86445 1.332363,2.70358 0.193086,9.6626 0.193086,12.69827 0,4.06661 0.226103,7.87919 0.315312,11.52 0.0677,2.76255 0.0047,6.42827 0.0047,9.28 0,2.55223 -0.01733,5.13049 2.44e-4,7.68 0.0057,0.82124 -0.131797,2.27632 1.000986,2.41087 1.245254,0.14791 1.511856,-1.15615 1.552598,-2.09111 0.109922,-2.52273 0.0062,-5.14719 0.0062,-7.67976 0,-8.74378 0.0034,-17.49718 0,-26.24 -6.35e-4,-1.65082 -0.125527,-2.36729 -0.265674,-3.84 -0.09259,-0.97295 -0.460684,-3.44305 0.458506,-4.14963 2.490547,-1.91446 2.367168,3.24916 2.367168,4.46963 v 20.16 c 0,1.24281 -0.78208,7.65103 1.558764,6.82816 1.713,-0.60217 1.00123,-4.74663 1.00123,-6.18816 v -18.88 c 0,-1.50556 -0.0585,-3.33275 0.006,-4.79851 0.0396,-0.89783 0.25282,-2.06649 1.5526,-1.801 1.04296,0.21303 0.98315,1.24194 0.99974,2.11976 0.0386,2.04286 10e-4,4.33297 10e-4,6.39975 0,8.98835 0,16.92294 0,25.92 0,2.60267 -0.21023,5.4178 0.0188,7.99852 0.0889,1.00203 0.47853,1.89164 1.56864,1.77235 2.26021,-0.24733 1.2926,-8.01629 1.2926,-9.77087 0,-9.12692 -0.32,-17.13772 -0.32,-26.24 0,-1.53224 0,-2.76471 0,-4.16 0,-1.04712 -0.49519,-4.06518 1.28,-4.06518 1.92866,0 1.28,3.35029 1.28,4.38518 0,1.39703 -0.0646,2.47799 0.0286,3.84 0.10195,1.48873 0.29077,2.64156 0.29136,4.16 0.003,6.60547 0,13.52537 0,20.16 0,1.47738 -0.83826,9.37496 1.28,9.13087 2.16962,-0.25001 1.28,-6.27442 1.28,-7.85087 v -24.96 c 0,-2.18321 -0.0394,-4.55715 0.001,-6.71975 0.0174,-0.92256 6.5e-4,-2.14543 1.27852,-2.14543 2.2262,0 1.28,6.65313 1.28,8.22518 v 26.56 c 0,2.43286 -0.0444,4.93437 0.001,7.35976 0.0169,0.89316 0.18118,2.21756 1.27852,2.09111 2.05856,-0.23721 1.28,-7.77933 1.28,-9.77087 0,-8.69315 0,-17.49242 0,-26.24 0,-1.66806 -0.91214,-7.38465 0.74024,-8.12074 1.39245,-0.6203 1.7707,0.74983 1.81359,1.72223 0.0897,2.03396 0.006,4.62676 0.006,6.71851 0,8.50219 0,17.10831 0,25.6 0,2.01203 -0.23827,4.31682 0.0474,6.07383 0.14461,0.88941 0.62665,1.55699 1.54,1.45704 2.22833,-0.24385 1.2926,-7.43316 1.2926,-9.13087 v -15.68 c 0,-2.27394 0.0494,-5.1545 -0.005,-7.36 -0.0237,-0.96792 -0.17023,-1.60638 -0.26099,-2.56 -0.14424,-1.51573 -0.82099,-6.94518 1.22568,-6.94518 2.16729,0 1.18384,5.68391 1.33432,7.26518 0.0908,0.9536 0.23727,1.59209 0.26099,2.56 0.0586,2.39122 0.005,5.53344 0.005,8 v 16.64 c 0,2.53841 -0.0464,5.1492 0.001,7.67976 0.0162,0.85759 0.0485,2.23284 1.27852,2.09111 1.21491,-0.13999 1.26081,-1.4698 1.27851,-2.41087 0.0479,-2.54784 0.001,-5.12902 0.001,-7.68 v -25.28 c 0,-1.72065 -0.9194,-7.52585 0.51283,-8.62963 2.56543,-1.9771 2.04717,4.99358 2.04717,6.06963 v 19.84 c 0,1.35967 -0.20864,6.69311 1.81975,5.42494 1.42715,-0.89226 0.74025,-4.71119 0.74025,-6.38494 0,-1.77972 0,-4.03801 0,-5.76 0,-1.06217 0,-1.75989 0,-2.88 0,-2.95553 0,-6.28869 0,-9.28 0,-1.46634 -0.82946,-7.26518 1.28,-7.26518 2.17396,0 1.28,6.39435 1.28,7.90518 0,5.59387 0,11.38618 0,16.96 0,1.57876 -0.0351,2.53563 0.005,4.16 0.0486,1.98166 0.31532,3.30987 0.31532,5.44 0,2.44564 -0.0166,4.91695 2.4e-4,7.36 0.006,0.82124 -0.13181,2.27632 1.00099,2.41087 1.24525,0.14791 1.51185,-1.15615 1.5526,-2.09111 0.11448,-2.62755 0.006,-5.36192 0.006,-7.99976 0,-7.02415 0.0113,-14.10115 0,-21.12 -0.003,-1.74003 -0.22701,-2.72481 -0.15975,-4.48 0.052,-1.35597 -0.16017,-3.37151 -0.16024,-4.48 -7e-5,-1.05585 -0.51115,-2.5941 0.32888,-3.64667 0.58857,-0.73749 1.73939,-0.42143 2.17383,0.2284 0.5935,0.88778 0.37686,1.98805 0.37729,3.09827 0.002,4.81988 -3.2e-4,9.87926 0,14.72 5e-5,0.97145 -0.19644,4.63203 1.81975,3.49235 1.17795,-0.66585 0.74025,-2.99981 0.74025,-4.13235 v -12.8 c 0,-1.31096 -0.71364,-5.46366 1.55877,-4.99951 1.04616,0.21368 0.9841,1.29229 0.99974,2.11976 0.0368,1.94637 0.001,4.112 0.001,6.07975 v 26.56 c 0,1.63819 -0.90216,9.10134 1.00591,9.47951 2.96229,0.58711 1.87409,-8.31035 1.87409,-10.11951 0,-2.99066 0.0339,-6.32532 -10e-4,-9.28 -0.0188,-1.5789 -0.29722,-2.45188 -0.31754,-4.16 -0.0302,-2.54209 -0.001,-4.56906 -0.001,-7.36 0,-1.53375 0,-2.80113 0,-4.16 0,-1.06634 0,-1.78435 0,-2.88 0,-1.37743 -0.7333,-5.9348 1.00591,-6.27951 1.74283,-0.34542 1.86563,1.56437 1.87385,2.75951 0.016,2.33055 -0.0156,4.71123 4.9e-4,7.04 0.005,0.74963 -0.14222,2.00804 0.74,2.34816 1.34271,0.51765 1.77183,-1.07006 1.81358,-2.0284 0.11601,-2.66238 -0.21029,-5.66718 0.0249,-8.31827 0.0855,-0.96342 1.20028,-2.65189 2.21235,-1.40692 1.28509,1.58082 0.32889,6.73192 0.32889,8.76543 v 24.96 c 0,2.55223 -0.0173,5.13049 2.4e-4,7.68 0.006,0.82264 -0.0485,2.28621 1.00099,2.41087 1.0701,0.12711 1.45321,-0.79407 1.54001,-1.77235 0.25936,-2.92326 0.0188,-7.38923 0.0188,-10.23852 0,-7.31751 0,-14.81685 0,-22.4 0,-2.46118 -0.88291,-6.99492 0.19308,-9.17827 1.14612,-2.32563 2.63183,1.96181 3.92569,1.69778 1.17294,-0.23935 1.1527,-2.76437 2.87531,-2.33161 1.50131,0.37717 1.00592,2.83189 1.00592,4.0521 v 12.8 55.04 15.04 c 0,1.36251 0.24793,4.06517 -1.28,4.06517 -2.38658,0 -1.28,-7.09477 -1.28,-8.86517 v -24.96 c 0,-1.62807 0.9207,-7.43955 -1.2926,-7.61383 -0.90107,-0.0709 -1.3914,0.36036 -1.54,1.23259 -0.3417,2.00559 -0.0507,4.63555 -0.0474,6.70124 0.003,2.0601 0.31057,3.21576 0.31975,5.12 0.0304,6.30914 2.5e-4,12.86797 2.5e-4,19.2 0,1.65984 0.96773,9.18517 -1.2926,9.18517 -1.71235,0 -1.57893,-1.58896 -1.58716,-2.78517 -0.0148,-2.151 -2.4e-4,-4.54543 -2.4e-4,-6.72 v -25.92 c 0,-1.56878 0.85376,-7.73065 -0.74025,-8.44074 -1.29916,-0.57874 -1.76952,0.72309 -1.81358,1.72223 -0.10697,2.42564 -0.006,4.92561 -0.006,7.35851 v 26.56 c 0,1.60562 0.90964,7.91855 -1.28,8.17086 -2.08395,0.24013 -1.28,-6.18793 -1.28,-7.53086 v -16 c 0,-2.29808 0.64983,-5.03111 -0.23753,-6.9926 -0.51395,-1.13606 -1.49176,-1.01489 -2.64247,-0.6874 0.67065,2.26891 0.32,4.82321 0.32,7.68 v 16 c 0,1.83109 0.073,3.96197 -0.006,5.75851 -0.0328,0.7437 -0.0796,1.61401 -0.99505,1.80099 -2.58756,0.52851 -1.55877,-6.60251 -1.55877,-8.1995 0,-7.70801 0.0893,-16.39107 -0.001,-24 -0.0146,-1.22916 -0.20698,-1.98567 -0.29013,-3.2 -0.11661,-1.70288 -0.0173,-4.4073 -0.0289,-6.08 -0.007,-0.99012 0.0434,-2.76671 -1.55852,-2.43951 -1.14956,0.2348 -0.9948,1.54124 -1.00099,2.43951 -0.0182,2.63535 -2.4e-4,5.35664 -2.4e-4,8 0,2.46842 0,5.60629 0,8 0,1.06678 0,1.77211 0,2.88 0,4.23086 0,9.1451 0,13.44 0,2.18539 0.26673,4.45062 0.26271,6.4 -0.002,0.79039 0.007,1.6916 -0.579,2.36666 -1.93114,2.22787 -2.242,-2.4177 -2.242,-3.64666 v -13.76 c 0,-1.09811 0.33988,-4.60278 -1.81976,-3.64074 -1.23016,0.548 -0.74024,3.19889 -0.74024,4.28074 v 12.8 c 0,1.35289 0.31775,4.38517 -1.28,4.38517 -2.33651,0 -1.28,-7.76649 -1.28,-9.50517 v -26.56 c 0,-2.07869 -0.22005,-3.21555 -0.30741,-5.12 -0.0598,-1.30291 0.14185,-3.10944 -1.57136,-2.75951 -1.04219,0.21287 -0.99533,1.61993 -1.00099,2.43951 -0.0145,2.1096 -0.17787,3.32255 0.0541,5.76 0.0908,0.95358 0.23727,1.5921 0.26099,2.56 0.054,2.2055 0.005,5.08606 0.005,7.36 v 15.36 c 0,2.61871 0.95168,7.49535 -0.19309,9.81827 -0.72275,1.46659 -2.24266,0.29474 -2.34815,-0.86444 -0.2916,-3.20433 0.69775,-6.39176 -0.20197,-9.25506 -0.27829,-0.88565 -1.48126,-1.90075 -2.36791,-0.78543 -1.15847,1.45724 -0.0497,7.13092 -0.0136,8.76666 0.0208,0.94215 0.0839,2.78517 -1.28791,2.78517 -0.94235,0 -1.39472,-0.61769 -1.54,-1.51134 -0.32978,-2.02844 -0.0474,-4.62941 -0.0474,-6.71383 0,-2.25512 0,-5.18191 0,-7.36 0,-1.06217 0,-1.75989 0,-2.88 0,-4.97982 0,-10.63715 0,-15.68 0,-2.55081 0.0467,-5.13211 -0.001,-7.67976 -0.0174,-0.92176 -0.0498,-2.14542 -1.27851,-2.14542 -1.65652,0 -1.27993,2.33724 -1.28,3.42518 v 11.2 21.76 c 0,1.6301 0.84423,6.30379 -0.51283,7.34963 -0.97507,0.75145 -1.74439,-0.14592 -2.04717,-0.94963 -0.25097,-0.66617 -0.42916,-1.18518 -1.28,-1.18518 -0.8669,0 -1.03281,0.52903 -1.28,1.18518 -0.26234,0.69635 -0.49959,1.18517 -1.2926,1.18517 -2.07479,0 -1.5874,-3.75445 -1.5874,-5.02517 0,-1.18844 0,-1.90815 0,-3.2 0,-8.62152 0,-17.58702 0,-26.24 0,-2.44457 0.0447,-4.91821 -10e-4,-7.35976 -0.0174,-0.92176 -0.0498,-2.14542 -1.27851,-2.14542 -1.90578,0 -1.28,3.49076 -1.28,4.70518 v 15.36 c 0,13.62234 0,27.348 0,40.95999 0,1.54569 0,2.39563 0,3.84 0,2.4054 -0.0512,5.24122 0.005,7.68 0.10122,4.42102 0.31532,7.93356 0.31532,12.48 0,1.71714 -0.78037,4.43299 0.51283,5.42963 1.12771,0.8691 1.94676,-0.37852 2.02841,-1.2758 0.15867,-1.74368 0.0188,-4.24633 0.0188,-6.07383 0,-8.86884 -0.2913,-17.70863 -0.31976,-26.56 -0.006,-1.80675 -1.06289,-9.74249 1.58716,-9.53382 2.24966,0.17715 1.2926,7.46941 1.2926,9.21382 v 24 c 0,1.86078 -0.0333,3.92044 10e-4,5.75976 0.0167,0.88131 -0.0576,1.68621 0.73876,2.04099 1.34753,0.60028 1.77319,-0.80634 1.81359,-1.72223 0.0803,-1.82136 0.006,-4.19943 0.006,-6.07852 v -25.6 c 0,-1.2427 -0.7882,-9.00414 1.78271,-7.34494 0.78325,0.5055 0.74833,1.46139 0.77235,2.22494 0.0549,1.74623 0.005,3.96387 0.005,5.76 v 25.6 c 0,2.53785 -0.0463,5.14993 0.001,7.67976 0.0185,0.97669 0.0868,2.14543 1.27852,2.14543 1.23907,0 1.26077,-1.20744 1.2785,-2.14543 0.0451,-2.3874 0.001,-4.95518 0.001,-7.35976 v -25.28 c 0,-1.71438 -0.91562,-7.52875 0.51284,-8.62962 2.44789,-1.88651 2.04717,3.82043 2.04717,4.78962 0,3.50422 0,7.41836 0,10.88 0,2.8079 -0.24935,4.80899 0.0543,8 0.15054,1.58185 0.2649,2.76112 0.26568,4.48 4.4e-4,0.97623 -0.2234,3.61462 1.55877,2.98815 1.6793,-0.59031 1.00123,-4.46332 1.00123,-5.86815 v -18.56 c 0,-1.32126 -0.66676,-7.12489 1.25605,-6.89085 1.46081,0.17779 1.2714,1.68212 1.29926,2.73085 0.0413,1.55549 0.005,3.52025 0.005,5.12 v 26.56 c 0,2.32418 -0.0421,4.72404 0.001,7.04 0.0163,0.8652 0.0468,2.35356 1.27851,2.3195 1.22619,-0.0339 1.26185,-1.43658 1.27852,-2.31974 0.0476,-2.52359 10e-4,-5.14655 10e-4,-7.67976 v -24.64 c 0,-2.00088 -0.936,-7.18049 0.32888,-8.76666 1.92971,-2.41985 2.23112,2.49899 2.23112,3.32666 0,4.79992 -3.1e-4,9.60012 0,14.4 8e-5,1.38815 0.46851,4.55402 2.04716,3.00543 1.17798,-1.15554 0.51284,-3.16765 0.51284,-4.60543 0,-4.20748 0,-8.57757 0,-12.8 0,-1.1214 -0.4528,-3.74517 1.28,-3.74517 2.15106,0 1.28,6.68846 1.28,8.22517 0,2.37577 0,5.01186 0,7.36 0,1.12012 0,1.81784 0,2.88 0,1.52331 -0.0175,3.54661 0.001,5.12 0.0194,1.62778 0.27813,2.37289 0.31408,3.84 0.0472,1.9267 0.005,4.41516 0.005,6.4 0,2.45159 -0.0166,4.90903 2.3e-4,7.36 0.006,0.82156 -0.12504,2.27712 1.001,2.41086 2.48975,0.29574 1.55877,-7.53175 1.55877,-9.13086 v -26.24 c 0,-1.43751 -0.77648,-7.94908 0.98864,-8.17085 1.19149,-0.14971 1.18733,1.05328 1.27851,2.0911 0.10684,1.21594 0.277,1.97118 0.29162,3.19975 0.0166,1.39711 -0.69803,5.49837 0.51406,6.38495 1.15989,0.84838 1.94614,-0.6592 2.02841,-1.58643 0.24086,-2.71454 -0.20996,-5.91275 0.0375,-8.63234 0.1068,-1.17366 1.62252,-2.33686 2.34815,-0.86445 1.10024,2.23256 0.19309,6.98842 0.19309,9.49827 v 23.68 c 0,2.47596 -0.0448,5.23356 0.001,7.67976 0.0181,0.95578 0.003,2.15927 1.29111,2.11974 1.30844,-0.0401 1.53727,-1.11888 1.58123,-2.12073 0.0767,-1.74843 0.006,-3.96117 0.006,-5.75877 -5.6e-4,-8.7312 -0.32,-17.47592 -0.32,-26.24 0,-1.6323 -0.86229,-9.09909 1.00123,-9.4795 2.06622,-0.42178 0.81514,1.42965 2.56099,1.87901 1.27059,0.32703 3.82739,-3.85605 4.39037,-0.39333 0.37102,2.28201 0.0474,6.14879 0.0474,8.63382 v 19.84 c 0,3.51948 -0.002,7.04071 0,10.56 4.3e-4,0.96412 -0.29448,3.2323 1.28,3.05086 2.27576,-0.26222 1.28,-7.72662 1.28,-9.45086 v -25.92 c 0,-1.5149 -0.86807,-7.81772 1.00123,-8.1995 1.66248,-0.33954 1.33304,1.87412 2.56,2.19901 1.71312,0.4536 1.68937,-3.46614 3.60591,-1.98913 1.36614,1.05283 0.51286,6.35243 0.51286,7.98962 0,1.86028 0,2.78583 0,4.48 0,2.80659 -0.0326,6.11288 10e-4,8.96 0.0194,1.62779 0.27814,2.37289 0.31408,3.84 0.0358,1.46118 0.005,3.29766 0.005,4.8 0,3.5195 -0.002,7.04069 0,10.56 4.3e-4,0.95765 -0.29129,3.23193 1.28,3.05086 1.21492,-0.13999 1.26082,-1.46978 1.27851,-2.41086 0.0479,-2.54785 0.001,-5.12902 0.001,-7.68 v -24.32 c 0,-3.08863 0.3465,-7.02517 -0.32,-9.27999 0.75511,-0.22071 1.82212,-0.72612 2.55111,0.19308 1.12717,1.4213 0.32889,5.70543 0.32889,7.48691 0,0.99608 -0.44209,3.49232 0.74025,3.94815 1.34271,0.51767 1.77182,-1.07007 1.81357,-2.02839 0.1128,-2.58885 -0.10191,-5.40722 0.0123,-7.99827 0.0463,-1.05033 1.10978,-2.80654 2.22494,-1.40815 1.30373,1.63484 0.32889,7.01153 0.32889,9.08666 v 24.64 c 0,2.50609 -0.10209,5.1947 0.006,7.67976 0.0424,0.97309 0.31812,2.22544 1.58123,2.05407 1.22719,-0.1665 1.27293,-1.41081 1.29111,-2.37407 0.0476,-2.52359 0.001,-5.14655 0.001,-7.67976 0,-2.8881 0.0327,-6.1065 -0.001,-8.96 -0.0172,-1.44487 -0.33129,-2.29459 -0.30149,-3.84 0.0481,-2.49318 0.30383,-4.18127 0.30272,-7.04 -7.3e-4,-1.87653 -0.29571,-3.18068 -0.31877,-5.12 -0.0264,-2.21623 -0.0416,-4.50894 2.5e-4,-6.71975 0.0172,-0.91004 -0.0152,-1.91245 0.99975,-2.11975 1.69392,-0.34598 1.70535,2.43992 1.73037,4.0395 0.0148,0.9468 -0.1209,1.62354 -0.0561,2.56 0.21797,3.14782 0.20446,7.30062 0.20446,10.56 0,1.06416 -0.52709,4.12634 0.74025,4.5721 2.08381,0.73294 1.81967,-2.44674 1.81975,-3.6121 3.1e-4,-4.79979 0,-9.60015 0,-14.4 0,-0.8529 0.3313,-5.70898 2.23111,-3.32666 1.26889,1.59116 0.32889,6.751 0.32889,8.76666 v 24.64 c 0,2.55223 -0.0173,5.13049 2.5e-4,7.68 0.006,0.82211 -0.11897,2.27784 1.00098,2.41086 1.68361,0.19999 1.55644,-1.918 1.55877,-3.05086 0.002,-1.0164 0,-1.64605 0,-2.56 0,-1.21792 0,-2.87756 0,-4.16 v -25.28 c 0,-1.71441 -0.91563,-7.52874 0.51285,-8.62962 2.59695,-2.00139 2.04715,5.04392 2.04715,6.06962 v 19.52 c 0,1.35537 -0.67942,6.41585 1.87408,5.5037 1.04049,-0.37167 0.98761,-1.41321 1.00443,-2.30394 0.031,-1.64219 0.001,-3.46016 0.001,-5.11976 v -15.68 c 0,-3.02914 0.26554,-5.54044 -0.32,-7.99999 2.88986,-0.82298 2.56,4.11908 2.56,7.03999 0,1.37897 0,2.19877 0,3.52 0,4.2489 -0.15715,9.45298 0.0123,13.76 0.12164,3.09082 0.30766,5.42439 0.30766,8.64 0,2.6645 -0.005,5.33624 0,8 0.002,0.79325 -0.19082,2.32461 0.74025,2.6521 1.45262,0.51093 1.76975,-1.01456 1.81357,-2.01333 0.077,-1.75443 0.006,-3.95667 0.006,-5.75877 v -26.56 c 0,-1.65853 -0.94291,-9.50517 1.28,-9.50517 2.12701,0 1.28,6.05836 1.28,7.58517 v 24.96 c 0,1.40336 -0.81711,9.58334 1.55876,8.74815 1.09247,-0.38403 0.99454,-1.73204 1.00098,-2.66815 0.0183,-2.66349 2.6e-4,-5.3357 2.6e-4,-8 v -24 c 0,-3.17014 0.78828,-7.83568 -0.10172,-10.83259 -0.24957,-0.84041 -1.22424,-1.21059 -1.94692,-0.67727 -0.91177,0.67286 -2.73652,3.83842 -3.0526,0.3074 -0.15554,-1.76952 -0.0159,-4.22468 -0.0159,-6.07753 v -13.12 -17.92 c 0,-1.28417 0.68652,-5.34518 -1.28,-5.34518 -2.03163,0 -1.25323,4.38088 -1.28469,5.66518 -0.0293,1.19674 -0.24656,1.9178 -0.30272,3.2 -0.12654,2.88991 0.29483,4.48559 0.30715,7.04 0.0289,5.99388 2.6e-4,12.22441 2.6e-4,18.24 0,1.7274 1.00859,9.82517 -1.2926,9.82517 -1.84317,0 -1.58676,-2.01589 -1.5874,-3.42517 -8.4e-4,-1.8457 0,-2.79081 0,-4.48 0,-1.05533 0.44132,-3.43438 -0.74026,-3.96074 -1.5589,-0.69444 -1.79871,1.00657 -1.81826,2.04098 -0.0402,2.12621 0.16121,6.31943 -0.0203,8.31359 -0.15262,1.67715 -2.12241,2.48729 -2.49383,0.3074 -0.36649,-2.15096 -0.0474,-6.81457 -0.0474,-9.26123 v -23.68 c 0,-2.55081 0.0467,-5.13211 -0.001,-7.67976 -0.0174,-0.92175 -0.0499,-2.14542 -1.27851,-2.14542 -2.22719,0 -1.28,7.87171 -1.28,9.50518 v 26.56 c 0,1.86439 0.0334,3.91562 -0.001,5.75975 -0.0176,0.92983 -0.009,2.14542 -1.27851,2.14542 -1.66348,0 -1.27993,-2.20058 -1.28,-3.42517 -3e-4,-4.47944 2.9e-4,-8.96056 0,-13.44 -10e-5,-1.37081 0.22918,-3.71386 -0.82026,-4.46963 -0.87135,-0.62751 -1.70486,-0.17542 -1.95803,0.67704 -0.285,0.9597 -0.10171,2.44736 -0.10171,3.47259 0,2.71053 0.25556,3.96059 0.31531,6.4 0.0559,2.28346 0.006,5.32476 0.005,7.68 -5.3e-4,1.1652 -0.78842,5.0248 -2.55112,2.72394 -1.29154,-1.68586 -0.32888,-7.02814 -0.32888,-9.12394 0,-8.35705 0,-15.64636 0,-24 0,-2.66428 0.0181,-5.33652 -2.6e-4,-8 -0.007,-0.97323 0.0779,-2.46518 -1.27974,-2.46518 -2.22717,0 -1.28,7.87171 -1.28,9.50518 v 26.56 c 0,2.26046 0.0138,3.40516 -2.6e-4,5.44 -0.008,1.10621 0.0709,2.35432 -1.00097,2.6395 -2.02575,0.53896 -1.55877,-5.44433 -1.55877,-6.7995 v -18.88 c 0,-1.308 0.69048,-5.61396 -1.00123,-5.95951 -2.42954,-0.49625 -1.55877,5.53002 -1.55877,6.91951 v 19.84 c 0,1.09601 0.12164,2.50906 -0.0474,3.50123 -0.13617,0.79924 -0.97697,1.7566 -1.99974,0.9684 -1.59379,-1.22827 -0.51285,-6.52135 -0.51285,-8.62963 0,-8.52566 0,-17.0769 0,-25.6 0,-2.433 -0.2551,-4.45358 -0.31532,-6.72 -0.0339,-1.27446 -0.093,-3.05985 -1.56345,-2.75951 -1.25768,0.25688 -0.99895,1.64875 -1.00123,2.75951 -0.005,2.31456 0,5.25132 0,7.36 0,3.46943 -0.14569,6.9452 0.0126,10.56 0.0601,1.37234 0.2903,2.18398 0.30618,3.52 0.0412,3.46063 0.001,7.37653 0.001,10.88 0,1.90689 0.01,3.88334 -2.6e-4,5.76 -0.005,0.94396 0.13016,2.28835 -0.77826,2.86494 -1.004,0.63725 -1.89109,-0.26866 -2.05408,-1.27111 -0.35619,-2.19082 -0.0474,-4.8017 -0.0474,-7.03383 0,-8.41835 0,-17.28158 0,-25.6 0,-1.92422 0.26953,-4.2011 -0.0474,-6.06124 -0.14871,-0.87283 -0.81152,-1.52753 -1.77234,-1.0995 -1.55807,0.69408 -0.74025,6.2067 -0.74025,7.80074 v 24.32 c 0,1.71738 0.9316,8.87601 -1.28,9.13086 -1.84524,0.21263 -1.28,-3.2456 -1.28,-4.33086 v -15.04 -54.4 -12.8 c 0,-1.15635 -0.52434,-3.7174 0.74025,-4.28074 1.87406,-0.83485 1.47191,2.05158 2.82098,2.21161 1.41881,0.16831 2.3622,-3.68782 3.78988,-1.89754 1.31814,1.65294 0.64607,5.73306 0.64889,7.48667 0.007,4.37455 0.17398,10.13245 -0.0126,14.4 -0.036,0.82367 -0.20168,1.38696 -0.22444,2.24 -0.0267,1.00086 0.18659,1.69409 0.22444,2.56 0.0531,1.21536 0.0126,2.87935 0.0126,4.16 0,3.41051 -0.007,6.83045 0,10.24 0.002,0.92654 -0.19348,2.90067 1.28,2.73087 1.21492,-0.14 1.26082,-1.4698 1.27851,-2.41087 0.0499,-2.65395 0.001,-5.34278 0.001,-8 v -24.64 c 0,-2.13176 -0.13807,-4.2597 -0.13727,-6.08 3.5e-4,-0.80376 -0.13853,-1.93588 0.46592,-2.68667 1.40756,-1.74835 2.21041,0.6978 2.22986,1.72692 0.0476,2.5196 -0.0448,5.46988 0.003,7.99951 0.0177,0.93378 0.17656,2.51377 1.55729,2.0284 1.95099,-0.68583 1.00043,-7.31602 1.00123,-9.06816 4.5e-4,-0.99168 -0.30793,-3.1518 1.28,-2.92494 2.25125,0.32163 1.28,6.66225 1.28,8.36494 0,6.43777 0,13.10544 0,19.52 0,2.36561 0,4.08915 0,6.72 0,2.47423 -0.34377,5.58788 0.0474,7.99383 0.15254,0.93822 0.77771,1.75213 1.82668,1.39433 1.92883,-0.65792 1.00592,-6.74872 1.00592,-8.42816 0,-4.32389 0.0495,-9.1699 -0.001,-13.44 -0.032,-2.68636 -0.38799,-4.34255 -0.31409,-7.36 0.0468,-1.91052 0.31532,-3.49292 0.31532,-5.44 0,-3.18515 -0.10957,-4.84383 -0.2595,-7.67851 -0.048,-0.90683 0.16561,-1.82667 1.22418,-1.82667 2.14866,0 1.59532,3.17807 1.59532,4.70518 0,4.36945 0,8.75185 0,13.12 0,1.04288 -0.52788,3.77925 0.74025,4.26816 2.19701,0.84702 1.81975,-3.17337 1.81975,-4.26816 0,-5.10126 -0.0349,-10.2651 2.5e-4,-15.36 0.009,-1.32778 1.08787,-3.47997 2.23086,-2.04667 1.32728,1.6644 0.32889,6.4792 0.32889,8.76667 v 24.96 c 0,2.49395 -0.045,5.20976 0.001,7.68 0.0166,0.8835 -0.0111,2.35654 1.27852,2.35654 1.18789,0 1.26185,-1.47122 1.27851,-2.35654 0.0479,-2.54784 10e-4,-5.12902 10e-4,-7.68 0,-3.60709 0,-7.63676 0,-11.2 0,-0.92043 0,-1.65993 0,-2.56 0,-0.7192 0,-1.2016 0,-1.92 0,-3.23399 0,-6.74375 0,-10.24 0,-1.97921 -0.0785,-4.4792 0.006,-6.39851 0.0376,-0.85183 0.13277,-1.82667 1.27383,-1.82667 1.14101,0 1.23627,0.97483 1.27382,1.82667 0.0724,1.64134 0.006,3.74778 0.006,5.43851 0,2.73713 0,4.25512 0,6.72 0,3.54956 -0.0835,7.92134 0.005,11.52 0.0357,1.45759 0.27522,2.18749 0.31063,3.52 0.0212,0.79751 -0.22197,2.29538 0.74494,2.66816 2.60184,1.00309 1.82557,-5.8695 1.81949,-7.14816 -0.005,-1.09081 -0.13701,-1.86137 -0.13701,-2.88 0,-1.08427 0.15398,-2.02724 0.13281,-3.2 -0.0761,-4.21177 -0.31554,-8.17338 -0.31554,-12.8 0,-1.6701 -0.11686,-2.66339 0.0188,-4.15382 0.11014,-1.21035 1.28245,-2.1122 2.34815,-1.27705 1.54273,1.209 0.51309,6.64397 0.51309,8.63087 v 25.28 c 0,2.55223 -0.0173,5.13049 2.5e-4,7.68 0.006,0.82123 -0.13182,2.27631 1.00098,2.41087 2.45722,0.29188 1.55877,-6.36122 1.55877,-7.85087 v -26.88 c 0,-2.45183 -0.0449,-4.9084 0.001,-7.35975 0.0144,-0.76407 -0.0127,-1.9789 0.99975,-2.06543 2.45111,-0.2095 1.55877,7.15477 1.55877,8.78518 v 24.96 c 0,1.49123 -0.82524,7.51659 1.00591,7.87951 2.40659,0.47698 1.89555,-3.36212 1.86963,-4.67951 -0.0149,-0.75851 -0.0992,-1.43033 -0.0884,-2.24 0.011,-0.82281 0.0996,-1.34591 0.0869,-2.24 -0.0189,-1.33395 -0.27332,-2.04767 -0.3094,-3.52 -0.0336,-1.37161 -0.005,-2.19706 -0.005,-3.52 0,-5.18222 0,-11.07201 0,-16.32 0,-2.43252 -0.10077,-4.93338 0.006,-7.35851 0.0467,-1.05916 0.53164,-2.2933 1.81357,-1.72223 0.78527,0.34983 0.7251,1.31799 0.73877,2.04099 0.0406,2.14931 0.001,4.54646 0.001,6.71975 0,2.78614 0,5.88693 0,8.64 0,1.21713 0,1.99164 0,3.2 0,4.57502 0.12763,9.97442 0.3074,14.08 0.0845,1.92978 -0.0246,5.31223 0.0141,7.35976 0.0162,0.85759 0.0485,2.23284 1.27852,2.09111 2.18964,-0.25231 1.28,-6.56525 1.28,-8.17087 v -26.56 c 0,-2.44082 -0.0441,-4.94799 0.001,-7.35975 0.015,-0.79506 0.0862,-1.97791 0.98715,-2.09112 1.01263,-0.12723 1.16263,0.80224 1.29951,1.77236 0.29361,2.08118 0.27186,3.10015 0.27186,5.43851 v 25.28 c 0,1.5024 -0.84268,8.91185 1.00123,9.13087 2.49974,0.29693 1.55876,-7.24161 1.55876,-8.81087 v -25.6 c 0,-1.43566 -0.48351,-8.86121 2.05975,-7.02963 1.01442,0.73055 0.8068,2.16709 0.81902,3.18963 0.0177,1.47844 0.001,3.27176 0.001,4.8 0,4.64537 0,9.45132 0,14.08 0,1.81093 -0.21031,4.18431 -0.17433,5.76 0.0459,2.01259 0.17433,3.89363 0.17433,6.08 0,2.95037 -0.17056,5.5716 -0.0867,8.31852 0.0274,0.89563 0.29228,1.82667 1.36642,1.82667 2.17469,0 1.28025,-6.66178 1.28025,-8.22519 v -26.56 c 0,-2.38975 -0.0433,-4.99284 0.001,-7.35975 0.0145,-0.76808 -0.0615,-1.95825 0.99975,-2.05407 2.46056,-0.22217 1.55876,5.3625 1.55876,6.85382 v 19.2 c 0,1.42717 -0.41042,5.39603 1.00124,5.79506 2.2683,0.64117 1.55876,-4.2601 1.55876,-5.47506 v -19.84 c 0,-1.08789 -0.64613,-7.71784 1.81975,-6.32395 1.6085,0.90924 0.74025,6.57747 0.74025,8.24395 v 25.92 c 0,2.53841 -0.0463,5.1492 0.001,7.67976 0.017,0.89847 0.21094,2.21413 1.27851,2.09111 1.06065,-0.12222 1.22834,-1.04726 1.27383,-2.09111 0.12059,-2.7677 0.006,-5.55017 0.006,-8.31976 -2.5e-4,-3.96577 -0.2383,-8.5821 0.0286,-12.48 0.091,-1.32857 0.28439,-2.12662 0.29111,-3.52 0.0132,-2.74225 2.5e-4,-5.64789 2.5e-4,-8.32 0,-2.02969 -0.95668,-7.47461 0.32889,-9.08667 1.93236,-2.42313 2.23111,2.48566 2.23111,3.32667 v 14.4 c 0,0.98527 -0.35625,5.18541 1.81975,3.82494 1.33039,-0.83178 0.74025,-4.06588 0.74025,-5.42494 v -10.88 c 0,-1.36656 -0.37707,-3.49807 0.19309,-4.72518 0.39611,-0.85254 1.36641,-0.8733 2.04691,-1.03482 0.67856,2.29558 0.32,6.45301 0.32,9.6 v 24.64 c 0,2.57824 -0.0467,5.45275 0.001,7.99976 0.0186,0.98349 0.021,2.14543 1.27851,2.14543 1.25747,0 1.25993,-1.16196 1.27852,-2.14543 0.0424,-2.24374 0.001,-4.76898 0.001,-7.03976 v -26.56 c 0,-1.52904 -0.87183,-7.91751 1.00123,-8.36247 1.56772,-0.37243 1.55208,1.66587 1.55852,2.60247 0.012,1.74012 -0.57734,7.50236 0.32914,8.85827 0.64844,0.96995 2.11602,0.85666 2.4494,-0.26567 0.79738,-2.68441 -0.13723,-6.71422 0.12048,-9.54642 0.1068,-1.17366 1.6225,-2.33687 2.34815,-0.86445 1.10025,2.23254 0.19308,6.98844 0.19308,9.49827 v 24 c 0,2.47576 -0.0447,5.23382 0.001,7.67976 0.0186,0.98349 0.021,2.14543 1.27851,2.14543 1.36795,0 1.27219,-1.36772 1.27975,-2.46519 0.0232,-3.36631 2.5e-4,-6.86176 2.5e-4,-10.24 v -22.72 c 0,-1.88026 -0.86449,-6.6302 0.32889,-8.12667 0.44738,-0.561 1.24303,-0.5381 1.71975,-0.18296 1.00386,0.74788 0.34963,2.02618 1.79136,2.02618 0.85653,0 0.99442,-0.68564 1.33432,-1.35532 0.31133,-0.61336 0.69082,-1.04691 1.50445,-0.88074 1.62836,0.33257 1.00071,3.01559 1.00123,4.35951 5.9e-4,1.49568 0.26272,2.83842 0.26272,4.16 0,0.78242 -0.18076,1.46055 -0.23408,2.24 -0.13358,1.95232 0.0927,4.11209 0.0998,6.08 0.0116,3.22257 -0.11379,5.94294 -0.12814,8.96 -0.0716,15.06473 -2.6e-4,30.3547 -2.6e-4,45.44 v 15.04 c 0,1.17526 0.52682,4.15297 -1.00123,4.5595 -2.22845,0.59288 -1.55877,-6.01716 -1.55877,-7.4395 v -24.96 c 0,-1.5914 0.89276,-8.86518 -1.28,-8.86518 -2.218,0 -1.28,7.57887 -1.28,9.18518 0,8.21064 0.003,16.43025 0,24.64 -6.6e-4,1.72595 -0.18242,2.57955 -0.29136,4.16 -0.0671,0.97365 0.2784,2.8333 -1.02963,3.12394 -2.24,0.49775 -1.23901,-6.25939 -1.23901,-7.60394 v -26.56 c 0,-2.44457 0.0447,-4.9182 -10e-4,-7.35976 -0.0174,-0.92175 -0.0498,-2.14542 -1.27852,-2.14542 -1.21742,0 -1.26111,1.22446 -1.27851,2.14542 -0.0482,2.55043 -0.001,5.12688 -0.001,7.67976 0,5.9101 0.0281,12.03121 -2.5e-4,17.92 -0.0119,2.46283 -0.31975,4.28762 -0.31975,7.04 0,1.83271 0.80065,7.50735 -0.51285,8.71629 -2.21027,2.03431 -2.04715,-4.02551 -2.04715,-5.19629 0,-2.17552 0,-3.4749 0,-5.44 0,-4.50025 0,-9.21749 0,-13.76 0,-1.77856 0.24713,-4.01264 -0.0474,-5.74124 -0.11967,-0.70235 -0.45851,-1.20395 -1.2326,-1.20395 -0.77414,0 -1.11293,0.50159 -1.23259,1.20395 -0.31049,1.82227 -0.0474,4.18575 -0.0474,6.06124 0,2.74841 0,4.53921 0,7.04 0,3.46355 0,7.37435 0,10.88 0,1.57624 0.67024,5.52664 -0.74025,6.32394 -1.34658,0.7612 -1.77398,-0.93541 -1.81357,-1.84419 -0.10729,-2.46245 -0.006,-5.48041 -0.006,-7.99975 v -23.36 c 0,-3.37216 0.59317,-7.79077 -0.32,-10.88 -3.39945,0.93064 -2.24,5.60494 -2.24,8.64 v 25.92 c 0,2.08127 0.004,4.33929 0,6.4 -0.002,1.11416 0.23163,2.55344 -1.00591,3.17234 -2.12399,1.06224 -1.87623,-3.1139 -1.87409,-4.45234 0.003,-2.03221 -0.12755,-4.77613 0.0543,-6.72 0.18893,-2.01918 0.26568,-3.62123 0.26568,-5.76 0,-1.4679 0.60836,-4.58414 -1.29259,-4.73383 -1.8884,-0.1487 -1.58731,2.05564 -1.58741,3.45383 -1.3e-4,2.11629 0,3.04316 0,5.12 0,3.61792 0.002,6.49889 0,9.92 -5.2e-4,1.16241 -0.31845,4.3865 -2.04714,2.92271 -1.5878,-1.34449 -0.51286,-6.56623 -0.51286,-8.68271 v -25.28 c 0,-2.4738 0.0446,-5.24388 -0.001,-7.67976 -0.0193,-1.01892 -0.15404,-2.40637 -1.55728,-2.11975 -1.12333,0.22944 -0.99493,1.56034 -1.00098,2.43951 -0.0183,2.65443 -2.6e-4,5.34241 -2.6e-4,8 v 24 c 0,2.27866 0.95036,7.27078 -0.32888,9.17803 -1.0476,1.56188 -2.17322,-0.007 -2.22494,-1.17952 -0.11707,-2.65466 0.79388,-7.27726 -0.19926,-9.55111 -0.34494,-0.78976 -1.42793,-1.25715 -2.1726,-0.67703 -1.19789,0.93318 -0.48254,7.82819 -0.5158,9.58963 -0.0188,0.99427 -0.0616,2.35654 -1.27852,2.35654 -2.2007,0 -1.28,-7.93851 -1.28,-9.71654 0,-3.23631 0,-7.01273 0,-10.24 0,-1.32513 0,-2.15393 0,-3.52 0,-4.10707 0,-8.39265 0,-12.48 0,-2.1541 0.30893,-4.92987 -0.0474,-7.02124 -0.13293,-0.78018 -0.61586,-1.36118 -1.51136,-1.17827 -1.39524,0.28498 -0.99928,1.81019 -1.00124,2.75951 -0.004,1.76778 0,3.65353 0,5.76 0,8.87336 0,16.70339 0,25.6 0,2.55098 0.0464,5.13217 -0.001,7.68 -0.0167,0.88551 -0.092,2.35644 -1.27852,2.35654 -1.44591,1.1e-4 -0.98203,-1.97201 -2.28123,-2.23604 -1.17119,-0.23802 -1.39566,0.73172 -1.91728,1.43801 -0.49141,0.66539 -1.25494,1.19024 -2.00863,0.48223 -1.43749,-1.35307 -0.18997,-4.97374 -0.18997,-6.84074 v -22.72 c 0,-3.60623 0.0427,-7.6379 -0.001,-11.2 -0.0106,-0.86326 0.0553,-1.72709 -0.42048,-2.45827 -0.32016,-0.49199 -0.84057,-0.74636 -1.4568,-0.62124 -1.441,0.29257 -1.00148,2.64289 -1.00148,3.71951 0,3.39334 -0.25879,10.11482 0.1358,13.12 0.4907,3.73721 0.11261,8.5927 0.01,12.8 -0.0779,3.19156 0.21066,6.76208 0.1731,9.92 -0.0128,1.07632 -0.16306,1.81473 -0.26445,2.88 -0.25957,2.72743 -0.0543,5.80109 -0.0543,8.63999 0,1.16534 0,1.9177 0,3.2 0,2.18934 0,4.29969 0,6.4 0,4.28713 0,7.91981 0,12.16 0,3.70652 0,7.26601 0,11.2 0,0.97123 -0.01,1.63208 0.001,2.56 0.008,0.69414 -0.26872,4.56062 1.59877,4.29383 2.19337,-0.31334 1.28,-6.78156 1.28,-8.45383 0,-1.20637 0.0237,-2.66503 -0.005,-3.84 -0.0211,-0.8745 -0.19096,-1.62634 -0.16965,-2.56 0.0213,-0.9308 0.17193,-1.58299 0.17187,-2.56 -3.1e-4,-5.26264 -0.31753,-11.28825 -0.31753,-16.64 0,-1.93277 -0.94106,-9.82517 1.28,-9.82517 1.20044,0 1.25755,1.03668 1.27851,2.14542 0.0506,2.67841 10e-4,4.46468 10e-4,7.35975 0,2.82975 0,6.22241 0,8.96 0,1.08104 -0.007,1.7712 9.9e-4,2.88 0.009,1.33021 0.0547,2.28065 0.13852,3.52 0.21572,3.18949 0.097,5.10155 0.1758,8.32 0.0452,1.845 -0.0295,3.87112 0.006,5.75976 0.0166,0.87627 -0.0642,1.6833 0.73877,2.04099 1.17664,0.52416 1.72377,-0.5584 1.80098,-1.40692 0.16646,-1.82933 0.0188,-4.47541 0.0188,-6.39383 v -25.92 c 0,-1.0816 -0.60273,-9.07179 2.04715,-7.02962 1.39666,1.07635 0.51285,6.62891 0.51285,8.30962 v 25.28 c 0,2.55223 -0.0173,5.13049 2.6e-4,7.68 0.006,0.82123 -0.13182,2.27631 1.00098,2.41086 2.5107,0.29823 1.55876,-7.53502 1.55876,-9.13086 v -26.56 c 0,-1.52451 -0.90464,-8.22517 1.28,-8.22517 2.10899,0 1.28,5.81114 1.28,7.26517 v 17.92 c 0,1.81404 -0.84209,5.02542 0.51286,6.06963 0.62763,0.48369 1.68318,0.20602 1.94543,-0.67703 0.47074,-1.58517 0.10171,-3.74668 0.10171,-5.3926 v -20.16 c 0,-1.09775 -0.11349,-2.47053 0.11012,-3.51382 0.20276,-0.9459 1.14805,-2.29948 2.12123,-1.0916 1.11524,1.38419 0.6993,6.06056 0.61877,7.48542 -0.0511,0.90426 -0.27387,1.5738 -0.2232,2.56 0.0702,1.36544 0.27678,2.38103 0.24863,3.84 -0.0632,3.27699 -0.46076,6.31591 -0.30295,9.92 0.053,1.21084 0.29803,2.04851 0.29803,3.2 0,1.00127 -0.20172,1.58795 -0.22766,2.56 -0.0287,1.07581 0.23147,2.41945 0.23678,3.52 0.0121,2.51691 -0.0172,5.43733 5.1e-4,8 0.006,0.80803 -0.12762,2.28872 1.00098,2.38519 1.25021,0.10686 1.51125,-1.12437 1.55259,-2.06642 0.10418,-2.37409 0.006,-4.9626 0.006,-7.35877 v -26.24 c 0,-1.51484 -0.86755,-7.81779 1.00124,-8.1995 2.23091,-0.45567 1.55876,3.74741 1.55876,4.9995 0,4.37321 -2.9e-4,8.74685 0,13.12 1e-4,1.33336 -0.45074,3.10293 1.00124,3.39952 1.71001,0.34927 1.55867,-2.00725 1.55876,-3.39952 3.2e-4,-4.79979 0,-9.60015 0,-14.4 0,-0.96756 -0.11689,-5.17738 2.04715,-3.50962 0.697,0.53714 0.51125,1.77572 0.51285,2.54962 0.004,2.12384 0,4.2737 0,6.4 0,1.90852 0,4.22306 0,6.08 0,1.26051 0,2.14633 0,3.52 0,1.37446 0,2.19901 0,3.52 0,3.66407 0,7.81063 0,11.52 0,2.38098 -0.016,5.00491 2.6e-4,7.36 0.008,1.10026 0.0474,2.90274 1.58715,2.69383 1.28412,-0.17422 1.27246,-1.38621 1.29111,-2.37407 0.0425,-2.25108 0.001,-4.76348 0.001,-7.03976 v -25.92 c 0,-1.50472 -0.79222,-7.8187 0.73555,-8.42814 1.30443,-0.52035 1.48287,0.96568 1.50297,2.02839 0.0389,2.05599 -0.70963,7.63218 0.33037,9.17778 0.80813,1.201 2.28479,0.48237 2.50371,-0.8642 0.44412,-2.73162 -0.18605,-6.17572 0.0662,-8.94765 0.1068,-1.17367 1.6225,-2.33685 2.34815,-0.86445 1.10025,2.23253 0.19308,6.98844 0.19308,9.49827 v 23.68 c 0,2.64396 -0.0483,5.36402 10e-4,7.99976 0.0162,0.85759 0.0485,2.23284 1.27851,2.0911 2.25774,-0.26015 1.28,-7.7304 1.28,-9.45086 v -26.24 c 0,-1.6102 -0.78488,-7.8347 1.00123,-8.1995 1.88913,-0.38583 0.97,1.778 2.56,2.19901 0.98676,0.26128 1.25467,-0.61188 1.61309,-1.31827 0.40629,-0.80074 1.40506,-1.38331 2.3126,-0.67209 1.34617,1.05494 0.51308,6.05945 0.51308,7.67085 v 22.72 c 0,3.41284 -0.002,6.82733 0,10.24 4.1e-4,0.91075 -0.25507,2.91781 1.00123,3.02519 1.62901,0.13924 1.55104,-1.61952 1.55852,-2.70519 0.0232,-3.36774 2.5e-4,-6.86068 2.5e-4,-10.24 v -23.04 c 0,-1.74196 -0.89957,-6.58111 0.51286,-7.66962 1.92589,-1.48422 2.01173,2.41125 3.60591,1.98913 1.28815,-0.34109 0.96141,-2.5255 2.56,-2.19901 1.90926,0.38994 1.00123,6.61575 1.00123,8.1995 v 26.24 c 0,2.49949 -0.20115,5.19984 0.0188,7.67852 0.0714,0.80486 0.33065,1.71803 1.26123,1.71803 0.93061,0 1.18983,-0.91317 1.26123,-1.71803 0.21993,-2.47868 0.0188,-5.17903 0.0188,-7.67852 v -26.56 c 0,-1.99687 0.21098,-3.33483 0.28,-5.12 0.0322,-0.83208 -0.3933,-2.92319 1.31555,-2.73085 1.45801,0.16409 1.28221,1.96037 1.28445,3.05085 0.004,2.13231 -0.0384,4.61168 0.001,6.71976 0.0166,0.87627 -0.0642,1.68329 0.73877,2.04099 1.17662,0.52415 1.72377,-0.55839 1.80097,-1.40692 0.22498,-2.47246 -0.35492,-6.78358 0.0662,-9.25506 0.27746,-1.62847 2.21662,-1.45892 2.46519,0 0.42801,2.51202 0.0474,7.13711 0.0474,9.90123 v 23.04 c 0,2.37327 -0.0428,5.01491 10e-4,7.35976 0.0186,0.98349 0.021,2.14543 1.27851,2.14543 1.25748,0 1.25993,-1.16194 1.27852,-2.14543 0.0443,-2.34485 10e-4,-4.98649 10e-4,-7.35976 0,-6.01581 0,-12.24582 0,-18.24 0,-2.36559 0,-4.08916 0,-6.72 0,-1.86846 -0.73263,-7.43552 0.32889,-8.76666 1.10953,-1.39132 2.17352,0.24192 2.22494,1.40815 0.22856,5.18287 0.006,10.48474 0.006,15.67851 0,1.28309 -0.13158,4.68923 1.55877,4.23952 1.66428,-0.4428 1.00123,-3.48344 1.00123,-4.87952 0,-4.20531 0.32,-7.51222 0.32,-11.84 0,-1.18648 -0.42711,-5.18175 1.25137,-4.97085 1.91375,0.24044 0.98863,6.4862 0.98863,8.17085 v 26.24 c -9.1e-4,2.37704 -0.20004,5.14178 0.19037,7.35976 0.13752,0.78127 0.31788,2.05294 1.40963,1.89703 1.1453,-0.16354 1.23696,-1.36755 1.27382,-2.21679 0.0762,-1.75415 0.006,-3.95802 0.006,-5.76 0,-4.8377 0,-10.26259 0,-15.04 0,-1.09566 0,-1.81366 0,-2.88 0,-1.0888 0,-1.8748 0,-2.88 0,-1.55589 0,-3.51996 0,-5.12 0,-2.4321 -0.0165,-4.93519 2.6e-4,-7.36 0.007,-0.99042 -0.12304,-2.46517 1.27974,-2.46517 2.13434,0 1.28,5.50299 1.28,6.94517 v 19.2 c 0,1.53031 -0.69949,4.97213 1.00123,5.31951 2.396,0.48939 1.55877,-5.24646 1.55877,-6.59951 v -19.84 c 0,-1.19492 -0.22931,-2.9979 0.10172,-4.11259 0.24153,-0.81331 1.10738,-1.32288 1.94543,-0.67703 1.31035,1.00984 0.51285,6.57242 0.51285,8.30962 v 25.6 c 0,2.31005 -0.0155,4.75204 2.6e-4,7.04 0.006,0.89008 -0.0112,2.67519 1.27974,2.6395 1.07075,-0.0296 1.23391,-1.09087 1.27383,-2.00073 0.1118,-2.54787 0.006,-5.12793 0.006,-7.67877 v -25.6 c 0,-1.73721 -0.79752,-7.29976 0.51285,-8.30962 0.96321,-0.74231 1.84161,0.0402 1.99975,0.96839 0.29453,1.7286 0.0474,3.96268 0.0474,5.74123 v 25.28 c 0,2.13308 -0.19175,4.6433 0.0928,6.72 0.11543,0.84231 0.32961,2.352 1.50715,2.31951 1.26631,-0.0349 1.26164,-1.42556 1.27852,-2.31975 0.0501,-2.6569 0.001,-5.63245 0.001,-8.31976 v -27.52 c 0,-2.06685 0.0371,-4.35681 -0.001,-6.39975 -0.036,-1.90545 -0.41584,-1.8683 -2.23852,-2.24024 -0.31162,1.01016 -1.29658,4.03175 -2.8711,2.04691 -0.99181,-1.25024 -0.0773,-3.01233 -0.0215,-4.28691 0.0532,-1.21535 0.0126,-2.87937 0.0126,-4.16 v -25.6 c 0,-2.36464 0.095,-5.38754 -0.006,-7.67851 -0.0429,-0.97086 -0.42568,-2.37374 -1.81357,-1.54939 -1.81432,1.07764 -0.74026,8.41647 -0.74026,10.5079 v 24.64 c 0,1.96443 0.70155,6.43456 -0.64888,8.12666 -0.94825,1.18817 -2.11694,-0.0444 -2.21235,-1.09283 -0.2641,-2.90248 0.41561,-6.42741 -0.0662,-9.25506 -0.15814,-0.92817 -1.03654,-1.7107 -1.99975,-0.9684 -1.38584,1.06802 -0.50025,7.40516 -0.5131,9.26963 -0.007,1.06149 -0.13109,2.73105 -1.55852,2.4395 -1.02308,-0.20897 -0.98173,-1.16706 -0.99974,-2.11975 -0.0348,-1.8393 -10e-4,-3.89897 -10e-4,-5.75975 0,-6.83034 0,-13.73426 0,-20.48 0,-1.7918 -0.0801,-3.60711 0.0911,-5.12 0.25619,-2.26376 -0.22946,-4.2795 -0.0625,-6.72 0.0826,-1.20729 0.79486,-3.61847 -1.29604,-3.45383 -2.23332,0.17586 -1.2926,5.70432 -1.2926,7.61383 0,2.04351 0,4.33416 0,6.72 0,1.46055 0,2.2199 0,3.84 0,2.26701 0,3.40203 0,5.44 0,3.46164 0,7.37578 0,10.88 0,2.19584 0.627,6.87422 -0.19308,8.53827 -0.91824,1.86323 -2.31094,-0.0503 -2.36074,-1.17976 -0.19831,-4.49707 0.0163,-11.67068 -0.006,-16.31851 -0.005,-0.99868 0.10453,-1.96994 -0.42147,-2.77827 -0.40136,-0.61681 -1.21736,-0.98166 -1.94419,-0.41136 -1.52454,1.19623 -0.23795,4.68654 -0.21137,6.06963 0.0193,1.00408 -0.19426,1.60483 -0.21975,2.56 -0.0262,0.98232 0.20141,1.60611 0.21975,2.56 0.0313,1.62903 -0.3026,3.28746 -0.30272,5.12 -7e-5,1.23828 0.6303,5.58392 -1.55877,5.1368 -1.73576,-0.35456 -1.0882,-5.89211 -0.94691,-7.3768 0.0908,-0.95361 0.23729,-1.59207 0.261,-2.56 0.0563,-2.29838 0.005,-5.30973 0.005,-7.68 v -16.64 c 0,-1.64575 0.91916,-9.50518 -1.28,-9.50518 -1.46443,0 -1.45134,1.81528 -1.54568,2.78518 -0.20227,2.0795 -0.0543,4.88379 -0.0543,7.04 v 25.28 c 0,1.89318 0.80735,7.1975 -0.51285,8.44074 -0.68101,0.64132 -1.5333,0.24115 -1.85406,-0.4884 -0.62531,-1.42222 -0.19309,-3.11049 -0.19309,-4.75234 0,-2.08274 0,-4.6983 0,-6.72 0,-1.06675 0,-1.77213 0,-2.88 0,-3.02941 0,-6.52619 0,-9.6 0,-1.55765 0.76858,-7.39488 -1.55877,-6.91951 -0.94814,0.19366 -0.96218,1.05553 -0.99505,1.80099 -0.0519,1.17794 -0.006,2.62871 -0.006,3.83852 v 19.2 c 0,1.52953 0.68432,6.74521 -1.28,6.79951 -1.2298,0.034 -1.26218,-1.45113 -1.27851,-2.31951 -0.0426,-2.26568 -0.001,-4.75281 -0.001,-7.04 v -26.56 c 0,-1.50926 0.8585,-7.90518 -1.28,-7.90518 -2.22718,0 -1.28,7.87171 -1.28,9.50518 v 18.24 c 0,3.48887 0.22129,6.83174 -0.1842,9.92 -0.22191,1.69017 0.57801,6.19654 -1.4158,6.19654 -0.80197,0 -1.12101,-0.71664 -1.23259,-1.40271 -0.24125,-1.48328 -0.0891,-4.40231 0.0884,-5.75383 0.73997,-5.63565 0.0983,-13.14812 -0.0528,-18.88 -0.0283,-1.07402 0.22727,-1.86252 0.22766,-2.88 4.3e-4,-1.09798 -0.0785,-3.25781 -0.1874,-4.48 -0.16625,-1.86574 1.0298,-7.90518 -1.40323,-7.90518 -2.03384,0 -1.28,7.25516 -1.28,8.86518 v 24.96 c 0,1.70477 0.0667,3.77854 -0.006,5.43877 -0.0361,0.82251 -0.11939,1.96883 -1.27383,2.00074 -1.85195,0.0512 -1.28,-3.36695 -1.28,-4.55951 v -16.32 c 0,-4.63255 0,-9.82502 0,-14.4 0,-1.09565 0,-1.81366 0,-2.88 0,-1.55982 0,-3.81816 0,-5.76 0,-4.22435 0,-8.94706 0,-13.12 0,-2.34265 -0.13076,-4.39251 0.0286,-6.72 0.0753,-1.09925 0.2617,-1.85988 0.28668,-2.88 0.0426,-1.74067 0.005,-3.96802 0.005,-5.76 v -13.44 c 0,-1.16285 -0.52037,-3.99336 0.51286,-4.78963 1.68824,-1.30107 1.94457,1.81482 3.32714,1.81482 1.60088,0 1.52155,-3.20633 3.32715,-1.81482 1.40631,1.0838 0.51285,6.61856 0.51285,8.30963 v 24.64 c 0,2.78319 -0.0505,5.89058 0.001,8.63976 0.0192,1.01481 0.0289,2.14543 1.27851,2.14543 1.18245,0 1.2611,-1.22425 1.27852,-2.14543 0.0484,-2.55793 10e-4,-5.12133 10e-4,-7.67976 v -26.24 c 0,-2.65463 0.10022,-4.01024 0.31358,-6.39753 0.0799,-0.89362 0.15324,-1.56881 1.00765,-1.75754 1.43719,-0.31744 1.55057,1.24208 1.55852,2.39507 0.0164,2.38024 -0.0159,4.98302 5.1e-4,7.36 0.006,0.85617 -0.14114,1.96823 0.74,2.36074 1.47957,0.65912 1.79838,-0.98956 1.81826,-2.04098 0.0504,-2.66491 -0.39748,-6.00119 0.0489,-8.621 0.19082,-1.1199 1.71365,-1.7864 2.31951,-0.55703 1.10025,2.23254 0.19308,6.98844 0.19308,9.49827 v 23.68 c 0,2.53774 -0.0172,5.14992 2.6e-4,7.68 0.006,0.90424 -0.11463,2.34892 1.00097,2.5768 1.33413,0.27251 1.51498,-1.08383 1.5526,-1.93828 0.0806,-1.83002 0.006,-4.19294 0.006,-6.07852 0,-7.17617 0,-14.60979 0,-21.76 0,-1.68615 0,-2.70976 0,-4.48 0,-1.88469 -1.00939,-8.95326 0.74149,-9.72074 0.64699,-0.2836 1.42844,-0.0277 1.80963,0.54247 0.64939,0.97137 0.32935,2.19714 0.32888,3.41827 -6.6e-4,1.72641 -0.18312,2.57941 -0.29136,4.16 -0.20584,3.00577 -0.0286,6.54331 -0.0286,9.6 0,0.87735 -0.12703,2.0299 0.10172,2.86124 0.19961,0.72541 0.85256,1.44032 1.71803,0.95111 0.86564,-0.48933 0.6934,-1.5436 0.79434,-2.53235 0.12199,-1.19494 0.25937,-1.89424 0.26566,-3.2 0.0219,-4.53589 -0.89695,-12.20216 0.32025,-16.32 3.32121,1.10251 2.24,5.47445 2.24,8.64 0,3.14105 -0.0468,5.36115 -0.27011,8.32 -0.41016,5.43313 -0.0499,11.17572 -0.0499,16.64 v 8 c 0.002,0.92189 -0.21162,2.51321 1.00149,2.75951 1.73285,0.35183 1.845,-1.6745 1.87383,-2.75951 0.0512,-1.92616 0.005,-4.41557 0.005,-6.4 0,-5.36324 0,-11.33965 0,-16.64 0,-3.44568 0,-6.27966 0,-9.92 0,-2.18374 -0.17822,-4.54893 0.0188,-6.71382 0.0763,-0.83789 0.3509,-1.51136 1.26123,-1.51136 0.77409,0 1.11293,0.50158 1.2326,1.20394 0.31049,1.82228 0.0474,4.18575 0.0474,6.06124 0,1.77974 0,4.038 0,5.76 0,1.06214 0,1.75989 0,2.88 0,3.05676 0,6.50611 0,9.6 0,1.41286 -0.75211,5.72575 1.00123,6.13383 2.21118,0.51464 1.55877,-4.63411 1.55877,-6.13383 0,-1.06674 0,-1.77214 0,-2.88 0,-5.33213 0,-11.54582 0,-16.96 0,-1.07781 -0.23785,-7.16451 2.0484,-5.7163 1.30381,0.82589 0.5116,7.08949 0.5116,8.5963 0,7.44916 0,16.02569 0,23.36 0,1.20836 0,1.98286 0,3.2 0,1.6938 -0.003,4.41839 0,6.08 0.002,0.98205 -0.27441,2.78519 1.28,2.78519 2.22436,0 1.28,-8.17783 1.28,-9.82519 0,-2.85462 -0.16363,-6.15253 0.0286,-8.96 0.0832,-1.21434 0.27552,-1.97082 0.29013,-3.2 0.0508,-4.2701 0.001,-9.1161 0.001,-13.44 0,-1.84116 -0.004,-3.95507 0,-5.76 0.002,-0.86431 -0.27687,-2.22763 0.74026,-2.68074 2.04691,-0.91185 1.64234,1.7331 1.55406,2.68074 -0.12635,1.35644 -0.0543,3.07948 -0.0543,4.48 v 25.28 c 0,1.53426 -0.93326,9.34853 1.55877,8.83951 1.81656,-0.37104 0.92758,-5.57483 1.05555,-6.91951 0.11363,-1.19409 0.25914,-1.89457 0.26543,-3.2 0.0375,-7.78037 2.5e-4,-15.87121 2.5e-4,-23.68 0,-1.19292 0,-2.70581 0,-3.84 0,-0.85834 -0.11699,-1.57628 0.0474,-2.54124 0.23412,-1.37424 1.30062,-1.28439 2.51259,-1.29876"
       id="path1" />
  </g>
</svg>
