<?xml version="1.0" encoding="UTF-8" standalone="no"?>
<!-- Created with Inkscape (http://www.inkscape.org/) -->

<svg
   version="1.1"
   id="svg1"
   width="309.44"
   height="255.99809"
   viewBox="0 0 309.44 255.99809"
   xmlns="http://www.w3.org/2000/svg"
   xmlns:svg="http://www.w3.org/2000/svg">
  <defs
     id="defs1" />
  <g
     id="g1"
     transform="translate(-9.2799998,-7.9355803)">
    <path
       style="fill:none;stroke:#32291f"
       d="M 9.2799998,8.64 H 27.519999 c 1.653086,0 5.326866,-0.6215625 6.526914,0.3288868 0.739256,0.5855078 0.512669,1.9430472 0.513086,2.8711132 0.0013,2.985508 0,5.97418 0,8.96 v 35.52 9.92 c -5.8e-5,0.914219 0.276629,2.565645 -0.513086,3.191114 C 33.148786,70.142442 31.187402,69.76 30.079999,69.76 H 19.84 c -1.040131,0 -2.801144,0.340977 -3.646913,-0.328886 C 15.40338,68.805645 15.680058,67.154219 15.68,66.24 15.679842,63.791934 14.653761,58.427657 16.008889,56.45877 16.647994,55.530215 18.146159,55.681758 19.2,55.68 c 2.121936,-0.0036 5.853447,-0.732363 6.061235,1.606172 0.08852,0.99627 0.184123,2.002363 -0.494321,2.680742 -0.907593,0.9075 -3.762381,-0.177656 -4.185186,1.205176 -1.30275,4.260781 2.693303,3.784473 5.658271,3.78791 0.931036,0.0011 2.310686,0.28168 3.006914,-0.284433 1.115577,-0.90709 0.513086,-4.63209 0.513086,-6.115567 0,-1.701933 0.745926,-5.90791 -0.513086,-7.166914 C 28.332985,50.47916 26.159106,50.88 24.959999,50.88 c -3.364931,0 -9.799152,-0.717207 -12.781233,0.101719 -1.471457,0.404082 -1.289842,1.51752 -1.29852,2.778281 -0.01413,2.053067 -2.46e-4,4.325625 -2.46e-4,6.4 v 18.88 c 0,3.153848 0.180207,4.135137 0.307407,7.04 0.07286,1.663926 -0.832544,6.233829 1.02,6.992598 3.377069,1.383164 9.112392,0.273555 12.752592,0.362715 1.318907,0.03231 2.991695,0.387519 4.058272,-0.324199 0.867163,-0.578653 0.739726,-1.898321 0.741728,-2.871114 0.0054,-2.645839 0.0054,-5.35416 0,-8 -0.0017,-0.847343 0.172242,-2.00832 -0.513086,-2.551113 -0.814148,-0.644824 -2.548234,-0.323848 -3.646914,-0.329141 -2.540773,-0.01225 -5.156724,-0.96371 -5.118271,2.24 0.0058,0.48711 -0.04085,1.026622 0.191357,1.498536 0.345962,0.703086 1.043777,0.7008 1.728396,0.7358 0.807903,0.04131 1.483052,-0.101425 2.13679,0.334805 0.669111,0.446504 0.716589,1.204043 0.734075,1.911367 0.01723,0.696856 0.01665,1.524571 -0.505432,2.04666 -1.006885,1.006895 -7.445907,1.07752 -8.573827,0.1842 C 15.452595,87.724629 15.680383,86.292461 15.68,85.44 c -0.0012,-2.557714 -0.0012,-5.122402 0,-7.68 3.93e-4,-0.873476 -0.208105,-2.299922 0.513087,-2.871113 C 17.154379,74.12752 19.247026,74.56 20.48,74.56 c 3.525961,0 9.646149,-0.820547 12.752592,0.101719 1.595754,0.47375 1.194846,5.100762 1.298765,6.618281 0.499406,7.292793 0.02864,14.878516 0.02864,22.4 0,1.87445 -0.01256,3.9023 2.47e-4,5.76 0.0069,1.0044 -0.167095,2.10965 1.00716,2.45827 C 38.66569,112.81812 45.135436,112 48.639997,112 c 1.199106,0 3.372988,0.40084 4.286914,-0.51309 1.257265,-1.25726 0.51582,-5.46689 0.513086,-7.16691 -0.0023,-1.44494 0.224243,-4.829687 -0.833086,-5.886914 -0.990625,-0.990527 -7.144712,-1.062636 -8.253828,-0.184199 -0.747622,0.592129 -0.575425,1.969123 -0.494321,2.864943 0.140117,1.54764 0.905859,1.57088 2.221479,1.60494 0.701587,0.0182 1.485215,-0.11457 2.04667,0.33012 0.734443,0.5817 0.685225,1.85328 0.411357,2.85234 -0.366572,1.33725 -1.594184,1.31902 -2.778271,1.48272 -1.695342,0.23436 -5.046252,0.78362 -6.206914,-0.37704 -0.974265,-0.97425 -0.513086,-4.64382 -0.513086,-6.20691 0,-1.735878 -0.731448,-5.508007 0.328889,-6.846914 0.602642,-0.760976 3.117229,-0.733652 4.151111,-0.804453 3.098584,-0.212187 6.180669,0.291367 9.28,0.291367 1.45164,0 3.137353,-0.417519 4.378271,0.193086 0.830967,0.408887 0.735796,1.541563 0.741485,2.366914 0.016,2.320528 2.44e-4,4.71277 2.44e-4,7.04 v 24 c 0,1.97694 0.03538,4.12118 -0.0015,6.08 -0.01336,0.71014 0.02566,1.50965 -0.511606,2.04691 -0.849912,0.84992 -2.747017,0.51309 -3.966914,0.51309 -3.48416,0 -10.456597,1.08881 -13.392593,-0.19309 -1.184741,-0.51727 -1.005119,-1.89454 -1.007407,-3.00691 -0.0055,-2.68215 -0.01825,-5.63714 2.47e-4,-8.32 0.0081,-1.17974 -0.09562,-2.27507 1.298518,-2.5126 1.708906,-0.29115 6.09538,-0.70073 7.52247,0.28149 0.899864,0.61934 1.014849,2.15627 0.585679,3.14371 -0.446719,1.0278 -1.415239,0.97136 -2.36667,1.0074 -2.848398,0.10791 -3.218891,4.54603 -0.634072,4.78124 1.573584,0.14319 6.352573,0.75863 7.344936,-0.49433 0.606006,-0.76513 0.328892,-2.38571 0.328892,-3.32691 0,-2.85589 0.04869,-5.34641 -0.0015,-7.99976 -0.01308,-0.6917 0.05704,-1.46098 -0.511606,-1.91135 -0.556172,-0.4405 -1.345464,-0.32381 -2.046914,-0.32865 -2.05877,-0.0142 -4.321421,-2.4e-4 -6.4,-2.4e-4 -2.327021,0 -4.719751,-0.005 -7.04,0 -0.817568,0.002 -1.739275,-0.16821 -2.366914,0.32889 -0.620578,0.4915 -0.507876,1.51121 -0.512839,2.23111 -0.01419,2.05877 -2.47e-4,4.32142 -2.47e-4,6.4 v 20.16 c 0,2.14136 0.801038,5.83432 -0.328889,7.58297 -0.676003,1.04617 -2.591548,1.05081 -3.831111,1.05679 -3.716806,0.0179 -9.331142,0.28914 -12.798517,-0.0185 -1.72075,-0.15267 -1.89147,-1.02483 -1.92,-2.54124 -0.04645,-2.46871 -0.0015,-5.18731 -0.0015,-7.68 0,-1.03083 -0.359226,-3.10518 0.741728,-3.64691 1.55301,-0.76418 4.565481,-0.20479 6.298271,-0.19285 0.705701,0.005 1.735699,-0.11266 2.231111,0.51285 0.729607,0.9212 0.461258,3.12681 -0.184196,3.63802 -0.576504,0.45661 -1.282007,0.31033 -2.046668,0.33012 -0.65938,0.0171 -1.452121,-0.068 -1.911357,0.51186 -0.445534,0.56253 -0.336184,1.29491 -0.327161,2.04667 0.007,0.58412 -0.05567,1.2438 0.327161,1.72715 0.690122,0.87135 2.711958,0.51309 3.83111,0.51309 1.177239,0 4.008357,0.47522 4.791111,-0.51309 1.439724,-1.81779 0.329942,-8.03066 0.328889,-10.36691 -4.2e-4,-0.93012 0.251314,-2.51827 -0.741728,-3.00691 -1.162522,-0.57204 -3.093442,-0.19309 -4.378272,-0.19309 -3.512551,0 -7.049947,-0.007 -10.559999,0 -1.406153,0.003 -2.692453,-0.17901 -3.098272,1.29876 C 10.158485,138.81129 10.56,143.11037 10.56,144.96 v 2.88 13.12 12.16 c 0,1.1991 -0.400832,3.37301 0.513087,4.28691 1.27503,1.27504 5.137197,0.42465 6.846913,0.54172 2.773105,0.18993 8.461652,1.50836 10.778271,-0.0375 0.867175,-0.57865 0.739726,-1.89834 0.741728,-2.87111 0.0049,-2.37723 1.141746,-8.83008 -0.328889,-10.68691 -0.544241,-0.68716 -1.773596,-0.51149 -2.551111,-0.51309 -1.728852,-0.004 -6.022705,-0.63828 -6.352592,1.29875 -0.172716,1.01416 -0.291037,2.26531 0.281482,2.98816 1.335652,1.68639 4.346147,-0.75878 4.46469,2.43458 0.03083,0.83046 0.110832,1.74179 -0.506665,2.28666 -0.510057,0.45005 -1.388125,0.49826 -2.046915,0.51209 -1.396015,0.0293 -5.892482,0.28027 -6.71111,-0.75333 C 14.808597,171.49547 15.36,168.45553 15.36,167.04 c 0,-1.7967 -0.767323,-5.78284 0.328889,-7.16691 C 16.379162,159.00154 18.740827,159.36 19.84,159.36 h 9.919999 c 1.278643,0 2.648802,-0.34301 3.738272,0.19309 0.768545,0.37817 0.726296,1.30931 0.740246,2.04715 0.04088,2.16238 0.0015,4.53683 0.0015,6.71976 v 20.48 c 0,1.7632 -0.776191,6.09164 0.328889,7.48691 1.076758,1.35952 7.225603,0.63038 8.951111,0.62049 2.75352,-0.0158 6.333017,1.24383 8.566914,-0.38197 1.171606,-0.85268 1.045766,-2.03918 1.028393,-3.24543 -0.0231,-1.60422 -0.136836,-3.00357 -0.169873,-4.8 -0.01574,-0.85582 0.128672,-1.41789 0.161973,-2.24 0.03562,-0.87934 0.169248,-1.97812 -0.364692,-2.77828 -0.58001,-0.86918 -1.531441,-0.73479 -2.502715,-0.74148 -2.49355,-0.0172 -6.678726,-1.05481 -6.718271,2.24 -0.04518,3.76375 2.406699,1.40085 4.285185,2.88865 0.781885,0.61927 0.707168,2.0949 0.411357,3.17234 -0.483012,1.75932 -4.514658,1.30244 -6.298271,1.29877 -0.904819,-0.002 -2.252568,0.14098 -2.686914,-0.74172 -1.19802,-2.43469 -0.128721,-6.99203 -0.197778,-9.81828 -0.02164,-0.88578 -0.575899,-2.54975 0.20247,-3.19111 0.903799,-0.74473 3.157159,-0.32889 4.282222,-0.32889 h 9.92 c 1.105591,0 2.766093,-0.31473 3.701235,0.32889 1.074976,0.73986 0.778691,2.67205 0.778765,3.83111 2.24e-4,3.53602 -0.277066,7.03555 -0.318765,10.56 -0.07784,6.57875 0.318765,13.01406 0.318765,19.52 0,2.04629 0.776963,5.60106 -0.328892,7.25828 -0.676304,1.01348 -2.928735,0.74172 -4.151108,0.74172 h -10.24 c -1.183672,0 -2.739158,0.39006 -3.646914,-0.32889 -0.910737,-0.72132 -0.451809,-4.43058 -0.541728,-5.75111 -0.128536,-1.88764 -1.119842,-6.02543 0.03753,-7.48691 0.527805,-0.66649 1.762847,-0.51147 2.551111,-0.51309 1.869434,-0.004 4.394448,-0.58625 5.978271,0.19309 0.773882,0.3808 0.738765,1.28002 0.738765,2.04715 0,0.79828 0.01565,1.75195 -0.738765,2.22519 -0.686474,0.43063 -1.294453,0.11176 -2.136792,0.15482 -1.81017,0.0926 -2.752475,2.68219 -1.592587,4.14667 0.720156,0.90927 2.977636,0.51308 4.151108,0.51308 1.258535,0 3.650532,0.4433 4.606914,-0.51308 0.719639,-0.71965 0.512666,-2.06844 0.513086,-3.00692 0.0011,-2.52732 0.384175,-6.30016 -0.110122,-8.63506 -0.377793,-1.78459 -1.502715,-1.90154 -3.089878,-1.92371 -3.68856,-0.0515 -7.500078,-10e-4 -11.2,-10e-4 -1.166059,0 -3.05657,-0.39211 -3.966914,0.32889 -0.721196,0.57119 -0.512693,1.99763 -0.513086,2.87111 -0.0013,2.98551 0,5.9742 0,8.96 v 36.16 c 0,3.15996 -2.02e-4,6.45418 0,9.6 1.08e-4,1.66393 -0.502273,3.31022 1.606172,3.50123 3.062778,0.27748 7.925972,-0.31674 11.193828,-0.30097 8.518413,0.0411 17.080336,-2.6e-4 25.599999,-2.6e-4 h 8.96 c 1.016358,0 2.790371,0.32774 3.651602,-0.32889 0.905029,-0.69002 0.815175,-2.50316 0.827168,-3.51111 0.03806,-3.19902 0.0012,-6.40072 0.0012,-9.6 0,-11.64549 -0.32,-23.24228 -0.32,-34.88 v -8.96 c -6.8e-5,-1.00853 0.260059,-2.55377 -0.513086,-3.32691 -1.294326,-1.29434 -5.73165,-0.51309 -7.486914,-0.51309 -2.452636,0 -4.907597,-0.001 -7.36,0 -0.867358,3.9e-4 -2.00371,-0.21223 -2.686914,0.32889 -0.763754,0.6049 -0.513027,2.25367 -0.513086,3.19111 -1.61e-4,2.53652 -0.0052,5.15076 0,7.68 0.0016,0.76178 -0.149057,1.76346 0.328892,2.36692 0.495239,0.62529 1.475137,0.50763 2.231108,0.51285 1.704053,0.0117 6.320557,0.77351 6.672593,-1.29854 0.320142,-1.88431 -0.177607,-3.10451 -2.192593,-3.18123 -0.908994,-0.0346 -1.83146,0.026 -2.138271,-1.0074 -0.311235,-1.04834 -0.369185,-2.84551 0.411357,-3.46371 1.10335,-0.87387 7.236509,-0.83313 8.253828,0.1842 1.603252,1.60324 0.517681,8.13267 0.513086,10.36691 -0.0019,0.91543 0.146914,2.02692 -0.513086,2.68692 C 79.917,220.81684 78.019896,220.48 76.799998,220.48 h -9.919999 c -1.183667,0 -2.739161,0.39006 -3.646914,-0.32889 -0.625191,-0.49517 -0.507979,-1.52568 -0.512842,-2.23111 -0.01572,-2.28008 -0.308955,-4.75019 -0.32,-7.04 -0.03858,-7.99957 -2.44e-4,-16.00031 -2.44e-4,-24 0,-1.86457 -0.0038,-3.91559 0,-5.76 0.0016,-0.77746 -0.156416,-1.75416 0.328891,-2.36691 0.705366,-0.89059 2.865195,-0.51309 4.151109,-0.51309 3.840654,0 9.929159,-0.92652 13.392592,0.10172 1.221299,0.3626 1.007334,2.24379 1.007407,3.41828 1.61e-4,2.53633 0.01716,5.15102 -2.44e-4,7.68 -0.0097,1.4034 0.03939,2.5651 -1.605928,2.8326 -1.690546,0.27484 -6.412075,0.71215 -7.344936,-0.46569 -0.381338,-0.48148 -0.320303,-1.15566 -0.327163,-1.72714 -0.04639,-3.86524 3.086401,-1.22899 4.46938,-3.30149 1.009209,-1.51238 0.233891,-3.58191 -1.277281,-3.71953 -1.851972,-0.16863 -6.116328,-1.10967 -7.480742,0.21902 -0.700122,0.6818 -0.512661,2.0187 -0.513086,2.96223 -0.0011,2.55441 -0.0053,5.12613 0,7.68 0.0016,0.7775 -0.174072,2.00688 0.513086,2.55111 1.60147,1.26838 6.741494,0.32889 8.766914,0.32889 2.236914,0 4.501109,0.32406 6.72,0.31951 0.814776,-0.002 1.768115,0.0862 2.366914,-0.5126 0.600693,-0.6007 0.507227,-1.55064 0.512842,-2.36691 0.0138,-2.00461 2.44e-4,-4.06971 2.44e-4,-6.08 v -20.8 c 0,-1.85738 -0.803008,-6.05779 0.328887,-7.48691 0.690283,-0.87156 3.051933,-0.51309 4.151113,-0.51309 3.840898,0 9.928882,-0.9266 13.392602,0.10173 1.18816,0.35275 1.00689,1.98087 1.0074,3.09827 0.001,2.63598 0.0178,5.3715 -2.5e-4,8 -0.007,1.01791 0.0665,2.21813 -1.00715,2.68691 -1.53885,0.67188 -3.94136,0.20504 -5.712602,0.19286 -0.755987,-0.005 -1.735869,0.11244 -2.231113,-0.51286 -0.583448,-0.73666 -0.622461,-2.55617 -0.135801,-3.54519 0.456826,-0.92838 3.058261,-0.53924 3.773828,-1.25481 0.468378,-0.46837 0.490298,-1.118 0.505428,-1.72691 0.0824,-3.31535 -4.9316,-2.66052 -7.350858,-2.55383 -3.254091,0.14352 -1.92164,8.0336 -1.921484,10.55383 6.8e-5,1.02574 -0.238799,2.84443 0.741728,3.32691 1.248926,0.61456 2.923643,0.142 4.378272,0.20569 3.102226,0.13586 6.161102,0.3074 9.280002,0.3074 1.2199,0 3.117,0.33684 3.96691,-0.51309 0.60071,-0.6007 0.50723,-1.55062 0.51284,-2.36691 0.0154,-2.23916 -0.26043,-4.49019 -0.31506,-6.72 -0.18045,-7.36454 -0.77616,-15.40723 0.0867,-22.72 0.25922,-2.19701 1.26463,-7.99735 -0.36592,-9.72691 -1.2099,-1.28335 -6.00426,-0.51309 -7.72543,-0.51309 -2.452649,0 -4.9076,-0.001 -7.360002,0 -0.867344,3.9e-4 -2.003721,-0.21221 -2.686914,0.32889 -0.76374,0.60489 -0.513027,2.25368 -0.513086,3.19111 -1.66e-4,2.53651 -0.0052,5.15078 0,7.68 0.0016,0.76178 -0.149072,1.76345 0.328887,2.36691 0.936875,1.18291 5.056855,0.57899 6.710869,0.50692 1.172256,-0.0511 1.97538,-0.24458 2.192846,-1.6 0.66442,-4.14136 -3.6927,-2.05114 -4.330874,-4.20123 -0.291455,-0.98194 -0.331709,-2.5552 0.411358,-3.14371 1.209023,-0.95757 4.304446,-0.33215 5.886916,-0.32889 0.76178,0.002 1.76344,-0.14906 2.36691,0.32889 0.68533,0.54279 0.51134,1.70374 0.51309,2.55111 0.005,2.64584 0.005,5.35415 0,8 -0.002,0.97277 0.12544,2.29245 -0.74173,2.87111 -1.01918,0.6801 -2.48005,0.32889 -3.73827,0.32889 h -9.920002 c -1.173408,0 -3.431045,0.39607 -4.151113,-0.51309 -0.950449,-1.20003 -0.328887,-4.87383 -0.328887,-6.52691 v -18.88 c 0,-2.58053 1.34335,-11.53156 -1.921484,-11.82124 -3.912334,-0.34713 -8.211353,0.11335 -12.158516,0.0674 -1.195742,-0.0139 -3.428857,-0.11906 -4.286914,0.56272 -0.738857,0.58707 -0.51267,1.94182 -0.513086,2.87111 -0.0011,2.55417 -0.0053,5.12643 0,7.68 0.0018,0.87317 -0.184614,2.23109 0.741729,2.68691 1.529707,0.75272 4.578804,0.22395 6.298271,0.19161 0.710171,-0.0134 1.509619,0.0257 2.046914,-0.51161 0.709781,-0.70977 0.828081,-2.19246 0.32,-3.22518 -0.450371,-0.91543 -1.506879,-0.70368 -2.365434,-0.74766 -0.673584,-0.0345 -1.381377,-0.0306 -1.728394,-0.7358 -0.465102,-0.9452 -0.429467,-3.13579 0.32,-3.72938 1.221802,-0.96769 6.290723,-0.83181 7.705186,-0.1358 0.924902,0.4551 0.741289,2.03323 0.741728,3.00691 0.0012,2.66057 0.0055,5.34005 0,8 -0.0018,0.87318 0.18461,2.23109 -0.741728,2.68691 -1.103722,0.5431 -2.832711,0.1931 -4.058312,0.1931 h -9.28 c -1.173388,0 -3.431049,0.39606 -4.151108,-0.51309 -0.477954,-0.60346 -0.327324,-1.60511 -0.328891,-2.36691 -0.0041,-2.00481 0,-4.06956 0,-6.08 v -23.68 c 0,-2.0649 -1.261748,-7.482597 0.0089,-9.086914 1.05503,-1.332089 6.645548,-0.513086 8.311099,-0.513086 2.184341,0 8.019673,-1.023281 9.726914,0.328887 0.802476,0.635567 0.513028,2.275801 0.513086,3.191113 1.66e-4,2.627012 0.953086,7.48895 -0.193086,9.81828 -0.686372,1.39488 -5.367588,0.79999 -6.84667,0.73555 -0.950161,-0.0414 -1.833544,-0.18177 -2.138515,-1.2926 -0.297661,-1.0842 -0.317212,-2.59531 0.411357,-3.17234 1.539273,-1.21912 4.169302,0.74619 4.280498,-2.25037 0.13128,-3.537758 -3.042656,-2.878695 -5.753584,-2.87852 -0.915327,5.9e-5 -2.555517,-0.289414 -3.191108,0.513086 -1.42376,1.797634 -0.329038,8.058614 -0.328892,10.366914 5.9e-5,0.90813 -0.267451,2.5749 0.513086,3.19111 1.044742,0.8248 3.040454,0.0441 4.286914,0.0136 3.195679,-0.0783 6.403321,-0.01 9.6,-0.005 1.137647,0.002 2.47626,0.44574 3.418272,-0.0632 0.769482,-0.41574 0.726201,-1.43055 0.740244,-2.17679 0.0407,-2.16327 0.0015,-4.53639 0.0015,-6.72 V 82.88 c 0,-1.951699 -0.77001,-5.931484 0.328887,-7.578281 C 87.485643,73.688106 93.225066,74.56 95.039998,74.56 c 2.111504,0 7.728282,-1.000625 9.406912,0.328887 0.80687,0.639063 0.51303,2.294141 0.51309,3.191113 1.6e-4,2.634063 0.95039,7.479746 -0.19309,9.818516 -0.45253,0.925566 -2.0865,0.969395 -3.00691,1.032852 -2.041301,0.140722 -5.859533,0.372539 -6.061242,-1.897539 -0.07487,-0.842618 -0.199639,-1.71711 0.310127,-2.360743 0.761425,-0.961386 3.066582,-0.134726 3.958027,-1.026172 0.676438,-0.676445 0.671358,-1.995117 0.374318,-2.988144 -0.613937,-2.052442 -4.808166,-1.310742 -6.581232,-1.298516 -0.815674,0.0056 -1.94916,-0.107519 -2.366914,0.741465 -1.138535,2.313789 -0.193252,7.153555 -0.193086,9.818281 5.9e-5,0.94625 -0.237539,2.291739 0.328887,3.006914 0.690039,0.87125 2.712011,0.513086 3.831113,0.513086 3.497187,0 7.085772,0.231856 10.560002,-0.180742 0.98594,-0.11709 2.25739,0.136797 3.09827,-0.45209 C 109.97518,92.137012 109.75953,90.631543 109.76,89.6 V 80.32 59.2 c 0,-1.755273 0.78124,-6.192578 -0.51309,-7.486914 C 107.7799,50.246074 102.17863,51.2 100.16,51.2 c -1.966281,0 -7.334045,-0.919804 -8.766916,0.513086 -1.037022,1.037031 -0.513086,3.873242 -0.513086,5.246914 0,1.910489 -0.780693,6.77625 1.049131,7.898282 1.38417,0.84875 3.197656,0.111191 4.710869,0.111093 1.089277,-5.8e-5 2.189306,0.522559 3.098271,-0.03086 0.826651,-0.503301 0.768751,-1.636055 0.735311,-2.537031 -0.0211,-0.569453 -0.0146,-1.202871 -0.506668,-1.592598 -0.572451,-0.453379 -1.321817,-0.298125 -2.04667,-0.334805 -1.924863,-0.0974 -3.264121,-2.345527 -1.682715,-3.960996 C 97.042469,55.690801 99.017869,56 100.16,56 c 1.14625,0 3.35458,-0.409531 4.28691,0.328887 0.81258,0.643574 0.49509,2.26752 0.51778,3.191113 0.065,2.648125 0.67458,6.452442 0.26791,8.953828 -0.29813,1.83375 -1.92161,1.605469 -3.4726,1.606172 -3.64676,0.0017 -7.24383,-0.01779 -10.880002,-2.54e-4 -1.252471,0.006 -3.006152,0.432305 -3.966914,-0.328632 C 86.246609,69.223262 86.401619,67.988301 86.399998,67.2 c -0.0054,-2.612265 0.205674,-5.399258 -0.135801,-8 -1.56624,-11.928769 0.135801,-24.767969 0.135801,-36.8 0,-3.324082 -0.321494,-6.598633 -0.32,-9.92 C 86.080652,11.017031 85.87741,9.3014649 87.68617,9.0074024 91.398318,8.4039063 96.035037,8.96 99.839998,8.96 H 124.8 h 8.96 c 1.11553,0 2.77585,-0.3133398 3.73827,0.3288868 1.02289,0.6825781 0.74166,2.4347852 0.74173,3.5111132 2e-4,3.279141 0.24303,6.666074 -0.1842,9.92 -0.59437,4.526777 0.2059,9.208496 0.18395,13.76 -0.0312,6.473418 -0.73591,13.024903 -0.29111,19.52 0.21988,3.210801 0.29136,6.373028 0.29136,9.6 0,1.074668 0.30976,2.824063 -0.51309,3.646914 -1.23564,1.235645 -4.87537,0.429258 -6.52691,0.541719 -2.93009,0.199531 -5.71289,0.201777 -8.64,0 -0.86642,-0.05973 -2.26659,0.221563 -2.87112,-0.541719 C 118.58381,67.851641 119.36,63.523184 119.36,61.76 c 0,-1.335351 -0.52307,-4.17123 0.32888,-5.246914 0.94548,-1.193769 4.95104,-0.522754 6.39112,-0.512832 0.65922,0.0046 1.50476,-0.100762 2.04691,0.328633 0.62345,0.493789 0.56095,1.41291 0.49407,2.229629 -0.23508,2.870898 -2.67815,0.991269 -4.2679,2.250371 -0.74078,0.586719 -0.60589,2.000156 -0.46568,2.864941 0.38126,2.351719 4.33033,1.281622 6.3526,1.286426 0.8662,0.0021 2.32159,0.242617 2.87111,-0.476308 1.41648,-1.853145 0.32997,-7.350196 0.32889,-9.763946 -4.2e-4,-0.938496 0.20655,-2.287265 -0.51309,-3.006914 C 132.05734,50.843516 130.09798,51.2 128.96,51.2 h -9.92 c -1.099,0 -3.06369,-0.386484 -3.96692,0.328887 C 113.65201,52.654414 114.56,59.001172 114.56,60.8 v 23.68 c 0,2.01043 -0.004,4.075176 0,6.08 0.002,0.761778 -0.14907,1.763457 0.32888,2.366914 0.72005,0.909141 2.97772,0.513086 4.15112,0.513086 3.61784,0 9.85124,0.790782 13.10124,-0.101718 1.36289,-0.374278 1.29027,-1.581016 1.29851,-2.778282 0.0181,-2.628496 0.001,-5.364023 2.5e-4,-8 -5.1e-4,-1.117363 0.18076,-2.745527 -1.00741,-3.098281 -1.73021,-0.513672 -4.1091,-0.114726 -6.03259,-0.101465 -0.72117,0.005 -1.7408,-0.10623 -2.23112,0.512832 -1.37339,1.734063 -0.0593,4.18127 1.91136,4.280996 0.72563,0.03672 1.47387,-0.118867 2.04667,0.334805 1.28967,1.021426 0.4434,3.853809 -1.09308,4.103711 -1.59741,0.259805 -5.85312,0.754316 -7.16075,-0.281484 -0.74118,-0.58711 -0.5127,-2.028692 -0.51308,-2.871114 -0.001,-2.557754 -0.001,-5.122382 0,-7.68 3.9e-4,-0.873496 -0.20811,-2.299922 0.51308,-2.871113 1.55609,-1.232441 6.41659,-0.338418 8.44692,-0.328633 2.06483,0.01 7.23247,-0.756269 8.85827,0.328633 1.62589,1.084961 0.62494,6.193008 0.79605,7.991113 0.66042,6.939825 -0.0432,13.885235 -0.0543,20.8 -0.003,2.14727 -0.66973,6.04135 0.6442,7.86123 0.95674,1.32517 3.12703,0.57978 4.4758,0.48741 3.72897,-0.25536 9.41805,0.99691 12.75259,0.007 1.1509,-0.34169 1.0053,-1.89061 1.00741,-2.91556 0.006,-2.72357 0.0185,-5.60277 -2.5e-4,-8.32 -0.007,-0.975039 0.081,-2.135234 -1.00716,-2.458281 -1.65755,-0.492109 -3.86903,-0.114179 -5.71259,-0.101465 -0.72117,0.005 -1.74081,-0.10623 -2.23112,0.512832 -0.64091,0.809219 -0.41345,3.164664 0.1842,3.638024 1.06782,0.84573 2.69696,-0.34623 3.63803,0.84198 1.44193,1.82058 0.12633,4.24691 -1.91136,4.28543 -1.61183,0.0305 -5.77544,0.66947 -6.71087,-0.51161 -0.52392,-0.6615 -0.32849,-1.82822 -0.32888,-2.68691 -0.001,-2.55062 -0.001,-5.127871 0,-7.68 4.2e-4,-0.929316 -0.25644,-2.515761 0.74173,-3.006914 C 144.54975,93.097715 146.32097,93.44 147.52,93.44 h 9.6 c 1.11072,0 3.68468,-0.482148 4.28691,0.741719 0.87465,1.7775 0.19309,5.294961 0.19309,7.258281 v 17.28 11.84 c 0,1.23782 0.46195,3.6084 -0.32889,4.60691 -1.01218,1.27798 -6.07701,0.51309 -7.67111,0.51309 -2.48779,0 -8.48891,1.15854 -10.36692,-0.32889 -0.69989,-0.55432 -0.51269,-2.00644 -0.51308,-2.87111 -0.001,-2.54944 -0.001,-5.12916 0,-7.68 3.9e-4,-0.86734 -0.21222,-2.00371 0.32888,-2.68691 0.85555,-1.08022 4.63688,-0.51604 6.07112,-0.51309 0.7618,0.002 1.76341,-0.14904 2.36691,0.32889 0.69325,0.54901 0.5544,1.61963 0.58568,2.54963 0.0972,2.88956 -3.85552,0.9236 -4.45086,2.92888 -0.2863,0.96432 -0.32262,2.58536 0.22715,3.27951 0.49525,0.6253 1.47514,0.50763 2.23112,0.51285 1.80873,0.0125 4.5436,0.62871 5.97827,-0.32865 0.98075,-0.65445 0.74128,-2.19611 0.74173,-3.19111 10e-4,-2.46273 0.005,-5.19262 0,-7.68 -0.002,-0.94854 0.15607,-2.27201 -0.74173,-2.87111 -1.63007,-1.08774 -5.64486,-0.35066 -7.57827,-0.32766 -2.45502,0.0292 -4.88996,0.31766 -7.36,0.31877 -0.80347,3.6e-4 -2.02118,-0.19838 -2.68692,0.32889 -1.19065,0.94301 -0.51308,4.97016 -0.51308,6.39111 v 19.52 c 0,2.74994 0.0186,5.57809 -2.5e-4,8.32 -0.01,1.4034 0.0394,2.56511 -1.60592,2.8326 -3.35231,0.54501 -9.16771,0.0474 -12.79383,0.0474 -1.17342,0 -3.43105,0.39607 -4.15112,-0.51309 -0.95045,-1.20003 -0.32888,-4.87383 -0.32888,-6.52691 0,-1.47052 -0.60337,-5.82686 0.51308,-6.71111 1.25452,-0.99361 4.56344,-0.33227 6.20692,-0.32889 0.76176,0.002 1.76345,-0.14906 2.36691,0.32889 0.80248,0.63557 0.78822,2.39132 0.32,3.46371 -0.44831,1.02679 -1.41405,0.97131 -2.36667,1.0074 -0.76115,0.0288 -1.6532,-0.0589 -2.04716,0.74173 -0.46504,0.94508 -0.32248,2.90053 0.32,3.40938 1.31222,1.0393 6.1647,0.83212 7.75951,0.1358 1.17715,-0.51395 1.00688,-2.15834 1.00741,-3.32691 0.001,-2.63589 0.0179,-5.37161 -2.5e-4,-8 -0.008,-1.1847 0.0735,-2.27883 -1.29851,-2.5126 -3.36311,-0.573 -9.1103,-0.0474 -12.78124,-0.0474 -1.23296,0 -3.32564,-0.43246 -4.28692,0.32889 -0.61878,0.49009 -0.50787,1.51016 -0.51284,2.23111 -0.0131,1.90104 -2.4e-4,3.85407 -2.4e-4,5.76 v 24.64 c 0,1.72285 -6.3e-4,4.13168 0,5.76 3.7e-4,0.96508 -0.29874,2.0852 0.37728,3.09828 0.70201,1.05201 1.81615,0.74113 3.14272,0.74172 3.5186,0.002 7.04104,0 10.56,0 1.28194,0 3.39718,0.37664 4.28691,-0.51309 0.71417,-0.71417 0.51264,-2.00242 0.51309,-3.00691 0.001,-2.72018 0.88724,-7.39824 -0.19309,-9.8726 -0.74053,-1.69608 -4.92781,-1.03599 -6.52691,-1.00591 -1.102,0.0207 -2.11658,0.0527 -2.45827,1.29726 -0.27408,0.99828 -0.34406,2.26695 0.22715,2.98816 1.47172,1.85819 4.46816,-0.91078 4.46816,2.75333 0,0.73669 0.0293,1.50722 -0.51013,2.04667 -1.07743,1.07743 -4.30818,0.51379 -5.88691,0.51309 -0.92813,-4.3e-4 -2.2856,0.22617 -2.87112,-0.51309 -0.84833,-1.07109 -0.32888,-4.09404 -0.32888,-5.56691 0,-1.85738 -0.803,-6.05779 0.32888,-7.48691 0.69029,-0.87155 3.05195,-0.51309 4.15112,-0.51309 h 9.92 c 1.27864,0 2.6488,-0.34301 3.73827,0.19309 0.76855,0.37818 0.7263,1.3093 0.74024,2.04715 0.0428,2.26458 0.001,4.75351 0.001,7.03976 v 19.84 c 0,2.19414 -0.76447,5.95229 0.19308,7.89828 0.57023,1.15883 3.15325,0.74172 4.28692,0.74172 3.5199,0 7.04012,2.4e-4 10.56,0 1.08339,-8e-5 2.56372,0.25012 3.32691,-0.51309 0.71419,-0.71417 0.51264,-2.00242 0.51309,-3.00691 0.001,-2.63266 0.901,-7.5948 -0.19309,-9.81828 -0.43366,-0.88129 -1.54367,-0.7358 -2.36691,-0.74148 -1.38217,-0.01 -5.87179,-0.67317 -6.68247,0.51285 -0.49344,0.72187 -0.16287,3.13269 0.47555,3.63802 1.03004,0.81532 2.4777,-0.13416 3.45383,0.84198 0.89913,0.89914 0.59859,3.40601 -0.22864,3.95802 -1.38322,0.92303 -3.94995,0.32965 -5.65827,0.32889 -0.93179,-4.3e-4 -2.52178,0.2442 -3.00692,-0.74172 -1.17547,-2.38885 -0.19429,-7.44023 -0.19308,-10.13828 4.2e-4,-0.92812 -0.22618,-2.2856 0.51308,-2.87111 0.89907,-0.71209 3.06032,-0.32889 4.28692,-0.32889 h 10.24 c 1.10668,0 2.49931,-0.28291 3.35555,0.32889 0.89276,0.63787 0.79895,2.11588 0.8042,3.19111 0.0173,3.53848 -0.31975,7.0318 -0.31975,10.56 v 20.8 c 0,1.50371 0.70341,6.06762 -0.51309,7.03111 -1.72988,1.3701 -7.5106,0.32889 -9.72691,0.32889 -1.91569,0 -6.61966,0.86488 -8.12692,-0.32889 -1.122,-0.88865 -0.51308,-4.70474 -0.51308,-6.07111 0,-1.70267 -0.74057,-5.81662 0.32888,-7.16691 0.89249,-1.12688 6.94416,-0.89614 8.26371,-0.32 1.19889,0.52343 1.42835,3.1598 0.49432,4.09383 -1.75297,1.75296 -4.42019,-0.68688 -4.2805,3.0716 0.0206,0.55488 0.0223,1.20898 0.50667,1.59259 1.23005,0.97422 4.93178,0.39747 6.52692,0.55604 0.79608,0.0792 1.7255,0.10842 2.23111,-0.64887 0.53329,-0.79879 0.32844,-1.78943 0.32889,-2.77828 0.001,-2.6498 0.59783,-7.19627 -0.10173,-9.5526 -0.4041,-1.36111 -2.75813,-1.0074 -4.05827,-1.0074 h -10.56 c -1.0972,0 -2.78918,-0.35045 -3.64692,0.32889 -0.72117,0.57119 -0.51269,1.99763 -0.51308,2.87111 -0.001,2.98551 0,5.9742 0,8.96 v 35.52 c 0,3.30029 -0.001,6.62186 0,9.92 6e-4,1.34838 -0.33466,2.8743 1.29876,3.1526 2.90017,0.49412 8.0278,0.0474 11.18124,0.0474 h 26.56 8.64 c 1.03974,0 2.52015,0.27043 3.41828,-0.32889 1.02285,-0.68255 0.74164,-2.43482 0.74172,-3.51111 v -9.6 -35.2 c 0,-2.98578 0.001,-5.97451 0,-8.96 -4.3e-4,-0.95531 0.21603,-2.25752 -0.51309,-2.88371 -1.45986,-1.25377 -5.23127,-0.29549 -7.16691,-0.33357 -2.5869,-0.0509 -5.08373,-0.0502 -7.68,0.0126 -0.96026,0.0232 -2.25108,-0.26506 -3.00692,0.33358 -0.76375,0.6049 -0.51303,2.25365 -0.51308,3.19111 -1.8e-4,2.53652 -0.005,5.15076 0,7.68 0.002,0.76178 -0.14907,1.76346 0.32888,2.36692 0.49524,0.62529 1.47514,0.50763 2.23112,0.51285 1.70402,0.0117 6.3206,0.77351 6.67259,-1.29854 0.16926,-0.9964 0.21516,-2.56545 -0.69431,-3.17234 -1.24383,-0.83 -3.36215,0.30742 -3.69088,-1.62766 -0.16387,-0.96463 -0.20412,-2.31834 0.46568,-2.98814 1.04151,-1.04151 7.19166,-1.06217 8.25383,0 1.63666,1.63666 0.51779,8.40099 0.51309,10.68691 -0.002,0.97277 0.12546,2.29244 -0.74172,2.87111 -1.08489,0.72393 -2.72035,0.32889 -4.05828,0.32889 -3.40969,0 -9.68166,1.15168 -12.7526,-0.23754 -1.37959,-0.62408 -1.0074,-2.66388 -1.0074,-3.92246 0,-3.8156 0.23058,-7.71332 -0.0286,-11.52 -0.43627,-6.40691 0.0286,-13.06023 0.0286,-19.52 0,-1.80769 -0.91963,-5.48836 0.30025,-6.84691 0.77469,-0.86276 3.02266,-0.51309 4.17975,-0.51309 h 9.6 c 1.27865,0 2.6488,-0.34301 3.73828,0.19309 0.95953,0.47215 0.74166,2.29457 0.74172,3.32691 1.7e-4,2.6419 0.0179,5.36578 -2.6e-4,8 -0.008,1.14803 0.0891,2.41258 -1.29851,2.59406 -1.82594,0.23883 -6.65412,0.7636 -7.65235,-0.54246 -0.375,-0.49064 -0.32592,-1.14439 -0.32592,-1.7316 0,-3.23809 2.42819,-1.21732 3.96395,-2.75309 1.00387,-1.00386 0.73756,-3.98 -0.78568,-4.23951 -1.64387,-0.28007 -6.73875,-0.77748 -7.65235,0.45309 -1.08384,1.4599 -0.32888,5.32699 -0.32888,7.17951 0,1.33797 -0.3884,5.35711 0.51308,6.07111 0.90776,0.71895 2.46322,0.32889 3.64692,0.32889 h 10.24 c 1.12224,0 3.71625,0.41801 4.28691,-0.74172 0.94947,-1.92959 0.19309,-5.73125 0.19309,-7.89828 v -19.84 c 0,-2.09859 -0.94442,-7.15925 0.32888,-8.76691 0.69028,-0.87154 3.05196,-0.51309 4.15112,-0.51309 3.93558,0 8.98668,-0.58704 12.78914,0.0474 1.55955,0.26022 1.23396,1.58834 1.34617,2.8326 0.24709,2.73992 0.28336,5.57088 0.26443,8.32 -0.008,1.19731 0.0644,2.40399 -1.29851,2.77828 -1.51047,0.41481 -4.07233,0.13178 -5.74098,0.10024 -0.6566,-0.0124 -1.46795,0.0483 -1.91137,-0.51161 -0.38133,-0.48144 -0.32031,-1.1557 -0.32717,-1.72714 -0.009,-0.71694 -0.11138,-1.49297 0.32717,-2.04668 0.64422,-0.8134 3.45082,-0.22403 3.95803,-1.25481 0.84184,-1.71086 0.20156,-3.64699 -1.7284,-3.73211 -1.72939,-0.0763 -5.53879,-0.71216 -6.84543,0.32272 -0.67316,0.53314 -0.51142,1.74978 -0.51308,2.55111 -0.005,2.64641 -10e-4,5.35365 0,8 3.9e-4,0.86473 -0.18682,2.31678 0.51308,2.87111 0.90776,0.71897 2.46322,0.32889 3.64692,0.32889 h 10.24 c 1.2224,0 3.4748,0.27176 4.15111,-0.74172 1.24482,-1.86547 0.3326,-6.22902 0.32889,-8.53828 -0.0124,-7.68882 -0.31704,-15.34788 -0.32,-23.04 -8.8e-4,-2.28804 1.34035,-7.70336 -0.009,-9.40691 -0.49518,-0.6252 -1.52569,-0.50798 -2.23111,-0.51285 -2.16471,-0.0149 -4.53532,0.003 -6.72,-2.4e-4 -2.53077,-0.004 -6.782,-1.37661 -8.85829,0.009 -0.87238,0.58213 -0.73964,1.86557 -0.74171,2.87111 -0.006,2.91279 -0.71762,7.11284 0.10171,9.8726 0.51594,1.73786 5.09102,1.00185 6.61829,1.01061 0.84191,0.005 1.92992,0.20042 2.36691,-0.71926 0.4998,-1.05193 0.46121,-2.81633 -0.32,-3.43506 -0.9926,-0.78616 -2.79975,0.21643 -3.63803,-0.84198 -0.52578,-0.66384 -0.43726,-1.75123 -0.28148,-2.66815 0.35291,-2.07728 4.39906,-1.30212 6.0326,-1.29876 1.01806,0.002 2.42255,-0.19075 2.77828,1.0074 0.7784,2.62188 0.42297,6.45298 0.42172,9.2326 -4.5e-4,1.00446 0.20109,2.29274 -0.51309,3.00691 -0.80803,0.80803 -2.49254,0.51309 -3.64691,0.51309 h -10.56 c -1.29782,0 -3.36289,0.22956 -3.92247,-1.0074 C 189.06994,151.5021 189.76,147.94783 189.76,145.6 v -19.52 c 0,-1.65037 0.84705,-7.98514 -0.74172,-8.76691 -1.09035,-0.53653 -2.85463,-0.19309 -4.05828,-0.19309 -3.21862,0 -6.39909,0.0389 -9.6,-0.26567 -1.02973,-0.098 -3.41834,-0.46645 -4.15112,0.45876 -1.11658,1.40978 -0.32888,5.73733 -0.32888,7.48691 0,1.48908 -0.61276,4.69801 0.32888,5.88691 0.62545,0.7897 2.27692,0.51303 3.19112,0.51309 2.35197,1.5e-4 6.06765,0.86694 6.06765,-2.24024 0,-3.33253 -2.89404,-1.50124 -4.13877,-3.07285 -0.59267,-0.74831 -0.53904,-2.22899 -0.22717,-3.27951 0.30717,-1.03461 1.23372,-0.98882 2.13854,-1.00592 1.54035,-0.0291 5.4575,-0.65847 6.39086,0.74025 1.28516,1.92592 0.59037,8.06076 0.6442,10.45827 0.0236,1.05267 0.23051,2.21082 -0.73703,2.68691 -0.84496,0.41579 -1.92533,0.19303 -2.77828,0.19309 -2.02491,1.3e-4 -4.6351,0 -6.72,0 -2.01024,0 -4.07547,0.0136 -6.08,-2.4e-4 -0.75596,-0.005 -1.73588,0.11245 -2.23112,-0.51285 C 166.05136,134.31148 166.4,132.36232 166.4,131.2 v -12.16 c 0,-5.89766 0.49144,-12.41096 -0.13112,-18.24 -0.14211,-1.330546 -0.40519,-6.199961 0.6442,-7.031113 C 168.735,92.325899 174.95572,93.44 177.28,93.44 c 1.88455,0 5.23021,-0.647382 6.93828,0.193086 1.01097,0.497461 0.74131,2.086485 0.74172,3.006914 0.001,2.335176 1.11066,8.54934 -0.32889,10.36691 -0.94387,1.19174 -5.21824,0.53982 -6.71086,0.51161 -2.07402,-0.0392 -3.38668,-2.4227 -1.91137,-4.28543 0.93785,-1.18414 2.97485,0.0707 3.86668,-1.02618 0.38719,-0.47619 0.30039,-1.16386 0.28938,-1.72691 -0.0607,-3.1025 -5.5708,-2.604101 -7.98617,-2.192597 -1.34766,0.22959 -1.29067,1.374258 -1.29852,2.512597 -0.0184,2.66248 -4.3e-4,5.33664 -2.5e-4,8 5e-5,0.98493 -0.29579,2.8164 0.74171,3.32691 1.92958,0.94948 5.73125,0.19309 7.89829,0.19309 2.2163,0 7.99703,1.04121 9.72691,-0.32889 1.18537,-0.93882 0.51309,-5.25291 0.51309,-6.71111 V 85.44 c 0,-2.55955 -0.005,-5.120605 0,-7.68 0.002,-0.944062 -0.15582,-2.195293 0.74171,-2.778281 1.0918,-0.70916 2.80627,-0.421719 4.05829,-0.421719 3.16638,0 6.4472,-0.245722 9.6,0.05432 1.03572,0.09857 3.16003,-0.04457 3.96691,0.59457 0.74967,0.593828 0.51269,2.016738 0.51309,2.871113 0.001,2.645098 0.85802,7.144043 -0.19309,9.552598 -1.10209,2.525371 -6.84826,1.002754 -8.76691,1.327402 -0.41911,-1.417793 -1.01602,-2.992871 0.009,-4.286914 1.58979,-2.007265 4.31946,0.76084 4.14494,-3.391601 -0.0199,-0.472403 -0.0116,-1.015567 -0.32271,-1.408399 C 202.78623,78.957852 200.43757,79.36 199.36,79.36 c -1.27114,0 -3.3751,-0.39873 -4.28692,0.513086 -1.26449,1.264492 -0.51308,5.963496 -0.51308,7.806914 0,1.307266 -0.30057,5.054043 0.74171,5.566914 1.15172,0.566719 2.71366,0.193086 4.05829,0.193086 h 9.6 c 1.2199,0 3.11699,0.336836 3.96691,-0.513086 0.53726,-0.537265 0.49824,-1.336757 0.5116,-2.046914 0.0369,-1.958828 0.001,-4.103046 0.001,-6.08 0,-8.031054 0.6691,-16.694218 -0.17952,-24.64 -0.22179,-2.076816 1.29702,-6.816328 -0.33357,-8.446914 C 211.63259,50.41877 207.19525,51.2 205.44,51.2 c -2.66942,0 -7.7667,-0.973886 -10.13829,0.193086 -0.99816,0.491153 -0.74128,2.077617 -0.74171,3.006914 -0.001,2.552129 -0.001,5.129395 0,7.68 3.9e-4,0.858692 -0.19504,2.02541 0.32888,2.686914 0.58551,0.739258 1.94299,0.512657 2.87112,0.513086 1.57882,7.23e-4 4.80935,0.564473 5.88691,-0.513086 0.53422,-0.534218 0.52404,-1.301015 0.50543,-2.045429 -0.0769,-3.07418 -2.60986,-1.210371 -4.27926,-2.566914 -0.74074,-0.601914 -0.67254,-2.267188 -0.41137,-3.147168 0.30704,-1.034414 1.23389,-0.988809 2.13854,-1.005918 1.45629,-0.02752 6.14762,-0.680391 6.84666,0.740234 1.1334,2.303359 0.19326,7.226973 0.19309,9.818281 -6e-5,0.9142 0.2766,2.565664 -0.51309,3.191114 C 206.44138,71.086075 200.87632,70.08 198.72,70.08 c -2.01024,0 -4.07547,0.01358 -6.08,-2.54e-4 -0.75883,-0.0052 -1.73225,0.111309 -2.23135,-0.512832 -0.49772,-0.622422 -0.45817,-1.849648 -0.55729,-2.686914 -0.37019,-3.126914 -0.0252,-6.750605 0.002,-9.92 0.0959,-11.29709 -0.0931,-22.617851 -0.0931,-33.92 v -9.92 c 0,-1.074629 -0.30979,-2.824121 0.51308,-3.646914 0.88762,-0.8875196 2.54531,-0.4144336 3.64692,-0.2844531 2.68277,0.3165429 5.32259,-0.2275977 8,-0.2286329 h 28.15999 c 2.81668,0 8.4987,-1.1438867 10.77829,0.3772852 0.86289,0.5758008 0.7397,1.8480858 0.74171,2.8227148 0.006,2.872617 0,5.765527 0,8.64 v 36.16 c 0,3.300235 0.007,6.621895 0,9.92 -0.003,1.274571 0.13991,2.703203 -1.29876,3.098282 -3.18086,0.873515 -9.24192,0.101718 -12.78124,0.101718 -1.17316,0 -3.33798,0.422676 -4.28691,-0.328886 C 222.49257,69.16461 222.72039,67.732481 222.72,66.88 c -0.001,-2.557695 -0.001,-5.122422 0,-7.68 4.2e-4,-0.928125 -0.22618,-2.285605 0.51308,-2.871113 1.1866,-0.939805 4.54762,-0.332305 6.20691,-0.328887 0.7618,0.0016 1.76346,-0.149062 2.36692,0.328887 0.74492,0.58998 0.69066,2.155 0.41137,3.172344 -0.76672,2.792715 -4.84905,-0.37961 -4.69186,3.857285 0.10527,2.83748 3.96291,1.922441 6.07357,1.921484 0.85247,-3.9e-4 2.28463,0.227422 2.87112,-0.513086 1.43775,-1.815312 0.33369,-8.03205 0.32888,-10.366914 -0.002,-0.948515 0.15608,-2.272011 -0.74171,-2.871113 C 235.03365,50.845156 233.18951,51.2 231.99999,51.2 c -3.50585,0 -7.07392,-0.194375 -10.55999,0.179512 -0.86163,0.0924 -2.02198,-0.25793 -2.77829,0.178027 -1.54134,0.888438 -0.74171,6.334903 -0.74171,7.962461 0,8.223321 0.21134,16.415762 0.21134,24.64 0,2.178067 -0.25076,4.545996 -0.20986,6.72 0.0175,0.932247 0.004,1.929649 1.00592,2.366914 3.04939,1.331387 9.55459,0.193086 13.07259,0.193086 1.2017,0 3.31788,0.438614 4.28692,-0.328886 0.78019,-0.61793 0.51303,-2.28166 0.51308,-3.191114 1.4e-4,-2.086347 1.10897,-9.090781 -0.74171,-10.218515 -0.99121,-0.604004 -2.04746,-0.09807 -3.09829,-0.210371 -2.08824,-0.223164 -5.32673,-0.800957 -5.43357,2.10914 -0.0251,0.684102 -0.105,1.506953 0.32246,2.04666 0.94793,1.196856 6.78498,0.290469 4.14223,4.251368 -1.32088,1.979707 -6.74172,0.503222 -8.63111,1.061718 -1.28297,-2.665957 -0.64,-6.299922 -0.64,-9.6 0,-1.098984 -0.38647,-3.063691 0.32888,-3.966914 0.75545,-0.953847 3.3551,-0.507949 4.47111,-0.51334 3.32372,-0.01604 6.59557,-0.04051 9.92,-9.76e-4 1.1028,0.0131 2.82852,-0.318067 3.64692,0.330117 0.62531,0.495254 0.50762,1.475117 0.51283,2.231113 0.0153,2.215215 2.5e-4,4.498438 2.5e-4,6.72 v 19.52 c 0,2.32045 -0.78892,5.90259 0.19309,7.89827 0.49932,1.01473 2.83781,0.74173 3.96691,0.74173 h 10.24 c 1.13799,0 3.09735,0.35648 3.96692,-0.51309 0.71963,-0.71963 0.51265,-2.06842 0.51308,-3.00691 0.001,-2.72379 0.63034,-6.69439 -0.13877,-9.26123 -0.6015,-2.007461 -4.53419,-1.302324 -6.26123,-1.29877 -0.80136,0.0017 -2.01794,-0.160097 -2.55111,0.513086 -0.66721,0.842422 -0.41824,3.480884 0.1842,3.958024 1.70541,1.35071 4.09123,-0.63074 3.96049,2.88741 -0.0175,0.47152 -0.0122,1.01666 -0.32246,1.40839 -0.92086,1.16268 -4.95094,0.52278 -6.39112,0.51285 -0.75595,-0.005 -1.73585,0.11245 -2.23111,-0.51285 -0.56641,-0.71515 -0.32883,-2.06066 -0.32889,-3.00691 -1.9e-4,-2.84455 -0.69892,-6.855761 0.10172,-9.552597 0.42852,-1.443379 2.85821,-1.007403 4.05828,-1.007403 h 10.56 c 1.13327,0 3.11284,-0.334687 3.83112,0.741719 1.23771,1.854805 -0.079,5.180098 0.0679,7.258281 0.5726,8.1027 -0.059,16.21503 -0.059,24.32 0,2.62131 1.31618,7.39816 -0.3242,9.44395 -0.65324,0.81467 -2.9991,0.47605 -4.1558,0.47605 -2.63533,0 -5.38084,-0.21768 -8,0.0914 -1.63023,0.19235 -3.89478,0.74585 -5.33828,0.0356 -0.95904,-0.4719 -0.74129,-2.04171 -0.74172,-3.00691 -0.001,-2.72654 -0.0185,-5.59912 2.6e-4,-8.32 0.007,-0.97577 -0.11209,-2.12599 1.00715,-2.45827 1.44,-0.42752 6.30148,-0.90505 7.53088,-0.0926 0.99931,0.6604 1.01005,2.72662 0.54863,3.78347 -0.58445,1.33863 -3.10047,0.5016 -4.08123,1.33629 -0.71522,0.60868 -0.32977,3.06794 0.1232,3.63802 0.4965,0.6249 1.47418,0.50763 2.23111,0.51285 1.67551,0.0115 5.08229,0.61177 6.20692,-0.51285 0.66002,-0.66001 0.51119,-1.77149 0.51308,-2.68691 0.005,-2.54935 0.001,-5.12924 0,-7.68 -4.5e-4,-0.97365 0.18317,-2.55182 -0.74171,-3.00691 -1.99571,-0.98202 -5.5778,-0.19309 -7.89829,-0.19309 -2.18433,0 -8.01966,-1.02327 -9.72691,0.32889 -1.19064,0.94301 -0.51309,4.97017 -0.51309,6.39111 v 19.52 c 0,2.77067 0.006,5.55024 0,8.32 -0.002,0.87315 0.18459,2.2311 -0.74171,2.68691 -1.1037,0.54309 -2.83268,0.19309 -4.05829,0.19309 h -9.28 c -1.17314,0 -3.33798,0.42268 -4.28691,-0.32889 -0.74051,-0.58649 -0.51269,-2.01863 -0.51308,-2.87111 -0.001,-2.47915 0.19935,-4.896 0.3074,-7.36 0.0372,-0.84788 -0.25994,-2.30128 0.34148,-2.97827 0.8157,-0.91818 4.50289,-0.18022 5.75111,-0.23433 0.73344,-0.0318 1.92102,-0.51939 2.68692,0.0341 1.15254,0.83288 0.72514,3.79611 -0.22863,4.26542 -1.29389,0.63668 -2.42625,-0.36424 -3.5452,0.52198 -0.56361,0.44638 -0.50346,1.25293 -0.51137,1.91135 -0.009,0.73264 -0.12007,1.73077 0.51137,2.23087 1.29885,1.02871 4.48275,0.34051 6.20691,0.32865 0.81629,-0.006 1.76622,0.0879 2.36692,-0.51285 0.64662,-0.64662 0.54433,-1.78536 0.48445,-2.68691 -0.17547,-2.64135 0.64457,-7.84379 -0.48445,-10.13827 -0.71668,-1.4565 -5.38764,-0.67044 -6.84692,-0.77037 -1.62023,-0.11096 -3.52902,-0.31671 -5.12,-0.28346 -0.77607,0.0162 -1.43773,0.0441 -2.23999,0.1205 -0.72536,0.069 -1.25549,0.1479 -1.92,0.1795 -0.72532,0.0345 -1.7211,-0.11877 -2.23112,0.52519 -0.85961,1.08533 -0.41486,3.43847 -0.41534,4.76691 L 217.9199,168 c 0.007,2.2163 -1.04122,7.99703 0.32888,9.72691 0.7249,0.91526 3.07346,0.51309 4.15112,0.51309 h 9.59999 c 1.22563,0 2.95459,0.35 4.05829,-0.19309 0.92634,-0.45582 0.73992,-1.81376 0.74171,-2.68691 0.005,-2.65994 0.001,-5.33943 0,-8 -4.4e-4,-0.97363 0.18317,-2.5518 -0.74171,-3.00691 -2.59487,-1.27685 -10.4975,-0.82886 -8.3452,3.54519 0.44649,0.90735 3.59826,0.47631 4.09383,1.48344 0.50369,1.02365 0.33781,3.18797 -0.32,3.81951 -0.95832,0.92006 -6.33182,0.72002 -7.7052,0.0457 -0.87757,-0.43089 -0.86814,-1.83597 -0.97035,-2.68691 -0.31252,-2.60203 -0.0968,-5.38203 -0.0914,-8 0.002,-1.09544 -0.16157,-2.49653 1.0074,-3.00691 3.06705,-1.3391 9.89021,-0.19309 13.39259,-0.19309 1.08563,0 3.52891,-0.27252 4.15112,0.51309 1.11074,1.40243 0.32888,5.01119 0.32888,6.84691 v 18.24 c 0,3.06717 -0.006,6.22178 0,9.28 0.002,1.07203 -0.23343,2.40988 1.00741,2.77828 3.0983,0.91983 9.568,0.10172 13.07259,0.10172 1.33795,0 2.9734,0.39504 4.05829,-0.32889 0.86716,-0.57865 0.7397,-1.89836 0.74171,-2.87111 0.005,-2.62914 0.15647,-5.37709 -0.0286,-8 -0.0573,-0.81236 -0.12998,-2.04043 -0.79976,-2.55111 -0.76409,-0.58256 -2.04834,-0.32883 -3.01161,-0.32889 -1.36509,-8e-5 -3.86662,-0.51088 -4.92691,0.32889 -0.74947,0.59359 -0.78512,2.78416 -0.32,3.72939 0.34701,0.70522 1.0548,0.70129 1.7284,0.73578 0.72465,0.0371 1.47297,-0.11857 2.04543,0.33483 0.62347,0.49381 0.56096,1.41289 0.49408,2.22963 -0.22508,2.74879 -4.15758,1.92248 -6.381,1.92148 -0.85248,-3.9e-4 -2.28462,0.22742 -2.87111,-0.51309 -1.04564,-1.32023 -0.14391,-4.33343 -0.0375,-5.88691 0.11338,-1.65566 -0.91414,-5.93449 0.0387,-7.16691 0.72694,-0.9402 3.08131,-0.51309 4.14988,-0.51309 h 9.6 c 1.27764,0 2.99194,-0.38269 4.05829,0.32889 1.04119,0.69478 0.74171,2.95416 0.74171,4.15111 0,4.05516 0.32,8.0909 0.32,12.16 0,6.1882 0.10565,12.38676 -0.2,18.56 -0.0902,1.82131 0.95254,4.67766 -0.12888,6.29828 -0.75098,1.12541 -2.96408,0.74172 -4.15112,0.74172 h -9.6 c -1.29959,0 -2.9182,0.36791 -4.05828,-0.19308 -1.18062,-0.58094 -0.74172,-4.5595 -0.74172,-5.88692 0,-1.73074 -1.04302,-6.24019 0.19309,-7.40543 1.10867,-1.0451 2.89799,-0.39832 4.28691,-0.3032 1.14588,0.0785 3.81682,-0.2844 4.47112,0.54172 0.74924,0.94597 0.54133,3.04832 -0.1842,3.77383 -1.53574,1.53574 -3.96395,-0.48497 -3.96395,2.75308 0,0.57938 -0.0538,1.24748 0.32592,1.72692 0.49527,0.62535 1.47512,0.50763 2.23111,0.51285 1.55233,0.0107 5.05541,0.63863 6.20692,-0.51285 1.60344,-1.60344 0.5141,-8.13577 0.51308,-10.36692 -4.3e-4,-0.92812 0.2262,-2.28559 -0.51308,-2.87111 -0.89906,-0.71207 -3.06033,-0.32889 -4.28692,-0.32889 -3.67412,0 -9.72105,-0.8933 -13.07259,0.10172 -1.24407,0.36936 -1.0069,1.99475 -1.00741,3.09828 -0.001,3.30539 0,6.6143 0,9.92 v 36.48 c 0,2.85582 -0.006,5.79246 0,8.64 0.002,0.89662 -0.18519,2.23082 0.74172,2.68692 2.40715,1.18445 7.92604,0.19308 10.77828,0.19308 h 27.84 c 2.98041,0 5.98168,0.006 8.96,0 1.03086,-0.002 1.98102,0.19281 2.68692,-0.51308 0.69652,-0.69653 0.51265,-2.07288 0.51308,-3.00692 0.001,-2.95248 -0.0337,-6.66037 0.001,-9.6 0.0434,-3.64937 -0.001,-7.5583 -0.001,-11.52 0,-7.9173 0.30737,-15.81666 0.32,-23.68 v -8.96 c 0,-1.10713 0.34258,-2.47914 -0.32888,-3.32691 -0.60793,-0.76758 -2.79174,-0.51309 -3.83112,-0.51309 -3.60953,0 -9.80568,-0.51404 -13.10123,0.0474 -1.94783,0.33186 -1.53488,5.04438 -1.60617,6.6726 -0.0582,1.32824 -0.0126,2.11815 -0.0126,3.52 0,1.03854 -0.26033,2.89856 0.51309,3.51111 1.29057,1.02213 4.78768,0.37864 6.52691,0.32395 0.89684,-0.0282 1.91606,-0.028 2.36692,-1.02814 0.48674,-1.07977 0.48347,-2.42364 -0.32,-3.14667 -0.55244,-0.49712 -1.30766,-0.51923 -2.04666,-0.55111 -0.71108,-0.0307 -1.43834,0.10543 -1.91137,-0.54051 -0.42494,-0.58023 -0.34971,-1.35384 -0.32246,-2.08714 0.0183,-0.49206 0.007,-1.0102 0.32246,-1.4084 0.63584,-0.80282 2.5157,-0.51309 3.51111,-0.51309 2.48176,0 3.70729,-0.28676 5.76,0.32 -0.52031,2.18555 -0.32,6.17891 -0.32,9.28 0,1.25824 0.35123,2.71906 -0.32888,3.73828 -0.63188,0.9469 -2.40489,0.78082 -3.51112,0.65035 -3.44172,-0.40586 -7.10345,-0.39765 -10.56,-0.0896 -0.9539,0.085 -3.17554,0.43219 -3.83111,-0.34445 -0.59457,-0.70437 -0.30277,-2.11168 -0.34148,-2.99457 -0.11045,-2.51863 -0.37739,-4.82922 -0.0788,-7.36 0.82941,-7.02953 -0.22864,-14.65701 -0.22864,-21.76 0,-2.04519 -0.98433,-7.89664 0.51309,-9.36246 1.04164,-1.01969 3.57139,-0.55754 4.92691,-0.55754 2.08412,0 4.6962,-0.0311 6.72,0.008 1.065,0.0205 1.76459,0.0357 2.88,0.008 1.66188,-0.041 2.42252,-0.20963 4.16,0.30394 -0.62402,2.47 0.0458,7.30305 -0.26568,10.56 -0.10066,1.05279 0.13148,2.57217 -0.79604,3.19111 -1.37384,0.91676 -3.9391,0.34047 -5.65828,0.32866 -0.86172,-0.006 -1.75146,0.10259 -2.36691,-0.51286 -0.66932,-0.66933 -0.81717,-2.48835 -0.32,-3.55777 0.38172,-0.82111 1.24291,-0.94289 2.04717,-1.01926 0.7075,-0.0672 1.47752,0.0921 2.04666,-0.35877 0.68654,-0.5438 0.57568,-1.62939 0.49431,-2.54494 -0.21625,-2.43304 -4.32775,-1.60711 -6.38123,-1.60617 -0.87347,3.9e-4 -2.29992,-0.2081 -2.87111,0.51309 -0.54111,0.6832 -0.3285,1.81957 -0.32889,2.68691 -10e-4,2.55084 -10e-4,5.13057 0,7.68 3.9e-4,0.86471 -0.18683,2.31676 0.51309,2.87111 1.01865,0.80678 2.96061,0.32889 4.28691,0.32889 h 9.6 c 1.25827,0 2.71909,0.35121 3.73828,-0.32889 0.75014,-0.50056 0.7253,-1.43726 0.74024,-2.23111 0.0388,-2.06105 0.001,-4.31971 0.001,-6.4 v -20.8 c 0,-1.75527 -0.78123,-6.1926 0.51309,-7.48691 1.33807,-1.33806 6.04021,-0.54175 7.80691,-0.33012 0.88621,0.10616 1.41368,0.0564 2.24,-0.006 0.9417,-0.0707 1.68709,-0.11355 2.56,-0.15334 1.34887,-0.0615 3.85977,-0.46813 5.01828,0.30494 0.8978,0.59909 0.73977,1.92255 0.74172,2.87111 0.005,2.55828 10e-4,5.12172 0,7.68 -3.9e-4,0.85246 0.22741,2.28465 -0.51308,2.87111 -1.28143,1.01491 -5.52209,0.45924 -7.16074,0.31014 -1.72325,-0.15684 -2.31774,-2.95449 -1.27729,-4.26816 0.82828,-1.04578 3.02979,-0.0256 3.82223,-1.02618 0.66755,-0.84285 0.55369,-3.29824 -0.41284,-3.77382 -1.56306,-0.76912 -5.54648,-0.43414 -7.23951,-0.14569 -1.39416,0.23752 -1.29037,1.33285 -1.29851,2.5126 -0.0181,2.63133 -4.3e-4,5.36182 -2.6e-4,8 6e-5,1.02574 -0.23881,2.84443 0.74172,3.32691 1.1517,0.56672 2.71363,0.19309 4.05828,0.19309 h 9.6 c 1.07762,0 3.42623,0.40215 4.15112,-0.51309 1.33496,-1.68552 0.32888,-7.25058 0.32888,-9.40691 V 145.6 c 0,-2.43726 0.82428,-6.79072 -0.19308,-8.85827 -0.50694,-1.03023 -3.1193,-0.68845 -4.28692,-0.79581 -3.41685,-0.31418 -6.80535,0.0541 -10.24,0.0541 -1.0972,0 -2.78918,-0.35045 -3.64691,0.32889 -0.76377,0.60491 -0.51303,2.25365 -0.51309,3.19111 -1.7e-4,2.76945 -0.5858,6.43768 0.10172,8.94124 0.27283,0.99353 0.92922,1.20099 1.81977,1.28 1.34627,0.11945 6.45967,0.71131 7.16543,-0.72297 0.42849,-0.8708 0.37396,-2.85975 -0.32,-3.40938 -0.57246,-0.4534 -1.32076,-0.29772 -2.04543,-0.33482 -0.71031,-0.0364 -1.36092,-0.0477 -1.78246,-0.7358 -2.40291,-3.9223 3.20599,-3.73843 5.62097,-3.73827 0.90262,6e-5 2.56551,-0.2768 3.19112,0.51309 1.40757,1.77719 0.3299,7.78319 0.32888,10.04691 -3.7e-4,0.83739 0.23989,2.27476 -0.51308,2.87111 -0.94076,0.7451 -3.15696,0.32889 -4.28692,0.32889 h -9.92 c -1.18365,0 -2.73916,0.39007 -3.64691,-0.32889 -0.62522,-0.49517 -0.50797,-1.52566 -0.51283,-2.23111 -0.0142,-2.06232 -2.6e-4,-4.31876 -2.6e-4,-6.4 v -19.84 c 0,-2.22767 0.73944,-6.00317 -0.19308,-7.89827 -0.43367,-0.88132 -1.54367,-0.73581 -2.36692,-0.74149 -2.16463,-0.0149 -4.53537,-2.4e-4 -6.72,-2.4e-4 -2.06433,0 -7.46843,-0.95298 -9.08691,0.32889 -0.80248,0.63557 -0.51303,2.2758 -0.51309,3.19111 -1.7e-4,2.7754 -0.98164,7.43092 0.19309,9.81827 0.45512,0.92491 2.03324,0.74129 3.00691,0.74173 2.2269,0.001 6.15926,0.79086 6.381,-1.92148 0.28779,-3.52035 -2.66064,-1.93443 -4.26791,-3.20741 -0.64246,-0.50883 -0.78502,-2.46432 -0.32,-3.40938 0.63516,-1.2908 5.31828,-0.75202 6.84691,-0.74149 0.82192,0.006 1.93496,-0.14018 2.36692,0.74149 0.95664,1.95266 0.19717,7.3799 0.19308,9.81827 -0.002,0.95364 0.1708,2.28708 -0.55754,3.00223 -0.84435,0.82907 -3.09623,0.19961 -4.24246,0.19777 -3.32142,-0.005 -6.59586,0.32 -9.92,0.32 -1.18365,0 -2.73916,0.39007 -3.64691,-0.32889 -0.71072,-0.5629 -0.48299,-1.99892 -0.54172,-2.87111 -0.21834,-3.24312 -0.0553,-6.36427 0.024,-9.6 0.18006,-7.35036 0.005,-14.72721 0.005,-22.08 0,-1.540273 -0.78564,-6.3225 0.51309,-7.351113 1.63408,-1.294219 7.03553,-0.328887 9.08691,-0.328887 1.95842,0 7.34432,-0.920195 8.76666,0.513086 1.00248,1.010196 0.19387,3.8975 0.19334,5.246914 -7.8e-4,2.01516 1.08469,5.86693 -0.0573,7.57828 -0.8192,1.22763 -7.4767,1.38933 -8.70963,0.41283 -0.69781,-0.55267 -0.64857,-3.52638 0.22863,-3.95802 1.38463,-0.68133 2.03365,0.3341 3.31656,-0.52198 0.78454,-0.52351 1.22881,-2.92775 0.41284,-3.958024 -0.49522,-0.625254 -1.52565,-0.507968 -2.23112,-0.512832 -1.71431,-0.01182 -4.16293,-0.221738 -5.74123,0.04715 -1.37211,0.233769 -1.29035,1.32791 -1.29851,2.512596 -0.0192,2.78951 -0.2426,5.86145 0.0911,8.64 0.11983,0.99759 0.0931,2.43911 1.23604,2.77827 3.57861,1.06196 9.27816,0.10173 13.07259,0.10173 1.18705,0 3.40014,0.38367 4.15112,-0.74173 1.13496,-1.70082 0.32888,-5.87932 0.32888,-7.89827 V 83.52 c 0,-1.978261 -0.87392,-6.608242 0.32889,-8.126914 0.69027,-0.871543 3.05197,-0.513086 4.15111,-0.513086 h 9.92 c 1.27864,0 2.64881,-0.343007 3.73828,0.193086 1.12325,0.552696 0.74172,4.240782 0.74172,5.566914 0,1.6017 0.76547,6.648946 -0.51308,7.671348 -1.08766,0.869746 -3.3111,0.499805 -4.60692,0.382734 -1.04949,-0.0948 -3.10759,0.346329 -3.83111,-0.567168 -0.60221,-0.760351 -0.49797,-3.097734 0.1842,-3.638027 1.17627,-0.931621 6.44662,-0.616738 3.63803,-4.300488 -1.06696,-1.399414 -4.79284,-0.83916 -6.39112,-0.828145 -0.70064,0.0048 -1.4914,-0.111347 -2.04691,0.328633 -0.6668,0.528106 -0.51141,1.73584 -0.51309,2.551113 -0.005,2.523067 -1.7e-4,5.149688 0,7.68 6e-5,0.931485 -0.21351,2.615625 0.51309,3.191114 1.01863,0.806777 2.9606,0.328886 4.28691,0.328886 h 9.28 c 1.22559,0 2.95459,0.35 4.05828,-0.193086 0.85725,-0.421816 0.73588,-1.558242 0.74147,-2.366914 0.0154,-2.228886 2.5e-4,-4.488222 2.5e-4,-6.72 V 59.2 c 0,-1.835019 0.86389,-7.304375 -1.29877,-7.898281 C 312.30675,50.336602 307.05458,51.2 303.35999,51.2 c -1.35123,0 -3.2508,-0.423476 -4.37828,0.328887 -0.82789,0.552441 -0.73539,1.669512 -0.74146,2.551113 -0.018,2.616543 -10e-4,5.378047 -2.6e-4,8 3.9e-4,0.864707 -0.18681,2.316778 0.51309,2.871114 1.29881,1.028671 4.48279,0.340527 6.20691,0.328632 0.75596,-0.0052 1.73588,0.112461 2.23112,-0.512832 0.52088,-0.657675 0.48922,-2.396855 0.22716,-3.279511 -0.5214,-1.756289 -2.75871,-0.459942 -3.86519,-1.336289 -0.71615,-0.567207 -0.6084,-2.012227 -0.46568,-2.852344 0.32841,-1.933145 4.62472,-1.302324 6.35259,-1.29877 0.7775,0.0016 2.00688,-0.174082 2.55112,0.513086 1.44146,1.82 0.32994,8.043379 0.32888,10.366914 -3.9e-4,0.852461 0.22742,2.284629 -0.51308,2.871114 -0.95129,0.753437 -3.14516,0.343007 -4.28692,0.193086 -3.2265,-0.423653 -6.38388,-0.01762 -9.6,0.123203 -1.1597,0.05078 -2.7584,0.382285 -3.64715,-0.316289 -0.67097,-0.527403 -0.74236,-2.288633 -0.80421,-3.191114 -0.23436,-3.418769 0.45377,-6.841738 0.26148,-10.24 -0.64652,-11.425801 0.0299,-23.059219 0.0299,-34.56 V 12.8 c 0,-1.025469 -0.30699,-2.524043 0.32889,-3.326914 C 294.92628,8.4157618 298.77943,8.96 300.15999,8.96 h 18.56 m -38.72,249.28 h 0.32"
       id="path1" />
  </g>
</svg>
