<?xml version="1.0" encoding="UTF-8" standalone="no"?>
<!-- Created with Inkscape (http://www.inkscape.org/) -->

<svg
   version="1.1"
   id="svg1"
   width="305.95328"
   height="138.52293"
   viewBox="0 0 305.95328 138.52293"
   xmlns="http://www.w3.org/2000/svg"
   xmlns:svg="http://www.w3.org/2000/svg">
  <defs
     id="defs1" />
  <g
     id="g1"
     transform="translate(-0.41850104,-79.240215)">
    <path
       style="fill:none;stroke:#3e3b37"
       d="m 1.2800001,216.60843 c 0,-33.61615 0.32,-67.19822 0.32,-100.79999 0,-8.65359 -0.32,-17.261166 -0.32,-25.920003 0,-2.111514 -1.00061624,-7.728281 0.3288888,-9.406914 1.0032487,-1.266699 5.5366753,-0.513086 7.0311114,-0.513086 H 29.440001 114.88 138.24001 c 1.57755,0 6.65696,-0.767383 7.67111,0.513086 1.05403,1.33082 0.32889,5.188545 0.32889,6.846914 v 19.200003 73.92 21.44 c 0,1.64835 0.80205,6.32095 -0.74173,7.35111 -1.19068,0.79453 -3.64557,0.32668 -5.01827,0.32888 -3.78911,0.006 -7.73578,-0.23049 -11.52,0.0286 -7.00534,0.47972 -14.07276,-0.0286 -21.12001,-0.0286 -10.890914,0 -21.741198,0.32 -32.639997,0.32 -14.84147,0 -29.686925,-0.32 -44.480002,-0.32 h -10.88 c -1.024757,0 -3.120866,0.38368 -3.831111,-0.51308 -0.963196,-1.21613 -0.328889,-4.68886 -0.328889,-6.20691 v -16.96 -65.6 -19.2 c 0,-1.404242 -0.674931,-5.450189 0.513087,-6.391117 1.229316,-0.973633 4.68932,-0.328887 6.206913,-0.328887 H 39.360002 105.6 124.16 c 1.62804,0 5.5279,-0.7158 6.84692,0.328887 1.13761,0.901006 0.507,4.439404 0.51333,5.751117 0.0262,5.44068 -0.009,10.86796 -2.4e-4,16.32 0.0309,19.2758 0.32,38.61648 0.32,57.91999 v 14.40001 c 0,1.37123 0.5251,4.20871 -0.51309,5.24691 -0.82346,0.82346 -2.57465,0.51309 -3.64691,0.51309 -3.41252,0 -6.82773,-0.0394 -10.24001,10e-4 -13.5252,0.16112 -27.089459,0.319 -40.639997,0.319 H 44.800002 37.120001 c -0.782868,-3.6e-4 -2.335864,0.27646 -2.823703,-0.49432 -0.849031,-1.34147 4.060876,-1.10568 4.743704,-1.10568 h 16.32 c 17.938985,0 35.82634,-0.32 53.759998,-0.32 h 14.4 c 1.53856,0 4.34375,0.54829 5.65828,-0.32889 1.29695,-0.86546 0.74173,-4.04892 0.74173,-5.43111 v -16.00001 -55.67999 -14.08 c 0,-1.32746 0.54744,-4.171762 -0.32741,-5.240746 -1.49872,-1.831318 -1.59259,2.722324 -1.59259,3.320742 v 14.400004 c 0,18.65483 0.82759,37.38963 0.0126,55.99999 -0.2181,4.9805 0.30741,10.03767 0.30741,15.04001 0,1.4274 0.56386,4.48996 -0.51309,5.56691 -1.07695,1.07696 -4.13952,0.51309 -5.56692,0.51309 h -15.36 c -16.328483,0 -32.628181,0.32 -48.959998,0.32 h -13.44 c -1.707051,-6.7e-4 -4.759649,0.24414 -6.298272,-0.51309 -1.223867,-0.60232 -0.741729,-3.17611 -0.741729,-4.28691 v -12.48001 -42.55999 -10.88 c 0,-1.14155 -0.417863,-3.34397 0.32889,-4.28692 1.155705,-1.45933 6.870359,-0.83308 8.631111,-0.83308 8.438154,0 17.190503,-0.24047 25.600001,0.2916 7.204844,0.45585 14.816309,-0.2916 22.080001,-0.2916 0.912236,0 6.701206,0.48328 6.425186,-0.90569 -0.20688,-1.04103 -2.479083,-0.69427 -3.225186,-0.69431 h -10.880001 -37.760001 -9.28 c -0.896963,5e-5 -2.552061,-0.29378 -3.191111,0.51308 -0.745115,0.94078 -0.32889,3.15696 -0.32889,4.28692 v 11.2 c 0,14.41077 -0.32,28.80897 -0.32,43.19999 v 12.80001 c 0,2.11068 0.235782,4.07437 -1.28,5.44 -1.391179,-4.70653 -0.32,-12.75231 -0.32,-17.92001 v -41.91999 -13.76 c 0,-1.33184 -0.533586,-4.15795 0.32889,-5.24692 0.741645,-0.93639 3.086098,-0.51308 4.151111,-0.51308 h 12.48 H 93.760004 104.96 c 1.13997,0 3.33401,-0.41285 4.28816,0.32888 1.44268,1.12151 0.83184,5.11161 0.83184,6.71112 v 19.52 24.95999 c 0,2.27562 0.96135,7.26662 -0.32888,9.14123 -0.60553,0.8798 -1.91858,0.7735 -2.87112,0.77853 -2.7701,0.0146 -5.54907,2.4e-4 -8.319996,2.4e-4 H 69.760003 c -2.23187,0 -8.65648,1.09695 -10.34815,-0.32271 -1.125127,-0.94422 1.183794,-1.26589 1.708394,-1.2758 2.869096,-0.0543 5.768467,0.0642 8.639756,-0.006 9.373198,-0.22965 18.763516,-0.31531 28.160001,-0.31531 2.120776,0 8.190366,1.02347 9.726916,-0.51309 0.71993,-0.71992 0.51266,-2.07058 0.51308,-3.00691 v -8.32 -32.96 -9.28 c -5e-5,-0.8768 0.31839,-2.59279 -0.50691,-3.17235 -1.31074,-0.92044 -1.40827,1.54894 -1.41284,2.21235 -0.0228,3.30353 -2.5e-4,6.61568 -2.5e-4,9.92 v 31.36 8 c 0,0.95091 0.28747,2.55563 -0.32888,3.36394 -1.36643,1.79203 -8.169983,0.79606 -10.231116,0.79606 H 68.800003 c -2.088775,0 -7.798414,0.98388 -9.400738,-0.32741 -1.027056,-0.84051 0.371607,-1.50875 1.086909,-1.57382 2.115572,-0.19248 4.561006,-0.0188 6.713829,-0.0188 h 26.880001 c 2.041455,0 8.551676,1.04111 9.939516,-0.51309 1.50182,-1.68188 0.64152,-7.29076 0.39184,-9.40691 -0.793,-6.72097 0.22864,-13.73362 0.22864,-20.48 0,-5.85817 -0.37915,-11.73007 -0.31877,-17.6 0.0133,-1.29531 0.12178,-2.0314 0.0615,-3.2 -0.035,-0.67759 0.13849,-2.06356 -0.55703,-2.5037 -1.43994,-0.91125 -1.10569,3.81939 -1.10569,4.4237 v 16 22.08 c 0,2.14846 0.8768,6.73145 -0.32888,8.53827 -1.04228,1.56193 -6.2593,0.74173 -7.991116,0.74173 H 74.240003 c -1.749605,0 -6.07711,0.78769 -7.486914,-0.32889 -1.298726,-1.02861 -0.513086,-5.81082 -0.513086,-7.35111 v -9.6 c 0,-1.01005 -0.336294,-2.80705 0.328891,-3.64692 0.781646,-0.9869 4.265308,-0.66111 5.412344,-0.46568 1.659273,0.28271 1.298682,2.19181 1.298765,3.4726 1.46e-4,2.29169 -1.10626,8.55489 0.328892,10.36691 0.841352,1.06229 3.899521,0.51309 5.111108,0.51309 4.545303,0 11.308995,0.86189 15.632598,-0.42173 1.732247,-0.51429 1.007403,-4.57151 1.007403,-5.97827 0,-5.56107 0.32,-11.07485 0.32,-16.64 0,-1.25334 0.616513,-4.62343 -0.506914,-5.41235 -1.743692,-1.22449 -1.413086,4.57663 -1.413086,5.41235 v 15.04 c 0,1.4274 0.563867,4.48995 -0.513086,5.56691 -1.502686,1.50269 -7.338272,0.51309 -9.406915,0.51309 -1.676621,0 -7.207915,0.8798 -8.311108,-0.51309 -0.620645,-0.78363 -0.328892,-2.3956 -0.328892,-3.32691 0,-2.59274 0.943008,-7.50944 -0.193086,-9.81828 -0.678027,-1.37792 -7.859678,-1.08527 -9.359507,-0.64 -1.580528,0.46924 -0.980791,3.42039 -1.0121,4.69828 -0.110005,4.4902 0.110108,8.94572 0,13.44 -0.01637,0.66808 -0.153198,5.5461 -1.420986,4.7437 -1.007378,-0.63759 -0.494322,-3.71764 -0.494322,-4.7437 v -14.72 c 0,-1.30771 -0.594873,-4.54258 1.007408,-5.01828 2.713208,-0.80551 6.707212,-0.10172 9.552593,-0.10172 0.945415,0 2.547119,-0.28872 3.326914,0.32889 0.69186,0.54796 0.51147,1.76444 0.513086,2.55111 0.0053,2.55925 -1.61e-4,5.12063 0,7.68 7.3e-5,1.11638 -0.3473,3.01607 1.007407,3.41827 2.834009,0.84138 7.19942,0.10307 10.192594,0.10173 1.014091,-4.6e-4 2.546699,0.22397 3.191113,-0.74173 0.641035,-0.96064 0.328887,-2.62719 0.328887,-3.73827 v -8.96 -8.32 c -3.71e-4,-0.81851 0.263369,-2.31142 -0.506914,-2.85235 -1.740704,-1.22239 -1.413086,4.02258 -1.413086,4.77235 v 13.76 c 0,1.82641 0.468955,4.24913 -1.921485,4.46123 -1.655703,0.14691 -7.576157,0.83579 -8.629624,-0.49432 -2.486358,-3.13928 1.839463,-10.2208 -0.657783,-13.37383 -0.727354,-0.91836 -3.088067,-0.51308 -4.151109,-0.51308 -3.763819,0 -9.170474,-0.96176 -12.752593,0.10172 -1.602276,0.4757 -1.007408,3.71056 -1.007408,5.01828 v 16 c 0,0.73218 0.400943,6.44632 -1.413086,5.3837 -1.143579,-0.6699 -0.506987,-4.85603 -0.506914,-6.0237 3.52e-4,-5.53908 0.451621,-11.07595 0.315308,-16.64 -0.03677,-1.50075 -1.127593,-4.77243 0.6921,-5.56692 1.307256,-0.57076 3.343852,-0.19308 4.752593,-0.19308 h 11.2 c 1.161992,0 4.005816,-0.47843 4.791109,0.51308 1.406948,1.77641 0.328891,7.78701 0.328891,10.04692 0,0.95803 -0.324277,2.8479 0.513086,3.5111 0.844766,0.66907 2.620635,0.33572 3.646914,0.32865 0.876241,-0.006 1.99919,0.083 2.551114,-0.74148 0.679961,-1.01571 0.614531,-3.16738 0.644199,-4.37827 0.08614,-3.51562 0.0047,-7.04327 0.0047,-10.56 0,-1.28171 0.591933,-4.91067 -0.741729,-5.56692 -1.926631,-0.94803 -5.749121,-0.19308 -7.898272,-0.19308 H 60.480002 c -1.678159,0 -7.219746,-0.86487 -8.311108,0.51308 -1.04626,1.32101 -0.328892,5.20699 -0.328892,6.84692 v 18.56 20.15999 c 0,0.87948 0.476211,6.27927 -1.197036,5.64939 -1.368262,-0.51508 -0.722964,-4.75614 -0.722964,-5.96939 0,-6.30948 0.32,-12.58441 0.32,-18.87999 0,-6.95027 -0.32,-13.86246 -0.32,-20.8 0,-1.76146 -0.789209,-6.0752 0.328892,-7.48692 1.139834,-1.43915 7.183032,-0.51308 8.951108,-0.51308 h 26.240001 c 2.59752,0 5.426973,0.20933 7.998516,-0.0188 0.619161,-0.0549 2.393838,-0.6859 1.389629,-1.57384 -1.523945,-1.34751 -7.362637,-0.3274 -9.388145,-0.3274 h -26.560001 -7.36 c -0.84166,3.8e-4 -2.278052,-0.23571 -2.871108,0.51308 -1.260279,1.59123 -0.328892,6.76392 -0.328892,8.76692 v 24 17.27999 c 0,0.73191 0.208511,6.19151 -1.413086,4.87951 -1.195728,-0.96743 -0.506914,-4.73171 -0.506914,-6.15951 0,-5.99029 0.32,-11.94225 0.32,-17.91999 0,-7.912 -0.32,-15.77203 -0.32,-23.68 0,-2.12391 -0.918443,-7.05998 0.328891,-8.81309 0.608477,-0.8552 1.959429,-0.65816 2.871109,-0.60593 2.561724,0.14678 5.113565,0.13902 7.68,0.13902 9.597344,0 19.180519,-0.32 28.800001,-0.32 2.445499,0 4.915518,0.10144 7.358516,-0.006 0.544502,-0.024 2.414307,-0.41119 1.389629,-1.27112 -1.650254,-1.3849 -7.865771,-0.32271 -10.028145,-0.32271 h -28.480001 -8.32 c -0.841665,3.8e-4 -2.278042,-0.23571 -2.871109,0.51308 -1.2956,1.63582 -0.328891,7.02376 -0.328891,9.08692 v 25.6 19.52 c 0,1.3964 -0.643804,5.47483 0.513086,6.39111 0.952461,0.75435 3.127334,0.32889 4.286914,0.32889 h 10.88 c 14.3963,0 28.786427,-0.32 43.199998,-0.32 h 12.48 c 1.23766,0 3.68692,0.43346 4.47112,-0.74173 1.4902,-2.2332 0.32888,-8.41653 0.32888,-11.09827 v -29.75995 -28.15999 c 0,-1.73648 0.97048,-8.21486 -0.50691,-9.25235 -1.61396,-1.13339 -1.41309,2.81167 -1.41309,3.49235 v 13.12 44.79999 11.2 c 0,1.13553 0.35724,3.09659 -0.51308,3.96692 -1.40021,1.40021 -6.53535,0.51309 -8.44692,0.51309 H 85.440003 c -7.759092,0 -15.633008,-0.19434 -23.360001,0.2116 -1.506811,0.0792 -7.141538,0.92762 -7.943701,-0.61457 -0.849966,-1.63409 5.735171,-1.19703 6.663701,-1.19703 H 83.840003 108.48 c 1.91157,0 7.04672,0.88712 8.44692,-0.51309 0.82347,-0.82347 0.51308,-2.57464 0.51308,-3.64692 0,-3.53361 -0.40944,-7.02274 -0.28,-10.56 0.5374,-14.68574 -0.04,-29.4378 -0.04,-44.15999 v -12.48 c 0,-1.07757 0.42598,-3.40736 -0.51308,-4.15112 -1.03006,-0.81583 -3.65625,-0.32888 -4.92692,-0.32888 H 98.560004 47.040002 c -5.077608,0 -10.317427,-0.36633 -15.360001,0.22864 -1.201177,0.14173 -3.971003,-0.43103 -4.791111,0.60444 -0.862475,1.08897 -0.328889,3.91508 -0.328889,5.24692 v 14.08 54.4 16.32 c 0,0.59369 -0.06559,5.9951 -1.592593,4.26814 -0.85604,-0.96813 -0.327407,-3.67507 -0.327407,-4.90814 v -14.08 c 0,-18.65362 0.32,-37.32491 0.32,-56 0,-5.35142 -0.32,-10.65114 -0.32,-16 0,-1.26299 -0.573438,-4.57057 0.513086,-5.43112 1.08897,-0.86248 3.915066,-0.32888 5.246914,-0.32888 H 44.480002 99.520004 116.16 c 0.5937,0 5.99511,-0.0656 4.26815,-1.5926 -1.0107,-0.89369 -3.93608,-0.3274 -5.22815,-0.3274 H 101.12 44.800002 28.800001 c -1.336072,0 -4.560803,-0.58331 -5.538272,0.51308 -0.72216,0.81003 -0.222121,2.94695 -0.221728,3.96692 v 10.56 41.91999 32.96001 c 0,2.66629 -0.0012,5.33382 0,8 3.78e-4,0.84167 -0.229793,2.28274 0.513086,2.87111 1.239375,0.9816 4.670708,0.32889 6.206914,0.32889 H 46.720002 112.96 131.84001 c 1.56364,0 5.70016,0.63085 6.84691,-0.51309 1.19763,-1.19471 0.51309,-4.95053 0.51309,-6.52691 v -18.88001 c 0,-21.88213 -0.32,-43.73301 -0.32,-65.59999 V 94.048436 c 0,-1.505722 0.64314,-4.979628 -0.32889,-6.206913 -0.95143,-1.20127 -4.98926,-0.513086 -6.39111,-0.513086 H 113.6 36.800001 h -21.12 c -1.496481,0 -6.0389172,-0.739658 -7.0311121,0.513086 -1.1538129,1.456806 -0.3288886,5.984902 -0.3288886,7.806913 v 21.760004 c 0,23.54688 0.32,47.1468 0.32,70.72 v 19.83999 c 0,2.2273 -0.7886938,6.22304 0.193086,8.21828 0.7503595,1.52493 6.2646377,0.74172 7.8069147,0.74172 8.015964,0 15.981758,0.32 24.000001,0.32 H 125.12 146.24001 c 1.32719,0 2.86459,0.0436 4.16,-0.0207 0.81694,-0.0405 1.98311,0.005 2.68691,-0.6074 1.5448,-1.34388 0.51309,-6.22351 0.51309,-8.33186 v -24.00003 c 0,-25.52724 -0.32,-50.93354 -0.32,-76.48 V 87.968437 c 0,-1.878037 -0.77361,-5.984238 0.32888,-7.551357 0.83259,-1.183457 4.12644,-0.448643 5.43112,-0.448643 h 16.32 c 22.42775,0 44.80189,0.32 67.2,0.32 13.54379,0 27.12373,0.314814 40.64,0.32 3.42748,0.0013 6.82871,-0.318906 10.24,-0.32 1.22141,-3.91e-4 3.01547,-0.302402 3.96692,0.59457 0.80679,0.760615 0.51308,2.527295 0.51308,3.56543 v 10.559999 42.560004 c 0,17.21135 0.72242,35.01345 0.63975,52.16 -0.007,1.47815 -0.25863,2.37498 -0.30592,3.84 -0.0799,2.47431 0.24859,3.88689 0.30148,6.08 0.0414,1.71477 0.0133,3.93166 0.004,5.76 -0.006,1.20278 0.0848,2.48929 -0.62,3.41827 -1.29867,1.71172 -5.23065,0.74172 -7.37975,0.74172 h -21.44 -74.56 -19.2 c -1.65838,0 -5.5161,0.72515 -6.84692,-0.32888 -1.1251,-0.8911 -0.51308,-4.72066 -0.51308,-6.07111 v -18.56 c 0,-22.62049 -0.32,-45.20865 -0.32,-67.84 v -16.32 c 0,-1.31058 -0.60801,-4.863197 0.51308,-5.751117 1.36645,-1.082246 5.46616,-0.328887 7.16692,-0.328887 h 19.84 62.08 17.92 c 2.11693,0 5.42697,-0.541298 7.3126,0.281973 1.17367,0.512432 1.00512,1.80499 1.0074,2.918027 0.006,3.092704 0,6.187134 0,9.280004 v 39.03999 c 0,12.06765 0.32,24.08784 0.32,36.16001 v 8.96 c -6e-5,1.0062 0.26053,2.55331 -0.51308,3.32691 -1.07696,1.07696 -4.13952,0.51309 -5.56692,0.51309 -5.33312,0 -10.66693,-0.0255 -16,2.4e-4 -18.63684,0.0899 -37.32074,0.31976 -56,0.31976 h -14.08 c -1.30526,0 -4.18641,0.55151 -5.22815,-0.32272 -1.51183,-1.26875 3.12723,-1.27728 3.62815,-1.27728 h 14.4 c 18.64336,0 37.33137,-0.32 56,-0.32 h 15.36 c 1.42738,0 4.48996,0.56386 5.56692,-0.51309 0.77359,-0.77359 0.51302,-2.32072 0.51308,-3.32691 v -8.96 c 0,-10.96163 -0.32283,-22.03316 -0.32,-32.96001 2.7e-4,-1.03466 0.0316,-1.91308 0.0444,-2.88 0.0129,-0.96634 -0.0409,-1.84605 -0.0442,-2.87999 -0.0356,-11.06151 -2.6e-4,-22.21053 -2.6e-4,-33.28 0,-2.98574 10e-4,-5.97457 0,-8.960004 -4.1e-4,-0.912881 0.29772,-2.322392 -0.49433,-2.823701 -0.94067,-0.595361 -1.09215,1.227168 -1.10418,1.863945 -0.0521,2.75616 -10e-4,5.55923 -10e-4,8.31976 v 33.92 c 0,12.49705 0.32,24.94221 0.32,37.44 v 9.28 c -6e-5,1.00619 0.26051,2.55332 -0.51308,3.32691 -1.50272,1.5027 -7.33825,0.51309 -9.40692,0.51309 h -27.52 -37.76 -10.56 c -1.0894,6e-5 -3.09153,0.45911 -4.05828,-0.0632 -1.17215,-0.63329 -0.74172,-3.00489 -0.74172,-4.09678 0,-4.21734 -0.40125,-8.61932 -0.0531,-12.80001 0.40807,-4.90007 -0.20181,-9.82916 -0.26346,-14.72 -0.11691,-9.27679 -0.003,-18.56239 -0.003,-27.83999 v -10.88 c 0,-1.1415 -0.41789,-3.34404 0.32888,-4.28692 0.63471,-0.80137 2.28957,-0.51303 3.19112,-0.51308 h 8.96 36.8 9.92 c 1.68951,0 3.28576,0.30541 4.16,-1.28 -4.05285,-1.19797 -10.60272,-0.32 -15.04,-0.32 h -34.24 -11.2 c -1.14153,0 -3.34403,-0.4179 -4.28692,0.32888 -0.89437,0.70837 -0.51308,2.81856 -0.51308,3.83112 v 10.88 c 0,15.05875 0.32,30.06964 0.32,45.11999 v 12.79999 c 0,0.68535 0.21287,4.63417 -1.41309,3.49234 -1.42279,-0.99914 -0.50691,-7.56799 -0.50691,-9.25234 v -28.48001 c 0,-9.91763 0.1167,-19.84315 -0.001,-29.75999 -0.0299,-2.50888 -1.63377,-8.61135 0.0101,-10.68692 0.75692,-0.95567 3.35805,-0.51308 4.47112,-0.51308 h 12.48 43.2 10.88 c 1.14385,0 3.35342,-0.41046 4.28691,0.32888 1.19215,0.9442 0.51309,4.97296 0.51309,6.39112 0,6.51235 0.32,13.03078 0.32,19.52 v 24.95999 c 0,2.34897 0.98393,7.53092 -0.32889,9.49828 -0.59994,0.89907 -1.92336,0.73977 -2.87111,0.74172 -2.77279,0.006 -5.54707,0 -8.32,0 h -28.8 c -2.17586,0 -8.37555,1.06416 -10.02815,-0.32271 -1.12511,-0.94421 1.18379,-1.26589 1.7084,-1.2758 2.86803,-0.0542 5.76867,-0.001 8.63975,-0.001 9.35156,0 18.79244,-0.32 28.16,-0.32 2.12076,0 8.19035,1.02348 9.72691,-0.51309 0.71995,-0.71993 0.51266,-2.07056 0.51309,-3.00691 v -8 c -0.0176,-10.95847 -0.32,-21.9746 -0.32,-32.96 v -9.28 c -6e-5,-0.8768 0.3184,-2.59277 -0.50691,-3.17234 -1.75559,-1.23286 -1.41309,4.31903 -1.41309,5.09234 0,6.21578 0.32,12.40426 0.32,18.56 v 22.08 c 0,2.13753 0.86609,6.7203 -0.32889,8.53951 -1.40506,2.139 -7.99988,1.06049 -10.23111,1.06049 h -26.88 c -2.09979,0 -7.7724,1.00517 -9.40074,-0.3274 -1.18207,-0.96737 0.69361,-1.55518 1.40222,-1.58643 2.63504,-0.11622 5.35526,-0.006 7.99852,-0.006 h 25.92 c 2.01643,0 7.6182,0.95562 9.08691,-0.51309 0.7736,-0.77359 0.51303,-2.32072 0.51309,-3.32691 v -8.32 c 0,-10.10963 -0.32,-20.26497 -0.32,-30.4 0,-2.28779 1.12965,-8.93751 -0.32271,-10.66814 -1.16795,-1.39172 -1.27221,2.46073 -1.27852,2.98814 -0.0483,4.03741 -0.65061,8.10256 -0.26445,12.16 0.84228,8.85041 0.26568,17.984 0.26568,26.88 0,1.85685 0.90908,7.84953 -0.74172,8.95111 -1.31455,0.87719 -4.11973,0.32889 -5.65828,0.32889 h -14.4 -10.88 c -1.065,0 -3.0769,0.37602 -3.96692,-0.32889 -0.98101,-0.77699 -0.50023,-3.33904 -0.64888,-4.47111 -0.50828,-3.87105 -0.1842,-7.93795 -0.1842,-11.84 0,-1.15957 -0.42547,-3.33446 0.32889,-4.28691 0.79802,-1.0076 4.49863,-0.67588 5.73234,-0.46568 1.63951,0.27933 1.29869,2.17427 1.29877,3.47259 1.6e-4,2.30277 -1.09545,8.56856 0.32889,10.36691 0.83509,1.05441 3.88296,0.51309 5.11111,0.51309 4.53207,0 11.02764,1.08285 15.34123,-0.10173 1.90797,-0.52395 1.29877,-3.78675 1.29877,-5.33827 0,-3.40643 0.0388,-7.1931 -10e-4,-10.56 -0.0245,-2.05906 -0.31861,-3.12643 -0.31877,-5.44 -8e-5,-1.26865 0,-2.01589 0,-3.2 0,-0.95363 0.42195,-3.20376 -0.49434,-3.7837 -1.33636,-0.84581 -1.10566,4.93069 -1.10566,5.7037 v 15.68 c 0,1.49601 0.60307,4.496 -1.29877,5.01827 -3.72193,1.0221 -8.91727,0.10173 -12.78123,0.10173 -1.06096,0 -3.40238,0.43226 -4.15111,-0.51309 -1.4,-1.76764 -0.32873,-7.81521 -0.32889,-10.04691 -8e-5,-1.07087 0.31162,-2.77175 -0.74172,-3.43704 -1.31484,-0.83045 -4.71914,-0.41909 -6.29828,-0.37259 -0.96576,0.0284 -2.56039,-0.13147 -3.19111,0.75655 -0.76745,1.08049 -0.32889,3.38168 -0.32889,4.65308 v 11.84 c 0,0.73689 0.39252,7.05199 -1.4084,5.73234 -0.75219,-0.55119 -0.23729,-2.08808 -0.2042,-2.85234 0.11074,-2.55846 -0.3074,-5.1128 -0.3074,-7.68 v -9.28 c 0,-1.16858 -0.33539,-2.98425 0.19308,-4.05827 0.49747,-1.01099 2.08649,-0.74131 3.00692,-0.74173 2.77187,-0.001 7.98562,-1.02361 10.45828,0.19309 1.05348,0.51838 0.74166,2.34611 0.74172,3.32691 1.4e-4,2.21191 -1.10119,8.75264 0.51309,10.36691 0.77628,0.77629 2.33466,0.51303 3.32691,0.51309 2.87682,1.8e-4 6.83457,0.65254 9.58123,-0.10173 1.86074,-0.51098 1.29877,-3.50637 1.29877,-5.01827 v -14.71995 c 0,-1.17652 0.57146,-4.33506 -0.50691,-5.09235 -1.74069,-1.22239 -1.41309,4.02258 -1.41309,4.77235 0,4.41206 0.0533,10.12601 0.003,14.07999 -0.0181,1.43393 0.48371,3.77227 -1.60963,4.1126 -1.61604,0.26273 -7.91651,0.83282 -8.94494,-0.46568 -2.48635,-3.13927 1.83947,-10.22081 -0.65778,-13.37383 -0.72736,-0.91836 -3.08806,-0.51308 -4.15111,-0.51308 -3.67205,0 -8.93727,-0.93599 -12.4326,0.10172 -1.60228,0.4757 -1.0074,3.71057 -1.0074,5.01827 v 16 c 0,0.78129 0.35435,6.41905 -1.41309,5.38371 -1.16615,-0.68312 -0.50691,-4.81468 -0.50691,-6.02371 v -16.32 c 0,-1.30778 -0.62039,-4.85338 0.51308,-5.75111 0.94079,-0.74512 3.15698,-0.32888 4.28692,-0.32888 h 11.84 c 1.28353,0 3.95877,-0.50562 4.79111,0.74172 2.89071,4.33198 -3.72121,13.99096 4.16889,13.97827 0.91518,-0.001 1.99639,0.14448 2.77828,-0.37728 1.15172,-0.76854 0.74172,-3.17613 0.74172,-4.42272 v -12.47999 c 0,-1.07758 0.426,-3.40736 -0.51309,-4.15112 -1.48701,-1.17774 -6.24492,-0.32888 -8.12691,-0.32888 h -19.2 c -2.13143,0 -5.98033,-0.75068 -7.89828,0.19308 -1.00276,0.49342 -0.74131,2.08311 -0.74172,3.00692 v 8.64 30.07999 c 0,2.50245 1.12607,8.59326 -1.28,9.92001 -1.18,-3.99199 -0.32,-9.2789 -0.32,-13.44001 v -27.51999 -9.28 c 6e-5,-0.97497 -0.33098,-2.75071 0.74172,-3.27853 0.92478,-0.45505 2.4649,-0.24142 3.41828,-0.24147 0.98793,-6e-5 1.72621,0 2.88,0 1.06988,0 1.77053,0 2.88,0 7.62937,0 16.2767,0 24,0 2.70982,0 9.79684,1.26459 11.2,-1.28 -3.17117,-0.93736 -7.74453,-0.32 -11.2,-0.32 h -24.32 -8.32 c -0.84168,3.8e-4 -2.27805,-0.23572 -2.87112,0.51308 -0.57744,0.72908 -0.32882,2.13475 -0.32888,3.00692 v 8 c 0,10.35537 0.0622,20.70831 0.31531,31.03999 0.0772,3.15353 0.2326,6.47211 -0.17951,9.60001 -0.0813,0.61715 0.0575,3.12358 -1.04149,2.90518 -1.30861,-0.26005 -0.69431,-5.37702 -0.69431,-6.42519 v -21.44 c 0,-7.05071 -0.18199,-14.09136 -0.27555,-21.11999 -0.0234,-1.75586 -0.84601,-6.05961 0.28443,-7.48692 0.59635,-0.75295 2.03375,-0.5127 2.87112,-0.51308 h 7.68 29.12 c 2.2882,0 4.77271,0.18221 7.03852,-0.0188 0.61918,-0.0549 2.3938,-0.68591 1.38962,-1.57384 -1.6,-1.41478 -7.89218,-0.3274 -10.02814,-0.3274 -9.22295,0 -19.00471,1.32056 -28.16,0.18321 -2.84815,-0.35382 -5.77207,-0.1845 -8.64,-0.18321 -0.8374,3.8e-4 -2.27477,-0.23986 -2.87112,0.51308 -1.25884,1.58944 -0.32888,6.77571 -0.32888,8.76692 v 24.31999 20.8 c 0,1.39034 -0.72387,5.80576 0.74172,6.52692 1.2882,0.63388 3.60884,0.19309 5.01828,0.19309 h 11.52 41.28 13.12 c 1.41453,0 3.36049,0.37749 4.28568,-0.74173 0.89694,-1.08503 0.1944,-4.01138 0.19432,-5.33827 -6e-5,-1.00851 0,-1.87567 0,-2.88001 0,-2.34513 0,-4.98526 0,-7.36 0,-14.94032 -0.32,-29.88209 -0.32,-44.79999 v -13.12 c 0,-1.10396 0.4585,-3.7744 -0.50691,-4.45235 -1.70963,-1.20058 -1.41309,2.69504 -1.41309,3.49235 0,4.36834 0,8.68107 0,13.12 0,14.79781 0.32,29.65514 0.32,44.47999 0,3.74573 0.31856,7.47221 0.32,11.2 4.3e-4,1.1353 0.35699,3.09684 -0.51309,3.96692 -0.82345,0.82346 -2.57462,0.51309 -3.64691,0.51309 h -9.28 -37.44 -10.88 c -0.84557,0 -2.92776,0.35251 -3.46371,-0.49432 -0.87395,-1.38086 5.55644,-1.10568 6.34371,-1.10568 h 22.08 25.6 c 2.03939,0 7.27107,0.90677 8.76691,-0.55753 0.86834,-0.85003 0.51309,-2.78252 0.51309,-3.92248 v -10.88 c 0,-14.5047 -0.32,-28.99891 -0.32,-43.51999 v -12.16 c 0,-1.07758 0.42598,-3.40736 -0.51309,-4.15112 -1.03005,-0.81582 -3.65625,-0.32888 -4.92691,-0.32888 h -13.12 -51.52 -15.04 c -1.21481,0 -4.27869,-0.53792 -5.11112,0.51308 -0.93691,1.18296 -0.32888,4.43089 -0.32888,5.88692 v 15.36 c 0,18.15575 0.32,36.26763 0.32,54.4 v 15.04 c 0,0.61982 -0.57369,5.66281 -1.72715,3.41209 -0.75553,-1.47422 -0.19285,-4.31779 -0.19285,-5.97209 v -14.72 c 0,-17.93018 -0.32,-35.85004 -0.32,-53.76 v -16.64 c 0,-1.33702 -0.65809,-4.84381 1.0074,-5.33827 2.03121,-0.60304 4.87877,-0.10173 6.9926,-0.10173 h 15.04 49.6 17.28 c 2.03281,0 4.99326,0.69076 6.08,-1.28 -2.33482,-0.69015 -5.14678,-0.32 -7.68,-0.32 h -14.4 c -17.2875,0 -34.60932,-0.32 -51.84,-0.32 h -16.96 c -1.50575,0 -4.97963,-0.64315 -6.20692,0.32888 -1.13349,0.89775 -0.51308,4.44332 -0.51308,5.75112 v 16.64 57.6 14.72 c 0,1.39511 -0.56131,4.44294 0.32888,5.56691 0.94422,1.19219 4.97293,0.51309 6.39112,0.51309 h 18.88 c 22.40976,0 44.81078,-0.32 67.2,-0.32 h 16.96 c 1.48287,0 4.77205,0.60177 5.88692,-0.51309 1.18869,-1.1887 0.51308,-4.93482 0.51308,-6.52691 v -18.56001 c 0,-15.40627 0.0464,-31.01114 -0.6274,-46.39999 -0.19963,-4.55911 -0.0126,-9.19953 -0.0126,-13.76 0,-1.26102 -0.0419,-2.39075 0.0914,-3.52 0.10973,-0.9299 0.21576,-1.58147 0.2274,-2.56 0.036,-3.03052 -0.0996,-5.21743 -0.29014,-8 -0.18173,-2.653734 0.096,-5.663578 -0.016,-8.320004 -0.0551,-1.30497 0.51963,-4.799667 -0.34149,-5.886913 -1.0757,-1.358174 -5.70554,-0.513086 -7.35111,-0.513086 h -21.44 c -24.96156,0 -49.90953,-0.32 -74.88,-0.32 h -18.88 c -1.53571,0 -5.67251,-0.756094 -6.84692,0.266172 -1.30601,1.136816 -0.51308,5.797187 -0.51308,7.413827 0,7.144984 -0.0838,14.295574 0.001,21.440004 0.29156,24.50745 0.31877,49.06607 0.31877,73.6 v 19.19999 c 0.002,1.43768 -0.45328,6.12226 0.33357,7.16692 0.7743,1.028 3.65121,0.51265 4.78643,0.51308 4.57412,0.002 9.1647,0.32 13.76,0.32 h 41.6 c 3.8318,0 7.69096,0.0182 11.52,-2.4e-4 2.68174,-0.0129 2.73998,-0.31871 5.44,-0.31976 4.10418,-0.002 10.98045,0 15.36,0 h 35.52 12.16 c 1.2109,0 3.38496,0.33441 4.15112,-0.77876 1.11166,-1.61516 0.32888,-5.59395 0.32888,-7.54124 0,-6.63899 -0.32,-13.19456 -0.32,-19.83999 0,-25.49861 -0.32,-50.9692 -0.32,-76.48 V 88.288437 c 0,-2.152969 -1.09492,-6.866016 0.96,-8"
       id="path1" />
  </g>
</svg>
