<?xml version="1.0" encoding="UTF-8" standalone="no"?>
<!-- Created with Inkscape (http://www.inkscape.org/) -->

<svg
   version="1.1"
   id="svg1"
   width="244.61209"
   height="76.835701"
   viewBox="0 0 244.61209 76.835701"
   xmlns="http://www.w3.org/2000/svg"
   xmlns:svg="http://www.w3.org/2000/svg">
  <defs
     id="defs1" />
  <g
     id="g1"
     transform="translate(-2.56,-49.248346)">
    <path
       style="fill:none;stroke:#2e2922"
       d="m 2.56,106.53791 h 13.76 c 1.94202,0 4.336995,-0.61132 5.978271,0.19309 0.939996,0.4607 0.425935,1.40779 1.254322,2.03654 0.58843,0.44663 1.536845,0.23286 1.854321,-0.41135 0.547043,-1.11004 0.598733,-3.62061 -0.548643,-4.18519 -2.335017,-1.14897 -8.25496,1.43184 -6.938271,-3.07308 2.581653,0.47045 5.003699,0.31449 7.68,0.32 0.909719,0.002 2.233237,-0.18027 2.686914,0.74172 1.028877,2.09095 0.191951,6.65439 0.193086,9.17827 4.37e-4,0.96833 -0.213281,2.83144 1.001235,3.07951 1.385728,0.28304 1.534397,-0.90917 1.557283,-2.11975 0.06666,-3.52613 0.879902,-9.45092 -0.100247,-12.752347 -0.40049,-1.34897 -1.8107,-1.006831 -3.098271,-1.007407 -3.93354,-0.0018 -7.90318,0 -11.84,0 -0.830189,0 -5.74498,-0.302637 -3.326666,-2.231114 0.945559,-0.754033 3.140064,-0.328886 4.286666,-0.328886 H 28.8 c 1.161936,0 4.010532,-0.472476 4.791111,0.513086 0.715464,0.903349 0.328889,2.867607 0.328889,3.966918 v 10.55999 c 0,2.48781 -0.754595,5.79686 0.193086,7.95235 0.320254,0.72842 1.169656,1.13292 1.854075,0.4884 C 37.059285,118.43019 36.48,115.10887 36.48,113.57791 V 99.177916 c 0,-1.382325 0.569387,-4.432749 -0.328889,-5.566914 -0.924864,-1.167735 -4.716065,-0.513086 -6.071111,-0.513086 -4.403513,0 -9.072358,0 -13.44,0 -1.330503,0 -2.156851,0 -3.52,0 -1.591987,0 -3.8794678,0.347622 -5.3925928,-0.101729 C 6.8418762,92.733214 6.4235797,91.51254 7.2333331,90.866803 8.5088788,89.849625 12.177783,90.537916 13.76,90.537916 H 32 c 2.022109,0 5.930701,-1.064492 6.848149,0.741728 0.653694,1.286953 0.505059,3.021338 0.511604,4.378272 0.0085,1.76688 0.03754,4.366274 -0.0044,6.080004 -0.02317,0.94568 -0.206387,1.58727 -0.232344,2.56 -0.03917,1.46771 0.237036,3.56867 0.237036,5.43999 0,4.26266 -0.0088,8.5387 0,12.8 0.003,1.44441 0.714556,3.67265 2.047158,2.36543 1.2058,-1.18286 0.512797,-6.27415 0.512797,-8.12543 V 95.657916 c 0,-1.742158 0.755127,-6.118233 -0.328892,-7.486914 C 40.483535,86.772579 34.985547,87.657916 33.28,87.657916 H 11.84 c -1.564965,0 -6.0827973,0.529746 -7.1669135,-0.328892 C 3.3067871,86.246895 4.16,83.139352 4.16,81.257916 4.16,77.9636 4.196041,74.256476 4.15877,71.017916 4.1350577,68.958117 3.8401483,67.88569 3.84,65.577917 c -2.518e-4,-3.917173 0,-6.828784 0,-10.560001 0,-1.145473 -0.5242148,-4.008867 0.7414813,-4.605429 C 7.6511627,48.965646 6.72,56.102711 6.72,57.577917 v 20.479999 c 0,1.53669 -0.4430182,5.920532 0.7417285,6.711108 1.5314105,1.021905 4.7481505,0.328892 6.6182715,0.328892 h 17.6 c 1.913762,0 5.861799,0.71167 7.166667,-0.328892 0.867862,-0.692075 0.351578,-1.878247 -0.494074,-2.129379 C 35.683494,81.847003 31.179932,82.537916 28.16,82.537916 h -12.8 c -1.532397,0 -3.75818,0.510161 -5.018272,-0.328892 -1.3570112,-0.903588 -1.1415828,-4.486747 -1.0330861,-6.071108 0.057063,-0.833281 0.2302009,-1.433134 0.2501233,-2.24 0.022175,-0.89811 -0.1897082,-1.677773 -0.2501233,-2.56 C 9.1611767,69.184513 9.28,65.815563 9.28,63.657917 c 0,-1.22273 0,-1.967574 0,-3.2 0,-1.261626 -0.4721112,-3.59796 0.3288885,-4.606915 C 11.855959,53.020543 12.16,58.861139 12.16,59.817917 v 14.079999 c 0,1.335484 -0.522975,4.171348 0.328889,5.246914 0.804838,1.016187 3.609132,0.513086 4.791111,0.513086 h 11.2 c 1.334346,0 3.55355,0.438721 4.698025,-0.328891 2.566489,-1.721372 -1.830261,-2.23105 -2.778025,-2.231109 -3.839898,-2.44e-4 -7.680078,0 -11.52,0 -1.303346,0 -3.084861,0.376592 -3.831111,-0.741728 C 14.451719,75.461276 14.72,73.682902 14.72,72.617916 c 0,-2.918364 -0.006,-6.033642 0,-8.959999 0.0018,-0.887598 -0.222129,-2.252974 0.740247,-2.680738 0.782887,-0.347983 1.552758,0.142857 1.853826,0.808145 1.284747,2.838979 -0.229842,7.828344 0.333334,11.133828 0.181476,1.065146 0.82344,1.246255 1.874075,1.292592 1.777558,0.0784 6.326177,0.508775 7.950864,-0.231357 1.638474,-0.746411 0.412227,-2.186035 -0.913828,-2.303706 -1.801836,-0.159888 -4.632012,0.721567 -5.885432,-0.531851 -0.618971,-0.618969 -0.512592,-1.568061 -0.512592,-2.366914 0,-0.770288 -0.131566,-1.726059 0.512592,-2.230864 0.470342,-0.368593 1.392546,-0.356284 1.854075,0 0.580715,0.448291 0.444531,1.44853 1.025678,1.901973 1.300369,1.014619 4.911521,0.328891 6.527161,0.328891 h 28.48 c 1.738061,0 3.758442,0.73191 4.792593,-0.512841 0.522734,-0.629185 1.059135,-2.999468 2.694321,-1.718023 0.578125,0.453062 0.499917,1.216753 0.511606,1.911109 0.01461,0.867348 0.152286,2.022778 -0.511606,2.686669 -1.213198,1.213199 -4.619019,0.387901 -6.200742,0.531851 -0.933438,0.08495 -2.263706,0.833521 -1.091602,2.028394 0.778936,0.794067 1.711792,0.510839 2.68543,0.512841 1.440112,0.003 6.347436,0.754156 7.351108,-0.513086 C 69.411753,72.921202 69.12,71.309235 69.12,70.377916 c 0,-2.594292 -0.215112,-5.423823 0.01876,-7.993828 0.132139,-1.452045 1.776075,-2.045693 2.532344,-1.093085 C 72.97875,62.938131 72,68.440656 72,70.697916 c 0,1.683799 0.6302,3.506973 -0.193086,5.392593 -0.626026,1.433828 -2.09814,1.00731 -3.646914,1.007407 -4.149151,2.64e-4 -8.334326,-0.0085 -12.48,0 -1.366543,0.0028 -3.770303,0.614995 -2.36543,2.047158 0.85416,0.870752 2.560943,0.512842 3.96543,0.512842 0.969067,0 1.600356,0 2.56,0 2.686504,0 6.482539,0 9.28,0 1.257324,0 3.8879,0.494024 4.926914,-0.328891 C 75.07186,78.517252 74.56,75.700309 74.56,74.537916 V 60.137917 c 0,-1.328814 -0.273281,-6.539908 2.366914,-4.470865 1.199614,0.940103 0.513086,4.503282 0.513086,6.070865 0,2.264653 0,4.804663 0,7.039999 0,1.135821 0,1.808233 0,2.88 0,1.431905 0,3.316851 0,4.8 0,1.382168 0.380405,4.275332 -0.328892,5.338272 -1.055449,1.581679 -4.128579,0.741728 -6.071108,0.741728 H 53.12 c -1.32231,0 -3.284653,-0.153154 -4.461235,0.04741 -1.3648,0.232647 -1.791626,1.663672 -0.291358,2.319507 1.392163,0.608579 4.619605,0.193086 6.352593,0.193086 5.893364,0 11.255981,0 17.28,0 1.748388,0 6.213799,0.581616 7.578271,-0.328892 C 81.356054,83.582716 80.32,79.900607 80.32,77.737916 80.32,70.807077 80,65.096286 80,58.217917 c 0,-2.055694 -0.291841,-4.710093 0.04741,-6.701236 0.164722,-0.966787 0.824971,-1.442519 1.82667,-1.190864 1.903667,0.478257 1.005923,6.612475 1.005923,8.2121 v 21.759999 c 0,1.667593 0.561123,6.070908 -0.513086,7.122471 -1.307393,1.279824 -4.881719,0.630991 -6.846914,0.544936 -1.081841,-0.04737 -1.752988,-0.245464 -2.88,-0.294814 -5.968418,-0.261353 -13.121572,-0.01259 -19.2,-0.01259 -1.898228,0 -7.037124,-0.896846 -8.446914,0.513086 -1.295816,1.295947 -0.211104,3.836294 -0.194321,5.246914 0.05889,4.949746 0.0012,10.659541 0.0012,15.680001 v 12.16 c 0,0.9976 -0.438784,3.49359 0.740249,3.94815 1.338271,0.51594 1.765664,-0.9288 1.813579,-2.0284 0.161299,-3.70166 0.0062,-7.49013 0.0062,-11.19975 V 95.657916 c 0,-1.898447 -0.796563,-4.715596 1.298765,-5.072593 1.614438,-0.275063 4.863354,-0.04741 6.701235,-0.04741 6.059316,0 12.752451,0 18.24,0 1.315762,0 5.567851,-0.604253 6.384936,0.512842 0.707422,0.967168 -0.353169,1.850503 -1.271108,1.999751 -2.495391,0.405727 -5.453994,0.04741 -7.993828,0.04741 H 56 c -1.272056,0 -4.338853,-0.390308 -5.246914,0.328887 C 49.505669,94.414781 50.24,96.817759 50.24,98.537916 v 15.359994 c 0,1.80978 -0.81728,4.72455 0.512842,5.74963 C 52.51352,121.00445 52.8,116.58084 52.8,115.17791 v -13.43999 c 0,-1.27545 -0.331055,-3.95309 0.193086,-5.018276 0.732388,-1.488398 2.948799,-0.741728 4.606914,-0.741728 h 12.48 c 1.515757,0 3.302305,-0.586631 4.149629,0.512842 1.174165,1.523564 -1.83189,2.04707 -3.189629,2.047158 H 60.48 c -1.080322,0 -3.146113,-0.255752 -4.058272,0.193086 -0.993818,0.489023 -0.739316,1.513608 -0.741728,2.686918 -0.0063,3.08281 0,6.19463 0,9.27999 0,1.27343 -0.342666,2.48454 0.328891,3.32667 0.633042,0.79383 1.981158,0.40328 2.183702,-0.78543 0.446948,-2.6231 0.04724,-5.64024 0.04741,-8.30123 6.3e-5,-1.03278 -0.243906,-2.59157 0.513086,-3.19112 1.279526,-1.0134 6.479497,-0.40941 8.445434,-0.32271 0.929512,0.041 2.070249,0.23427 1.800982,1.55259 -0.260606,1.27589 -1.781797,0.99922 -2.759502,1.00124 -1.3196,0.003 -4.031094,-0.44652 -4.791109,0.51308 -0.549238,0.69347 -0.36373,1.74582 -0.322719,2.68543 0.185825,4.25738 2.162539,0.10988 3.295556,-0.44543 2.336119,-1.14497 7.222544,-0.19309 9.818272,-0.19309 h 23.68 c 1.586025,0 4.609867,-0.57528 5.978527,0.32889 0.97027,0.641 0.55944,1.6877 1.48147,2.20346 0.49569,0.27728 0.93994,0.17422 1.30717,-0.1716 0.82895,-0.78065 0.98126,-4.13218 -0.2289,-4.72766 -1.7958,-0.88365 -4.76956,0.47477 -6.516539,-0.38617 -0.951299,-0.46882 -0.768408,-1.79515 0,-2.17383 0.574169,-0.28296 1.142049,-0.18818 1.818269,-0.19284 1.64137,-0.0113 6.8425,-0.9374 7.99111,0.51284 1.52714,1.92817 0.22914,8.25565 0.33506,10.68667 0.0459,1.0527 0.5578,2.56901 1.82617,1.89259 1.19284,-0.63614 1.01449,-1.77972 1.04297,-2.85235 0.0382,-1.43991 0.005,-3.64746 0.005,-5.12 0,-1.68139 0.6667,-6.48627 -0.83309,-7.671108 -0.94257,-0.744638 -3.15561,-0.328886 -4.28691,-0.328886 H 96.96 c -1.131592,-5.08e-4 -4.741094,-0.592813 -2.68667,-2.231114 1.159463,-0.924609 3.748086,-0.328886 5.24667,-0.328886 3.94248,0 6.82586,0 10.56,0 1.20872,0 4.27001,-0.548897 5.11111,0.513086 0.74512,0.940781 0.32889,3.156962 0.32889,4.286918 v 11.51999 c 0,1.98186 -0.26603,4.46688 0.0474,6.39383 0.15369,0.94491 1.01176,2.01734 1.99977,1.08692 0.8787,-0.82749 0.47204,-2.74157 0.52543,-3.96075 0.11521,-2.63097 0.40822,-5.52378 0.27086,-8.32 -0.0466,-0.94813 -0.27146,-1.49118 -0.21655,-2.55999 0.076,-1.47843 0.27157,-2.12831 0.25186,-3.84 -0.0156,-1.353989 -0.2452,-2.127646 -0.30617,-3.520004 -0.0469,-1.070352 0.43622,-3.389268 -0.52569,-4.151113 -1.22728,-0.972032 -4.70118,-0.328887 -6.20691,-0.328887 H 94.4 c -0.92251,0 -8.63333,0.214389 -5.56667,-2.231113 0.721474,-0.575337 2.11168,-0.328829 3.00667,-0.328887 1.476992,-9.8e-5 2.18706,0 3.84,0 6.18239,0 12.37654,0 18.56,0 1.40185,0 5.43969,-0.688193 6.39111,0.513086 1.08072,1.364511 0.32889,5.478017 0.32889,7.166914 v 19.839994 c 0,1.88472 -0.25072,4.24084 0.0474,6.07383 0.16905,1.03932 0.97463,1.90957 2.09112,1.22272 0.78344,-0.48198 0.72496,-1.38015 0.74,-2.17679 0.0347,-1.83666 10e-4,-3.9008 10e-4,-5.75976 V 95.657916 c 0,-1.756411 0.0313,-3.704268 -10e-4,-5.439756 -0.0126,-0.665059 0.0488,-1.4675 -0.51161,-1.911352 -0.54318,-0.43021 -1.37963,-0.324048 -2.04691,-0.328648 -2.04043,-0.01407 -4.33486,-2.44e-4 -6.4,-2.44e-4 H 94.4 c -1.855362,0 -3.928184,0.04397 -5.76,-0.0047 -0.778985,-0.0207 -1.495098,7.27e-4 -2.138272,-0.417037 -0.73874,-0.479838 -0.724961,-1.329736 -0.740244,-2.138515 -0.03841,-2.032822 -0.0015,-4.340342 -0.0015,-6.399756 0,-3.288789 -0.08203,-5.58331 -0.291358,-8.64 C 85.222012,66.776442 85.44,62.52154 85.44,58.857917 c 0,-1.762857 -1.08e-4,-3.696256 0,-5.440001 5.8e-5,-0.888159 -0.241055,-1.909404 0.193086,-2.762221 1.164599,-2.287744 2.66373,0.334399 2.685429,1.482466 0.147969,7.827505 0.0015,16.421674 0.0015,24.319755 0,1.97166 -0.03522,4.12856 0.0015,6.08 0.01304,0.693008 -0.02615,1.50916 0.511602,2.046914 0.813789,0.813789 2.155175,0.513013 3.326914,0.513086 0.969336,6.3e-5 1.600332,0 2.56,0 2.954668,0 7.161419,0 10.239999,0 h 11.52 c 1.0471,0 3.41941,0.434658 4.14963,-0.512842 2.00918,-2.607046 -4.69899,-2.047158 -5.42963,-2.047158 -2.17518,0 -2.76834,0 -4.8,0 -4.30536,0 -8.79744,0 -13.119999,0 -1.321367,0 -5.219405,0.61481 -5.886914,-0.741728 -1.37003,-2.784248 -0.178223,-8.925737 -0.19333,-12.058272 -0.0064,-1.326347 -0.150852,-1.995708 -0.265461,-3.199999 -0.126807,-1.332491 -0.05433,-3.096314 -0.05433,-4.48 0,-1.496685 -0.600684,-5.518038 0.513086,-6.390865 C 93.364121,54.122409 93.76,58.171188 93.76,59.817917 v 13.119999 c 0,1.54604 -0.185635,4.053447 0.0474,5.421236 0.307344,1.803881 2.081572,1.298764 3.792598,1.298764 H 110.08 c 1.26491,0 4.29227,0.547739 5.10963,-0.512842 0.4929,-0.639575 0.2018,-1.551894 -0.41136,-1.854072 -0.98154,-0.483721 -1.87637,-0.193086 -3.09827,-0.193086 -3.51827,0 -7.04129,0 -10.56,0 -1.09932,0 -3.063567,0.386577 -3.966916,-0.328891 C 96.275312,76.07381 96.640322,73.955392 96.64,72.937916 c -8.99e-4,-2.815185 -0.319815,-5.355957 -0.32,-8.319999 -6.9e-5,-1.003536 -0.388994,-3.112598 0.741484,-3.64543 1.710127,-0.80604 2.11417,0.836528 2.137031,2.045674 0.04866,2.574028 -0.04569,6.385483 0.003,8.959511 0.01935,1.023154 -0.01611,1.835088 1.005915,2.138516 1.78862,0.531015 6.9801,0.559814 8.8652,0 1.36176,-0.404404 0.99449,-2.061211 0,-2.356543 -2.18545,-0.649014 -4.72056,0.9625 -6.47951,-0.43062 -1.03872,-0.822676 -1.0957,-3.936514 -2.6e-4,-4.780737 1.34706,-1.038135 2.05636,1.50601 2.56,1.992099 1.35133,1.304224 3.87438,0.557529 5.88717,0.557529 h 23.04 c 2.69109,0 7.11184,0.248399 9.59852,-0.03481 2.13973,-0.243701 1.2656,-2.750366 3.20148,-2.750366 1.81279,0 1.82638,4.518266 0.53827,5.152094 -1.66994,0.821719 -5.84633,-0.708081 -6.9279,0.706172 -0.54226,0.709068 -0.14643,1.814165 0.67703,2.173828 1.69835,0.741787 7.33851,0.646187 8.8652,-0.04444 1.93807,-0.876733 1.00639,-8.09602 1.0074,-10.32247 5.2e-4,-1.149629 -0.18023,-3.412115 1.5874,-3.079502 1.24742,0.234726 1.27071,1.355044 1.29112,2.439502 0.0552,2.936782 10e-4,6.302597 10e-4,9.279999 0,1.148394 0.1825,2.515244 -0.10173,3.472593 -0.43141,1.453135 -2.25027,1.007407 -3.73827,1.007407 H 139.2 c -1.3682,0 -4.02525,-0.638501 -4.35951,1.001236 -0.15035,0.737568 0.22512,1.259335 0.88691,1.548393 1.08183,0.47251 1.8334,0.328252 3.1526,0.330371 3.89307,0.0063 7.6466,0 11.52,0 1.37734,0 3.57374,0.229873 4.78124,-0.101728 1.85895,-0.510498 1.29876,-2.588814 1.29876,-4.378272 V 61.737917 c 0,-1.310606 -0.45508,-7.919063 2.36717,-5.74963 0.81861,0.629263 0.51277,2.277481 0.51283,3.18963 v 8.959999 c 0,3.625342 0.002,7.255103 0,10.88 -6.1e-4,1.336611 0.31065,2.488853 -0.74173,3.191108 -1.19993,0.800708 -4.78016,0.328892 -6.29827,0.328892 h -16.96 c -1.22415,0 -8.28533,-0.296899 -5.56667,2.28543 0.56828,0.53978 1.35199,0.54646 2.04667,0.581728 1.54066,0.07822 3.53045,0.01284 5.12,0.01284 h 17.92 c 2.1182,0 5.12358,0.816221 6.52691,-0.557529 0.93702,-0.917256 0.51309,-4.15291 0.51309,-5.522471 0,-5.281601 0,-11.093408 0,-16.319999 0,-3.488448 -0.15494,-7.22504 0.006,-10.878521 0.0563,-1.276914 1.0677,-2.605654 2.36074,-1.592344 0.88631,0.694431 0.51326,2.376062 0.51326,3.510866 v 11.520001 16.959999 c 0,1.870103 0.79574,4.459639 -1.00741,5.246914 -1.74573,0.762202 -5.65399,0.193086 -7.63259,0.193086 -3.86896,0 -8.35515,0 -12.16,0 -1.12254,0 -1.80287,0 -2.88,0 -1.54002,0 -3.53108,0 -5.12,0 -2.38306,0 -6.68286,-0.465249 -8.5926,0.101728 -1.80654,0.536343 -1.0074,6.335064 -1.0074,8.218272 v 21.119994 c 0,1.8089 -0.61593,6.18627 0.32889,7.57704 0.60138,0.88524 1.73098,0.67157 2.22222,-0.0361 1.07155,-1.54352 0.32889,-4.62117 0.32889,-6.58099 V 98.217916 c 0,-2.031387 -0.78427,-5.78669 0.32889,-7.165679 0.79041,-0.979165 2.65845,-0.198183 3.83111,-0.199014 4.42891,-0.0031 8.95434,0.0047 13.44,0.0047 3.7332,0 7.46684,0 11.2,0 1.07512,0 2.85693,-0.373091 3.50494,0.512842 1.89136,2.585781 -5.50117,2.047158 -6.38494,2.047158 -5.39313,0 -11.47542,0 -16.96,0 -1.9743,0 -4.52029,-0.753501 -5.88691,0.328887 -0.96512,0.764394 -0.51309,4.454531 -0.51309,5.751113 v 15.039997 c 0,1.43375 -0.46223,4.29604 0.51309,5.24543 0.95843,0.93298 2.22482,-0.017 2.34815,-1.40691 0.19492,-2.19688 0.0188,-4.26501 0.0188,-6.39852 0,-1.62579 0,-4.21152 0,-5.76 0,-1.62235 0,-2.32763 0,-4.16 0,-1.75399 -0.61399,-4.376428 0.32889,-5.566911 0.69113,-0.872622 2.96467,-0.513086 4.15111,-0.513086 H 152 c 1.26894,0 4.73732,-0.42043 4.35951,1.587407 -0.34469,1.831797 -2.40901,1.292593 -4.03951,1.292593 -3.83986,0 -7.68019,-2.44e-4 -11.52,0 -1.37393,8.8e-5 -2.74097,-0.449073 -3.32691,0.741728 -0.39612,0.804989 -0.19309,2.471999 -0.19309,3.418269 v 8.64 c 0.002,1.18624 -0.19192,2.83229 1.2926,2.98815 1.72849,0.18148 1.58685,-2.09838 1.5874,-3.30815 0.001,-2.3506 -0.0157,-5.04022 2.4e-4,-7.36 0.007,-1.05445 -0.14792,-2.11534 1.00716,-2.45827 1.98498,-0.58932 5.84778,-0.2696 7.95112,-0.083 0.84607,0.0751 1.96014,0.49078 1.68099,1.54 -0.71247,2.67795 -6.31459,-0.40906 -7.75062,1.74296 -0.87265,1.30774 -0.48061,4.74781 1.25851,4.5121 1.37395,-0.18621 1.22828,-2.16737 2.59136,-2.41925 3.09368,-0.5717 7.2207,0.0454 10.54124,0.0454 h 22.08 c 2.04746,0 4.78217,-0.78298 6.20715,0.32888 0.5425,0.42329 1.44496,3.14158 2.87976,1.71779 0.58032,-0.57587 0.52327,-1.37419 0.51137,-2.36643 -0.008,-0.69031 0.0547,-1.46303 -0.51137,-1.91136 -1.54976,-1.22743 -4.0841,0.14733 -6.18814,-0.43061 -1.21955,-0.33499 -1.6934,-1.93939 -0.29137,-2.35654 1.90865,-0.5679 5.32156,-0.13789 7.31235,-0.10025 1.02314,0.0193 1.83511,-0.0161 2.13853,1.00592 0.69447,2.33918 0.0842,6.98186 0.10197,9.5526 0.007,1.05046 0.16364,3.09838 1.8195,2.36074 1.078,-0.48023 0.74019,-2.38424 0.74025,-3.32074 v -8.64 c 0,-0.9313 0.29174,-2.54331 -0.32889,-3.326916 -0.71566,-0.903594 -2.82334,-0.513086 -3.83111,-0.513086 -3.58063,0 -6.53078,0 -10.24,0 -0.95992,0 -5.5641,0.203437 -3.82963,-2.047158 1.17115,-1.519659 7.74068,-0.512842 9.58963,-0.512842 2.77289,0 5.54725,-0.0013 8.32,0 0.84248,3.81e-4 2.28414,-0.228018 2.87111,0.513086 1.0076,1.272192 0.32889,3.950556 0.32889,5.246916 0,4.35814 0,8.89987 0,13.44 0,1.00363 0.35926,6.58798 2.23111,4.28543 0.88768,-1.09192 0.25213,-4.82822 0.38321,-6.20543 0.12003,-1.26136 0.26363,-2.24288 0.26568,-3.52 0.005,-3.07633 0,-6.7782 0,-9.92 0,-1.546037 0.18562,-4.05345 -0.0474,-5.421238 -0.37483,-2.200102 -3.73604,-1.298764 -5.7126,-1.298764 h -17.92 c -1.53307,0 -3.70426,0.304624 -5.0726,-0.101729 -0.88863,-0.263891 -1.33885,-1.455717 -0.49406,-2.129384 1.27555,-1.017178 4.94445,-0.328887 6.52666,-0.328887 h 17.92 c 2.02699,0 5.86971,-0.953301 7.03111,0.513086 0.69422,0.876513 0.32889,3.70541 0.32889,4.926914 v 13.760002 c 0,4.3685 -0.0807,8.7531 0.001,13.12 0.0215,1.13948 0.56737,2.91944 1.81827,2.21234 1.73613,-0.98138 0.74025,-6.99038 0.74025,-8.93234 0,-2.31285 -0.15656,-5.46423 0.0543,-7.68 0.10242,-1.07613 0.25082,-1.73289 0.26445,-2.88 0.0361,-3.03929 0.001,-6.519055 0.001,-9.600002 0,-2.221719 0.7509,-5.960137 -0.32889,-7.578272 -1.15236,-1.726909 -4.34222,-0.446826 -5.75111,-0.570122 -1.87941,-0.164472 -4.00098,-0.249921 -6.08,-0.159013 -0.90465,0.03956 -1.6402,0.239341 -2.56,0.225678 -4.94775,-0.07349 -9.85268,-0.238271 -15.04,-0.238271 -1.63135,0 -6.91256,0.848691 -7.99111,-0.513086 -1.15158,-1.454849 -0.32816,-5.9967 -0.32816,-7.806856 V 58.537917 c 0,-1.782672 -0.92689,-7.339068 0.74148,-8.12543 0.58926,-0.277735 1.41637,-0.176841 1.80963,0.318515 0.64231,0.809058 0.32881,1.919683 0.32889,3.006914 2.9e-4,4.479791 0,8.960157 0,13.44 v 12.8 c 0,1.429263 -0.44275,3.541895 0.32889,4.698272 0.93269,1.397729 5.65847,0.741728 7.35111,0.741728 3.38793,0 7.21807,0 10.56,0 2.36986,0 3.74168,0 6.4,0 1.68277,0 5.81035,0.7527 7.16666,-0.328892 1.09457,-0.872866 0.16617,-2.021557 -0.78543,-2.183701 -1.111,-0.189301 -2.89496,-0.04741 -4.14123,-0.04741 h -16.64 c -1.82709,0 -4.8475,0.320772 -6.38123,-0.138765 C 172.11666,82.125274 172.8,79.026339 172.8,77.097916 c 0,-1.483139 0,-3.368095 0,-4.8 0,-1.071762 0,-1.744194 0,-2.88 0,-2.235351 0,-4.775341 0,-7.039999 0,-1.206548 -0.002,-2.66753 0,-3.84 10e-4,-0.723711 -0.19168,-1.711202 0.32889,-2.366915 2.16488,-2.726914 2.55111,2.77376 2.55111,3.966915 v 14.079999 c 0,1.335474 -0.52297,4.171358 0.32889,5.246914 1.20648,1.523316 8.10687,0.513086 9.91111,0.513086 2.63576,0 4.6901,1.91e-4 7.68,0 0.88543,-5.8e-5 2.56594,0.296445 3.18963,-0.512842 1.4048,-1.822841 -1.4436,-2.044882 -2.54963,-2.047158 -3.40205,-0.007 -6.8351,0 -10.24,0 -1.41332,0 -3.26303,0.220235 -4.46123,-0.138764 -2.22279,-0.665992 -1.29877,-6.588521 -1.29877,-8.821236 0,-1.021865 0,-1.884267 0,-2.879999 0,-1.1969 -0.61826,-2.773877 0.32889,-3.966914 0.57314,-0.721944 1.76254,-0.579019 2.22222,0 0.83846,1.056123 0.32889,2.883076 0.32889,4.286914 0,2.518554 -1.0817,6.345893 0.32889,8.126913 0.45168,0.570298 1.52435,0.507969 2.23111,0.512842 1.83178,0.01263 6.01449,0.761543 7.53629,-0.328647 0.85754,-0.614326 0.48058,-1.703042 -0.25061,-2.038023 -1.37865,-0.631601 -3.93882,0.0425 -5.67951,-0.240493 -1.60166,-0.260395 -2.77822,-3.742871 -1.09308,-5.063457 1.95041,-1.528476 2.2715,1.945352 3.66568,2.183457 1.63191,0.278711 2.69605,0.291319 4.14123,0.276543 1.05428,-0.01078 1.86312,-0.195888 2.88,-0.171108 1.07102,0.0261 1.80295,0.230893 2.88,0.25728 2.66318,0.06524 4.97352,-0.132593 7.36,-0.132593 2.0525,0 4.09369,0.163487 6.4,0.13605 1.32289,-0.01574 1.99682,-0.207729 3.2,-0.290122 1.56064,-0.10687 3.24465,0.04349 4.8,0.06419 2.04994,0.02729 4.441,0.285459 6.38123,-0.1279 1.01984,-0.217271 1.01244,-0.648086 1.38174,-1.523701 0.30824,-0.730869 1.11996,-1.321475 1.96418,-0.670864 0.93586,0.721235 0.87605,4.372846 -0.22887,4.916542 -1.2958,0.637618 -9.02486,-0.903505 -6.92791,2.331602 0.60078,0.926865 1.85928,0.739409 2.86963,0.741484 2.11898,0.0044 5.84133,0.918867 7.14297,-0.741728 0.83381,-1.063765 0.52412,-2.602202 0.5358,-3.738272 0.0186,-1.806362 -0.003,-4.520156 0.001,-6.399999 0.002,-1.008164 0.20336,-3.970562 2.04715,-2.549629 1.26535,0.975151 0.51285,5.556162 0.51285,7.029628 0,2.5648 0.0157,4.088848 -2.5e-4,6.4 -0.006,0.827559 0.12894,1.722808 -0.51284,2.231109 -0.75463,0.597671 -2.56234,0.328891 -3.64691,0.328891 -4.30959,0 -9.95898,-1.012978 -13.7126,0.101729 -0.74539,0.221357 -1.32312,1.10707 -0.67703,1.945429 0.81072,1.051983 4.0751,0.484351 5.42963,0.517535 1.30357,0.03194 1.99562,0.249975 3.2,0.302714 2.27914,0.0998 8.80117,0.325303 10.87852,-0.06049 2.32593,-0.431963 1.92148,-2.398867 1.92148,-4.406914 0,-4.904687 0,-9.815073 0,-14.719999 0,-1.561338 -0.27824,-2.833164 0.10172,-4.112593 0.22666,-0.763243 1.08047,-1.343638 1.94543,-0.677037 1.08245,0.834035 0.51308,5.029679 0.51308,6.389631 0,1.297456 0,2.000102 0,3.2 0,3.188168 0,7.57495 0,10.879999 0,1.405059 0.16342,3.177007 -0.0474,4.473828 -0.23174,1.425401 -0.93065,1.545 -2.19285,1.6 -1.31016,0.05709 -2.46032,0.0062 -3.83975,0.0062 -5.41783,0 -12.04094,0 -17.6,0 -1.64291,0 -3.92981,-0.50104 -5.33828,0.193086 -0.70514,0.347505 -0.92695,1.480942 -0.22838,2.038022 1.11771,0.891329 5.04619,0.328892 6.52666,0.328892 h 17.92 c 1.49441,0 6.02789,0.753594 7.03111,-0.513086 0.66233,-0.836255 0.29119,-2.680102 0.38321,-3.646914 0.11461,-1.204287 0.25904,-1.873657 0.26543,-3.2 0.0268,-5.563921 2.5e-4,-11.373525 2.5e-4,-16.959999 0,-1.684483 0,-3.808126 0,-5.440001 0,-1.319067 -0.11352,-2.05998 0.0188,-3.513828 0.11205,-1.231469 1.32906,-2.080903 2.30369,-1.092837 1.50145,1.522139 0.51305,5.452906 0.44742,7.486666 -0.22238,6.890537 -0.20988,14.154194 -0.20988,21.119999 0,1.893408 0.91484,7.157305 -0.74172,8.262715 -1.81871,1.213618 -5.59971,0.377285 -7.89828,0.377285 -3.59197,0 -7.37066,-0.01217 -10.88,-0.02864 -1.1841,-0.0056 -2.0483,-0.201821 -3.2,-0.266172 -1.79195,-0.100126 -3.93029,-0.02519 -5.76,-0.02519 -2.05141,0 -7.45283,-0.965322 -9.08691,0.328892 C 207.21437,89.335406 208,94.117633 208,95.657916 v 21.759994 c 0,1.74187 -0.92686,7.07029 0.74025,7.9563 0.92807,0.49324 1.63282,-0.40984 1.77235,-1.25037 0.34734,-2.09251 0.0466,-4.5755 0.0474,-6.70593 8.4e-4,-2.17681 0.29559,-3.17022 0.31877,-5.12 0.0505,-4.24591 0.001,-9.13408 0.001,-13.439994 0,-1.892149 -0.80857,-6.050742 0.32889,-7.486914 0.74134,-0.936026 3.85843,-0.513086 5.11111,-0.513086 2.12623,0 4.64289,0 6.72,0 2.40498,0 3.78445,0 6.4,0 h 9.92 c 0.94041,0 2.8491,-0.346445 3.50963,0.512842 1.64877,2.144902 -2.22592,2.423867 -3.50963,2.338515 -3.74531,-0.249013 -7.6035,0.04883 -11.84,0.0284 -1.50527,-0.0073 -2.1769,-0.199141 -3.52,-0.291114 -1.15586,-0.07915 -2.64332,-0.02864 -3.84,-0.02864 -1.40186,0 -5.43969,-0.688184 -6.39111,0.513086 -0.88561,1.118159 -0.32889,3.815312 -0.32889,4.926914 0,1.090537 0,1.761381 0,2.880001 0,3.71413 0,8.38659 0,12.16 0,1.47181 -0.003,2.18182 0,3.52 0.002,0.96873 -0.14104,1.77739 0.32889,2.36666 0.46238,0.57982 1.63619,0.58699 2.03802,-0.22839 C 216.30006,118.55555 216,116.9047 216,115.81791 v -13.43999 c 0,-1.37453 -0.39365,-4.145883 0.19309,-5.338276 0.7223,-1.467895 2.97326,-0.741728 4.60691,-0.741728 h 12.48 c 1.54598,0 3.27256,-0.625215 4.14963,0.512842 1.26658,1.643496 -1.94754,2.04708 -3.18963,2.047158 h -10.56 c -1.08035,0 -3.14611,-0.255752 -4.05828,0.193086 -0.99379,0.489008 -0.7393,1.513618 -0.74172,2.686918 -0.006,2.76514 -0.79025,10.38297 0.19309,12.37827 0.51376,1.0425 2.0899,0.79056 2.31951,-0.55704 0.46398,-2.72319 0.0472,-5.8585 0.0474,-8.62123 6e-5,-0.89697 -0.29379,-2.55206 0.51309,-3.19112 1.1881,-0.94099 4.46388,-0.33663 5.88691,-0.26617 1.10775,0.0548 2.75547,-0.38884 3.73828,0.26617 0.93918,0.62594 0.85225,2.11731 -0.26568,2.44939 -1.69469,0.50339 -4.3695,-0.27622 -5.9852,0.20345 -1.43976,0.42744 -1.79586,3.03026 -0.67851,4.54667 0.5674,0.77005 1.74738,0.44839 2.14814,-0.52518 0.78348,-1.9033 1.76902,-1.56322 3.92297,-1.56322 h 16"
       id="path1" />
  </g>
</svg>
