<svg viewBox="0 0 317.494 139.267" xmlns="http://www.w3.org/2000/svg"><path d="M.051.967C3.398.625 2.749 3.965 2.96 7.047c.083 1.214.275 1.97.29 3.2.092 7.71.001 16.51.001 24.32 0 2.658-.018 5.345 0 8 .006.857-.066 2.284 1.001 2.41 2.36.281 1.56-4.75 1.56-6.25 0-5.603.042-14.944-.002-21.12-.017-2.438-.318-4.455-.319-7.04 0-2.452-.045-4.909.002-7.36.016-.885.064-2.283 1.278-2.283 1.737 0 1.234 2.793 1.309 3.883.09 1.328.284 2.127.29 3.52.04 8.2.001 16.73.001 24.96 0 1.505-.833 8.913 1.001 9.13.917.11 1.374-.607 1.512-1.456.36-2.217.047-5.075.047-7.354V8.327c0-1.777-.133-4.41.019-6.074.074-.812.585-1.948 1.8-1.407 1.18.525.741 1.995.741 3.32v24.32c0 3.384-.024 6.872.266 9.92.1 1.053-.03 3.988.073 5.115.074.814.392 1.72 1.54 1.485 1.04-.212.982-1.18 1-2.12.038-2.04.001-4.333.001-6.4 0-4.938.057-10.482-.001-15.36-.014-1.132-.174-1.807-.263-2.88-.098-1.176.1-4.462.086-5.76-.01-1.077.164-1.786.177-2.88.032-2.731-.053-4.016-.264-6.4-.07-.789-.178-2.276.946-2.41 2.292-.272 1.685 5.268 1.748 6.57.27 5.637.131 13.067.131 19.2 0 1.304-.05 2.893.006 4.16.036.813.072 1.612.995 1.8 1.158.237 1.47-.705 1.54-1.485.123-1.347.02-3.362.02-4.794V6.087c0-1.396-.173-6.88 2.046-4.872 1.41 1.274.513 6.807.513 8.712v24.64c0 2.76-.114 5.564.006 8.32.04.894.218 1.97 1.274 2.09 1.223.142 1.261-1.18 1.279-2.09.05-2.665.001-5.335.001-8v-24.64c0-1.971-.963-7.61.33-9.048 1.754-1.953 2.23 2.585 2.23 3.608v13.76c0 1.287.047 5.086 1.82 4.084 1.222-.69.74-3.154.74-4.404V5.767c0-1.11-.64-5.192 1.28-4.971 2.097.242 1.238 5.538 1.416 6.89.406 3.09.184 6.432.184 9.92v17.6c0 2.447-.016 4.918 0 7.36.006.824-.048 2.287 1.001 2.412 1.07.127 1.454-.794 1.54-1.773.247-2.782.02-5.832.02-8.638v-24c0-2.3-.299-6.596.047-8.621.401-2.357 2.35-.987 2.493.622.171 1.927-.063 6.3.025 8.319.041.935.445 2.666 1.814 1.892 1.745-.986.728-7.734.74-9.572.008-1.098-.088-2.465 1.28-2.465 1.137 0 1.236.964 1.274 1.826.08 1.822.006 4.2.006 6.079 0 5.568-.065 10.097.001 15.68.02 1.628.279 2.373.315 3.84.049 2.02.004 4.639.004 6.72 0 2.644-.048 5.364.002 8 .016.857.048 2.233 1.278 2.09 1.549-.178 1.28-2.27 1.28-3.37v-11.52c0-5.247.06-11.14-.001-16.32-.017-1.454-.276-2.303-.314-3.84-.064-2.597-.625-5.841.097-8.273.776-2.613 3.107 1.675 4.332 1.432 1.748-.346.5-2.344 2.286-2.344 1.824 0 1.28 2.589 1.28 4.065v41.28c0 3.7-.043 8.085.001 11.84.017 1.384.269 2.288.299 3.52.1 4.128.02 8.698.02 13.12v13.44c0 1.211.445 3.489-1.001 3.85-1.448.36-1.54-1.349-1.557-2.25-.043-2.251-.002-4.764-.002-7.04 0-1.792.038-4.02-.004-5.76-.027-1.076-.211-1.768-.287-2.88-.271-3.957-.029-11.49-.029-15.36v-2.56c0-1.08.076-3.115-.019-4.154-.07-.78-.382-1.722-1.54-1.486-1.039.213-.982 1.18-1 2.12-.042 2.244 0 4.77 0 7.04v17.6c0 1.676-.1 3.823.054 5.44.09.954.237 1.592.26 2.56.046 1.864.793 6.132-1 6.72-2.842.93-1.875-6.44-1.875-8v-26.56c0-2.379.043-5.008-.001-7.36-.019-.988-.087-2.42-1.558-2.12-1.126.23-.994 1.542-1 2.44-.018 2.53 0 5.142 0 7.68v25.28c0 2.043 1.03 7.06-.514 8.354-1.126.944-1.95-.44-2.028-1.317-.115-1.285-.019-2.797-.019-4.157 0-6.95.518-15.437-.228-21.76-.176-1.49.434-4.465-1.65-4.04-1.698.347-1.002 4.235-1.002 5.64v3.84c0 2.99.25 4.384.315 7.04.06 2.391.005 5.533.005 8 0 1.596.062 3.567-.006 5.118-.038.855-.218 2.211-1.553 1.939-1.008-.206-.984-1.43-1-2.257-.046-2.47 0-5.187 0-7.68 0-2.59-.291-4.325-.32-6.72-.02-1.668 0-3.826 0-5.44v-13.76c0-1.963.034-4.14-.002-6.08-.018-.94.04-1.907-1-2.12-1.292-.264-1.513.907-1.553 1.801-.1 2.283-.006 5.32-.006 7.679v25.28c0 1.79.942 7.792-.513 8.975-2.271 1.848-2.047-3.246-2.047-4.175v-12.8c0-1.126.497-5.313-1.82-4.28-1.27.565-.74 3.476-.74 4.6v11.84c0 1.26.624 5.162-1.28 5.162-1.86 0-1.28-3.557-1.28-4.842v-3.52c0-5.791.067-13.143-.001-18.88-.03-2.504-.286-4.257-.318-7.04-.028-2.453.016-4.907-.001-7.36-.006-.872.104-2.214-1.001-2.44-1.288-.263-1.51.842-1.553 1.801-.06 1.353-.006 4.127-.006 5.439 0 8.593.32 17.172.32 25.92 0 2.788.591 7.444-.102 9.885-.604 2.129-2.388.53-2.452-.926-.138-3.146.044-5.237-.273-7.999-.111-.969-.357-2.716-1.873-2.04-1.778.791-.504 7.444-.552 8.76-.04 1.073.196 3.153-1.467 3.153-1.217 0-1.262-1.284-1.28-2.193-.048-2.558 0-5.122 0-7.68v-8.64c0-5.427.157-12.343-.217-17.28-.102-1.344.785-7.814-1.105-8.2-1.991-.406-1.56 2.582-1.559 3.72 0 2.083.27 2.936.315 4.8.043 1.74.005 3.968.005 5.76v21.76c0 1.796.746 6.616-.513 7.8-1.41 1.329-2.08-2.23-3.606-1.92-1.246.254-.895 2.161-2.28 2.2-2.212.06-1.222-6.773-1.293-8.4-.165-3.752-.308-8.28-.308-12.48v-14.72c0-2.07.082-4.713-.006-6.719-.038-.862-.137-1.826-1.274-1.826-1.758 0-1.28 2.472-1.28 4.065v16.32c0 2.652-.15 5.71.029 8.32.108 1.58.29 2.434.291 4.16.003 7.043 0 14.507 0 21.44v18.24c0 4.4.194 8.9.013 13.12-.059 1.363-.281 3.95.817 4.908.903.787 1.557-.305 1.683-1.074.348-2.14.047-4.84.047-7.034v-25.92c0-1.634-.947-9.505 1.28-9.505 2.182 0 1.28 7.566 1.28 9.185 0 7.938-.484 17.721.266 25.6.11 1.158.046 2.58.054 3.84.006.898-.136 2.27 1.001 2.484 1.966.369 1.608-2.687 1.546-4.084-.362-8.283-.307-19.507-.307-28.48v-4.16c0-1.222-.495-5.312 1.82-4.28 1.227.546.74 3.18.74 4.28v4.16c0 4.435-.27 9.721.029 14.08.076 1.112.26 1.804.286 2.88.063 2.577.005 5.98.005 8.64 0 2.505-.102 5.195.006 7.68.04.906.305 2.194 1.553 1.918 1.874-.414 1.001-6.786 1.001-8.318 0-5.657.065-12.015-.001-17.6-.014-1.132-.163-1.813-.265-2.88-.153-1.617-.054-3.764-.054-5.44 0-2.598-.215-5.418.019-7.994.076-.838.35-1.511 1.261-1.511 1.699 0 1.218 2.24 1.416 3.745.708 5.39.184 14.672.184 20.8 0 1.334-.743 6.256.74 6.828 2.242.864 1.82-2.748 1.82-4.268v-20.8c0-1.106-.566-8.084 2.047-6.07.633.488.508 1.547.513 2.23.006.832 0 1.402 0 2.24v18.88c0 3.363.369 8.271.147 11.2-.101 1.344.139 1.984.168 3.2.034 1.385-.74 5.895 1.285 5.84 1.28-.036 1.262-1.434 1.279-2.32.046-2.454.001-5.198.001-7.68 0-1.696.036-3.793-.005-5.44-.032-1.33-.274-2.063-.31-3.52-.094-3.835-.005-8.018-.005-11.84v-5.44c0-1.763-.975-7.585 1.28-7.585 1.839 0 1.28 3.743 1.28 5.025v12.16c0 1.377-.607 4.143 1.006 4.56 2.331.601 1.654-3.197 1.583-4.24-.327-4.766-.236-10.845-.023-15.679.052-1.166 1.116-2.8 2.225-1.408 1.06 1.329.308 6.901.33 8.767.022 1.778.31 2.783.319 4.48.032 6.624 0 13.511 0 20.16 0 2.534-.046 5.155.002 7.68.018.97.107 2.324 1.29 2.275 1.376-.057 1.57-1.301 1.57-2.275-.002-2.138-.302-3.623-.302-6.08v-25.6c0-2.553-.047-5.13.002-7.68.017-.92.06-2.145 1.278-2.145 1.471 0 1.278 1.767 1.28 2.785.004 1.732-.95 7.875.513 8.945 1.156.846 1.94-.596 2.028-1.587.085-.951.02-1.614.02-2.558 0-1.738-.143-4.301.018-6.074.107-1.174 1.622-2.337 2.348-.864 1.133 2.298.193 7.232.193 9.818 0 7.81.32 15.521.32 23.36 0 2.476-.045 5.234.002 7.68.018.983.02 2.145 1.278 2.145 1.137 0 1.236-.964 1.274-1.827.08-1.821.006-4.199.006-6.078 0-7.387.035-15.04 0-22.4-.007-1.464-.312-2.377-.254-3.84.096-2.43-.111-4.892-.064-7.36.018-.978.08-2.145 1.278-2.145 1.115 0 1.693 2.261 2.576 2.261 1.965 0 1.264-3.882 3.631-2.027 1.315 1.03.513 5.785.513 7.35v32.96c0 1.008-.14 3.317 1.28 3.317 1.067 0 1.232-1.071 1.274-2.036.094-2.152.006-3.348.006-5.76v-26.56c0-1.633-.931-9.085 1.001-9.48 1.663-.34 1.334 1.875 2.56 2.2 1.749.462 1.614-3.434 3.619-1.99 1.561 1.125.82 5.906.82 7.67v23.04c0 3.304-.007 6.617 0 9.92.002.99-.19 2.952 1.28 2.911 1.225-.034 1.262-1.37 1.279-2.271.043-2.314.001-4.718.001-7.04v-26.24c0-1.515-.867-7.818 1.002-8.2 1.551-.317 1.55 1.402 1.558 2.44.018 2.571-.624 6.153.102 8.592.827 2.78 2.456-.987 2.458-2.192v-2.88c0-1.377-.054-2.785.006-4.159.053-1.182 1.51-2.907 2.361-1.18 1.1 2.233.193 6.99.193 9.499 0 7.79.32 15.595.32 23.36 0 2.558-.017 5.122 0 7.68.007.978-.062 2.465 1.28 2.465 1.366 0 1.273-1.49 1.28-2.465.018-2.548 0-5.129 0-7.68 0-4.016.046-8.514 0-12.48-.034-2.782-.32-4.507-.32-7.68v-3.2c0-2.116-1.007-8.051.33-9.727 1.96-2.46 2.298 2.808 2.366 3.327.606 4.611.184 9.244.184 14.08 0 1.039-.476 4.663 1.56 3.948 1.642-.578 1-4.18 1-5.548 0-4.704.579-12.227-.32-16 .915-.267 1.897-.632 2.551.193 1.168 1.472.33 5.22.33 7.167v26.24c0 2.552-.018 5.13 0 7.68.006.972-.062 2.48 1.292 2.44 2.585-.08 1.587-6.695 1.587-8.52 0-1.9.02-4.232-.003-6.08-.018-1.399-.139-2.303-.266-3.84-.113-1.376-.05-2.199-.05-3.52v-12.16c0-2.553-.047-5.13 0-7.68.02-1 .171-2.403 1.558-2.12 1.762.36 1.001 5.518 1.001 6.92v18.56c0 1.379-.683 5.326 1.006 5.852 2.397.746 1.569-3.133 1.556-4.252-.074-6.145-.001-13.784-.001-20.48 0-1.158-.692-8.312 2.075-6.39 1.579 1.097.805 6.486.805 8.31v25.28c0 2.552-.018 5.13 0 7.68.006.821-.132 2.276 1 2.41 2.511.299 1.56-7.534 1.56-9.13v-26.88c0-1.535-.95-8.392 1.558-7.88 1.047.214.984 1.288 1 2.12.04 2.15.001 4.547.001 6.72v24.96c0 1.162-.707 8.604 1.82 7.025.916-.573.738-1.936.74-2.865.005-2.56 0-5.12 0-7.68v-24c0-3.08.763-7.6-.102-10.513-.25-.84-1.224-1.21-1.947-.677-.736.543-.447 1.358-1.251 1.71-1.229.54-1.726-.584-1.801-1.406-.144-1.585-.019-4.063-.019-5.754v-12.8c0-3.196.036-6.763-.001-9.92-.014-1.132-.163-1.813-.264-2.88-.135-1.411-.055-3.34-.055-4.8 0-1.5.821-6.305-1.28-6.305-1.349 0-1.273 1.494-1.28 2.465-.017 2.557 0 5.122 0 7.68v7.04c0 2.996.008 6.607.01 9.6 0 1.462.273 2.194.305 3.52.043 1.74.005 3.968.005 5.76 0 1.88.074 4.256-.006 6.078-.04.907-.142 1.793-1.286 1.9-1.61.152-1.58-1.353-1.587-2.538-.016-2.256.015-4.784 0-7.04-.007-.825.125-1.975-.74-2.36-1.296-.578-1.77.71-1.814 1.721-.104 2.347.088 6.023-.013 8.317-.073 1.663-2.087 3.142-2.506.628-.397-2.378-.048-6.948-.048-9.586v-23.36c0-2.019 1.089-10.065-1.587-9.854-1.544.122-1.29 1.827-1.293 2.814-.003 1.446-.104 2.174.055 3.84.09.955.237 1.592.26 2.56.06 2.391.005 5.533.005 8v16.96c0 2.482.045 5.226-.001 7.68-.017.886 0 2.284-1.279 2.32-1.903.052-1.28-3.652-1.28-4.88v-12.8c0-1.314.328-3.407-1.031-3.96-.871-.356-1.52.04-1.747.807-.308 1.036-.103 2.684-.102 3.793.003 1.941.273 2.744.316 4.48.063 2.575.004 5.982.004 8.64 0 1.212-.674 5.898-2.55 3.36-1.23-1.66-.33-7.036-.33-9.12v-24.64c0-2.482.045-5.226-.001-7.68-.018-.947.011-2.145-1.279-2.145-2.225 0-1.28 7.804-1.28 9.505v30.72c0 .86.5 3.87-1.28 3.92-2.047.056-1.28-5.236-1.28-6.8v-18.88c0-1.29.676-5.256-.74-5.88-2.63-1.161-1.82 4.173-1.82 5.56v20.16c0 1.077.205 7.604-2.047 5.553-1.548-1.41-.513-6.996-.513-9.073 0-3.709.043-7.857 0-11.52-.015-1.23-.208-1.986-.291-3.2-.213-3.105-.029-6.762-.029-9.92 0-2.739.114-5.591-.006-8.319-.04-.926-.225-1.826-1.274-1.826-1.337 0-1.272 1.391-1.28 2.465-.017 2.541 0 5.131 0 7.68 0 6.704.212 13.563.212 20.16 0 1.218-.27 2.228-.183 3.52.074 1.113.26 1.804.287 2.88.045 1.867.695 6.43-1.026 7.332-1.29.677-1.677-.924-1.752-1.892-.116-1.5.234-2.753.202-4.16-.02-.909-.21-1.661-.271-2.56-.216-3.156-.029-8.762-.029-11.84v-16c0-1.106.489-5.418-1.558-5-.905.185-.959.972-.995 1.801-.077 1.73-.007 3.976-.007 5.759v24.96c0 2.173.04 4.57-.001 6.72-.017.886 0 2.284-1.279 2.32-1.852.05-1.28-3.368-1.28-4.56v-38.08c0-2.974-.32-5.262-.32-8.32V4.487c0-1.41-.555-3.402 1.002-3.72 1.512-.309 1.388 2.037 2.564 2.332 1.09.274 1.56-.34 1.874-1.172.404-1.07 2.13-2.233 2.513.019.352 2.069.047 6.017.047 8.301v30.4c0 1.455-.533 3.743 1.006 4.268 2.437.831 1.874-6.505 1.874-8.108 0-1.889.04-4.246-.004-6.08-.036-1.467-.295-2.212-.314-3.84-.034-2.855-.002-4.479-.002-7.04v-9.6c0-2.373-.043-5.015.002-7.36.016-.829-.037-1.977 1-2.065.735-.063 1.25.41 1.457 1.14.661 2.344.1 5.07.101 7.645 0 1.289-.305 2.86 1.006 3.308 2.353.802 1.919-6.162 1.862-7.468-.041-.931-.227-1.546-.278-2.56-.052-1.047.925-3.328 2.201-1.727.583.73.3 2.152.358 3.007.148 2.163.291 3.35.291 5.76v25.28c0 2.538-.046 5.15.002 7.68.018.954.218 2.499 1.557 2.028 1.789-.629 1.001-5.104 1.001-6.508V9.287c0-2.791-.438-6.076.32-8.64.745.211 1.688.283 2.047 1.045.548 1.164.193 3.102.193 4.395v10.56c0 1.478-.999 5.02.74 6.004 1.674.946 1.82-2.208 1.82-3.444 0-5.578-.486-11.401.02-16.954.132-1.458 1.748-2.081 2.347-.864 1.333 2.703.193 9.662.193 12.698 0 4.067.226 7.88.316 11.52.067 2.763.004 6.428.004 9.28 0 2.552-.017 5.13 0 7.68.006.821-.131 2.276 1.002 2.41 1.245.149 1.511-1.155 1.552-2.09.11-2.523.006-5.147.006-7.68 0-8.744.004-17.497 0-26.24 0-1.65-.125-2.367-.265-3.84-.093-.973-.46-3.443.458-4.15 2.49-1.914 2.367 3.25 2.367 4.47v20.16c0 1.243-.782 7.651 1.56 6.828 1.712-.602 1-4.747 1-6.188V7.367c0-1.506-.058-3.333.006-4.799.04-.897.253-2.066 1.553-1.8 1.043.212.983 1.241 1 2.12.038 2.042 0 4.332 0 6.399v25.92c0 2.603-.21 5.418.02 7.998.088 1.003.478 1.892 1.568 1.773 2.26-.248 1.293-8.016 1.293-9.771 0-9.127-.32-17.138-.32-26.24v-4.16c0-1.047-.495-4.065 1.28-4.065 1.928 0 1.28 3.35 1.28 4.385 0 1.397-.065 2.478.028 3.84.102 1.489.291 2.642.292 4.16.003 6.605 0 13.525 0 20.16 0 1.477-.839 9.375 1.28 9.13 2.17-.25 1.28-6.274 1.28-7.85V9.607c0-2.183-.04-4.557 0-6.72.018-.922.001-2.145 1.28-2.145 2.225 0 1.28 6.653 1.28 8.225v26.56c0 2.433-.045 4.934 0 7.36.017.893.181 2.217 1.279 2.09 2.058-.236 1.28-7.779 1.28-9.77V8.967c0-1.668-.912-7.385.74-8.12 1.392-.621 1.77.749 1.814 1.721.09 2.034.006 4.627.006 6.719v25.6c0 2.012-.239 4.317.047 6.074.145.89.627 1.557 1.54 1.457 2.228-.244 1.293-7.433 1.293-9.131v-15.68c0-2.274.049-5.155-.005-7.36-.024-.968-.17-1.606-.261-2.56-.145-1.516-.821-6.945 1.225-6.945 2.168 0 1.184 5.684 1.335 7.265.09.954.237 1.592.26 2.56.06 2.391.006 5.533.006 8v16.64c0 2.538-.047 5.15 0 7.68.017.857.05 2.233 1.28 2.09 1.214-.14 1.26-1.469 1.278-2.41.048-2.548 0-5.13 0-7.68V9.607c0-1.72-.919-7.526.513-8.63 2.566-1.977 2.048 4.994 2.048 6.07v19.84c0 1.36-.209 6.693 1.82 5.425 1.427-.892.74-4.711.74-6.385V8.007c0-1.466-.83-7.265 1.28-7.265 2.174 0 1.28 6.394 1.28 7.905v16.96c0 1.579-.035 2.536.005 4.16.048 1.982.315 3.31.315 5.44 0 2.446-.017 4.917 0 7.36.006.821-.132 2.276 1.001 2.41 1.245.149 1.512-1.155 1.553-2.09.114-2.628.006-5.362.006-8 0-7.024.011-14.101 0-21.12-.003-1.74-.227-2.725-.16-4.48.052-1.356-.16-3.372-.16-4.48 0-1.056-.511-2.594.329-3.647.588-.737 1.74-.421 2.174.229.593.887.376 1.988.377 3.098.002 4.82 0 9.88 0 14.72 0 .971-.197 4.632 1.82 3.492 1.178-.666.74-3 .74-4.132v-12.8c0-1.311-.714-5.464 1.559-5 1.046.214.984 1.293 1 2.12.036 1.947 0 4.112 0 6.08v26.56c0 1.638-.902 9.101 1.006 9.48 2.963.587 1.874-8.31 1.874-10.12 0-2.99.034-6.325 0-9.28-.02-1.579-.298-2.452-.318-4.16-.03-2.542-.001-4.57-.001-7.36v-7.04c0-1.377-.734-5.935 1.006-6.28 1.743-.345 1.865 1.565 1.874 2.76.016 2.33-.016 4.711 0 7.04.005.75-.142 2.008.74 2.348 1.343.518 1.772-1.07 1.814-2.028.116-2.663-.21-5.667.025-8.319.085-.963 1.2-2.651 2.212-1.406 1.285 1.58.329 6.731.329 8.765v24.96c0 2.552-.018 5.13 0 7.68.006.823-.048 2.286 1.001 2.41 1.07.128 1.453-.793 1.54-1.772.26-2.923.019-7.389.019-10.238v-22.4c0-2.461-.883-6.995.193-9.178 1.146-2.326 2.632 1.961 3.926 1.697 1.173-.239 1.152-2.764 2.875-2.331 1.501.377 1.006 2.832 1.006 4.052v82.88c0 1.362.248 4.065-1.28 4.065-2.387 0-1.28-7.095-1.28-8.865v-24.96c0-1.628.92-7.44-1.293-7.614-.9-.07-1.391.36-1.54 1.233-.341 2.005-.05 4.635-.047 6.7.003 2.061.31 3.217.32 5.12.03 6.31 0 12.869 0 19.2 0 1.66.968 9.186-1.293 9.186-1.712 0-1.579-1.589-1.587-2.785-.015-2.151 0-4.545 0-6.72v-25.92c0-1.569.854-7.73-.74-8.44-1.3-.58-1.77.722-1.814 1.721-.107 2.426-.006 4.926-.006 7.359v26.56c0 1.606.91 7.918-1.28 8.17-2.084.24-1.28-6.187-1.28-7.53v-16c0-2.298.65-5.031-.238-6.993-.514-1.136-1.491-1.015-2.642-.687.67 2.269.32 4.823.32 7.68v16c0 1.831.073 3.962-.006 5.758-.033.744-.08 1.614-.995 1.801-2.588.529-1.559-6.602-1.559-8.2 0-7.707.09-16.39 0-23.999-.015-1.23-.208-1.986-.291-3.2-.117-1.703-.017-4.407-.029-6.08-.007-.99.044-2.767-1.558-2.44-1.15.235-.995 1.542-1.001 2.44-.019 2.635 0 5.357 0 8v24.32c0 2.185.266 4.45.262 6.4-.002.79.007 1.692-.579 2.367-1.931 2.227-2.242-2.418-2.242-3.647v-13.76c0-1.098.34-4.603-1.82-3.64-1.23.547-.74 3.198-.74 4.28v12.8c0 1.353.318 4.385-1.28 4.385-2.336 0-1.28-7.766-1.28-9.505v-26.56c0-2.079-.22-3.216-.307-5.12-.06-1.303.142-3.11-1.572-2.76-1.042.213-.995 1.62-1 2.44-.015 2.11-.179 3.323.053 5.76.091.954.238 1.592.261 2.56.054 2.205.005 5.086.005 7.36v15.36c0 2.619.952 7.495-.193 9.818-.722 1.467-2.242.295-2.348-.864-.291-3.205.698-6.392-.202-9.255-.278-.886-1.481-1.901-2.368-.786-1.158 1.458-.05 7.131-.013 8.767.02.942.084 2.785-1.288 2.785-.943 0-1.395-.618-1.54-1.511-.33-2.029-.048-4.63-.048-6.714v-25.92c0-2.55.047-5.132 0-7.68-.018-.922-.05-2.145-1.28-2.145-1.656 0-1.28 2.337-1.28 3.425v32.96c0 1.63.845 6.304-.512 7.35-.975.751-1.744-.146-2.047-.95-.251-.666-.43-1.185-1.28-1.185-.867 0-1.033.529-1.28 1.185-.262.696-.5 1.185-1.293 1.185-2.075 0-1.587-3.754-1.587-5.025v-29.44c0-2.445.045-4.918-.001-7.36-.018-.922-.05-2.145-1.279-2.145-1.905 0-1.28 3.49-1.28 4.705v60.16c0 2.405-.05 5.241.005 7.68.102 4.421.316 7.934.316 12.48 0 1.717-.78 4.433.513 5.43 1.127.869 1.946-.379 2.028-1.276.159-1.744.019-4.247.019-6.074 0-8.869-.292-17.709-.32-26.56-.006-1.807-1.063-9.743 1.587-9.534 2.25.177 1.293 7.47 1.293 9.214v24c0 1.86-.034 3.92 0 5.76.017.881-.057 1.686.74 2.04 1.347.601 1.773-.806 1.813-1.722.08-1.82.006-4.199.006-6.078v-25.6c0-1.243-.788-9.004 1.783-7.345.783.505.748 1.461.772 2.225.055 1.746.005 3.964.005 5.76v25.6c0 2.538-.046 5.15.001 7.68.019.976.087 2.145 1.279 2.145 1.239 0 1.26-1.207 1.278-2.145.045-2.388.001-4.955.001-7.36v-25.28c0-1.714-.915-7.529.513-8.63 2.448-1.886 2.047 3.82 2.047 4.79v10.88c0 2.808-.25 4.809.054 8 .151 1.582.265 2.761.266 4.48 0 .976-.223 3.615 1.559 2.988 1.68-.59 1.001-4.463 1.001-5.868v-18.56c0-1.321-.667-7.125 1.256-6.89 1.461.177 1.272 1.681 1.3 2.73.04 1.555.004 3.52.004 5.12v26.56c0 2.324-.042 4.724.001 7.04.017.865.047 2.353 1.279 2.32 1.226-.034 1.262-1.437 1.278-2.32.048-2.524.001-5.147.001-7.68v-24.64c0-2-.936-7.18.33-8.767 1.93-2.42 2.23 2.5 2.23 3.327v14.4c0 1.388.469 4.554 2.048 3.005 1.178-1.155.512-3.167.512-4.605v-12.8c0-1.121-.452-3.745 1.28-3.745 2.152 0 1.28 6.688 1.28 8.225v10.24c0 1.523-.017 3.547.001 5.12.02 1.628.279 2.373.315 3.84.047 1.927.005 4.415.005 6.4 0 2.452-.017 4.909 0 7.36.006.821-.125 2.277 1 2.41 2.49.297 1.56-7.531 1.56-9.13v-26.24c0-1.438-.777-7.95.988-8.17 1.192-.15 1.188 1.052 1.279 2.09.107 1.216.277 1.971.291 3.2.017 1.397-.698 5.498.514 6.385 1.16.848 1.947-.66 2.029-1.587.24-2.714-.21-5.912.037-8.632.107-1.174 1.623-2.337 2.348-.864 1.1 2.232.194 6.988.194 9.498v23.68c0 2.476-.045 5.233 0 7.68.019.955.004 2.159 1.292 2.12 1.308-.04 1.537-1.12 1.58-2.121.078-1.749.007-3.961.007-5.76 0-8.73-.32-17.475-.32-26.24 0-1.631-.862-9.098 1.001-9.479 2.066-.421.815 1.43 2.561 1.88 1.27.326 3.827-3.857 4.39-.394.371 2.282.048 6.149.048 8.634v19.84q-.002 5.28 0 10.56c0 .964-.295 3.232 1.28 3.05 2.276-.261 1.28-7.726 1.28-9.45v-25.92c0-1.515-.868-7.818 1.001-8.2 1.663-.34 1.333 1.875 2.56 2.2 1.713.453 1.69-3.467 3.606-1.99 1.366 1.053.513 6.353.513 7.99v4.48c0 2.807-.033 6.113 0 8.96.02 1.628.279 2.373.315 3.84.036 1.461.005 3.298.005 4.8v10.56c0 .958-.291 3.232 1.28 3.05 1.215-.14 1.26-1.469 1.278-2.41.048-2.548.001-5.13.001-7.68v-24.32c0-3.089.347-7.025-.32-9.28.756-.22 1.823-.726 2.552.193 1.127 1.421.328 5.705.328 7.487 0 .996-.442 3.492.74 3.948 1.343.518 1.773-1.07 1.814-2.028.113-2.59-.102-5.408.013-7.999.046-1.05 1.11-2.806 2.225-1.408 1.303 1.635.328 7.012.328 9.087v24.64c0 2.506-.102 5.195.006 7.68.043.973.319 2.225 1.582 2.054 1.227-.167 1.273-1.411 1.29-2.374.048-2.524.002-5.147.002-7.68 0-2.888.032-6.107-.001-8.96-.017-1.445-.332-2.295-.302-3.84.048-2.493.304-4.181.303-7.04 0-1.877-.296-3.18-.319-5.12a221 221 0 0 1 0-6.72c.018-.91-.015-1.912 1-2.12 1.694-.346 1.706 2.44 1.73 4.04.015.947-.12 1.623-.056 2.56.218 3.148.205 7.3.205 10.56 0 1.064-.527 4.126.74 4.572 2.084.733 1.82-2.447 1.82-3.612v-14.4c0-.853.331-5.709 2.231-3.327 1.269 1.591.329 6.751.329 8.767v24.64c0 2.552-.017 5.13 0 7.68.006.822-.119 2.278 1.001 2.41 1.684.2 1.557-1.917 1.559-3.05.002-1.016 0-1.646 0-2.56v-29.44c0-1.714-.916-7.529.513-8.63 2.597-2.001 2.047 5.044 2.047 6.07v19.52c0 1.355-.68 6.416 1.874 5.504 1.04-.372.988-1.414 1.004-2.304.031-1.642.001-3.46.001-5.12v-15.68c0-3.03.266-5.54-.32-8 2.89-.823 2.56 4.119 2.56 7.04v3.52c0 4.249-.157 9.453.013 13.76.121 3.09.307 5.424.307 8.64 0 2.664-.005 5.336 0 8 .002.793-.19 2.325.74 2.652 1.453.511 1.77-1.015 1.814-2.013.077-1.755.006-3.957.006-5.76v-26.56c0-1.658-.943-9.504 1.28-9.504 2.127 0 1.28 6.058 1.28 7.585v24.96c0 1.403-.817 9.583 1.559 8.748 1.092-.384.995-1.732 1.001-2.668.018-2.664 0-5.336 0-8v-24c0-3.17.789-7.836-.101-10.833-.25-.84-1.225-1.21-1.947-.677-.912.673-2.737 3.838-3.053.307-.156-1.769-.016-4.224-.016-6.077v-31.04c0-1.284.687-5.345-1.28-5.345-2.032 0-1.253 4.38-1.285 5.665-.029 1.197-.246 1.918-.302 3.2-.127 2.89.295 4.486.307 7.04.029 5.994 0 12.224 0 18.24 0 1.727 1.009 9.825-1.293 9.825-1.843 0-1.586-2.016-1.587-3.425v-4.48c0-1.055.441-3.434-.74-3.96-1.56-.695-1.799 1.006-1.818 2.04-.04 2.126.16 6.32-.02 8.314-.153 1.677-2.123 2.487-2.495.307-.366-2.15-.047-6.814-.047-9.261v-23.68c0-2.55.047-5.132-.001-7.68-.017-.922-.05-2.145-1.278-2.145-2.228 0-1.28 7.871-1.28 9.505v26.56c0 1.864.033 3.916-.001 5.76-.018.93-.01 2.145-1.279 2.145-1.663 0-1.28-2.2-1.28-3.425v-13.44c0-1.37.23-3.714-.82-4.47-.872-.627-1.705-.175-1.958.677-.285.96-.102 2.448-.102 3.473 0 2.71.256 3.96.315 6.4.056 2.283.006 5.325.005 7.68 0 1.165-.788 5.025-2.55 2.724-1.292-1.686-.33-7.028-.33-9.124v-24c0-2.664.018-5.337 0-8-.007-.973.078-2.465-1.28-2.465-2.227 0-1.28 7.871-1.28 9.505v26.56c0 2.26.014 3.405 0 5.44-.008 1.106.071 2.354-1 2.64-2.027.538-1.56-5.445-1.56-6.8v-18.88c0-1.308.69-5.614-1-5.96-2.43-.496-1.56 5.53-1.56 6.92v19.84c0 1.096.122 2.509-.047 3.501-.136.8-.977 1.757-2 .969-1.594-1.229-.513-6.522-.513-8.63v-25.6c0-2.433-.255-4.454-.315-6.72-.034-1.275-.093-3.06-1.563-2.76-1.258.257-1 1.65-1.002 2.76-.005 2.315 0 5.251 0 7.36 0 3.47-.145 6.945.013 10.56.06 1.372.29 2.184.306 3.52.041 3.46.001 7.376.001 10.88 0 1.907.01 3.883 0 5.76-.005.944.13 2.288-.778 2.865-1.004.637-1.891-.269-2.054-1.271-.357-2.191-.048-4.802-.048-7.034v-25.6c0-1.924.27-4.201-.047-6.061-.149-.873-.812-1.528-1.773-1.1-1.558.694-.74 6.207-.74 7.8v24.32c0 1.718.932 8.877-1.28 9.132-1.845.212-1.28-3.246-1.28-4.331V5.127c0-1.156-.524-3.717.74-4.28 1.874-.836 1.472 2.05 2.821 2.21 1.42.17 2.363-3.687 3.79-1.897 1.318 1.653.646 5.733.65 7.487.006 4.374.173 10.132-.013 14.4-.036.824-.202 1.387-.225 2.24-.027 1 .187 1.694.225 2.56.053 1.215.012 2.88.012 4.16 0 3.41-.007 6.83 0 10.24.002.926-.193 2.9 1.28 2.73 1.215-.14 1.261-1.469 1.279-2.41.05-2.654 0-5.343 0-8V9.927c0-2.132-.137-4.26-.137-6.08 0-.804-.138-1.936.466-2.687 1.408-1.748 2.21.698 2.23 1.727.048 2.52-.045 5.47.003 8 .018.933.177 2.513 1.557 2.028 1.951-.686 1-7.316 1.002-9.068 0-.992-.308-3.152 1.28-2.925 2.25.322 1.28 6.662 1.28 8.365v26.24c0 2.474-.344 5.588.047 7.994.153.938.778 1.752 1.827 1.394 1.929-.658 1.006-6.749 1.006-8.428 0-4.324.05-9.17-.001-13.44-.032-2.686-.388-4.343-.314-7.36.046-1.91.315-3.493.315-5.44 0-3.185-.11-4.844-.26-7.679-.048-.906.166-1.826 1.225-1.826 2.148 0 1.595 3.178 1.595 4.705v13.12c0 1.043-.528 3.78.74 4.268 2.197.847 1.82-3.173 1.82-4.268 0-5.101-.035-10.265 0-15.36.01-1.328 1.088-3.48 2.231-2.047 1.327 1.665.329 6.48.329 8.767v24.96c0 2.494-.045 5.21 0 7.68.018.883-.01 2.356 1.28 2.356 1.187 0 1.261-1.47 1.278-2.356.048-2.548 0-5.13 0-7.68V8.967c0-1.98-.078-4.48.007-6.399.038-.851.133-1.826 1.274-1.826 1.14 0 1.236.975 1.274 1.826.072 1.642.006 3.748.006 5.439v6.72c0 3.55-.084 7.921.005 11.52.035 1.458.275 2.187.31 3.52.021.797-.222 2.295.745 2.668 2.602 1.003 1.826-5.87 1.82-7.148-.005-1.09-.137-1.861-.137-2.88 0-1.084.154-2.027.132-3.2-.076-4.212-.315-8.173-.315-12.8 0-1.67-.117-2.663.019-4.154.11-1.21 1.282-2.112 2.348-1.277 1.543 1.21.513 6.644.513 8.63v25.28c0 2.553-.017 5.131 0 7.68.006.822-.132 2.277 1.001 2.412 2.457.292 1.559-6.361 1.559-7.851v-26.88c0-2.452-.045-4.908 0-7.36.015-.764-.012-1.979 1-2.065 2.452-.21 1.56 7.155 1.56 8.785v24.96c0 1.491-.826 7.517 1.005 7.88 2.407.476 1.896-3.363 1.87-4.68-.015-.759-.1-1.43-.088-2.24.01-.823.1-1.346.087-2.24-.02-1.334-.274-2.048-.31-3.52-.033-1.372-.005-2.197-.005-3.52V9.927c0-2.433-.1-4.933.006-7.359.047-1.059.532-2.293 1.814-1.722.785.35.725 1.318.738 2.041.041 2.15.001 4.547.001 6.72v11.84c0 4.575.128 9.974.308 14.08.084 1.93-.025 5.312.014 7.36.016.857.048 2.233 1.278 2.09 2.19-.251 1.28-6.564 1.28-8.17v-26.56c0-2.44-.044-4.948.001-7.36.015-.795.087-1.978.988-2.09 1.012-.128 1.162.801 1.3 1.771.293 2.082.271 3.1.271 5.439v25.28c0 1.502-.843 8.912 1.001 9.13 2.5.298 1.559-7.24 1.559-8.81v-25.6c0-1.436-.484-8.861 2.06-7.03 1.014.73.807 2.167.819 3.19.017 1.478 0 3.272 0 4.8v14.08c0 1.81-.21 4.184-.174 5.76.046 2.013.175 3.894.175 6.08 0 2.95-.17 5.572-.087 8.318.027.896.292 1.827 1.366 1.827 2.175 0 1.28-6.662 1.28-8.225v-26.56c0-2.39-.043-4.993.002-7.36.014-.768-.062-1.958 1-2.054 2.46-.222 1.558 5.363 1.558 6.854v19.2c0 1.427-.41 5.396 1.001 5.795 2.269.641 1.56-4.26 1.56-5.475V7.367c0-1.088-.647-7.718 1.819-6.324 1.608.91.74 6.577.74 8.244v25.92c0 2.538-.046 5.15.001 7.68.017.898.211 2.214 1.279 2.09 1.06-.121 1.228-1.046 1.274-2.09.12-2.768.006-5.55.006-8.32 0-3.966-.239-8.582.028-12.48.091-1.329.285-2.127.291-3.52.013-2.742 0-5.648 0-8.32 0-2.03-.956-7.475.33-9.087 1.932-2.423 2.23 2.486 2.23 3.327v14.4c0 .985-.356 5.185 1.82 3.825 1.33-.832.74-4.066.74-5.425V6.407c0-1.367-.377-3.498.194-4.725.396-.853 1.366-.874 2.047-1.035.678 2.296.32 6.453.32 9.6v24.64c0 2.578-.047 5.453 0 8 .02.983.022 2.145 1.279 2.145 1.258 0 1.26-1.162 1.279-2.145.042-2.244 0-4.77 0-7.04V9.287c0-1.53-.871-7.918 1.002-8.363 1.568-.372 1.552 1.666 1.558 2.603.012 1.74-.577 7.502.33 8.858.648.97 2.115.857 2.449-.265.797-2.685-.137-6.715.12-9.547.107-1.174 1.623-2.337 2.348-.864 1.1 2.232.194 6.988.194 9.498v24c0 2.476-.045 5.234 0 7.68.02.983.022 2.145 1.28 2.145 1.367 0 1.271-1.368 1.279-2.465.023-3.366 0-6.862 0-10.24V9.607c0-1.88-.864-6.63.329-8.127.447-.56 1.243-.538 1.72-.183 1.004.748.35 2.026 1.791 2.026.857 0 .994-.685 1.334-1.355.312-.613.691-1.047 1.505-.88 1.628.332 1 3.015 1.001 4.359 0 1.496.263 2.838.263 4.16 0 .782-.181 1.46-.234 2.24-.134 1.952.092 4.112.1 6.08.011 3.223-.114 5.943-.129 8.96-.071 15.065 0 30.355 0 45.44v15.04c0 1.175.527 4.153-1.001 4.56-2.229.592-1.559-6.018-1.559-7.44v-24.96c0-1.591.893-8.865-1.28-8.865-2.218 0-1.28 7.579-1.28 9.185 0 8.21.003 16.43 0 24.64 0 1.726-.182 2.58-.291 4.16-.067.974.278 2.833-1.03 3.124-2.24.498-1.239-6.26-1.239-7.604v-26.56c0-2.445.045-4.918 0-7.36-.018-.922-.05-2.145-1.28-2.145-1.217 0-1.26 1.224-1.278 2.145-.048 2.55 0 5.127 0 7.68 0 5.91.027 12.031-.001 17.92-.012 2.463-.32 4.288-.32 7.04 0 1.833.8 7.507-.513 8.716-2.21 2.035-2.047-4.025-2.047-5.196v-19.2c0-1.779.247-4.013-.047-5.741-.12-.703-.459-1.204-1.233-1.204s-1.113.501-1.233 1.204c-.31 1.822-.047 4.185-.047 6.06v17.92c0 1.577.67 5.528-.74 6.325-1.347.761-1.774-.936-1.814-1.844-.107-2.463-.006-5.48-.006-8v-23.36c0-3.372.593-7.79-.32-10.88-3.4.93-2.24 5.605-2.24 8.64v25.92c0 2.081.004 4.34 0 6.4-.002 1.114.232 2.553-1.006 3.172-2.124 1.063-1.876-3.114-1.874-4.452.003-2.032-.127-4.776.055-6.72.188-2.02.265-3.621.265-5.76 0-1.468.609-4.584-1.292-4.734-1.889-.149-1.588 2.056-1.588 3.454v5.12c0 3.618.002 6.499 0 9.92 0 1.162-.318 4.386-2.047 2.923-1.588-1.345-.513-6.567-.513-8.683v-25.28c0-2.474.045-5.244 0-7.68-.02-1.019-.155-2.406-1.558-2.12-1.123.23-.995 1.56-1.001 2.44-.018 2.654 0 5.342 0 8v24c0 2.279.95 7.27-.33 9.178-1.047 1.562-2.172-.007-2.224-1.18-.117-2.654.794-7.277-.2-9.55-.344-.79-1.427-1.258-2.172-.678-1.198.933-.482 7.829-.516 9.59-.019.994-.061 2.356-1.278 2.356-2.201 0-1.28-7.938-1.28-9.716v-26.24c0-2.154.309-4.93-.048-7.021-.133-.78-.616-1.361-1.511-1.179-1.395.285-1 1.81-1.001 2.76-.004 1.768 0 3.653 0 5.76v25.6c0 2.55.046 5.132-.001 7.68-.017.885-.092 2.356-1.279 2.356-1.446 0-.982-1.972-2.281-2.236-1.171-.238-1.396.732-1.917 1.438-.492.666-1.255 1.19-2.009.483-1.437-1.353-.19-4.974-.19-6.841v-22.72c0-3.606.043-7.638 0-11.2-.012-.863.054-1.727-.421-2.458-.32-.492-.841-.747-1.457-.622-1.441.293-1.002 2.643-1.002 3.72 0 3.393-.258 10.115.136 13.12.49 3.737.113 8.593.01 12.8-.078 3.192.21 6.762.173 9.92-.013 1.076-.163 1.815-.264 2.88-.26 2.727-.055 5.801-.055 8.64v32.96c0 .971-.01 1.632.001 2.56.008.694-.268 4.56 1.6 4.294 2.193-.314 1.28-6.782 1.28-8.454 0-1.206.023-2.665-.006-3.84-.02-.875-.19-1.626-.17-2.56.022-.93.173-1.583.172-2.56 0-5.263-.317-11.288-.317-16.64 0-1.933-.941-9.825 1.28-9.825 1.2 0 1.257 1.036 1.278 2.145.051 2.679.001 4.465.001 7.36v8.96c0 1.081-.007 1.771.001 2.88.01 1.33.055 2.28.139 3.52.216 3.19.097 5.101.176 8.32.045 1.845-.03 3.871.006 5.76.016.876-.064 1.683.739 2.04 1.176.525 1.723-.558 1.8-1.406.167-1.83.02-4.476.02-6.394v-25.92c0-1.082-.603-9.072 2.046-7.03 1.397 1.077.513 6.63.513 8.31v25.28c0 2.552-.017 5.13 0 7.68.007.821-.131 2.276 1.002 2.41 2.51.299 1.558-7.534 1.558-9.13v-26.56c0-1.525-.904-8.225 1.28-8.225 2.11 0 1.28 5.81 1.28 7.265v17.92c0 1.814-.842 5.025.513 6.07.628.483 1.683.206 1.946-.677.47-1.586.101-3.747.101-5.393v-20.16c0-1.098-.113-2.47.11-3.514.203-.946 1.148-2.3 2.122-1.091 1.115 1.384.699 6.06.618 7.485-.05.904-.273 1.574-.223 2.56.07 1.365.277 2.381.249 3.84-.063 3.277-.46 6.316-.303 9.92.053 1.21.298 2.048.298 3.2 0 1.001-.202 1.588-.228 2.56-.028 1.076.232 2.42.237 3.52.012 2.517-.017 5.437 0 8 .007.808-.127 2.289 1.002 2.385 1.25.107 1.51-1.124 1.552-2.066.104-2.374.006-4.963.006-7.36v-26.24c0-1.514-.867-7.817 1.001-8.199 2.231-.455 1.56 3.748 1.56 5v13.12c0 1.333-.452 3.103 1 3.4 1.71.349 1.56-2.008 1.56-3.4v-14.4c0-.968-.118-5.177 2.046-3.51.697.537.512 1.776.513 2.55.004 2.124 0 4.274 0 6.4v24.64c0 2.38-.016 5.005 0 7.36.008 1.1.048 2.903 1.588 2.694 1.284-.174 1.272-1.386 1.29-2.374.043-2.251.002-4.764.002-7.04v-25.92c0-1.505-.793-7.819.735-8.428 1.305-.52 1.483.965 1.503 2.028.04 2.056-.71 7.632.33 9.178.809 1.201 2.285.482 2.504-.864.444-2.732-.186-6.176.066-8.948.107-1.174 1.623-2.337 2.349-.864 1.1 2.232.193 6.988.193 9.498v23.68c0 2.644-.049 5.364 0 8 .017.857.05 2.233 1.28 2.09 2.257-.26 1.28-7.73 1.28-9.45v-26.24c0-1.61-.786-7.835 1-8.2 1.89-.385.97 1.778 2.56 2.2.987.26 1.255-.612 1.614-1.319.406-.8 1.405-1.383 2.312-.672 1.346 1.055.513 6.06.513 7.67v22.72q-.002 5.121 0 10.24c0 .912-.255 2.919 1.001 3.026 1.63.14 1.551-1.62 1.559-2.705.023-3.368 0-6.86 0-10.24v-23.04c0-1.742-.9-6.581.513-7.67 1.926-1.484 2.012 2.412 3.606 1.99 1.288-.342.961-2.526 2.56-2.2 1.91.39 1.001 6.616 1.001 8.2v26.24c0 2.5-.2 5.2.019 7.678.071.805.33 1.718 1.261 1.718s1.19-.913 1.261-1.718c.22-2.478.02-5.179.02-7.678v-26.56c0-1.997.21-3.335.28-5.12.031-.832-.394-2.923 1.315-2.73 1.458.163 1.282 1.96 1.284 3.05.004 2.132-.038 4.612.001 6.72.017.876-.064 1.683.739 2.04 1.177.525 1.724-.558 1.801-1.406.225-2.473-.355-6.784.066-9.255.278-1.629 2.217-1.46 2.465 0 .428 2.512.048 7.137.048 9.9v23.04c0 2.374-.043 5.016 0 7.36.02.984.022 2.146 1.28 2.146 1.257 0 1.26-1.162 1.278-2.145.044-2.345 0-4.987 0-7.36v-24.96c0-1.869-.732-7.436.33-8.767 1.11-1.391 2.173.242 2.225 1.408.228 5.183.006 10.485.006 15.679 0 1.283-.132 4.69 1.558 4.24 1.665-.443 1.002-3.484 1.002-4.88 0-4.205.32-7.512.32-11.84 0-1.187-.427-5.182 1.251-4.97 1.914.24.989 6.485.989 8.17v26.24c-.001 2.377-.2 5.142.19 7.36.138.781.318 2.053 1.41 1.897 1.145-.164 1.237-1.368 1.273-2.217.077-1.754.006-3.958.006-5.76v-25.92c0-2.432-.016-4.935 0-7.36.008-.99-.122-2.465 1.28-2.465 2.135 0 1.28 5.503 1.28 6.945v19.2c0 1.53-.699 4.972 1.002 5.32 2.396.489 1.558-5.247 1.558-6.6v-19.84c0-1.195-.229-2.998.102-4.113.242-.813 1.108-1.323 1.946-.677 1.31 1.01.512 6.573.512 8.31v25.6c0 2.31-.015 4.752 0 7.04.007.89-.01 2.675 1.28 2.64 1.071-.03 1.234-1.091 1.274-2.001.112-2.548.006-5.128.006-7.68v-25.6c0-1.736-.797-7.299.513-8.309.963-.742 1.842.04 2 .969.294 1.728.047 3.962.047 5.74v25.28c0 2.134-.191 4.644.093 6.72.116.843.33 2.353 1.507 2.32 1.267-.034 1.262-1.425 1.279-2.32.05-2.656 0-5.632 0-8.32v-27.52c0-2.066.038-4.356 0-6.399-.036-1.905-.416-1.868-2.239-2.24-.311 1.01-1.296 4.032-2.87 2.047-.993-1.25-.078-3.012-.022-4.287.053-1.215.012-2.88.012-4.16v-25.6c0-2.365.095-5.388-.006-7.679-.043-.97-.425-2.373-1.813-1.549-1.815 1.078-.74 8.417-.74 10.508v24.64c0 1.964.701 6.435-.65 8.127-.948 1.188-2.116-.045-2.212-1.093-.264-2.903.416-6.428-.066-9.255-.158-.928-1.037-1.711-2-.969-1.386 1.068-.5 7.405-.513 9.27-.007 1.061-.13 2.731-1.558 2.44-1.023-.21-.982-1.168-1-2.12-.035-1.84-.001-3.9-.001-5.76v-20.48c0-1.792-.08-3.607.091-5.12.256-2.264-.23-4.28-.063-6.72.083-1.207.795-3.619-1.296-3.454-2.233.176-1.292 5.704-1.292 7.614v26.88c0 2.196.627 6.874-.193 8.538-.918 1.863-2.311-.05-2.361-1.18-.198-4.497.016-11.67-.006-16.318-.005-.999.105-1.97-.421-2.778-.402-.617-1.218-.982-1.945-.412-1.524 1.197-.238 4.687-.211 6.07.02 1.004-.194 1.605-.22 2.56-.026.982.202 1.606.22 2.56.031 1.629-.303 3.287-.303 5.12 0 1.238.63 5.584-1.558 5.137-1.736-.355-1.089-5.892-.947-7.377.09-.954.237-1.592.26-2.56.057-2.298.006-5.31.006-7.68v-16.64c0-1.646.919-9.505-1.28-9.505-1.465 0-1.452 1.815-1.546 2.785-.202 2.08-.054 4.884-.054 7.04v25.28c0 1.893.807 7.197-.513 8.44-.681.642-1.534.242-1.854-.488-.626-1.422-.193-3.11-.193-4.752v-19.2c0-1.558.768-7.395-1.56-6.92-.947.194-.961 1.056-.994 1.801-.052 1.178-.006 2.63-.006 3.839v19.2c0 1.53.684 6.745-1.28 6.8-1.23.033-1.262-1.452-1.279-2.32-.042-2.266 0-4.753 0-7.04v-26.56c0-1.51.858-7.905-1.28-7.905-2.228 0-1.28 7.871-1.28 9.505v18.24c0 3.489.22 6.832-.185 9.92-.222 1.69.578 6.196-1.416 6.196-.802 0-1.12-.716-1.232-1.402-.242-1.484-.09-4.403.088-5.754.74-5.636.098-13.148-.053-18.88-.028-1.074.228-1.863.228-2.88 0-1.098-.079-3.258-.187-4.48-.167-1.866 1.03-7.905-1.404-7.905-2.034 0-1.28 7.255-1.28 8.865v24.96c0 1.705.067 3.778-.006 5.439-.036.822-.12 1.969-1.274 2-1.851.052-1.28-3.366-1.28-4.559v-52.48c0-2.343-.13-4.393.03-6.72.074-1.1.26-1.86.286-2.88.042-1.74.005-3.968.005-5.76V6.087c0-1.163-.52-3.993.513-4.79 1.688-1.3 1.944 1.815 3.327 1.815 1.6 0 1.521-3.206 3.327-1.815 1.406 1.084.513 6.619.513 8.31v24.64c0 2.783-.05 5.89 0 8.64.02 1.015.03 2.145 1.28 2.145 1.182 0 1.26-1.224 1.278-2.145.048-2.558 0-5.122 0-7.68V8.967c0-2.655.101-4.01.314-6.398.08-.893.154-1.568 1.008-1.757 1.437-.318 1.55 1.242 1.559 2.395.016 2.38-.016 4.983 0 7.36.006.856-.141 1.968.74 2.36 1.48.66 1.798-.989 1.818-2.04.05-2.665-.397-6.001.05-8.621.19-1.12 1.713-1.787 2.319-.557 1.1 2.232.193 6.988.193 9.498v23.68c0 2.538-.017 5.15 0 7.68.006.904-.115 2.349 1.001 2.577 1.334.272 1.515-1.084 1.553-1.939.08-1.83.006-4.192.006-6.078v-26.24c0-1.885-1.01-8.953.741-9.72.647-.284 1.429-.028 1.81.542.65.971.33 2.197.329 3.418-.001 1.726-.183 2.58-.292 4.16-.206 3.006-.028 6.543-.028 9.6 0 .877-.127 2.03.101 2.861.2.726.853 1.44 1.718.951.866-.489.694-1.543.795-2.532.122-1.195.26-1.894.265-3.2.022-4.536-.897-12.202.32-16.32 3.322 1.102 2.24 5.474 2.24 8.64 0 3.141-.046 5.361-.27 8.32-.41 5.433-.05 11.176-.05 16.64v8c.003.922-.21 2.513 1.002 2.76 1.733.351 1.845-1.675 1.874-2.76.051-1.926.005-4.416.005-6.4V9.287c0-2.184-.178-4.549.019-6.714.076-.838.35-1.511 1.261-1.511.774 0 1.113.501 1.233 1.204.31 1.822.047 4.185.047 6.061v18.24c0 1.413-.752 5.726 1.001 6.134 2.211.514 1.559-4.634 1.559-6.134V6.727c0-1.078-.238-7.165 2.048-5.716 1.304.826.512 7.09.512 8.596v26.56c0 1.694-.003 4.418 0 6.08.002.982-.274 2.785 1.28 2.785 2.224 0 1.28-8.178 1.28-9.825 0-2.855-.164-6.153.029-8.96.083-1.214.275-1.97.29-3.2.05-4.27 0-9.116 0-13.44 0-1.841-.003-3.955 0-5.76.003-.864-.276-2.228.741-2.68 2.047-.913 1.642 1.732 1.554 2.68-.126 1.356-.054 3.08-.054 4.48v25.28c0 1.534-.933 9.348 1.559 8.84 1.816-.372.927-5.575 1.055-6.92.114-1.194.26-1.895.266-3.2.037-7.78 0-15.871 0-23.68v-3.84c0-.858-.117-1.576.047-2.541.234-1.375 1.3-1.285 2.513-1.299" fill="none" stroke="#3b3628"/></svg>