<svg
   version="1.1"
   id="svg1"
   width="286.85895"
   height="105.63828"
   viewBox="0 0 286.85894 105.63827"
   xml:space="preserve"
   xmlns="http://www.w3.org/2000/svg"
   xmlns:svg="http://www.w3.org/2000/svg"
><defs
     id="defs1" /><g
     id="g1"
     transform="translate(-7.6262146,-41.603987)"><path
       style="fill:none;stroke:#40382b"
       d="m 7.6268996,73.332476 c 2.189625,-0.003 4.4016564,0.26562 4.7320994,-2.26148 0.261204,-1.99759 0.0679,-4.60277 0.0679,-6.69852 0,-4.58248 4.7e-5,-9.17896 0,-13.76 -2.3e-5,-2.200908 -1.498765,-8.358653 1.939109,-8.503643 4.162748,-0.175556 3.18089,4.263291 3.18089,7.223643 v 25.28 c 0,2.60922 -1.312121,9.0336 2.256138,9.22967 3.489553,0.19174 2.863828,-3.20281 2.863862,-5.70967 8.8e-5,-6.35421 -5e-6,-12.92749 0,-19.2 3e-6,-2.2212 -0.842109,-6.17942 2.256138,-6.34967 3.972741,-0.21829 3.182236,4.98474 3.183772,7.62967 0.0014,2.35441 9e-5,5.04754 9e-5,7.36 0,1.44869 0,2.65714 0,4.16 0,4.30768 0,8.79478 0,13.12 0,2.3165 -1.25292,9.15129 1.956863,9.52676 3.723486,0.43556 3.1631,-3.04693 3.163137,-5.68676 v -18.56 c 0,-2.25654 -0.971116,-6.81233 2.256137,-6.98967 4.006712,-0.22015 2.863862,4.93671 2.863862,7.62967 l 1e-5,24.96 c 2.2e-4,2.30043 0.04646,4.525444 0.33062,6.698524 0.16282,1.24517 0.586768,2.04278 1.943321,2.18252 3.30997,0.34095 3.2208,-3.05987 3.136005,-5.361044 -0.239536,-6.50047 -0.28997,-12.88896 -0.289956,-19.52 5e-6,-2.35337 -0.804389,-5.86281 2.259077,-6.02967 1.139092,-0.062 2.263267,0.0845 2.804771,1.08432 0.794965,1.46786 0.376152,4.2505 0.376152,5.90535 v 24.960004 c 0,2.15268 -1.167793,8.93903 1.667519,9.48608 4.341162,0.83756 3.727324,-3.32397 3.736221,-6.28608 0.0046,-1.52469 -0.219863,-2.95812 -0.265957,-4.48 -0.131611,-4.34567 -0.01778,-8.766964 -0.01778,-13.120004 0,-2.29292 -0.910904,-6.96533 2.256137,-7.28103 2.11897,-0.21123 2.733223,0.94709 2.939776,2.80637 0.198471,1.78653 0.242861,3.16933 0.243994,5.11466 0.0048,8.331444 9.2e-5,16.672844 9.2e-5,25.280004 0,2.25097 -1.107768,7.71004 1.6669,8.42868 1.165278,0.30181 2.500058,0.0646 3.076948,-0.9667 0.671914,-1.20113 0.376089,-3.24017 0.376152,-4.58198 3.03e-4,-6.436 0.008,-12.30932 -2.49e-4,-18.88 -0.0026,-2.072764 -1.195503,-6.081924 1.638765,-6.606074 4.895957,-0.90541 3.481484,6.073934 3.481484,9.166074 v 24.00001 c 0,1.78195 -0.874111,6.87231 0.901611,7.9438 4.618989,2.78716 4.538389,-3.3921 4.538389,-6.0238 0,-6.75887 -0.268301,-13.47372 -0.316929,-20.16 -0.01913,-2.62965 0.571582,-5.89091 4.045532,-4.50984 2.431118,0.96649 1.391396,7.73084 1.391396,9.94983 v 22.72001 c 0,2.01897 -0.853242,6.64016 0.520704,8.26383 0.858476,1.01451 3.515244,0.96678 4.223144,-0.20546 0.840762,-1.39226 0.376152,-3.93632 0.376152,-5.49837 v -18.24001 c 0,-1.56233 -0.687851,-5.38402 0.901621,-6.34385 2.013955,-1.21615 6.402168,-0.37615 8.698379,-0.37615 h 22.399992 c 2.32736,0 9.2947,1.28693 9.79565,-1.6669 0.18943,-1.11692 -0.032,-2.50563 -1.05365,-3.07695 -1.49398,-0.83545 -4.19213,-0.37615 -5.862,-0.37615 H 94.666896 c -2.459297,0 -8.855996,1.23213 -9.201035,-2.25905 -0.374717,-3.79145 3.132471,-2.86788 5.681035,-2.86156 6.01997,0.0149 12.225064,6.1e-4 18.239994,6.1e-4 2.51498,0 7.13114,0.83946 7.24198,-2.56469 0.12468,-3.829024 -7.28153,-2.555314 -9.80198,-2.555314 -3.0426,0 -5.72105,0 -8.639994,0 -2.6825,0 -5.606924,0 -8.32,0 -2.323955,0 -4.619795,0 -7.04,0 -2.581499,0 -6.886132,0.923034 -7.677656,-1.96912 -1.004877,-3.67171 2.564937,-3.4705 5.117656,-3.47087 l 18.88,-10e-6 c 1.890264,0 6.432214,0.88534 6.926074,-1.6669 0.83437,-4.31203 -3.65524,-3.4531 -6.606074,-3.4531 H 73.866897 c -2.558574,0 -8.85728,1.14986 -9.201035,-2.26351 -0.08869,-0.88064 0.0011,-1.98416 0.822666,-2.48034 2.689858,-1.6245 9.397202,-0.30583 12.538369,-0.39332 2.021093,-0.0563 3.622553,-0.18615 5.759999,-0.20438 1.809561,-0.0154 3.316592,0.23028 5.12,0.21442 1.738271,-0.0153 6.450888,0.47603 6.926074,-1.97977 0.871269,-4.50274 -4.216582,-3.4531 -7.246074,-3.4531 -3.538847,0 -7.134087,0 -10.559999,0 -5.234458,0 -10.667827,0 -16,0 -1.819541,0 -4.003378,0.16687 -5.73852,-0.0829 -1.78522,-0.25697 -3.007461,-2.26851 -1.884946,-4.1356 0.572329,-0.95196 1.785781,-0.87756 2.825869,-0.89617 2.268657,-0.0406 4.745044,-0.005 7.037597,-0.005 h 23.359999 c 1.93291,-1e-5 6.34041,0.32874 7.623847,-0.82292 1.491153,-1.33804 0.696153,-4.58443 0.696153,-6.53708 0,-5.96008 0.336006,-12.6168 -0.17545,-18.239998 -0.231562,-2.545918 -0.77957,-5.823448 2.418389,-5.742881 1.134619,0.02858 2.145135,0.275273 2.587885,1.374394 0.70159,1.74167 0.28917,4.423721 0.28917,6.288485 v 25.92 c 0,2.03894 -0.36802,11.53136 4.42387,7.47926 1.33847,-1.13183 0.69613,-4.6342 0.69613,-6.19926 v -17.28 c 0,-2.14932 -1.02554,-6.72509 1.6669,-7.24607 1.22336,-0.23672 2.69056,-0.15187 3.19148,1.02072 0.60848,1.42437 0.26162,3.72052 0.26162,5.26535 0,8.71185 0.32,17.31719 0.32,25.92 0,2.3165 -1.25292,9.15129 1.95687,9.52676 3.84009,0.4492 3.16312,-3.33202 3.16313,-6.00676 2e-5,-6.41166 -0.32002,-12.79325 -0.32,-19.2 0,-1.46404 -0.31615,-3.59287 0.26162,-4.94535 0.48145,-1.12698 1.75654,-1.19303 2.9193,-1.06141 3.20669,0.363 2.25908,5.03906 2.25908,7.60676 l 1e-5,24.64 c 2e-4,2.02514 -0.60408,8.426574 1.71113,9.104364 4.57093,1.33815 3.72886,-4.30831 3.72886,-7.184364 0,-5.11295 0.0413,-9.67401 -0.003,-15.04 -0.0123,-1.49435 -0.15815,-2.70422 -0.25382,-4.15996 -0.15951,-2.42717 -0.006,-4.77009 3.09989,-4.4068 3.07771,0.36002 2.27557,6.81117 2.27678,8.88676 9.9e-4,1.69617 9e-5,3.09533 9e-5,4.8 0,6.40201 0,13.090704 0,19.520004 0,1.8088 -0.92063,7.18502 1.13451,8.058 4.58512,1.94768 3.98549,-3.80997 3.98549,-6.458 V 89.652766 c 3e-5,-2.63984 -0.56036,-6.12232 3.16313,-5.68676 3.15411,0.36896 2.00674,7.4957 2.1899,9.84676 0.58532,7.513404 0.087,15.984304 0.087,23.680004 0,1.81647 -0.8861,6.46129 0.69613,7.79926 4.07859,3.44893 4.42386,-3.41856 4.42387,-5.55926 10e-6,-3.65558 0,-7.57436 0,-11.2 0,-2.404 0.0106,-4.16508 -0.001,-6.72 -0.009,-1.845934 -0.47504,-3.626404 -0.18928,-5.400744 0.25363,-1.57492 1.60972,-2.02276 3.05161,-1.88029 3.30644,0.3267 2.25908,5.560384 2.25908,7.921034 0,5.14623 -0.2779,10.5649 0.0631,15.68 0.23131,3.46959 0.25689,6.28822 0.25689,9.92001 0,2.07776 -0.55808,4.94656 0.26162,6.86535 0.58757,1.37541 3.4038,1.54211 4.33768,0.43848 1.10166,-1.3019 0.5207,-4.43439 0.5207,-6.02383 0,-5.29831 0.32462,-10.71671 -0.087,-16.00001 -0.15403,-1.97711 -1.08204,-6.0793 0.4631,-7.62381 0.96674,-0.96633 3.54766,-0.99512 4.16249,0.43846 0.90314,2.10582 0.56979,5.02564 0.57997,7.18535 0.0418,8.86488 0.001,17.1813 0.001,25.92001 0,2.76286 -0.69068,9.08435 3.98549,7.09799 1.76691,-0.75056 1.13451,-5.11001 1.13451,-6.77799 v -18.24001 c 0,-1.64379 -0.68975,-5.28564 1.39152,-5.90535 2.87221,-0.85523 6.82258,-0.17465 9.80848,-0.17465 h 20.48 c 2.21779,0 9.05867,1.17657 9.95961,-1.39115 0.37771,-1.07652 0.12046,-2.74918 -0.92346,-3.3527 -1.48965,-0.86119 -4.17342,-0.37615 -5.83615,-0.37615 h -25.92 c -2.39908,0 -8.78701,1.19093 -8.89926,-2.25614 -0.10588,-3.25148 2.9573,-2.8635 5.37926,-2.86385 l 18.56,-1e-5 c 2.29199,0 7.00683,0.95817 7.18343,-2.25614 0.23024,-4.190684 -6.62771,-2.863864 -9.42343,-2.863864 h -24.64 c -1.51971,0 -3.34746,0.0676 -4.79466,-0.0397 -1.02269,-0.0758 -2.14566,-0.19173 -2.62272,-1.38618 -1.7942,-4.49226 3.80186,-4.01412 6.45738,-4.01412 h 18.88 c 1.92203,-2e-5 5.37793,0.68322 5.68675,-1.95686 0.52979,-4.52898 -5.70433,-3.16314 -8.56675,-3.16314 -8.31848,0 -16.63629,0 -24.96,0 -2.59398,0 -8.06986,1.14759 -7.93926,-2.86386 0.096,-2.95006 3.5667,-2.25611 5.69926,-2.25614 6.00927,-8e-5 12.25611,0.0145 18.24,-6.2e-4 1.73568,-0.004 6.22355,0.51892 6.86295,-1.71043 1.31293,-4.57779 -4.4369,-3.72895 -7.18295,-3.72895 h -25.6 c -2.41541,0 -11.37813,0.94838 -8.26371,-4.21842 0.57282,-0.95031 1.85362,-0.87884 2.82611,-0.89624 2.24444,-0.0401 4.79287,-0.005 7.0376,-0.005 7.44882,0 14.90282,0 22.4,0 2.02316,0 6.64053,0.84305 8.26525,-0.5207 1.25988,-1.0575 1.01842,-4.20591 0.98039,-5.5593 -0.17412,-6.19585 -0.28564,-12.18956 -0.28564,-18.56 0,-1.614274 -0.36629,-4.115533 0.26162,-5.585348 0.47019,-1.100644 1.71092,-1.200683 2.90152,-1.061406 3.15934,0.36957 1.95686,5.837754 1.95686,8.246754 0,8.60611 0.32,16.67565 0.32,25.28 0,2.17039 -0.35869,11.52344 4.42384,7.47926 1.35633,-1.14694 0.69616,-4.34261 0.69616,-5.87926 0,-5.80526 0,-11.77874 0,-17.6 0,-2.48807 -1.06313,-7.19119 2.25613,-7.29925 3.96855,-0.12921 2.86387,5.29904 2.86387,7.93925 0,7.04831 -0.33383,14.78506 0.0436,21.76 0.0798,1.4743 0.25082,2.69291 0.27064,4.16 0.0332,2.45661 -1.1032,7.60801 1.96258,7.92104 4.03348,0.41183 3.16317,-4.12651 3.16315,-6.96104 -2e-5,-2.64844 -0.14073,-4.53344 -0.27637,-7.04 -0.19537,-3.61007 -0.0436,-7.55534 -0.0436,-11.2 0,-2.70442 -0.66145,-6.44171 3.18091,-6.00675 3.35239,0.3795 2.25909,5.3278 2.25909,7.92675 0,3.16839 0,5.6333 0,8.64 0,5.14544 0,10.51313 0,15.68 0,2.19178 -1.01694,8.968144 1.66752,9.486074 3.7724,0.72785 3.77209,-2.41127 3.77248,-5.326074 8.9e-4,-6.50729 0.42607,-12.92715 -0.14455,-19.2 -0.25456,-2.79823 -0.82897,-7.32947 3.30626,-6.60313 2.89096,0.50778 1.95829,5.39881 1.95829,7.56313 v 24.640014 c 0,2.01351 -0.91022,8.43058 1.39115,9.10435 3.99982,1.17102 3.72883,-2.82402 3.72885,-5.58435 5e-5,-5.00274 0,-10.400344 0,-15.360014 0,-1.57674 -6e-5,-2.89079 0,-4.48 9e-5,-2.29275 -0.49838,-6.09356 2.84902,-5.57626 2.06869,0.31968 2.18775,2.07921 2.25078,3.65717 0.0709,1.7741 0.0202,3.92646 0.0202,5.75909 0,2.47056 0,4.3537 0,6.720004 0,5.77374 0,11.80192 0,17.60001 0,1.77754 -0.76034,6.93078 1.1346,7.73824 4.11813,1.75481 4.30528,-2.32293 4.3054,-5.17824 2.1e-4,-5.31785 0,-11.04797 0,-16.32001 0,-1.55533 -2.2e-4,-2.93304 0,-4.480004 3.5e-4,-2.52396 -0.34557,-5.62851 3.1523,-5.00312 1.50246,0.26862 1.8543,1.41837 1.93885,2.76847 0.13578,2.16816 0.0288,4.394644 0.0288,6.714654 v 24.00001 c 0,1.91714 -0.83501,6.88126 1.13452,7.94346 4.43359,2.39113 3.98548,-3.85671 3.98548,-6.34346 v -18.88005 c 2e-5,-2.63984 -0.56033,-6.12232 3.16315,-5.68676 2.74199,0.32075 1.89521,4.06134 2.00049,6.00676 0.0798,1.47429 0.25082,2.69292 0.27064,4.16 0.0561,4.15087 0.006,7.30469 0.006,11.20001 0,3.93341 0,8.19362 0,12.16 0,1.77091 -0.88738,6.87913 1.13452,7.73799 4.70302,1.99778 3.98548,-4.11705 3.98548,-6.77799 0,-3.19398 0,-6.77292 0,-9.92 0,-4.93436 -0.63953,-9.66963 0.32,-14.40001 4.31485,0.78318 7.4267,-0.0161 11.84,0.0567 2.18088,0.036 4.23282,0.25996 6.4,0.26291 4.50721,0.006 9.23022,3.7e-4 13.76,3.7e-4 1.91483,0 4.22198,0.0279 6.0776,-0.005 1.70111,-0.0304 3.03154,-0.0407 3.15207,-2.25373 0.11859,-2.17754 -0.97328,-3.17657 -3.15207,-3.12623 -1.61248,0.0373 -3.11893,0.26545 -4.7976,0.25897 -1.96334,-0.008 -3.77424,-0.21092 -5.76,-0.28657 -6.00336,-0.22868 -12.21609,-0.0271 -18.24,-0.0271 -2.62918,0 -8.86877,1.25541 -9.40511,-2.25613 -0.58887,-3.85536 4.3573,-2.86387 6.84511,-2.86387 h 18.56 c 2.75951,-3e-5 6.41024,0.49604 5.64608,-3.4531 -0.53825,-2.781594 -7.11569,-1.666904 -9.16608,-1.666904 -7.448,0 -15.92447,0.217114 -23.68,-0.0178 -1.3388,-0.0405 -2.46943,-0.22911 -3.84,-0.26461 -1.65617,-0.0429 -3.98226,0.528574 -4.68607,-1.41974 -1.54752,-4.28388 3.51557,-3.73786 6.28607,-3.73786 h 19.2 c 2.49881,-1.2e-4 5.94963,0.38521 5.32313,-3.16314 -0.53953,-3.05576 -6.82891,-1.95686 -9.16313,-1.95686 h -24 c -1.76748,0 -6.91335,0.80777 -7.94371,-0.90159 -2.87162,-4.76398 4.59373,-4.21841 6.98371,-4.21841 3.04711,0 6.87272,0 9.92,0 1.29811,0 2.51489,0 3.84,0 2.18121,0 7.47475,0.95924 9.22385,-0.52071 0.8527,-0.72148 0.81805,-2.52269 0.52111,-3.5279 -0.7571,-2.56313 -8.2532,-1.39139 -10.38496,-1.39139 h -21.43999 c -2.29616,0 -6.68448,0.84003 -8.69838,-0.37616 -1.46196,-0.88286 -1.16078,-4.07769 0.4899,-4.5692 3.76211,-1.12022 9.0884,-0.17464 13.00847,-0.17464 h 10.88 15.68"
       id="path1" /></g></svg>
