<?xml version="1.0" encoding="UTF-8" standalone="no"?>
<!-- Created with Inkscape (http://www.inkscape.org/) -->

<svg
   version="1.1"
   id="svg1"
   width="272.54004"
   height="83.573418"
   viewBox="0 0 272.54004 83.573418"
   xmlns="http://www.w3.org/2000/svg"
   xmlns:svg="http://www.w3.org/2000/svg">
  <defs
     id="defs1" />
  <g
     id="g1"
     transform="translate(35.837039,46.333472)">
    <path
       style="fill:none;stroke:#463b28"
       d="M -0.44076605,36.490151 H 31.559236 c 2.158554,0 5.655937,0.669942 7.632593,-0.193086 0.921518,-0.402344 1.486328,-2.2881 0.500493,-2.979258 -0.889668,-0.62374 -1.459805,0.75667 -2.148643,1.060742 -1.051386,0.464102 -2.619795,0.191602 -3.744443,0.191602 H 13.319235 c -1.706763,0 -7.668867,0.913115 -7.946421,-1.297285 -0.09041,-0.719966 0.174472,-1.932378 1.149629,-1.663701 0.997944,0.274951 1.144887,1.2358 2.322964,1.342221 6.614092,0.597491 14.098072,0.01877 20.793829,0.01877 1.606958,0 6.095215,0.742144 6.846665,-1.007407 0.26084,-0.607295 0.334448,-2.053033 -0.507158,-2.218023 -0.788477,-0.15458 -2.823067,1.302803 -4.099507,1.30543 -5.540723,0.0114 -11.101759,-0.147158 -16.640001,0.0163 -1.532895,0.04524 -6.016587,1.168613 -6.351113,-0.999263 -0.09342,-0.605395 -0.05549,-2.056895 0.891606,-1.923701 0.892271,0.125478 1.303491,1.101626 2.273335,1.259258 4.208384,0.684013 9.437207,0.04741 13.746172,0.04741 1.831656,0 4.669444,0.541851 6.352594,-0.193086 1.649443,-0.72022 0.951377,-2.651987 -0.272593,-3.326914 -1.877954,3.013154 -11.454097,1.573916 -15.040001,1.784199 -1.506162,0.08832 -4.3546,0.654067 -4.455064,-1.470127 -0.02694,-0.5696 0.06338,-1.749004 0.886915,-1.620737 0.90684,0.14124 1.212524,1.190171 2.294321,1.2879 3.167778,0.286162 6.709478,0.01877 9.913828,0.01877 1.064327,0 3.389796,0.436992 3.966915,-0.741729 0.298994,-0.610674 0.377749,-2.304209 -0.502715,-2.483701 -0.70063,-0.142837 -1.435064,1.129609 -2.202715,1.258023 -2.534531,0.423989 -7.355,1.007622 -9.854078,0.265678 -0.975112,-0.289497 -1.667314,-2.847324 -0.311606,-3.123701 0.723535,-0.147505 1.235552,1.013457 1.910127,1.203945 1.516323,0.428189 4.809595,0.418741 6.335308,-2.44e-4 1.85,-0.508042 1.381352,-2.666909 0.01876,-3.418271 -1.142871,2.457905 -6.335171,2.87312 -5.338271,-0.591114 0.649126,-2.255722 2.070981,1.583321 2.950864,-0.156787 0.439331,-0.868847 0.03686,-2.188003 -0.86,-2.579013 -3.252129,-1.417862 -9.520415,-0.193086 -13.072593,-0.193086 -2.911123,0 -5.595633,0.255732 -4.48,-3.520001 0.632832,0.341543 1.512011,1.748448 2.23852,1.625186 1.288545,-0.218623 1.160933,-2.568936 0.219751,-3.0321 C 4.196506,9.3109159 2.336718,10.909442 0.51922995,11.850164 -0.74320605,7.5775859 4.435617,7.5925029 7.540715,8.4318929 c 0.87312,0.236025 1.191914,1.385078 1.986665,1.523701 1.021485,0.1781741 0.982383,-1.622041 0.809878,-2.218022 C 9.944817,6.3817369 8.028074,6.7302329 6.919231,6.7301639 4.595334,6.7300179 1.525341,6.1990509 -0.71484205,6.8316489 -1.415391,7.0294709 -1.735955,7.9320199 -2.408919,8.0368339 c -0.705498,0.109878 -0.874563,-0.804633 -0.874319,-1.311362 10e-4,-2.183218 2.220164,-1.915205 3.80246795,-1.915308 3.26360905,-2.1e-4 10.53388805,-1.431982 12.16000105,1.92 2.85334,-1.573398 0.495986,-3.518916 -1.92,-3.52 -2.452886,-0.0011 -4.907007,0 -7.36,0 H -1.08077 c -1.039338,0 -2.451132,-0.237597 -3.424443,0.191607 -0.545498,0.240551 -0.970933,1.25019 -1.639754,1.113823 -1.266755,-0.258272 -0.646584,-2.519229 0.311604,-2.803701 4.710892,-1.39859902 11.955587,-0.101729 16.912594,-0.101729 2.119834,0 4.087813,-0.521357 5.12,1.6 1.25023,-0.689404 1.965137,-2.91578102 0.272593,-3.41827102 -2.195943,-0.651944 -5.325284,-0.101729 -7.632593,-0.101729 -5.156612,0 -10.54033,-0.447041 -15.673829,0.01877 -1.13981,0.103423 -1.643052,1.52427202 -2.56469,1.51530702 -0.934631,-0.0091 -1.039824,-1.46729402 -0.858271,-2.12666502 0.49394,-1.79392098 5.45021,-1.00740698 6.936789,-1.00740698 h 16.960001 c 2.253794,0 4.98166,-0.657324 6.08,1.59999998 1.13438,-0.625522 1.973194,-2.58435498 0.272593,-3.32691398 -1.680093,-0.733603 -4.539536,-0.193086 -6.352593,-0.193086 H -7.480766 c -1.158833,0 -2.672534,-0.261592 -3.757036,0.191607 -0.637947,0.266586 -1.153045,1.254184 -1.918521,1.113823 -1.099336,-0.201572 -0.902485,-3.35396 -0.531604,-4.07753 0.207835,-0.405478 0.588753,-0.567714 1.010371,-0.373086 2.248248,1.037857 2.984532,1.545186 5.83679,1.545186 h 21.440001 c 1.877437,0 6.361118,0.891563 6.362471,-1.915308 2.29e-4,-0.474423 -0.104185,-1.200576 -0.662964,-1.310122 -0.750962,-0.147221 -1.478418,1.016001 -2.196792,1.203951 -1.254004,0.328085 -2.837383,0.101479 -4.142715,0.101479 H -2.680766 c -1.900268,0 -5.232239,0.646392 -6.938271,-0.193086 -1.140489,-0.561191 -0.705647,-2.366021 -0.421729,-3.3269139 0.961817,0.494346 1.541526,1.5298879 2.593335,1.8182709 1.781402,0.488423 4.188181,0.101729 6.046665,0.101729 h 12.800001 c 1.469014,0 4.080405,0.510552 5.338272,-0.328892 0.747378,-0.498769 1.018945,-1.9305559 0.414321,-2.6718449 -0.377896,-0.463311 -3.675069,1.080234 -4.792593,1.080737 H -1.400766 c -1.287202,0 -3.876001,0.50353 -4.926914,-0.328892 -0.871604,-0.690395 -0.457405,-2.296548 -0.193086,-3.191108 0.8649,0.466792 1.344344,1.547012 2.285928,1.818271 3.93373995,1.133267 9.613213,0.101729 13.714073,0.101729 1.417256,0 6.372559,-0.348106 4.157285,-2.98815 -0.603115,-0.718759 -2.009429,1.020435 -2.883457,1.075064 -3.4844,0.217793 -7.060987,-0.0067 -10.55382905,-0.0069 -0.96573,-6.4e-5 -2.80673795,0.332041 -3.32666695,-0.741729 -0.280335,-0.57895 -0.305139,-1.999043 0.502471,-2.163701 0.76342,-0.155649 1.575915,1.202251 2.51036795,1.286665 2.55644105,0.230943 6.42162205,0.382041 8.94765705,-0.02864 2.042197,-0.332022 1.878359,-2.616675 0.326172,-3.472593 -1.039419,2.235429 -5.896944,2.869155 -8.21827205,1.726914 -0.811448,-0.399282 -1.148176,-2.384038 -0.247161,-2.950616 0.70893605,-0.445791 1.29278605,0.790352 1.84098905,1.032095 0.845386,0.372793 3.110791,0.465528 3.871358,-0.137285 1.212637,-0.961113 0.215224,-2.649531 -0.766914,-3.191108 -0.232388,0.498691 -0.652378,1.81311 -1.479756,1.489384 -1.288775,-0.504257 -0.245415,-2.535756 -1.767652,-2.987656 -4.621338,-1.371909 -10.689121,1.115283 -15.266665,-0.203457 -0.974273,-0.280679 -1.393536,-1.336641 -2.285928,-1.818271 -1.29836,2.790761 -3.263659,0.622177 -1.911111,-1.086915 1.624504,-2.052739 4.145427,0.601978 5.507901,0.79358 1.064196,0.149658 1.343239,-1.45043 1.008642,-2.164937 -0.44041,-0.940464 -1.829321,-0.739966 -2.685432,-0.741729 -1.45895,-0.003 -3.363172,-0.281738 -4.758765,0.10148 -0.763873,0.209751 -1.358843,1.357598 -2.196791,1.20395 -0.766506,-0.140547 -0.763712,-1.342934 -0.675555,-1.926914 0.203954,-1.351064 1.399054,-1.290605 2.511111,-1.298271 2.575554,-0.01775 6.14093,-0.604039 8.594072,0.101484 0.789358,0.227021 1.142105,1.411362 1.964446,1.3879 1.009693,-0.0288 1.078706,-1.676064 0.76815,-2.376543 -0.634568,-1.431343 -3.008548,-1.033121 -4.286668,-1.033121 -3.15148,0 -7.490727,-0.769135 -10.514074,0.101729 -0.86642,0.24957 -1.103924,1.388594 -1.964445,1.523701 -0.748723,0.117554 -0.91137,-0.771323 -0.936543,-1.310122 -0.123408,-2.641494 3.294734,-1.915308 5.095062,-1.915308 4.115478,0 8.735508,-0.349492 12.793828,0.01877 1.126514,0.102222 1.639339,1.497266 2.56469,1.470864 0.99626,-0.02842 1.098467,-1.665371 0.76815,-2.3479 -0.643838,-1.330362 -4.292498,-0.741734 -5.566668,-0.741734 -4.910957,0 -9.806319,-0.204189 -14.72,-0.282715 -1.478209,-0.02362 -4.130048,2.569839 -4.431112,0.583951 -0.489726,-3.230357 4.620722,-2.221236 6.671112,-2.221236 5.648818,0 11.312698,-0.01162 16.96,0 0.767024,0.0016 1.721853,-0.136772 2.373086,0.327407 0.482806,0.344131 0.687034,1.44275 1.41234695,1.297779 0.799997,-0.159898 0.76445,-1.624024 0.592592,-2.217779 -0.525222,-1.814599 -5.44118595,-1.007407 -6.93802495,-1.007407 -6.309199,0 -12.926264,0.570449 -19.200001,-0.0879 -1.675196,-0.175791 -5.133321,2.089585 -5.391111,0.389135 -0.503102,-3.318589 5.208809,-2.221235 7.311111,-2.221235 h 19.520001 c 2.673111,0 5.79960295,-0.747656 7.040001,1.92 1.123225,-0.619375 2.097075,-2.876606 0.272592,-3.418272 -2.38720705,-0.70873 -5.78509,-0.101728 -8.272593,-0.101728 -6.633276,0 -13.55804,0.573506 -20.160001,-0.05433 -1.94093,-0.18458 -4.432691,-0.592823 -6.354074,-0.13999 -0.889064,0.209536 -1.250501,1.670341 -2.202716,1.499502 -0.962668,-0.172715 -0.856117,-2.128575 -0.394321,-2.7121 0.71413,-0.902383 2.823251,-0.513086 3.831111,-0.513086 h 10.560001 44.160001 c 4.168472,0 8.327203,0.299736 12.480001,0.319756 1.153999,0.0056 3.68771,-0.463819 4.0521,1.007402 0.161943,0.653838 -0.04791,1.756099 -0.853579,1.898272 -0.785357,0.138589 -1.223985,-0.994854 -1.964449,-1.203951 -1.522397,-0.429897 -3.485498,-0.101479 -5.074072,-0.101479 H 13.639235 c -2.053106,0 -5.729043,-0.716856 -7.578272,0.193086 -1.174013,0.57769 -0.713564,2.339219 -0.421728,3.326914 0.920825,-0.485298 1.540981,-1.54167 2.577285,-1.818271 1.954888,-0.521783 4.665991,-0.101729 6.702715,-0.101729 4.796177,0 9.605328,-0.102344 14.400001,0.01604 1.426884,0.03523 9.277432,-0.572949 7.032344,2.756055 -0.328799,0.487539 -4.526143,-0.8521 -5.752344,-0.8521 H 15.879235 c -1.739707,0 -4.724522,-0.581299 -6.298272,0.193086 -1.174013,0.57769 -0.713564,2.339219 -0.421728,3.326914 0.851846,-0.459746 1.342988,-1.546621 2.285928,-1.818271 4.404243,-1.268819 11.305581,-0.101729 15.954073,-0.101729 1.431372,0 7.605034,-0.456909 5.432344,2.7721 -0.615103,0.91415 -2.960035,-0.843638 -4.152344,-0.851856 -3.83959,-0.02647 -7.680308,-2.44e-4 -11.520001,-2.44e-4 -1.141807,0 -3.343481,-0.418398 -4.286914,0.328892 -0.921514,0.729927 -0.466704,2.265063 -0.193086,3.191108 0.787275,-0.424897 1.205078,-1.356919 2.015557,-1.727158 1.102964,-0.503848 2.873471,-0.192842 4.064443,-0.192842 2.98127,0 6.331685,-0.430927 9.273829,0.04741 2.104018,0.34207 1.827422,2.644765 0.326172,3.472592 -1.332828,-2.739228 -6.262579,-1.6 -8.960001,-1.6 -0.91458,0 -2.561079,-0.298354 -3.322222,0.328892 -0.885107,0.729399 -0.15747,2.364619 0.122222,3.191108 0.799624,-0.431562 1.20771,-1.35812 2.015557,-1.727158 1.450474,-0.662593 4.394424,-0.315029 5.982964,-0.174077 2.22748,0.197647 2.371885,2.547046 0.641479,3.501235 -1.128354,-2.318994 -7.014751,-2.268066 -5.566914,0.890372 0.797715,1.74021 1.974824,-1.051172 2.832344,-0.514073 1.029732,0.644961 -2.49e-4,2.342154 1.236299,2.950616 2.881523,1.417895 9.160113,0.193086 12.378272,0.193086 2.041338,0 3.818311,-0.417569 4.8,1.6 0.660381,-0.341812 1.477485,-1.403902 2.233828,-1.396788 1.258619,0.01184 1.081748,2.174654 0.453086,2.803702 -0.756479,0.756943 -2.635576,0.633081 -3.628398,0.465678 -1.132837,-0.19101 -1.609815,-1.349775 -2.578516,-1.872592 -1.366563,4.623271 3.718379,4.288506 7.022715,3.41852 0.781802,-0.205835 2.089736,-1.992695 2.705684,-0.75062 1.148623,2.31625 -1.280606,2.771323 -3.008399,2.7721 -3.753345,0.0017 -7.196611,0.797378 -9.92,-1.92 -0.457544,0.857534 -1.167764,2.702187 0.101728,3.326914 2.738208,1.34749 9.608116,0.321294 12.698028,0.186914 1.306465,-0.05682 1.811895,-1.139624 2.915801,-1.300493 0.830967,-0.121094 0.940596,1.040039 0.870869,1.621972 -0.241797,2.017999 -2.605879,1.604693 -4.106426,1.604693 -4.24415,0 -8.915098,0.362231 -13.113828,-0.01877 -1.201602,-0.109033 -1.797188,-1.78687 -2.802959,-1.606421 -0.917256,0.164571 -0.820713,1.889956 -0.530127,2.483457 0.637558,1.302163 4.006928,0.741729 5.246914,0.741729 4.795796,0 9.605615,0.03275 14.4,-2.44e-4 1.39417,-0.0096 4.185118,-2.265962 4.426426,-0.300991 0.39792,3.2401899 -4.485137,2.003447 -6.346426,1.971606 -5.866899,-0.100361 -11.70646,0.182808 -17.598521,-0.07654 -1.225991,-0.05397 -1.923574,-1.399912 -2.88,-1.390615 -1.034131,0.01005 -1.066392,1.594619 -0.859507,2.3093799 0.52523,1.814604 5.441187,1.007407 6.938028,1.007407 h 18.560001 c 1.721582,0 5.86497,-2.2982759 5.693828,-9.86e-4 -0.190479,2.556826 -5.831328,1.600986 -7.613829,1.600986 h -20.8 c -1.11771,0 -2.702984,0.26812 -3.744444,-0.191606 -0.633184,-0.279502 -0.934165,-1.212569 -1.694077,-1.205181 -0.606485,0.0059 -0.847759,0.584907 -0.9,1.095303 -0.341978,3.340996 5.843569,2.221484 7.938521,2.221484 h 21.760001 c 2.670683,0 6.095469,0.79957 7.36,-1.92 1.884473,1.039146 1.8325,4.429522 0,5.44 -1.399737,-2.940967 -5.485371,-1.92 -8.32,-1.92 H 29.319236 c -2.856558,0 -7.926236,-0.885322 -6.080001,3.51999998 2.427115,-1.25626898 4.874073,-1.59999998 8.000001,-1.59999998 h 18.88 c 1.835411,0 4.967198,-0.619419 6.618272,0.193086 1.476416,0.72655298 0.569053,2.71631398 -0.538271,3.326914 -1.240401,-2.667656 -4.366885,-1.92000002 -7.040001,-1.92000002 -6.932236,0 -14.916465,-1.11537598 -21.741236,0.04741 -1.208213,0.205855 -1.968589,2.41066002 -0.791601,3.09629402 0.823589,0.479766 1.44561,-0.743676 2.1358,-1.032094 1.233624,-0.515513 3.063458,-0.191607 4.397037,-0.191607 h 5.44 8.96 c 1.598848,0 4.215577,-0.516875 5.658272,0.193086 1.476416,0.726553 0.569053,2.716314 -0.538271,3.326914 -0.922081,-2.404931 -2.78292,-1.92 -5.120001,-1.92 h -12.8 c -1.800967,0 -5.217598,-0.730732 -5.095064,1.915308 0.02379,0.513774 0.163623,1.424009 0.886914,1.311362 1.141836,-0.177842 2.072764,-1.387676 3.56815,-1.53062 3.67856,-0.351645 7.783443,0.22395 11.52,0.22395 1.402334,0 4.506475,-0.611718 4.746426,1.297286 0.06349,0.505107 0.0081,1.475556 -0.642226,1.608144 -0.783907,0.159829 -1.520166,-1.197217 -2.510372,-1.286665 -3.155766,-0.285083 -6.715273,-0.01876 -9.913828,-0.01876 -1.069795,0 -3.394561,-0.427256 -3.966914,0.741729 -0.29645,0.605478 -0.346324,2.317051 0.502715,2.483457 0.787822,0.1544041 1.386582,-1.302832 2.202715,-1.523457 2.144526,-0.579722 10.765654,-1.082783 10.849629,1.8135791 0.01572,0.542153 -0.142735,1.422495 -0.883945,1.311362 -0.691524,-0.103686 -0.99296,-1.002666 -1.710128,-1.205185 -1.386406,-0.3915041 -5.972915,-0.6819781 -7.120986,0.227402 -0.921504,0.729922 -0.466704,2.265069 -0.193086,3.191114 1.732646,-0.91315 2.224673,-2.007471 4.479756,-1.913829 0.624883,0.02595 2.193511,0.171006 1.809629,1.190865 -0.363779,0.96645 -1.890347,0.50622 -2.576299,1.05185 -0.923188,0.734336 -0.466621,2.265362 -0.193086,3.191114 0.914546,-0.481988 1.525635,-1.537574 2.577285,-1.818272 4.193145,-1.119199 10.031505,-0.09977 14.382716,-0.101728 0.976103,-4.4e-4 4.529248,-1.384141 4.797041,-1.06815 2.087025,2.462661 -3.158272,3.054937 -2.500742,4.093828 1.431699,2.262071 5.256247,-1.475923 6.020747,-0.573828 1.21242,1.43064 -0.45578,2.918291 -1.91729,2.981978 -1.567822,0.06831 -4.235733,0.465874 -5.664209,-0.18667 -0.80878,-0.369458 -1.204883,-1.289639 -2.015547,-1.727158 -1.514463,5.125517 6.594512,3.794033 9.918516,3.501235 1.17007,-0.103066 3.20231,-2.448144 3.46791,-0.282471 0.11844,0.965752 -0.24978,1.846153 -1.24519,2.119507 -3.09519,0.849991 -9.911139,0.591866 -13.082477,0.05432 -1.031171,-0.174786 -1.131777,-1.422056 -1.991601,-1.578023 -1.189678,-0.215806 -1.001983,2.176943 -0.578272,2.712344 0.744102,0.940254 3.073477,0.513086 4.151114,0.513086 3.943213,0 7.897916,0.02689 11.839996,-2.44e-4 1.22857,-0.0085 4.02248,-2.016309 4.37235,-0.591114 0.70266,2.862374 -4.00584,2.191358 -5.65235,2.191358 -4.903658,0 -9.817067,0.0912 -14.719752,-0.0015 -1.070713,-0.02024 -2.493858,-1.436577 -3.144444,-1.303945 -0.889805,0.181397 -0.804443,1.867432 -0.502715,2.483701 0.64002,1.307193 4.005088,0.741729 5.246915,0.741729 h 16.639996 c 1.45691,0 5.37437,-1.717627 5.6521,-0.592593 0.77498,3.139243 -5.17321,2.192593 -6.9321,2.192593 -6.840201,0 -13.98442,0.596367 -20.793825,-0.01876 -1.101279,-0.09949 -1.632715,-1.387085 -2.564687,-1.378027 -1.034786,0.01006 -1.0692,1.584961 -0.859512,2.309385 0.522109,1.803813 6.004199,1.007407 7.578028,1.007407 h 20.799996 c 1.68947,0 6.22146,-1.776357 6.33383,-0.302715 0.22967,3.011729 -6.65461,1.902715 -8.57383,1.902715 H 48.839236 c -1.27748,0 -2.895185,0.242803 -4.114072,-0.101484 -0.834507,-0.235713 -1.082808,-1.303877 -1.964448,-1.295308 -0.937867,0.0091 -1.018189,1.318716 -0.912593,2.018276 0.263003,1.742325 2.492783,1.298516 3.791113,1.298516 h 12.160001 44.800003 10.56 c 1.25684,-5.66e-4 3.02236,0.242354 3.41679,-1.298516 0.17646,-0.689336 0.0775,-2.009179 -0.85828,-2.018276 -1.0217,-0.0099 -1.60094,1.334321 -2.88,1.39062 -7.64671,0.336582 -15.383557,0.0062 -23.038507,0.0062 -1.57464,0 -7.37701,0.869824 -7.8968,-1.007158 -0.15686,-0.566392 -0.10678,-2.042085 0.80865,-1.899507 0.77513,0.120723 1.09217,1.11 1.98666,1.259258 6.74129,1.124878 14.57851,0.04741 21.421487,0.04741 1.60692,0 6.09525,0.742061 6.84667,-1.007407 0.30695,-0.714663 0.25067,-2.299478 -0.76816,-2.309385 -0.95735,-0.0093 -1.43945,1.276377 -2.56469,1.378027 -6.07774,0.549034 -12.449027,0.01876 -18.553817,0.01876 -2.37091,0 -8.13152,0.0089 -4.80001,-3.52 1.47429,2.34206 3.18126,1.92 5.76001,1.92 h 12.159997 c 1.85818,0 5.74204,0.678437 5.38642,-2.221235 -0.057,-0.4648 -0.27391,-1.092427 -0.87087,-1.00543 -0.8576,0.124975 -1.31391,1.105141 -2.28148,1.259258 -4.09203,0.651787 -8.648637,-0.04946 -12.794067,0.0521 -1.19588,0.0293 -3.93694,0.941841 -4.60692,-0.426421 -0.29451,-0.601474 -0.35309,-2.309238 0.50272,-2.483701 0.73081,-0.148989 1.58291,1.202881 2.51037,1.286665 3.61154,0.32625 9.597577,0.94689 13.066417,-0.08296 1.87766,-0.557451 0.77959,-2.838071 -0.27259,-3.418271 -1.1934,2.566582 -9.162317,2.994453 -11.738277,1.726914 -0.76966,-0.378726 -1.26943,-2.78292 -0.0459,-3.032344 0.72354,-0.147505 1.23552,1.013457 1.91011,1.203945 1.44655,0.408482 5.512397,0.587486 6.892357,-0.0916 1.53347,-0.754639 0.48547,-2.762403 -0.53827,-3.326914 -1.21879,2.621186 -7.286247,2.631103 -5.567167,-0.856792 0.96545,-1.958824 1.97607,1.55122 3.00445,0.324941 0.67506,-0.804971 0.24859,-2.387583 -0.68469,-2.795063 -3.24963,-1.418824 -9.52228,-0.193086 -13.0726,-0.193086 -2.91112,0 -5.59563,0.255737 -4.48,-3.520001 0.67181,0.403658 1.38292,1.786714 2.1842,1.62543 1.0427,-0.209873 0.81066,-2.39915 0.18272,-2.896543 -2.15338,-1.7056831 -4.06591,1.271201 -5.51111,0.976543 -1.18128,-0.24084 -0.64693,-2.4341601 0.0459,-2.8965431 1.19773,-0.799307 5.57668,-0.687402 6.89236,-0.136045 0.69218,0.290069 1.7424,2.3403231 2.41431,0.979258 1.18423,-2.398838 -1.31156,-2.771338 -3.0084,-2.7721 -4.0077,-0.0018 -6.80977,-0.175468 -10.24,1.6 -0.24701,-0.837763 -0.63735,-2.213222 0.19309,-2.871113 0.89192,-0.706597 2.89077,-0.328887 3.96691,-0.328887 3.01077,0 10.06121,-1.398134 11.52001,1.6 3.31506,-1.827998 -0.34274,-3.519858 -2.56001,-3.52 h -7.36 c -2.13172,0 -4.95987,-0.492041 -6.99284,0.101729 -0.76096,0.222256 -1.13031,1.679809 -1.91259,1.523457 -1.23224,-0.246289 -0.72272,-2.816016 0.31284,-3.123457 4.71068,-1.39853502 11.95575,-0.101729 16.91259,-0.101729 2.11984,0 4.08782,-0.521357 5.12001,1.6 1.30936,-0.722011 1.90712,-2.88939402 -0.0188,-3.41827102 -2.3556,-0.646885 -5.54206,-0.101729 -7.98125,-0.101729 -4.89864,0 -10.5171,-0.76603998 -15.34148,0.04741 -1.05911,0.17858 -1.31557,1.43021002 -2.25703,1.57802302 -0.96451,0.151435 -1.00769,-1.29703602 -0.9126,-1.92691402 0.33003,-2.18619198 5.35658,-1.29851598 6.99111,-1.29851598 h 18.56001 c 1.67104,0 5.55061,1.95507798 5.69382,-0.0049 0.21921,-3.00021 -6.94466,-1.915059 -8.89383,-1.915059 h -20.16 c -0.94023,0 -2.22872,-0.206875 -3.10445,0.192842 -0.7055,0.322012 -1.03264,1.59376 -1.93233,1.432344 -1.098802,-0.197139 -0.810296,-3.060498 -0.675814,-3.846172 0.08277,-0.483545 0.300625,-1.100757 0.914084,-1.004444 0.79003,0.124038 0.98861,1.110596 1.69406,1.432588 1.05027,0.479385 2.60361,0.192842 3.74445,0.192842 h 20.80001 c 1.77366,0 7.01999,0.876655 7.57679,-1.298516 0.18031,-0.704404 0.086,-2.009091 -0.85828,-2.018271 -0.93837,-0.0091 -1.44926,1.277256 -2.56469,1.378022 -6.80941,0.615142 -13.95361,0.01876 -20.79383,0.01876 -1.81035,0 -7.34995,0.99752 -6.98642,-1.902715 0.24487,-1.9535889 3.52618,0.302022 5.06642,0.302715 5.43989,0.0024 10.88009,0 16.32,0 1.63816,0 5.77156,0.753242 6.2968,-1.2985159 0.14943,-0.583676 0.16129,-1.778203 -0.59728,-1.926914 -0.85529,-0.167671 -2.28479,1.281851 -3.45951,1.30395 -4.77809,0.08989 -9.61738,-0.10915 -14.40001,0.0062 -1.69217,0.0408 -5.72115,1.1020659 -5.72247,-1.603457 -2.5e-4,-0.525791 0.17399,-1.411797 0.88692,-1.3079 0.88236,0.128584 1.30371,1.103515 2.28148,1.259258 3.93504,0.626782 8.76954,0.04741 12.79407,0.04741 1.44801,0 4.22864,0.530268 4.6968,-1.298516 0.1478,-0.577358 0.16123,-1.778911 -0.5926,-1.92667 -0.77246,-0.151411 -1.5994,1.43042 -2.51037,1.577779 -2.94902,0.477036 -6.57543,0.04741 -9.59383,0.04741 -1.39523,0 -4.1514,0.554336 -4.43111,-1.298516 -0.0893,-0.591631 -0.0999,-1.774673 0.64692,-1.926914 0.69507,-0.141699 1.41173,1.126035 2.20271,1.258023 2.52362,0.421103 5.42231,0.05267 7.98148,0.04741 0.86009,-0.0018 2.23052,0.200327 2.68667,-0.741729 0.27581,-0.569585 0.29213,-2.007007 -0.50715,-2.163701 -0.82146,-0.16104 -1.38726,0.992153 -2.1968,1.20395 -1.52964,0.400196 -4.81408,0.451382 -6.33531,-2.49e-4 -0.95758,-0.284292 -1.66739,-2.85272 -0.31284,-3.123457 0.72085,-0.144077 0.95148,0.970386 1.41235,1.297778 0.91627,0.650914 3.30841,0.301563 4.19136,-0.316792 1.40918,-0.986889 0.47398,-2.506035 -0.53828,-3.1958 l -1.92,1.92 c -0.30434,-1.029273 -0.0101,-2.809463 -1.06172,-3.326914 -1.16015,-0.57087 -3.09876,-0.193086 -4.37828,-0.193086 -3.41124,0 -6.82919,0.063 -10.23975,-0.0015 -1.40369,-0.02654 -1.869045,-1.13916 -2.934572,-1.305435 -0.954951,-0.149018 -1.339278,1.501045 -2.318516,0.930616 -0.76748,-0.44708 -0.640127,-2.303076 0.0059,-2.81481 1.813389,-1.436382 4.57025,-0.17373 5.24691,1.591109 1.25022,-0.6894 1.96514,-2.915777 0.2726,-3.418272 -3.231219,-0.959415 -6.298095,0.144965 -8.912528,1.498187 -0.260645,-0.882109 -0.730381,-2.459633 0.193086,-3.191108 0.783545,-0.620649 2.395644,-0.328892 3.326914,-0.328892 2.904238,0 7.286556,-0.990786 8.639996,1.92 1.4272,-0.786992 1.88018,-3.149057 -0.0188,-3.472592 -3.55028,-0.604898 -9.161382,-0.353477 -12.775269,-0.02864 -1.353056,0.121621 -1.76415,1.000606 -2.885927,1.581235 -0.262217,-0.887461 -0.693897,-2.488535 0.193086,-3.191108 0.940703,-0.745127 3.157011,-0.328892 4.286914,-0.328892 3.924658,0 7.922556,-0.164233 11.839756,0.0062 1.11265,0.0484 3.15331,2.11793 3.8363,1.153335 2.17461,-3.071258 -3.56358,-2.759535 -5.11606,-2.759535 -6.081529,0 -13.302067,-1.121494 -18.559997,1.6 -0.280703,-0.950009 -0.740439,-2.755054 0.421729,-3.326914 1.568848,-0.771973 4.571524,-0.193086 6.298272,-0.193086 4.892285,0 9.832696,-0.201416 14.719996,0.01259 1.75873,0.07701 5.77839,2.367749 6.02643,0.302471 0.35084,-2.921265 -5.12741,-1.915064 -6.98643,-1.915064 H 51.079236 c -1.085253,0 -2.429804,-0.247007 -3.424453,0.191606 -0.604062,0.266377 -0.928769,1.25878 -1.639746,1.113824 -0.938164,-0.19128 -0.746484,-1.912876 -0.366914,-2.483701 0.974424,-1.465401 5.148613,-0.741729 6.711114,-0.741729 6.723603,0 13.423306,0.32 20.159996,0.32 1.49494,0 3.32086,-0.303237 4.75409,0.101479 0.71958,0.203199 1.18967,1.340655 1.96443,1.203951 0.61998,-0.109395 0.8438,-0.773506 0.90791,-1.310122 0.36634,-3.066109 -6.5938,-1.915308 -8.58643,-1.915308 H 48.839236 c -1.285566,0 -2.885927,-0.237051 -4.118764,0.101479 -0.826543,0.226963 -1.310147,1.366543 -2.196792,1.203951 -0.774488,-0.142027 -0.769908,-1.346143 -0.621231,-1.926914 0.392114,-1.531709 2.167964,-1.29795 3.416787,-1.298516 h 10.560001 c 14.902386,0.0057 29.869936,0.32 44.800003,0.32 h 12.16 c 1.11194,0 3.3769,-0.426963 3.7321,1.007158 0.70422,2.84334 -4.45256,0.592842 -6.2921,0.592842 H 89.479243 c -1.87459,0 -7.5321,-1.028164 -7.65507,1.604692 -0.0281,0.60229 0.0756,1.740796 0.94124,1.621973 1.08619,-0.149092 1.63916,-1.319668 2.87531,-1.46938 6.60265,-0.799648 13.81499,-0.157285 20.478517,-0.157285 1.7657,0 7.18386,-0.931865 6.97382,1.918765 -0.16692,2.265517 -3.45996,0.002 -5.05382,0.0012 -5.439,-0.0024 -10.880747,0 -16.319997,0 -1.3539,0 -5.5126,-0.676368 -6.20692,0.741728 -0.2963,0.605161 -0.38146,2.303447 0.50272,2.483701 0.63313,0.129072 3.27975,-1.462124 4.4242,-1.571108 4.40687,-0.419653 9.01303,-0.05432 13.439997,-0.05432 1.66746,0 5.88976,-0.780317 5.69382,1.915308 -0.16457,2.264097 -3.46347,0.0054 -5.05382,0.0047 H 93.639243 c -1.14182,0 -3.34348,-0.418403 -4.28692,0.328892 -0.92149,0.729907 -0.46671,2.265063 -0.19308,3.191108 0.8472,-0.446499 1.39544,-1.365923 2.28123,-1.727158 2.94122,-1.199468 9.538827,-0.459648 12.757277,-0.174077 2.22747,0.197642 2.37191,2.547041 0.64149,3.501235 -1.31452,-2.701596 -5.984017,-1.6 -8.639997,-1.6 -0.94237,0 -2.54082,-0.293779 -3.32692,0.328892 -0.9215,0.729917 -0.46671,2.265064 -0.19308,3.191108 1.84017,-0.969814 7.652737,-4.09331 9.591107,-1.178271 0.39066,0.5875 0.53448,2.658975 -0.58297,2.484937 -1.687457,-0.262818 -2.511087,-1.655596 -4.829127,-1.259258 -1.17233,0.200444 -1.83076,2.038398 -0.7842,2.912099 1.03236,0.861851 1.54973,-1.584487 2.51062,-0.983208 1.06667,0.667481 -0.0361,2.585342 1.501967,3.041973 3.36493,0.999004 8.27846,0.101729 11.7926,0.101729 2.33465,0 4.18804,-0.510684 5.12,1.92 0.52561,-0.414493 1.2821,-1.515039 1.95555,-1.62543 1.17783,-0.193067 1.04522,2.144155 0.59556,2.712344 -1.54373,1.950674 -4.56277,-0.02746 -5.43111,-1.406914 h -0.32 c -2.34842,4.400551 3.59642,4.231216 6.70271,3.41852 0.72894,-0.190708 1.45236,-1.349878 2.1968,-1.20395 0.66679,0.130708 0.70014,1.094956 0.67555,1.620737 -0.11849,2.533106 -8.7457,1.906172 -10.83655,1.557286 -0.89435,-0.149239 -1.21172,-1.138565 -1.98666,-1.259258 -1.0562,-0.164497 -1.02037,1.839428 -0.58297,2.393579 0.6745,0.854531 2.54132,0.513086 3.51112,0.513086 3.16351,0 6.44902,0.130854 9.59975,-0.0062 1.25156,-0.05443 3.52602,-2.409234 3.78667,-0.295313 0.3192,2.588843 -3.34337,2.137764 -5.06642,2.036055 -3.97047,-0.234365 -8.23478,0.522876 -12.15383,0.166665 -1.30458,-0.118579 -1.48992,-1.700957 -2.56593,-1.697773 -1.09507,0.0032 -1.11472,1.864936 -0.76716,2.574809 0.61966,1.265616 3.45572,0.741729 4.60692,0.741729 4.79991,0 9.6001,0.0022 14.4,0 1.50649,-6.74e-4 4.85127,-2.039424 5.06642,-0.302222 0.35588,2.8735548 -4.52737,1.902222 -6.34642,1.902222 -5.8103,0 -11.80745,0.248735 -17.59852,-0.0062 -1.25261,-0.05514 -1.86416,-1.400493 -2.88,-1.390615 -1.03423,0.01005 -1.06506,1.599238 -0.85951,2.3093798 0.52498,1.81375 5.44136,1.007407 6.93803,1.007407 h 18.56 c 1.56402,0 5.57777,-1.8511868 5.69382,-0.302471 0.21776,2.905786 -6.08251,1.902471 -7.93382,1.902471 -7.5687,0 -15.15258,0.141577 -22.71976,-0.0015 -1.34541,-0.02544 -2.20503,-1.404971 -3.19876,-1.395308 -0.950867,0.0092 -1.017157,1.325605 -0.912597,2.018271 0.34905,2.312315 7.098727,1.298516 8.911117,1.298516 h 22.4 c 1.28373,0 3.19279,0.348662 4.38445,-0.192842 0.67234,-0.305517 1.06832,-1.572715 1.93234,-1.248144 0.67885,0.255014 0.69231,1.170879 0.71704,1.762221 0.0321,0.767559 0.1999,2.801607 -0.95532,2.812837 -0.92787,0.009 -1.41183,-1.410698 -2.56469,-1.515307 -8.37843,-0.760259 -17.17684,-0.01877 -25.59382,-0.01877 -2.01426,0 -8.900257,-1.118994 -9.226427,1.604693 -0.0636,0.530815 -0.006,1.49666498 0.67087,1.62073698 0.824237,0.151152 1.426187,-0.99234898 2.196787,-1.20394498 1.52436,-0.418584 3.49817,-0.101485 5.07877,-0.101485 h 17.6 c 2.48984,0 5.90441,-0.601348 8.27259,0.101729 1.69256,0.50249 0.97764,2.72887698 -0.27259,3.418271 -1.24039,-2.667656 -4.3669,-1.92000002 -7.04,-1.92000002 -6.93223,0 -14.91648,-1.11537098 -21.74124,0.04741 -1.20822,0.20585 -1.96859,2.41066902 -0.79161,3.09629402 0.82359,0.479766 1.44561,-0.743671 2.13581,-1.032094 1.23362,-0.515508 3.06347,-0.191607 4.39704,-0.191607 h 5.44 8.96 c 1.59884,0 4.21558,-0.516875 5.65828,0.193086 1.47642,0.726553 0.56904,2.716319 -0.53828,3.326914 -1.04553,-2.248564 -2.79126,-1.92 -5.12,-1.92 h -12.8 c -1.78903,0 -5.21963,-0.750898 -5.09507,1.915308 0.11254,2.408804 3.22427,0.0274 4.77507,-0.179507 3.76754,-0.502656 8.38352,-0.441641 12.16,0.004 1.02381,0.120801 3.09771,-0.149472 3.65135,0.921973 0.33021,0.639033 0.49287,2.243262 -0.4642,2.439014 -0.80834,0.165332 -1.50641,-1.466827 -2.55333,-1.561978 -3.43488,-0.312197 -7.38681,-0.02034 -10.87382,-0.01876 -1.21924,5.47e-4 -2.91371,-0.27416 -3.15112,1.298516 -0.0934,0.618345 -0.0526,2.0784622 0.9126,1.926914 0.86052,-0.135102 1.09803,-1.274136 1.96443,-1.523701 2.25548,-0.649678 5.94103,-0.285728 8.27409,-0.04716 2.6743,0.273457 3.20256,2.6060942 1.28,3.7854292 -0.91388,-2.3835542 -5.89886,-2.8682122 -8.21828,-1.726914 -0.8403,0.413487 -1.02013,2.08127 -0.41901,2.795064 0.74353,0.882886 1.66279,-0.935361 2.2832,-1.195308 1.62619,-0.681357 3.47913,0.005 4.43409,1.087159 -2.15449,1.150009 -4.14178,0.972666 -3.2,4.16 0.92081,-0.485288 1.54099,-1.54167 2.57728,-1.818272 4.06609,-1.085283 10.12225,-0.09981 14.38272,-0.101728 0.9782,-4.4e-4 4.52656,-1.386192 4.79703,-1.06815 2.34875,2.761797 -3.47897,3.053823 -2.82074,4.093828 1.40445,2.219048 5.64505,-1.39186 6.34074,-0.573828 1.35375,1.591831 -0.40854,2.958145 -1.91729,2.986665 -1.61025,0.03045 -4.19414,0.480186 -5.6642,-0.191357 -0.80875,-0.369448 -1.2049,-1.289653 -2.01554,-1.727158 -1.51448,5.125517 6.59451,3.794028 9.91851,3.501235 0.94471,-0.08322 2.76196,-2.030127 3.3284,-0.833335 1.18904,2.512251 -2.51764,2.4521 -3.96691,2.4521 -3.16912,0 -7.48157,1.091894 -10.51409,0.218271 -0.97427,-0.280674 -1.39353,-1.336645 -2.28591,-1.818271 -0.26434,0.89457 -0.67854,2.500703 0.19308,3.191113 0.95227,0.754282 3.1277,0.328887 4.28692,0.328887 3.83668,0 7.68443,0.02616 11.52,-2.44e-4 1.25511,-0.0086 3.98765,-2.012935 4.37703,-0.590869 0.79586,2.90665 -2.65188,2.190561 -4.37703,2.193335 -5.1319,0.0082 -10.22254,0.328354 -15.36,0.317778 -0.74151,-0.0015 -1.73381,0.128257 -2.37309,-0.327407 -0.46002,-0.327901 -0.69215,-1.441724 -1.41234,-1.297779 -0.96661,0.193199 -0.80998,2.150679 -0.36569,2.7121 0.86381,1.091523 4.15452,0.513086 5.43112,0.513086 h 16 c 1.47375,0 5.64912,-1.782974 5.97679,-0.592344 0.96674,3.512617 -4.98918,2.448203 -6.93679,2.496294 -6.49709,0.16042 -13.02112,0.02942 -19.52,0.01605 -0.81563,-0.0017 -1.74533,0.108857 -2.46446,-0.327407 -0.52595,-0.319077 -0.92435,-1.437989 -1.63974,-1.297779 -0.89336,0.175088 -0.78499,1.906934 -0.50272,2.483457 0.69581,1.421153 5.13397,0.741729 6.52692,0.741729 h 20.8 c 2.66066,0 3.89197,-0.776729 6.14418,-1.360986 0.57631,-0.149507 0.97832,0.24434 1.10793,0.768393 0.80283,3.246177 -6.68034,2.192593 -8.53211,2.192593 -8.56889,0 -18.42344,1.360596 -26.86149,-0.0474 -0.89641,-0.14958 -1.2096,-1.138238 -1.98666,-1.259263 -0.99556,-0.155059 -0.98797,1.603999 -0.80988,2.219263 0.38982,1.346777 2.31225,1.007334 3.41803,1.007402 h 10.56 c 15.14246,0 30.35617,-0.308252 45.44,-0.01729 4.00769,0.07731 8.12219,-0.300899 12.16,-0.302715 1.33242,-5.96e-4 3.31883,0.198106 3.45383,-1.6 0.0442,-0.58835 -0.17793,-1.390005 -0.9,-1.396792 -0.88221,-0.0083 -1.40547,1.074009 -2.25112,1.295308 -1.43179,0.374697 -3.29062,0.101484 -4.78271,0.101484 h -20.48 c -3.08653,0 -7.39311,0.923994 -6.08,-3.52 2.15621,1.295557 3.13554,1.92 6.08,1.92 h 17.28 c 1.86328,0 7.21373,0.989067 7.33506,-1.604692 0.0272,-0.580372 -0.0706,-1.742769 -0.89951,-1.621973 -0.8576,0.124975 -1.31393,1.105146 -2.28147,1.259258 -5.76631,0.918467 -12.38799,0.04741 -18.23408,0.04741 -1.41266,0 -5.81213,0.752129 -6.2968,-1.007407 -0.18398,-0.667935 -0.0679,-2.09064 0.85828,-2.082222 1.10606,0.01005 1.50266,1.422832 2.88,1.483457 4.92942,0.216973 10.08774,0.0062 15.03852,0.0062 1.56582,0 5.15139,0.67584 5.6568,-1.298521 0.17796,-0.695229 0.0864,-2.00935 -0.86297,-2.018271 -0.93205,-0.0088 -1.56182,1.190434 -2.55975,1.349385 -3.9534,0.629702 -8.46768,0.04741 -12.47408,0.04741 -1.29254,0 -4.57485,0.58873 -5.0168,-1.007158 -0.16998,-0.613799 -0.10271,-2.0317 0.83729,-1.899507 1.01986,0.143423 1.43863,1.185659 2.58445,1.2879 3.62625,0.323565 8.18057,0.171821 11.8348,0.01259 1.4251,-0.0621 3.6303,-2.593555 1.51706,-3.273335 -0.76653,-0.246572 -2.56497,1.35104 -3.7568,1.359263 -1.16947,0.0081 -2.34949,2.44e-4 -3.52,2.44e-4 -1.9108,0 -3.89871,-0.141836 -5.76,0.32 -1.41883,-4.801787 3.55676,-1.918574 6.72,-1.92 1.68734,-7.62e-4 4.06277,-0.164492 3.4168,-2.512344 -0.13836,-0.502866 -0.5251,-0.935498 -1.1,-0.767412 -1.8187,0.531748 -2.10495,2.046714 -4.53803,1.632348 -1.16899,-0.199086 -2.00557,-2.340854 -0.8042,-3.096294 0.98029,-0.616425 1.6964,1.964019 2.69777,0.475801 0.66539,-0.988886 0.15432,-2.361313 -0.97111,-2.670371 -3.81297,-1.0471 -9.14235,-0.101728 -13.10123,-0.101728 -1.15119,0 -3.98727,0.523886 -4.60692,-0.741729 -0.28978,-0.591865 -0.34267,-1.998799 0.30149,-2.401973 0.94597,-0.592085 1.30168,1.48898 2.30222,1.113086 0.9576,-0.35976 0.89708,-2.216025 0.21012,-2.760498 -0.73361,-0.5814502 -2.42398,-0.424355 -3.32099,-0.281479 -0.87911,0.140024 -1.70983,1.413979 -2.50541,1.258022 -0.94877,-0.185976 -0.81762,-2.1487892 -0.37163,-2.7123442 0.85543,-1.080927 6.10981,-0.821191 7.3052,-0.320244 0.7018,0.294092 0.99385,1.317803 1.72271,1.432588 0.88133,0.1388092 1.16573,-0.969175 1.16569,-1.620737 -1.8e-4,-2.576729 -8.83238,-1.885572 -10.8252,-1.557285 -0.94832,0.15622 -1.35138,1.137343 -2.25111,1.259262 -0.73957,0.100215 -0.92869,-0.749609 -0.92865,-1.311362 1.1e-4,-1.746802 1.42617,-1.905313 2.84248,-1.915064 3.57931,-0.02463 7.66299,-0.523984 11.19383,0.04716 1.09955,0.177861 1.39787,1.432329 2.32296,1.578022 0.87411,0.137666 1.16573,-0.974502 1.16569,-1.620737 -1.6e-4,-2.26939 -3.21928,-1.604693 -4.76248,-1.604693 -4.15014,0 -9.03237,-0.623125 -13.10272,0.04741 -0.96236,0.158536 -1.35859,1.138321 -2.25111,1.259263 -0.73295,0.09932 -0.92869,-0.74499 -0.92865,-1.30667 1.7e-4,-2.42446302 4.11773,-1.6 5.72248,-1.6 4.78472,0 9.62049,-0.0327 14.4,2.44e-4 1.18367,0.0082 2.7182,1.457266 3.4642,1.305186 0.74031,-0.150918 0.73254,-1.359756 0.64691,-1.92691402 -0.31973,-2.11808598 -4.74984,-1.298516 -6.35111,-1.298516 -5.43992,0 -10.88012,-0.0025 -16.32,0 -1.7076,7.72e-4 -4.80907,2.45779302 -5.06643,0.315059 -0.34514,-2.87368198 4.84555,-1.85417998 6.66643,-2.02172898 5.71224,-0.525596 11.54799,-0.21333 17.28,-0.21333 2.51402,0 4.92623,-0.561396 6.08,1.91999998 1.25023,-0.689399 1.96514,-2.91578098 0.2726,-3.41827098 -2.6261,-0.779649 -6.46928,-0.101729 -9.2326,-0.101729 -7.42072,0 -17.53492,-1.746289 -24,1.6 v -5.12 c 0.92642,0.556641 1.21449,1.513848 2.28592,1.818521 1.47224,0.418652 3.52646,0.101479 5.07408,0.101479 6.20041,0 12.36482,-0.32 18.56,-0.32 1.8783,0 8.47351,1.029141 8.25383,-1.902471 -0.0352,-0.470092 -0.27063,-1.089843 -0.85828,-1.004194 -0.75836,0.110527 -1.20715,1.004863 -1.97284,1.205186 -1.16502,0.304799 -2.61088,0.101479 -3.82271,0.101479 h -18.56 c -1.30467,0 -5.20764,0.663589 -5.88666,-0.741729 -0.316,-0.653989 -0.24176,-2.3825238 0.76814,-2.3923428 1.08047,-0.0105 1.49231,1.4667278 2.88,1.5278998 5.62094,0.247788 11.71598,-0.714443 17.27852,-0.08494 1.50554,0.170381 6.51818,0.902758 6.75258,-1.2074028 0.0627,-0.564585 -0.0165,-1.786787 -0.73309,-1.926914 -0.8041,-0.157241 -2.30957,1.282315 -3.45949,1.30395 -4.9028,0.09224 -9.81623,0.0015 -14.72,0.0015 -2.58346,0 -6.8484,0.323896 -4.8,-3.52 1.12857,0.753779 1.43859,1.770469 2.88617,1.901235 3.97875,0.359429 8.44791,0.01877 12.47383,0.01877 1.74488,0 5.0823,0.647202 5.08248,-1.915308 4e-5,-0.58376 -0.19397,-1.39438 -0.92397,-1.401479 -0.87701,-0.0085 -1.31478,1.192153 -2.25703,1.34938 -3.22806,0.538647 -6.94676,0.04741 -10.22148,0.04741 -1.17924,0 -3.65032,0.460757 -4.0568,-1.007158 -0.18863,-0.681187 -0.0781,-1.980523 0.85828,-1.989629 0.93207,-0.0091 1.28776,1.187641 2.25703,1.34938 2.40315,0.400996 5.51379,0.06414 7.98149,0.04716 0.98267,-0.0068 2.2376,0.07093 2.68543,-1.007163 0.29172,-0.702286 0.10621,-2.393599 -1.00864,-2.218023 -0.74982,0.118091 -1.00042,1.129902 -1.72271,1.432588 -1.27793,0.535537 -6.80732,0.745371 -7.441,-0.548887 -0.29853,-0.609731 -0.33148,-2.648511 0.71877,-2.484936 0.59963,0.09339 0.87037,0.871054 1.42369,1.115058 1.57834,0.696011 5.15981,0.404907 4.59657,-2.028393 -0.55994,-2.419082 -2.00555,0.81438 -2.91754,0.243701 -0.88041,-0.550913 -0.16244,-2.422212 -1.23629,-2.950615 -1.58192,-0.778409 -4.54149,-0.193086 -6.29828,-0.193086 -2.70889,0 -7.06186,0.825429 -9.55877,-0.192842 -0.89397,-0.364571 -1.42188,-1.274258 -2.28123,-1.727158 l -1.6,1.92 c -0.80069,-2.70981 0.82375,-4.257291 3.79408,-3.418521 0.71117,0.20082 1.79896,2.014204 2.41406,0.75062 1.71205,-3.517012 -5.77367,-3.261626 -7.44691,-2.579258 -0.88578,0.361236 -1.43403,1.280664 -2.28123,1.727158 -0.27364,-0.926044 -0.72844,-2.461176 0.19308,-3.191108 0.78612,-0.622711 2.38455,-0.328927 3.32692,-0.328927 2.60015,0 7.38226,-0.984907 8.64,1.6 2.92472,-1.612744 0.18845,-3.395263 -1.92,-3.499257 -3.12096,-0.153931 -8.2161,-0.700357 -11.18272,0.08123 -1.0359,0.27292 -1.65771,1.333398 -2.57728,1.818027 -0.27364,-0.926045 -0.72842,-2.461181 0.19308,-3.191108 0.99305,-0.786587 3.40092,-0.328892 4.60692,-0.328892 h 10.24 c 1.91328,0 3.25381,-0.262422 4.16,1.6 1.18476,-0.653296 1.93179,-2.602431 0.2726,-3.326914 -1.14561,-0.500224 -2.88731,-0.193086 -4.1126,-0.193086 h -8 c -1.70602,0 -3.41444,-0.02607 -5.12,0.01605 -1.07133,0.02645 -2.47043,-0.20562 -3.47409,0.222227 -0.65572,0.279526 -1.16172,1.537763 -1.91011,1.387158 -1.20819,-0.243135 -0.7386,-2.811914 0.3116,-3.123701 1.84289,-0.547134 4.42668,-0.101729 6.3526,-0.101729 h 13.12 c 2.25377,0 4.98166,-0.657314 6.08,1.6 1.19838,-0.660801 1.88638,-2.539966 0.2726,-3.200986 -1.69792,-0.695479 -3.63352,-0.0468 -5.3926,-0.0037 -6.39164,0.156592 -12.80623,0.0047 -19.2,0.0047 -0.99036,0 -2.19761,-0.192608 -3.11703,0.191606 -0.63276,0.264419 -1.14244,1.256133 -1.91853,1.113823 -1.05363,-0.193198 -0.86743,-2.376865 -0.21136,-2.896538 1.36438,-1.080713 5.47813,-0.328891 7.16692,-0.328891 h 19.52 c 1.49218,0 3.65195,-0.414248 5.02445,0.191606 0.58977,0.260337 0.82541,0.996646 1.45234,1.16938 0.57823,0.159312 0.95651,-0.249849 1.1,-0.768394 0.91934,-3.322055 -6.29496,-2.192592 -8.21679,-2.192592 h -23.04 c -1.28527,0 -2.88631,-0.236944 -4.11877,0.101479 -0.76404,0.209795 -1.35874,1.357632 -2.19679,1.20395 -0.91601,-0.167978 -0.8344,-1.836377 -0.39556,-2.392343 0.7105,-0.900137 2.81698,-0.513086 3.83112,-0.513086 h 10.56 c 14.61861,0 29.20924,-0.32 43.84,-0.32 h 12.16 c 1.17773,0 3.62703,-0.48167 4.05803,1.007402 0.16992,0.587051 0.18992,2.39854 -0.8052,2.218027 -1.20027,-0.217729 -1.25008,-1.592119 -2.93308,-1.623945 -7.67823,-0.145186 -15.68081,-0.142891 -23.35975,0.251602 -1.56422,0.08036 -6.65826,-1.046299 -7.48543,0.782963 -0.28949,0.640215 -0.15789,2.07542 0.7716,2.099258 0.74861,0.0192 1.22848,-0.914629 1.95506,-1.113828 1.25328,-0.343594 2.82158,-0.101479 4.11877,-0.101479 h 16 c 2.21598,0 5.20285,-0.524624 7.3126,0.101728 1.69252,0.502486 0.97761,2.728882 -0.2726,3.418272 -0.98391,-2.566158 -3.30758,-1.92 -5.76,-1.92 h -16 c -1.58436,0 -6.14531,-0.282305 -4.60692,2.772099 0.34584,0.686661 3.80129,-0.851596 4.92692,-0.852099 4.90656,-0.0022 9.81342,0 14.72,0 1.39857,0 4.50748,-0.62958 4.74642,1.298516 0.0866,0.698774 -0.16074,2.082656 -1.14962,1.926914 -0.92508,-0.145688 -1.22348,-1.400171 -2.32297,-1.578023 -3.94612,-0.638324 -8.47291,-0.04741 -12.47383,-0.04741 -1.90664,0 -5.94862,-0.6581 -5.01803,2.511114 0.46604,1.587138 2.6377,-0.536524 3.73951,-0.584942 3.47379,-0.152656 7.07442,-0.0077 10.55852,-0.0062 1.19922,5.37e-4 2.95006,-0.28605 3.14642,1.298516 0.0837,0.675537 -0.0851,1.787095 -0.90791,1.92667 -0.84822,0.143887 -1.41826,-1.296719 -2.25703,-1.523457 -2.25127,-0.608574 -11.80256,-1.214409 -10.75976,2.409385 0.14234,0.494682 0.49158,0.892163 1.02273,0.638764 0.60449,-0.288393 0.77381,-0.928569 1.48147,-1.128398 1.46402,-0.413413 7.40261,-0.722129 7.85088,0.905928 1.05875,3.845356 -2.60198,0.711548 -3.73829,0.611357 -1.73373,-0.152866 -4.16572,0.405801 -3.00691,2.753335 0.70893,1.436157 1.8084,-1.214101 2.82148,-0.504443 0.92936,0.651011 0.12942,2.428535 1.24864,2.979258 1.15691,0.569277 3.10381,0.193086 4.37828,0.193086 3.35125,0 6.91047,-0.140318 10.23851,0.0062 1.25374,0.05519 1.66938,1.163648 2.63977,1.300494 0.9383,0.132319 1.40209,-1.00878 1.84172,-1.626665 0.75445,0.799267 1.5183,2.323198 0.21828,3.191108 -2.04271,1.363745 -4.83908,-1.59248 -5.79137,-0.923452 -0.87246,0.612949 -0.47123,2.331958 0.27186,2.843452 2.15111,1.480684 7.51531,0.529282 8.50123,-1.591108 1.35795,0.832973 1.86961,3.115605 -0.32617,3.472593 -2.69055,0.437426 -6.55737,0.420278 -9.25532,0.03704 -0.77232,-0.109707 -1.72404,-1.639356 -2.40394,-1.21333 -1.03731,0.649965 -0.49166,2.74375 0.51283,3.041972 2.87406,0.853267 10.47555,0.784175 13.37408,0 0.97047,-0.262553 1.23397,-0.991225 1.61852,-1.818271 3.72041,2.051499 -0.88221,3.52 -2.88,3.52 h -7.04 -4.16 c -0.95279,0 -2.21084,0.202451 -3.10445,-0.191607 -0.5603,-0.247075 -0.96084,-1.252226 -1.63975,-1.113823 -1.13111,0.230591 -0.75441,2.638526 0.0459,3.032344 1.43433,0.705781 4.06863,0.193086 5.65828,0.193086 4.5984,0 10.22705,0.678374 14.71383,-0.04741 1.08013,-0.174727 1.37777,-1.41816 2.29431,-1.578023 0.92873,-0.161992 0.95805,1.343364 0.80866,1.926914 -0.52526,2.051753 -4.65864,1.298516 -6.2968,1.298516 -5.92604,0 -12.70279,0.9268599 -18.54149,-0.04741 -0.89447,-0.149258 -1.21154,-1.138535 -1.98666,-1.259258 -0.91541,-0.142573 -0.9655,1.33311 -0.80865,1.899507 0.50098,1.8089649 5.45762,1.0071579 6.9368,1.0071579 h 18.56 c 1.86557,0 6.01334,-2.2461129 5.70643,0.315308 -0.30928,2.58102 -5.73374,1.604692 -7.62643,1.604692 h -20.8 c -2.0084,0 -6.63768,-2.014468 -6.34643,0.302715 0.2859,2.274546 6.84582,1.297285 8.58643,1.297285 h 22.72 c 1.27715,0 2.89562,0.242686 4.11408,-0.101479 0.77244,-0.218179 1.13082,-1.303414 1.96444,-1.295308 0.87679,0.0085 0.92814,1.07168 0.95531,1.718267 0.0361,0.860415 0.16115,2.785078 -0.96,2.813828 -1.07096,0.02747 -1.22442,-0.998838 -2.25112,-1.167901 -1.2574,-0.20705 -3.1105,-0.04741 -4.46271,-0.04741 h -22.08 c -1.88279,0 -6.62461,-0.861079 -8.12692,0.328892 -0.9215,0.729922 -0.46671,2.265063 -0.19308,3.19110798 0.92084,-0.485303 1.54098,-1.54166998 2.57728,-1.81827098 1.95491,-0.521787 4.66598,-0.101729 6.70272,-0.101729 h 14.4 c 2.9143,0 6.76994,-0.670293 9.58123,0.101729 1.95848,0.537827 1.2683,2.72925798 0.0188,3.418271 -1.09834,-2.25732402 -3.82621,-1.60000002 -6.08,-1.60000002 h -16.96 c -1.50582,0 -6.4174,-0.79132798 -6.93803,1.007407 -0.17256,0.59618702 -0.20461,2.05734902 0.59383,2.21802302 0.79414,0.159814 2.20025,-1.580747 3.4642,-1.620488 5.00262,-0.1573 10.03467,-0.0049 15.04,-0.0049 2.24906,0 5.16803,-0.49506302 7.34123,0.101729 1.92588,0.528877 1.32816,2.696255 0.0188,3.418271 -0.99404,-2.042993 -2.74277,-1.6 -4.8,-1.6 h -12.16 c -1.50311,0 -3.97311,-0.478662 -5.33828,0.193086 -1.17403,0.577696 -0.71356,2.339224 -0.42172,3.326914 0.84459,-0.45583 1.33336,-1.543852 2.28592,-1.818271 3.46927,-0.999453 8.49482,-0.101729 12.11408,-0.101729 1.57373,0 3.56992,-0.344394 5.0726,0.101729 1.69256,0.502495 0.97763,2.728867 -0.2726,3.418271 -1.45879,-2.998139 -8.50926,-1.6 -11.52,-1.6 -1.07668,0 -3.07426,-0.378178 -3.96692,0.328887 -0.9215,0.729927 -0.46671,2.265068 -0.19308,3.1911131 0.78725,-0.4248821 1.2051,-1.3569331 2.01555,-1.7271581 2.0963,-0.957622 7.8732,-0.529199 10.12568,-0.145434 1.89893,0.32353 1.44598,2.6856051 0.0188,3.4725921 -1.50008,-3.1106251 -10.99633,-2.9775681 -8.64,1.920001 1.34185,-1.146211 3.98404,-3.235079 5.86814,-1.593584 1.40059,1.220234 -5.52646,2.09396 -2.48123,4.553086 0.32401,0.26165 3.24676,-1.357349 4.29309,-1.359502 h 12.16 c 2.2899,0 3.49527,-0.08504 4.8,-1.92 h 0.32 c 2.02881,3.80247 -1.66354,2.264961 -2.44939,4.268642 -0.53329,1.359698 2.6713,1.240523 3.40347,1.12395 0.85197,-0.135649 1.7099,-1.413979 2.50541,-1.258022 0.89192,0.174853 0.80949,1.837607 0.37162,2.392344 -0.8573,1.086133 -6.04582,0.792261 -7.30519,0.45605 -0.71406,-0.19063 -1.00309,-1.133355 -1.69406,-1.248643 -0.58829,-0.09815 -0.79553,0.554224 -0.86297,1.004443 -0.092,0.614331 -0.0635,1.47437 0.4642,1.892349 0.67541,0.534981 1.87316,0.328521 2.68691,0.328887 2.2608,10e-4 5.8757,0.687256 7.95359,-0.192593 0.76954,-0.32585 1.00538,-1.036968 1.32641,-1.727407 2.13064,1.174868 1.35154,3.474809 -0.96025,3.518515 -2.13161,0.0403 -4.26774,0.0015 -6.39975,0.0015 -1.84568,0 -4.25389,0.401216 -6.03408,-0.101485 -0.66641,-0.188178 -1.22024,-1.344589 -1.91012,-1.203945 -1.35385,0.275996 -0.64871,2.838604 0.3116,3.123701 3.93524,1.168311 10.18637,0.101997 14.3526,0.101729 2.06137,-1.32e-4 3.23545,0.0684 4.16,-1.92 1.18479,0.653305 1.9318,2.602431 0.2726,3.326914 -1.14565,0.500234 -2.88727,0.193086 -4.1126,0.193086 h -8 -5.12 c -1.11807,0 -2.70254,0.267856 -3.74445,-0.191607 -0.54414,-0.239951 -0.96973,-1.250415 -1.63975,-1.113823 -1.35381,0.275986 -0.64871,2.838599 0.3116,3.123701 1.73639,0.515503 4.20865,0.101729 6.0326,0.101729 h 13.44 c 2.46654,0 4.92113,0.572314 6.08,-1.92 1.18479,0.653306 1.93178,2.602441 0.2726,3.326914 -1.8307,0.799365 -5.01322,0.193086 -6.9926,0.193086 h -9.92 -6.08 c -1.45209,0 -3.67981,0.401357 -5.02445,-0.191606 -0.54821,-0.241744 -1.13207,-1.477877 -1.84098,-1.032095 -0.79736,0.501391 -0.60857,2.3181 0.0185,2.814814 0.90125,0.713877 2.87304,0.328887 3.96691,0.328887 h 21.44 c 2.71736,0 6.39291,0.848115 7.68,-1.92 1.10682,0.610312 1.88328,2.293052 0.53828,3.191113 -1.20004,0.80127 -3.61951,0.328887 -5.01828,0.328887 h -24.32 c -1.75654,0 -4.01703,0.377734 -5.71408,-0.101484 -0.71198,-0.201045 -1.01485,-1.099395 -1.69407,-1.205181 -0.5865,-0.09135 -0.80197,0.548174 -0.85828,1.005181 -0.38879,3.155049 7.46688,1.901484 9.54643,1.901484 10.62557,0 21.39066,0.503535 32,0"
       id="path1" />
  </g>
</svg>
