<?xml version="1.0" encoding="UTF-8" standalone="no"?>
<!-- Created with Inkscape (http://www.inkscape.org/) -->

<svg
   version="1.1"
   id="svg1"
   width="309.76001"
   height="239.5985"
   viewBox="0 0 309.76001 239.5985"
   xmlns="http://www.w3.org/2000/svg"
   xmlns:svg="http://www.w3.org/2000/svg">
  <defs
     id="defs1" />
  <g
     id="g1"
     transform="translate(0,-2.6588699)">
    <path
       style="fill:none;stroke:#342a22"
       d="M 0.31999999,3.8399999 H 17.919999 c 1.366233,0 5.182151,-0.6093164 6.071111,0.513086 0.669804,0.8457031 0.328889,2.6071679 0.328889,3.646914 V 17.28 v 36.479999 10.56 c 0,1.133223 0.334902,3.112676 -0.741729,3.831113 -0.902575,0.602285 -2.372595,0.319121 -3.418271,0.344941 -2.890405,0.07137 -5.744178,0.303946 -8.639999,0.303946 -1.182044,0 -2.7397855,0.38957 -3.6469144,-0.328887 -0.6667248,-0.528047 -0.5114636,-1.76293 -0.5130859,-2.551113 -0.0044,-2.138555 -0.9922815,-7.738809 0.3288885,-9.406914 0.8658661,-1.093242 4.1305178,-0.521797 5.4311108,-0.512832 0.663909,0.0046 1.499339,-0.09799 2.048149,0.328633 0.653328,0.507871 0.830061,1.615254 0.675802,2.532343 -0.376558,2.238692 -5.408444,0.423047 -4.222222,4.451368 0.433196,1.471093 7.313902,1.607636 8.209382,0.265683 1.178088,-1.765469 0.339722,-6.43707 0.328643,-8.538281 -0.0047,-0.895918 0.105647,-2.009707 -0.557284,-2.686914 -0.807376,-0.824766 -2.038924,-0.513008 -3.28247,-0.513086 -3.091942,-1.95e-4 -6.187739,0 -9.2799993,0 -1.0246447,0 -2.5242006,-0.306875 -3.3269133,0.328887 -0.8383514,0.663984 -0.5130865,2.783066 -0.5130865,3.831113 v 12.16 c 0,1.129375 -0.2920209,3.833457 0.5130865,4.471113 1.7073943,1.352285 6.8354796,0.328887 9.0869126,0.328887 7.672796,0 15.352192,-0.32 23.039999,-0.32 2.219654,0 6.996377,0.913554 8.858272,-0.328887 0.963837,-0.643164 0.741274,-2.176074 0.741728,-3.191113 0.0014,-3.199688 2.05e-4,-6.400332 0,-9.6 -6.8e-5,-1.073906 0.25,-2.535547 -0.513086,-3.282461 -0.677461,-0.663105 -1.7625,-0.560723 -2.686914,-0.467168 -2.5278,0.25584 -6.675664,-0.651269 -8.858271,0.422715 -0.84906,0.417793 -0.735859,1.551328 -0.741482,2.366914 -0.01465,2.125684 -0.07783,8.205957 3.709382,5.431113 0.636382,-0.466269 0.492679,-1.225976 0.565186,-1.910859 0.09516,-0.898867 0.315437,-1.620449 0.525185,-2.240254 1.334324,0.317676 2.168001,-0.269688 3.326914,0.648887 1.100503,0.872285 0.472378,3.722402 0.341236,5.111113 -0.0729,0.771953 0.159194,1.775156 -0.369878,2.366914 -0.551448,0.616777 -1.55355,0.507422 -2.338272,0.512832 -2.208823,0.01522 -4.505046,0.0012 -6.719999,2.54e-4 -0.927342,-4.1e-4 -2.285508,0.226289 -2.871111,-0.513086 -0.566499,-0.715254 -0.328828,-2.061387 -0.328889,-3.006914 -1.98e-4,-3.092109 0,-6.187598 0,-9.28 0,-1.01207 -0.362412,-3.137715 0.513086,-3.831113 0.73768,-0.584258 2.11498,-0.328828 3.006914,-0.328887 h 7.999999 c 2.28855,0 4.772368,-0.01539 7.04,2.54e-4 0.705478,0.0049 1.735893,-0.112422 2.231108,0.512832 0.671905,0.84834 0.327115,2.220195 0.328892,3.326914 0.0045,2.826719 0.426084,5.483105 0.09136,8.32 -0.884751,7.498437 -0.09136,15.751054 -0.09136,23.359999 0,2.3392 -0.0242,4.709278 0.118764,7.04 0.06865,1.119131 0.499327,2.155655 -0.127656,3.098272 -0.711474,1.069638 -3.476357,0.741728 -4.791108,0.741728 H 33.279999 c -1.324558,0 -3.268946,0.477364 -4.286914,-0.328886 -0.625242,-0.495205 -0.507976,-1.525645 -0.51284,-2.231114 -0.0121,-1.755918 -2.46e-4,-3.668564 -2.46e-4,-5.44 0,-1.977255 -0.873779,-6.608427 0.328889,-8.126913 0.533269,-0.673311 1.750034,-0.511436 2.551111,-0.513086 2.380639,-0.0049 6.734831,-0.851778 8.858271,0.193086 0.922431,0.453896 0.72863,1.817207 0.833086,2.686914 0.24541,2.0433 0.993681,5.231484 -1.692593,5.419755 -3.171272,0.222266 -1.233694,-2.608466 -2.751851,-3.810869 -0.692109,-0.548164 -1.955922,-0.525039 -2.959506,-0.227158 -1.040672,0.308887 -0.988758,1.230381 -1.005925,2.138516 -0.02574,1.361523 -0.581717,5.236181 0.740246,5.886669 2.111902,1.03919 6.476181,0.197989 8.858271,0.193086 0.914863,-0.0019 2.02689,0.146934 2.686914,-0.513086 0.763296,-0.7633 0.513018,-2.244335 0.513086,-3.326914 1.95e-4,-3.093662 -0.221255,-6.201669 -0.18543,-9.279999 0.01093,-0.938711 0.150201,-2.87959 -0.647656,-3.511114 -1.530459,-1.211406 -6.502285,-0.328886 -8.446914,-0.328886 -7.800761,0 -15.575805,0.32 -23.359999,0.32 -2.329099,0 -4.7169757,-0.01576 -7.0399992,2.54e-4 -0.7208124,0.005 -1.7409771,-0.106016 -2.2311111,0.512832 -0.8769223,1.107207 -0.3288888,3.821582 -0.3288888,5.246914 0,4.549716 -0.7982047,11.576992 0.3199999,15.359999 2.2438018,-0.663232 8.2880112,-0.32 11.5199992,-0.32 1.17277,0 3.338056,0.422627 4.286913,-0.328886 1.154332,-0.914248 0.513087,-4.97877 0.513087,-6.391114 0,-1.372461 0.534844,-4.601132 -0.513087,-5.431113 -0.603478,-0.477959 -1.60552,-0.327324 -2.366913,-0.328886 -1.394275,-0.0029 -3.857888,-0.517793 -4.926912,0.328886 -0.741414,0.587207 -0.783061,2.148164 -0.32,3.089385 0.955463,1.94209 4.255435,-0.366035 3.9479,3.295557 -0.203143,2.418671 -3.932156,1.618398 -5.7409874,1.605927 -0.7555688,-0.0052 -1.7358453,0.112481 -2.2311114,-0.512842 -0.7807183,-0.985732 -0.3288885,-3.57664 -0.3288885,-4.926914 0,-1.673652 -0.6952533,-5.233837 0.3288885,-6.526913 C 8.3245956,80.990438 10.205333,81.279999 11.2,81.279999 c 3.487236,0 8.489346,-0.878965 11.792592,0.101728 1.489258,0.442139 1.007407,3.138633 1.007407,4.378272 v 13.439999 c 0,15.996962 0.32,31.986092 0.32,48.000002 v 11.84 c 0,1.02551 0.363296,3.137 -0.513086,3.83111 C 23.0156,163.49784 21.450421,163.2 20.479999,163.2 H 11.2 c -1.060525,0 -2.8527848,0.31812 -3.5111118,-0.51309 C 7.1649362,162.02537 7.360386,160.85808 7.3599997,160 7.3590225,157.82787 6.2396103,152.8395 7.3688882,151.14173 7.9900326,150.20789 9.532253,150.40046 10.56,150.4 c 1.409001,-6.4e-4 3.683371,-0.40257 4.606912,0.32888 0.50731,0.4018 0.491205,1.02397 0.505432,1.5926 0.01899,0.75904 0.03139,1.50861 -0.505432,2.04543 -1.325643,1.32564 -5.2272957,0.32658 -3.453825,3.93136 0.456845,0.92859 2.032634,0.74129 3.006912,0.74173 1.800833,8.1e-4 4.174393,0.71615 4.926913,-1.00741 0.53332,-1.2215 0.193087,-2.57592 0.193087,-3.79259 0,-2.54226 1.008689,-7.86461 -1.921482,-7.99383 -3.204395,-0.14131 -7.844548,-0.006 -11.1985173,-0.006 -1.0526385,0 -3.1452498,-0.27779 -3.6469133,0.74173 -0.6305764,1.28149 -0.1930865,3.23833 -0.1930865,4.69827 v 10.56 c 0,1.17703 -0.4755252,4.00812 0.5130865,4.79111 1.5519134,1.22914 6.4713541,0.32889 8.4469126,0.32889 h 23.679999 c 2.054493,0 7.945313,0.94851 9.406914,-0.51309 1.239341,-1.23933 0.513086,-5.17269 0.513086,-6.84691 0,-2.23371 0.91564,-6.99324 -0.328892,-8.85827 -0.599721,-0.89873 -1.922163,-0.73978 -2.871108,-0.74173 -2.226552,-0.005 -7.002858,-0.90922 -8.858271,0.32888 -1.562554,1.04269 -1.323848,8.10831 0.864443,8.2921 3.269431,0.27459 1.656509,-2.07968 2.882718,-3.6279 0.537541,-0.6787 2.155412,-0.70469 3.143703,-0.41135 1.152954,0.34221 1.005244,1.726 1.007407,2.77827 0.0031,1.4852 0.336299,4.66023 -1.007407,5.24691 -2.160298,0.9432 -6.116743,0.1942 -8.592592,0.19309 -0.927327,-4.1e-4 -2.285518,0.22629 -2.871111,-0.51309 -0.566499,-0.71526 -0.328828,-2.0614 -0.328889,-3.00691 -1.98e-4,-3.09212 0,-6.18759 0,-9.28 0,-1.02552 -0.363291,-3.13701 0.513086,-3.83112 0.94886,-0.75151 3.11414,-0.32888 4.286914,-0.32888 h 11.519999 c 1.12938,0 3.833447,-0.29202 4.471108,0.51308 1.386128,1.75012 0.328892,7.09665 0.328892,9.40692 v 25.92 c 0,2.3357 1.11125,8.54859 -0.328892,10.36691 -1.108149,1.39916 -7.178017,0.51309 -8.951108,0.51309 h -8.319999 c -1.023789,-6e-5 -2.223633,0.29148 -3.006914,-0.32889 -0.749392,-0.59354 -0.513086,-2.52258 -0.513086,-3.51111 0,-3.09319 0,-6.1868 0,-9.28 0,-1.02465 -0.30687,-2.5242 0.328889,-3.32692 C 29.599464,175.5149 32.950899,176 34.239999,176 c 1.520014,0 4.992524,-0.63293 6.206913,0.32888 1.075928,0.85217 0.796118,5.68772 0.411358,6.98371 -0.344561,1.16057 -2.617036,1.41362 -3.545186,0.67852 -1.774712,-1.40561 0.623277,-3.90832 -2.75185,-3.82346 -0.569302,0.0143 -1.207068,0.019 -1.592346,0.50543 -0.920952,1.1628 -0.339197,4.03602 -0.328643,5.56692 0.0049,0.70547 -0.112402,1.7359 0.51284,2.23111 0.783281,0.62037 1.983127,0.32883 3.006913,0.32889 2.311551,1.5e-4 6.671362,0.91689 8.538272,-0.32889 0.984702,-0.65709 0.741728,-2.66088 0.741728,-3.83111 0,-3.34825 -0.578364,-10.1908 0,-12.48 -2.833677,-0.83758 -6.543012,-0.32 -9.92,-0.32 -7.095729,0 -14.362057,0.45605 -21.439999,-0.0286 -2.680303,-0.18355 -5.304718,-0.29691 -7.9999993,-0.29136 -0.9181457,0.002 -2.0139369,-0.15989 -2.6869133,0.51308 -0.6507043,0.65071 -0.5112875,1.81266 -0.5130865,2.68692 -0.00569,2.76664 0,5.55168 0,8.32 0,2.32763 -0.00478,4.71892 0,7.04 0.00157,0.76138 -0.1490631,1.76345 0.3288888,2.36691 0.6583276,0.83121 2.4505862,0.51309 3.511111,0.51309 3.1989379,0 6.4013743,0.001 9.5999993,0 1.003756,-4.5e-4 2.292691,0.20113 3.006913,-0.51309 0.660022,-0.66002 0.511205,-1.77207 0.513087,-2.68691 0.005,-2.40625 0.807512,-6.82481 -0.193087,-8.85828 -0.456168,-0.92704 -1.79056,-0.73989 -2.686913,-0.74172 -1.639829,-0.003 -5.066953,-0.63721 -5.392592,1.29877 -0.13578,0.80722 -0.191654,1.75041 0.281482,2.34814 0.958116,1.21047 5.692857,0.64582 3.502221,3.93137 -0.793518,1.19012 -4.232874,0.75193 -5.7511104,0.74148 -0.974779,-0.007 -2.1351745,0.0811 -2.4582714,-1.00717 -0.7504351,-2.52769 0.2170636,-5.58798 0.2182715,-8.27259 3.656e-4,-0.81242 -0.1914734,-2.36432 0.3288885,-2.99063 0.7963251,-0.95844 2.3064068,-0.2706 3.5111118,-0.22172 3.084813,0.12516 6.201081,0.0279 9.279999,-0.11877 1.014995,-0.0484 2.942656,-0.23814 3.506421,0.59457 0.634277,0.93688 0.04639,2.22881 0.01827,3.37655 -0.0783,3.19605 -0.0047,6.40293 -0.0047,9.6 0,12.07142 0.32,24.09009 0.32,36.16 v 11.84 c 0,1.03355 -0.341436,3.11392 0.741728,3.64691 2.793997,1.37482 8.896318,0.19309 12.058271,0.19309 h 29.759999 9.28 c 0.896953,-6e-5 2.55206,0.29377 3.191108,-0.51309 0.745112,-0.94078 0.328892,-3.15695 0.328892,-4.28691 v -11.52 c 0,-3.23653 0,-6.71131 0,-9.92 0,-1.335 0.02363,-2.60284 -0.0047,-3.84 -0.02443,-1.06735 -0.168193,-1.77198 -0.128149,-2.88 0.05833,-1.61399 0.13539,-2.82774 0.132842,-4.48 -0.0026,-1.67657 -0.237344,-2.55993 -0.307408,-4.16 -0.2333,-5.32782 0.04343,-10.99508 -0.01136,-16.32 -0.01677,-1.62963 -0.312378,-5.63477 0.647656,-6.84692 C 80.672872,175.67472 82.79195,176 83.839996,176 c 3.092403,0 6.187891,-2e-4 9.28,0 0.945518,6e-5 2.29165,-0.23762 3.006914,0.32888 0.739375,0.58561 0.512666,1.94377 0.513086,2.87112 9.96e-4,2.21496 0.01496,4.51117 -2.44e-4,6.72 -0.0056,0.81591 0.08785,1.76623 -0.512842,2.36691 -1.006514,1.00652 -5.53793,1.0715 -7.065185,0.32 -0.772715,-0.38023 -1.117754,-2.88379 -0.412842,-3.77383 0.739277,-0.9334 2.145586,-0.21211 3.089385,-0.84197 1.45747,-0.9727 0.718603,-3.52635 -0.864444,-3.78371 -1.546172,-0.25137 -5.352587,-0.64371 -6.520742,0.28148 -0.67332,0.53328 -0.511435,1.75004 -0.513086,2.55112 -0.0048,2.33347 -0.0048,4.70586 0,7.04 0.0016,0.78515 -0.1729,2.00779 0.513086,2.55111 0.791309,0.62672 2.356504,0.32889 3.326914,0.32889 h 8.96 c 1.008232,0 3.116465,0.38922 3.831114,-0.51309 0.62065,-0.78363 0.32889,-2.39559 0.32889,-3.32691 v -8.32 c 0,-1.74032 0.89913,-7.51262 -0.51309,-8.63112 -1.529619,-1.21146 -6.50292,-0.32888 -8.446914,-0.32888 -7.990869,0 -16.399711,-0.86522 -24.319999,-0.0835 -2.19643,0.2168 -7.175053,-1.25877 -8.766914,0.28443 -0.827045,0.80178 -0.513086,2.82067 -0.513086,3.95903 0,3.30011 -1.204067,9.21888 0.193086,12.05828 0.43459,0.8832 1.782447,0.73986 2.686914,0.74172 2.305713,0.005 4.739502,0.0156 7.04,-2.4e-4 0.815908,-0.006 1.76624,0.0878 2.366914,-0.51285 1.036841,-1.03684 0.540469,-4.03289 0.511606,-5.56691 -0.03749,-1.99239 -2.129062,-3.68555 -3.965434,-2.23112 -1.393623,1.10377 -0.02173,5.56147 -3.931357,3.63803 -1.257114,-0.61848 -1.065205,-5.68728 -0.64,-7.11951 0.332251,-1.11912 1.482783,-1.00043 2.458271,-1.00717 2.303418,-0.0159 4.73189,-0.001 7.04,-2.3e-4 0.964761,4.3e-4 2.534824,-0.21768 3.006914,0.74172 1.267798,2.57648 0.193086,8.68007 0.193086,11.73828 0,1.13783 0.356548,3.09728 -0.513086,3.96691 -0.956436,0.95645 -3.348545,0.51309 -4.606914,0.51309 h -11.2 c -1.164238,0 -3.332607,0.42693 -4.286913,-0.32889 -0.687222,-0.5443 -0.511485,-1.77363 -0.513086,-2.55111 -0.0053,-2.5719 -0.307417,-5.12133 -0.319756,-7.68 -0.04228,-8.7658 0.319756,-17.48735 0.319756,-26.24 0,-2.35306 -1.160537,-7.57158 0.327656,-9.40692 0.758467,-0.93538 3.584341,-0.51308 4.792343,-0.51308 4.242906,0 11.169287,-1.03337 14.992593,0.10173 1.222426,0.36293 1.007334,2.24446 1.007407,3.41827 v 8.96 c 0,1.11526 0.313261,2.77594 -0.328892,3.73827 -0.599155,0.89788 -1.922602,0.73977 -2.871108,0.74173 -2.572847,0.005 -5.813432,0.37646 -8.301235,-0.0474 -1.584644,-0.27 -2.176865,-6.84187 -0.785679,-7.94371 3.25416,-2.57734 3.222988,2.38102 4.16,3.31803 0.692036,0.69203 1.970073,0.75148 2.959507,0.32 1.005595,-0.43851 0.988344,-1.43249 1.005927,-2.36691 0.03105,-1.65007 0.689034,-5.4328 -1.297285,-5.97827 -2.387236,-0.65558 -5.799511,-0.10286 -8.301235,-0.10173 -0.817666,3.7e-4 -2.010219,-0.20706 -2.686914,0.32888 -0.834399,0.66086 -0.513086,2.55238 -0.513086,3.51112 v 9.28 c 0,0.94763 -0.288251,2.54769 0.328892,3.32691 1.16686,1.47328 7.440976,0.51309 9.271108,0.51309 7.763423,0 15.978779,-0.73711 23.679999,0.18543 1.854756,0.22218 7.687236,0.90968 8.951114,-0.69828 0.75433,-0.95969 0.32889,-3.11888 0.32889,-4.28715 v -11.2 c 0,-1.25837 0.44335,-3.65047 -0.51309,-4.60692 -1.36417,-1.36417 -6.265898,-0.51308 -8.126914,-0.51308 -1.906094,0 -3.858769,-0.0129 -5.76,2.4e-4 -0.72082,0.005 -1.740966,-0.106 -2.231113,0.51284 -1.308603,1.65225 -0.329863,6.92513 -0.328887,9.08692 3.81e-4,0.85233 -0.227529,2.28453 0.513086,2.87111 0.898155,0.71136 2.859619,0.32889 3.966914,0.32889 0.97041,0 2.535615,0.29783 3.326914,-0.32889 0.480713,-0.38073 0.491533,-1.03948 0.50543,-1.59234 0.08284,-3.29485 -2.506572,-1.08916 -3.823457,-2.75186 -0.913125,-1.15291 -0.2921,-3.51862 0.969873,-3.86518 1.632558,-0.44833 5.750214,-0.52052 6.828154,0.46815 0.670019,0.61453 0.51126,1.74319 0.513086,2.63012 0.0046,2.22708 0.0046,4.49222 0,6.72 -0.0016,0.78517 0.17289,2.0078 -0.513086,2.55111 -0.791299,0.62672 -2.356504,0.32889 -3.326914,0.32889 h -9.28 c -1.033554,0 -3.11393,0.34144 -3.646914,-0.74173 -0.721889,-1.46707 -0.193085,-3.57262 -0.193085,-5.01827 0,-2.24331 0.05025,-7.03737 -0.0047,-9.28 -0.02365,-0.96517 -0.201792,-1.58243 -0.232593,-2.56 -0.182353,-5.7875 0.246294,-11.35459 0.237286,-16.96 -0.0023,-1.44051 -0.187998,-2.33062 -0.291358,-3.84 -0.540137,-7.88763 -0.02864,-16.08365 -0.02864,-24 0,-4.710226 0.32,-9.377355 0.32,-14.080002 0,-1.425332 -0.548033,-4.139706 0.328891,-5.246913 0.663984,-0.83834 2.783062,-0.513086 3.831108,-0.513086 3.193858,0 6.408184,-0.0014 9.6,0 1.576172,7.12e-4 3.004521,-0.335782 3.18124,1.606171 0.204971,2.252432 0.03478,5.951924 0.01852,8.313828 -0.0061,0.886866 0.07189,2.00835 -0.741485,2.551114 -2.355156,1.571591 -8.631288,0.752812 -7.476542,-3.143711 0.378974,-1.278809 3.386777,-0.913438 3.865185,-2.014805 0.422539,-0.972754 0.225498,-2.25873 -0.548642,-2.775312 -1.278252,-0.852979 -5.669121,-0.916114 -7.156543,-0.1842 -0.998291,0.491221 -0.741309,2.077676 -0.741729,3.006914 -9.76e-4,2.174463 -0.01458,4.566211 2.45e-4,6.72 0.0051,0.743174 -0.08821,1.513575 0.328642,2.138272 0.646133,0.968291 2.352197,0.74165 3.511113,0.741728 3.199678,2.05e-4 6.400312,2.05e-4 9.6,0 0.914043,-5.8e-5 2.565527,0.276778 3.191115,-0.513086 0.82929,-1.04706 0.32889,-3.625781 0.32889,-4.926914 0,-3.985195 0.57517,-10.72706 -0.0474,-14.38123 -0.33304,-1.954785 -6.874734,-1.298769 -8.912595,-1.298769 H 66.879997 c -1.695229,0 -7.217011,-0.868321 -8.311108,0.513086 -0.617148,0.779218 -0.328892,2.379296 -0.328892,3.326914 0,3.093193 0,6.186826 0,9.279999 0,0.988536 -0.236303,2.917588 0.513086,3.511114 1.356573,1.074423 4.753994,0.328886 6.526914,0.328886 1.455347,0 4.244609,0.489219 5.246914,-0.513086 1.018364,-1.018359 0.523232,-3.739482 0.512842,-5.246914 -0.0053,-0.768691 0.106904,-1.721279 -0.512842,-2.2358 -0.563643,-0.46794 -1.553486,-0.604658 -2.348149,-0.451114 -1.854239,0.358282 -0.719043,2.751553 -1.811851,3.746416 -0.614746,0.559649 -1.835273,0.552832 -2.652099,0.389141 -1.340323,-0.268594 -1.297866,-1.603154 -1.313579,-2.728643 -0.01988,-1.424072 -0.431626,-4.648964 0.740493,-5.431113 1.78747,-1.192773 6.631821,-0.333466 8.858271,-0.328886 0.948515,0.002 2.271948,-0.156163 2.871108,0.741728 1.278115,1.915361 0.328892,6.891816 0.328892,9.178271 0,1.673877 0.630141,5.383692 -0.513086,6.526914 -0.850112,0.850108 -2.74791,0.513086 -3.966914,0.513086 h -11.84 c -1.224458,0 -3.722089,0.432627 -4.471108,-0.513086 -1.113901,-1.406406 -0.210371,-5.54999 -0.464692,-7.486914 -1.181841,-9.000947 0.135801,-18.48457 0.135801,-27.519999 0,-2.304043 -1.093526,-8.570957 0.328891,-10.366914 1.166861,-1.473281 7.440972,-0.513086 9.271108,-0.513086 2.768096,0 5.553672,-0.0012 8.32,0 0.858071,3.91e-4 2.025376,-0.195058 2.686914,0.328887 0.831211,0.65834 0.513086,2.450605 0.513086,3.511113 0,2.929199 1.259008,9.610683 -0.328892,12.062969 -1.187397,1.833769 -7.251474,1.061191 -9.271108,1.057031 -0.846758,-0.0017 -2.008252,0.172324 -2.551108,-0.513086 -0.477944,-0.603457 -0.327324,-1.605508 -0.328892,-2.366914 -0.0027,-1.302051 -0.587368,-4.915879 0.741729,-5.566914 0.895244,-0.438516 2.281064,-0.246504 2.905185,0.364453 1.224785,1.198965 0.374024,5.117266 3.665679,3.728125 1.349648,-0.56957 1.233642,-5.156367 0.96,-6.839492 -0.438491,-2.69709 -7.379199,-1.607149 -9.552593,-1.606172 -0.969516,4.3e-4 -2.553134,-0.180469 -3.006914,0.741719 -1.364121,2.772246 -0.193086,8.766718 -0.193086,12.058281 0,1.039062 -0.255644,3.222265 0.513086,3.831113 1.621387,1.28416 6.313613,0.328887 8.446914,0.328887 h 23.679999 c 2.155898,0 7.721465,1.006015 9.406914,-0.328887 1.39916,-1.108164 0.51309,-7.178027 0.51309,-8.951113 v -8.32 c -7e-5,-1.023769 0.29147,-2.223652 -0.32889,-3.006914 -0.593517,-0.749375 -2.522589,-0.513086 -3.511114,-0.513086 -3.093164,0 -6.186797,0 -9.28,0 -1.024648,0 -2.524209,-0.306875 -3.326914,0.328887 -0.67331,0.533281 -0.511435,1.750039 -0.513086,2.551113 -0.0048,2.323418 -0.01576,4.717969 2.45e-4,7.04 0.0056,0.810371 -0.122901,1.941582 0.741484,2.366914 2.067627,1.017402 9.342675,0.811699 7.705185,-2.959512 -0.795996,-1.833222 -4.059023,-0.126504 -4.2679,-2.613574 -0.258692,-3.080117 6.23708,-3.911562 8.1079,-2.040742 1.03708,1.03709 0.513086,3.873437 0.513086,5.246914 0,1.550312 0.649355,4.971777 -0.328887,6.206914 -0.694111,0.876387 -2.805586,0.513086 -3.831113,0.513086 -3.111055,0 -6.174736,0.320215 -9.28,0.32 -1.023769,-5.9e-5 -2.223647,0.291465 -3.006914,-0.328887 -0.700351,-0.554687 -0.5127,-2.00666 -0.513085,-2.871113 -0.0014,-3.191895 0,-6.406074 0,-9.6 V 17.6 7.0399999 c 6.78e-4,-1.5088477 -0.179273,-3.027207 1.606171,-3.4098828 3.249951,-0.6965625 7.517227,-0.1101172 10.873828,-0.1101172 h 23.359994 c 2.75036,0 5.57752,-0.00564 8.32,0 0.78821,0.00162 2.02306,-0.1536523 2.55112,0.513086 0.67102,0.847246 0.32888,2.2212695 0.32888,3.326914 V 16.96 v 36.799999 10.88 c -7e-5,1.21457 0.29337,2.965644 -1.0074,3.554082 -2.9729,1.344863 -8.81,0.285918 -12.11259,0.285918 -1.33257,0 -2.72069,0.414531 -3.53852,-0.513086 -0.99933,-1.133496 -0.30536,-7.524219 -0.30148,-9.406914 0.002,-0.775605 -0.14577,-2.029297 0.51308,-2.551113 1.309,-1.036739 5.80875,-0.79002 7.06519,0.0484 0.75778,0.505664 0.89171,1.542324 0.63975,2.483945 -0.4394,1.642188 -3.2345,0.759043 -3.86494,2.040489 -2.01411,4.093906 5.17585,4.213535 7.43951,3.225195 1.07357,-0.468731 1.00029,-1.688203 1.00716,-2.686914 0.0154,-2.243125 1.01176,-7.394531 -0.32864,-9.086914 -0.59352,-0.749375 -2.52259,-0.513086 -3.51112,-0.513086 -3.30627,0 -6.61372,-2.15e-4 -9.91999,0 -0.93707,5.9e-5 -2.58592,-0.251035 -3.19112,0.513086 -0.83904,1.059375 -0.32888,3.565078 -0.32888,4.926914 v 10.56 c 0,1.449844 -0.41711,3.138203 0.19308,4.378281 0.3782,0.768594 1.3093,0.726289 2.04716,0.740234 2.26531,0.04281 4.75296,0.0015 7.03976,0.0015 7.94183,0 16.44941,-1.004727 24.31999,-0.168145 1.8335,0.194883 7.88471,0.783906 8.95112,-0.882226 0.63213,-0.987618 0.32888,-2.615703 0.32888,-3.749629 0,-2.87916 1.9e-4,-5.761113 0,-8.64 -6e-5,-1.044648 0.27695,-2.565391 -0.51308,-3.191113 -0.66925,-0.530059 -1.81303,-0.328496 -2.68692,-0.328887 -2.0764,-9.37e-4 -7.45285,-0.965312 -9.08691,0.328887 -1.54948,1.227226 -1.08748,7.978769 1.40814,7.978769 3.46446,0 1.23655,-5.269433 5.39137,-4.045937 1.65827,0.48832 1.54156,7.397382 0.26568,8.025195 -2.13485,1.050469 -6.77798,0.198027 -9.17828,0.193086 -0.82097,-0.0017 -2.01625,0.162226 -2.55111,-0.513086 -0.48807,-0.616231 -0.32726,-1.581055 -0.32889,-2.366914 -0.004,-2.004942 0,-4.069473 0,-6.08 0,-1.650938 -0.72443,-6.370976 0.51309,-7.351113 0.60346,-0.477949 1.60554,-0.327324 2.36691,-0.328887 2.21573,-0.0046 4.49805,0 6.72,0 h 8.32 c 0.87726,5.9e-5 2.28286,-0.24459 3.00692,0.328887 1.31915,1.044785 0.51308,6.066523 0.51308,7.671113 v 23.04 c 0.001,3.833359 0.32025,7.668242 0.32,11.519999 -6e-5,1.113057 0.2097,2.876231 -0.74173,3.511114 -1.14732,0.765605 -2.9651,0.328886 -4.37827,0.328886 h -11.2 c -1.27662,0 -4.0121,0.467344 -4.79111,-0.513086 -0.55819,-0.702519 -0.50082,-2.341875 -0.59456,-3.326914 -0.28144,-2.95748 -1.15597,-9.74708 0.13876,-12.378271 0.64363,-1.308037 4.28867,-0.741728 5.56691,-0.741728 1.58154,0 5.26631,-0.668926 6.52692,0.328886 1.09269,0.864903 0.884,4.428799 0.82691,5.750869 -0.082,1.898604 -2.31707,3.213174 -3.96074,1.911358 -1.21271,-0.960489 -0.31624,-5.414737 -3.93136,-3.638028 -1.31889,0.648194 -1.03202,5.720635 -0.64,7.148155 0.36341,1.3233 1.59189,1.290351 2.77827,1.298515 2.30563,0.01587 5.06988,0.04185 7.36,-0.0012 0.93209,-0.01754 1.92984,-0.0047 2.36692,-1.005918 1.15265,-2.640459 -0.12692,-8.672285 -0.12692,-11.792597 0,-1.137813 0.35654,-3.097286 -0.51308,-3.966914 -1.50112,-1.501114 -7.33621,-0.513086 -9.40692,-0.513086 -7.56566,0 -15.16967,0.34623 -22.71999,0.176797 -2.09686,-0.04705 -7.83057,-0.776407 -9.40692,0.472089 -0.61885,0.490137 -0.50787,1.510293 -0.51284,2.231114 -0.016,2.323037 -2.4e-4,4.710888 -2.4e-4,7.039999 0,2.768086 -0.001,5.553672 0,8.32 3.9e-4,0.858096 -0.19508,2.025352 0.32888,2.686914 0.69026,0.871514 2.713,0.513086 3.83112,0.513086 h 8.95999 c 1.1732,0 2.46863,0.304815 3.41828,-0.328886 0.86754,-0.578907 0.73972,-1.898584 0.74172,-2.871114 0.005,-2.201045 0.0149,-4.523935 -2.4e-4,-6.72 -0.006,-0.809003 0.0874,-1.734853 -0.51284,-2.32247 -1.1717,-1.146992 -4.45716,-0.628457 -6.20543,-0.551358 -1.77646,0.07834 -2.79845,2.438243 -1.5926,3.960743 0.98181,1.239628 5.88511,0.35996 3.50223,3.931357 -0.50131,0.751348 -1.43626,0.725293 -2.23112,0.740244 -1.55333,0.02922 -3.70709,0.423867 -5.03086,-0.191602 -1.08937,-0.506484 -0.99057,-1.940507 -0.86371,-3.006914 0.21686,-1.82288 0.13746,-3.966396 0.13458,-5.759999 -0.001,-0.862842 -0.30551,-2.291485 -0.0356,-3.098272 0.18182,-0.543398 0.6142,-0.625039 1.01556,-0.694326 2.56196,-0.442266 9.08807,-0.0474 12.13999,-0.0474 0.98854,0 2.91759,-0.236299 3.51112,0.513086 0.80625,1.017968 0.32888,2.962363 0.32888,4.286914 V 97.919998 144.64 158.4 c 0,1.16361 0.45242,4.01931 -0.74172,4.60691 -2.86007,1.40734 -9.1401,0.19309 -12.37827,0.19309 -1.11811,0 -3.14088,0.35842 -3.83112,-0.51309 -0.88279,-1.11462 -0.32888,-4.35456 -0.32888,-5.88691 0,-1.48366 -0.51744,-4.8564 0.51308,-5.88692 1.05592,-1.05591 3.77347,-0.53242 5.24692,-0.51185 0.82247,0.0115 1.75988,-0.0379 2.36691,0.5563 0.59291,0.58041 0.59982,1.45298 0.46544,2.3163 -0.43148,2.77189 -5.2007,0.74332 -4.01063,4.75876 0.30234,1.02012 1.24392,0.98901 2.13852,1.00592 1.38325,0.0262 4.86672,0.60472 5.75087,-0.5116 0.80786,-1.02 0.32888,-3.63544 0.32888,-4.92691 0,-1.83386 0.78127,-5.44523 -0.32888,-6.84692 -0.59353,-0.74938 -2.52259,-0.51308 -3.51112,-0.51308 -3.09317,0 -6.18679,0 -9.27999,0 -1.02466,0 -2.52419,-0.30689 -3.32692,0.32888 -0.83836,0.664 -0.51308,2.78307 -0.51308,3.83112 v 12.16 c 0,1.18857 -0.45099,3.98828 0.74172,4.6116 1.94783,1.01797 5.0975,0.19525 7.25828,0.38519 7.89503,0.69397 16.07253,0.12321 23.99999,0.12321 2.78264,0 7.44637,0.86623 9.8726,-0.19309 1.57263,-0.68662 0.63278,-4.60187 0.82443,-6.20691 0.31192,-2.61223 -0.11891,-5.08186 -0.13678,-7.68 -0.006,-0.8759 0.13941,-2.03417 -0.51333,-2.68692 -1.13726,-1.13725 -4.31954,-0.51308 -5.88692,-0.51308 -1.45835,0 -5.09697,-0.61958 -5.97827,0.74173 -0.71767,1.10857 -0.57524,6.37208 0.22716,7.38518 0.54648,0.68998 1.74503,0.6259 2.53235,0.41136 1.22074,-0.33265 1.19961,-3.4515 2.04049,-3.86519 3.82352,-1.88108 4.41625,4.96464 3.22519,7.38519 -0.46291,0.94075 -1.82171,0.73995 -2.68692,0.74173 -2.15203,0.004 -7.72484,1.00334 -9.40691,-0.32889 -0.83478,-0.66117 -0.51309,-2.53973 -0.51309,-3.51111 v -9.6 c 6e-5,-0.91516 -0.28943,-2.5555 0.51309,-3.19112 1.02866,-0.81471 3.65415,-0.32888 4.92691,-0.32888 h 10.24 c 1.44915,0 3.42419,-0.38692 4.7526,0.19308 0.97047,0.42372 0.98858,1.44523 1.00592,2.36692 0.0479,2.5455 0.001,5.13077 0.001,7.68 0,9.28478 0.32,18.57896 0.32,27.84 0,1.85734 0.87996,7.82027 -1.0074,8.67406 -3.66172,1.65646 -10.94051,0.28594 -14.9926,0.28594 -1.48062,0 -3.78043,0.54879 -4.9316,-0.32889 -0.79639,-0.60721 -0.81488,-2.47283 -0.82717,-3.51111 -0.0392,-3.31004 0.0339,-6.6043 0,-9.92 -0.0102,-0.99366 -0.27037,-2.57157 0.51186,-3.19112 0.66154,-0.52394 1.82882,-0.32849 2.68691,-0.32888 1.81585,-8.2e-4 8.13813,-0.91742 9.27112,0.51308 0.80254,1.01328 0.77404,6.31641 0,7.29383 -0.73867,0.93274 -2.40593,0.56996 -3.51112,0.83309 -0.38784,-1.31211 0.14603,-3.34528 -1.06172,-4.15112 -4.11586,-2.74615 -4.64422,6.60489 -2.90519,7.98223 1.6745,1.32623 7.30099,0.33322 9.40691,0.32889 0.78517,-0.002 2.0078,0.17291 2.55112,-0.51309 1.3349,-1.68545 0.32888,-7.25101 0.32888,-9.40691 0,-1.55959 0.66255,-5.77998 -0.51308,-6.71112 -0.60348,-0.47795 -1.60553,-0.32732 -2.36692,-0.32888 -2.32108,-0.005 -4.71236,0 -7.04,0 H 114.24 c -2.03749,0 -6.88387,-0.90907 -8.44692,0.32888 -0.90482,0.71664 -0.51308,3.32323 -0.51308,4.47112 v 12.16 c 0,1.07748 -0.40245,3.42599 0.51308,4.15111 1.26015,0.99807 4.04109,0.12588 5.56692,0.22174 2.51243,0.15783 8.35463,1.18201 10.45827,-0.22174 0.89504,-0.59727 0.73976,-1.91822 0.74172,-2.87111 0.005,-2.47975 0.83856,-7.06002 -0.64419,-9.17828 -1.06989,-1.52842 -7.54884,-0.6954 -7.89408,0.5573 -0.24466,0.88773 -0.29062,2.01414 0.22716,2.66789 1.16831,1.47512 3.74973,-0.49803 3.82346,2.43432 0.0767,3.05127 -3.18757,2.23978 -5.43234,2.23877 -0.85234,-3.9e-4 -2.28454,0.22754 -2.87112,-0.51309 -1.3335,-1.68369 -0.33333,-7.24631 -0.32888,-9.40691 0.002,-0.8011 -0.16024,-2.01784 0.51308,-2.55112 C 110.81062,175.6497 112.50369,176 113.6,176 h 8.95999 c 0.99115,0 2.51722,-0.27012 3.35556,0.32888 1.06721,0.76254 0.80401,2.67725 0.80444,3.83112 v 10.56 c 0,3.36129 -0.53772,7.27798 -0.26444,10.56 0.21172,2.54261 0.26444,4.6425 0.26444,7.36 0,1.33363 0,2.1605 0,3.52 0,5.2298 0,10.74402 0,16 v 9.28 c 0,0.95373 -0.3433,2.83283 0.51309,3.51111 1.58944,1.25887 6.7757,0.32889 8.76691,0.32889 h 24.32 c 4.91065,0 9.83092,-0.0687 14.72,0.0753 1.90541,0.0561 4.92623,0.92201 6.61828,-0.17703 1.07702,-0.69955 0.74172,-2.61233 0.74172,-3.73828 V 226.88 188.8 c 0,-3.19907 -0.001,-6.40125 0,-9.6 4.1e-4,-0.92733 -0.22627,-2.28553 0.51309,-2.87112 0.81109,-0.6424 2.55219,-0.32888 3.64691,-0.32888 2.44004,0 5.67549,-0.0264 8,0.001 1.23842,0.0147 3.56098,-0.32022 4.47111,0.83185 1.00661,1.27418 0.32889,4.90506 0.32889,6.52692 0,1.27277 0.48584,3.89824 -0.32889,4.92691 -1.41765,1.78992 -10.86742,0.91305 -7.66222,-3.13383 0.77603,-0.9798 2.38168,-0.10039 3.31803,-0.84197 0.69777,-0.55264 0.71328,-2.29002 0.32,-3.08939 -0.66168,-1.34493 -4.54229,-0.76567 -5.88666,-0.74024 -0.90391,0.0171 -1.8318,-0.0273 -2.13854,1.00592 -0.67566,2.27586 -0.10285,6.10769 -0.10172,8.5926 3.9e-4,0.85562 -0.19637,2.02847 0.32889,2.68666 0.6201,0.77703 1.92422,0.34881 2.87111,0.38345 3.30324,0.12088 6.61082,0.1301 9.92,0.12989 1.11305,-8e-5 2.87623,0.2097 3.51111,-0.74172 0.76561,-1.14735 0.32889,-2.96512 0.32889,-4.37828 v -11.2 c 0,-1.27494 0.46764,-4.01436 -0.51308,-4.79112 -1.24381,-0.98509 -5.13487,-0.32888 -6.84692,-0.32888 h -19.2 -12.16 c -1.04804,0 -3.16713,-0.32528 -3.83111,0.51308 -0.6792,0.85756 -0.32889,2.55063 -0.32889,3.64692 v 8.96 c 0,0.97043 -0.29784,2.5356 0.32889,3.32691 0.58658,0.74063 2.01879,0.5127 2.87111,0.51309 2.09832,9.3e-4 7.44576,0.97091 9.08692,-0.32889 1.09736,-0.86912 0.53722,-4.39533 0.5116,-5.75088 -0.0124,-0.65662 0.0485,-1.46777 -0.5116,-1.91135 -0.53584,-0.42437 -1.33996,-0.36873 -2.04075,-0.30986 -2.30929,0.19395 -0.94117,2.4498 -2.11925,3.62789 -0.5868,0.5868 -1.48961,0.60531 -2.34815,0.46543 -1.94562,-0.31699 -1.30234,-3.98217 -1.29877,-5.71234 0.002,-0.80108 -0.16021,-2.01785 0.51309,-2.55112 1.61205,-1.27677 6.63947,-0.32902 8.76691,-0.32888 0.9002,6e-5 2.58463,-0.25266 3.19112,0.51308 1.4448,1.82422 0.32984,6.93655 0.32888,9.40692 -6e-4,1.56824 0.45178,5.87437 -0.51334,6.84691 -0.84504,0.85154 -2.75138,0.51309 -3.96666,0.51309 -3.96072,0 -7.88822,-0.0745 -11.84,-0.23629 -1.17675,-0.0482 -4.16505,0.31992 -4.79111,-0.53408 -1.37604,-1.87702 -0.32889,-7.06891 -0.32889,-9.46963 v -25.92 c 0,-2.30405 -1.09353,-8.57097 0.32889,-10.36692 0.77467,-0.97809 3.33961,-0.51308 4.47111,-0.51308 h 11.52 c 1.19897,0 3.37293,-0.4009 4.28692,0.51308 0.86963,0.86962 0.51308,2.82909 0.51308,3.96692 0,3.40412 0.85114,8.24119 -0.0573,11.47259 -0.43998,1.5651 -3.76723,1.00741 -5.06272,1.00741 -1.5489,0 -6.36281,0.73474 -7.35111,-0.51309 -0.62672,-0.79131 -0.32889,-2.35649 -0.32889,-3.32691 0,-1.12148 -0.44918,-3.70092 0.74172,-4.28692 0.84666,-0.41661 2.57945,-0.37564 3.2252,0.1358 1.1558,0.91542 0.33779,5.89991 3.93136,3.50223 1.20592,-0.8046 1.27065,-6.75613 0.22864,-7.79803 -1.06578,-1.06566 -4.44602,-0.52773 -5.88692,-0.49679 -1.4639,0.0314 -4.68892,-0.63623 -5.88691,0.31259 -0.90231,0.71464 -0.51309,2.82287 -0.51309,3.83112 0,3.37508 -1.23576,9.47451 0.19309,12.37828 0.40902,0.83123 1.54176,0.73578 2.36691,0.74148 2.32076,0.016 4.7126,2.4e-4 7.04,2.4e-4 h 24.32 c 2.01041,0 4.07522,0.0135 6.08,-2.4e-4 0.8159,-0.006 1.76623,0.0878 2.36692,-0.51285 0.6007,-0.6007 0.5072,-1.55098 0.51283,-2.36691 0.0138,-2.00483 2.5e-4,-4.06956 2.5e-4,-6.08 0,-2.8184 1.2326,-9.39827 -0.32889,-11.73827 -0.68269,-1.02307 -2.43486,-0.74166 -3.51111,-0.74173 h -9.28 c -0.99885,0 -2.80914,-0.33464 -3.64691,0.32888 -1.51211,1.19761 -0.5169,7.73885 -0.51309,9.59112 0.002,0.87307 -0.18474,2.23103 0.74172,2.68691 1.27436,0.62707 6.29322,0.72905 7.3852,-0.1358 0.67892,-0.53772 0.64652,-2.03028 0.41136,-2.82371 -0.42892,-1.44723 -3.34029,-0.6822 -3.86519,-1.74913 -0.86662,-1.76149 0.0846,-3.49961 2.04717,-3.59136 1.36918,-0.064 4.84425,-0.46751 5.75085,0.68592 1.3328,1.69563 0.33332,7.25714 0.32889,9.40717 -0.002,0.87306 0.18475,2.23103 -0.74172,2.68691 -1.32957,0.65424 -3.2799,0.0624 -4.69828,-0.0726 -2.52551,-0.24033 -5.14404,-0.0543 -7.68,-0.0543 -1.02035,0 -3.09152,0.38697 -3.64691,-0.74173 -0.63387,-1.28819 -0.19309,-3.60885 -0.19309,-5.01827 V 145.92 104 87.039998 c 0,-1.326845 -0.61047,-4.86124 0.51309,-5.751113 0.83191,-0.658886 2.63152,-0.328886 3.64691,-0.328886 h 8.96 c 0.93131,0 2.54328,-0.291758 3.32692,0.328886 1.52916,1.211123 0.44812,7.412949 0.52568,9.271113 0.0362,0.867696 0.37389,1.721993 -0.0501,2.458272 -0.50713,0.880566 -1.91414,0.739814 -2.84246,0.741728 -1.66605,0.0034 -4.87135,0.414737 -5.33828,-1.298759 -1.00814,-3.699629 3.8277,-1.766631 4.03805,-4.782725 0.22633,-3.245137 -3.15131,-2.304248 -5.41977,-2.255801 -0.73373,0.01567 -2.00387,-0.376982 -2.55111,0.239014 -0.86498,0.973652 -0.32889,3.958516 -0.32889,5.218271 0,1.652276 -0.62205,5.32625 0.32889,6.526914 0.65832,0.831202 2.45056,0.513086 3.51111,0.513086 h 9.28 c 0.97039,0 2.53561,0.297832 3.32692,-0.328886 0.9155,-0.725088 0.51308,-3.073643 0.51308,-4.151114 V 81.599999 c 0,-1.224473 0.43262,-3.72209 -0.51308,-4.471114 -0.60346,-0.477929 -1.60555,-0.327324 -2.36692,-0.328886 -2.32072,-0.0048 -4.71289,0.02631 -7.04,-0.0012 -7.86926,-0.0931 -15.78763,0.0012 -23.68,0.0012 -1.99836,0 -7.15216,-0.972285 -8.76691,0.0632 -1.26806,0.813164 -0.51309,6.471123 -0.51309,7.936797 0,1.959687 -0.87014,6.933017 0.32889,8.446913 0.59287,0.748565 2.00159,0.512696 2.87111,0.513086 2.39391,0.0011 6.7328,0.852784 8.85828,-0.193086 0.85733,-0.421855 0.73588,-1.558281 0.74147,-2.366914 0.0125,-1.806103 0.77082,-5.662246 -1.60592,-6.032353 -3.26767,-0.508848 -1.71814,2.128887 -2.88271,3.599268 -0.49092,0.619833 -2.24084,0.73747 -3.0894,0.32 -0.93043,-0.457754 -0.73992,-1.812178 -0.74172,-2.686915 -0.003,-1.624804 -0.56211,-5.075546 1.29877,-5.392597 2.30223,-0.392246 5.85705,-0.04851 8.30123,-0.0474 0.85807,3.9e-4 2.02537,-0.195069 2.68692,0.328886 0.78759,0.623789 0.51302,2.19334 0.51308,3.191114 2.2e-4,3.199609 2.2e-4,6.40039 0,9.599999 -8e-5,1.229502 0.20653,3.116905 -1.0074,3.646914 -1.3735,0.599678 -3.19027,0.193086 -4.7526,0.193086 h -10.56 c -1.17701,0 -4.00811,0.475528 -4.79111,-0.513086 -1.08674,-1.372109 -0.32889,-5.43331 -0.32889,-7.166914 v -19.839999 -14.08 c 0,-1.178535 -0.35507,-4.067226 0.74173,-4.606914 1.506,-0.741055 3.95737,-0.291836 5.65827,-0.217031 3.18119,0.139902 6.41362,0.02394 9.6,0.02394 1.3503,0 3.94119,-0.451816 4.92692,0.328887 0.83119,0.65832 0.51308,2.450605 0.51308,3.511113 v 8.64 c 0,1.039433 0.27033,2.520293 -0.32888,3.418281 -1.11598,1.672402 -7.37225,0.742578 -9.27112,0.741719 -0.85416,-3.91e-4 -2.27732,0.236621 -2.87111,-0.513086 -0.91602,-1.156563 -0.44266,-4.744082 -0.31012,-6.200742 0.13498,-1.483379 2.33762,-2.299395 3.62815,-1.277285 1.15636,0.915859 0.33773,5.899921 3.93136,3.502226 1.35332,-0.902949 0.85879,-4.892051 0.72295,-6.384941 -0.23015,-2.529473 -6.9233,-1.606328 -9.26123,-1.606172 -1.00392,5.9e-5 -2.84091,-0.245957 -3.32691,0.741719 -1.32875,2.700351 -0.19309,8.624453 -0.19309,11.738281 0,1.01207 -0.36241,3.137715 0.51309,3.831113 1.68978,1.33834 7.26207,0.328887 9.40691,0.328887 7.80043,0 15.58168,0.06357 23.36,0.05408 2.16668,-0.0026 7.30412,1.029023 9.08692,-0.382969 1.45447,-1.151953 0.51308,-7.184375 0.51308,-8.951113 v -8 c -6e-5,-1.023809 0.29149,-2.223633 -0.32889,-3.006914 -0.59353,-0.749394 -2.52255,-0.513086 -3.51111,-0.513086 -3.09318,0 -6.18678,0 -9.28,0 -1.01541,0 -2.815,-0.33 -3.64691,0.328887 -0.69156,0.547734 -0.51147,1.762519 -0.51309,2.551113 -0.004,2.019063 -0.95269,7.621133 0.51309,9.086914 0.86963,0.869629 2.82906,0.513086 3.96691,0.513086 1.00817,0 3.11656,0.389238 3.83111,-0.513086 2.46096,-3.107617 -2.27537,-3.149902 -3.31802,-3.975801 -0.69467,-0.550254 -0.72213,-2.272031 -0.32,-3.089394 0.56107,-1.14043 5.47279,-0.925235 6.82814,-0.694317 2.35176,0.400664 1.3027,7.649121 1.29877,9.552598 -0.002,0.998515 0.1882,2.486601 -1.0074,2.822715 -3.31797,0.932754 -8.29688,0.05728 -11.7926,0.05728 -1.00824,0 -3.11648,0.389219 -3.83111,-0.513086 -0.62063,-0.783613 -0.32889,-2.395586 -0.32889,-3.326914 v -8 V 24.96 8.9599998 c 0,-1.417246 -0.54781,-4.5678905 1.0074,-5.2469139 2.5552,-1.1156055 7.38393,-0.193086 10.1926,-0.193086 h 24.64 7.68 c 0.87723,5.86e-5 2.28287,-0.2445703 3.00691,0.3288868 0.85094,0.6739453 0.51309,2.5385741 0.51309,3.5111132 V 17.92 v 36.799999 9.28 c 0,0.998887 0.33465,2.80914 -0.32889,3.646914 -0.78097,0.986074 -3.35884,0.513086 -4.47111,0.513086 -3.40781,0 -8.85734,-0.56166 -11.84,0.32 -1.22348,-2.542344 -0.64,-5.788359 -0.64,-8.64 0,-1.039492 -0.27037,-2.520234 0.32889,-3.418281 0.80677,-1.209024 6.34302,-1.231192 7.56939,-0.412832 3.84869,2.568222 -2.20631,3.606465 -2.90519,4.16 -0.83391,0.660468 -0.72432,3.169121 0.22863,3.638027 1.33394,0.656387 6.75543,0.671152 7.56939,-0.548633 0.95286,-1.42793 0.32889,-4.617929 0.32889,-6.298281 0,-1.316484 0.4843,-3.929531 -0.51309,-4.926914 -0.77316,-0.773164 -2.31855,-0.513027 -3.32691,-0.513086 h -9.28 c -1.00824,0 -3.11648,-0.389199 -3.83111,0.513086 -1.6541,2.088496 -0.023,8.746172 -0.0919,11.326914 -0.0505,1.892539 -1.03283,7.68582 0.59483,8.951113 0.91541,0.711602 2.86031,0.328887 3.96814,0.328887 h 9.92 20.8 c 1.50363,0 6.06726,0.703886 7.03111,-0.513086 1.26448,-1.596524 0.32889,-6.731172 0.32889,-8.766914 0,-1.816328 0.69734,-5.400391 -0.32889,-6.938281 -1.11599,-1.672403 -7.37224,-0.742578 -9.27111,-0.741719 -0.85418,3.91e-4 -2.27732,-0.236641 -2.87111,0.513086 -0.91327,1.153086 -0.44305,4.739902 -0.31012,6.200742 0.13685,1.504043 2.35107,2.359512 3.62814,1.321738 0.89924,-0.730742 0.26481,-2.794609 1.31752,-3.546679 3.91715,-2.798438 3.82994,4.108828 3.6568,6.069882 -0.28861,3.269043 -6.76527,2.119493 -9.26123,2.228633 -1.02477,0.04481 -2.86272,0.214258 -3.32691,-0.729121 -0.53571,-1.088691 -0.19309,-2.461308 -0.19309,-3.738281 0,-2.905879 -0.18199,-5.75041 -0.3074,-8.64 -0.0481,-1.108867 -0.20176,-2.844902 0.76617,-3.511113 2.01984,-1.390215 7.59043,-0.328887 10.10123,-0.328887 2.55752,0 5.12332,-0.01734 7.68,2.54e-4 0.87562,0.006 2.00103,-0.08287 2.55111,0.741465 1.31371,1.968711 0.32889,7.145117 0.32889,9.498281 0,8.259785 -0.53559,16.721132 0.0286,24.959999 0.17598,2.569688 1.45031,8.228623 -0.0375,10.458272 -0.75115,1.125654 -2.9641,0.741728 -4.15111,0.741728 h -12.16 c -1.22447,0 -3.72209,0.432627 -4.47111,-0.513086 -0.56651,-0.715254 -0.32883,-2.061406 -0.32889,-3.006914 -2e-4,-3.092119 0,-6.187587 0,-9.279999 0,-1.048047 -0.32527,-3.16712 0.51309,-3.831114 1.24726,-0.987851 4.5947,-0.328886 6.20691,-0.328886 1.42961,0 4.49115,-0.562676 5.56691,0.513086 1.07,1.069999 0.53866,4.129404 0.5116,5.566913 -0.0134,0.710196 0.0258,1.509541 -0.5116,2.046915 -0.463,0.463007 -1.09591,0.500742 -1.72593,0.500742 -3.19647,0 -1.04284,-3.392266 -3.24838,-4.045928 -0.83936,-0.24876 -2.30328,-0.245723 -2.82371,0.411357 -0.80493,1.016309 -0.32948,3.29212 -0.32889,4.606914 3.9e-4,0.858106 -0.1951,2.025342 0.32889,2.686914 0.49525,0.625313 1.47554,0.507637 2.23111,0.512842 2.40471,0.01657 4.94978,0.0052 7.36,2.44e-4 0.9725,-0.002 2.29221,0.125801 2.87111,-0.741728 0.62832,-0.941572 0.34153,-2.25292 0.32766,-3.418272 -0.0356,-2.996171 0.705,-9.585292 -0.51186,-12.058281 -0.49504,-1.006054 -2.84431,-0.741718 -3.96691,-0.741718 h -13.44 -18.24 c -1.56699,0 -5.25363,-0.679571 -6.52691,0.328886 -1.02491,0.811739 -0.51309,3.628731 -0.51309,4.791114 0,3.955791 -0.10879,7.905244 0.26568,11.839999 0.11661,1.225303 -0.26716,2.372539 0.24741,3.418272 0.48716,0.990058 2.5642,0.741728 3.64691,0.741728 3.19895,0 6.40137,0.0014 9.6,0 1.00377,-4.49e-4 2.29268,0.201143 3.00691,-0.513086 0.66,-0.66 0.51122,-1.77207 0.51309,-2.686914 0.005,-2.319472 0.51201,-6.205351 -0.10172,-8.272597 -0.42131,-1.419121 -4.14467,-1.010518 -5.65828,-1.007402 -0.89031,0.0018 -2.23652,-0.174678 -2.68691,0.741728 -0.43998,0.895254 -0.29618,2.289014 0.32,2.905186 0.88718,0.887177 3.48455,0.227871 3.86519,1.520488 0.27674,0.939785 0.22668,2.001474 -0.41137,2.639511 -1.05521,1.055205 -4.00246,0.523623 -5.56691,0.512842 -0.75553,-0.0052 -1.73586,0.112471 -2.23111,-0.512842 -0.47797,-0.603476 -0.32733,-1.605517 -0.32889,-2.366914 -0.005,-2.225029 -0.32016,-4.492685 -0.32,-6.719999 6e-5,-0.927178 -0.22605,-2.285704 0.51309,-2.871114 0.60349,-0.477968 1.60548,-0.327324 2.36691,-0.328886 2.32107,-0.0048 4.71236,0 7.04,0 1.64824,0 5.62346,-0.710371 6.84691,0.513086 0.99739,0.997373 0.51309,3.610458 0.51309,4.926913 v 13.12 V 146.24 158.4 c 0,1.23739 0.46188,3.60848 -0.32889,4.60691 -0.6941,0.87639 -2.8056,0.51309 -3.83111,0.51309 -3.12672,0 -9.426,1.10217 -12.05828,-0.19309 -0.95939,-0.47209 -0.74129,-2.04216 -0.74172,-3.00691 -0.001,-2.30811 -0.0156,-4.73657 2.5e-4,-7.04 0.008,-1.17929 -0.0952,-2.27515 1.29852,-2.5126 1.27527,-0.21728 3.45217,-0.0563 4.78123,-0.0472 0.65539,0.005 1.49053,-0.11202 2.04691,0.32864 0.4994,0.39553 0.50075,1.00909 0.50075,1.59235 0,3.16641 -2.94334,1.2425 -4.13877,2.75185 -1.32399,1.67166 0.004,3.87765 1.91136,3.96075 1.88625,0.0822 4.75727,0.55421 5.88666,-0.55136 0.66614,-0.65209 0.51114,-1.69701 0.51309,-2.64247 0.005,-2.26373 0.0154,-4.77546 -2.5e-4,-7.04 -0.006,-0.88802 0.0675,-1.9629 -0.74147,-2.50272 -1.34824,-0.89968 -3.12347,-0.22759 -4.69828,-0.1163 -2.49094,0.17604 -5.15717,0.059 -7.68,0.059 -1.01207,0 -3.13771,-0.36241 -3.83111,0.51308 -0.62989,0.7953 -0.32889,2.3639 -0.32889,3.32692 v 8 c 0,1.77308 -0.88607,7.84297 0.51309,8.95111 1.59652,1.26447 6.73115,0.32889 8.76691,0.32889 h 23.68 c 2.32746,0 4.71916,0.0157 7.04,-2.4e-4 0.8159,-0.006 1.76623,0.0878 2.36691,-0.51285 0.80821,-0.8082 0.51309,-2.49344 0.51309,-3.64691 0,-3.12578 1.10164,-9.42703 -0.19309,-12.05827 -0.43359,-0.88118 -1.54381,-0.73581 -2.36691,-0.74149 -2.2924,-0.0158 -5.0524,-0.005 -7.36,-2.4e-4 -1.06063,0.002 -2.42375,-0.18677 -2.77828,1.0074 -0.40086,1.35019 -0.12947,3.52548 -0.10024,5.07235 0.0179,0.94604 -0.0349,1.77582 1.00592,2.16716 1.89082,0.71094 3.3442,0.10456 3.46791,-1.8479 0.0504,-0.79528 -0.0874,-1.43121 0.51778,-1.91013 1.69175,-1.33886 3.61126,0.4215 3.64542,2.23136 0.03,1.5899 0.54657,4.50851 -0.5116,5.56667 -0.60068,0.60068 -1.55099,0.50723 -2.36691,0.51284 -2.30051,0.0158 -4.73428,0.005 -7.04,2.5e-4 -0.90443,-0.002 -2.25232,0.14146 -2.68691,-0.74173 -1.39715,-2.83938 -0.19309,-8.75817 -0.19309,-12.05827 0,-1.1084 -0.31512,-3.12602 0.51309,-3.88099 0.90582,-0.82573 2.75957,-0.52234 3.96691,-0.54618 3.83943,-0.0758 7.67963,-0.0528 11.52,-0.0528 1.25838,0 3.65047,-0.44335 4.60691,0.51308 1.64453,1.64452 0.62063,7.55856 0.52569,9.72692 -0.38276,8.74134 0.26511,17.52379 0.30715,26.24 0.0122,2.53843 0.0174,5.14881 0,7.68 -0.005,0.79515 0.0989,1.78504 -0.51284,2.35431 -0.80836,0.75229 -3.39021,0.25416 -4.60691,0.25409 l -11.52,-0.0484 c -1.32455,0 -3.26895,0.47736 -4.28691,-0.32889 -0.62528,-0.49523 -0.50797,-1.52563 -0.51284,-2.23111 -0.0121,-1.75592 -2.5e-4,-3.66858 -2.5e-4,-5.44 0,-2.04993 -1.13791,-7.84201 0.74172,-8.76692 1.91619,-0.94289 3.55762,-0.15084 5.33828,-0.18519 1.7099,-0.033 4.54912,-0.47645 5.97828,0.39334 0.87195,0.53068 0.73977,1.85056 0.74172,2.79877 0.004,2.065 0.71787,5.23568 -1.92148,5.41976 -2.46475,0.17188 -2.02559,-1.01226 -2.66024,-3.13236 -0.35887,-1.19883 -1.75404,-1.29002 -3.05088,-0.90568 -1.04099,0.30853 -0.98875,1.2305 -1.00592,2.13851 -0.0257,1.36152 -0.58171,5.23619 0.74024,5.88668 2.12551,1.04588 6.46435,0.19416 8.85828,0.19309 0.85234,-3.9e-4 2.28453,0.22754 2.87111,-0.51309 1.26448,-1.59652 0.32889,-6.73115 0.32889,-8.76691 0,-1.65094 0.72443,-6.37098 -0.51309,-7.35112 -0.60347,-0.47795 -1.60554,-0.32732 -2.36691,-0.32888 -2.32111,-0.005 -4.71234,0 -7.04,0 h -24 c -2.07908,0 -4.34055,-0.0139 -6.4,2.3e-4 -0.70014,0.005 -1.49156,-0.11119 -2.04691,0.32865 -0.84032,0.66555 -0.51309,3.27578 -0.51309,4.47112 v 11.84 c 0,1.17269 -0.42262,3.33814 0.32889,4.28691 0.71951,0.90836 2.50888,0.39139 3.51111,0.32617 3.06061,-0.19916 6.21279,-0.20353 9.28,-0.1284 1.16164,0.0285 2.80002,0.63192 3.64691,-0.199 0.66338,-0.65088 0.51122,-1.77732 0.51309,-2.68568 0.005,-2.39375 0.53117,-6.4608 -0.10172,-8.5926 -0.34846,-1.17371 -1.45439,-1.00024 -2.45828,-1.00717 -1.53088,-0.0105 -4.40412,-0.5923 -5.56691,0.32865 -0.87479,0.69286 -0.50043,3.27928 0.22863,3.63803 1.3451,0.66188 2.09488,-0.37324 3.22519,0.52197 0.55127,0.43662 0.54245,1.20246 0.49286,1.90989 -0.036,0.51291 -0.0956,1.01089 -0.49286,1.40814 -0.76378,0.76379 -2.24396,0.51301 -3.32691,0.51309 -1.23424,7e-5 -3.32514,0.43285 -4.28691,-0.32889 -0.61885,-0.49014 -0.50787,-1.51029 -0.51284,-2.23111 -0.0131,-1.90118 -2.5e-4,-3.85397 -2.5e-4,-5.76 0,-1.74004 -0.64441,-4.10153 1.29877,-4.4326 1.56922,-0.26736 4.19869,-0.0499 5.74123,-0.0474 1.52941,0.002 3.10305,0.0733 4.8,0.15851 1.62822,0.0818 4.33525,-1.45174 5.01828,0.84889 0.68875,2.3199 0.10172,9.23275 0.10172,12.1126 v 33.28 14.4 c 0,1.28527 -0.26531,3.7525 0.77877,4.47111 0.92863,0.63914 2.22113,0.32889 3.38123,0.32889 3.01096,0 5.96602,-0.19049 8.96,-0.30717 9.9908,-0.3893 20.08465,0.54476 30.08,0.0499 2.97385,-0.14725 5.98133,-0.0614 8.96,-0.0627 1.01504,-4.5e-4 2.54793,0.22212 3.19111,-0.74172 0.64215,-0.96233 0.32889,-2.62303 0.32889,-3.73828 v -9.6 -35.84 -10.56 c 0,-1.09868 -0.38639,-3.06381 0.32888,-3.96692 0.70987,-0.89627 2.79891,-0.47144 3.83112,-0.54172 3.23933,-0.22058 8.89994,-1.09918 11.79259,-0.0252 1.08045,0.40113 1.0004,1.63291 1.00715,2.61383 0.0138,2.00562 0.94514,9.49033 -1.29851,9.87259 -1.93248,0.32924 -9.88447,0.43088 -6.69235,-3.59951 0.80073,-1.01099 2.45162,-0.15976 3.31803,-1.02617 1.66049,-1.66049 0.0725,-3.61141 -1.72717,-3.64543 -1.75769,-0.0332 -4.64597,-0.65523 -5.88666,0.3274 -0.66703,0.5283 -0.5114,1.73618 -0.51308,2.55112 -0.005,2.30687 -0.005,4.72713 0,7.04 0.002,0.72572 -0.19211,2.04457 0.51308,2.49679 0.76135,0.48825 2.4168,0.0647 3.32692,0.0632 3.2023,-0.005 6.40062,0.0619 9.6,0.0975 1.07896,0.012 2.88767,0.39892 3.51111,-0.52051 0.58916,-0.86889 0.32881,-2.01832 0.32889,-3.09703 1.9e-4,-2.88504 0.10953,-5.77393 -0.22864,-8.64 -0.24392,-2.06733 -0.0541,-4.33817 -0.0928,-6.4 -0.015,-0.79844 0.0206,-1.72344 -0.74023,-2.23112 -1.87953,-1.2542 -6.56627,-0.32888 -8.85828,-0.32888 h -23.04 c -2.32756,0 -4.71901,-0.005 -7.04,0 -0.78582,0.002 -1.75069,-0.15918 -2.36692,0.32888 -0.80168,0.63496 -0.51308,2.46998 -0.51308,3.51112 0,3.2365 -1.21322,9.52027 0.19308,12.37828 0.53299,1.08316 2.61334,0.74172 3.64692,0.74172 2.70635,0 8.89088,1.3382 8.95851,-2.24024 0.0301,-1.59359 0.6219,-4.36808 -0.3274,-5.56668 -0.46922,-0.59244 -2.54734,-0.79457 -3.31803,-0.1842 -0.70796,0.56073 -0.45904,2.97129 -1.2548,3.50223 -0.85803,0.57248 -2.49881,0.56148 -3.08939,-0.1842 -0.855,-1.07953 -0.68358,-5.58219 -0.22717,-7.11951 0.32703,-1.10154 1.50611,-1.00061 2.45828,-1.00717 2.42217,-0.0167 4.94804,-0.0168 7.36,0.12125 0.92012,0.0527 2.23275,0.002 2.68691,0.93901 1.26207,2.60423 0.19309,8.66062 0.19309,11.73951 0,1.07453 0.3098,2.82402 -0.51309,3.64691 -0.95644,0.95645 -3.34855,0.51309 -4.60691,0.51309 -3.81561,0 -7.71332,-0.23057 -11.52,0.0286 -1.4801,0.1008 -3.13965,0.64318 -4.28692,-0.34492 -0.76248,-0.65672 -0.51308,-2.45057 -0.51308,-3.52371 0,-3.94653 0,-7.89344 0,-11.84 v -22.72 c 0,-1.59402 -0.76537,-6.65856 0.51308,-7.67112 0.73426,-0.58154 2.10879,-0.32882 3.00692,-0.32888 h 8.32 c 2.22199,0 4.50426,-0.005 6.72,0 0.7614,0.002 1.76342,-0.14908 2.36691,0.32888 0.83119,0.65832 0.51309,2.45059 0.51309,3.51112 0,3.19893 10e-4,6.40137 0,9.6 -4.5e-4,1.00376 0.20113,2.29269 -0.51309,3.00691 -0.66006,0.66006 -1.77205,0.51121 -2.68691,0.51309 -2.40625,0.005 -6.82481,0.80752 -8.85828,-0.19309 -1.11616,-0.54922 -0.75153,-4.42878 -0.74147,-5.88691 0.007,-0.97844 -0.12943,-2.15509 1.00715,-2.4163 3.53385,-0.81215 2.78539,2.01145 3.4726,4.3363 1.33472,-0.27137 2.18738,-0.28183 3.52,0 0.51556,-1.74417 0.32013,-3.00659 0.32,-5.12 -6e-5,-0.94872 0.26105,-2.26206 -0.32889,-3.00692 -0.57142,-0.72148 -1.99795,-0.51269 -2.87111,-0.51308 -2.54711,-0.001 -6.67111,-0.88315 -8.85828,0.19308 -0.99002,0.48716 -0.74172,2.56423 -0.74172,3.64692 v 9.28 c 0,0.97041 -0.29783,2.5356 0.32889,3.32691 0.72511,0.91553 3.07363,0.51309 4.15111,0.51309 h 11.84 18.88 c 1.67273,0 5.52019,0.72189 6.84691,-0.32889 0.98863,-0.78303 0.51309,-3.61406 0.51309,-4.79111 0,-4.17842 0.563,-8.31651 0.0916,-12.48 -0.11656,-1.02941 0.3623,-2.20054 -0.15481,-3.00692 -0.49103,-0.76573 -2.81412,-0.51308 -3.77679,-0.51308 -3.19895,0 -6.40137,-2.1e-4 -9.6,0 -0.94549,6e-5 -2.29166,-0.23761 -3.00692,0.32888 -0.68541,0.54286 -0.51134,1.70436 -0.51308,2.55112 -0.005,2.46181 -0.5118,6.39871 0.10172,8.62098 0.36427,1.31953 1.35566,1.11492 2.45828,1.03186 1.524,-0.1148 4.79425,0.64126 5.75111,-0.79457 2.1207,-3.18228 -2.13682,-2.81151 -3.31803,-3.74716 -0.67683,-0.53613 -0.64382,-2.03935 -0.41136,-2.82371 0.528,-1.78153 7.62345,-1.50424 8.11656,0.29136 0.65418,2.38216 0.10285,5.80435 0.10172,8.30124 -3.9e-4,0.85232 0.2275,2.28455 -0.51309,2.87111 -0.79129,0.6267 -2.3565,0.32889 -3.32691,0.32889 h -9.28 c -1.0336,0 -3.11393,0.34144 -3.64692,-0.74173 -0.71603,-1.45518 -0.19308,-4.03462 -0.19308,-5.65827 v -13.44 -44.160002 -12.16 c 0,-1.524638 -0.48348,-3.96331 0.19308,-5.338271 0.54186,-1.101211 2.61619,-0.741728 3.64692,-0.741728 h 8.64 c 1.11529,0 2.77597,-0.313252 3.73828,0.328886 1.67414,1.117149 0.74258,7.368887 0.74172,9.271113 -3.9e-4,0.852334 0.22752,2.284541 -0.51309,2.871114 -1.15709,0.916435 -5.04099,0.531445 -6.50814,0.281484 -1.40672,-0.239668 -1.86399,-2.802275 -0.96989,-3.918525 0.67057,-0.837168 1.91414,-0.255088 2.82371,-0.681475 1.30956,-0.613896 1.3475,-3.211181 0,-3.799512 -1.23625,-0.539765 -6.48878,-0.708916 -7.30371,0.32 -0.98312,1.24128 -0.32888,4.665909 -0.32888,6.206914 0,1.330655 -0.57125,4.509698 0.51308,5.443711 0.86862,0.748203 2.56008,0.630801 3.64692,0.636045 2.87986,0.01389 5.76011,2.44e-4 8.64,2.44e-4 1.02736,0 3.12154,0.382813 3.83111,-0.513086 0.61709,-0.77914 0.32889,-2.379336 0.32889,-3.326914 v -8.32 c 0,-1.721748 0.9107,-7.503456 -0.51309,-8.631113 -0.99037,-0.784394 -3.41289,-0.328886 -4.60691,-0.328886 h -11.84 c -1.85389,0 -3.38371,0 -5.12,0 -0.90901,0 -1.62348,0.0014 -2.56,0 -1.06176,-0.0016 -1.78842,-0.04924 -2.88,-0.117032 -2.33549,-0.145058 -4.57879,-0.202968 -7.04,-0.202968 -1.88397,0 -5.66588,-0.733731 -7.25828,0.328886 -1.10819,0.739493 -0.78584,2.983731 -0.68864,4.151114 0.29098,3.493955 -1.06173,8.645693 0.46,11.738271 0.48717,0.990049 2.56422,0.741728 3.64692,0.741728 2.86055,0 8.57172,1.293125 8.63851,-2.240244 0.0341,-1.803017 0.10315,-8.719414 -3.64543,-5.750869 -0.70037,0.554639 -0.46525,2.97543 -1.2548,3.502227 -0.85805,0.5725 -2.49881,0.561474 -3.08939,-0.184199 -0.84795,-1.070606 -0.69393,-5.588223 -0.22717,-7.114815 0.33549,-1.097246 1.56433,-0.73751 2.45828,-0.704443 2.30888,0.0854 4.73549,0.0076 7.04,0.01234 0.89635,0.0018 2.23074,-0.185323 2.68691,0.741728 1.19012,2.418604 0.47703,8.809414 0.51186,11.738271 0.0127,1.068389 0.30467,2.830391 -0.51186,3.646914 -0.95644,0.956436 -3.34853,0.513086 -4.60691,0.513086 h -11.2 c -1.16422,0 -3.33262,0.426924 -4.28692,-0.328886 -0.87548,-0.693399 -0.51308,-2.819043 -0.51308,-3.831114 0,-3.530429 -0.32,-7.021982 -0.32,-10.559999 v -23.68 c 0,-1.603906 -0.69229,-6.716445 0.51308,-7.671113 0.68307,-0.540996 1.82026,-0.328496 2.68692,-0.328887 2.55902,-0.0012 5.12072,0 7.68,0 2.10758,0 8.20015,-0.995566 9.72691,0.514082 0.82496,0.815723 0.51309,2.576641 0.51309,3.645918 v 8.96 c 0,0.97041 0.29781,2.535644 -0.32889,3.326914 -0.58658,0.740625 -2.01877,0.512695 -2.87111,0.513086 -2.19393,9.96e-4 -7.10471,0.987597 -8.76692,-0.328887 -0.66675,-0.528066 -0.51146,-1.762871 -0.51308,-2.551113 -0.003,-1.639824 -0.63719,-5.066973 1.29877,-5.392598 0.80707,-0.135742 1.75129,-0.19123 2.34814,0.281485 1.33848,1.060097 -0.28021,3.639238 2.11926,3.810879 3.05687,0.218652 2.56926,-3.464981 2.55357,-5.739766 -0.005,-0.782539 0.0994,-1.71873 -0.51283,-2.258516 -0.89369,-0.78791 -3.31267,-0.506308 -4.60691,-0.592851 -1.64496,-0.11 -5.8493,-0.74332 -7.16692,0.300254 -0.87548,0.693398 -0.51308,2.819062 -0.51308,3.831113 v 8.96 c 0,0.97041 -0.29783,2.535605 0.32889,3.326914 1.0606,1.339121 6.62734,0.512969 8.31111,0.513086 8.03595,5.27e-4 16.21287,0.319472 24.32,0.32 2.33941,1.56e-4 4.70355,0.01586 7.04,-2.54e-4 0.80861,-0.0056 1.94506,0.11584 2.36691,-0.741465 0.6133,-1.246367 0.19309,-3.311855 0.19309,-4.698281 v -10.88 c 0,-1.224473 0.43261,-3.72209 -0.51309,-4.471113 -0.60346,-0.477949 -1.60553,-0.327324 -2.36691,-0.328887 -2.00498,-0.0041 -4.06944,0 -6.08,0 -1.77254,0 -6.56793,-0.710371 -7.76246,0.513086 -1.33202,1.364258 -0.23846,6.760176 -0.23754,8.766914 3.9e-4,0.858164 -0.1951,2.025332 0.32888,2.686914 0.4953,0.625351 1.47547,0.507617 2.23112,0.512832 1.63865,0.01131 4.03238,0.555996 5.33703,-0.328633 0.81428,-0.552129 0.84918,-2.766777 -0.0889,-3.502461 -1.15459,-0.905508 -5.83574,-0.798242 -3.31926,-3.975566 0.85977,-1.085547 4.4283,-0.549727 5.75112,-0.508145 0.71236,0.0224 1.50718,0.02424 2.04691,0.552598 1.00104,0.979922 0.51309,3.760684 0.51309,5.202461 0,1.539902 0.63769,5.056133 -0.51309,6.206914 -0.86965,0.869648 -2.82908,0.513086 -3.96691,0.513086 -3.34748,0 -8.31199,0.836601 -11.4726,-0.101719 -1.35322,-0.401758 -1.00732,-2.299375 -1.0074,-3.418281 v -10.88 V 17.28 7.6799999 c 0,-1.0246485 -0.30686,-2.5242187 0.32888,-3.326914 0.83819,-1.0582813 4.69079,-0.513086 6.07112,-0.513086 h 18.24 m -309.76,0 H 0.31999999 M 35.199998,57.279999 h 0.32"
       id="path1" />
  </g>
</svg>
