<svg viewBox="0 0 286.86 105.64" xml:space="preserve" xmlns="http://www.w3.org/2000/svg"><path d="M0 31.73c2.19 0 4.4.27 4.73-2.26.26-2 .07-4.6.07-6.7V9.01c0-2.2-1.5-8.36 1.94-8.5C10.9.33 9.92 4.77 9.92 7.73v25.28c0 2.61-1.32 9.04 2.25 9.23 3.5.2 2.87-3.2 2.87-5.7v-19.2c0-2.23-.85-6.19 2.25-6.36 3.98-.22 3.19 4.99 3.19 7.63v24.64c0 2.32-1.26 9.15 1.95 9.53 3.73.43 3.17-3.05 3.17-5.69V28.53c0-2.25-.97-6.81 2.25-6.99 4.01-.22 2.87 4.94 2.87 7.63v24.96c0 2.3.04 4.53.33 6.7.16 1.25.58 2.04 1.94 2.18 3.31.34 3.22-3.06 3.14-5.36-.24-6.5-.3-12.89-.3-19.52 0-2.35-.8-5.86 2.27-6.03 1.14-.06 2.26.09 2.8 1.09.8 1.46.38 4.25.38 5.9v24.96c0 2.15-1.17 8.94 1.66 9.49 4.35.84 3.73-3.33 3.74-6.29 0-1.52-.22-2.96-.27-4.48-.13-4.34-.01-8.77-.01-13.12 0-2.3-.91-6.96 2.25-7.28 2.12-.21 2.74.95 2.94 2.8.2 1.8.25 3.18.25 5.12v25.28c0 2.25-1.11 7.71 1.66 8.43 1.17.3 2.5.07 3.08-.97.67-1.2.38-3.24.38-4.58V59.57c0-2.07-1.2-6.08 1.64-6.6 4.9-.9 3.48 6.07 3.48 9.16v24c0 1.78-.88 6.87.9 7.95 4.62 2.78 4.54-3.4 4.54-6.03 0-6.76-.27-13.47-.32-20.16-.02-2.63.57-5.89 4.05-4.5 2.43.96 1.39 7.72 1.39 9.94v22.72c0 2.02-.86 6.64.52 8.27.86 1.01 3.51.96 4.22-.21.84-1.4.38-3.94.38-5.5V80.37c0-1.56-.7-5.38.9-6.34 2.01-1.22 6.4-.38 8.7-.38h22.4c2.32 0 9.3 1.29 9.8-1.66.18-1.12-.04-2.51-1.06-3.08-1.5-.84-4.2-.38-5.86-.38h-25.6c-2.46 0-8.86 1.23-9.2-2.26-.38-3.79 3.13-2.86 5.68-2.86 6.02.02 12.22 0 18.24 0 2.51 0 7.13.84 7.24-2.56.12-3.83-7.28-2.56-9.8-2.56h-24c-2.58 0-6.89.93-7.68-1.97-1-3.67 2.56-3.47 5.12-3.47h18.88c1.89 0 6.43.89 6.92-1.66.84-4.32-3.65-3.46-6.6-3.46h-25.6c-2.56 0-8.86 1.15-9.2-2.26-.1-.88 0-1.99.82-2.48 2.69-1.63 9.4-.3 12.54-.4 2.02-.05 3.62-.18 5.76-.2 1.8-.01 3.31.23 5.12.21 1.73-.01 6.45.48 6.92-1.97.87-4.5-4.21-3.46-7.24-3.46H54.4c-1.82 0-4 .17-5.74-.08a2.7 2.7 0 0 1-1.89-4.14c.58-.95 1.79-.87 2.83-.9 2.27-.03 4.74 0 7.04 0H80c1.93 0 6.34.33 7.62-.82 1.5-1.34.7-4.58.7-6.54 0-5.96.33-12.61-.18-18.24-.23-2.54-.78-5.82 2.42-5.74 1.13.03 2.14.27 2.59 1.37.7 1.75.29 4.43.29 6.3v25.91c0 2.04-.37 11.53 4.42 7.48 1.34-1.13.7-4.63.7-6.2V18.3c0-2.15-1.03-6.72 1.66-7.24 1.23-.24 2.7-.16 3.2 1.02.6 1.42.26 3.72.26 5.26 0 8.71.32 17.32.32 25.92 0 2.32-1.26 9.15 1.95 9.53 3.84.45 3.17-3.33 3.17-6 0-6.42-.32-12.8-.32-19.2 0-1.47-.32-3.6.26-4.95.48-1.13 1.75-1.2 2.92-1.06 3.2.36 2.26 5.03 2.26 7.6v24.64c0 2.03-.6 8.43 1.7 9.1 4.58 1.34 3.74-4.3 3.74-7.18 0-5.11.04-9.67 0-15.04-.02-1.5-.16-2.7-.26-4.16-.16-2.42 0-4.77 3.1-4.4 3.08.36 2.28 6.8 2.28 8.88v24.32c0 1.81-.92 7.19 1.13 8.06 4.59 1.95 3.99-3.81 3.99-6.46V48.05c0-2.64-.56-6.12 3.16-5.68 3.15.36 2 7.5 2.19 9.84.58 7.52.09 15.99.09 23.68 0 1.82-.89 6.46.7 7.8 4.07 3.45 4.42-3.42 4.42-5.56V60.21c-.01-1.84-.48-3.62-.2-5.4.26-1.57 1.62-2.02 3.06-1.88 3.3.33 2.26 5.56 2.26 7.92 0 5.15-.28 10.57.06 15.68.23 3.47.26 6.3.26 9.92 0 2.08-.56 4.95.26 6.87.59 1.37 3.4 1.54 4.34.44 1.1-1.3.52-4.44.52-6.03 0-5.3.32-10.71-.09-16-.15-1.97-1.08-6.08.46-7.62.97-.97 3.55-1 4.17.44.9 2.1.57 5.02.58 7.18.04 8.87 0 17.18 0 25.92 0 2.77-.7 9.09 3.98 7.1 1.77-.75 1.14-5.1 1.14-6.78V79.73c0-1.64-.7-5.28 1.39-5.9 2.87-.86 6.82-.18 9.8-.18h20.49c2.21 0 9.06 1.18 9.96-1.39.37-1.08.12-2.75-.93-3.35-1.49-.86-4.17-.38-5.83-.38h-25.92c-2.4 0-8.79 1.2-8.9-2.25-.1-3.26 2.95-2.87 5.38-2.87h18.56c2.29 0 7 .96 7.18-2.25.23-4.2-6.63-2.87-9.42-2.87H158.4c-1.52 0-3.35.07-4.8-.04-1.02-.07-2.14-.19-2.62-1.38-1.8-4.5 3.8-4.02 6.46-4.02h18.88c1.92 0 5.37.69 5.68-1.95.53-4.53-5.7-3.17-8.56-3.17h-24.97c-2.6 0-8.07 1.15-7.94-2.86.1-2.95 3.56-2.26 5.7-2.26 6 0 12.25.02 18.24 0 1.73 0 6.22.52 6.86-1.7 1.31-4.59-4.44-3.74-7.18-3.74h-25.6c-2.42 0-11.38.95-8.27-4.22.58-.95 1.86-.87 2.83-.9 2.24-.03 4.8 0 7.04 0h22.4c2.02 0 6.64.85 8.26-.52 1.26-1.06 1.02-4.2.98-5.56-.17-6.2-.28-12.19-.28-18.56 0-1.61-.37-4.11.26-5.58.47-1.1 1.7-1.2 2.9-1.06 3.16.37 1.96 5.83 1.96 8.24 0 8.6.32 16.68.32 25.28 0 2.17-.36 11.53 4.42 7.48 1.36-1.14.7-4.34.7-5.88V18.3c0-2.49-1.07-7.19 2.25-7.3 3.97-.13 2.87 5.3 2.87 7.94 0 7.05-.34 14.79.04 21.76.08 1.48.25 2.7.27 4.16.03 2.46-1.1 7.61 1.96 7.92 4.04.42 3.17-4.12 3.17-6.96 0-2.65-.14-4.53-.28-7.04-.2-3.6-.04-7.55-.04-11.2 0-2.7-.66-6.44 3.18-6 3.35.38 2.26 5.32 2.26 7.92v24.32c0 2.2-1.02 8.97 1.66 9.49 3.78.73 3.78-2.41 3.78-5.33 0-6.5.42-12.92-.15-19.2-.25-2.8-.83-7.33 3.3-6.6 2.9.5 1.97 5.4 1.97 7.56v24.64c0 2.02-.91 8.43 1.39 9.1 4 1.18 3.73-2.82 3.73-5.58V48.05c0-2.29-.5-6.1 2.85-5.57 2.06.32 2.18 2.08 2.25 3.65.07 1.78.02 3.93.02 5.76v24.32c0 1.78-.76 6.93 1.13 7.74 4.12 1.76 4.3-2.32 4.3-5.18v-20.8c0-2.52-.34-5.63 3.16-5 1.5.27 1.85 1.42 1.94 2.77.13 2.17.03 4.4.03 6.71v24c0 1.92-.84 6.88 1.13 7.95 4.43 2.39 3.99-3.86 3.99-6.35V69.17c0-2.64-.56-6.12 3.16-5.68 2.74.32 1.9 4.06 2 6 .08 1.48.25 2.7.27 4.16.06 4.15 0 7.3 0 11.2v12.16c0 1.77-.88 6.88 1.14 7.74 4.7 2 3.99-4.12 3.99-6.78v-9.92c0-4.93-.64-9.67.32-14.4 4.31.79 7.42-.01 11.84.06 2.18.04 4.23.26 6.4.26h13.76c1.91 0 4.22.03 6.07 0 1.7-.03 3.04-.04 3.16-2.26.12-2.17-.98-3.17-3.16-3.12-1.6.04-3.11.26-4.8.26-1.96-.01-3.77-.21-5.75-.29-6-.23-12.22-.03-18.24-.03-2.63 0-8.87 1.26-9.4-2.25-.6-3.86 4.35-2.87 6.84-2.87h18.56c2.76 0 6.4.5 5.64-3.45-.54-2.78-7.11-1.67-9.16-1.67-7.45 0-15.93.22-23.68-.01-1.34-.04-2.47-.23-3.84-.27-1.66-.04-3.99.53-4.69-1.42-1.55-4.28 3.52-3.74 6.29-3.74h19.2c2.5 0 5.95.39 5.32-3.16-.54-3.06-6.83-1.96-9.16-1.96h-24c-1.77 0-6.92.81-7.95-.9-2.87-4.76 4.6-4.22 6.99-4.22h13.76c2.18 0 7.47.96 9.22-.52.85-.72.82-2.52.52-3.53-.76-2.56-8.25-1.39-10.38-1.39h-21.44c-2.3 0-6.69.84-8.7-.37-1.46-.89-1.16-4.08.49-4.57 3.76-1.12 9.09-.18 13-.18h26.57" fill="none" stroke="#40382b"/></svg>