<svg xmlns="http://www.w3.org/2000/svg" viewBox="0 0 271.751 104.04"><path d="M254.152.5h.32m-5.44.64h.32M.072 47.54c6.38.919 13.002.001 19.52 0 2.244 0 6.098.722 8.106-.356 1.529-.82-.762-1.93-.53-3.004.17-.783 1.428-1.305 1.155-2.201-.286-.94-1.909-.82-2.654-.834-2.353-.042-7.288 1.038-7.357-2.245 4.253.863 9.373.332 13.76.073 1.244-.073 3.704.37 4.633-.707.78-.905-1.116-1.715-.897-2.726.18-.829 1.438-1.275 1.155-2.201-.485-1.59-6.314-.783-7.76-.86-.686-.037-2.852-.387-1.983-1.562.69-.933 2.552-.654 3.572-.657 3.412-.007 6.827.001 10.24 0 .988 0 4.224.425 4.487-.982.154-.821-1.097-1.313-1.095-2.165.001-.903 2.076-2.066.787-2.888-1.735-1.106-5.382-.237-7.368-.404-.654-.055-2.327-.334-2.02-1.367.37-1.251 2.884-.833 3.929-.834 3.625-.004 7.254.016 10.88-.001 1.043-.005 3.266.17 3.611-1.033.246-.856-.97-1.297-1.07-2.166-.11-.94 1.985-2.001.678-2.835-1.747-1.114-5.362-.235-7.368-.404-.653-.055-2.332-.319-2.02-1.367.471-1.589 5.486-.834 6.809-.834h18.56c1.333 0 5.256-.657 6.087.657 1 1.58-2.878 1.579-3.528 1.582-3.412.016-6.827 0-10.24 0-1.241.001-3.09-.304-4.196.366-1.513.916.814 1.872.695 2.845-.104.856-1.311 1.285-1.185 2.156.265 1.822 6.173 1.001 7.561 1.045.665.021 2.362-.008 2.362 1.012 0 1.576-3.333 1.216-4.276 1.217-3.52.003-7.04-.008-10.56 0-.97.002-3.197-.295-3.675.839-.363.86.763 1.44.911 2.206.18.934-1.138 1.68-.851 2.543.492 1.481 4.966.81 6.174.812.667.002 4.437-.156 3.528 1.406-.611 1.051-2.506.828-3.528.833-3.519.017-7.04 0-10.56 0-1.058.001-3.788-.413-4.313.837-.4.953 1.036 1.386 1.132 2.227.111.966-1.132 1.402-1.1 2.338.056 1.686 5.132.995 6.201 1 .816.004 3.99.062 3.208 1.405-.619 1.064-2.341.827-3.528.833-3.41.016-6.828 0-10.24 0-1.064.001-3.786-.412-4.314.84-.364.862.763 1.44.911 2.206.188.973-.937 1.43-.885 2.356.097 1.714 4.511.998 5.569.999.99 0 4.333-.25 4.134 1.193-.23 1.673-4.478 1.047-5.734 1.047h-19.2c-.994 0-7.302-.39-6.553 1.406.477 1.143 2.687.831 3.673.833 3.52.008 7.04 0 10.56 0 1.014.001 3.865-.415 4.251.825.257.824-.988 1.42-1.155 2.205-.223 1.049 2.021 2.215.53 3.015-1.874 1.006-5.073.267-7.135.401-.595.039-2.313.162-2.02 1.176.345 1.198 2.277 1.007 3.289 1.016 3.62.035 7.258.001 10.88.003.971 0 3.867-.422 4.251.839.273.893-.985 1.42-1.155 2.2-.21.972 1.233 1.512 1.071 2.38-.28 1.5-4.934 1.238-6.087 1.28-.515.02-4.12-.01-3.208 1.313.628.911 2.585.625 3.528.627 3.413.008 6.827 0 10.24 0 .983.001 3.856-.427 4.254.846.276.879-.874 1.537-.874 2.4 0 .853.95 1.377.908 2.219-.087 1.703-3.52 1.255-4.608 1.256-.71 0-5.384-.374-4.89 1.13.38 1.155 3.03.789 3.93.79 3.625.003 7.255-.016 10.88 0 .912.005 2.948-.265 3.294.845.278.89-.878 1.544-.955 2.39-.16 1.743 2.508 3.144-1.07 3.446-1.82.153-3.891-.078-5.727.078-.517.043-1.999.218-1.712 1.09.463 1.407 4.72.79 5.85.79h18.56c1.171 0 6.449.676 6.722-.963.232-1.39-3.459-.985-4.162-.972-3.619.066-7.263.048-10.88.013-1.03-.01-2.945.182-3.292-1.031-.256-.894.987-1.432 1.155-2.219.36-1.69-3.082-3.235.868-3.446 1.159-.062 8.387.69 7.758-1.428-.342-1.15-3.21-.804-4.25-.766-2.987.11-6.799.26-9.92.252-1.305-.003-3.17.287-3.993-.838-.67-.917.727-1.611.897-2.408.233-1.093-2.547-2.378-.558-3.217 2.02-.852 5.004-.113 7.163-.295.627-.053 2.076-.228 1.934-1.178-.208-1.389-3.217-1.022-4.162-1.023-3.528-.004-7.033.007-10.56 0-.943-.003-2.917.281-3.53-.637-.547-.82.909-1.574 1.073-2.314.233-1.053-2.338-2.141-.78-3.084 1.708-1.035 5.14-.274 7.071-.394.702-.044 2.362-.165 2.362-1.208 0-1.391-3.092-1.002-3.956-1.003-4.186-.004-9.282.7-13.367-.11-2.265-.449-.254-1.854-.254-3.075 0-.894-1.133-1.576-.874-2.386.493-1.541 5.774-.83 7.135-.83h17.28c1.84 0 4.924-.59 6.42.367 1.252.802-.642 2.037-.459 3.108.11.646.915 1.224.772 1.927-.082.408-.448.617-.786.747-2.342.9-5.097-.114-7.477.362-.729.146-1.643.714-1.082 1.473.784 1.06 3.345.657 4.532.657 3.652 0 9.585-1.089 12.967.253 1.959.778-.491 2.067-.383 3.209.093.99 1.322 1.806 1.816 2.618-1.675.34-3.124.342-4.8.495-.736.067-6.412.039-5.448 1.436.628.912 2.585.626 3.528.628 3.519.008 7.04-.003 10.56 0 1.127.002 3.505-.379 4.076.825.403.848-.814 1.416-.983 2.167-.206.92.972 1.318 1.05 2.17.173 1.886-4.578 1.234-5.743 1.326-.578.045-4.765.194-3.848 1.524.628.912 2.585.626 3.528.628 3.52.008 7.04 0 10.56 0 .968.001 3.866-.425 4.251.84.295.966-1.167 1.512-1.263 2.408-.1.932 1.104 1.181 1.185 2.001.161 1.637-4.226 1.152-5.133 1.152-.778 0-5.375-.372-4.633 1.406.658 1.577 5.498.834 6.873.834h18.24c1.68 0 5.087.71 6.232-.687.672-.82-.585-1.335-1.157-1.444-1.285-.244-2.774-.11-4.115-.11-3.2 0-6.4.015-9.6 0-.884-.004-2.636.225-3.21-.639-.57-.853.948-1.776.766-2.715-.142-.736-1.094-1.203-.966-2.011.297-1.87 6.195-.959 7.558-1.073.658-.056 2.333-.315 2.02-1.368-.386-1.303-3.575-.833-4.568-.833-3.306 0-6.615.007-9.92 0-1.084-.003-2.912.275-3.674-.649-.737-.894.923-1.681.922-2.544-.002-.906-1.864-1.84-.965-2.707 1.441-1.39 5.531-.37 7.545-.54.636-.053 2.63-.452 1.94-1.543-.598-.944-2.593-.655-3.529-.657-3.511-.008-7.05.003-10.56 0-1.123-.002-3.513.385-4.107-.801-.41-.82 1.026-1.53 1.041-2.347.016-.863-1.124-1.33-.983-2.218.276-1.736 5.066-1.025 6.29-1.037.686-.006 4.16-.075 3.207-1.58-.592-.937-2.572-.655-3.528-.657-3.512-.008-7.046.001-10.56 0-1.127 0-3.794.402-4.313-.836-.431-1.03 1.005-1.316 1.216-2.184.24-.983-2.162-2.122-.762-3.015 1.705-1.087 5.383-.237 7.368-.404.636-.054 2.63-.453 1.94-1.544-.94-1.485-6.138-.657-7.688-.657h-17.6c-2.765 0-5.523.615-6.72-1.92 4.476-.908 9.225-.32 13.76-.32 1.278 0 4.028.476 4.953-.647.735-.893-.912-1.83-.813-2.719.09-.807 1.556-1.476.988-2.375-.936-1.483-5.821-.6-7.362-.68-.76-.04-2.394-.124-2.219-1.179.197-1.184 3.55-.752 4.453-.737 3.35.057 6.878.113 10.24-.002 1.098-.038 2.931.02 3.47-1.085.366-.75-.748-1.44-.812-2.16-.085-.958 1.456-1.866.872-2.794-.598-.949-2.59-.66-3.53-.662-2.595-.006-4.67.147-6.72-.64 2.506-2.564 10.18-1.544 14.08-1.593 1.25-.016 4.388.522 5.067-.803.434-.847-1.036-1.353-1.12-2.158-.103-1.001 1.105-1.465 1.186-2.402.144-1.674-4.728-1.043-5.773-1.044-.97-.001-4.661.167-4.226-1.407.358-1.295 3.145-.833 4.226-.833 3.517-.002 7.042.015 10.56-.001 1.17-.006 2.9.247 3.53-.838.534-.92-.79-1.52-.79-2.379 0-.857 1.15-1.459.874-2.338-.543-1.734-5.63-.808-7.129-.855-.664-.021-3.257-.274-2.297-1.572.97-1.311 4.704-.657 6.132-.657h18.24c1.242 0 6.35-.711 6.809.833.501 1.69-3.446 1.406-4.25 1.407-3.621.003-7.258-.017-10.879 0-.954.005-2.95-.282-3.292.839-.266.87.98 1.39 1.07 2.163.188 1.6-2.703 3.05.953 3.359 1.922.161 4.113-.089 6.046.078.602.052 1.979.24 1.712 1.178-.398 1.396-3.193 1.022-4.25 1.023-3.52.003-7.04-.008-10.56 0-.942.002-2.932-.286-3.528.659-.565.895.903 1.6 1.072 2.38.218 1.008-1.835 2.03-.734 2.877 1.574 1.21 5.109.434 7.025.495.665.02 2.362-.009 2.362 1.012 0 1.576-3.333 1.216-4.276 1.217-3.52.003-7.042-.008-10.56 0-1.004.002-2.92-.308-3.53.659-.554.879.91 1.626 1.073 2.38.22 1.02-2.087 2.202-.763 3.005 1.7 1.031 5.118.305 7.054.367.665.02 2.362-.009 2.362 1.012 0 1.846-5.075 1.217-6.196 1.217-3.092 0-6.188-.027-9.28.002-.825.008-2.662-.18-2.972.837-.294.963 1.18 1.451 1.18 2.369-.002.95-1.875 1.581-1.14 2.546 1.004 1.317 4.667.646 6.132.646h18.88c1.42 0 5.627.677 6.347-.82.456-.947-1.037-1.42-1.035-2.36.004-1.81 2.731-3.087-1.158-3.21-.989-.03-7.976.563-7.444-1.18.393-1.284 3.537-1.03 4.57-1.055 3.733-.09 6.678.016 10.24-.018 1.042-.01 2.652.193 3.15-.809.391-.788-.734-1.552-.73-2.343.002-.878 1.143-1.54.874-2.4-.535-1.711-5.307-.824-6.812-.85-.684-.013-3.642-.188-2.614-1.578.69-.933 2.552-.655 3.572-.657 3.412-.008 6.827.001 10.24 0 1.004 0 4.231.436 4.487-1.015.157-.886-1.096-1.32-1.096-2.185 0-.84 1.033-1.182 1.102-1.986.135-1.567-3.513-1.214-4.493-1.214-.921 0-5.723.322-5.21-1.407.378-1.27 3.264-.833 4.25-.833 3.625-.002 7.255.032 10.88-.003.968-.009 2.946.152 3.291-1.026.268-.915-.972-1.226-1.155-2.003-.261-1.113 2.404-2.332.547-3.116-1.947-.822-5.045-.114-7.152-.291-.656-.056-2.333-.317-2.02-1.368.46-1.554 5.56-.833 6.809-.833h18.56c1.329 0 5.387-.72 5.849.833.435 1.466-2.984 1.404-3.93 1.406-3.726.009-7.474-.016-11.199.002-.961.004-3.278-.306-3.323.998-.028.814 1.016 1.233 1.102 1.977.131 1.132-2.146 2.093-.42 3.058 1.63.912 5.216.286 7.11.387.634.034 2.313.166 2.02 1.196-.343 1.205-2.255 1.01-3.29 1.02-3.724.036-7.474 0-11.2.003-1.092.001-3.543-.435-3.931.839-.267.876.977 1.385 1.155 2.175.209.93-1.002 1.333-1.077 2.19-.164 1.874 4.595 1.195 5.774 1.196.67 0 4.794-.221 3.847 1.406-.61 1.05-2.513.828-3.528.833-3.519.016-7.04 0-10.56 0-1.006.001-3.864-.43-4.251.84-.272.893.985 1.415 1.155 2.2.214.988-1.236 1.498-1.071 2.38.31 1.66 4.492.98 5.768.98.67.001 4.794-.22 3.847 1.407-.61 1.05-2.513.828-3.528.833-3.519.016-7.04 0-10.56 0-1.091.001-3.49-.414-4.168.66-.56.887.9 1.581 1.072 2.366.232 1.057-1.217 1.423-1.186 2.386.053 1.619 5.15.987 6.202.989.66.002 4.443-.167 3.528 1.406-.862 1.483-4.657.834-6.087.834h-17.92c-1.256 0-7.005-.747-7.244 1.023-.211 1.565 3.197 1.216 4.044 1.217 3.731.003 7.468-.017 11.2 0 .857.005 3.283-.213 3.322.986.029.881-1.195 1.082-1.294 1.962-.119 1.054 2.241 1.917.87 2.952-1.642 1.24-5.404.416-7.367.521-.674.036-2.278.138-2.135 1.196.199 1.475 3.36 1.022 4.364 1.023 3.411 0 6.828-.008 10.24 0 1.099.003 2.901-.335 3.53.662.533.846-.804 1.683-.784 2.51.019.799 1.034 1.06 1.194 1.8.082.376-.108.707-.401.928-1.737 1.312-5.596.36-7.678.539-.674.058-2.454.487-1.673 1.544.687.929 2.574.654 3.572.656 3.52.008 7.04 0 10.56 0 1.046.001 3.501-.397 4.168.66.566.897-.892 1.574-1.072 2.337-.227.965 1.214 1.258 1.186 2.176-.06 1.933-5.3 1.223-6.522 1.229-.718.003-4.046-.035-3.208 1.405.62 1.066 2.457.828 3.528.833 3.518.016 7.041 0 10.56 0 1.047.001 3.503-.395 4.168.66.623.987-1.096 1.626-1.096 2.53 0 .924 1.445 1.276 1.18 2.182-.466 1.59-4.537 1.027-5.852 1.029-.79 0-4.668-.212-3.993 1.406.623 1.492 4.62.834 5.913.834h18.88c1.187 0 6.836.701 6.836-1.217 0-1.425-3.413-1.023-4.276-1.023-3.626-.002-7.255.016-10.88-.001-.84-.004-2.943.25-3.295-.81-.274-.826.876-1.5.874-2.326-.002-.817-.939-1.234-.995-2.025-.125-1.78 3.994-1.238 5.016-1.238.98 0 5.041.33 4.802-1.237-.213-1.388-3.133-1.002-4.162-1.003-3.52-.004-7.041.007-10.56 0-1.184-.003-3.144.302-3.788-.84-.498-.881.836-1.534.928-2.36.091-.825-1.323-1.54-1.072-2.361.528-1.728 5.307-.818 6.81-.845.65-.011 3.78-.17 2.89-1.577-.702-1.108-3.385-.657-4.488-.657-3.532 0-9.702 1.16-12.924-.258-1.562-.686.274-2.085.153-3.112-.106-.91-1.26-1.881-1.63-2.71 2.261-.459 4.897-.244 7.678-.331.718-.023 3.028-.127 2.652-1.396-.36-1.21-2.991-.832-3.93-.833-3.982-.004-8.549.29-12.468-.04-3.71-.312-.77-1.77-.952-3.389-.088-.778-1.543-1.481-.988-2.328.92-1.404 4.505-.643 6.089-.643h18.56c1.163 0 6.787-.717 6.842 1 .027.833-1.011 1.2-1.186 1.97-.245 1.086 2.146 1.885.763 2.93-1.641 1.24-5.407.416-7.368.521-.62.033-2.32.145-2.02 1.196.337 1.186 2.34 1.011 3.289 1.02 3.624.035 7.255.001 10.88.003 1.01 0 3.857-.436 4.251.824.27.861-.978 1.365-1.07 2.167-.111.963 1.352 1.393 1.07 2.374-.513 1.788-5.411 1.024-6.81 1.037-.697.007-3.691.025-2.89 1.404.62 1.066 2.458.828 3.529.833 3.518.016 7.041 0 10.56 0 1.015.001 3.863-.416 4.251.825.257.819-.979 1.37-1.07 2.167-.124 1.071 2.14 2.137.462 3.043-1.85 1-5.095.277-7.152.387-.67.036-2.565.232-2.084 1.385.477 1.142 2.705.831 3.673.833 3.52.008 7.04 0 10.56 0 .983.001 3.856-.427 4.254.845.277.883-.874 1.504-.874 2.338 0 .9 1.154 1.254.874 2.183-.483 1.605-4.24 1.034-5.534 1.035-.945 0-4.653-.2-4.25 1.216.529 1.857 5.265 1.024 6.81 1.024h18.56c1.43 0 5.225.649 6.087-.834 1.028-1.766-4.39-1.406-5.127-1.406-3.307 0-6.614.014-9.92-.001-.922-.005-2.919.233-3.354-.844-.396-.982 1.26-2.296 1.754-2.995-5.308-2.48 4.526-2.389 6.377-2.628.737-.095 2.65-.964 1.322-1.807-1.081-.687-2.954-.365-4.18-.365h-9.28c-1.138 0-4.093.465-4.634-.845-.353-.854.75-1.53.83-2.37.084-.875-1.03-1.545-.77-2.352.496-1.544 5.495-.811 6.814-.842.665-.015 3.749-.256 2.888-1.585-.619-.957-2.514-.644-3.528-.646-3.515-.008-7.043 0-10.56 0-1.085 0-3.79.426-4.313-.84-.4-.969 1.03-1.492 1.132-2.36.108-.906-1.13-1.291-1.1-2.166.053-1.637 4.48-1.032 5.562-1.035.945-.002 4.364.06 3.929-1.406-.373-1.256-2.86-.832-3.93-.833-3.518-.004-7.04.007-10.56 0-.97-.003-3.192.304-3.674-.84-.397-.94.936-1.533 1.012-2.39.08-.908-1.094-1.183-1.278-1.985-.385-1.68 3.853-1.185 4.9-1.185 1.041 0 5.36.178 4.89-1.407-.462-1.554-4.52-.833-5.85-.833h-18.56c-1.224 0-6.689.714-6.923-1.024-.212-1.571 3.197-1.215 4.044-1.216 3.731-.004 7.468.033 11.2-.003.962-.009 3.282.08 3.322-1.225.026-.842-.995-1-1.186-1.797-.246-1.034 2.358-2.348.547-3.122-1.816-.776-4.865-.171-6.838-.275-.739-.039-2.362-.136-2.362-1.195 0-1.427 3.36-1.023 4.277-1.023 3.519-.002 7.04.015 10.56-.001.939-.005 2.952.23 3.467-.8.42-.843-1.037-1.495-1.035-2.347.002-.927 1.239-1.282 1.21-2.218-.053-1.727-5.701-1.026-6.841-1.037-.65-.006-4.037-.087-2.933-1.58.686-.929 2.575-.655 3.572-.657 3.413-.008 6.826 0 10.24 0 1.184 0 3.775.405 4.488-.84.55-.957-.89-1.52-.988-2.368-.101-.885 1.339-1.513 1.071-2.368-.476-1.523-5.209-.815-6.491-.827-.716-.007-4.111-.154-3.208-1.58.61-.965 2.529-.655 3.528-.657 3.518-.008 7.041.003 10.56 0 1.13-.002 3.49.346 4.168-.84.54-.942-.896-1.594-1.072-2.413-.209-.976 1-1.324 1.077-2.223.144-1.667-4.72-.922-5.773-.925-.898-.003-4.349-.041-3.93-1.42.494-1.626 5.427-.82 6.81-.82h18.56c1.23 0 5.325-.65 6.024.629.735 1.344-3.478 1.29-4.104 1.292-2.42.002-4.14 0-6.4 0-1.39 0-3.093-.006-4.48 0-1.01.005-3.209-.313-3.407 1.028-.128.868 1.085 1.22 1.27 2.03.253 1.113-2.344 2.347-.78 3.296 1.796 1.091 5.342.278 7.385.387.613.033 2.322.135 2.02 1.172-.42 1.448-3.461 1.046-4.568 1.047-3.413.002-6.827-.008-10.24 0-.998.002-2.889-.27-3.573.659-.641.872.646 1.545.728 2.353.09.89-1.025 1.444-.885 2.343.275 1.768 5.354 1.04 6.61 1.046.728.003 3.682-.164 3.289 1.192-.39 1.34-2.844 1.042-3.93 1.046-3.624.013-7.255-.007-10.88.001-.97.002-3.192-.304-3.674.839-.365.865.762 1.433.911 2.191.19.962-.934 1.463-.885 2.36.085 1.528 3.939 1.01 4.929 1.01 1.012 0 4.596-.436 4.596 1.023 0 1.489-2.94 1.214-3.956 1.216-4.011.01-9.17-.665-13.05.111-2.504.501-.21 1.884-.365 3.118-.102.81-1.512 1.667-.819 2.52 1.101 1.356 4.572.652 6.234.652h18.24c1.38 0 6.302.743 6.811-1.035.294-1.025-1.18-1.465-1.18-2.422 0-.923 1.239-1.132 1.21-1.998-.046-1.454-3.653-.962-4.601-.95-.937.01-5.752.424-5.21-1.402.37-1.247 3.263-.833 4.25-.833 3.519-.002 7.04.015 10.56-.001 1.014-.005 2.925.214 3.528-.838.54-.943-.89-1.53-.988-2.361-.1-.861 1.13-1.324 1.102-2.166-.055-1.68-5.114-1.03-6.202-1.035-.909-.005-4.03.007-3.61-1.406.391-1.317 3.13-.833 4.25-.833 3.621-.002 7.26.023 10.88-.002 1.058-.008 2.906.193 3.528-.862.58-.985-1.08-1.488-1.18-2.4-.11-1 1.363-1.404 1.18-2.335-.277-1.402-4.725-.796-5.768-.804-.99-.007-4.277.097-4.277-1.252 0-1.477 3.253-.985 4.277-.985 3.518-.002 7.042.015 10.56-.001 1.157-.006 2.94.238 3.611-.838.557-.894-.864-1.605-.944-2.414-.11-1.121 2.604-2.641.41-3.295-2.08-.62-4.734-.079-6.906-.194-.576-.03-2.048-.067-2.048-.938 0-1.595 6.095-.958 7.157-.96 1.86-.006 3.355-.226 5.12-.248 1.154-.015 2.085.162 3.2.175 1.217.015 2.306-.168 3.52-.219 1.927-.08 3.827-.028 5.76-.028 1.726 0 5.03-.695 6.276.499.751.721-.322 1.407-.91 1.568-1.051.289-2.322.172-3.446.173-3.516.001-7.046-.016-10.56 0-.979.005-2.948-.29-3.292.839-.29.947 1.18 1.489 1.18 2.413 0 .95-1.457 1.466-1.18 2.433.556 1.941 5.495 1.011 7.129 1.04.562.01 2.74-.084 2.565.955-.233 1.378-3.54.96-4.482.96-3.438 0-6.834.022-10.24.026-.893 0-2.957-.25-3.53.64-.567.884.901 1.578 1.073 2.374.248 1.152-1.92 1.937-.94 3.02 1.337 1.476 5.648.58 7.545.681.642.034 2.598.252 1.94 1.385-.611 1.05-2.514.828-3.529.833-3.519.016-7.04 0-10.56 0-1.002.001-3.863-.434-4.251.84-.272.892.973 1.384 1.155 2.157.253 1.08-2.576 2.296-.558 3.147 2.067.872 5.258.106 7.472.296.659.056 2.225.361 1.63 1.306-.688 1.094-3.086.866-4.167.885-3.412.06-6.85-.113-10.24-.025-1.027.027-3.216-.257-3.85.665-.668.975 1.098 1.284 1.097 2.313 0 .967-1.678 1.558-1.24 2.618.673 1.63 5.758.818 7.19.844.652.012 3.352.057 2.57 1.4-.862 1.483-4.624.835-6.087.835h-18.24c-1.425 0-6.63-.851-7.13.833-.41 1.384 2.733 1.401 3.61 1.406 3.73.017 7.47-.007 11.2.001.796.002 3.31-.292 3.527.8.156.786-1.097 1.292-1.095 2.132.002 1.047 2.239 2.202.571 3.102-1.851 1-5.103.278-7.152.387-.654.035-2.318.151-2.02 1.196.377 1.327 2.843 1.02 3.929 1.022 3.625.008 7.254-.007 10.88.001.865.002 2.97-.294 3.467.639.4.752-.853 1.538-.927 2.276-.094.933 1.13 1.368 1.102 2.246-.059 1.86-4.72 1.238-5.882 1.239-.91 0-4.324-.168-3.93 1.217.39 1.372 2.774 1.02 3.93 1.022 3.625.008 7.254-.007 10.88.001.91.002 2.957-.294 3.47.639.464.847-.899 1.573-.811 2.498.08.842 1.213 1.368.955 2.228-.336 1.12-2 1.012-2.975 1.03-2.692.047-5.182-.117-7.36.325 1.642 3.302 10.005 1.92 13.76 1.92 1.404 0 4.314-.634 5.13.662.545.862-.79 1.668-.79 2.52 0 .83 1.138 1.312.875 2.184-.714 2.374-6.867.592-8.932 1.206-.951.283-1.227 1.175-.246 1.703 1.693.91 4.875.365 6.844.365h16.96c1.395 0 6.62.767 7.129-1.023.45-1.582-3.485-1.217-4.25-1.217-3.621-.002-7.259.032-10.879-.003-1.01-.01-2.945.177-3.292-1.031-.258-.899.976-1.358 1.07-2.166.13-1.113-2.405-2.376-.216-3.028 2.008-.598 4.8-.034 6.906-.211.658-.056 2.333-.315 2.02-1.368-.372-1.255-3.294-.833-4.248-.833-3.52-.002-7.04.007-10.56 0-1.003-.003-2.89.273-3.572-.66-.661-.905.74-1.633.98-2.38.373-1.152-1.846-1.929-.805-2.876 1.372-1.248 5.385-.409 7.231-.506.685-.036 2.682-.215 2.335-1.385-.373-1.255-3.295-.833-4.25-.833-3.52-.002-7.04.007-10.56 0-.971-.003-3.199.308-3.673-.84-.37-.895.832-1.437 1.083-2.162.381-1.108-2.056-2.123-.629-3.033 1.59-1.014 5.174-.288 7.054-.387.727-.038 2.362-.136 2.362-1.195 0-1.633-5.166-1.023-6.196-1.023-3.092 0-6.188.027-9.28-.003-.859-.008-2.619.169-3.034-.836-.434-1.053 1.24-1.624 1.241-2.618.001-.853-1.469-1.288-1.18-2.148.491-1.455 4.986-.795 6.173-.795 6.503 0 13.2.09 19.52-.259 1.299-.071 5.379-.712 5.851.798.264.843-.987 1.45-1.216 2.178-.377 1.2 2.23 2.122.824 3.183-1.66 1.254-5.38.415-7.368.521-.675.036-2.565.232-2.084 1.385.524 1.254 3.26.833 4.313.834 3.52.001 7.04-.008 10.56 0 .868.002 2.959-.296 3.467.633.436.799-1.038 1.516-1.12 2.294-.105 1.01 1.323 1.296 1.295 2.245-.053 1.775-4.148 1.227-5.242 1.228-.814 0-5.038-.43-4.57 1.217.39 1.37 3.18 1.022 4.25 1.023 3.519.003 7.04-.008 10.56 0 .95.002 2.909-.283 3.528.638.555.824-.909 1.41-1.072 2.114-.262 1.138 2.136 2.105.763 3.147-1.649 1.253-5.388.416-7.368.522-.684.037-2.278.139-2.135 1.196.196 1.453 3.394 1.022 4.364 1.023 3.52.001 7.04-.008 10.56 0 .967.002 2.929-.281 3.528.648.565.874-.895 1.537-.988 2.343-.16 1.4 2.588 2.738-.342 3.298-2.104.402-4.52-.034-6.656.15-.618.053-1.979.24-1.712 1.178.458 1.606 4.58 1.023 5.85 1.023h19.2c1.311 0 6.516.628 6.516-1.217 0-1.362-2.99-1.022-3.956-1.023-3.626-.004-7.255.007-10.88 0-1-.003-3.2.294-3.674-.836-.419-1 1.013-1.348 1.216-2.184.27-1.105-2.57-2.532-.3-3.208 2.056-.613 4.767-.031 6.906-.211.658-.056 2.333-.315 2.02-1.368-.372-1.255-3.294-.833-4.248-.833-3.52-.002-7.04.007-10.56 0-.996-.003-2.897.271-3.573-.663-.644-.889.648-1.714.728-2.557.087-.908-1.21-1.705-.686-2.523.864-1.347 5.28-.632 6.73-.665.628-.015 3.778-.212 2.888-1.586-.71-1.097-3.382-.646-4.487-.646-3.897 0-9.277.922-13.004-.173-2.225-.653.25-2.273-.002-3.5-.184-.901-1.26-1.69-1.714-2.407 2.217-.45 4.933-.245 7.677-.331.771-.025 3.01-.189 2.652-1.396-.391-1.317-3.13-.833-4.25-.833-3.503-.002-10.244.932-13.317-.257-2.291-.886.57-2.087.31-3.423-.198-1.014-1.324-1.867-1.712-2.72 2.417-.49 4.905-.3 7.359-.323.815-.007 2.385.105 2.889-.626.523-.76-.682-1.14-1.33-1.224-1.889-.248-4.107-.067-6.038-.067h-17.92c-2.79 0-5.524.486-6.72-1.92 3.464-.703 10.138-.32 14.4-.32 1.166 0 4.445.496 4.891-1.029.28-.953-1.167-1.357-1.263-2.234-.102-.94 1.113-1.384 1.185-2.219.156-1.8-3.256-1.057-4.173-1.068-.863-.01-6.113.473-5.53-1.3.368-1.118 3.24-.79 4.25-.79 3.616-.002 7.267.043 10.88-.004.98-.013 2.939.136 3.291-1.049.281-.941-1.167-1.33-1.263-2.21-.105-.964 1.1-1.268 1.185-2.156.135-1.402-3.344-.981-4.173-.981-.902 0-6.076.435-5.53-1.407.39-1.31 3.57-.833 4.57-.833 3.41 0 6.831.022 10.24-.002 1.046-.007 2.915.192 3.529-.865.53-.912-.903-1.594-1.072-2.386-.23-1.073 1.216-1.418 1.185-2.433-.048-1.557-4.488-1.033-5.562-1.034-.798-.001-4.391.192-4.162-1.13.216-1.253 3.235-.783 4.162-.796 3.518-.049 7.033-.297 10.56-.315 1.003-.005 2.94.255 3.467-.8.39-.782-1.037-1.548-1.035-2.347.002-.79 1.039-1.294 1.188-2.014.343-1.648-2.976-1.237-3.94-1.238-1.142-.001-6.475.702-5.85-1.407.415-1.397 5.794-.833 7.13-.833h17.92c1.748 0 5.278-.746 6.596.492 1.431 1.344-2.693 1.741-3.396 1.746-3.834.027-7.685-.007-11.52.002-.919.002-3.259-.319-3.612.839-.271.89.983 1.402 1.155 2.186.273 1.24-2.643 2.75-.03 3.265 2.033.402 4.583.021 6.635.131.628.034 2.048.085 2.048 1.002 0 1.6-3.221 1.216-4.276 1.217-3.482.003-7.097-.008-10.56 0-.954.002-3.193-.304-3.675.839-.416.986.932 1.51.934 2.424.002.834-.95 1.366-.907 2.2.093 1.843 4.36 1.243 5.568 1.241.593 0 4.834-.383 4.104 1.119-.6 1.236-3.318.816-4.424.817-3.429.001-6.743.312-10.24.32-.942.002-2.914-.285-3.53.639-.494.74.622 1.555.686 2.286.08.923-1.027 1.52-.886 2.43.266 1.706 4.782 1.042 5.97 1.045.75.002 3.717-.19 3.522.96-.228 1.349-3.136.959-4.162.96-3.095.003-6.368-.007-9.28 0-1.098.003-4.117-.339-4.575 1.092-.246.77.718 1.245.852 1.954.2 1.064-1.343 1.784-.912 2.829.384.93 1.908.825 2.717.84 2.769.049 5.548.005 8.318.005h38.72m16.64 56h.32" fill="none" stroke="#453d32"/></svg>