<svg xmlns="http://www.w3.org/2000/svg" viewBox="0 0 272.54 83.573"><path d="M35.397 82.823h32c2.158 0 5.655.67 7.632-.193.921-.402 1.486-2.288.5-2.98-.89-.623-1.46.757-2.148 1.062-1.052.464-2.62.191-3.745.191H49.157c-1.707 0-7.669.913-7.946-1.297-.09-.72.174-1.933 1.15-1.664.997.275 1.144 1.236 2.322 1.342 6.614.598 14.098.02 20.794.02 1.607 0 6.095.741 6.847-1.008.26-.608.334-2.053-.507-2.218-.789-.155-2.823 1.303-4.1 1.305-5.54.012-11.102-.147-16.64.016-1.533.046-6.016 1.17-6.35-.999-.094-.605-.056-2.057.89-1.924.893.126 1.304 1.102 2.274 1.26 4.208.684 9.437.047 13.746.047 1.832 0 4.67.542 6.353-.193 1.65-.72.951-2.652-.273-3.327-1.878 3.013-11.454 1.574-15.04 1.784-1.506.089-4.354.654-4.455-1.47-.027-.57.064-1.749.887-1.62.907.14 1.213 1.19 2.294 1.287 3.168.287 6.71.02 9.914.02 1.065 0 3.39.436 3.967-.743.3-.61.378-2.304-.503-2.483-.7-.143-1.435 1.13-2.202 1.258-2.535.424-7.355 1.007-9.854.265-.975-.29-1.668-2.847-.312-3.123.724-.148 1.236 1.013 1.91 1.204 1.516.428 4.81.418 6.335 0 1.85-.509 1.382-2.667.02-3.419-1.144 2.458-6.336 2.873-5.339-.59.65-2.257 2.07 1.582 2.95-.158.44-.869.038-2.188-.86-2.579-3.251-1.418-9.52-.193-13.072-.193-2.91 0-5.595.256-4.48-3.52.633.342 1.512 1.749 2.239 1.625 1.288-.218 1.16-2.569.22-3.032-2.301-1.132-4.161.466-5.979 1.407-1.262-4.272 3.917-4.257 7.022-3.418.873.236 1.192 1.385 1.986 1.524 1.022.178.983-1.622.81-2.218-.393-1.356-2.31-1.008-3.418-1.008-2.324 0-5.394-.53-7.634.102-.7.197-1.021 1.1-1.694 1.205-.705.11-.874-.805-.874-1.312 0-2.183 2.22-1.915 3.802-1.915 3.264 0 10.534-1.432 12.16 1.92 2.854-1.573.496-3.519-1.92-3.52h-11.84c-1.04 0-2.45-.237-3.424.192-.546.24-.971 1.25-1.64 1.114-1.267-.259-.647-2.52.312-2.804 4.709-1.399 11.954-.102 16.911-.102 2.12 0 4.088-.521 5.12 1.6 1.25-.69 1.965-2.916.273-3.418-2.196-.652-5.325-.102-7.633-.102-5.156 0-10.539-.447-15.674.02-1.14.103-1.643 1.524-2.564 1.515-.935-.009-1.04-1.467-.859-2.126.494-1.794 5.45-1.008 6.937-1.008h16.96c2.254 0 4.982-.657 6.08 1.6 1.135-.625 1.973-2.584.273-3.327-1.68-.733-4.54-.193-6.353-.193H28.357c-1.159 0-2.672-.261-3.757.192-.638.266-1.153 1.254-1.918 1.114-1.1-.202-.903-3.354-.532-4.078.208-.405.589-.568 1.01-.373 2.248 1.037 2.984 1.544 5.837 1.544h21.44c1.878 0 6.361.892 6.363-1.915 0-.475-.104-1.2-.663-1.31-.751-.147-1.479 1.016-2.197 1.204-1.254.328-2.837.101-4.143.101h-16.64c-1.9 0-5.232.647-6.938-.193-1.14-.561-.706-2.366-.422-3.327.962.495 1.542 1.53 2.594 1.818 1.781.489 4.188.102 6.046.102h12.8c1.47 0 4.08.51 5.339-.329.747-.498 1.018-1.93.414-2.672-.378-.463-3.675 1.08-4.793 1.081h-13.76c-1.287 0-3.876.504-4.927-.329-.871-.69-.457-2.296-.193-3.19.865.466 1.345 1.546 2.286 1.817 3.934 1.134 9.613.102 13.714.102 1.417 0 6.373-.348 4.158-2.988-.604-.719-2.01 1.02-2.884 1.075-3.484.218-7.06-.007-10.554-.007-.965 0-2.807.332-3.326-.742-.28-.578-.306-1.999.502-2.163.763-.156 1.576 1.202 2.51 1.286 2.557.231 6.422.382 8.948-.028 2.042-.332 1.878-2.617.326-3.473-1.04 2.236-5.897 2.87-8.218 1.727-.811-.4-1.148-2.384-.247-2.95.709-.446 1.293.79 1.84 1.032.846.372 3.112.465 3.872-.138 1.213-.96.215-2.65-.767-3.19-.232.498-.652 1.812-1.48 1.489-1.288-.505-.245-2.536-1.767-2.988-4.622-1.372-10.69 1.115-15.267-.204-.974-.28-1.393-1.336-2.286-1.818-1.298 2.79-3.263.622-1.91-1.087 1.624-2.052 4.145.602 5.507.794 1.064.15 1.343-1.45 1.009-2.165-.44-.94-1.83-.74-2.686-.742-1.459-.003-3.363-.282-4.759.102-.763.21-1.358 1.357-2.196 1.204-.767-.14-.764-1.343-.676-1.927.204-1.351 1.4-1.29 2.511-1.299 2.576-.017 6.141-.604 8.594.102.79.227 1.142 1.411 1.965 1.388 1.01-.029 1.078-1.676.768-2.377-.635-1.431-3.009-1.033-4.287-1.033-3.151 0-7.49-.769-10.514.102-.866.25-1.104 1.388-1.964 1.524-.749.117-.912-.772-.937-1.31-.123-2.642 3.295-1.916 5.095-1.916 4.116 0 8.736-.35 12.794.019 1.127.102 1.64 1.497 2.565 1.47.996-.028 1.098-1.665.768-2.347-.644-1.33-4.293-.742-5.567-.742-4.91 0-9.806-.204-14.72-.283-1.478-.023-4.13 2.57-4.43.584-.49-3.23 4.62-2.22 6.67-2.22 5.65 0 11.313-.012 16.96 0 .767 0 1.722-.138 2.373.327.483.344.687 1.442 1.413 1.297.8-.16.764-1.624.592-2.217-.525-1.815-5.44-1.008-6.938-1.008-6.309 0-12.926.57-19.2-.088-1.675-.176-5.133 2.09-5.39.39-.504-3.32 5.208-2.222 7.31-2.222h19.52c2.673 0 5.8-.748 7.04 1.92 1.123-.62 2.097-2.876.273-3.418-2.387-.709-5.785-.102-8.273-.102-6.633 0-13.558.574-20.16-.054-1.94-.185-4.432-.593-6.354-.14-.889.21-1.25 1.67-2.203 1.5-.962-.173-.856-2.13-.394-2.713C1.56.194 3.669.583 4.677.583h54.72c4.169 0 8.327.3 12.48.32 1.154.006 3.688-.464 4.052 1.007.162.654-.048 1.756-.853 1.899-.786.138-1.224-.995-1.965-1.204-1.522-.43-3.485-.102-5.074-.102h-18.56c-2.053 0-5.729-.717-7.578.193-1.174.578-.714 2.34-.422 3.327.921-.485 1.541-1.542 2.578-1.818 1.954-.522 4.666-.102 6.702-.102 4.796 0 9.606-.102 14.4.016 1.427.035 9.278-.573 7.033 2.756-.33.488-4.527-.852-5.753-.852h-14.72c-1.74 0-4.724-.581-6.298.193-1.174.578-.714 2.34-.422 3.327.852-.46 1.343-1.546 2.286-1.818 4.404-1.269 11.306-.102 15.954-.102 1.432 0 7.605-.457 5.433 2.772-.616.914-2.96-.843-4.153-.852-3.84-.026-7.68 0-11.52 0-1.142 0-3.343-.418-4.287.329-.921.73-.466 2.265-.193 3.191.788-.425 1.205-1.357 2.016-1.727 1.103-.504 2.873-.193 4.064-.193 2.982 0 6.332-.43 9.274.048 2.104.342 1.827 2.644.326 3.472-1.333-2.74-6.262-1.6-8.96-1.6-.914 0-2.56-.298-3.322.329-.885.73-.157 2.365.122 3.191.8-.431 1.208-1.358 2.016-1.727 1.45-.663 4.394-.315 5.983-.174 2.227.198 2.372 2.547.641 3.501-1.128-2.319-7.015-2.268-5.567.89.798 1.74 1.975-1.05 2.833-.514 1.03.645 0 2.343 1.236 2.951 2.881 1.418 9.16.193 12.378.193 2.042 0 3.819-.417 4.8 1.6.66-.342 1.478-1.404 2.234-1.397 1.259.012 1.082 2.175.453 2.804-.756.757-2.635.633-3.628.466-1.133-.191-1.61-1.35-2.579-1.873-1.366 4.623 3.719 4.289 7.023 3.419.782-.206 2.09-1.993 2.706-.751 1.148 2.316-1.281 2.771-3.009 2.772-3.753.002-7.196.798-9.92-1.92-.457.858-1.168 2.702.102 3.327 2.738 1.348 9.608.321 12.698.187 1.306-.057 1.812-1.14 2.916-1.3.83-.122.94 1.04.87 1.621-.241 2.018-2.605 1.605-4.106 1.605-4.244 0-8.915.362-13.114-.019-1.201-.109-1.797-1.786-2.803-1.606-.917.165-.82 1.89-.53 2.483.638 1.303 4.007.742 5.247.742 4.796 0 9.606.033 14.4 0 1.394-.01 4.185-2.266 4.427-.301.398 3.24-4.485 2.003-6.347 1.972-5.867-.1-11.706.182-17.598-.077-1.226-.054-1.924-1.4-2.88-1.39-1.034.01-1.067 1.594-.86 2.309.525 1.814 5.441 1.007 6.938 1.007h18.56c1.722 0 5.865-2.298 5.694 0-.19 2.556-5.831 1.6-7.614 1.6h-20.8c-1.117 0-2.703.268-3.744-.191-.633-.28-.934-1.213-1.694-1.206-.607.006-.848.585-.9 1.096-.342 3.34 5.843 2.221 7.938 2.221h21.76c2.67 0 6.096.8 7.36-1.92 1.885 1.04 1.833 4.43 0 5.44-1.4-2.94-5.485-1.92-8.32-1.92h-22.08c-2.856 0-7.926-.885-6.08 3.52 2.427-1.256 4.874-1.6 8-1.6h18.88c1.836 0 4.967-.62 6.619.193 1.476.727.569 2.717-.539 3.327-1.24-2.668-4.367-1.92-7.04-1.92-6.932 0-14.916-1.115-21.741.048-1.208.205-1.969 2.41-.792 3.096.824.48 1.446-.744 2.136-1.032 1.234-.516 3.064-.192 4.397-.192h14.4c1.6 0 4.216-.517 5.659.193 1.476.727.569 2.717-.539 3.327-.922-2.405-2.783-1.92-5.12-1.92h-12.8c-1.8 0-5.217-.73-5.095 1.915.024.514.164 1.424.887 1.312 1.142-.178 2.073-1.388 3.568-1.53 3.679-.352 7.784.223 11.52.223 1.403 0 4.507-.612 4.747 1.297.063.506.008 1.476-.643 1.609-.783.16-1.52-1.198-2.51-1.287-3.156-.285-6.715-.019-9.914-.019-1.07 0-3.394-.427-3.967.742-.296.605-.346 2.317.503 2.483.788.155 1.387-1.302 2.203-1.523 2.144-.58 10.765-1.083 10.85 1.813.015.543-.143 1.423-.885 1.312-.691-.104-.993-1.003-1.71-1.205-1.386-.392-5.973-.682-7.12.227-.922.73-.467 2.265-.194 3.191 1.733-.913 2.225-2.007 4.48-1.914.625.026 2.194.171 1.81 1.191-.364.967-1.89.506-2.577 1.052-.923.734-.466 2.265-.193 3.191.915-.482 1.526-1.537 2.578-1.818 4.193-1.12 10.031-.1 14.382-.102.976 0 4.53-1.384 4.797-1.068 2.087 2.463-3.158 3.055-2.5 4.094 1.431 2.262 5.256-1.476 6.02-.574 1.213 1.43-.455 2.918-1.917 2.982-1.568.068-4.236.466-5.664-.187-.809-.37-1.205-1.29-2.016-1.727-1.514 5.126 6.595 3.794 9.919 3.501 1.17-.103 3.202-2.448 3.468-.282.118.966-.25 1.846-1.246 2.12-3.095.85-9.91.591-13.082.054-1.031-.175-1.132-1.422-1.992-1.578-1.19-.216-1.002 2.177-.578 2.712.744.94 3.074.513 4.151.513 3.943 0 7.898.027 11.84 0 1.229-.009 4.023-2.016 4.373-.591.702 2.862-4.006 2.191-5.653 2.191-4.903 0-9.817.091-14.72-.001-1.07-.02-2.493-1.437-3.144-1.304-.89.181-.804 1.867-.503 2.483.64 1.308 4.005.742 5.247.742h16.64c1.457 0 5.375-1.717 5.652-.592.775 3.139-5.173 2.192-6.932 2.192-6.84 0-13.984.596-20.794-.019-1.1-.1-1.632-1.387-2.564-1.378-1.035.01-1.07 1.585-.86 2.31.522 1.804 6.004 1.007 7.578 1.007h20.8c1.69 0 6.222-1.776 6.334-.303.23 3.012-6.655 1.903-8.574 1.903h-22.72c-1.277 0-2.895.243-4.114-.101-.834-.236-1.083-1.304-1.964-1.296-.938.01-1.018 1.32-.913 2.019.263 1.742 2.493 1.298 3.791 1.298h67.52c1.257 0 3.023.242 3.417-1.298.176-.69.078-2.01-.858-2.019-1.022-.01-1.601 1.335-2.88 1.391-7.647.337-15.384.006-23.039.006-1.574 0-7.377.87-7.897-1.007-.156-.566-.106-2.042.81-1.9.774.121 1.091 1.11 1.986 1.26 6.741 1.125 14.578.047 21.421.047 1.607 0 6.095.742 6.847-1.007.307-.715.25-2.3-.768-2.31-.958-.009-1.44 1.277-2.565 1.378-6.078.55-12.449.02-18.554.02-2.37 0-8.131.008-4.8-3.52 1.475 2.341 3.181 1.92 5.76 1.92h12.16c1.858 0 5.742.678 5.387-2.222-.057-.465-.274-1.092-.871-1.006-.858.125-1.314 1.106-2.282 1.26-4.092.652-8.648-.05-12.794.052-1.196.03-3.937.942-4.607-.427-.294-.601-.353-2.309.503-2.483.73-.15 1.583 1.203 2.51 1.286 3.612.327 9.598.947 13.067-.083 1.877-.557.78-2.838-.273-3.418-1.193 2.567-9.162 2.995-11.738 1.727-.77-.379-1.27-2.783-.046-3.032.724-.148 1.236 1.013 1.91 1.204 1.447.408 5.513.587 6.893-.092 1.533-.755.485-2.762-.539-3.327-1.219 2.621-7.286 2.631-5.567-.857.966-1.958 1.976 1.552 3.005.325.675-.805.248-2.387-.685-2.795-3.25-1.419-9.522-.193-13.073-.193-2.91 0-5.595.256-4.48-3.52.672.404 1.383 1.787 2.184 1.626 1.043-.21.811-2.4.183-2.897-2.153-1.706-4.066 1.271-5.51.977-1.182-.241-.648-2.435.045-2.897 1.198-.8 5.577-.687 6.892-.136.693.29 1.743 2.34 2.415.98 1.184-2.4-1.312-2.772-3.009-2.773-4.007-.002-6.81-.175-10.24 1.6-.247-.838-.637-2.213.193-2.87.892-.708 2.891-.33 3.967-.33 3.011 0 10.061-1.398 11.52 1.6 3.315-1.828-.342-3.52-2.56-3.52h-7.36c-2.131 0-4.96-.492-6.993.102-.76.222-1.13 1.68-1.912 1.523-1.232-.246-.723-2.816.313-3.123 4.71-1.399 11.955-.102 16.912-.102 2.12 0 4.088-.521 5.12 1.6 1.31-.722 1.907-2.89-.019-3.418-2.355-.647-5.542-.102-7.98-.102-4.9 0-10.518-.766-15.342.048-1.06.178-1.316 1.43-2.257 1.578-.965.151-1.008-1.297-.913-1.927.33-2.187 5.357-1.299 6.991-1.299h18.56c1.671 0 5.55 1.955 5.694-.005.22-3-6.945-1.915-8.894-1.915h-20.16c-.94 0-2.229-.207-3.104.193-.706.322-1.033 1.594-1.933 1.432-1.098-.197-.81-3.06-.675-3.846.082-.483.3-1.1.914-1.004.79.124.988 1.11 1.694 1.432 1.05.48 2.603.193 3.744.193h20.8c1.774 0 7.02.877 7.577-1.298.18-.705.086-2.01-.858-2.019-.939-.009-1.45 1.278-2.565 1.378-6.81.616-13.954.02-20.794.02-1.81 0-7.35.997-6.986-1.904.245-1.953 3.526.303 5.066.303 5.44.003 10.88 0 16.32 0 1.638 0 5.772.753 6.297-1.298.15-.584.161-1.779-.597-1.927-.856-.168-2.285 1.282-3.46 1.304-4.778.09-9.617-.11-14.4.006-1.692.04-5.721 1.102-5.722-1.604 0-.525.174-1.411.887-1.307.882.128 1.303 1.103 2.281 1.259 3.935.627 8.77.047 12.794.047 1.448 0 4.229.53 4.697-1.298.148-.578.161-1.78-.593-1.927-.772-.151-1.599 1.43-2.51 1.578-2.949.477-6.575.047-9.594.047-1.395 0-4.151.555-4.43-1.298-.09-.592-.1-1.775.646-1.927.695-.142 1.412 1.126 2.203 1.258 2.523.42 5.422.053 7.981.047.86-.002 2.23.2 2.687-.741.276-.57.292-2.007-.507-2.164-.822-.161-1.388.992-2.197 1.204-1.53.4-4.814.451-6.335 0-.958-.285-1.668-2.853-.313-3.124.72-.144.951.97 1.412 1.298.916.65 3.309.301 4.191-.317 1.41-.987.474-2.506-.538-3.196l-1.92 1.92c-.304-1.029-.01-2.81-1.062-3.327-1.16-.57-3.098-.193-4.378-.193-3.411 0-6.829.063-10.24-.001-1.403-.027-1.869-1.14-2.934-1.306-.955-.149-1.34 1.501-2.319.93-.767-.446-.64-2.302.006-2.814 1.814-1.436 4.57-.174 5.247 1.591 1.25-.69 1.965-2.916.273-3.418-3.231-.96-6.298.145-8.913 1.498-.26-.882-.73-2.46.193-3.191.784-.62 2.396-.329 3.327-.329 2.904 0 7.287-.99 8.64 1.92 1.427-.787 1.88-3.149-.019-3.472-3.55-.605-9.16-.354-12.775-.03-1.353.123-1.764 1.002-2.886 1.582-.262-.887-.694-2.488.193-3.191.941-.745 3.157-.329 4.287-.329 3.925 0 7.923-.164 11.84.006 1.113.049 3.153 2.118 3.836 1.154 2.175-3.072-3.563-2.76-5.116-2.76-6.081 0-13.302-1.121-18.56 1.6-.28-.95-.74-2.755.422-3.327 1.569-.772 4.571-.193 6.298-.193 4.893 0 9.833-.201 14.72.013 1.759.077 5.779 2.367 6.027.302.35-2.921-5.128-1.915-6.987-1.915h-18.56c-1.085 0-2.43-.247-3.424.192-.604.266-.929 1.259-1.64 1.114-.938-.192-.746-1.913-.367-2.484.975-1.466 5.149-.742 6.711-.742 6.724 0 13.424.32 20.16.32 1.495 0 3.321-.303 4.754.102.72.203 1.19 1.34 1.965 1.204.62-.11.844-.774.908-1.31.366-3.067-6.594-1.916-8.587-1.916h-22.72c-1.285 0-2.886-.237-4.119.102-.826.227-1.31 1.366-2.196 1.204-.775-.142-.77-1.347-.622-1.927C78.133.35 79.908.584 81.157.583h10.56c14.903.006 29.87.32 44.8.32h12.16c1.112 0 3.377-.427 3.732 1.007.705 2.844-4.452.593-6.292.593h-20.8c-1.874 0-7.532-1.028-7.655 1.605-.028.602.076 1.74.941 1.622 1.087-.15 1.64-1.32 2.876-1.47 6.602-.8 13.815-.157 20.478-.157 1.766 0 7.184-.932 6.974 1.919-.167 2.265-3.46.002-5.054.001q-8.16-.002-16.32 0c-1.354 0-5.512-.676-6.207.742-.296.605-.381 2.303.503 2.484.633.129 3.28-1.463 4.424-1.572 4.407-.42 9.013-.054 13.44-.054 1.668 0 5.89-.78 5.694 1.915-.165 2.265-3.463.006-5.054.005h-10.88c-1.142 0-3.343-.418-4.287.329-.921.73-.466 2.265-.193 3.191.847-.446 1.396-1.366 2.281-1.727 2.942-1.2 9.54-.46 12.758-.174 2.227.198 2.372 2.547.641 3.501-1.314-2.701-5.984-1.6-8.64-1.6-.942 0-2.54-.294-3.327.329-.921.73-.466 2.265-.193 3.191 1.84-.97 7.653-4.093 9.591-1.178.391.587.535 2.659-.583 2.485-1.687-.263-2.51-1.656-4.829-1.26-1.172.201-1.83 2.039-.784 2.913 1.032.861 1.55-1.585 2.51-.984 1.067.668-.035 2.586 1.503 3.042 3.365 1 8.278.102 11.792.102 2.335 0 4.188-.51 5.12 1.92.526-.414 1.282-1.515 1.956-1.625 1.178-.193 1.045 2.144.595 2.712-1.543 1.95-4.562-.027-5.43-1.407h-.32c-2.35 4.4 3.596 4.231 6.702 3.419.729-.191 1.452-1.35 2.197-1.204.667.13.7 1.095.675 1.62-.118 2.534-8.745 1.907-10.836 1.558-.895-.15-1.212-1.139-1.987-1.26-1.056-.164-1.02 1.84-.583 2.394.675.855 2.541.513 3.511.513 3.164 0 6.45.131 9.6-.006 1.252-.055 3.526-2.41 3.787-.295.319 2.588-3.344 2.137-5.067 2.036-3.97-.235-8.235.523-12.154.166-1.304-.118-1.49-1.7-2.566-1.697-1.095.003-1.114 1.864-.767 2.574.62 1.266 3.456.742 4.607.742q7.2.002 14.4 0c1.507 0 4.852-2.04 5.067-.302.356 2.873-4.528 1.902-6.347 1.902-5.81 0-11.807.249-17.598-.006-1.253-.055-1.864-1.4-2.88-1.39-1.035.01-1.065 1.599-.86 2.309.525 1.813 5.442 1.007 6.938 1.007h18.56c1.564 0 5.578-1.851 5.694-.302.218 2.905-6.082 1.902-7.934 1.902-7.568 0-15.152.142-22.72-.001-1.345-.026-2.205-1.405-3.198-1.396-.951.01-1.017 1.326-.913 2.019.35 2.312 7.099 1.298 8.911 1.298h22.4c1.284 0 3.193.349 4.385-.193.672-.305 1.068-1.573 1.932-1.248.679.255.692 1.17.717 1.762.032.768.2 2.802-.955 2.813-.928.01-1.412-1.41-2.565-1.515-8.378-.76-17.177-.019-25.594-.019-2.014 0-8.9-1.119-9.226 1.605-.064.53-.006 1.496.67 1.62.825.152 1.427-.992 2.197-1.203 1.525-.42 3.499-.102 5.08-.102h17.6c2.49 0 5.904-.601 8.272.102 1.692.502.977 2.729-.273 3.418-1.24-2.668-4.367-1.92-7.04-1.92-6.932 0-14.916-1.115-21.741.047-1.208.206-1.969 2.411-.792 3.097.824.48 1.446-.744 2.136-1.032 1.234-.516 3.064-.192 4.397-.192h14.4c1.6 0 4.216-.517 5.659.193 1.476.727.569 2.716-.539 3.327-1.045-2.249-2.791-1.92-5.12-1.92h-12.8c-1.789 0-5.22-.75-5.095 1.915.113 2.41 3.224.028 4.775-.18 3.768-.502 8.384-.44 12.16.005 1.024.12 3.098-.15 3.652.922.33.639.492 2.243-.465 2.439-.808.165-1.506-1.467-2.553-1.562-3.435-.312-7.387-.02-10.874-.019-1.219 0-2.913-.274-3.15 1.299-.094.618-.053 2.078.912 1.927.86-.136 1.098-1.275 1.964-1.524 2.256-.65 5.941-.286 8.274-.047 2.675.273 3.203 2.606 1.28 3.785-.914-2.383-5.899-2.868-8.218-1.727-.84.414-1.02 2.081-.42 2.795.744.883 1.664-.935 2.284-1.195 1.626-.681 3.48.005 4.434 1.087-2.154 1.15-4.142.973-3.2 4.16.921-.485 1.541-1.542 2.578-1.818 4.066-1.085 10.122-.1 14.382-.102.978 0 4.527-1.386 4.797-1.068 2.349 2.762-3.479 3.054-2.82 4.094 1.404 2.219 5.645-1.392 6.34-.574 1.354 1.592-.408 2.958-1.917 2.987-1.61.03-4.194.48-5.664-.192-.809-.37-1.205-1.29-2.016-1.727-1.514 5.126 6.595 3.794 9.919 3.501.944-.083 2.762-2.03 3.328-.833 1.19 2.512-2.517 2.452-3.967 2.452-3.169 0-7.481 1.092-10.514.218-.974-.28-1.393-1.336-2.286-1.818-.264.895-.678 2.5.193 3.191.953.754 3.128.33 4.287.33 3.837 0 7.685.025 11.52-.001 1.255-.009 3.988-2.013 4.377-.591.796 2.907-2.652 2.19-4.377 2.193-5.132.009-10.222.329-15.36.318-.741-.001-1.734.128-2.373-.327-.46-.328-.692-1.442-1.412-1.298-.967.193-.81 2.15-.366 2.712.864 1.092 4.155.513 5.431.513h16c1.474 0 5.65-1.783 5.977-.592.967 3.512-4.99 2.448-6.937 2.496-6.497.16-13.02.03-19.52.016-.815-.002-1.745.109-2.464-.327-.526-.32-.925-1.438-1.64-1.298-.893.175-.785 1.907-.503 2.483.696 1.422 5.134.742 6.527.742h20.8c2.66 0 3.892-.777 6.144-1.36.577-.15.979.243 1.108.767.803 3.247-6.68 2.193-8.532 2.193-8.569 0-18.423 1.36-26.861-.047-.897-.15-1.21-1.139-1.987-1.26-.995-.155-.988 1.604-.81 2.22.39 1.346 2.312 1.007 3.418 1.007h10.56c15.143 0 30.356-.308 45.44-.017 4.008.077 8.122-.301 12.16-.303 1.333 0 3.32.198 3.454-1.6.044-.588-.178-1.39-.9-1.397-.882-.008-1.405 1.074-2.251 1.296-1.432.374-3.29.101-4.783.101h-20.48c-3.086 0-7.393.924-6.08-3.52 2.156 1.296 3.136 1.92 6.08 1.92h17.28c1.864 0 7.214.99 7.335-1.605.027-.58-.07-1.742-.9-1.622-.857.125-1.313 1.106-2.28 1.26-5.767.918-12.389.047-18.235.047-1.412 0-5.812.752-6.297-1.007-.184-.668-.067-2.091.859-2.083 1.106.01 1.502 1.423 2.88 1.484 4.93.217 10.087.006 15.038.006 1.566 0 5.152.676 5.657-1.298.178-.696.086-2.01-.863-2.019-.932-.008-1.562 1.19-2.56 1.35-3.953.63-8.467.047-12.474.047-1.292 0-4.575.589-5.017-1.007-.17-.614-.102-2.032.838-1.9 1.02.144 1.438 1.186 2.584 1.288 3.626.324 8.18.172 11.835.013 1.425-.062 3.63-2.594 1.517-3.273-.766-.247-2.565 1.35-3.757 1.359-1.17.008-2.35 0-3.52 0-1.91 0-3.898-.142-5.76.32-1.419-4.802 3.557-1.918 6.72-1.92 1.688 0 4.063-.164 3.417-2.512-.138-.503-.525-.936-1.1-.768-1.819.532-2.105 2.047-4.538 1.633-1.169-.2-2.006-2.341-.804-3.097.98-.616 1.696 1.964 2.698.476.665-.989.154-2.361-.972-2.67-3.813-1.047-9.142-.102-13.1-.102-1.152 0-3.988.524-4.608-.742-.29-.591-.342-1.998.302-2.402.946-.592 1.301 1.49 2.302 1.113.958-.36.897-2.216.21-2.76-.733-.581-2.424-.424-3.32-.281-.88.14-1.71 1.413-2.506 1.258-.949-.186-.818-2.15-.372-2.713.856-1.08 6.11-.821 7.305-.32.702.294.994 1.318 1.723 1.433.881.138 1.166-.97 1.166-1.621 0-2.577-8.833-1.886-10.825-1.557-.949.156-1.352 1.137-2.252 1.259-.74.1-.928-.75-.928-1.312 0-1.746 1.426-1.905 2.842-1.915 3.58-.024 7.663-.524 11.194.048 1.1.177 1.398 1.432 2.323 1.578.874.137 1.166-.975 1.166-1.621 0-2.27-3.22-1.605-4.763-1.605-4.15 0-9.032-.623-13.102.048-.963.158-1.36 1.138-2.252 1.259-.733.1-.928-.745-.928-1.307 0-2.424 4.117-1.6 5.722-1.6 4.785 0 9.62-.033 14.4 0 1.184.009 2.718 1.458 3.464 1.306.74-.151.733-1.36.647-1.927-.32-2.118-4.75-1.299-6.35-1.299q-8.16-.002-16.32 0c-1.708 0-4.81 2.458-5.067.315-.345-2.874 4.845-1.854 6.666-2.022 5.712-.525 11.548-.213 17.28-.213 2.514 0 4.926-.561 6.08 1.92 1.25-.69 1.965-2.916.273-3.418-2.626-.78-6.47-.102-9.233-.102-7.42 0-17.535-1.746-24 1.6v-5.12c.927.557 1.215 1.514 2.286 1.819 1.472.418 3.527.101 5.074.101 6.2 0 12.365-.32 18.56-.32 1.879 0 8.474 1.03 8.254-1.902-.035-.47-.27-1.09-.858-1.005-.759.111-1.207 1.005-1.973 1.206-1.165.304-2.61.101-3.823.101h-18.56c-1.304 0-5.207.664-5.886-.742-.316-.654-.242-2.382.768-2.392 1.08-.01 1.492 1.467 2.88 1.528 5.62.248 11.716-.715 17.278-.085 1.506.17 6.518.903 6.753-1.207.063-.565-.017-1.787-.733-1.927-.804-.158-2.31 1.282-3.46 1.304-4.903.092-9.816.001-14.72.001-2.583 0-6.848.324-4.8-3.52 1.129.754 1.439 1.77 2.886 1.901 3.98.36 8.448.02 12.474.02 1.745 0 5.083.646 5.083-1.916 0-.584-.194-1.395-.924-1.402-.877-.008-1.315 1.193-2.257 1.35-3.228.538-6.947.047-10.222.047-1.179 0-3.65.46-4.057-1.007-.188-.681-.078-1.98.859-1.99.932-.009 1.287 1.188 2.257 1.35 2.403.4 5.514.064 7.981.047.983-.007 2.238.07 2.686-1.007.291-.703.106-2.394-1.009-2.218-.75.118-1 1.13-1.723 1.432-1.278.536-6.807.746-7.44-.549-.3-.61-.332-2.648.718-2.485.6.094.87.872 1.424 1.116 1.578.696 5.16.404 4.596-2.029-.56-2.419-2.005.815-2.917.244-.88-.551-.163-2.422-1.236-2.95-1.582-.78-4.542-.194-6.299-.194-2.709 0-7.062.826-9.559-.193-.894-.364-1.421-1.274-2.28-1.727l-1.6 1.92c-.801-2.71.823-4.257 3.793-3.418.711.2 1.8 2.014 2.414.75 1.712-3.517-5.773-3.261-7.447-2.579-.885.361-1.434 1.28-2.28 1.727-.274-.926-.73-2.461.192-3.191.786-.623 2.385-.329 3.327-.329 2.6 0 7.382-.985 8.64 1.6 2.925-1.613.189-3.395-1.92-3.5-3.12-.153-8.216-.7-11.182.082-1.036.273-1.658 1.333-2.578 1.818-.273-.926-.728-2.461.193-3.191.993-.787 3.401-.329 4.607-.329h10.24c1.914 0 3.254-.262 4.16 1.6 1.185-.653 1.932-2.602.273-3.327-1.146-.5-2.887-.193-4.113-.193h-8c-1.706 0-3.414-.026-5.12.016-1.071.027-2.47-.205-3.474.222-.656.28-1.162 1.538-1.91 1.388-1.208-.244-.739-2.812.312-3.124 1.843-.547 4.426-.102 6.352-.102h13.12c2.254 0 4.982-.657 6.08 1.6 1.199-.66 1.887-2.54.273-3.2-1.698-.696-3.634-.048-5.393-.005-6.391.157-12.806.005-19.2.005-.99 0-2.197-.192-3.117.192-.633.264-1.142 1.256-1.918 1.114-1.054-.194-.868-2.377-.212-2.897 1.365-1.08 5.478-.329 7.167-.329h19.52c1.492 0 3.652-.414 5.025.192.59.26.825.996 1.452 1.17.578.158.957-.25 1.1-.77.92-3.321-6.295-2.192-8.217-2.192h-23.04c-1.285 0-2.886-.237-4.119.102-.764.21-1.358 1.357-2.196 1.204-.916-.168-.835-1.837-.396-2.393.71-.9 2.817-.513 3.831-.513h10.56c14.619 0 29.21-.32 43.84-.32h12.16c1.178 0 3.627-.482 4.058 1.008.17.587.19 2.398-.805 2.218-1.2-.218-1.25-1.593-2.933-1.624-7.678-.146-15.68-.143-23.36.251-1.564.08-6.658-1.046-7.485.783-.29.64-.158 2.076.771 2.1.749.019 1.229-.915 1.955-1.114 1.254-.344 2.822-.102 4.12-.102h16c2.215 0 5.202-.525 7.312.102 1.692.502.977 2.729-.273 3.418-.984-2.566-3.307-1.92-5.76-1.92h-16c-1.584 0-6.145-.282-4.607 2.772.346.687 3.802-.851 4.927-.852q7.36-.002 14.72 0c1.399 0 4.508-.63 4.747 1.299.086.698-.161 2.082-1.15 1.927-.925-.146-1.223-1.4-2.323-1.578-3.946-.639-8.473-.048-12.474-.048-1.906 0-5.948-.658-5.018 2.511.466 1.587 2.638-.536 3.74-.585 3.474-.152 7.074-.007 10.558-.006 1.2 0 2.95-.286 3.147 1.299.083.675-.085 1.787-.908 1.926-.848.144-1.419-1.296-2.257-1.523-2.252-.609-11.803-1.215-10.76 2.41.142.494.492.891 1.023.638.604-.288.774-.929 1.481-1.128 1.464-.414 7.403-.723 7.851.905 1.059 3.846-2.602.712-3.738.612-1.734-.153-4.166.406-3.007 2.753.709 1.436 1.808-1.214 2.821-.504.93.65.13 2.428 1.249 2.979 1.157.57 3.104.193 4.378.193 3.351 0 6.91-.14 10.239.006 1.253.055 1.67 1.164 2.64 1.3.938.133 1.402-1.008 1.841-1.626.755.8 1.519 2.323.219 3.191-2.043 1.364-4.84-1.592-5.792-.923-.872.613-.471 2.332.272 2.843 2.151 1.48 7.515.53 8.501-1.59 1.358.832 1.87 3.115-.326 3.472-2.69.437-6.557.42-9.255.037-.773-.11-1.724-1.64-2.404-1.214-1.037.65-.492 2.744.513 3.042 2.874.854 10.475.785 13.374 0 .97-.262 1.234-.99 1.618-1.818 3.72 2.052-.882 3.52-2.88 3.52h-11.2c-.953 0-2.21.203-3.104-.191-.56-.248-.961-1.253-1.64-1.114-1.131.23-.754 2.638.046 3.032 1.434.706 4.069.193 5.658.193 4.599 0 10.227.678 14.714-.047 1.08-.175 1.378-1.418 2.294-1.578.93-.162.958 1.343.809 1.927-.525 2.051-4.659 1.298-6.297 1.298-5.926 0-12.703.927-18.541-.047-.895-.15-1.212-1.139-1.987-1.26-.915-.142-.965 1.334-.809 1.9.501 1.809 5.458 1.007 6.937 1.007h18.56c1.866 0 6.014-2.246 5.707.315-.31 2.581-5.734 1.605-7.627 1.605h-20.8c-2.008 0-6.637-2.014-6.346.303.286 2.274 6.846 1.297 8.586 1.297h22.72c1.277 0 2.896.243 4.114-.101.773-.219 1.131-1.304 1.965-1.296.877.009.928 1.072.955 1.719.036.86.161 2.785-.96 2.813-1.07.028-1.224-.998-2.251-1.167-1.257-.208-3.11-.048-4.463-.048h-22.08c-1.883 0-6.624-.861-8.127.329-.921.73-.466 2.265-.193 3.191.921-.485 1.541-1.542 2.577-1.818 1.955-.522 4.666-.102 6.703-.102h14.4c2.915 0 6.77-.67 9.581.102 1.959.538 1.269 2.73.02 3.418-1.1-2.257-3.827-1.6-6.08-1.6h-16.96c-1.507 0-6.418-.791-6.939 1.008-.172.596-.204 2.057.594 2.218.794.16 2.2-1.581 3.464-1.62 5.003-.158 10.035-.006 15.04-.006 2.25 0 5.168-.495 7.341.102 1.926.529 1.329 2.696.02 3.418-.995-2.043-2.743-1.6-4.8-1.6h-12.161c-1.504 0-3.974-.479-5.339.193-1.174.578-.714 2.34-.422 3.327.845-.456 1.334-1.544 2.286-1.818 3.47-1 8.495-.102 12.114-.102 1.574 0 3.57-.344 5.073.102 1.692.502.978 2.729-.273 3.418-1.459-2.998-8.509-1.6-11.52-1.6-1.076 0-3.074-.378-3.967.329-.921.73-.466 2.265-.193 3.191.788-.425 1.205-1.357 2.016-1.727 2.096-.958 7.873-.53 10.126-.145 1.898.323 1.445 2.685.018 3.472-1.5-3.11-10.996-2.977-8.64 1.92 1.342-1.146 3.984-3.235 5.868-1.593 1.401 1.22-5.526 2.094-2.48 4.553.323.261 3.246-1.358 4.292-1.36h12.16c2.29 0 3.496-.085 4.8-1.92h.32c2.03 3.803-1.663 2.265-2.45 4.269-.532 1.36 2.672 1.24 3.404 1.124.852-.136 1.71-1.414 2.506-1.258.892.175.81 1.837.371 2.392-.857 1.086-6.045.792-7.305.456-.714-.19-1.003-1.133-1.694-1.249-.588-.098-.795.555-.863 1.005-.092.614-.063 1.474.464 1.892.676.535 1.874.329 2.687.33 2.261 0 5.876.686 7.954-.193.77-.326 1.005-1.037 1.326-1.728 2.13 1.175 1.352 3.475-.96 3.519-2.132.04-4.268.001-6.4.001-1.845 0-4.254.401-6.034-.101-.666-.188-1.22-1.345-1.91-1.204-1.354.276-.649 2.838.312 3.123 3.935 1.169 10.186.102 14.352.102 2.062 0 3.236.069 4.16-1.92 1.185.653 1.932 2.603.273 3.327-1.146.5-2.887.193-4.113.193h-13.119c-1.118 0-2.702.268-3.744-.191-.544-.24-.97-1.25-1.64-1.114-1.354.276-.649 2.838.312 3.123 1.736.516 4.208.102 6.032.102h13.44c2.467 0 4.921.572 6.08-1.92 1.185.653 1.932 2.603.273 3.327-1.83.8-5.013.193-6.993.193h-16c-1.452 0-3.68.402-5.024-.191-.548-.242-1.132-1.478-1.841-1.033-.797.502-.609 2.319.018 2.815.902.714 2.873.33 3.967.33h21.44c2.718 0 6.393.847 7.68-1.92 1.107.61 1.884 2.292.539 3.19-1.2.802-3.62.33-5.019.33h-24.32c-1.756 0-4.017.377-5.714-.102-.712-.201-1.015-1.1-1.694-1.205-.586-.092-.802.548-.858 1.005-.389 3.155 7.467 1.901 9.546 1.901 10.626 0 21.39.504 32 0" fill="none" stroke="#463b28"/></svg>