<svg viewBox="0 0 310.4 103.228" xmlns="http://www.w3.org/2000/svg"><path d="M0 .941c1.34 0 5.278-.488 6.071.513 1.077 1.36.329 4.654.329 6.527 0 5.798-.53 13.622.132 19.2.257 2.159-.109 2.662-.049 4.8.125 4.495.07 8.947-.042 13.44-.31 12.602.279 25.416.279 38.08v13.12c0 1.263-.363 3.976.329 4.981 1.031 1.498 3.276.779 5.111.779 5.19 0 11.573.775 16.634-.047 2.078-.338 1.606-2.82 1.606-4.433v-10.88c0-1.396.421-3.45-.193-4.698-.55-1.116-2.883-.742-3.967-.742h-9.28c-1.185 0-2.976-.34-4.058.193-1.512.744-.742 5.986-.742 7.487 0 1.763-.777 6.091.329 7.487.594.75 2.017.513 2.871.513 2.218.001 6.998.913 8.858-.329 1.172-.782.742-3.233.742-4.471 0-1.585.617-4.052-.329-5.247-.457-.577-1.295-.5-1.911-.512-1.242-.023-3.906-.48-4.927.328-.739.585-.543 2.033-.507 2.87.037.849.137 1.826 1.274 1.826.83 0 1.017-.486 1.28-1.185.25-.663.416-1.185 1.28-1.185 1.141 0 1.236.958 1.274 1.826.047 1.07.218 1.972-.323 2.707-.635.862-1.957.653-2.871.574-1.117-.096-3.143.37-3.967-.33-1.014-.86-.513-3.316-.513-4.552 0-1.27-.496-3.886.329-4.927.593-.748 2.029-.513 2.871-.513 2.064 0 7.468-.953 9.087.329.803.636.513 2.276.513 3.191 0 2.888.096 5.76.175 8.64.023.877.128 2.59-.625 3.143-1.006.736-2.823.377-4.03.377-3.256 0-9.608 1.04-12.433-.193-1.318-.576-1.007-2.952-1.007-4.287 0-4.774-.312-9.716-.32-14.4-.018-10.945 0-22.298 0-33.28 0-6.973.08-14.883-.001-21.76-.016-1.345-.246-2.136-.306-3.52-.227-5.178-.013-10.945-.013-16 0-1.435-.627-4.573.742-5.247C10.834.577 12.638.941 14.08.941h11.2c1.578 0 3.589-.677 4.287.742.91 1.849.513 6.23.513 8.538 0 2.067.037 4.357-.002 6.4-.014.793.006 1.685-.74 2.183-2.295 1.531-7.909.377-10.778.377-1.17 0-2.802.331-3.647-.513-.647-.647-.511-1.806-.513-2.687-.004-1.82-.956-8.107.513-9.271 1.104-.874 3.896-.303 5.247-.334.91-.02 1.642-.194 2.559-.144 1.024.055 1.699.403 1.874 1.444.231 1.382.749 3.781-.016 5.378-.448.935-1.434 1.004-2.497 1.004-.961 0-2.269-.044-2.41-1.277-.177-1.531 3.061-1.478 2.21-3.419-.614-1.401-4.357-1.286-4.818.266-.449 1.512-.621 4.98.227 6.251.947 1.419 5.606.765 7.351.74.887-.012 2.011.008 2.551-.777.649-.942.343-2.134.328-3.381-.024-1.958-.318-2.924-.319-5.12 0-1.057.371-2.81-.513-3.511-.805-.638-2.338-.329-3.327-.329h-8.64c-1.153 0-2.219-.31-2.871.513-.643.812-.33 3.22-.329 4.287.002 3.764.396 6.773.316 10.88-.073 3.667.004 8.822.004 13.12v29.44c0 3.751.32 7.456.32 11.2 0 1.524-.483 3.964.193 5.338.565 1.148 2.89.742 3.967.742h9.6c1.375 0 2.766.368 3.647-.513.954-.954.513-5.084.513-6.527v-2.88c0-1.35.535-4.156-.329-5.247-.587-.742-2.029-.513-2.871-.513-2.462-.001-6.982-.89-9.178.193-1.078.531-.565 2.066-.476 3.007.188 1.989-1.073 6.304 1.061 6.983 1.448.46 2.74.265 4.113.297.749.017 1.494.005 2.047-.515.854-.803.695-2.2.466-3.546-.437-2.564-2.135-.526-2.7.546-.632 1.199-2.238.948-2.591-.283-.704-2.452-.102-4.078 2.138-4.12 1.287-.025 4.588-.553 5.431.511.673.85.329 2.616.329 3.647 0 1.485.6 4.773-.513 5.887-1.545 1.544-8.213.6-10.367.507-.975-.043-1.674-.146-2.047-1.001-.438-1.003-.193-2.965-.193-4.113v-39.04c0-3.56.36-7.382-.32-10.24 1.321-.39 2.168-.32 3.52-.32h8.64c.947 0 2.548-.288 3.327.329.75.594.513 2.017.513 2.871 0 1.933.95 8.872-1.007 9.727-1.62.707-7.871.848-9.04-.32-.647-.647-.511-1.806-.513-2.687-.003-1.414-.575-3.61.513-4.471.555-.44 3.626-.411 4.185-.136.505.249.75.732.622 1.366-.308 1.505-3.032.501-2.64 2.588.202 1.072 1.08 1.247 2.12 1.287.964.036 2.27.1 2.871-.773.803-1.166.354-3.569.328-4.98-.013-.684.06-1.458-.512-1.912-1.036-.82-4.15-.329-5.567-.329-1.071 0-3.13-.334-3.967.329-1.406 1.113-.513 5.864-.513 7.671v23.36c0 1.742-.55 4.51 1.299 5.018 1.906.524 6.407.107 8.621.102.863-.002 2.025.149 2.687-.513 1.16-1.16 1.2-8.273.184-9.53-.79-.978-7.139-1.049-7.557.782-.216.948-.141 3.27.677 3.798 1.54.995 2.764-3.656 4.32-1.704 3.303 4.142-4.95 6.302-7.158 4.094-.595-.595-.507-1.577-.513-2.367-.013-1.897 0-3.857 0-5.76v-8.64c0-.902-.288-2.557.513-3.191 1.137-.9 4.171-.329 5.567-.329 1.12 0 2.722-.307 3.738.193.994.489.742 2.077.742 3.007.001 2.784.067 4.611-3.199 4.474-5.05-.212 2.626-4.121-.368-5.012-1.578-.47-3.887-.592-4.331.905-.422 1.422-.528 5.464.702 6.344.817.584 2.453.434 3.356.422 3.384-.045 6.796.018 10.24-.065.925-.022 2.897.35 3.647-.308 1.179-1.036 1.075-5.123.32-6.658-.478-.972-1.981-.76-3.007-.74-.897.016-1.966-.05-2.09 1-.2 1.673 3.382 1.467 2.53 3.378-.484 1.089-3.721 1.208-4.727.411-1.124-.89-.514-2.604-.513-4.151 0-.883-.2-2.307.513-2.871.62-.491 1.573-.327 2.367-.329 1.915-.004 5.223-.65 6.938.193 1.228.604.742 3.445.742 4.607v11.84c0 1.237.36 3.37-1.007 3.967-1.198.523-5.825.743-6.481-.549-.418-.823-.72-2.753-.314-3.636 1.329-2.892 2.81 2.11 4.24 1.606 1.914-.672 1.282-4.718-.604-4.89-1.435-.13-5.269-.51-6.065.495-.508.641-.327 1.515-.329 2.367-.002.972 0 1.606 0 2.56 0 1.582-.436 3.977 1.007 4.607 1.742.76 6.714.198 8.913.193.948-.002 2.272.156 2.871-.742 1.099-1.646.329-5.628.329-7.578v-19.52c0-2.136.94-6.525-.329-8.127-.66-.833-4.402-.513-5.751-.513-1.266 0-3.707-.436-4.287.742-.49.995-.194 2.522-.193 3.738 0 .904-.181 2.014.329 2.778.556.834 1.52.773 2.55.736 1.042-.039 1.92-.218 2.12-1.287.307-1.627-2.482-1.525-2.29-3.146.18-1.513 4.11-1.2 4.778-.672 1.27 1.005 1.065 6.093 0 7.158-1.126 1.126-7.846 1.038-9.305.32-.999-.491-.742-2.078-.742-3.007-.001-2.422-.016-4.946 0-7.36.006-.832-.145-1.71.513-2.231.732-.58 2.41-.329 3.327-.329 3.117 0 7.874-.777 10.833.102 1.19.353 1.005 1.766 1.007 2.778.006 2.986 0 5.974 0 8.96 0 10.789.32 21.528.32 32.32 0 2.534.017 5.156 0 7.68-.006.893.06 1.967-.742 2.503-1.986 1.325-6.38.378-8.858.377-1.022 0-2.27.224-3.007-.513-.647-.647-.511-1.806-.513-2.687-.004-1.974-.956-5.867.513-7.031.79-.625 2.922-.33 3.967-.329 1.013 0 2.532-.223 3.007.742.755 1.535.602 3.97-.808 4.258-.994.202-1.287-.437-1.559-1.16s-.565-1.362-1.559-1.16c-1.236.253-1.02 1.542-1 2.76.012.702-.029 1.506.512 2.047 1.004 1.004 3.481.57 4.927.507 1.224-.054 1.983-.31 2.193-1.6.333-2.051.047-3.239.047-5.114 0-1.162.234-3.167-.742-3.647-.95-.468-1.92-.193-3.098-.193H36.8c-1.054 0-3.385-.441-3.967.742-1.071 2.177.074 4.318.122 6.298.036 1.452.005 3.304.005 4.8 0 1.164-.404 3.32 1.007 3.738 3.5 1.04 9.045.102 12.753.102 1.187 0 3.4.385 4.151-.742.763-1.144.329-3.366.329-4.698v-11.2c0-3.904.045-8.307-.001-12.16-.016-1.345-.246-2.136-.306-3.52-.13-2.943-.013-5.692-.013-8.32V6.701c0-.813.183-2.04-.329-2.687-1.002-1.265-5.045-.513-6.711-.513-2.006 0-6.603-.878-8.127.329-.712.564-.513 1.988-.513 2.871-.001 2.387-.954 7.256.329 9.178.947 1.419 5.606.765 7.351.74.836-.01 1.76.038 2.367-.556 1.056-1.034.752-4.46.466-6.143-.292-1.711-4.037-2.117-5.063-.786-1.44 1.868 2.732 2.057 2.43 3.618s-2.752 1.556-4.021 1.207c-2.033-.558-1.758-5-1.197-6.89.49-1.654 8.976-1.446 9.945-.68 1.534 1.216.513 6.14.513 8.312 0 1.062.226 2.514-.193 3.473-.514 1.176-1.81 1.005-3.007 1.007-2.985.006-5.975.001-8.96 0-1.022 0-2.27.224-3.007-.513-1.164-1.165-.513-5.742-.513-7.487 0-2.56-.135-3.795-.291-6.08-.066-.962-.392-3.137.484-3.831 1.057-.837 4-.329 5.247-.329h2.56c2.465 0 9.827-.482 11.793.102 1.59.472 1.007 3.763 1.007 5.338 0 3.935.232 7.474.28 11.2.019 1.468-.347 3.301-.267 5.12.072 1.662.306 2.815.307 4.48.004 9.84 0 20.193 0 30.08v20.8c0 1.226-.006 1.982 0 3.2.01 1.909.298 2.776.319 4.48.038 3.247.001 6.95.001 10.24 0 1.076.282 2.828-.742 3.511-.962.642-2.624.329-3.738.329H40c-1.237 0-3.074.38-3.967-.513-1.133-1.133-.513-5.474-.513-7.167 0-1.87-.034-3.908.001-5.76.012-.635-.046-1.47.512-1.911 1.704-1.35 7.144-.33 9.407-.329.88 0 2.027-.194 2.687.329.624.494.507 1.46.513 2.231.012 1.765.781 6.193-.513 7.487-1.153 1.152-6.183 1.233-7.158-.229-.602-.901-.851-4.603.951-4.603 1.422 0 1.636 2.654 3.158 2.345 1.027-.209.984-1.158 1-2.12.017-.952.21-1.98-.511-2.551-.741-.587-2.437-.329-3.327-.329-1.225 0-2.795-.346-3.647.329-.624.494-.507 1.46-.513 2.231-.012 1.73-.561 6.802.742 7.671 1.927 1.286 6.801.334 9.178.329.948-.002 2.272.156 2.871-.742 1.062-1.592.329-5.375.329-7.258 0-1.507.752-6.752-.742-7.487-1.09-.536-2.856-.193-4.058-.193h-9.28c-1.07 0-3.396-.418-3.967.742-.603 1.225-.193 3.352-.193 4.698v11.2c0 1.664-.418 3.783 1.606 4.113 4.513.733 11.842.047 16.634.047 1.736 0 4.24.695 5.057-1.007.615-1.284.063-4.211.063-5.713v-14.08c0-13.916.067-28.379 0-42.24-.007-1.405-.2-2.183-.291-3.52-.199-2.896-.029-6.332-.029-9.28V6.701c0-1.265-.89-4.32.513-5.431C57.636.38 59.811.941 61.44.941h13.12c1.695 0 4.17-.796 4.927.742.425.864.193 2.722.193 3.738 0 3.007-.225 6.666.054 9.6.202 2.115 1.043 3.535.073 5.687-.438.972-1.449 1-2.367 1.028-2.445.077-5.205.005-7.68.005-2.26 0-7.171 1.181-8.127-1.007-.535-1.226-.193-2.58-.193-3.793 0-2.373-.805-7.714.193-9.83.518-1.098 2.319-.924 3.327-1 1.787-.135 6.861-.462 8.593.052 1.02.303.986 1.12 1.006 2.138.036 1.951.59 5.521-.192 7.313-.58 1.327-2.255.857-3.327.833-2.15-.048-4.04.596-4.163-2.386-.037-.882-.563-2.447.694-2.772 1.748-.453 1.493.951 2.06 2.03 1.078 2.047 2.35-.76 2.368-1.818.008-.52.04-1.073-.046-1.581-.342-2.005-3.848-1.31-5.393-1.299-.957.007-1.926-.154-2.367.742-1.04 2.114.076 4.417.122 6.298.023.911-.26 2.258.334 3.007.97 1.224 5.244.513 6.711.513 1.703 0 4.137.597 5.247-.513.734-.734.513-2.534.513-3.647v-3.2c0-1.812.813-6.365-.329-7.807-.725-.915-3.088-.513-4.151-.513-3.565 0-9.155-.516-12.461.047-1.794.306-1.299 3.468-1.299 5.073v73.92c0 2.321-.049 5.493.067 7.68.123 2.317.253 3.477.253 6.08 0 1.304-.575 4.89.513 5.751.954.756 3.124.329 4.287.329h11.52c1.331 0 3.965.463 4.607-1.007.886-2.029.242-6.736.188-8.913-.03-1.203-.246-1.906-.302-3.2-.049-1.104.254-3.444-.206-4.378-.437-.888-1.323-.735-2.367-.742-2.943-.02-6.006 0-8.96 0-1.097 0-3.13-.371-3.831.513-.722.912-.329 2.283-.329 3.327 0 1.8-.48 6.729.193 8.273.7 1.604 2.605 1.007 4.287 1.007 1.428 0 4.864.588 5.751-.742.6-.897.329-2.38.329-3.418 0-1.526.547-3.277-1.007-3.738-1.155-.343-3.233-.137-4.433.218.346 1.265.382 1.782 1.6 2.24.754.283 1.355.564 1.16 1.571-.3 1.547-2.492 1.468-3.714 1.236-2.366-.45-1.928-4.458-1.559-6.628.263-1.542 1.68-1.297 2.833-1.299 1.402-.003 3.346-.003 4.8 0 1.061.002 2.43-.166 2.778 1.007.185.621.1 1.189.102 1.873.002.824 0 1.459 0 2.24 0 1.55.5 6.474-.513 7.487-1.602 1.602-8.441.513-11.007.513-1.032 0-3.103.364-3.647-.742-.482-.98-.16-2.357-.206-3.418-.105-2.409-.307-5.663-.307-8.32v-34.56c0-2.263.049-5.17-.005-7.36-.028-1.163-.246-1.914-.302-3.2-.046-1.036-.013-1.62-.013-2.56v-11.52c0-1.527-.545-3.277 1.007-3.738 1.945-.578 4.192-.102 6.033-.102h7.04c1.09 0 2.735-.393 3.647.329.774.613.503 2.33.604 3.191.359 3.038.23 5.024.229 8.32 0 1.185.3 3.076-1.007 3.647-2.328 1.016-6.678.198-9.233.193-1.105-.002-2.006.168-2.687-.513-.951-.951-.513-3.813-.513-5.247 0-1.13-.416-3.346.329-4.287.8-1.01 5.943-.805 6.93-.32 1.442.71 1.047 2.467.64 3.948-.183.663-.69 1.262-1.458 1.059-1.096-.29-.778-1.696-1.741-2.12-2.149-.948-2.17 3.075-1.627 4.178.62 1.261 3.708.763 4.927.74 1.113-.02 1.941-.03 2.367-1.005.531-1.217.857-8.292-.32-9.224-.668-.529-1.897-.329-2.687-.329-1.886 0-8.634-.829-9.407.742-1.123 2.283-.193 9.947-.193 13.018v29.12c0 2.281-.5 8.351.102 10.541.296 1.077 1.047 1.245 2.138 1.293 2.933.128 6.306.006 9.28.006 1.22 0 2.52.27 3.418-.329 1.316-.878.742-5.377.742-7.031 0-1.053.002-1.742 0-2.88-.002-1.074.207-2.22-.742-2.687-1.363-.67-7.617-.718-9.076 0-1.302.64-.96 5.347-.64 6.508.457 1.664 3.576 2.058 4.823.786 1.973-2.01-3.632-2.071-1.724-4.414.65-.799 3.206-.739 4.057-.32.783.385.723 1.133.74 2.047.027 1.407.558 4.565-.74 5.431-1.508 1.007-6.46.566-8.212.282-2.413-.393-1.606-5.522-1.606-7.633v-21.44c0-1.497-.738-6.04.513-7.031 1.68-1.33 7.28-.33 9.407-.329.88 0 2.027-.193 2.687.329.624.494.507 1.46.513 2.231.014 1.995.598 5.18-.193 6.993-.56 1.283-2.125.987-3.327.909-2.977-.193-5.087-.2-4.433-4.043.563-3.3 3.58 1.95 4.88.932.626-.49.513-1.28.513-2.231 0-.8.118-1.731-.513-2.231-1.088-.862-4.834-.716-6.48-.227-1.363.405-1.007 3.354-1.007 4.698v11.2c0 1.377-.455 3.673.742 4.471 1.017.679 3.035.329 4.378.329 1.503 0 2.417.246 4.141-.047 1.13-.193 1.248-.86 1.293-1.874.057-1.287.506-4.2-.323-5.246-.627-.792-3.777-.888-4.46 0-1.621 2.103 4.237 2.434 1.487 4.278-4.496 3.016-5.943-4.85-4.37-6.838.769-.97 2.147-.513 3.512-.513h10.24c1.063 0 3.426-.402 4.151.513 1.946 2.457-.342 9.977-4.278 6.838-2.19-1.747 3.105-2.373 1.712-4.278-.612-.837-2.84-.785-4.098-.411-1.539.457-1.776 6.234-.494 7.25.916.725 2.337.328 3.327.328 2.076 0 5.696.896 6.527-1.007.438-1.003.193-2.965.193-4.113v-10.24c0-1.359.488-4.319-.513-5.111-.904-.716-2.996-.33-4.287-.329-1.153 0-2.219-.31-2.871.513-.533.673-.54 3.046-.136 3.865.762 1.548 2.355.344 2.687-.538.272-.723.565-1.362 1.559-1.16.924.19.959.98.995 1.802.056 1.28.282 2.504-.736 3.005-.935.46-5.843.579-6.745-.136-.944-.748-.513-2.678-.513-3.831 0-1.416-.519-4.934.513-5.751.688-.545 1.8-.329 2.687-.329 2.324-.001 7.389-.687 9.178.193 1.538.757.849 6.123.824 7.807-.018 1.23.222 1.983.237 3.2.067 5.668 0 12.175 0 17.92 0 1.649.749 6.4-1.007 7.167-1.619.707-7.87.849-9.04-.32-.594-.595-.507-1.577-.512-2.367-.011-1.641-.65-3.87.513-4.791 1.055-.836 4.222-.656 4.486.677.312 1.57-2.756 1.928-2.227 3.433.421 1.199 2.933 1.495 4.166.672 1.36-.907.752-3.529.742-5.111-.008-1.151.126-2.122-1.008-2.458-1.439-.428-6.786-.428-8.225 0-.906.269-.962.937-1.001 1.82-.106 2.411-.011 5.82-.006 8.318.002 1.203-.18 2.58 1.298 2.833 3.11.53 7.03.047 10.222.047 1.074 0 2.824.31 3.647-.513 1.535-1.535.513-7.605.513-9.727 0-7.893.091-16.855-.001-24.64-.015-1.238-.207-1.977-.29-3.2-.128-1.864-.029-5.216-.029-7.04v-4.48c0-1.354.504-3.986-.513-4.791-.68-.54-1.689-.329-2.687-.329-2.387-.001-6.734-.545-8.913.102-.79.235-.92.763-.988 1.504-.123 1.353-.022 4.345-.019 5.754.002.858-.206 1.968.513 2.687 1.047 1.047 3.046.534 4.607.512.836-.012 1.76.038 2.367-.557.668-.653.528-1.67.512-2.642-.018-1.03-.008-1.882-1.005-2.132-2.336-.587-1.545 3.071-3.404 2.532-1.025-.298-1.038-2.73-.999-3.594.111-2.434 6.87-2.064 7.64-1.093.98 1.238.33 4.385.329 6.207 0 .89.188 2.323-.329 3.098-.616.923-1.8.74-2.871.742-2.4.005-7.862 1.032-9.407-.513-1.088-1.089-.513-7.116-.513-8.767v-2.56c0-1.739-.487-3.488 1.299-3.793 3.484-.593 7.496-.047 10.861-.047 1.565 0 3.695-.307 5.073.102 1.63.484 1.007 3.085 1.007 4.698 0 2.142-.116 4.614.029 6.72.141 2.068.291 3.126.291 5.44v55.04c0 .868.244 2.284-.329 3.007-.728.92-2.795.513-3.831.513h-3.2c-1.533 0-3.54.003-5.12 0-1.465-.003-2.692.18-3.098-1.299-.407-1.481-.102-5.165-.102-6.701 0-.948-.007-1.584 0-2.56.008-1.065-.107-1.95.742-2.367 1.193-.587 7.46-.492 8.81-.091.792.235.922.763.99 1.504.123 1.365.486 4.458-.31 5.652-.623.933-2.18.814-3.186.723-1.473-.133-1.625-1.121-1.926-2.221 1.008-.33 1.952-.093 2.49-1.326.866-1.983-2.894-2.113-4.043-1.772-1.649.49-1.2 4.813-.96 6.292.188 1.152.8 1.492 1.874 1.587 1.755.156 6.85.782 8.126-.494.661-.661.511-1.831.513-2.687.005-2.318.005-4.72 0-7.04-.002-.87.17-2.01-.513-2.551-.66-.523-1.808-.329-2.687-.329h-8.64c-.974 0-2.659-.2-3.327.329-1.029.815-.513 2.457-.513 3.831 0 3.271-1.002 10.91.193 13.338.713 1.45 3.797.742 5.247.742h4.16c2.361 0 10.396 1.125 11.327-1.007.452-1.035.193-2.884.193-4.113 0-3.655-.32-6.356-.32-10.24v-60.8c0-3.29.037-6.992-.001-10.24-.027-2.262-.319-3.546-.319-6.08 0-1.372.443-4.912-.329-5.887-.768-.97-2.146-.513-3.511-.513H89.6c-1.188 0-2.862-.238-3.738.193-1.054.518-.741 1.81-.742 3.007v8.96c0 .938-.172 2.027.329 2.778.872 1.308 4.178.742 5.751.742 1.68 0 4.87.624 6.298-.329 1.326-.885 1.276-8.012.549-9.49-.65-1.319-4.26-.764-5.567-.74-1.482.029-2.162.264-2.234 1.92a13 13 0 0 0 0 1.278c.301 5.299 4.628-3.792 5.387.66.216 1.271.346 2.789-.466 3.583-.67.656-1.742.553-2.687.558-1.65.008-3.577.598-4.471-.742-.621-.93-.329-1.858-.329-2.778v-2.24c0-1.045-.044-1.735.006-2.879.045-1.015.158-1.68 1.293-1.874 1.388-.236 2.265-.047 3.501-.047 1.661 0 6.931-.825 7.991.513 1.185 1.496.329 6.585.329 8.447 0 1.761.662 3.755-.193 5.713-.58 1.329-1.879 1.006-3.327 1.007q-5.12.002-10.24 0c-1.45 0-3.032.422-3.967-.513-1.51-1.51-.513-6.32-.513-8.447 0-2.98-.006-5.983 0-8.96.002-.87-.17-2.01.513-2.551.97-.768 3.548-.329 4.927-.329h12.8c1.46 0 3.595-.472 4.607.329 1.084.859.513 4.261.513 5.751 0 5.852.32 10.554.32 16.32v54.08c0 1.753-.082 2.934.05 4.8.17 2.402-.185 4.966-.021 7.36.17 2.495.291 3.926.291 6.72 0 1.81-.811 4.702.513 5.751.881.698 3.706.329 4.927.329h13.44c1.613 0 4.214.623 4.698-1.007.539-1.814.152-9.25.097-11.473-.024-.974-.17-1.6-.26-2.56-.106-1.107.224-4.058-.248-5.018-.538-1.094-1.74-.741-3.007-.742-3.625-.002-7.255 0-10.88 0-1.194 0-3.622-.461-4.058 1.007-.907 3.054-.102 7.626-.102 10.833 0 1.036-.222 2.592.513 3.327.737.737 1.985.513 3.007.513 2.365.001 8.007 1.152 9.271-.742 1.294-1.939.364-5.334.327-7.258-.036-1.918-.816-2.4-2.558-2.531-1.156-.087-3.946-.477-4.927.3-1.026.813-.572 3.786.131 4.593.548.63 1.48.338 1.908-.26.491-.688.39-1.266.648-2.102 2.136.709 3.727 4.573.941 5.338-1.255.345-3.498.197-4.78.083-1.071-.095-1.686-.432-1.874-1.587-.269-1.657-.047-2.642-.047-4.154 0-1.763-.7-4.412 1.299-4.753 2.538-.432 5.673-.047 8.3-.047.907 0 2.277-.25 3.008.329.963.763.457 2.988.567 4.151.241 2.533 1.326 7.911.073 10.458-.57 1.16-2.333.742-3.647.742h-10.88c-1.269 0-3.055.462-3.647-.742-.69-1.404-.193-4.353-.193-5.978v-14.72c0-6.538.031-13.327 0-19.84-.008-1.708-.297-2.685-.319-4.48-.036-3.039 0-6.608 0-9.6v-36.8c0-1.52-.646-4.977.328-6.207.802-1.013 3.625-.513 4.791-.513h10.88c1.51 0 3.11-.431 4.379.193.946.466.741 2.545.741 3.647v10.24c0 1.074.31 2.824-.513 3.647-.773.773-2.32.513-3.327.513-2.548 0-9.556 1.043-11.364-.329-1.267-.96-.796-4.816-.796-6.391 0-1.408-.384-4.486.193-5.658.385-.783 1.133-.723 2.047-.74 1.981-.038 5.815-.677 7.578.191 1.097.54.742 2.589.742 3.647 0 1.202.432 3.07-.742 3.647-1.407.692-4.283.381-4.283-1.087 0-2.29 2.37-.12 2.37-2.56 0-1.566-3.507-1.747-4.512-.951-1.03.816-.535 3.872-.512 5.11.014.71-.026 1.477.512 2.003.542.53 1.328.53 2.047.553 2.106.066 5.324.444 7.258-.508.783-.385.723-1.133.74-2.047.043-2.223.003-4.789.002-7.04 0-1.029.198-2.295-.514-3.007-.759-.76-2.216-.513-3.326-.513-3.3 0-8.013-.83-11.153.102-1.469.436-1.007 2.864-1.007 4.058v40.96c0 2.965-.035 6.287 0 9.28.027 2.245.32 3.694.32 6.08v11.2c0 1.03-.36 3.105.741 3.647 1.158.57 3.1.193 4.378.193 3.405 0 6.838.023 10.24 0 1.355-.01 2.409.048 2.779-1.299.783-2.852.101-7.923.101-10.861 0-1.138.325-2.182-.329-3.007-.639-.807-4.456-.513-5.75-.513-1.68 0-5.349-.605-6.528.329-.624.494-.507 1.46-.512 2.231-.015 2.083-.607 5.161.192 6.993.422.966 1.437.988 2.367 1.006 1.952.036 5.19.692 5.422-1.92.122-1.384.403-3.116-.983-3.399-.965-.196-3.965 4.752-4.42.834-.048-.415-.024-.857-.017-1.274.008-.483-.029-1.051.191-1.498.628-1.276 6.044-1.052 7.066-.549 1.48.729.741 2.967.742 5.247 0 1.784.357 3.737-.513 4.607-1.545 1.544-8.213.6-10.367.507-.975-.043-1.673-.146-2.047-1.001-.504-1.154-.193-2.661-.193-3.793v-46.72c0-.848-.24-2.274.513-2.871.81-.642 2.332-.329 3.327-.329h8c.959 0 2.85-.322 3.511.513 1.055 1.332.329 5.185.329 6.847 0 1.473.474 4.236-.513 5.202-1.23 1.204-5.008.567-6.847.558-.945-.005-2.017.098-2.687-.558-.538-.526-.498-1.293-.512-2.002-.027-1.461-.42-3.455.192-4.698.44-.895 3.244-1.346 4.414-.413 1.411 1.126-3.087 3.154-1.534 4.489 1.755 1.507 4.828.493 4.92-1.62.069-1.54.552-4.59-.506-5.43-1.246-.986-4.705-.328-6.527-.328-1.145 0-2.715-.501-3.327.742-.863 1.753-.193 6.558-.193 8.858v19.2c0 2.194-.353 3.609.047 6.074.188 1.152.8 1.492 1.874 1.587 2.103.187 8.928.71 10.457-.31 1.579-1.053.742-5.17.742-6.711 0-1.155.318-2.806-.742-3.327-1.107-.545-5.033-.531-6.25 0-1.303.569-1.512 3.818-.495 4.694 1.865 1.607 2.884-3.799 4.598-1.785.82.964.549 3.927-.413 4.57-1.2.8-5.028.669-6.25.135-1.994-.87-1.008-8.122-1.008-10.367v-4.8c0-1.323-.299-4.735.742-5.247 1.5-.738 7.98-.914 9.305.136 1.109.878 1.088 5.697.184 6.838-.634.8-4.368.992-4.912-.227-.918-2.062 1.94-1.316 2.47-2.821.634-1.809-1.777-1.563-2.669-1.559-.764.004-1.706-.15-2.231.513-1.363 1.72-.744 6.791 1.277 7.12 2.635.428 4.388.047 6.714.047 2.976 0 6.7.913 9.233-.193 1.564-.683 1.033-3.805 1.006-5.247-.013-.664.048-1.467-.512-1.911-.615-.487-1.56-.333-2.367-.329-1.03.005-2.274-.15-2.41 1.001-.186 1.56 2.423 1.228 2.58 2.56.22 1.848-2.754 1.797-3.991 1.457-1.658-.455-1.3-2.59-1.299-4.058 0-1.385-.326-3.196 1.299-3.473 1.746-.297 7.347-.827 8.748.282.803.636.513 2.276.513 3.191v9.28c0 1.983.782 6.191-.513 7.487-1.18 1.18-5.795 1.18-6.974 0-.673-.674-.552-1.981-.507-3.006.207-4.732 3.667 1.074 4.694.526.95-.508.756-1.734.739-2.767-.016-.92.034-1.666-.74-2.047-1.058-.52-6.495-.611-7.066.549s-.193 3.595-.193 5.018c0 1.207-.268 2.155.102 3.501.297 1.082 1.048 1.245 2.138 1.293 2.558.111 7.851.835 10.193-.187 1.755-.767 1.007-5.518 1.007-7.167 0-3.598.041-7.65-.001-11.2-.014-1.14-.162-1.808-.264-2.88-.187-1.96-.058-4.68-.055-6.72.003-1.807.8-7.368-.741-8.127-1.302-.64-5.526-.205-7.259-.193-.787.006-1.698-.16-2.23.513-.691.871-.537 5.079-.228 6.172.26.92.932 1.206 1.82 1.268.914.063 3.088.247 3.398-1.274.137-.671-.144-1.103-.62-1.372-1.482-.837-1.57-.708-2.14-2.427 1.207-.357 3.248-.57 4.433-.218 1.021.303.987 1.12 1.006 2.138.026 1.407.557 4.565-.74 5.431-1.56 1.04-5.406.362-7.259.328-.737-.014-1.508.026-2.047-.512-.647-.647-.51-1.806-.513-2.687-.004-2.123-.999-7.73.33-9.407.706-.893 2.817-.513 3.83-.513 3.127 0 8.44-1.115 11.098.193.865.425.74 1.77.742 2.687.006 2.977 0 5.98 0 8.96v32c0 2.56.005 5.12 0 7.68-.002.948.156 2.272-.742 2.871-1.914 1.277-6.893.33-9.178.329-.854 0-2.277.237-2.871-.513-.527-.666-.329-1.884-.329-2.687 0-2.006-.942-5.878.513-7.031.827-.655 6.114-.648 6.93.184.584.597.559 1.423.554 2.367-.004.827.029 1.48-.51 1.919-1.342 1.093-2.724-2.144-3.647-2.144-1.648 0-1.4 2.205-1.261 3.739.212 2.334 3.655 1.657 5.421 1.601.786-.025 1.73-.047 2.231-.774 1.088-1.58.333-4.882.329-6.901-.002-.92.205-1.982-.513-2.551-.68-.54-2.105-.329-3.007-.329-2.29 0-7.858-1.021-9.378.329-.646.574-.226 2.308-.222 3.191.013 2.836 0 5.793 0 8.64 0 .902-.277 2.565.513 3.191.903.715 2.87.329 3.967.329 3.312 0 9.122.445 12.154-.047 2.37-.386 1.606-3.01 1.606-5.073V7.661c0-1.027.383-3.121-.513-3.831-.78-.617-2.38-.329-3.327-.329h-8.96c-1.15 0-2.716-.281-3.098 1.007-.34 1.144-.102 2.268-.102 3.473v3.84c0 1.275-.518 2.79.329 4.058.71 1.064 2.093.772 3.511.737.986-.024 1.622-.207 2.56-.232.853-.023 1.39.209 2.239.148 2.538-.182 2.483-4.668 1.82-6.904-.312-1.047-1.203-.99-2.14-1.006-.972-.016-2.508-.228-2.759 1-.393 1.93 3.383 1.335 2.105 3.379-1.076 1.72-4.57 1.021-5.003-.559-.438-1.593-.644-5.82.905-6.28 1.2-.355 3.319-.101 4.753-.101 1.493 0 3.268-.478 4.287.329 1.178.933.45 6.913.526 8.631.041.952.442 1.915.101 2.845-.484 1.325-1.822 1.297-2.994 1.314-2.862.04-9.77 1.199-12.058-.328-.987-.658-.742-2.679-.742-3.831v-9.92c0-1.011-.337-2.807.329-3.647.802-1.013 3.625-.513 4.791-.513h10.56c1.364 0 3.465-.414 4.698.193 1.228.604.742 3.445.742 4.607v72.64c0 5.442.32 10.144.32 15.68 0 1.592.646 5.124-1.299 5.658-2.554.702-4.076.102-6.381.102h-5.44c-1.23 0-3.655.32-4.698-.193-1.24-.61-.742-2.636-.742-3.967 0-2.87-.02-6.09 0-8.96.007-1.044-.146-1.93.742-2.367 2.286-1.125 5.746-.193 7.898-.193 1.076 0 3.421-.408 4.151.513.89 1.124.329 4.186.329 5.567 0 1.011.127 1.798-.047 2.874-.123.757-.409 1.172-.96 1.413-3.115 1.36-7.29.398-6.974-3.322.104-1.227 1.352-2.324 2.348-1.591 1.045.769 2.068 3.813 2.971 1.231.134-.382.093-.794.1-1.245.02-1.177.213-2.218-.74-2.687-.93-.458-5.586-.458-6.516 0-1.729.85-.746 5.122-.742 7.167.002 1.056-.327 2.158.742 2.871 1.726 1.152 7.154.341 9.498.329.948-.005 2.014.102 2.687-.558.543-.531.505-1.229.51-2.002.016-2.3-.317-3.89-.317-6.4 0-1.634.003-2.371 0-3.84-.002-.805.188-1.996-.513-2.551-.862-.683-2.583-.329-3.647-.329h-9.92c-1.013 0-3.124-.38-3.831.513-.747.943-.329 3.144-.329 4.287v11.84c0 1.513-.608 3.303.742 3.967 1.072.528 3.739.193 5.018.193h13.12c1.456 0 4.21.482 4.698-1.299 1.042-3.794.292-8.803-.098-12.461-.274-2.569-.12-5.394-.12-8v-72c0-1.767-.032-3.69.001-5.44.014-.74-.043-1.661.74-2.047 1.365-.672 3.447-.193 5.019-.193h12.16c1.257 0 4.595-.542 5.43.513.674.85.33 2.616.33 3.647v10.24c0 1.697.84 3.907-.33 5.658-.753 1.13-2.125.742-3.51.742h-9.92c-1.237 0-3.075.38-3.967-.513-.736-.735-.513-2.291-.513-3.327 0-2.91-1.086-8.5.193-11.098.422-.86 1.56-.736 2.367-.742 2.449-.017 4.91-.001 7.36 0 .842 0 2.283-.229 2.87.513 1.06 1.338.669 7.196.228 8.724-.46 1.593-3.295 1.346-5.018 1.322-.919-.013-2.013.005-2.552-.778-.66-.958-.622-2.322-.227-3.654.756-2.545 3.526 2.33 4.825 1.04 1.157-1.148.74-4.139-.494-4.505-1.405-.417-5.914-.536-6.664.411-1.1 1.39-.34 5.316-.328 7.167.007.993-.115 2.216 1.007 2.63 1.157.427 2.528-.086 3.793-.065 1.12.018 2.117.235 3.2.212 1.268-.027 2.771.103 4.112-.315 1.026-.32.987-1.122 1.006-2.142.06-3.186.008-7.014.001-10.24-.002-1.067.121-2.443-1.007-2.778-3.308-.982-9.34-.102-13.072-.102-1.122 0-3.46-.36-4.151.513-.784.99-.329 3.356-.329 4.607v13.76c0 1.855-.115 4.296.054 6.08.115 1.2.26 1.882.266 3.2.066 13.651 0 27.895 0 41.6v21.76c0 1.814-.718 6.652 1.327 7.258 2.078.616 6.032.102 8.273.102h6.08c1.862 0 4.772.763 5.338-1.299.815-2.965.102-9.738.102-13.101 0-1.102.205-3.181-.742-3.647-2.657-1.308-7.971-.193-11.098-.193-.972 0-2.837-.338-3.511.513-1.32 1.666-.333 7.275-.329 9.407.002.964-.137 2.285.742 2.871 1.444.964 7.369.926 8.756 0 1.08-.72.742-2.488.742-3.831 0-.931.292-2.543-.329-3.327-.962-1.214-4.696-.727-4.696.767 0 .827.48 1.015 1.185 1.28.758.286 1.354.608 1.16 1.559-.302 1.478-3.872 1.627-4.671.516-.804-1.117-.908-6 .184-6.866 1.274-1.01 4.944-.33 6.527-.329 1.038 0 2.235-.23 2.962.513 1.01 1.03.558 3.374.558 4.927 0 1.656.03 3.482-.001 5.12-.013.71.026 1.476-.512 2.002-.727.713-1.963.556-3.007.558-2.772.005-5.547 0-8.32 0-.962 0-2.531.3-3.326-.329-.988-.782-.514-3.629-.514-4.791 0-2.264-.074-3.108-.265-5.12-.145-1.517-.055-3.545-.055-5.12v-56c0-1.194-.46-3.622 1.008-4.058 3.489-1.036 8.763-.102 12.432-.102 1.201 0 3.347-.416 4.287.329.859.68.513 2.45.513 3.511 0 2.584-.053 5.142.005 7.68.027 1.194.415 2.816-.49 3.647-1.57 1.44-7.997.611-10.394.507-1.091-.048-1.843-.216-2.139-1.293-.583-2.122-.102-3.598-.102-5.421 0-.912-.346-2.475.329-3.327.837-1.057 3.536-.516 4.791-.513.79.002 2.028-.147 2.551.513 1.822 2.3-.003 5.032-2.551 4.287.146-1.135-.96-3.319-2.231-1.727-.613.768-.485 3.12-.136 3.92.426.975 1.254.985 2.367 1.006 1.463.027 4.376.29 5.111-.778.428-.622.323-1.315.329-2.101.01-1.57.774-6.331-.513-7.351-.724-.574-2.13-.329-3.007-.329-2.47 0-6.726-.856-8.858.193-1.034.509-.742 3.14-.742 4.287v13.44c0 10.536-.044 20.181.237 30.72.03 1.126-.286 1.974-.181 3.2.077.906.134 2.261 1.005 2.687.91.445 2.392.193 3.419.193 2.948 0 7.992.903 10.513-.238 1.064-.481 1-1.605 1.007-2.642.017-2.452.017-5.228 0-7.68-.006-.901.16-1.698-.513-2.231-.651-.516-1.893-.329-2.687-.329-1.804 0-4.717-.384-6.353.102-1.185.352-1.005 1.724-1.007 2.778-.004 1.82-.596 4.718 1.606 5.073 1.414.227 3.117.165 3.394-1.262.273-1.412-1.297-1.372-1.927-1.898-1.509-1.263 1.065-2.233 2.047-2.233.652 0 1.42-.168 2.047.329 1.048.83.798 6.009.184 6.93-1.028 1.54-6.67 1.173-8.612.64-1.887-.519-1.299-5.112-1.299-6.939v-16.64c0-2.124-.022-3.785-.02-5.76 0-1.429-1.147-5.037.029-6.527 1.313-1.664 7.835-.53 10.231-.513 1.044.007 1.93-.146 2.367.742.63 1.28 1.003 7.281.083 8.756-.748 1.2-5.78 1.065-6.828.549-1.072-.528-.847-1.963-.723-3.32.224-2.465 2.099-1.5 2.541-.327.323.857 1.643 2.008 2.367.538 2.59-5.257-5.072-4.866-7.807-4.058.849 2.872.32 10.963.32 15.04 0 1.24-.539 4.617.742 5.247 1.638.806 5.434.266 7.258.187.975-.043 1.674-.146 2.047-1.001.527-1.208.66-4.18.362-5.374-.42-1.68-4.44-2.447-5.077-.61-.33.95.355 1.466 1.068 1.817.56.276 1.05.365 1.13 1.055.136 1.139-.93 1.466-1.771 1.54-.85.075-2.292.236-2.87-.494-.617-.78-.329-2.38-.329-3.327 0-2.136-.522-3.954 1.922-4.128 2.98-.213 7.134-.032 10.238-.032 1.395 0 4.417-.566 5.568.329 1.089.847.804 3.68.82 4.791.01.746.01 1.533-.501 2.138-.882 1.047-2.89 1.281-4.185.413-.705-.473-.833-1.367-.228-1.908.633-.566 2.726-.982 1.711-2.37-.632-.865-3.496-.799-4.272-.184-.968.766-.913 6.299 0 7.022 1.264 1 7.564.78 9.04.136 1.367-.597 1.007-2.73 1.007-3.967v-11.84c0-1.162.486-4.003-.742-4.607-1.148-.565-5.725-.672-6.745.136-.96.76-.81 3.115-.184 4.049 1.408 2.099 2.523-2.84 4.278-1.488 1.33 1.026.743 4.604-1.093 4.771-2.45.223-5.942.955-6.068-1.902-.077-1.76-.928-7.893 1.293-8.272 2.67-.455 5.895-.048 8.621-.047.842 0 2.284-.229 2.871.513 1.127 1.423.33 5.704.33 7.487v20.16c0 1.808.816 6.477-.514 7.807-1.237 1.237-6.794.733-8.44.466-2.124-.346-2.392-5.223-1.414-7.211.43-.874 1.39-.742 2.367-.742.963 0 2.25-.19 2.668 1.001.633 1.8-1.941 1.096-2.469 2.3-.738 1.687 1.136 2.13 2.361 2.136.913.005 2.006.017 2.551-.776.743-1.08.903-6.03-.184-6.892-1.396-1.106-5.714-.341-7.487-.329-.691.005-1.498-.106-2.047.329-.97.769-.513 4.134-.513 5.431 0 1.74-.645 5.67.513 6.802.728.713 1.964.556 3.007.558 2.61.004 9.573.895 11.419-.329 1.675-1.11.741-8.292.741-10.551v-40.64c0-.93.252-2.518-.742-3.007-2.133-1.05-6.471-.193-8.858-.193-.873 0-2.278-.249-3.007.329-.627.496-.508 1.522-.513 2.231-.012 1.75-.837 6.219.513 7.426.967.864 3.343.59 4.607.573 1.01-.014 2.22.002 2.687-1.032.7-1.551.715-3.915-.813-4.3-1.729-.433-1.671 2.087-2.875 2.333-1.435.292-1.54-1.057-1.557-2.12-.016-.9-.184-1.722.327-2.367.522-.66 1.754-.511 2.551-.513 2.124-.004 4.99-.867 5.114 1.921.073 1.661.036 4.386.005 6.079-.018.944-.006 1.87-1.006 2.322-2.22 1.005-6.324.24-8.913.238-.853 0-2.277.237-2.87-.513-.618-.78-.33-2.38-.33-3.327v-8.32c0-1.187-.46-2.983 1.007-3.418 3.439-1.021 9.672-.102 13.393-.102 1.44 0 3.02-.531 3.647.742.528 1.072.193 3.739.193 5.018 0 3.159-.107 6.474.142 9.6.093 1.153.156 2.064.173 3.2.026 1.75-.374 2.965-.302 4.8.065 1.662.306 2.815.307 4.48.004 10.467 0 21.482 0 32v10.56c0 1.26.395 3.294-.329 4.378-.643.965-2.176.742-3.191.742h-8.96c-1.129 0-2.553.214-3.191-.742-.457-.685-.327-1.629-.329-2.458-.005-2.2-.437-7.097.102-8.913.129-.434.323-.732.905-.905 1.98-.588 3.745-.102 6.033-.102.971 0 2.295-.235 3.007.329.683.54.511 1.682.513 2.551.003 1.393.415 3.654-.513 4.562-.676.662-1.668.633-2.686.523-1.109-.12-2.008-.813-1.8-1.843.23-1.148 1.11-.647 1.926-1.33a1.22 1.22 0 0 0 0-1.903c-.714-.57-1.43-.33-2.367-.329-.995.002-1.458-.006-2.56.32.539 2.262-.874 5.244.649 7.167 1.026 1.296 6.08.558 7.671.508.903-.028 1.939-.078 2.367-1.028.776-1.721.012-2.794-.098-4.407-.123-1.795.548-5.373-.222-6.938-.86-1.746-5.317-.742-7.167-.742-1.973 0-4.126-.035-6.08.001-.74.014-1.661-.043-2.047.74-1.413 2.872-.193 9.354-.193 12.699 0 1.275-.318 3.089.329 4.058.77 1.155 3.096.742 4.471.742h11.52c1.198 0 3.373.401 4.287-.513 1.037-1.037.513-3.874.513-5.247v-14.4c0-10.649.05-21.713 0-32.32-.007-1.498-.242-2.357-.307-3.84-.292-6.67-.013-13.77-.013-20.48v-15.04c0-1.621.937-6.361-1.007-6.938-3.02-.897-9.043-.102-12.433-.102-1.143 0-3.344-.418-4.287.329-.8.634-.513 2.289-.513 3.191v8.64c0 1.035-.18 2.576.742 3.191 1.873 1.25 6.851.357 9.178.328.905-.011 2.031.024 2.687-.594.552-.52.497-1.215.512-1.965.03-1.607.005-3.495 0-5.12-.001-.87.17-2.01-.513-2.551-1.027-.814-3.419-.34-4.926-.329-.958.007-1.927-.154-2.367.742-.39.792-.493 3.422.32 4.048 1.788 1.378 2.22-2.764 3.866-2.03 1.137.505 1.074 2.686.984 3.621-.074.784-.48 1.124-1.222 1.252-1.256.215-5.646.561-6.373-.439-.951-1.31-1.052-7.912 0-9.24 1.187-1.5 7.731-.515 9.592-.514.873 0 2.272-.242 2.87.513.602.76.33 2.523.33 3.327 0 2.557-.014 4.823 0 7.68.005 1.028.385 2.61-.222 3.418-1.371 1.826-6.441.742-8.738.742-1.686 0-8.293.873-9.087-.742-.676-1.373-.186-3.809-.193-5.338-.006-1.318-.151-2-.266-3.2-.229-2.405-.055-5.813-.054-8.32 0-.827-.154-2.078.329-2.687.91-1.148 2.89-.513 4.471-.513h13.44c1.701 0 4.127-.73 5.111.513 1.006 1.27.647 4.646.649 6.207.01 6.48 0 12.992 0 19.52v69.76c0 1.422-.416 3.039.193 4.433.79 1.808 3.386 1.007 5.247 1.007 5.165 0 11.96.801 16.941-.047 1.826-.311 1.299-2.993 1.299-4.433v-10.88c0-1.357.411-3.47-.193-4.698-.562-1.143-2.892-.742-3.967-.742h-9.28c-1.185 0-2.976-.34-4.058.193-1.512.744-.742 5.986-.742 7.487 0 1.977-.738 5.659.329 7.258.584.875 1.883.74 2.871.742 2.542.005 7.146.979 9.178-.377.678-.453.705-1.173.736-1.864.063-1.445.006-3.313.006-4.799 0-.895.247-2.28-.33-3.007-.78-.985-3.266-.514-4.47-.513-.834 0-2.055-.172-2.687.329-.724.573-.529 1.55-.512 2.55.017 1.001.02 2.146 1.279 2.146 1.967 0 .423-1.965 2.281-2.345 1.167-.238 1.47.707 1.54 1.486.084.919.224 2.292-.31 3.092-.827 1.24-3.766.794-5.11.736-.711-.031-1.473-.078-1.912-.736-.412-.616-.324-1.402-.329-2.138-.01-1.55-.77-6.335.513-7.351 1.321-1.047 5.205-.329 6.847-.329 1.255 0 4.804-.278 5.43.513.635.8.33 1.935.33 3.007v8.32c0 1.076.282 2.828-.742 3.511s-2.87.329-4.058.329h-9.6c-1.375 0-2.766.368-3.647-.513-1.492-1.493-.355-5.966-.26-7.807.086-1.678-.253-4.598-.253-6.72V6.061c0-1.486-.658-4.74 1.299-5.073 4.431-.755 9.853-.047 14.381-.047 1.162 0 4.01-.474 4.791.513 1.361 1.719.329 7.537.329 9.727 0 1.305-.005 2.004 0 3.2.005.949.363 2.885-.114 3.767-.572 1.055-1.608 1.016-2.766 1.032-2.728.038-9.7.75-11.78-.237-1.827-.866-1.02-7.346-1.02-9.362 0-.807-.148-2.085.193-2.778.385-.783 1.133-.723 2.047-.74 2.066-.04 5.34-.486 7.313.1 1.866.554 1.528 7.185-.6 7.53-1.167.19-4.179.191-3.314-1.772.398-.904 3.215-1.162 2.026-2.787-.524-.716-3.786-1.202-4.62.229-.981 1.68-.866 4.713 0 6.196.764 1.31 8.354 1.37 9.562.413 1.156-.915.513-4.752.513-6.071 0-1.501.64-4.665-.329-5.887-.68-.86-2.529-.513-3.511-.513h-8c-.943 0-2.541-.294-3.327.329-1.153.913-.513 4.713-.513 6.071v45.44c0 1.495-.073 4.104.054 5.44.154 1.62.266 2.33.266 4.16v10.24c0 1.036-.222 2.592.513 3.327.893.893 2.73.513 3.967.513 3.808 0 8.437.557 12.154-.047 2.648-.431 1.606-6.812 1.606-8.913 0-1.54.654-4.966-.329-6.207-.587-.742-2.029-.513-2.871-.513-2.442-.001-6.99-.884-9.178.193-1.52.748-.86 6.93-.723 8.44.19 2.087 5.785 2.611 7.468 1.278 1.307-1.035.627-3.823-.291-4.46-1.958-1.36-1.751 1.838-3.077 2.109-1.854.378-2.093-2.78-1.366-4.258.65-1.321 3.992-.75 5.247-.742.705.005 1.738-.11 2.231.513 1.148 1.449.342 5.204.329 7.167-.006.823.087 1.735-.513 2.322-.67.656-1.742.553-2.687.558-2.193.011-7.88 1.014-9.407-.513-.647-.647-.511-1.806-.513-2.687-.005-2.659 0-5.34 0-8v-31.04c0-2.696.012-6.03 0-8.64-.004-.828-.47-2.585.038-3.327.645-.944 1.943-.513 3.162-.513 3.183 0 8.319-.44 11.181.047 1.38.235 1.29 1.31 1.299 2.513.018 2.59.577 6.468-.102 8.941-.594 2.163-5.259 1.3-6.938 1.299-.89 0-1.688.143-2.513-.102-1.073-.318-1-1.389-1.007-2.458-.008-1.209-.455-3.618.329-4.607.672-.848 4.141-.908 4.58.227.752 1.953-3.577 1.845-2.019 3.867.721.936 3.482.795 4.277 0 .786-.786.513-2.327.513-3.327 0-.983.342-2.834-.513-3.511-1.188-.941-7.582-.826-8.985-.136-1.469.723-.742 6.252-.742 7.807v21.44c0 1.427-.674 6.15.742 6.847 2.164 1.065 6.746.198 9.178.193.863-.002 2.025.149 2.687-.513 1.225-1.225 1.028-7.867.32-9.305-.565-1.148-5.835-1.154-7.065-.549-.582.286-.665.777-.723 1.413-.11 1.208-.351 3.173.983 3.479 1.572.36 1.994-2.82 3.437-2.313 1.002.352.987 1.354 1 2.348.01.868.097 1.726-.512 2.322-.607.594-1.531.545-2.367.557-1.39.02-3.626.469-4.607-.512-.876-.876-.513-3.333-.513-4.607v-11.84c0-1.423-.554-3.023.513-3.826.794-.599 1.922-.095 2.687-.043 1.679.115 5.55-.74 6.847.313 1.224.996.822 6.628-.494 7.203-1.64.715-4.462.14-4.284-1.366.082-.69.57-.78 1.131-1.055.637-.314 1.232-.654 1.13-1.505-.11-.939-1.009-.962-1.771-.995-.916-.04-2.519-.255-3.006.736-.546 1.11-.627 5.859.32 6.61.795.629 2.365.328 3.327.328h8.32c1.527 0 5.302.339 6.071-.779.703-1.02.331-2.369.329-3.701-.004-2.299-2.209-5.365-4.927-3.191-1.766 1.413 2.318 2.737 1.835 4.11-.441 1.255-2.51 1.14-3.61.954-1.525-.26-2.518-6.818-.556-7.723 1.546-.714 8.925-.91 9.625.512.522 1.061.193 3.029.193 4.378v10.56c0 1.434.35 3.276-.193 4.378-.69 1.403-2.935.843-4.287.86-.868.012-1.957.106-2.778-.31-.588-.297-.665-.777-.723-1.414-.095-1.039-.339-2.843.721-3.315 1.841-.82 2.27 3.496 4.187 2.03 1.04-.794.69-3.586 0-4.276-.963-.963-5.802-1.112-6.974-.184-1.283 1.016-.523 5.8-.513 7.351.005.79-.082 1.772.513 2.367.676.676 1.75.511 2.687.513 2.475.005 6.657.792 8.913-.193 1.726-.754 1.007-5.235 1.007-6.847v-21.44c0-1.543.777-7.06-.742-7.807-1.399-.688-8.078-.836-9.305.136-.968.766-.913 6.299 0 7.022 1.09.863 3.578.699 4.272-.411.442-.707.129-1.33-.406-1.633-.707-.402-2.836-1.198-1.306-2.418 1.026-.818 3.633-.568 4.37.184.817.835.56 3.094.557 4.287-.002 1.149.222 2.413-1.007 2.778-1.82.54-6.731.539-8.546 0-.905-.269-.962-.937-1-1.82-.088-1.978-1.05-10.432 1.292-10.83 3.84-.655 7.348-.045 10.861-.306.976-.072 2.36-.11 3.007.503.793.753.513 2.14.513 3.275v40c0 2.66.005 5.342 0 8-.002.928.145 1.998-.513 2.642-.829.812-2.441.558-3.647.558-3.166 0-8.3 1.22-8.725-2.56-.211-1.874.038-2.553-.144-4.16-.075-.667-.231-2.735.238-3.327.46-.582 1.163-.497 1.911-.512 1.344-.025 4.174-.522 5.247.328.789.625.662 2.58.411 3.492-1.044 3.802-3.676-3.503-5.145-.52-1.592 3.235 1.326 4.379 3.647 4.379.958 0 2.801.341 3.647-.329 1.345-1.065.524-5.704.513-7.351-.005-.717.114-1.734-.513-2.231-.724-.574-2.13-.329-3.007-.329-2.366 0-6.736-.851-8.858.193-1.06.522-.742 2.351-.742 3.327 0 2.713-.354 8.182.047 10.541.319 1.868 2.348 1.277 4.113 1.302 1.057.015 1.878.142 2.88.178.994.036 1.863-.152 2.88-.176 2.237-.054 5.619.748 7.633 0 1.437-.533 1.007-2.46 1.007-3.845v-12.8c0-1.88.04-4.258-.005-6.08-.02-.821-.15-1.412-.17-2.24-.038-1.653.008-3.748-.073-5.44a55 55 0 0 1-.071-2.56c-.008-1.171-.001-1.887-.001-3.2v-35.2c0-1.03.36-3.105-.742-3.647-2.61-1.284-8.167-.193-11.098-.193-.959 0-2.839-.336-3.511.513-.578.73-.329 2.134-.329 3.007 0 2.272-1.116 7.661.513 8.951.905.717 8.192.684 9.305.136 1.094-.538.741-1.74.742-3.007 0-1.352.377-3.405-.742-4.151-.762-.51-1.845-.363-2.777-.323-.754.033-1.907.102-1.772 1.274.17 1.47 2.132 1.012 2.52 2.02.797 2.075-3.328 2.197-4.487 1.627-1.172-.577-1.274-6.667 0-7.294 1.717-.845 5.361-.206 7.258-.193.705.005 1.738-.11 2.231.513 1.406 1.775.345 7.313.329 9.727-.007 1.054.158 1.9-.742 2.372-1.005.527-2.582.493-3.738.507-2.76.033-5.88.051-8.64 0-1.514-.029-2.392-.235-2.541-1.92-.167-1.882.023-5.768-.024-7.679-.036-1.476-.294-2.193-.314-3.84-.019-1.609-.607-4.22 1.006-4.698 1.144-.34 3.068-.102 4.433-.102h10.56c1.162 0 4.01-.474 4.791.513.795 1.004.329 3.38.329 4.607v63.68c0 1.886.161 3.858.291 5.76.383 5.588.029 11.323.029 16.96 0 1.768.814 6.678-1.299 7.258-3.518.967-8.764.102-12.461.102-1.08 0-3.408.425-4.151-.513-.7-.883-.329-2.886-.329-3.967 0-3.099.168-5.597-.184-8.32-.11-.85-.31-2.006.377-2.551 1.545-1.225 7.684-.345 10.047-.329 1.045.007 1.928-.146 2.367.742.919 1.86.495 4.55.512 6.298.01 1.051.218 1.948-.328 2.741-.574.834-1.89.774-2.871.779-1.316.007-3.347.426-4.287-.513-.66-.66-.527-1.766-.511-2.687.016-.956-.037-1.908 1-2.12.993-.202 1.286.437 1.558 1.16.253.671.429 1.185 1.28 1.185 1.52 0 1.333-1.759 1.274-3.104-.121-2.779-3.73-1.958-5.754-1.92-.815.016-1.692-.083-1.993.74-.226.62.034 1.504.06 2.139.078 1.847-.825 5.694.342 7.167.594.75 2.017.513 2.871.513 1.94 0 8.455.96 9.591-.742 1.526-2.286.33-8.667.329-11.418 0-1.058.344-2.787-.742-3.365-1.84-.979-6.382-.155-8.538-.155-1.662 0-8.376-.78-9.087.716-1.09 2.295-.193 7.912-.193 10.484v4.48c0 1.363-.466 2.602.193 4.113.763 1.746 3.122 1.007 4.927 1.007h13.12c1.485 0 3.929.45 5.006-.513.932-.834.435-3.046.434-4.287v-78.72c0-4.555-.32-8.434-.32-13.12 0-1.227-.394-3.753.513-4.471 1.23-.974 4.09-.329 5.887-.329 2.851 0 5.057-.103 7.68-.175 1.342-.036 3.254.023 4.8.013 1.1-.007 2.097-.243 3.194-.065 2.927.473 1.465 8.465 1.66 10.787.13 1.566.23 3.377.261 4.8.028 1.22.358 3.638-.56 4.607-1.07 1.128-3.944.703-5.195.751-2.829.11-6.193.097-9.28.082-1.05-.005-1.956.112-2.778-.422-.67-.435-.705-1.131-.736-1.82-.064-1.45-.006-3.304-.006-4.798 0-2.006-.878-6.603.33-8.127.528-.667 1.742-.511 2.55-.513 2.192-.005 8.017-1.026 9.727.329 1.268 1.004.72 7.122.466 8.612-.301 1.766-5.708 2.088-7.12.97-.53-.42-.481-1.074-.516-1.911-.033-.792-.503-2.237.436-2.68 1.516-.717 3.861 4.594 4.64.754.078-.388.05-.873.046-1.274-.008-.636.057-1.241-.328-1.727-.52-.657-1.758-.511-2.55-.513-1.531-.003-4.297-.54-4.928.742-.436.887-.193 2.044-.193 3.098 0 1.337-.003 2.152 0 3.52.004 1.703-.07 2.88 1.606 3.153 1.387.225 3.622.047 5.114.047 2.032 0 4.895.841 6.071-.804.917-1.283.33-6.603.33-8.156v-2.56c0-1.05.358-3.14-.514-3.831-.62-.49-1.574-.327-2.367-.329-2.525-.005-5.146 0-7.68 0-1.84 0-5.876-.597-7.221.329-1.4.964-.779 4.016-.779 5.751 0 2.904.316 4.684.32 7.36.004 2.562 0 5.409 0 8v64c0 1.604-.04 2.346.005 4.16.04 1.652.313 2.868.316 4.48.002 1.36-.507 4.249 1.007 4.698 1.486.441 3.823.102 5.393.102h8.96c1.25 0 4.268.465 5.246-.513.937-.937.286-3.349.222-4.287-.066-.962-.028-1.625-.028-2.56v-6.72c0-1.147.224-3.492-.742-3.967-2.594-1.276-7.726-.193-10.778-.193-1.123 0-2.784-.355-3.647.329-.616.488-.508 1.506-.513 2.231-.017 2.399-.005 4.955 0 7.36.002.964-.137 2.285.741 2.871 1.371.915 8.153.969 9.306-.184 1.14-1.14 1.163-5.81 0-6.974-.8-.8-4.833-1.115-4.833.767 0 1.896 3.062.8 2.665 2.851-.257 1.33-1.7 1.311-2.76 1.306-.829-.004-1.737.001-2.23-.739-.778-1.164-.34-3.24-.33-4.698.006-.725-.102-1.743.514-2.231 1.113-.882 3.793-.329 5.247-.329 1.113 0 3.717-.439 4.47.513 1.185 1.496.33 6.585.33 8.447 0 .992.264 2.104-.193 3.153-.435.995-1.26.985-2.367 1.005-3.046.058-6.222.002-9.28.002-.963 0-2.532.3-3.327-.33-1.516-1.2-.471-7.687-.518-9.59-.05-2.055-.315-3.046-.315-5.44v-55.36c0-1.143-.418-3.344.328-4.287.741-.935 3.086-.513 4.152-.513 3.146 0 9.739-.416 12.46.047 2.631.449 1.288 8.361 1.3 10.833.005 1.06.378 2.469.005 3.473-.404 1.086-1.599 1-2.566 1.007-2.575.018-7.176.882-9.525-.193-1.231-.563-.737-2.071-.754-3.007-.034-1.823-.771-4.034-.179-6.033.459-1.548 2.145-1.007 3.738-1.007.955 0 2.892-.269 3.647.329.912.722.888 4.095-.488 4.58-1.592.559-1.5-2.012-2.56-2.229-1.964-.4-1.925 3.122-1.366 4.258.595 1.21 5.831 1.318 6.974.413.846-.67.513-2.6.513-3.511v-2.24c0-1.115.24-2.002-.102-3.153-.307-1.034-1.133-.987-2.138-1.006-2.703-.05-7.274-.67-9.873.1-1.293.385-1.007 2.048-1.007 3.099v16.32c0 5.233.211 10.94.211 16.32 0 1.718-.305 3.329-.182 5.12.072 1.061.26 1.797.286 2.88.065 2.628-.013 5.33.005 8 .006.916-.109 1.934.742 2.44.917.545 2.17.218 3.098.227.844.01 1.41.171 2.24.197 1.569.048 3.794.016 5.44.016 1.206 0 2.818.254 3.647-.558 1.056-1.034.513-4.26.513-5.842 0-1.548.614-5.498-.513-6.391-.603-.478-1.59-.327-2.367-.329-1.555-.003-6.33-.775-7.351.513-.916 1.157-.853 5.577 0 6.654.597.753 3.752.92 4.46 0 1.377-1.786-2.921-2.69-1.894-4.094 1.432-1.958 4.962-.313 5.091 1.727.105 1.661.627 4.189-.499 5.116-.515.424-1.368.421-2.047.417-1.65-.011-6.714.602-7.671-.606-1.2-1.515-.329-6.51-.329-8.767 0-6.152-.106-11.815-.109-17.6 0-2.419-.828-5.85-.11-8.273.435-1.461 1.969-1.007 3.42-1.007 1.967 0 4.493.07 6.4-.013.816-.035 1.432-.285 2.22-.15.851.144 1.142.728 1.25 1.45.149.988-.104 1.634-.125 2.553-.02.87.133 1.395.158 2.24.03 1.01.19 2.145-.377 3.153-.968 1.718-4.022 1.168-6 .988-1.757-.16-2.517-3.674-1.094-4.77 1.732-1.335 2.447 2.684 3.867 1.881 1.006-.569 1.143-3.335.411-4.259-.94-1.188-5.151-1.037-6.61-.32-1.241.611-.74 3.45-.74 4.607v11.52c0 1.161-.296 3.158.512 3.967.538.538 1.31.498 2.047.512 1.75.032 6.206.77 7.487-.512 1.075-1.075 1.281-6.143 0-7.158-.925-.733-4.522-.72-4.806.672-.378 1.85 2.344 1.186 2.344 2.852 0 1.76-2.356 2.12-4.018 1.394-1.2-.524-1.613-5.441-.814-7.065.487-.99 2.232-.742 3.327-.742h10.88c1.147 0 3.306-.423 3.739 1.007.315 1.041.364 2.471.364 3.473 0 .75-.077 1.48-.336 2.221-.373 1.067-1.04 1.258-2.167 1.292-.934.027-2.002.048-2.55-.772-1.409-2.107 3.923-2.573 1.717-4.332-4.321-3.446-5.377 3.726-4.505 6.664.297 1 1.254.989 2.138 1.006 1.733.032 6.96.804 7.991-.74 1.026-1.538.33-5.124.33-6.939v-8.96c0-1.03.343-2.797-.33-3.647-.765-.966-5.793-.879-6.93-.32-1.06.522-1.23 4.241 0 4.715 1.7.656 1.684-2.253 3.1-2.253 1.608 0 1.8 3.011.95 4.283-.928 1.391-6.075 1.425-7.022.229-1.337-1.688-.6-8.043-.009-10.047 2.72.647 6.031.32 8.96.32.959 0 2.85-.322 3.512.513 1.126 1.423.328 5.704.328 7.487v20.16c0 1.862.034 3.92 0 5.76-.016.793.004 1.685-.74 2.183-1.605 1.07-4.891.427-6.94.372-.984-.026-1.974.007-2.55-.8-.67-.936-.766-5.715 0-6.682.663-.837 3.803-.853 4.46 0 1.453 1.885-2.497 1.924-1.71 3.921.38.963 1.435 1.011 2.36 1 .739-.01 1.505-.02 2.048-.552.928-.908.516-3.17.513-4.562-.002-1.067.12-2.443-1.008-2.778-1.898-.564-4.533-.106-6.672-.102-.809.002-2.023-.154-2.551.513-1.375 1.736-.345 7.407-.329 9.727.007 1.037-.057 2.161 1.007 2.642 2.579 1.167 7.815.238 10.833.238 1.087 0 2.828.282 3.511-.742 1.488-2.23.329-8.403.329-11.098v-39.04c0-.962.3-2.532-.329-3.327-.862-1.088-4.448-.513-5.752-.513-1.58 0-5.251-.681-6.527.329-1.13.895-.959 7.87-.32 9.17.642 1.303 6.703 1.161 7.478 0 .957-1.435.31-4.736-1.545-4.271-1.43.358-.562 1.734-2.007 2.24-1.89.662-2.04-3.372-1.23-4.395.777-.98 6.61-.925 7.342 0 .983 1.24.33 4.666.329 6.207 0 1.384.432 3.013-1.007 3.463-2.031.635-9.075.635-11.106 0-.79-.247-.923-.824-.988-1.549-.25-2.749-.02-7.59-.019-10.554 0-1.245-.268-2.886 1.299-3.153 3.944-.672 8.752-.047 12.781-.047 1.449 0 3-.536 3.831.513.651.822.329 2.052.329 3.007 0 3.088.388 6.04.087 9.28-.125 1.34-.029 2.078.142 3.52.582 4.939-.229 10.08-.229 15.04 0 9.747.32 19.37.32 29.12v10.56c0 1.137.357 3.097-.513 3.967-.72.72-2.07.513-3.007.513h-8.32c-.972 0-2.837.338-3.511-.513-.992-1.252-.322-4.632-.33-6.207-.007-1.607-1.146-4.427.01-5.887.858-1.084 9.043-1.084 9.902 0 .793 1.001.595 5.428.136 6.48-.369.844-1.068.965-2.047 1-1.04.039-2.578.052-2.731-1.273-.144-1.25 2.725-1.637 2.199-3.128-.482-1.368-3.923-1.83-4.715-.274-.628 1.235-.753 5.607.136 6.729.497.627 1.514.508 2.23.513 1.755.012 6.198.777 7.488-.513 1.037-1.037.513-3.874.513-5.247 0-1.637.65-5.61-.329-6.847-.687-.867-2.492-.513-3.511-.513-2.729 0-9.763-1.164-11.647.329-.871.69-.513 3.344-.513 4.471 0 3.97.146 7.438.326 11.519.051 1.166.255 1.78 1.6 1.902 1.377.126 2.214.019 3.514.019h11.2c1.063 0 2.763.322 3.738-.329 1.22-.814.742-3.5.742-4.791v-14.08c0-13.626-.65-27.014-.21-40.64.219-6.768-.11-12.109-.11-18.88V8.621c0-1.203.522-4.305-.742-4.927-3.046-1.5-9.551-.193-13.018-.193-1.078 0-3.075-.378-3.967.329-.849.672-.513 2.552-.513 3.511 0 2.873-.006 5.769 0 8.64.002 1.085-.236 1.918.513 2.564.747.643 3.538.642 4.927.636 2.14-.01 4.347.269 6.673-.422 1.02-.303.986-1.12 1.006-2.138.033-1.774.567-5.708-.192-7.258-.646-1.319-4.262-.765-5.567-.74-.635.011-1.47-.047-1.911.511-.378.477-.32 1.128-.327 1.727-.017 1.397.877 3.719 2.29 2.138.63-.704 1.063-2.217 2.408-1.619 1.105.491 1.178 3.605-.092 4.592-1.85 1.438-6.95.903-7.15-1.277-.138-1.525-.793-7.285.495-8.305 1.68-1.33 7.282-.33 9.407-.329.842 0 2.284-.229 2.871.513 1.233 1.557.329 6.483.329 8.447 0 1.625.433 4.841-.329 5.941-1.032 1.49-2.723.427-4.151.473-1.128.036-1.807.246-2.88.293-1.686.074-4.02.021-5.76.013-1.281-.006-3.538.42-4.607-.541-1.16-1.043-.513-3.701-.513-5.219 0-4.5-.888-11.274.32-15.36 4.159 1.23 10.573.05 14.72.001 1.429-.017 2.484-.001 3.84-.001h8.96" fill="none" stroke="#362e22"/></svg>