<svg xml:space="preserve" xmlns="http://www.w3.org/2000/svg" viewBox="0 0 296.72 109.465"><path d="M0 19.647c1.684 0 8.276.931 9.086-.741 1.146-2.367-1.46-1.963-2.493-2.788-.96-.766-.457-2.161.494-2.45 1.208-.365 2.007-.27 3.153-.35 1.472-.104 6.294.797 5.652-1.973-.528-2.277-6.104-1.225-7.89-1.304-1.347-.06-2.444-.975-1.73-2.452.521-1.074 2.362-.742 3.328-.742h9.6c1.334 0 3.938.22 3.412-1.874-.314-1.25-1.666-1.003-2.772-1.006-3.085-.006-6.515 0-9.6 0-1.398 0-4.123.606-4.123-1.6 0-2.424 4.118-1.6 5.723-1.6h14.08c1.905 0 4.496-.775 5.887.33.615.488.574 1.745 0 2.259-1.834 1.64-4.088-.732-5.559 1.124-.827 1.045.4 4.255-.841 5.238-1.417 1.122-4.376-.65-5.559.842-1.125 1.422.469 3.953-.657 5.374-1.183 1.493-4.142-.28-5.558.842-1.493 1.183.28 4.142-.842 5.558-1.282 1.62-4.655-.38-6.198.842-1.055.836-1.007 7.72-.185 8.758.715.903 2.823.513 3.832.513h9.6c1.292-.003 2.842.109 2.842-1.6 0-2.76-8.5-1.596-10.522-1.6-1.501-.003-3.355-.104-2.777-2.193.394-1.424 2.614-1.007 3.737-1.007h11.52c1.17 0 3.992.528 4.372-1.007.476-1.922-1.38-2.183-2.772-2.192-2.005-.014-10.775 1.266-9.817-2.194.427-1.54 3.173-1.007 4.377-1.007H32c1.08 0 3.038.36 3.416-1.007.571-2.062-1.293-2.19-2.776-2.193-2.711-.006-5.706.356-8.314.119-1.188-.108-1.84-1.098-1.503-2.312.41-1.483 3.192-.997 4.377-1.006 3.623-.025 7.255 0 10.88 0 1.014 0 3.1.387 3.646-.742.932-1.925-.926-2.449-2.366-2.458-2.031-.014-11.098 1.277-10.137-2.194.574-2.075 5.206-.789 6.617-.72 2.764.135 5.533-.287 8.32-.287 1.003 0 3.123.39 3.83-.513 2.137-2.725-3.667-2.367-4.47-2.367-1.747 0-3.735.083-5.76-.006-1.316-.057-2.888-1.278-1.655-2.68C37.006.255 39.23.767 40.32.767h3.2c1.467 0 7.04-.814 7.807.742.635 1.291.788 7.777-.496 8.345-1.476.654-3.89-.514-5.198.522-1.493 1.183.28 4.142-.842 5.558-.968 1.222-4.605.4-6.071.833.423 1.777 1.285 5.026-.688 5.887-1.343.587-4.739-.65-5.52.935-.698 1.42.65 4.257-.705 5.33-1.417 1.122-4.376-.651-5.559.842-1.121 1.416.651 4.375-.841 5.558-1.21.958-4.294-.198-5.374.657-1.56 1.235.355 3.726-.842 5.238-.953 1.203-4.672-.324-5.743 1.027-1.143 1.443.442 3.94-.657 5.436-.858 1.168-5.122.099-6.198.846-1.026.711-1.036 8.055 0 8.876.783.62 2.395.328 3.327.328h8.64c.998 0 2.81.335 3.647-.328.759-.602.65-2.246-.23-2.678-1.428-.704-4.089-.194-5.657-.194-1.702 0-3.42.07-5.119-.006-1.405-.062-2.715-1.37-1.408-2.68.869-.871 2.833-.513 3.967-.513h10.56c1.24 0 4.257.58 4.696-1.007.961-3.47-8.105-2.18-10.136-2.194-1.345-.009-3.138-.466-2.366-2.164.625-1.372 2.888-.715 4.286-.715 3.87 0 7.713-.033 11.52-.001 1.297.01 2.51.184 3.005-1.006.546-1.316-.383-2.375-1.727-2.494-2.794-.248-5.819.033-8.638-.02-1.2-.023-2.51-.373-2.132-1.873.396-1.578 2.615-1.006 4.052-1.006h11.2c1.464 0 3.05.416 3.645-1.007 1.321-3.163-5.266-2.193-6.525-2.193-2.013 0-6.72.822-5.972-2.193.38-1.54 3.2-1.007 4.372-1.007h11.2c1.08 0 3.038.36 3.416-1.007.571-2.063-1.293-2.19-2.776-2.193-1.968-.004-9.883 1.137-9.883-1.6 0-1.709 1.55-1.597 2.843-1.6h9.28c.953 0 2.832-.343 3.51.513.856 1.08.874 8.261-.412 8.894-1.211.596-5.196-.514-5.465 1.2-.332 2.114 1.352 3.364-.652 4.744-1.574 1.083-4.99-.819-5.758 1.628-.399 1.268.44 3.871-.696 4.772-1.328 1.051-4.51-.48-5.559.842-.893 1.128.518 4.481-.841 5.558-1.422 1.126-3.953-.468-5.374.658-1.493 1.182.28 4.141-.842 5.558-1.183 1.493-4.142-.28-5.558.842-1.492 1.181.2 4.154-.842 5.583-1.309 1.795-3.476-.054-5.33.709-1.652.68-.09 4.427-1.07 5.666-1.162 1.466-4.42-.057-5.97.706-1.28.63-1.327 8.208-.228 9.078.727.576 2.145.329 3.007.329h8c1.038 0 1.844.051 2.88-.014 1.025-.065 2.145-.368 2.145-1.594 0-2.242-3.697-1.592-5.025-1.592-1.791 0-4.647.137-6.399-.019-1.17-.104-2.166-.75-1.813-2.174.368-1.49 2.918-1.007 4.052-1.007h11.2c1.543 0 3.943.435 4.372-1.321.489-2.005-1.542-1.877-2.772-1.88-2.214-.004-5.834.174-7.999-.018-1.253-.111-2.372-1.061-1.727-2.44.534-1.14 2.622-.741 3.646-.741h10.88c1.103 0 3.726.415 4.286-.742.75-1.548-.346-2.391-1.728-2.452-2.079-.092-11.754 1.336-10.775-2.199.427-1.541 3.173-1.007 4.377-1.007h10.88c1.028 0 3.1.388 3.646-.742.93-1.92-.905-2.448-2.366-2.458-1.629-.011-3.284 0-4.8 0-1.567 0-6.168.808-5.337-2.193.427-1.541 3.173-1.007 4.377-1.007h10.56c.988 0 3.153.345 3.83-.513 1.185-1.5-.242-2.621-1.592-2.68-2.647-.118-5.346-.002-7.998-.007-.985-.002-2.443.2-2.777-1.007-.233-.843.006-1.825.904-2.091 3.098-.92 7.598-.102 10.833-.102.999 0 2.809-.335 3.647.329 1.098.87 1.05 8.448-.23 9.078-1.42.699-4.255-.649-5.329.706-1.096 1.385.744 4.801-1.07 5.694-1.276.628-4.464-.387-5.33.706-1.44 1.82 1.078 4.038-.841 5.558-1.422 1.126-3.953-.468-5.374.658-1.365 1.081.092 4.44-1.026 5.558-1.764 1.763-3.554-.6-5.374.842-.859.68-.263 4.827-.842 5.558-.533.673-1.28.506-2.231.513-.989.007-2.528-.304-3.327.329-2.09 1.656.806 3.72-1.026 5.514-1.698 1.661-3.585-.53-5.374.886-.986.78-.15 4.29-1.026 5.33-1.46 1.73-3.874-.007-5.786.934-1.4.69-1.29 7.833-.228 8.894.702.702 1.871.55 3.007.5.954-.04 1.616-.214 2.56-.278 2.312-.159 5.29-.013 7.68-.03.888-.005 2.042.03 2.55-.74.88-1.333.037-2.32-1.277-2.44-3.435-.313-7.098.276-10.547-.038-1.41-.128-2.09-1.74-1.093-2.532 1.06-.842 3.1-.329 4.607-.329 3.325 0 6.08-.32 9.6-.32 1.37 0 4.618.594 5.24-1.007.58-1.493-.821-2.134-2.04-2.187-2.954-.128-6.383.437-9.262-.053-1.146-.196-1.682-1.22-1.105-2.411.529-1.092 2.518-.742 3.647-.742h10.56c1.203 0 3.95.534 4.376-1.007.953-3.44-7.517-2.189-9.496-2.193-1.3-.003-3.215-.113-2.772-1.874.34-1.359 1.815-1.005 3.092-1.006 3.686-.002 7.524.043 11.2 0 1.272-.016 4.275.354 4.692-1.327.471-1.905-1.526-2.19-3.092-2.193-2.3-.004-3.81.323-6.08.32-1.465-.002-3.316.191-3.454-1.608-.171-2.234 2.855-1.592 4.094-1.592 3.445 0 9.293.147 12.8-.006 1.218-.053 3.104-1.153 1.91-2.68-1.165-1.491-5.594-.514-7.67-.514-1.163 0-3.618.552-4.471-.742-.937-1.42.254-2.393 1.592-2.452 3.331-.147 7.576.063 10.559-.23.756-.075 2.58-.277 3.19.441.994 1.167.534 6.272.282 7.768-.534 3.18-4.478.11-6.024 2.12-1.04 1.355.54 3.55-.657 5.062-.964 1.217-4.822-.136-5.743 1.026-.903 1.14.405 4.033-.657 5.374-1.014 1.28-4.483-.01-5.558.842-1.987 1.573.318 3.247-.706 5.33-.63 1.28-8.61-.033-5.879 3.428.836 1.059 3.903.513 5.112.513h14.4c1.7 0 5.227.42 5.652-1.321.512-2.1-2-1.879-3.412-1.879h-9.28c-1.185 0-2.95.264-3.147-1.297-.275-2.195 1.947-1.903 3.467-1.903h9.28c1.286 0 2.723.34 3.096-1.007.305-1.101-.132-1.964-1.195-2.146-1.615-.275-9.907 1.21-8.108-2.505 1.086-2.244 7.094.355 8.894-1.07.675-.536.677-2.004 0-2.543-.685-.545-1.772-.098-2.359-.842-.538-.683-.403-2.092.413-2.494 1.477-.726 6.005-.518 7.56-.091.774.212 1.174.714 1.232 1.498.06.791-.264 1.282-.94 1.5-1.092.35-3.273 1.002-1.865 2.787 1.617 2.048 8.772-1.51 9.021 2.113.245 3.554-10.943-.488-9.155 3.793.46 1.102 1.631 1 2.686 1.007 2.884.02 6.086 0 8.96 0 1.186 0 3.773-.54 3.916 1.006.159 1.721-1.342 1.988-2.636 2.012-3.63.069-7.523.026-11.199.188-1.291.057-2.295.845-1.727 2.186.63 1.484 4.067.688 5.566.688h14.08c1.368 0 4.21.534 5.246-.513.644-.65.521-1.857-.228-2.358-1.42-.95-4.213.568-5.33-.842-1.148-1.45.723-4.795-1.336-5.694-1.275-.557-3.917.313-4.88-.485-1.789-1.482.796-4.016-1.025-5.46-1.084-.857-4.548.435-5.559-.841-1.278-1.614.587-3.803-.657-5.374-.983-1.241-3.99-.047-5.33-.706-1.665-.82-.878-7.86-.421-9.407 1.915.418 7.616.414 10.24.308 1.276-.052 4.156-1.044 5.11.434 1.103 1.71-.94 2.432-2.23 2.457-2.028.038-11.102-1.292-10.137 2.194.44 1.587 3.456 1.007 4.697 1.007 1.375 0 2.908.203 4.16.174 2.528-.057 7.055-1.183 9.498.02 1.059.52.958 2.342 0 2.813-1.432.705-4.367.193-5.978.193-1.997 0-4.156-.249-6.08.32.127.736-.118 2.03.517 2.551.815.67 2.66.33 3.643.33h9.6c1.179 0 4.309-.566 4.925.74.974 2.067-1.736 2.343-3.005 2.43-1.785.123-5.167-.005-7.04.03-1.268.025-2.759.485-2.046 2.192.583 1.394 2.152 1.007 3.646 1.007h10.56c1.252 0 4.065-.404 4.605.742.81 1.72-.959 2.128-2.365 2.138-2.55.017-4.336.319-6.72.32-1.544 0-3.966-.374-3.412 1.874.37 1.507 2.911 1.232 4.052 1.299.905.052 1.595.065 2.56-.027 3.214-.306 6.213-.16 9.28-.099.96.02 1.911-.32 2.64.576.649.796.56 1.821-.448 2.264-2.968 1.304-7.34-.571-10.494.295-1.178.323-1.88 2.254-.557 2.905 1.217.6 3.37.193 4.699.193h4.16c1.771 0 4.267.862 5.658-.057.755-.5.725-1.384.74-2.183.029-1.508.114-3.987-.017-5.434-.175-1.918-1.523-1.54-2.861-1.635-.881-.062-2.164.065-3.007-.619-1.81-1.466.558-3.36-.842-5.251-1.068-1.441-4.712-.645-6.391-1.14.303-1.905.859-5.518-1.607-5.742-1.458-.133-3.639.443-4.28-1.026-.812-1.859.862-3.822-.707-5.064-1.082-.858-4.538.445-5.558-.842-1.441-1.82.84-3.764-1.07-5.374-1.334-1.123-4.32.41-5.33-.963-1.166-1.588.495-3.662-.657-5.117-1.27-1.603-3.778.074-5.33-.935-1.173-.762-.39-4.131-.935-5.236-.75-1.526-2.904-.513-4.6-.79-.784-.127-1.28-.43-1.505-1.25-.376-1.37-.705-6.612.227-7.789.679-.856 2.558-.513 3.512-.513h9.28c1.292.003 2.842-.109 2.842 1.6 0 2.737-7.914 1.596-9.882 1.6-1.484.003-3.348.13-2.777 2.193.378 1.367 2.336 1.007 3.417 1.007h11.2c1.203 0 3.95-.533 4.376 1.007.44 1.589-.534 2.13-1.818 2.187-2.353.104-5.576 0-7.998.006-1.43.003-3.562.096-2.686 2.193.527 1.262 2.235 1.006 3.326 1.007h10.88c1.14 0 4.008-.527 4.605.741.788 1.676-.838 2.369-2.046 2.445-2.007.126-6.313.008-8.32.008-1.256 0-2.774.447-2.045 2.199.553 1.329 1.942 1.007 3.326 1.007h11.2c1.185 0 3.761-.371 4.285.742a1.61 1.61 0 0 1-.813 2.176c-2.282.997-6.292.324-8.912.278-1.29-.023-3.289-.203-2.772 1.877.393 1.587 3.483 1.007 4.692 1.007 2.365 0 5.025-.09 7.36.013 1.08.047 1.808.265 2.88.287 1.107.021 2.701-.668 3.647.225 1.082 1.022.31 2.529-1.094 2.657-3.063.278-6.198-.111-9.272.024-1.294.058-2.287.847-1.727 2.187.582 1.394 2.247 1.007 3.646 1.007h4.16c1.92 0 6.194.78 7.487-.513 1.05-1.05 1.132-7.541 0-8.438-1.861-1.473-4.147 1.046-5.559-1.07-.589-.884-.322-2.102-.329-3.099-.006-.805.127-1.725-.512-2.23-.646-.512-1.516-.303-2.367-.342-.932-.043-2.214.027-3.007-.632-1.248-1.036.173-4.477-1.026-5.427-1.66-1.315-4.284.839-5.559-1.07-.777-1.166.421-4.33-.841-5.33-1.422-1.126-3.953.468-5.374-.658-1.825-1.444.574-3.77-.842-5.558-1.054-1.33-4.25.194-5.558-.842-1.493-1.182.28-4.141-.842-5.558-1.073-1.355-3.91-.007-5.33-.706-1.568-.772-.238-4.323-1.07-5.374-.904-1.141-2.944-.296-4.465-.586-2.516-.479-1.607-4.156-1.606-6.327 0-.837-.24-2.275.513-2.87.783-.622 2.395-.33 3.327-.33h8.32c.93 0 2.543-.292 3.327.33.759.6.65 2.245-.23 2.677-1.358.669-3.848.193-5.337.193-1.595 0-3.205-.064-4.799.006-1.367.06-2.68 1.303-1.593 2.681.706.894 2.81.513 3.832.513h10.88c1.334 0 3.668-.523 4.052 1.006.723 2.879-6.387 1.8-7.892 1.903-.924.063-1.6.22-2.56.28-1.138.072-2.858.426-2.046 2.15.597 1.265 3.471.741 4.606.741 4.092 0 7.652.073 11.52.223 1.015.04 2.225-.23 2.685.808.764 1.723-1.02 2.16-2.365 2.169-2.873.02-6.11-.435-8.942.048-1.126.191-1.606 1.375-1.105 2.41.593 1.225 3.183.742 4.287.742h10.88c1.014 0 3.1-.388 3.646.742.932 1.924-.926 2.448-2.366 2.458-2.031.014-11.098-1.277-10.137 2.193.427 1.54 3.173 1.007 4.377 1.007h11.2c1.342 0 3.02-.427 3.416 1.007.337 1.217-.258 2.06-1.503 2.174-2.141.195-11.552-1.359-11.14 1.922.185 1.472 1.759 1.295 2.827 1.297 3.048.006 5.308 0 8.64 0 1.264 0 2.779.311 3.738-.329 1.335-.89 1.222-6.304.64-8.264-.664-2.235-4.627.175-5.97-1.52-1.043-1.318.008-3.402-.43-4.88-.677-2.28-4.605.202-5.97-1.52-1.017-1.285.309-3.791-.657-5.059-1.2-1.572-3.915-.112-5.238-1.157-1.425-1.126.214-4.186-1.346-5.422-1.407-1.114-3.996.517-5.347-.658-1.349-1.174.213-4.191-.87-5.558-1.182-1.493-4.14.28-5.557-.842-1.355-1.073-.007-3.909-.706-5.33-.738-1.499-3.998-.37-5.146-.934-1.745-.859-.348-3.132-.88-4.908-.653-2.18-4.113-.643-5.84-1.492-1.275-.628-1.256-7.51-.413-8.574.64-.807 2.295-.513 3.192-.513h9.28c1.042 0 2.788-.267 3.199 1.007.447 1.386-.795 2.075-1.92 2.174-2.258.2-6.013.003-8.32.02-1.146.007-3.659.53-2.23 2.366.944 1.215 3.482.545 4.79.518 3.587-.077 6.551.155 9.92.302 1.358.06 3.979-.55 4.373 1.019.333 1.328-.608 1.815-1.814 1.868-3.168.14-6.431-.263-9.592.025-1.256.114-2.018 1.19-1.413 2.44.631 1.303 3.74.74 4.927.74 3.288 0 5.856.32 9.28.32 1.544 0 3.922-.717 4.605.743.746 1.593-.793 2.397-2.046 2.452-2.394.104-6.288-.092-8.638.012-1.147.05-2.436.628-1.727 2.132.577 1.225 3.193.742 4.286.742h10.88c1.014 0 3.1-.388 3.646.742.935 1.93-.917 2.448-2.366 2.458-2.013.014-11.099-1.28-10.137 2.193.427 1.54 3.173 1.007 4.377 1.007h11.2c1.08 0 3.038-.36 3.416 1.007.668 2.412-1.935 2.193-3.416 2.193h-2.24c-1.438 0-6.487-.793-6.932 1.007-.357 1.44.658 2.072 1.813 2.174 3.213.285 8.203.08 11.519.017 1.205-.022 2.125-.087 2.458-1.297.53-1.927.186-4.316.095-6.38-.044-1.017-.177-1.684-1.292-1.874-1.383-.235-3.573.455-4.588-.56-1.1-1.1.016-3.97-.842-5.054-1.702-2.149-4.044 1.06-5.742-1.318-.758-1.06-.536-4.056-.33-5.275-1.473-.436-4.094-.01-5.338-.779-1.463-.906-.497-2.93-.789-4.642-.453-2.66-3.716-.363-5.61-1.628-.72-.48-.97-1.646-.413-2.358.795-1.018 3.804-.513 5.11-.513 3.621 0 7.262-.026 10.88 0 1.768.014 2.724.203 4.48.08 1.254-.086 3.28-.368 4.152.753.879 1.13-.226 2.3-1.593 2.36-2.871.127-6.12.007-8.958.007-.912 0-1.66-.006-2.56 0-1.064.007-2.624-.098-2.494 1.592.128 1.68 1.761 1.6 3.134 1.607 3.084.017 6.193 0 9.28 0 .956 0 2.543-.307 3.19.514.901 1.14.09 2.544-1.277 2.668-1.912.174-7.552-1.03-7.699 1.61-.088 1.603 1.37 1.59 2.586 1.607 1.44.02 3.394-.054 4.798.007.84.037 1.587.087 1.814 1.001.502 2.029-1.35 1.992-3.092 2.513l.16 1.44c.755 1.572 3.823 1.303 5.28 1.25 1.05-.038 3.413.3 3.965-.871.76-1.614-.948-1.833-1.956-2.33-.753-.371-1.381-1.609-.716-2.496 1.07-1.425 5.169-.438 7.026-.519 1.279-.056 2.529-.588 2.133-2.187-.41-1.654-3.646-.994-4.692-.97-1.343.031-5.182.34-4.68-2.23.262-1.342 1.942-1.006 3.08-1.007 3.372-.002 8.283.782 11.5-.101 1.303-.358 1.96-2.502.292-2.997-2.062-.612-6.133-.102-8.272-.102-1.864 0-4.777.255-6.72-.32.225-.73.097-1.894 1.061-2.367 1.363-.668 3.837-.193 5.339-.193h12.8c1.782 0 5.744-1.306 6.296.687.247.89-.013 1.827-.904 2.092-1.278.379-4.465-.649-5.2.843-.8 1.627.676 4.255-.934 5.33-1.172.782-4.332-.419-5.33.841-.813 1.028.004 4.17-.656 5.146-1.417 2.093-4.286-.586-5.743 1.254-1.068 1.348.645 4.176-.551 5.238-1.374 1.22-4.217-.489-5.665.658-.998.79-.513 3.47-.513 4.471 0 1.255-.401 2.433.193 3.793.848 1.943 7.147 1.007 9.407 1.007 1.201 0 2.008.002 3.2 0 1.333-.003 3.053.102 3.053-1.6 0-1.608-1.81-1.597-3.053-1.6-2.572-.005-5.331.19-7.679-.019-1.099-.097-1.951-.633-1.855-1.883.143-1.869 3.134-1.298 4.414-1.298h11.2c1.416 0 3.043.292 3.412-1.297.273-1.178-.353-1.78-1.499-1.884-2.003-.182-3.496-.019-5.753-.019-1.568 0-5.577.748-5.374-1.902.147-1.919 2.61-1.163 3.774-1.097.914.052 1.637-.125 2.56-.09 2.811.109 4.97.21 8 .21 1.389 0 4.059.177 4.605-1.05.36-.808.091-1.78-.813-2.049-2.433-.722-6.726.013-9.232-.115-1.06-.053-2.384-.173-2.494-1.598-.166-2.135 2.482-1.589 4.094-1.589 3.838 0 7.681.008 11.52 0 1.384-.003 2.748.185 3.092-1.297.344-1.485-.716-1.848-1.814-1.897-2.124-.093-5.857.033-7.998-.008-1.473-.027-1.941-1.112-2.358-3.287l14.198.089c1.675.01 3.932.597 4.372-1.297.638-2.752-3.74-1.903-5.012-1.903-2.035 0-4.36.49-6.353-.102-.914-.271-1.162-1.16-.904-2.09.373-1.348 1.81-1.008 3.097-1.008h8.96c1.107 0 2.825-.315 3.503.742.887 1.383.348 4.271.336 5.978-.006.89.065 1.965-.741 2.503-.824.55-1.734.373-2.778.377-.781.003-2.014-.166-2.551.513-.679.856-.31 2.194-.33 3.327-.016.794.004 1.686-.741 2.183-1.468.98-4.293-.503-5.33.853-1.108 1.45.368 3.796-.657 5.09-.83 1.048-4.527.026-5.558.843-1.569 1.242.462 3.911-.842 5.558-1.379 1.74-4.33-.756-5.742 1.026-1.026 1.294.26 3.775-.658 5.108-1.543 2.242-3.573-.465-5.558 1.108-.609.482-.5 1.272-.512 1.911-.021 1.143.33 2.842-.514 3.511-.893.707-4.45-.074-5.374.658-1.327 1.05-.264 3.03-.56 4.772-.374 2.192-4.096.746-5.612 1.492-.865.426-.734 1.339-.741 2.367-.011 1.621-.74 4.698.329 6.298.842 1.263 2.63.742 4.15.742h11.52l-.32-2.56c-1.738-1.317-5.24-.64-7.36-.64-1.249 0-3.232.371-4.378-.193-1.128-.555-.901-2.558.266-2.905 3.898-1.157 9.639-.102 13.713-.102 1.147 0 3.783.474 4.194-1.007.513-1.855-1.245-2.183-2.594-2.192-1.863-.013-8.389 1.01-9.592-.514-1.893-2.398 1.864-2.687 3.192-2.687 5.226 0 15.14.925 15.454-.475-.467-3.24-6.012-2.725-8.734-2.725-1.023 0-3.466.406-3.704-1.006-.386-2.293 2.438-1.874 4.024-1.874h11.2c1.384 0 2.77.321 3.325-1.007.713-1.707-.778-2.167-2.046-2.191-2.228-.042-5.815.122-8-.016-1.23-.077-2.818-.8-2.045-2.444.555-1.18 2.918-.742 3.966-.742h9.92c1.559 0 4.553.647 4.876-1.297.257-1.548-1.093-1.878-2.317-1.901-2.82-.054-5.836.234-8.633-.02-1.157-.106-1.697-.74-1.553-1.884.256-2.034 3.079-1.298 4.747-1.298 4.063 0 10.968-1.759 11.187 3.2.078 1.755.547 4.416-.5 5.659-1.833 2.174-4.19-.877-5.879 1.254-.827 1.045.4 4.255-.841 5.238-1.417 1.122-4.376-.65-5.559.842-1.125 1.422.469 3.953-.657 5.374-1.199 1.513-4.181-.35-5.558 1.026-1.365 1.365.292 3.942-.842 5.374-.984 1.242-4.194.015-5.238.842-1.627 1.288.37 3.513-.842 5.33-1.157 1.733-4.107-.08-5.558 1.07-1.499 1.187.297 3.649-.842 5.292-1.19 1.718-4.009-.15-5.558 1.107-1.592 1.29.342 4.175-1.026 5.515-1.34 1.312-3.458-.08-5.146.75-1.235.608-1.251 7.515-.413 8.574.637.804 2.28.513 3.192.513 3.065 0 6.224.006 9.28 0 1.157-.002 2.801.222 3.08-1.297.221-1.215-.712-1.787-1.802-1.884-2.95-.262-5.997.106-8.957-.025-1.33-.059-2.028-.618-1.868-1.896.231-1.84 2.57-1.298 4.107-1.298h10.88c1.145 0 3.127.374 3.826-.741.993-1.584-.873-2.432-2.227-2.457-2.82-.053-5.836.234-8.633-.02-1.097-.1-1.791-.692-1.498-1.856.401-1.6 3.445-1.006 4.692-1.006 3.625 0 7.254.006 10.88 0 1.063-.002 2.566.133 3.19-.778 1.074-1.566-.115-2.67-1.592-2.736-4.276-.188-11.763.753-11.038-.806.655-2.291 2.873-2.08 4.64-2.08h10.88c1.384 0 2.77.321 3.325-1.007.713-1.707-.778-2.167-2.046-2.191-2.159-.041-5.9.036-8-.003-1.283-.025-3.091-.536-2.337-2.457.52-1.324 3.565-.742 4.578-.742 3.644 0 8.167.068 11.84 0 1.257-.024 2.385-.157 2.493-1.6.12-1.602-1.243-1.59-2.493-1.599-2.488-.017-7.637 1.074-9.407-.33-.499-.394-.582-1.243-.41-1.863.389-1.404 2.22-1.007 3.417-1.007 2.973 0 8.558-.669 11.152.101 1.672.497 1.2 6.415.96 7.893-.437 2.686-3.272 1.092-5.345 1.707-2.203.655.145 4.331-1.52 5.65-1.417 1.122-4.376-.651-5.559.842-1.125 1.421.469 3.952-.657 5.374-1.244 1.57-4.506-.55-5.742 1.026-1.05 1.337.472 3.96-.658 5.374-1.163 1.454-4.342-.338-5.423 1.026-1.024 1.294.653 4.408-1.07 5.558-1.428.953-4.193-.593-5.33.842-1.34 1.692.838 3.765-.841 5.31-.7.643-2.115.547-3.007.545-.749-.002-1.727-.369-2.367.07-1.865 1.274.6 3.707-.842 5.529-.94 1.187-3.936.052-5.342.706-.975.453-1.055 1.764-1.016 2.687.083 1.988-.472 4.044.48 5.978.52 1.057 2.152.742 3.327.742 3.304 0 6.616.06 9.92-.001 1.128-.022 2.48-.205 2.44-1.599-.05-1.688-1.805-1.597-3.08-1.6-2.264-.005-6.867.787-8.859-.193-.58-.286-.704-.806-.704-1.407 0-.85.324-1.434 1.261-1.524.93-.088 1.581.208 2.542.223 1.26.02 2.272-.217 3.52-.197 1.112.018 2.044.206 3.2.194 1.187-.012 1.95-.266 3.2-.29 1.39-.028 2.304.348 3.513.238.814-.074 1.31-.47 1.503-1.222.907-3.542-7.206-2.055-9.176-2.081-1.164-.015-3.012.124-3.134-1.433-.164-2.079 2.938-1.588 4.414-1.588h10.24c1.746 0 3.858.46 4.106-1.604.153-1.275-.454-1.634-1.553-1.734-2.94-.268-6.971.575-9.866-.284-1.252-.37-.991-1.368-1.327-2.458 1.728-.51 2.824-.32 4.48-.32h10.24c1.756 0 5.124.508 4.376-2.193-.325-1.175-1.513-1-2.456-1.007-2.02-.013-4.973.01-7.04 0-1.327-.007-4.001-.341-3.006-2.458.547-1.162 2.086-.742 3.326-.742h11.52c1.72 0 4.675.325 4.052-2.193-.3-1.21-1.812-1.005-2.772-1.007-2.04-.004-10.26 1.222-9.867-1.903.198-1.573 1.962-1.296 3.147-1.297h8.96c.93 0 2.543-.292 3.327.33 1.262.999.984 8.132-.23 8.941-1.696 1.133-4.044-.78-5.329.842-.917 1.159.481 4.19-.841 5.238-1.405 1.112-4.405-.597-5.559.843-1.01 1.261.271 4.56-.841 5.649-1.498 1.466-3.816-.348-5.374.886-1.149.91.135 4.004-.842 5.238-.894 1.128-3.565.265-4.744.615-1.1.327-1.646 1.856-.494 2.77.943.747 3.966.328 5.247.328h14.4c1.545 0 5.082.727 5.082-1.6 0-1.71-1.546-1.597-2.842-1.6-3.074-.006-6.201 0-9.28 0-1.35 0-3.957.202-3.678-1.875.176-1.315 1.595-1.09 2.718-1.182 2.902-.238 6.507-.143 9.6-.143.966 0 2.806.333 3.326-.742 1.747-3.607-6.156-2.327-7.8-2.477-1.275-.116-2.21-1.486-1.278-2.668 1.559-1.973 6.826.633 8.781-.842.754-.568.555-1.726-.08-2.358-.62-.617-1.438-.294-2.116-.841-1.764-1.424.57-2.528 1.727-2.55 1.978-.038 6.743-1.02 7.252 1.004.528 2.103-4.803 1.978-2.763 4.561 1.115 1.413 6.009.381 7.664.532 1.036.094 1.57.538 1.57 1.581 0 2.684-5.323 1.564-7.323 1.602-1.405.026-2.873.75-2.047 2.456.49 1.013 2.092.742 3.007.742h9.28c1.29 0 3.425-.191 3.425 1.592 0 1.65-1.922 1.602-3.105 1.608-3.007.016-6.268 0-9.28 0-1.379 0-3.915-.264-3.412 1.903.287 1.24 1.413 1.276 2.452 1.296 5.674.106 11.066 0 16.96 0 1.512 0 5.194.783 5.882-.741.385-.854-.04-1.907-.835-2.265-1.305-.589-4.051.54-5.038-.706-1.122-1.417.65-4.376-.842-5.558-1.21-.96-4.294.197-5.374-.658-1.804-1.428.777-4.314-1.026-5.742-1.08-.856-4.164.3-5.374-.658-.806-.639-.513-2.29-.513-3.991-1.089-2.48-3.537-1.43-5.102-1.9-1.706-.51-1.943-7.016-1.105-8.719.528-1.073 2.355-.742 3.327-.742h8.96c1.01 0 2.574-.267 3.19.513.66.836.35 2.12-.412 2.494-2.253 1.109-7.17.145-9.818.195-1.306.024-3.322 1.087-1.727 2.685.929.932 2.566.513 3.967.513H168c1.224 0 4.297-.572 4.692 1.006.523 2.097-1.639 2.186-3.092 2.194-2.944.016-5.987-.672-8.593.102-.768.228-1.11.938-.9 1.772.434 1.725 2.725 1.256 4.053 1.314 3.071.134 7.077.012 10.24.012 1.24 0 4.31-.515 4.692 1.006.777 3.095-7.775 1.848-9.812 1.878-1.467.021-3.33.193-2.777 2.19.447 1.611 3.754 1.144 5.017 1.206.966.048 1.896-.171 2.88-.195 2.624-.064 5.364-.01 8-.005.86.002 2.23-.2 2.686.742.932 1.925-.926 2.448-2.366 2.458-2.02.014-10.767-1.236-9.817 2.193.426 1.538 3.171 1.007 4.377 1.007h10.24c1.056 0 2.821-.314 3.647.513 1.109 1.112.244 2.547-1.094 2.668-3.241.295-6.686-.48-9.895.066-1.564.267-1.694 2.347-.291 2.96.955.417 4.58.193 6.033.193h5.44c.804 0 1.736.146 2.512-.193 1.649-.72 1.584-7.102.815-8.665-.897-1.822-4.886.16-5.694-1.484-1.097-2.228.898-5.103-2.433-5.338-2.3-.25-3.933.37-4.142-1.925-.129-1.423.44-2.99-.531-3.961-1.682-1.681-3.652.696-5.374-1.026-.901-.901-.005-4.75-1.026-5.558-1.978-1.567-4.086 1.136-5.558-1.071-1.222-1.831.719-3.407-.658-5.145-.824-1.04-4.919.013-5.742-1.026-1.097-1.385.438-3.99-.658-5.374-.94-1.186-4.279.171-5.558-.842-1.187-.94-.145-3.869-.706-5.01-1.017-2.065-3.63.106-5.466-1.119-1.252-.835-1.324-7.89.05-8.893.887-.649 2.652-.33 3.689-.33 3.263 0 6.664-.277 9.913.02 1.117.1 1.7.719 1.553 1.883-.198 1.573-1.962 1.297-3.146 1.297-1.685.001-8.616-.945-9.406.742-.944 2.017 1.262 2.448 2.686 2.458 3.616.025 7.26 0 10.88 0 1.356 0 3.271-.243 4.432.102 2.897.86-.352 3.062-2.192 3.098h-4.48c-1.19 0-2.988-.334-4.059.193-1.349.664-.73 2.67.557 2.922 3.822.747 9.406.085 13.422.085 1.445 0 3.65-.594 4.052 1.006.387 1.541-1.152 1.865-2.452 1.874-2.78.019-6.566-.69-9.233.102-1.061.315-1.245 1.819-.678 2.614.702.986 1.974.798 3.19.804 3.618.017 7.261 0 10.88 0 1.225 0 4.298-.567 4.693 1.006.25.997-.229 1.663-1.191 1.827-2.582.44-5.963.041-8.621.047-1.466.003-3.718.329-2.687 2.458.546 1.129 2.633.742 3.647.742h10.56c1.172 0 3.99-.534 4.372 1.007.837 3.38-7.557 2.189-9.492 2.193-1.223.003-2.94-.085-2.814 1.6.097 1.297 1.058 1.545 2.174 1.594 2.886.126 6.339.006 9.28.006 1.19 0 2.519.27 3.418-.33 1.666-1.111 1.477-8.555-.557-8.903-1.6-.273-4.18.278-4.68-1.378-.368-1.22.402-4.57-1.163-5.142-1.929-.703-3.157 1.228-4.825-.44-.763-.763-.506-2.26-.514-3.327-.005-.763.113-1.736-.512-2.231-1.69-1.338-3.682.85-5.374-.842-1.572-1.572.602-3.55-.842-5.374-.802-1.012-4.135-.119-5.33-.706-1.958-.964-.035-3.637-.934-5.465-.697-1.417-4.917-.041-5.878-1.255-1.143-1.443.29-3.493-.522-5.145-.63-1.281-3.575-.457-4.88-.844-.901-.267-.963-.948-1.001-1.82-.049-1.1.359-2.769-.335-3.645-1.33-1.678-4.046.486-5.558-1.026-1.133-1.133-.909-6.404-.412-8.08.385-1.296 1.783-1.007 3.099-1.007 2.9-.001 6.28.179 8.96.027 1.118-.063 3.328-.363 3.453 1.27.1 1.302-.745 1.786-1.855 1.884-2.09.185-5.512.018-7.678.019-1.37 0-3.163-.308-3.163 1.6 0 1.945 2.104 1.6 3.483 1.6h11.2c1.175 0 3.991-.53 4.372 1.007.397 1.604-.858 2.131-2.133 2.187-2.173.094-10.717-1.277-10.493 1.594.136 1.74 2.875 1.525 4.414 1.537 1.5.01 2.518-.182 4.16-.154 2.349.041 4.138.229 6.72.229 1.298 0 3.062-.495 3.645.741.786 1.669-1.058 2.13-2.365 2.139-1.997.013-10.203-1.156-10.203 1.6 0 2.202 2.96 1.6 4.443 1.6h10.56c1.117 0 3.148-.353 3.83.513.808 1.023.352 2.28-.678 2.585-2.489.739-7.169-.011-9.87.108-1.341.06-2.219.744-1.82 2.187.435 1.569 3.405 1.007 4.698 1.007 4.348 0 9.91-.913 14.08.32-.153.882.253 2.19-.743 2.687-2.101 1.05-6.517.188-8.857.193-1.092.002-2.702-.167-2.814 1.297-.112 1.466.946 1.843 2.174 1.897 3.31.144 7.212.029 10.56.006 1.203-.008 2.207.09 2.687-1.008.508-1.165.803-7.374-.32-8.263-1.235-.978-4.329.306-5.238-.842-1.097-1.385.438-3.99-.658-5.374-.778-.983-4.608-.09-5.558-.842-1.528-1.21-.242-4.07-.833-6.071-1.639.39-4.817.978-5.751-.422-.627-.94-.309-2.256-.33-3.418-.015-.753.048-1.659-.741-2.047-1.304-.642-4.376.495-5.33-.935-.995-1.491.536-4.238-.841-5.33-1.456-1.152-4.002.53-5.374-.841-1.197-1.197.246-4.653-1.255-5.418-1.938-.988-3.353.43-4.825-.793-1.996-1.658 1.029-3.8-1.026-5.427-1.426-1.13-3.729.287-5.146-.658-1.39-.927-1.37-7.973.037-8.942.866-.596 2.389-.33 3.382-.33 2.847 0 8.274-.657 10.832.103 1.052.312 1.483 1.566.679 2.585-.575.727-1.92.512-2.871.513-2.632 0-5.374-.22-7.994.019-1.45.132-2.069 1.69-1.093 2.668.946.949 2.638.513 3.967.513h10.56c1.423 0 3.561-.495 3.786 1.297.392 3.118-7.826 1.899-9.866 1.903-1.577.003-3.327.33-2.549 2.193.586 1.402 2.072 1.007 3.509 1.007h11.2c1.477 0 3.653-.603 4.052 1.007.428 1.728-1.09 2.166-2.452 2.191-1.97.037-4.159.025-6.08-.06-1.017-.044-2.114-.437-3.148-.152-.871.24-.862 1.068-.693 1.797.418 1.8 2.979 1.275 4.48 1.297l11.02.163c1.975.03 3.443-.145 4 1.6.653 2.16-7.848 1.431-10.54 1.437-1.483.003-3.347.13-2.776 2.193.397 1.432 2.613 1.007 3.737 1.007h11.2c1.66 0 4.286-.395 3.997 1.903-.193 1.54-2.223 1.296-3.357 1.297-2.759 0-4.205-.017-6.72 0-1.312.01-2.727.149-2.507 1.903.21 1.664 2.24 1.297 3.467 1.297 3.083 0 6.2.006 9.28 0 1.119-.002 2.49.035 2.962-1.007.718-1.588 1.094-7.18-.275-8.264-1.068-.846-4.245.455-4.916-.908-.674-1.371-.097-4.073-1.484-5.172-1.656-1.311-3.91.621-5.374-.842-1.385-1.385.48-3.704-.842-5.374-.848-1.07-4.538-.034-5.558-.842-1.752-1.387.518-3.841-.842-5.558-.94-1.186-4.28.172-5.558-.842-.672-.532-.672-2.01 0-2.542 1.375-1.09 4.431-.149 5.887-.113 4.384.107 8.868.104 13.44.104 1.417 0 5.539-.673 5.693 1.293.058.727-.207 1.255-.94 1.535-2.823 1.074-8.007.052-11.153.052-1.168 0-3.7-.444-3.733 1.297-.035 1.877 1.66 1.9 3.093 1.903 3.048.006 5.777 0 8.96 0 .992 0 2.905-.262 3.51.513.697.89.157 2.276-.97 2.585-2.155.592-8.263-1.232-8.263 1.702 0 3.423 7.337.569 9.05 1.929 2.294 1.822-1.821 2.837-3.007 3.19.26 1.037.155 2.112 1.327 2.46 2.042.604 3.877.404 5.713.415 1.084.006 1.97-.054 2.365-1.001.432-1.033-.002-1.779-.811-2.11-.835-.341-2.992-1.659-1.361-2.954 1.301-1.034 4.925-.265 6.526-.335 1.044-.046 1.88-.205 2.133-1.291.305-1.316-.49-1.792-1.499-1.884-1.726-.157-5.301.59-6.932-.212-.876-.431-.953-1.809-.413-2.494.761-.964 2.406-.513 3.512-.513h8.96c1 0 2.526.312 3.002-.742.795-1.762-1.206-2.448-2.682-2.458-3.77-.026-7.778.418-11.514.026-1.173-.123-1.973-.975-1.412-2.165.705-1.496 5.43-.741 6.846-.741 3.103 0 6.53.07 9.6-.005 1.05-.026 1.847-.258 2.88-.258.963 0 1.617.222 2.56.246.768.018 1.749-.268 2.446.128 1.056.602.609 1.605.754 2.449-1.623.48-5.09-.468-5.892 1.061-.464.885.024 4.502-1.021 5.33-1.548 1.226-4.275-.78-5.559.842-1.262 1.594.61 3.922-.841 5.373-1.676 1.676-4.317-.825-5.504 1.027-.823 1.283.58 3.123-.256 4.825-.753 1.528-4.898.017-5.879 1.255-.914 1.155-.332 4.201-.328 5.887.002.87-.173 2.001.513 2.686.816.817 2.143.514 3.327.514h7.36c1.141 0 2.42.266 3.472-.194 1.291-.563 1.322-2.684-.291-2.959-1.946-.331-4.74-.047-6.701-.047-1.414 0-2.052.32-3.473-.102-.81-.24-1.816-2.142-.266-2.905.941-.463 2.964-.193 4.059-.193h9.92c1.532 0 3.87.584 4.106-1.298.144-1.15-.407-1.78-1.553-1.884-3.014-.274-6.235.11-9.272-.025-1.234-.054-2.328-.838-1.727-2.133.812-1.75 6.539-.79 8.126-.797 1.063-.005 1.73-.268 2.88-.246 1.217.023 1.973.281 3.2.297 1.285.016 2.034-.116 3.193-.305.97-.157 1.47-.412 1.54-1.303.163-2.085-4.002-1.539-5.373-1.599-.808-.035-1.427-.203-2.24-.224-1.184-.032-1.926.314-3.199.217-2.023-.155-1.812-1.142-2.241-2.86 3.742-.91 10.572-.32 14.72-.32 1.765 0 3.897.356 4.8-1.28l-.32-1.92h-5.44c-1.653 0-2.37.003-3.84 0-1.183-.002-2.256.19-2.871-.742-.477-.723-.357-2.05.678-2.357 3.836-1.139 9.684-.101 13.713-.101 1.293 0 4.009.5 4.28-1.298.342-2.258-2.542-1.902-3.96-1.902-2.293 0-5.105.333-7.342-.048-1.698-.29-1.378-1.796-.978-3.152 2.195.522 8.52.438 11.52.307.997-.044 2.098-.569 3.098-.11 1.163.535.702 2.977.796 3.963.098 1.03.27 1.762.263 2.88-.005.708.032 1.28-.326 1.818-.631.946-4.852.511-5.558 1.07-2.09 1.656.97 3.71-1.026 5.487-.824.732-2.39.536-3.327.556-.762.017-1.488-.135-2.047.332-1.243 1.036.217 3.926-.842 5.264-1.081 1.364-5.07-.296-5.883 1.254-.93 1.771.81 4.608-.93 5.466-1.244.613-4.769-.481-5.465.934-.863 1.753.683 3.741-.706 5.101-1.69 1.655-3.64-.487-5.374.887-1.149.909.135 4.003-.842 5.238-1.074 1.355-3.91.006-5.33.706-1.642.81.052 4.29-1.07 5.694-1.074 1.343-4.437-.22-5.423 1.026-.639.807-.316 2.175-.33 3.327-.02 1.645-1.403 4.212.423 5.43.9.6 2.23.33 3.419.33 3.095 0 6.54.127 9.6-.006 1.144-.05 2.077-.308 2.173-1.594.126-1.675-1.59-1.598-2.813-1.6-2.006-.004-10.773 1.26-9.817-2.193.378-1.367 2.336-1.007 3.417-1.007H216c.993 0 3.794.486 4.195-.742 1.228-3.762-7.973-2.445-9.955-2.458-1.44-.01-3.3-.534-2.367-2.458.593-1.225 3.183-.742 4.287-.742h10.88c1.17 0 3.103.452 3.642-.742.477-1.057-.262-2.22-1.416-2.41-2.713-.45-5.869-.03-8.626-.049-1.274-.009-2.882-.164-2.453-1.873.42-1.668 3.263-1.004 4.693-1.006 1.15-.002 2.139-.138 3.2-.138 2.403 0 5.08.142 7.68.138 1.161-.002 2.803.177 3.325-1.033.404-.935-.012-1.828-.813-2.066-2.709-.804-6.146-.01-9.232-.106-1.292-.04-2.893-.424-2.453-2.19.422-1.689 3.783-1.005 5.013-1.005h9.6c1.008 0 3.028.503 3.83-.513 1.108-1.403-.25-2.622-1.592-2.681-1.593-.07-3.203-.006-4.798-.006-1.398 0-3.434.29-4.753-.102-1.016-.302-1.434-1.627-.679-2.585.631-.799 2.182-.513 3.192-.513h8.32c.93 0 2.543-.292 3.327.329 1.467 1.162 1.156 8.636-.786 9.17-1.43.392-3.536-.544-4.453.614-1.51 1.908 1.394 4.655-1.336 5.465-1.07.318-4.34-.298-5.064.615-1.348 1.703.93 4.155-.841 5.558-.928.734-4.765-.16-5.559.842-1.479 1.868.837 3.614-.886 5.374-.95.97-4.75.061-5.514 1.026-1.423 1.798.668 3.864-.841 5.374-1.712 1.711-4.125-.784-5.559 1.026-.79.997.21 3.93-.657 5.062-1.341 1.75-4.125-.405-5.558 1.018-1.13 1.121-.06 3.497-.308 4.588-.545 2.404-3.843.655-5.544 1.492-1.081.532-.741 2.283-.741 3.327 0 1.43-.578 4.422.328 5.567.711.897 2.808.513 3.832.513 2.958 0 6.01.054 8.96-.001 1.294-.024 2.617-.294 2.493-1.901-.18-2.352-8.003-1.294-9.853-1.298-1.484-.003-3.348-.13-2.777-2.193.427-1.54 3.173-1.007 4.377-1.007h11.2c1.14 0 3.073.359 3.412-1.007.32-1.29-.59-2.065-1.814-2.174-3.037-.27-6.236.239-9.272-.037-1.106-.101-1.787-.703-1.499-1.856.408-1.626 3.416-1.338 4.693-1.324 1.285.013 2.036.248 3.2.277 1.097.027 1.746-.27 2.88-.212 1.34.07 2 .263 3.52.252 1.37-.01 3.97.24 4.548-1.318.615-1.655-.99-2.174-2.309-2.2-2.83-.053-5.907.366-8.633.118-1.036-.094-1.785-.85-1.499-1.993.396-1.576 2.617-1.006 4.053-1.006h11.2c1.327 0 2.857.29 3.455-1.007 1.445-3.136-5.932-2.193-7.295-2.193-1.22 0-2.03.085-3.199-.018-1.2-.107-2.124-.922-1.814-2.175.407-1.642 2.948-1.007 4.373-1.007h10.24c1.006 0 3.118.39 3.83-.513 1.108-1.402-.25-2.621-1.592-2.68-1.593-.071-3.203-.008-4.798-.008-1.426 0-3.714.433-5.023-.193-.958-.457-1.159-2.047-.274-2.678 2.15-1.532 8.751-.329 11.377-.329.93 0 2.543-.291 3.327.33 1.358 1.075 1.07 8.394-.495 9.077-1.318.576-3.739-.562-4.744.707-.594.75-.304 2.089-.333 3.006-.033 1.047-.076 2.116-1.31 2.496-1.647.507-4.42-.826-4.984 1.072-.558 1.88.74 4.262-.843 5.29-.64.417-1.341.411-2.138.413-.981.002-2.478-.659-3.192.207-1.356 1.646.72 3.73-.886 5.37-1.314 1.341-3.844.087-5.1.706-1.491.733-.054 4.926-1.255 5.878-1.448 1.146-3.926-.49-5.374.657-1.149.91.135 4.004-.842 5.238-1.107 1.398-3.893-.121-5.293.842-1.766 1.216.057 4.089-1.107 5.558-1.183 1.493-4.142-.28-5.558.842-1.123.89-.83 7.099-.32 8.264.467 1.07 1.47.999 2.687 1.007 1.68.012 2.632 0 4.48 0h4.8c1.242 0 3.324.481 3.736-1.007.57-2.058-1.292-2.19-2.776-2.193-2.103-.004-10.254 1.177-9.867-1.902.233-1.854 3.086-1.298 4.427-1.298h11.2c1.248 0 3.057.424 3.412-1.007.305-1.23-.566-2.063-1.814-2.174-2.725-.242-5.58 0-8.318-.019-1.167-.008-2.614-.028-2.494-1.592.21-2.74 9.1-1.684 11.134-1.595 1.31.058 2.139.304 3.52.303 1.28-.001 3.68.282 4.285-1.053.8-1.761-.998-2.435-2.365-2.461-1.854-.035-10.386 1.095-10.174-1.589.14-1.78 2.664-1.245 3.774-1.321 1.017-.07 1.794-.286 2.88-.263 2.425.051 4.197.292 6.72.292 1.507 0 4.321.939 5.43-.742.944-1.43-.177-2.39-1.592-2.452-1.426-.063-2.218-.006-3.518-.006-2.47 0-4.316.503-6.353-.102-.885-.263-1.16-1.169-.904-2.091.456-1.646 3.32-1.007 4.697-1.007h9.6c1.064 0 3.077.376 3.967-.33 1.28-1.014.214-2.733-1.094-2.852-3.137-.285-6.469.463-9.575-.066-1.163-.198-1.743-1.66-.97-2.64.677-.856 2.56-.512 3.512-.512h8c.93 0 2.543-.292 3.327.329 1.048.83 1.048 8.112 0 8.942-1.29 1.02-4.286.175-5.887.649.432 1.817 1.502 4.62-.422 5.567-1.19.585-4.352-.529-5.33.706-1.121 1.416.651 4.375-.841 5.558-1.481 1.172-4.646-.715-5.879.842-1.057 1.335.208 3.662-.521 5.145-.524 1.064-8.497.298-5.374 3.429.779.78 2.322.513 3.327.513h15.68c1.347 0 5.186.692 5.656-1.008.572-2.062-1.293-2.19-2.776-2.192-3.607-.007-7.28.152-10.879-.006-1.412-.063-2.463-.934-1.728-2.452.515-1.064 2.592-.742 3.647-.742h8.32c.895 0 2.554.294 3.19-.513.774-.98.194-2.442-.97-2.64-1.673-.285-8.124 1.03-7.914-1.635.088-1.12.908-1.244 1.855-1.286 1.668-.074 5.37.498 6.617-.335.731-.488 1.065-1.85.413-2.678-.676-.858-2.163-.165-2.677-1.255-1.082-2.296 1.956-2.138 3.326-2.138 1.596 0 5.39-.743 6.107 1.006.832 2.027-5.389 2.52-2.714 4.75 1.474 1.228 4.165.64 6.207.644 1.27.003 2.695-.213 2.813 1.292.204 2.58-5.961 1.458-7.608 1.607-1.325.119-2.114 1.188-1.436 2.44.886 1.635 5.58.712 7.19.749 1.672.038 3.091.279 4.8.308 1.436.025 3.61-.386 3.454 1.591-.13 1.657-2.281 1.293-3.453 1.293-3.307 0-6.614-.023-9.92 0-1.442.01-2.976.318-2.457 2.193.46 1.665 4.024 1.007 5.337 1.007 4.91 0 9.823.016 14.72 0 1.211-.004 4.27.552 5.11-.513 2.74-3.47-5.256-2.166-5.877-3.429-.7-1.42.648-4.256-.706-5.33-1.417-1.121-4.376.652-5.559-.841-.87-1.099.19-4.403-.841-5.24-1.311-1.062-4.4.303-5.559-1.16-1.067-1.349.41-3.706-.657-5.054-1.935-2.443-5.832 1.552-6.059-3.393-.062-1.365-.667-5.466.5-6.391.784-.62 2.396-.33 3.328-.33h8.96c1.144.001 2.73-.314 3.096 1.008.344 1.24-.287 2.063-1.503 2.174-3.592.327-7.706-.692-11.193.339.401 1.34-.015 2.554 1.618 2.832 1.605.274 2.647.048 4.142.048h8c.987 0 4.862-.707 5.336 1.007.49 1.77-.855 2.167-2.137 2.191-.926.018-1.609.001-2.56.001-1.777 0-8.79-1.037-7.896 2.193.453 1.638 2.852 1.007 4.377 1.007h10.24c1.092 0 3.707-.484 4.285.742.95 2.016-1.466 2.095-2.685 2.15-2.38.11-3.733.308-6.4.308-1.296 0-3.615-.502-3.454 1.592.17 2.222 2.99 1.608 4.734 1.608 4.06 0 8.378-.023 11.84 0 .915.007 1.93-.183 2.365.742 1.476 3.131-6.152 2.076-7.485 2.167-1.003.069-1.782.297-2.879.274-.827-.017-1.378-.173-1.921-.303-.899 3.047 1.018 3.454 3.52 3.516 2.368.058 5.631.058 8 0 1.61-.04 5.702-1.391 7.03.489 1.278 1.807-.926 2.386-2.23 2.395-2.873.02-6.11-.435-8.942.048-1.126.192-1.606 1.375-1.105 2.41.52 1.075 2.36.742 3.327.742h8.64c.93 0 2.543.292 3.327-.329 1.27-1.005.536-4.62.511-6.39-.013-.96.088-1.723-.556-2.36-.86-.849-4.604.115-5.514-1.034-.983-1.242.394-4.225-.841-5.242-2.01-1.654-3.952 1.076-5.559-1.133-.95-1.305.364-3.79-.657-5.079-1.172-1.48-4.164.263-5.558-.842-1.507-1.193.306-4.107-.842-5.558-1.167-1.473-4.154.271-5.558-.842-1.166-.923-.272-4.445-.706-5.329-.883-1.793-4.198.114-5.694-1.07-1.4-1.109.12-3.894-.842-5.293-1.2-1.742-4.101.046-5.558-1.108-1.34-1.06.161-4.481-1.026-5.422-1.145-.906-4.093.357-5.374-.658-1.022-.809-1.016-7.708-.185-8.758.679-.856 2.558-.513 3.512-.513 3.432 0 7.15-.29 10.553.02 1.036.093 1.57.537 1.57 1.58 0 .878-.334 1.395-1.262 1.553-2.784.474-6.104.028-8.941.048-1.431.01-3.055.542-2.366 2.192.554 1.326 1.942 1.007 3.326 1.007h11.2c1.29 0 3.993-.522 4.372 1.008.847 3.422-8 2.178-10.132 2.193-1.412.01-3.353.42-2.367 2.458.574 1.186 2.471.741 3.647.741h11.52c1.11 0 3.104-.406 3.645.742.757 1.607-.977 2.37-2.046 2.337-3.022-.094-6.105-.689-9.26-.151-1.178.2-1.55 1.44-1.106 2.44.515 1.16 1.755 1.04 3.007 1.031 2.073-.014 3.464-.345 5.76-.317 1.993.023 3.322.318 5.44.318 1.264 0 4.004-.533 4.605.742.778 1.65-.943 2.128-2.365 2.138-2.031.014-11.098-1.277-10.137 2.193.427 1.541 3.173 1.007 4.377 1.007h10.56c1.006 0 3.118-.39 3.83.514 1.457 1.844-.856 2.677-2.23 2.686h-4.48c-1.41 0-3.73-.44-5.019.194-.977.48-.977 2.332 0 2.813 2.675 1.317 8.435.193 11.419.193.952 0 2.834.341 3.51-.513.71-.896.33-2.345.33-3.327 0-1.739.396-3.438-.422-4.698-.548-.843-1.462-.724-2.458-.743-1.128-.02-2.5.116-3.192-.819-.95-1.283.474-4.54-1.07-5.57-1.419-.947-4.215.565-5.33-.843-.922-1.164.268-4.36-.841-5.238-1.873-1.483-4.096 1.12-5.559-1.07-1.09-1.636.811-3.291-.657-5.145-.824-1.04-4.919.013-5.743-1.027-1.226-1.548.755-4.293-.841-5.558-1.08-.855-4.164.301-5.374-.657-1.493-1.183.28-4.142-.842-5.558-.97-1.224-3.725-.218-5.064-.615-2.06-.612-.316-4.177-1.336-5.465-1.177-1.486-3.445.052-5.014-.935-1.398-.88-1.895-7.78-.544-8.85.783-.62 2.395-.329 3.327-.329h8.32c.93 0 2.543-.291 3.327.33 3.488 2.764-4.3 2.87-5.247 2.87-1.591 0-3.21-.063-4.799.006-1.425.063-2.652 1.339-1.593 2.681.74.936 2.71.513 3.832.513H264c1.51 0 3.61-.606 4.056 1.007.446 1.609-.599 2.133-1.818 2.187-2.33.103-6.61-.183-8.957.025-1.093.097-2.255.803-1.722 2.174.52 1.34 1.96 1.007 3.32 1.007q5.44.002 10.88 0c1.225 0 4.297-.567 4.693 1.006.387 1.54-.787 1.847-2.133 1.873-2.056.039-11.424-1.301-10.456 2.194.417 1.508 2.95.956 4.057 1.062 3.641.346 6.891.27 10.88.265 1.15 0 3.41-.475 3.965.734.871 1.897-1.284 2.143-2.685 2.146-2.056.004-10.742-1.147-9.817 2.193.396 1.43 2.6 1.007 3.737 1.007h10.88c1.208 0 3.967-.472 4.376 1.007.957 3.456-7.689 2.189-9.816 2.193-1.098.002-2.702-.17-2.814 1.298-.169 2.203 2.128 1.902 3.774 1.902h7.36c1.333 0 2.973.48 3.967-.513 1.255-1.255.818-5.326.748-6.847-.03-.658-.153-1.479-.736-1.91-1.352-1.002-4.144.554-5.25-.843-1.15-1.45.722-4.795-1.337-5.694-1.362-.594-4.051.572-5.064-.706-.923-1.166.306-4.329-.841-5.238-1.893-1.499-4.07 1.159-5.559-1.07-.723-1.084.249-4.002-.657-5.146-1.245-1.57-4.498.545-5.743-1.026-.934-1.18.075-3.934-.521-5.145-1.151-2.339-3.964.758-5.559-1.255-.968-1.223.379-3.746-.657-5.054-.647-.816-2.26-.493-3.191-.517-.79-.021-1.76-.018-2.367-.59-2.017-1.901 1.409-4.302-1.255-5.613-1.116-.549-4.765.501-5.637-.706-.61-.843-.034-2.346-.023-3.327.018-1.474-.462-3.628-.07-4.698.511-1.403 3.096-.726 4.552-.743 1.65-.02 3.058-.13 4.32.084 3.625.214 7.666-1.424 6.776 1.79-.334 1.208-1.792 1.005-2.776 1.007-2.563.005-5.813-.376-8.302.048-1.16.197-1.881 1.484-.97 2.64.9 1.138 3.2.512 4.472.512h10.24c1.52 0 3.502-.159 3.84 1.298.698 3.007-5 1.902-7.04 1.902-1.09 0-1.816-.007-2.88 0-1.374.01-3.472.579-2.231 2.459.78 1.182 3.17.739 4.47.741l13.985.03c-.326 2.263-1.789 2.993-3.104 3.006-1.029.01-1.787-.188-2.88-.126-1.185.068-1.905.287-3.2.288-.837 0-2.023-.359-2.687.066-.983.628-.527 1.472-.833 2.496 4.437 1.312 10.41.32 15.04.32 1.5 0 5.297-.29 3.966 2.459-.659 1.361-4.352.741-5.566.741h-3.52c-1.488.001-3.888-.024-3.179 2.193.492 1.535 3.226 1.007 4.459 1.007h9.6c1.168 0 2.984-.335 4.058.193.977.481.977 2.333 0 2.814-1.499.738-4.33.193-5.978.193-1.997 0-4.385-.77-6.469.438-1.961 1.995 2.298 2.762 3.909 2.762h8.64c.923 0 2.553.284 3.327-.329.718-.568.532-1.775.5-2.55-.035-.843-.202-1.409-.224-2.24-.026-.945.272-1.624.205-2.56-.098-1.386-.905-2.338-2.048-2.08-.917.329-3.527.638-4.127-.582-.644-1.31.39-4.142-.706-5.01-1.926-1.525-3.96.94-5.558-1.157-1.007-1.32.372-3.757-.658-5.059-1.026-1.295-3.787-.027-5.01-.842-1.657-1.105-.249-4.117-1.39-5.558-.968-1.221-6.688-.333-6.231-1.473l.376-1.44c.229-.757 4.104-.878 6.184-.787 2.778.121 4.6.322 7.68.307 1.93-.009 3.104-.37 5.12-.308 1.545.046 3.987-.327 5.392.09 1.037.308 1.492 1.555.679 2.585-.988 1.252-5.887.513-7.351.513-2.299 0-3.395-.004-5.44 0-1.455.003-3.35.125-2.777 2.193.397 1.433 2.613 1.007 3.737 1.007h8.64c.95 0 2.605-.236 3.19.513.615.786.27 2.08-.678 2.494-1.626.71-4.972.125-6.67.2-1.05.046-2.168.373-1.814 1.896.25 1.082 1.086 1.246 2.132 1.291 2.199.096 5.304-.89 6.847.335 1.211.963.13 2.475-.785 2.776-.837.275-2.793.906-1.573 2.462 1.212 1.547 7.452.59 8.95.833" fill="none" stroke="#4b4030"/></svg>