<?xml version="1.0" encoding="UTF-8" standalone="no"?>
<!-- Created with Inkscape (http://www.inkscape.org/) -->

<svg
   version="1.1"
   id="svg1"
   width="306.23892"
   height="60.716366"
   viewBox="0 0 306.23892 60.716366"
   xmlns="http://www.w3.org/2000/svg"
   xmlns:svg="http://www.w3.org/2000/svg">
  <defs
     id="defs1" />
  <g
     id="g1"
     transform="translate(-10.88,-14.602307)">
    <path
       style="fill:none;stroke:#030303"
       d="m 10.88,74.24 c 0.976792,0 2.299035,0.0974 3.194073,-0.04741 0.616244,-0.0997 1.121641,-0.296226 1.504198,-0.96 C 16.076364,72.368349 15.994541,71.466748 15.999753,70.4 16.015059,67.267715 16,63.949492 16,60.8 c 0,-2.010547 0,-4.799434 0,-6.72 0,-1.111441 0,-1.70832 0,-2.88 0,-3.669478 -0.04344,-8.404736 0.0012,-12.16 0.021,-1.765513 0.276548,-2.308198 0.314074,-3.84 0.0385,-1.571704 0.0047,-3.797759 0.0047,-5.44 0,-1.090469 -0.0017,-2.470552 0,-3.52 0.0013,-0.782144 -0.0062,-1.413428 0.09136,-2.24 0.09819,-0.832202 0.204607,-1.45041 0.223951,-2.24 0.02541,-1.037144 0.0042,-2.441274 0.0047,-3.52 6.43e-4,-1.428945 -0.380557,-2.743774 1.005926,-3.0921 2.15038,-0.540234 1.874074,3.187915 1.874074,4.3721 0,1.529643 0,2.062461 0,3.84 0,3.605801 0.04084,7.982905 -0.0012,11.52 -0.01968,1.654687 -0.295705,2.32522 -0.317531,4.16 -0.03043,2.557783 -0.0012,3.833476 -0.0012,6.4 0,1.546396 -0.05901,3.638584 0.0062,5.118515 0.05156,1.17065 0.51239,2.431968 2.186666,1.888399 1.049599,-0.340762 0.987783,-1.260215 1.005679,-2.207158 0.03215,-1.701079 0.0015,-3.708565 0.0015,-5.439756 0,-2.435376 0,-5.288921 0,-7.68 0,-1.187979 0,-1.776968 0,-2.88 0,-2.075371 -0.118239,-6.815108 0.02864,-8.96 0.08051,-1.175664 0.259233,-1.760234 0.286665,-2.88 0.04297,-1.753994 -0.763655,-6.445132 1.011853,-6.936787 0.626577,-0.173506 1.477918,-0.07725 1.86395,0.409873 0.45251,0.571006 0.338889,1.200771 0.32395,2.046914 -0.02653,1.502886 -0.292614,2.056894 -0.313825,3.84 -0.01518,1.276274 -0.0012,1.915923 -0.0012,3.2 0,6.029678 0,13.369004 0,19.52 0,1.632607 0.01456,3.514844 -0.0012,5.12 -0.0079,0.806738 -0.196003,1.459756 0.01013,2.192593 0.230676,0.820112 1.145459,1.31102 2.129382,0.677036 1.615625,-1.041006 0.74092,-6.537759 0.741728,-8.629629 9.09e-4,-2.356455 0.309671,-3.34918 0.319754,-5.44 0.0191,-3.959439 2.46e-4,-9.536299 2.46e-4,-13.44 0,-1.392046 0,-2.068545 0,-3.52 0,-1.250215 -0.215261,-3.626939 0.101729,-4.781235 0.235478,-0.857481 0.816548,-1.307989 1.800986,-1.232593 2.257781,0.172915 1.297285,6.871616 1.297285,8.573828 0,2.736152 0.03071,5.95456 -0.0012,8.64 -0.01792,1.506255 -0.273552,2.186016 -0.314072,3.84 -0.03351,1.367993 -0.0047,1.977222 -0.0047,3.2 0,1.660083 0,4.024824 0,5.76 0,1.669302 -0.768825,7.514931 1.6,7.268144 2.174204,-0.226508 1.6,-4.85271 1.6,-6.948144 0,-3.339302 0,-7.283696 0,-10.56 0,-1.177354 0,-1.757114 0,-2.88 0,-2.305176 -0.09115,-5.950869 0.01259,-8.32 0.05996,-1.369395 0.272263,-1.957041 0.302715,-3.2 0.03558,-1.452417 -0.696145,-6.776338 2.462964,-5.246665 1.114333,0.53957 0.763156,2.580488 0.737036,3.646665 -0.01935,0.789697 -0.12575,1.40772 -0.22395,2.24 -0.168121,1.424858 -0.09136,2.985298 -0.09136,4.8 0,2.467207 0.05292,5.968374 -0.0047,8.32 -0.03753,1.531802 -0.293069,2.074482 -0.314072,3.84 -0.05399,4.538486 -0.0012,10.286709 -0.0012,14.72 0,2.03374 0,2.786592 0,5.12 0,3.024336 0.01536,6.639765 -2.46e-4,9.6 -0.006,1.129414 0.196323,2.452734 -1.03284,3.006914 -2.15861,0.973125 -7.69153,0.193086 -10.487138,0.193086 -1.045505,0 -2.791425,0.348672 -3.646914,-0.328887 C 21.495239,69.841601 22.08,65.987666 22.08,64.64 c 0,-1.313042 -0.401751,-4.706548 0.513085,-5.431113 1.304432,-1.033125 5.024485,-0.403023 6.845432,-0.322715 2.198643,0.09696 2.490752,2.331831 1.819754,4.775063 -1.208252,4.399473 -3.051135,-3.157798 -5.465186,-1.252348 -0.989443,0.780986 -0.671831,4.566196 0,5.238027 1.129495,1.129492 6.290708,0.961294 7.759507,0.32 1.157024,-0.505166 1.005205,-1.936577 1.007407,-3.006914 0.0046,-2.218223 0.03968,-4.862466 -0.0015,-7.039756 -0.01835,-0.970669 0.0398,-1.66333 -0.740246,-2.047158 C 33.095231,55.517304 31.590602,55.68 30.719999,55.68 c -2.703149,0 -8.105119,-0.613018 -10.512592,0.101728 -0.807206,0.239649 -0.920344,0.753926 -0.988642,1.504444 -0.224432,2.466269 -0.169232,3.696406 -0.310124,5.753828 -0.144034,2.10331 -0.02958,5.905302 -0.02864,8 4.37e-4,0.971064 -0.240997,2.523349 0.741728,3.006914 C 20.782154,74.617915 22.982488,74.24 24.32,74.24 h 11.2 c 1.289771,0 3.990733,0.457705 4.791111,-0.741729 C 41.425391,71.828432 40.64,70.462578 40.64,68.8 c 0,-1.399087 -0.07014,-4.31752 0.02864,-5.76 0.0874,-1.276221 0.274721,-1.905362 0.290122,-3.2 0.06608,-5.554873 0.0012,-13.563565 0.0012,-19.2 0,-1.774663 0,-2.584214 0,-4.48 0,-1.246401 -0.0585,-2.974487 0.05432,-4.16 0.146011,-1.534312 0.264991,-2.049614 0.265679,-3.84 8.01e-4,-2.07667 0,-5.057808 0,-7.04 0,-1.654971 -0.293413,-2.460845 0.04741,-4.461235 C 41.642064,14.811943 43.343534,15.36 45.119999,15.36 h 12.16 c 1.460019,0 3.706738,-0.452271 5.018271,0.193086 0.923086,0.454219 0.739927,1.810669 0.741729,2.686914 0.0054,2.619805 0.02935,5.748603 -0.0012,8.32 -0.01599,1.343906 -0.242954,2.090942 -0.306172,3.52 -0.04777,1.07978 0.285352,2.195884 -0.525678,3.006914 -1.450708,1.450708 -4.133843,0.474009 -5.566914,0.537036 -2.273047,0.09997 -3.229917,0.200811 -5.12,0.283457 -1.187783,0.05194 -2.50041,0.296187 -3.418272,-0.316299 -0.772045,-0.515185 -0.725205,-1.431557 -0.740249,-2.231108 -0.03782,-2.010156 -0.0024,-4.690005 -0.0015,-6.72 3.81e-4,-0.849375 -0.159541,-2.070215 0.328892,-2.686914 0.881274,-1.1127 3.222138,-0.513086 4.791108,-0.513086 1.456294,0 3.355019,-0.478457 4.149873,0.741728 0.466513,0.716153 0.147915,2.031324 0.06297,2.778272 -0.125718,1.105449 -0.26105,2.769663 -1.926914,2.439502 -2.10209,-0.416616 -0.07947,-3.381152 -2.908643,-3.025923 -1.173828,0.147383 -1.251201,0.962974 -1.291113,1.8679 -0.04805,1.089405 -0.294878,2.757671 0.186914,3.736792 0.607959,1.235528 7.131753,1.222554 8.345185,0.412837 1.615796,-1.078213 0.742564,-6.774204 0.741729,-8.631108 -3.96e-4,-0.883115 0.173818,-2.32707 -0.513086,-2.871108 -1.769038,-1.401109 -6.852236,-0.283067 -9.406914,-0.333335 -1.35669,-0.0267 -3.371807,-0.517002 -4.698271,-0.0012 -1.128169,0.438662 -0.719966,2.128706 -0.746421,3.205679 -0.02489,1.013364 -0.166368,1.565742 -0.260987,2.56 -0.1779,1.869429 -0.05432,4.743271 -0.05432,6.72 0,1.175366 0,2.716606 0,3.84 0,1.232353 0,1.816059 0,3.2 0,6.1204 0.0024,12.725762 0,18.88 -9.33e-4,2.42248 -0.319834,3.767417 -0.32,6.4 -9.3e-5,1.447173 0,3.420928 0,4.8 0,1.09541 -0.0025,1.686045 0,2.88 0.0021,1.042319 -0.225908,2.542153 1.007158,2.992842 3.039014,1.110756 2.192842,-5.026358 2.192842,-6.832842 0,-1.551294 0,-3.633965 0,-5.12 0,-1.820977 -0.01,-2.363081 2.44e-4,-4.48 0.0094,-1.951446 0.273867,-2.478384 0.315064,-4.16 0.05549,-2.265108 0.0047,-5.624351 0.0047,-8 0,-1.851148 -0.964439,-8.396104 1.292593,-8.573828 0.938984,-0.07394 1.391606,0.361635 1.54,1.232593 0.321045,1.884301 0.04741,4.74416 0.04741,6.701235 0,1.640727 0,2.324433 0,3.84 0,5.734678 0.0023,12.710254 0,18.56 -7.33e-4,1.894844 -0.832656,4.415351 -0.126914,6.032593 0.33624,0.770512 1.175928,1.128227 1.999756,0.808149 1.881928,-0.731191 1.007158,-6.101631 1.007158,-7.800742 0,-1.663946 0,-2.438604 0,-4.16 0,-2.7946 0.290307,-3.687945 0.318764,-6.08 0.0378,-3.177061 0.0012,-7.001797 0.0012,-10.24 0,-1.833516 -0.940825,-8.625405 1.297285,-8.906421 2.883032,-0.361992 1.902715,4.851533 1.902715,6.666421 0,7.58729 -0.32,15.12792 -0.32,22.72 0,1.84103 -0.805752,8.552529 1.902715,7.855058 1.336494,-0.344165 1.274477,-1.285488 1.295805,-2.415302 0.0341,-1.806387 0.0015,-3.922911 0.0015,-5.759756 0,-4.343516 0,-9.500303 0,-13.76 0,-1.187984 0,-1.776963 0,-2.88 0,-1.379077 0,-3.352827 0,-4.8 0,-2.042544 -0.998521,-7.021397 1.007158,-7.576787 0.654492,-0.181236 1.633384,-0.105987 1.999756,0.638515 0.73958,1.502881 0.193086,4.299126 0.193086,5.978272 0,7.691943 -0.127413,15.370576 -0.315308,23.04 -0.04556,1.859502 -0.934575,8.07791 1.898022,7.559507 1.898086,-0.347378 1.297286,-3.597788 1.297286,-4.999507 0,-1.583672 0,-2.142705 0,-3.52 0,-1.327647 -0.02945,-3.406455 0.0047,-4.8 0.04233,-1.727739 0.306987,-2.48544 0.315063,-4.16 0.02968,-6.154346 2.45e-4,-12.690625 2.45e-4,-18.88 0,-3.740996 0,-8.170327 0,-11.84 0,-1.182466 -0.03662,-1.756138 0.01259,-2.88 0.05296,-1.209414 0.252779,-1.920034 0.294815,-2.88 0.05549,-1.267129 -0.402622,-4.762471 1.612592,-4.762471 2.16896,0 1.28,4.608887 1.28,6.682471 v 22.4 c 0,1.587549 -0.789472,7.843672 1.005928,8.199507 2.819761,0.558857 1.874072,-6.442969 1.874072,-7.879507 0,-2.996592 -0.284897,-7.315405 0.05432,-10.88 0.105293,-1.106436 0.25019,-1.682041 0.264443,-2.88 0.03078,-2.587105 0.0012,-5.684268 0.0012,-8.32 0,-1.274902 -5.51e-4,-2.935796 0,-4.16 3.57e-4,-0.790064 -0.126425,-1.424102 0.101729,-2.192593 0.245893,-0.828247 0.962891,-1.059057 1.800986,-0.953828 2.286846,0.287134 1.300186,7.103369 1.297285,8.906421 -0.0027,1.656001 -0.18811,2.332256 -0.291357,3.84 -0.101987,1.489341 -0.02864,2.345991 -0.02864,3.84 0,4.487246 0,9.247622 0,13.76 0,1.40352 -0.747588,6.188091 0.741485,6.840742 1.004179,0.440127 1.796235,-0.277725 2.128144,-1.099507 0.316104,-0.782641 0.305313,-1.4048 0.325679,-2.221235 0.02613,-1.047451 0.0047,-2.431016 0.0047,-3.52 0,-6.251397 0,-13.712002 0,-19.84 0,-1.392046 0,-2.06855 0,-3.52 0,-1.826377 -0.62331,-7.639907 2.194072,-6.9321 1.84836,0.464361 1.005928,6.903594 1.005928,8.5321 0,2.201406 -0.1598,2.878838 -0.291357,4.8 -0.300293,4.385156 -0.02864,11.209062 -0.02864,15.68 0,1.451445 0,2.127964 0,3.52 0,1.424365 -0.556054,4.375444 1.297285,4.663457 2.779497,0.431897 1.90272,-4.706413 1.90272,-6.583493 V 28.8 c 0,-1.814707 -0.07676,-3.375142 0.09136,-4.8 0.08762,-0.742603 0.188105,-1.281939 0.216044,-1.92 0.07067,-1.613721 -0.880595,-8.149619 2.47087,-6.526665 0.58372,0.282666 0.683388,0.816343 0.710371,1.412837 0.07984,1.765386 -0.288506,2.707451 -0.288643,4.793828 -1.07e-4,1.649497 0,2.311987 0,4.16 0,6.546455 0.0025,13.657832 0,20.16 -6.64e-4,1.717978 -0.231865,2.755161 -0.307402,4.48 -0.06378,1.456313 -0.0126,2.012539 -0.0126,3.2 0,1.2279 0,3.150908 0,4.48 0,3.199248 0.0014,6.401001 0,9.6 -4.88e-4,1.081518 0.256221,2.72312 -1.007402,3.098271 C 84.185281,71.581719 83.232703,71.04 81.279998,71.04 c -1.800083,0 -2.670678,0 -4.48,0 -1.825786,0 -3.77936,0.76435 -4.791108,-0.513086 -0.812358,-1.025684 -0.329414,-4.52792 -0.328892,-5.886914 6.3e-4,-1.635664 -0.392539,-4.462862 0.833086,-5.431113 1.194492,-0.943653 4.73253,-0.355274 6.20667,-0.327403 0.970664,0.01835 1.663325,-0.0398 2.047158,0.740244 0.863106,1.754058 0.479263,5.243457 -1.394321,5.243457 -1.958887,0 -0.710669,-3.81061 -3.485434,-2.764692 -1.126929,0.424785 -1.000308,1.514087 -1.006915,2.539507 -0.0076,1.185815 -0.224311,1.966347 0.328648,2.691606 0.737178,0.96688 2.312988,0.837569 3.511108,0.822466 1.290288,-0.01626 1.902744,-0.19395 3.199751,-0.307651 1.086929,-0.09529 1.855347,-0.274029 2.138521,-1.305186 0.36581,-1.332056 0.101728,-4.295737 0.101728,-5.741235 0,-1.149771 0.712227,-3.820772 -0.513086,-4.791113 -1.436504,-1.137588 -4.04581,-0.01647 -5.566914,-0.0091 -2.537846,0.01224 -3.261992,-0.211792 -5.44,-0.307163 -1.836152,-0.08041 -3.508418,-0.381734 -3.792592,1.286171 -0.291636,1.711709 -0.0064,8.863619 -0.0521,10.861236 -0.01711,0.747734 -0.0988,1.197636 -0.125185,1.92 -0.02395,0.655508 0.103427,3.824555 0.564199,4.151113 1.065693,0.755264 2.855424,0.328887 4.365678,0.328887 h 11.52 c 1.289717,0 3.990801,0.457612 4.791113,-0.741729 1.056709,-1.583564 0.328887,-5.368359 0.328887,-7.258271 0,-2.735381 -0.0011,-5.017608 0,-8 9.08e-4,-2.356773 0.309678,-3.348985 0.319756,-5.44 0.01838,-3.812227 2.44e-4,-9.034927 2.44e-4,-12.8 0,-1.68416 -1.17e-4,-2.690391 0,-4.48 1.95e-4,-3.099087 0.32,-4.839483 0.32,-8 0,-2.985186 -0.0013,-5.975313 0,-8.96 4.1e-4,-0.902139 -0.18207,-2.320537 0.513086,-2.871108 0.627764,-0.497198 1.540078,-0.327193 2.366914,-0.328892 2.655312,-0.0055 5.341826,0 8.000002,0 2.55941,0 5.12078,-0.0011 7.68,0 0.80889,3.61e-4 2.02186,-0.197837 2.68691,0.328892 0.9351,0.740615 0.51309,3.062822 0.51309,4.151108 0,3.796846 0.15861,5.997827 -0.22865,9.28 -0.10415,0.88271 0.0739,2.971948 -0.28444,3.792593 -0.3713,0.850405 -1.02481,0.956684 -2.04716,1.001235 -2.44604,0.106587 -10.789283,0.739717 -12.378024,-0.32272 -0.455146,-0.30437 -0.675097,-0.810571 -0.668642,-1.592588 0.0074,-0.899868 0.198613,-1.423325 0.234316,-2.23852 0.05821,-1.32939 -0.04273,-5.003901 0.01877,-6.398521 0.04008,-0.908798 0.08524,-1.547807 1.00123,-1.819751 1.15874,-0.344013 5.78646,-0.344013 6.9452,0 1.02776,0.305127 0.98579,1.073594 1.00591,2.138516 0.0242,1.278486 0.35026,4.479805 -1.87259,4.039258 -1.37829,-0.273164 -0.7045,-2.108247 -1.51901,-2.75061 -0.65771,-0.518707 -2.17247,-0.240181 -2.49383,0.412836 -0.535309,1.087798 -0.573727,4.301534 0.32,5.00938 0.74304,0.588496 2.08851,0.328833 3.00692,0.328892 0.79248,4.9e-5 1.45207,3.51e-4 2.24,0 0.84553,-3.81e-4 1.92649,0.239497 2.77827,-0.328892 1.65795,-1.106347 0.74559,-7.073803 0.74173,-8.951108 -0.002,-0.794551 0.1776,-2.004063 -0.51309,-2.551108 C 108.14952,18.273188 106.55449,18.56 105.6,18.56 c -2.83604,0 -8.249172,-1.051397 -10.778274,0.193086 -1.284169,0.631894 -0.736074,3.702807 -0.741972,4.926914 -0.01139,2.361665 -0.319756,3.673227 -0.319756,6.4 0,2.345986 0,3.357759 0,5.44 0,8.490532 0.554648,17.722422 -0.02864,26.24 -0.211933,3.094765 -0.297754,6.172348 -0.291357,9.28 0.0022,1.090215 -0.200078,2.531694 1.007158,3.000742 2.923711,1.135947 2.192842,-5.516357 2.192842,-6.840742 0,-2.273848 -0.21168,-4.244766 0.05433,-7.04 0.117646,-1.236201 0.258701,-1.804898 0.26543,-3.2 0.02163,-4.487022 2.44e-4,-9.247788 2.44e-4,-13.76 0,-1.358311 -0.05115,-3.178599 0.0062,-4.478521 0.04648,-1.054087 0.202568,-1.88395 1.593828,-1.88395 1.198808,0 1.493517,0.60479 1.581237,1.568643 0.11221,1.23312 0.0799,3.163286 -0.01,4.473828 -0.523701,7.647373 -0.291357,15.365107 -0.291357,23.04 0,1.534043 -0.86043,7.829609 1.005917,8.199507 2.67897,0.530952 1.74359,-3.276504 1.92816,-5.319507 0.10089,-1.116748 0.0639,-2.206363 0.0914,-3.2 0.0273,-0.986543 0.16081,-1.501118 0.17334,-2.56 0.0655,-5.53645 0.001,-12.272251 0.001,-17.92 0,-1.768008 -0.96654,-7.982178 1.29728,-8.266421 2.80759,-0.35252 1.90272,4.816738 1.90272,6.986421 0,2.635737 0.0296,5.7329 -10e-4,8.32 -0.0181,1.520737 -0.27347,2.182441 -0.31408,3.84 -0.0384,1.566958 -0.005,2.158789 -0.005,3.52 0,1.746963 0,4.252993 0,6.08 0,1.741636 -1.06623,9.807002 2.19284,8.445429 C 109.98272,73.264233 109.12,67.38001 109.12,65.6 c 0,-3.640572 0,-7.948667 0,-11.52 0,-1.187984 0,-1.776963 0,-2.88 0,-1.970254 0,-4.962744 0,-7.04 0,-1.757246 -0.22859,-4.056289 0.0474,-5.753828 0.15813,-0.972686 0.60364,-1.468858 1.5526,-1.54 2.39889,-0.179844 1.6,5.325293 1.6,6.973828 0,3.597265 0,7.652959 0,11.2 0,3.850732 -0.32,6.880478 -0.32,10.88 0,2.04353 -0.27332,4.74126 0.0474,6.713828 0.13245,0.814639 0.59887,1.560019 1.54,1.457036 1.50484,-0.164673 1.21877,-1.598252 1.32124,-3.050864 0.0829,-1.175879 0.25924,-1.76042 0.28667,-2.88 0.0513,-2.092017 0.005,-5.167505 0.005,-7.36 0,-2.435381 0,-5.288916 0,-7.68 0,-1.187984 0,-1.776963 0,-2.88 0,-2.277105 -0.0274,-5.914424 0.001,-8.32 0.0234,-1.968735 0.31584,-2.9719 0.31877,-4.8 0.004,-2.801734 0,-8.488574 0,-11.2 0,-1.004028 0,-1.568452 0,-2.56 0,-1.247564 -0.057,-4.252212 0.0916,-5.44 0.10422,-0.832949 0.0496,-2.155044 1.23431,-2.4521 2.9439,-0.738154 1.87408,7.002232 1.87408,8.8521 0,2.284077 0.0487,5.501426 -0.005,7.68 -0.0375,1.531802 -0.29308,2.074482 -0.31408,3.84 -0.0254,2.133789 -10e-4,5.337803 -10e-4,7.36 0,1.301689 0,1.963467 0,3.52 0,1.089951 -4.2e-4,1.631494 0,2.56 8e-4,1.782051 -0.10157,3.766318 1.90271,3.399507 C 122.49359,52.278545 121.6,46.79333 121.6,45.12 c 0,-6.351826 -4e-4,-13.933667 0,-20.16 7e-5,-1.021494 -0.037,-1.600615 0.0543,-2.56 0.0912,-0.958804 0.23951,-1.683057 0.26099,-2.56 0.0267,-1.091314 -0.46421,-4.001587 1.01061,-4.3721 0.87775,-0.220517 1.53491,0.0998 1.77235,0.899507 0.33926,1.142617 0.10173,4.514116 0.10173,5.712593 0,0.991533 0,1.555986 0,2.56 0,4.25666 0,10.877368 0,15.36 0,2.1925 0.0466,5.267983 -0.005,7.36 -0.0248,1.012641 -0.17269,1.563076 -0.26074,2.56 -0.15192,1.72001 0.42245,3.02043 1.84814,2.759507 2.45837,-0.449917 1.17173,-5.307788 1.32593,-7.559507 0.0874,-1.276211 0.27473,-1.905366 0.29013,-3.2 0.0694,-5.831328 0.001,-12.931094 0.001,-18.88 0,-1.614463 -0.86597,-6.708203 0.74173,-7.486665 3.18776,-1.54355 2.49806,3.751348 2.45358,5.566665 -0.0274,1.119766 -0.20616,1.704331 -0.28667,2.88 -0.13248,1.934541 -0.0286,6.12707 -0.0286,8 0,1.103037 0,1.692012 0,2.88 0,2.8829 0,6.342417 0,9.28 0,1.879761 -1.00415,8.595576 1.6,8.519507 2.36923,-0.06921 1.6,-4.692886 1.6,-6.599507 0,-7.585147 -0.0238,-15.157319 0.3074,-22.72 0.0943,-2.152603 -0.49501,-4.940361 0.11433,-6.992593 0.28234,-0.950942 1.29652,-1.161748 2.03678,-0.812837 1.16761,0.550332 0.74101,1.938125 0.74149,3.00543 0.001,2.981728 0,6.561636 0,9.6 0,1.162309 0.0345,2.763364 -0.0126,3.84 -0.0594,1.355893 -0.28643,1.860322 -0.30617,3.52 -0.0206,1.727207 -0.001,2.494375 -0.001,4.16 0,6.571523 0,13.551079 0,20.16 0,2.478149 0.89035,9.147505 -0.32889,10.686914 -1.103,1.392641 -8.97285,0.513086 -11.19111,0.513086 -0.93631,0 -2.64358,0.188115 -3.41827,-0.193086 C 120.13279,69.917436 121.28,66.186162 121.28,64 c 0,-1.717896 -0.6693,-3.854649 0.51308,-4.791113 C 122.84565,58.375234 124.50414,58.88 125.76,58.88 c 1.3025,0 1.92116,-0.05016 3.19851,0.0062 1.73561,0.07654 1.89872,0.736748 1.91976,2.234072 0.0173,1.234375 0.14086,2.132666 -0.45704,3.098027 -0.52117,0.841485 -2.04354,0.969502 -2.54963,2.44e-4 -0.43915,-0.841054 -1.48713,-3.613608 -3.06272,-1.625429 -0.44511,0.561679 -0.32425,1.36624 -0.32864,2.046914 -0.006,1.000332 -0.19514,1.99334 0.32864,2.778271 0.49997,0.749248 1.37359,0.724112 2.23112,0.740244 1.87453,0.03527 4.17129,0.461202 5.71259,-0.236045 1.06348,-0.481088 0.99992,-1.591206 1.00716,-2.64247 0.0146,-2.114834 0.0146,-4.604121 0,-6.72 -0.006,-0.830152 0.1044,-1.948872 -0.74148,-2.366914 -1.61249,-0.796909 -2.14851,-0.375576 -3.73827,-0.484444 -1.26461,-0.0866 -3.47506,-0.05641 -4.8,-0.02395 -1.17533,0.02879 -2.10802,0.298789 -3.2,0.274072 -0.87877,-0.01989 -1.89691,-0.520346 -2.68692,0.239014 C 117.7274,57.029868 118.08,59.070078 118.08,60.16 V 70.4 c 9e-5,1.363154 -0.26699,2.837993 0.74173,3.511113 C 119.87496,74.61393 121.68835,74.24 123.2,74.24 h 11.52 c 1.28971,0 3.9908,0.457607 4.79111,-0.741729 0.79503,-1.191416 0.32889,-3.611792 0.32889,-5.018271 0,-2.492158 -0.0666,-3.492608 0.005,-6.4 0.0423,-1.727735 0.307,-2.485445 0.31507,-4.16 0.0226,-4.695435 2.5e-4,-9.678145 2.5e-4,-14.4 0,-2.937573 0,-6.397105 0,-9.28 0,-1.515576 0,-2.199268 0,-3.84 0,-2.938403 0.30763,-4.206089 0.31975,-6.72 0.01,-2.064443 -0.86547,-6.298613 0.32913,-7.806914 C 141.51293,14.984165 144.6516,15.36 145.92,15.36 h 11.84 c 1.46486,0 2.92008,-0.506397 3.96667,0.328892 1.18051,0.942182 0.19333,6.323203 0.19333,7.991108 0,2.557329 0,3.772436 0,6.08 0,1.103755 0.27509,2.513144 -0.32889,3.418271 -0.65897,0.987505 -2.1119,0.741245 -3.19111,0.741729 h -8 c -0.97626,0 -2.52672,0.304873 -3.32692,-0.328892 C 146.38857,33.048965 146.5616,31.818823 146.56,31.04 c -0.004,-2.070449 -0.66552,-7.191289 0.19308,-8.816543 0.72197,-1.366616 7.24711,-1.505352 8.57383,-0.454565 1.28514,1.017851 1.01281,5.286381 -0.49407,5.871845 -1.66695,0.647656 -1.86573,-0.789468 -2.2884,-1.993579 -0.38422,-1.094595 -2.00863,-1.449155 -2.59136,-0.26543 -0.61783,1.255044 -0.5987,3.884283 0.1358,4.850865 0.49908,0.656757 1.50883,0.504043 2.23112,0.495058 1.57926,-0.01964 5.44475,0.668819 6.39111,-0.74938 C 159.918,28.169639 159.04445,23.60352 159.04,21.44 159.038,20.563755 159.22135,19.207305 158.29827,18.753086 157.34919,18.286079 155.93203,18.56 154.88,18.56 c -2.54701,0 -9.0756,-0.8073 -10.77827,0.328892 -1.66947,1.114033 -0.74173,2.904604 -0.74173,4.471108 0,1.573105 0,3.796728 0,5.44 0,8.076191 0.0385,16.609897 -2.5e-4,24.64 -0.007,1.45123 -0.19654,2.13897 -0.29111,3.52 -0.11249,1.642685 -0.0286,2.926826 -0.0286,4.8 0,3.090351 -0.001,6.189629 0,9.28 4.1e-4,0.920488 -0.26911,2.532065 0.74173,3.005429 3.3966,1.590616 2.45823,-6.16519 2.45823,-7.805429 V 51.2 c 0,-2.010547 0,-4.799434 0,-6.72 0,-1.004024 0,-1.568452 0,-2.56 0,-0.934453 -0.1644,-3.216221 0.10173,-4.112593 0.20698,-0.697173 0.6906,-0.969878 1.49827,-0.969878 0.70409,0 1.16053,0.20354 1.40691,0.704199 0.38086,0.773931 0.19309,3.157632 0.19309,4.058272 0,0.991533 0,1.555981 0,2.56 0,1.920566 0,4.709453 0,6.72 v 15.04 c 0,1.522246 -0.94934,9.233525 1.87408,8.120742 1.7865,-0.704111 1.00592,-5.548115 1.00592,-7.160742 0,-7.366963 0.32,-14.702149 0.32,-22.08 0,-1.73169 -0.0298,-4.104312 0.001,-5.759756 0.0194,-1.023652 -0.0457,-2.018232 1.2958,-2.186665 2.17688,-0.273325 1.94407,1.582246 1.89803,3.466421 -0.0274,1.121758 -0.20611,1.70373 -0.28667,2.88 -0.12768,1.864375 -0.0286,5.874609 -0.0286,7.68 0,1.103037 0,1.692012 0,2.88 0,3.669668 0,8.099009 0,11.84 0,2.032607 -0.0363,4.403457 10e-4,6.399756 0.0203,1.071005 0.0217,2.414087 1.58592,2.119751 1.48537,-0.279502 1.29244,-2.475118 1.2926,-3.719507 1.2e-4,-0.971958 -0.0382,-1.782334 0.0914,-2.88 0.11664,-0.988594 0.21451,-1.474483 0.22742,-2.56 0.0752,-6.322832 0.001,-14.029131 0.001,-20.48 0,-1.550508 -0.01,-3.635015 2.4e-4,-5.12 0.007,-0.951611 -0.20801,-2.120366 1.00691,-2.456787 1.71075,-0.473721 2.13311,0.603647 2.18667,1.818266 0.0611,1.386328 0.006,3.348726 0.006,4.798521 0,5.948906 0.0681,13.048672 -0.001,18.88 -0.0181,1.524243 -0.27374,2.193452 -0.31409,3.84 -0.0459,1.871543 -0.25142,4.584736 0.0427,6.393828 0.13245,0.814639 0.59887,1.560019 1.54,1.457036 0.81207,-0.08886 1.11916,-0.681899 1.24519,-1.457036 0.28538,-1.755195 -0.0616,-5.63728 0.10172,-7.353828 0.0946,-0.994317 0.23621,-1.547803 0.261,-2.56 0.0428,-1.745381 0.005,-4.25416 0.005,-6.08 0,-3.941836 0,-8.613653 0,-12.48 0,-1.515571 0,-2.199268 0,-3.84 0,-2.420044 -0.13328,-5.63564 0.0286,-8 0.1042,-1.521436 0.28867,-2.164907 0.29137,-3.84 0.005,-3.228193 -1.13539,-9.678677 0.19308,-12.378272 0.3228,-0.655957 1.25244,-0.845454 1.99977,-0.638515 1.07615,0.297998 0.98859,1.234419 1.00566,2.137031 0.0375,1.986025 0.002,4.379434 0.001,6.399756 -7.3e-4,1.86335 -0.17786,2.502446 -0.29137,4.16 -0.2327,3.398027 -0.0286,7.714785 -0.0286,11.2 0,1.537427 0,3.656147 0,5.12 0,0.888179 0,1.406069 0,2.24 0,1.665752 -0.86125,5.985185 1.6,5.985185 2.56908,0 1.6,-6.766088 1.6,-8.545185 0,-5.223985 0,-10.456914 0,-15.68 0,-1.259531 -7.9e-4,-2.479834 0.1358,-3.52 0.1233,-0.939131 0.1789,-1.515923 0.18394,-2.56 0.007,-1.437222 -0.0544,-3.739878 0.006,-5.118521 0.0419,-0.950605 0.14935,-1.765771 1.28642,-1.855307 C 175.23998,15.235034 174.4,21.066445 174.4,22.4 c 0,6.391763 0,15.748896 0,23.04 0,1.372378 0.0188,3.161426 -0.004,4.48 -0.0114,0.647373 -0.16547,1.236846 0.0134,1.872593 0.18358,0.652646 0.67391,0.912592 1.27233,0.912592 1.89568,0 1.59877,-3.179453 1.59877,-4.385185 0,-1.526187 0,-2.080781 0,-3.84 0,-4.513613 -0.27258,-10.321675 0.0286,-14.72 0.0737,-1.075703 0.23703,-1.606738 0.27877,-2.56 0.0471,-1.076631 0.0126,-2.677695 0.0126,-3.84 0,-1.830274 -0.0325,-3.962119 0.001,-5.759756 0.0183,-0.966934 -0.0424,-1.667944 0.74023,-2.046909 1.49877,-0.725728 2.34692,0.395215 2.43952,1.412837 0.10695,1.175278 0.0192,3.187685 0.0188,4.473828 -8e-4,2.094736 -0.29407,3.041924 -0.31877,5.12 -0.0326,2.744614 -10e-4,3.710088 -10e-4,6.08 0,3.276304 0,7.220698 0,10.56 0,1.72147 -0.89762,9.020366 1.00714,9.492099 3.26539,0.808702 2.19286,-6.361796 2.19286,-8.212099 0,-6.351821 0,-13.933667 0,-20.16 0,-1.283901 0,-1.928892 0,-3.2 0,-1.126377 -0.20764,-3.710591 0.10171,-4.752593 0.28436,-0.957783 1.29069,-1.330185 2.35657,-0.814072 1.01406,0.491025 0.74129,2.067773 0.74172,3.006665 v 9.28 c 0,10.965273 -0.32,21.970117 -0.32,32.96 0,2.433603 0.0435,5.291299 -0.001,7.68 -0.0222,1.178349 -0.0385,2.112597 -1.29728,2.458271 C 182.43332,71.714858 177.72957,71.04 174.72,71.04 c -0.95371,0 -2.83286,0.343281 -3.51112,-0.513086 -0.52869,-0.66752 -0.32853,-1.896787 -0.32888,-2.686914 -8.8e-4,-1.961553 -0.82473,-7.666284 0.74171,-8.447158 0.27819,-0.138682 0.71165,-0.165088 1.17977,-0.215313 0.97699,-0.104814 1.51129,-0.239082 2.55852,-0.284936 1.10025,-0.04818 3.99986,-0.504541 4.60691,0.729135 0.72691,1.477276 0.50402,6.297305 -1.94543,5.143701 -1.32387,-0.623491 -0.65959,-3.722075 -3.19977,-2.492099 -1.47962,0.716455 -1.02406,5.402041 0.26569,5.784941 1.5248,0.452691 6.64697,0.701182 7.75951,-0.411357 1.43012,-1.430117 0.51717,-6.785205 0.51309,-8.766914 -0.002,-0.876397 0.17898,-2.233867 -0.74172,-2.686914 -1.9508,-0.959917 -6.6984,-0.111104 -8.85828,-0.205679 -1.59936,-0.07003 -2.78422,-0.789907 -4.7526,-0.205679 -0.91604,0.271885 -0.96115,0.911035 -1.00123,1.819756 C 167.93365,59.246255 168,61.636357 168,63.36 c 0,2.1179 0.0228,5.011601 -0.003,7.04 -0.0108,0.837734 -0.11242,1.396279 -0.0479,2.233828 0.0586,0.760664 0.26303,1.176059 0.76642,1.413086 1.1035,0.51958 3.30745,0.193086 4.72495,0.193086 4.35777,0 8.76746,0.02972 13.12,-2.44e-4 1.43041,-0.0098 2.40709,0.05315 2.77828,-1.298521 0.47002,-1.711523 0.004,-6.140474 0.13035,-7.981235 0.0737,-1.075703 0.23703,-1.606734 0.27877,-2.56 0.0471,-1.076626 0.0126,-2.677696 0.0126,-3.84 0,-6.559824 0,-13.654746 0,-20.16 0,-1.421802 0,-2.192202 0,-3.52 0,-2.101709 0,-4.869234 0,-7.04 0,-1.798843 -0.1078,-4.376641 0.0543,-6.08 0.18211,-1.913521 -0.26812,-3.251919 0.3674,-5.392593 0.5104,-1.720713 4.93361,-1.007407 6.93783,-1.007407 1.08968,0 2.20916,0 3.2,0 0.9541,0 1.45687,0 2.56,0 1.40007,0 2.06832,0 3.52,0 1.20443,0 3.61554,-0.456279 4.60691,0.328892 1.35463,1.07289 0.51309,6.359101 0.51309,7.991108 0,1.16646 0,2.766724 0,3.84 0,0.933994 7e-5,1.46977 0,2.56 -6e-5,1.002207 0.23121,2.258926 -0.32889,3.098271 C 210.53216,34.165766 209.07919,33.919516 208,33.92 h -8 c -0.97627,0 -2.52674,0.304858 -3.32692,-0.328892 C 195.98855,33.04895 196.1616,31.818833 196.16,31.04 c -0.004,-1.746743 -0.89461,-8.613594 1.0074,-9.178272 1.68638,-0.500664 6.36269,-1.19913 7.75951,-0.09284 0.86418,0.684438 0.52238,1.793544 0.51283,3.191108 -0.007,0.97939 0.12754,1.923823 -0.74146,2.45333 -1.63301,0.995039 -2.16535,-0.669775 -2.55383,-1.767158 -0.2776,-0.784185 -0.91735,-1.104697 -1.80717,-0.898272 -1.62328,0.376577 -1.91037,3.81876 -0.9684,5.230371 1.05707,1.584117 4.27035,0.770098 6.39112,0.740494 0.85703,-0.01196 1.75921,0.03858 2.36691,-0.556294 C 209.02503,29.283286 208.64,27.017056 208.64,25.6 c 0,-1.475093 0.70591,-5.745649 -0.51309,-6.711108 C 207.29742,18.231924 205.50236,18.56 204.48,18.56 c -2.89114,0 -8.45819,-0.948545 -10.77829,0.193086 -0.91753,0.451494 -0.7398,1.76126 -0.74171,2.686914 -0.007,3.238662 0,6.664058 0,9.92 0,4.041416 0.0459,8.836435 -0.001,12.8 -0.0167,1.401972 -0.24237,2.062973 -0.30618,3.52 -0.2289,5.227583 -0.0126,10.756157 -0.0126,16 0,2.04372 0,2.732519 0,4.48 0,1.598061 -0.46039,5.310561 1.00714,5.880742 3.05063,1.185249 2.19286,-6.419561 2.19286,-8.120742 0,-5.65253 0,-12.377168 0,-17.92 0,-1.55646 0,-2.46229 0,-4.16 0,-2.183262 -1.11504,-6.683535 1.29728,-6.986421 2.45408,-0.30813 1.90272,4.783267 1.90272,6.666421 v 22.4 c 0,1.56518 -0.8986,8.225185 1.29259,8.225185 2.63348,0 1.58741,-7.35646 1.58741,-9.185185 0,-1.583677 0,-2.142705 0,-3.52 0,-1.971094 -0.0462,-5.281626 0.005,-7.36 0.0384,-1.569224 0.27676,-2.137354 0.31063,-3.52 0.0449,-1.83211 0.005,-4.482442 0.005,-6.4 0,-1.635034 -0.0289,-3.511333 0.001,-5.119756 0.0144,-0.761416 -0.0735,-1.662256 0.74,-2.045674 1.10412,-0.52041 1.91494,0.07011 2.09111,1.104195 0.28629,1.68038 0.0474,3.997807 0.0474,5.741235 0,3.206919 0,7.105561 0,10.24 0,1.171684 0,1.768554 0,2.88 0,2.613594 0,6.536338 0,9.28 0,1.89583 -0.55905,8.497217 1.90148,7.855058 0.96023,-0.2506 1.03166,-0.972353 1.08098,-2.096294 C 208.18144,70.19896 208.32,69.612558 208.32,67.52 V 45.44 c 0,-1.681338 -0.80979,-8.033657 1.00714,-8.536787 3.33817,-0.924365 2.19286,6.28771 2.19286,8.216787 0,4.688896 0.007,9.749321 0,14.4 -0.002,1.339111 -0.089,2.016172 -0.22864,3.2 -0.14058,1.191553 -0.0914,2.894331 -0.0914,4.16 0,1.761533 -6.9e-4,2.309736 0,3.84 5.2e-4,1.144345 -0.25776,3.794902 1.90271,3.399507 C 215.31939,73.713823 214.4,67.935044 214.4,66.24 c 0,-1.643096 0,-2.905611 0,-4.48 0,-3.69854 0,-8.077012 0,-11.84 0,-6.341939 -0.3943,-14.304116 0.0286,-20.48 0.0805,-1.175664 0.25926,-1.760239 0.28668,-2.88 0.053,-2.163076 -0.036,-6.72812 0.006,-8.959756 0.0197,-1.0427 0.014,-2.095249 1.2958,-2.158022 1.10777,-0.05425 1.69719,0.578798 1.85531,1.53185 0.23791,1.433926 0.0474,3.588565 0.0474,5.105928 0,1.734067 0.0359,4.101421 -0.005,5.76 -0.0375,1.531792 -0.29309,2.074487 -0.31408,3.84 -0.0353,2.969932 -0.001,3.829263 -0.001,6.4 0,1.660078 0,4.024834 0,5.76 0,1.808589 -1.04579,9.092178 1.6,8.893828 2.61798,-0.196265 1.6,-6.371284 1.6,-8.253828 V 22.72 c 5.2e-4,-1.355801 -0.31817,-6.555991 1.06148,-7.160737 3.0407,-1.332837 2.13851,6.376582 2.13851,7.800737 0,7.583891 -0.31999,15.155913 -0.31999,22.72 0,1.587114 -0.86448,6.838584 1.59999,6.653828 2.43579,-0.182607 1.6,-5.202358 1.6,-6.973828 0,-2.468877 0,-5.966113 0,-8.32 0,-1.671665 -0.022,-2.210967 10e-4,-4.16 0.021,-1.767066 0.2766,-2.309702 0.31408,-3.84 0.0385,-1.571709 0.005,-3.797759 0.005,-5.44 0,-1.879019 -1.14044,-9.357622 2.19286,-8.5321 1.70865,0.423164 1.08896,5.464375 0.91578,6.9321 -0.8635,7.318384 -0.22864,15.028848 -0.22864,22.4 0,1.66167 -0.83835,7.76603 1.2926,7.933828 2.50549,0.19729 1.4892,-5.367241 1.67877,-6.973828 0.87571,-7.421797 0.22863,-15.244619 0.22863,-22.72 0,-1.538433 -0.94878,-8.701348 2.19286,-7.480737 1.18054,0.458676 1.00504,1.978481 1.00714,3.000737 v 8.96 c 0,10.970605 -0.32,21.966743 -0.32,32.96 0,2.037178 1.11051,9.762217 -1.0074,10.686914 -2.8767,1.255986 -7.46658,-0.125235 -10.5126,-0.04395 -1.2198,0.03255 -2.6874,0.68288 -3.64691,-0.27605 C 220.12894,69.983305 220.48,68.295957 220.48,67.2 c 0,-1.572046 -0.45731,-6.836524 0.51308,-7.806914 1.63088,-1.630879 4.14647,-0.527041 6.20691,-0.512842 2.57809,0.01777 3.65811,2.766875 2.3679,5.338027 -1.70946,3.406597 -3.25584,-4.531469 -5.55901,-1.625185 -0.85094,1.073774 -0.60863,5.083056 0.67852,5.465185 1.5248,0.452691 6.64697,0.701187 7.75951,-0.411357 0.59853,-0.59853 0.50742,-1.580405 0.51283,-2.366914 0.0123,-1.780855 0.95199,-8.154077 -0.74146,-9.1321 -1.95036,-1.126391 -7.06176,-0.468579 -9.17828,-0.4679 -1.31752,4.2e-4 -3.14821,-0.521846 -4.69829,0.200986 -0.80101,0.373535 -0.72228,1.089263 -0.74023,2.039258 -0.0339,1.792861 -0.001,3.934224 -0.001,5.759756 -1.4e-4,1.97332 -0.10518,2.473408 -0.26569,4.16 -0.17431,1.831694 -0.60922,5.5248 0.95309,6.206914 1.07654,0.470019 3.04972,0.193086 4.4326,0.193086 h 11.51999 c 1.1535,0 3.98424,0.523701 4.60692,-0.741729 0.50783,-1.032041 0.14504,-2.618418 0.22172,-3.738271 0.21263,-3.104951 0.29136,-6.159126 0.29136,-9.28 V 30.08 19.52 c 4.5e-4,-1.143423 -0.25701,-3.0727 0.80444,-3.831108 1.23547,-0.882749 4.12115,-0.328892 5.59556,-0.328892 3.55262,0 7.71039,0 11.2,0 1.06034,0 1.77528,-0.08121 2.87383,0.01877 1.37975,0.125561 1.55166,0.764477 1.6,1.902714 0.071,1.671944 -0.2323,2.584556 -0.30123,4.158521 -0.13543,3.092939 0.23924,7.508574 -0.0314,10.55852 -0.0932,1.050782 -0.39429,1.576519 -1.28,1.819751 -2.17531,0.597373 -8.2924,0.11503 -10.86123,0.101485 -0.97861,-0.0052 -2.01867,0.09687 -2.68691,-0.557285 -0.65703,-0.643179 -0.51109,-1.679029 -0.51309,-2.642471 -0.006,-2.915816 -0.44785,-6.682295 0.32,-9.28 1.5595,0.428779 1.74446,0.107681 3.2,0.03654 1.01854,-0.04978 3.09266,-0.110532 4.15383,-0.01753 1.63319,0.143134 1.59629,1.046928 1.60592,2.540986 0.007,1.02998 0.31336,2.510317 -0.74146,3.189629 -1.01707,0.655 -1.87489,0.118623 -2.27137,-0.675557 -0.31186,-0.624663 -1.8369,-3.23876 -2.87383,-1.132344 -0.48988,0.995157 -0.51545,4.347696 0.32,5.00938 1.10533,0.875435 3.87537,0.331182 5.24691,0.328892 1.08559,-0.0018 2.28311,0.151016 3.00692,-0.557529 0.93164,-0.912007 0.51308,-3.407984 0.51308,-4.882471 0,-1.555859 0.65889,-4.959741 -0.32888,-6.206914 -0.65409,-0.82527 -2.55067,-0.513087 -3.51157,-0.513087 -2.94443,0 -8.50779,-1.081602 -11.09828,0.193086 -0.92072,0.453057 -0.73992,1.810508 -0.74172,2.686914 -0.005,2.555381 0,5.123452 0,7.68 v 32.96 c 0,3.002959 -0.32115,5.967583 -0.32,8.96 3.6e-4,0.920449 -0.26906,2.53209 0.74172,3.005429 3.39666,1.590625 2.45828,-6.165185 2.45828,-7.805429 V 43.2 c 1e-4,-1.389317 0.14721,-3.158721 0.29754,-4.478521 0.11864,-1.041528 0.22936,-1.964013 1.60987,-1.855307 1.91422,0.150732 1.29259,3.857461 1.29259,5.053828 0,0.991533 0,1.555981 0,2.56 0,1.920566 0,4.709453 0,6.72 v 14.72 c 0,1.57207 -0.80408,9.176279 1.87409,8.120742 1.00652,-0.396699 0.98691,-1.429131 1.00443,-2.360742 0.0284,-1.510869 -0.0159,-3.554541 0.003,-5.12 0.0218,-1.834053 0.29788,-2.505454 0.31754,-4.16 0.0612,-5.143223 0.001,-11.393843 0.001,-16.64 0,-1.710108 -0.8272,-8.726909 1.2926,-8.893828 2.62266,-0.206519 1.5874,3.861162 1.5874,6.013828 0,1.212959 0,1.97293 0,3.2 0,6.148179 0,13.573457 0,19.84 0,1.957822 -1.15814,8.650732 1.90272,8.266421 2.22656,-0.279561 1.29728,-6.768672 1.29728,-8.586421 V 51.2 c 0,-1.918799 0,-4.566206 0,-6.4 0,-1.004024 0,-1.568457 0,-2.56 0,-2.190947 -0.85294,-5.402471 1.6,-5.402471 2.51985,0 1.6,6.412276 1.6,8.282471 V 67.2 c 0,2.003183 -0.26488,3.825444 -0.11851,5.433828 0.071,0.780019 0.34047,1.307778 1.11974,1.498271 0.96096,0.234903 1.65702,-0.167456 1.83137,-1.190864 0.63178,-3.708223 0.0474,-8.345991 0.0474,-12.141235 0,-2.401328 -0.13189,-5.336035 0.0286,-7.68 0.0842,-1.228858 0.28883,-1.917949 0.2889,-3.2 8e-5,-1.157666 -0.19742,-1.761026 -0.17187,-2.88 0.0221,-0.966509 0.16094,-1.532119 0.1731,-2.56 0.0655,-5.53645 10e-4,-12.272256 10e-4,-17.92 0,-1.367046 0,-3.168496 0,-4.48 0,-1.235606 -9e-5,-1.835137 0,-3.2 1.2e-4,-1.655317 -0.41324,-3.25165 1.29729,-3.466421 0.49627,-0.06231 1.00826,-0.02571 1.38963,0.275313 0.57412,0.453164 0.49863,1.224834 0.5116,1.911352 0.0285,1.50959 10e-4,3.265518 10e-4,4.799756 0,3.74355 0.0365,8.166924 -10e-4,11.84 -0.035,3.401675 -0.31877,6.07708 -0.31877,9.92 0,2.137363 -0.28785,4.971709 0.0474,7.033828 0.16425,1.010303 0.75005,1.687954 1.85531,1.485679 1.95625,-0.358018 1.29728,-4.207124 1.29728,-5.639507 0,-1.46293 0,-2.615313 0,-4.16 0,-4.003242 0,-8.719058 0,-12.8 0,-2.499888 -0.13845,-5.560186 0.0286,-8 0.0805,-1.175684 0.25925,-1.760181 0.28668,-2.88 0.0267,-1.088272 -0.42233,-3.339653 1.01183,-3.736787 3.17873,-0.88022 2.23031,4.576225 2.18817,6.296787 -0.0272,1.112192 -0.20563,1.696362 -0.28668,2.88 -0.11471,1.675132 -0.0286,2.551987 -0.0286,4.16 0,5.008315 0,10.323486 0,15.36 0,1.806328 -1.07589,9.223091 1.90272,8.532099 2.11129,-0.489785 1.29728,-5.24833 1.29728,-6.932099 v -22.4 c 0,-1.298941 0,-2.909287 0,-4.16 0,-1.072871 -0.51982,-2.695811 0.51309,-3.511108 0.69344,-0.547344 2.04795,-0.493223 2.49383,0.412836 0.70662,1.435909 0.19308,4.056099 0.19308,5.658272 0,4.141811 0.0471,9.058135 -0.001,13.12 -0.0142,1.197949 -0.15916,1.773564 -0.26445,2.88 -0.17791,1.869424 -0.0543,4.743271 -0.0543,6.72 0,1.783335 -0.71586,9.250859 2.19286,8.120742 2.12843,-0.826958 1.00714,-6.653618 1.00714,-8.760742 0,-2.474785 0,-3.288193 0,-5.44 0,-2.52356 -0.0294,-5.739741 10e-4,-8.32 0.021,-1.765518 0.27657,-2.308193 0.31409,-3.84 0.0321,-1.3104 0.005,-3.113755 0.005,-4.48 0,-1.589727 -0.51416,-4.221607 0.19309,-5.658272 0.38447,-0.78103 1.336,-0.834404 1.94543,-0.547158 0.99201,0.467573 0.74094,1.780601 0.74148,3.00543 10e-4,2.928081 0,6.051934 0,8.96 0,1.45145 0,2.127964 0,3.52 0,2.981255 0,6.561987 0,9.6 v 19.52 c 0,2.73124 0.0185,5.603164 -2.5e-4,8.32 -0.006,0.901406 0.0504,1.974292 -0.74147,2.502715 -0.84941,0.566806 -1.66601,0.375424 -2.77828,0.377285 -3.17416,0.0053 -7.84037,0.466367 -10.86123,-0.04741 -1.30289,-0.221587 -1.44369,-1.334161 -1.5642,-2.512593 -0.20845,-2.038477 -0.91093,-8.306592 0.77383,-9.591113 1.0301,-0.785376 6.52004,-0.679014 7.7642,-0.135801 0.99981,0.436523 0.986,1.28206 1.00592,2.366914 0.0212,1.15584 0.19264,1.956328 -0.3274,2.832593 -0.41022,0.691225 -1.34383,1.152153 -2.1294,0.672348 -0.9375,-0.572597 -1.65705,-4.8198 -3.61283,-2.351855 -0.44672,0.563696 -0.324,1.327885 -0.32863,2.046914 -0.009,1.319956 -0.46838,2.68269 1.00715,3.326914 1.43617,0.627046 6.91566,0.843857 8.07951,-0.32 0.77187,-0.771885 0.51303,-2.311782 0.51308,-3.326914 1.6e-4,-2.370274 1.10309,-7.031079 -0.51308,-8.311113 C 281.61689,55.414863 279.4773,55.68 278.39999,55.68 c -2.67502,0 -10.69216,-1.403701 -11.15259,1.298764 -0.17155,1.00689 -0.0474,2.655118 -0.0474,3.821236 0,3.037724 0.001,6.261914 0,9.28 -4.6e-4,1.203169 -0.59679,3.072568 0.45038,3.938271 0.89949,0.743618 3.11707,0.221333 4.34962,0.221729 4.00584,0.0013 7.86123,0.284472 11.84,0.319013 1.28524,0.01115 3.99514,0.45209 4.79112,-0.740742 1.10613,-1.657632 0.32888,-5.925434 0.32888,-7.898271 0,-2.021192 0,-2.807256 0,-5.12 0,-1.890069 -0.12007,-4.247617 0.0543,-6.08 0.13604,-1.429473 0.2651,-2.307437 0.26568,-3.84 0.003,-6.85273 0,-14.219624 0,-21.12 V 19.52 c 0,-1.056836 -0.34367,-2.79773 0.32889,-3.646914 C 290.3799,14.899604 293.21683,15.36 294.39999,15.36 h 11.52 c 1.32053,0 3.29543,-0.339751 4.37828,0.193086 1.36135,0.669873 0.74164,2.121191 0.74172,3.326914 1.2e-4,1.807764 0,3.922109 0,5.76 0,2.131309 0.0381,4.627417 -10e-4,6.719756 -0.0201,1.065073 0.0222,1.832798 -1.00592,2.138515 -1.76853,0.525865 -2.95527,0.344444 -4.4326,0.409136 -2.07013,0.09065 -7.75123,0.849497 -9.49828,-0.316299 -0.84273,-0.562348 -0.73541,-1.670342 -0.74146,-2.551108 -0.007,-1.017388 -2.6e-4,-1.573076 -2.6e-4,-2.56 0,-1.387236 -0.34783,-5.211636 0.37729,-6.298272 1.00834,-1.511079 5.68498,-1.021269 7.60394,-0.694321 1.20461,0.205235 1.27147,0.822163 1.29729,2.192837 0.0253,1.3452 0.3359,3.084707 -1.00567,3.645186 -0.62834,0.262509 -1.45031,0.199619 -1.86396,-0.318516 -0.50393,-0.631221 -0.13301,-1.814814 -0.84197,-2.356543 -1.96104,-1.498462 -2.36692,1.783555 -2.36692,2.869629 0,1.000444 -0.0655,2.332451 0.74172,2.871108 1.51147,1.008599 6.8611,0.979912 8.0252,-0.184194 1.17074,-1.170747 0.51711,-6.809927 0.51308,-8.766914 -0.002,-0.957529 0.12846,-2.042998 -0.51308,-2.551108 -1.07039,-0.847759 -3.501,-0.293619 -5.24692,-0.333584 -0.7909,-0.01811 -1.454,-0.132593 -2.24,-0.132593 -0.78607,0 -1.44904,0.114487 -2.24,0.132593 -1.22422,0.02802 -2.93302,-0.243775 -4.11259,0.10642 -1.27895,0.379698 -1.00692,2.034956 -1.00741,3.098272 -0.001,3.18728 0.005,6.416392 0,9.6 -0.003,1.750942 -0.23455,2.496289 -0.3074,4.16 -0.39785,9.086103 -0.0126,18.998203 -0.0126,28.16 0,2.284189 -1.06314,9.434746 0.74149,10.544936 1.0076,0.619864 1.80207,-0.109404 2.03679,-0.963701 0.36286,-1.320654 0.10172,-3.665151 0.10172,-5.101235 0,-4.257608 -0.28045,-8.933565 0.08,-13.12 0.14069,-1.634058 0.20674,-2.380039 0.23555,-3.84 0.0329,-1.665894 0.004,-4.020444 0.004,-5.76 0,-1.76002 -0.98361,-8.300034 1.29729,-8.586421 2.95896,-0.371519 1.90271,5.431777 1.90271,7.306421 0,1.734072 0.0359,4.101416 -0.005,5.76 -0.0339,1.382646 -0.27219,1.950781 -0.31063,3.52 -0.0501,2.04667 -0.005,4.714512 -0.005,6.72 0,2.190381 0,3.591875 0,6.08 0,1.729985 -1.03054,9.478877 2.19285,8.080986 1.64229,-0.712202 1.00715,-4.228887 1.00715,-5.840986 0,-1.111446 0,-1.708321 0,-2.88 0,-6.13272 0,-13.877705 0,-20.16 0,-2.208189 -0.31418,-5.21897 0.0474,-7.341235 0.15398,-0.903833 0.62972,-1.261236 1.55259,-1.261236 0.92287,0 1.39862,0.357388 1.5526,1.261236 0.30037,1.763002 0.0474,4.229169 0.0474,6.061235 0,1.807617 0,4.362578 0,6.08 0,1.103032 0,1.692007 0,2.88 0,3.964687 0,8.757744 0,12.8 0,1.748203 -0.87562,8.760385 1.58741,8.490864 1.89521,-0.207388 1.18449,-2.640269 1.38396,-4.330864 0.78564,-6.658496 0.22863,-17.002608 0.22863,-24.64 0,-2.048389 -0.0367,-4.38229 10e-4,-6.399756 0.0191,-1.011426 -8.2e-4,-2.07477 1.2958,-2.174072 3.05994,-0.234346 1.95596,8.12855 1.89803,10.493828 -0.0274,1.119765 -0.20618,1.704336 -0.28668,2.88 -0.33766,4.930708 -0.0286,11.258613 -0.0286,16.32 0,1.713481 -0.42615,5.574297 0.19309,6.992593 0.88762,2.032958 4.01349,1.007407 6.20691,1.007407"
       id="path1" />
  </g>
</svg>
