<svg xmlns="http://www.w3.org/2000/svg" viewBox="0 0 305.953 138.523"><path d="M.861 137.368c0-33.616.32-67.198.32-100.8 0-8.653-.32-17.26-.32-25.92 0-2.111-1-7.728.329-9.406C2.193-.025 6.727.728 8.221.728h129.6c1.578 0 6.657-.767 7.671.514 1.054 1.33.329 5.188.329 6.846v114.56c0 1.649.802 6.321-.742 7.352-1.19.794-3.645.326-5.018.328-3.79.006-7.736-.23-11.52.029-7.005.48-14.073-.029-21.12-.029-10.89 0-21.741.32-32.64.32-14.841 0-29.687-.32-44.48-.32h-10.88c-1.025 0-3.12.384-3.831-.513-.963-1.216-.329-4.689-.329-6.207V21.848c0-1.404-.675-5.45.513-6.39 1.23-.974 4.69-.33 6.207-.33h101.76c1.628 0 5.528-.715 6.847.33 1.138.9.507 4.439.513 5.75.026 5.441-.009 10.868 0 16.32.03 19.276.32 38.617.32 57.92v14.4c0 1.372.525 4.21-.513 5.247-.824.824-2.575.513-3.647.513-3.413 0-6.828-.039-10.24.001-13.525.162-27.09.32-40.64.32h-39.68c-.783 0-2.336.276-2.824-.495-.849-1.341 4.061-1.106 4.744-1.106h16.32c17.939 0 35.826-.32 53.76-.32h14.4c1.539 0 4.344.549 5.658-.328 1.297-.866.742-4.05.742-5.432v-85.76c0-1.327.547-4.171-.327-5.24-1.5-1.832-1.593 2.722-1.593 3.32v14.4c0 18.655.828 37.39.013 56-.218 4.98.307 10.038.307 15.04 0 1.428.564 4.49-.513 5.567s-4.14.513-5.567.513h-15.36c-16.328 0-32.628.32-48.96.32h-13.44c-1.707 0-4.76.245-6.298-.513-1.224-.602-.742-3.176-.742-4.287v-65.92c0-1.141-.418-3.344.329-4.286 1.156-1.46 6.87-.834 8.631-.834 8.438 0 17.19-.24 25.6.292 7.205.456 14.816-.292 22.08-.292.912 0 6.701.484 6.425-.905-.207-1.041-2.479-.695-3.225-.695h-57.92c-.897 0-2.552-.293-3.191.514-.745.94-.329 3.156-.329 4.286v11.2c0 14.411-.32 28.81-.32 43.2v12.8c0 2.111.236 4.075-1.28 5.44-1.391-4.706-.32-12.752-.32-17.92v-55.68c0-1.331-.534-4.158.329-5.246.742-.937 3.086-.514 4.151-.514h66.56c1.14 0 3.334-.412 4.288.33 1.443 1.12.832 5.11.832 6.71v44.48c0 2.276.961 7.267-.329 9.142-.605.88-1.918.773-2.871.778-2.77.015-5.55 0-8.32 0h-28.8c-2.232 0-8.656 1.097-10.348-.322-1.125-.945 1.184-1.266 1.708-1.276 2.87-.054 5.769.064 8.64-.006 9.373-.23 18.764-.315 28.16-.315 2.12 0 8.19 1.023 9.727-.513.72-.72.513-2.071.513-3.007v-50.56c0-.877.318-2.593-.507-3.173-1.31-.92-1.408 1.55-1.413 2.213-.023 3.303 0 6.615 0 9.92v39.36c0 .95.287 2.555-.329 3.364-1.366 1.792-8.17.796-10.231.796h-26.88c-2.089 0-7.798.983-9.4-.328-1.028-.84.37-1.509 1.086-1.574 2.116-.192 4.561-.018 6.714-.018h26.88c2.041 0 8.552 1.04 9.94-.514 1.501-1.681.641-7.29.391-9.406-.793-6.721.229-13.734.229-20.48 0-5.859-.38-11.73-.319-17.6.014-1.296.122-2.032.062-3.2-.035-.678.138-2.064-.557-2.504-1.44-.911-1.106 3.82-1.106 4.424v38.08c0 2.148.877 6.731-.329 8.538-1.042 1.562-6.26.742-7.991.742h-20.16c-1.75 0-6.077.787-7.487-.33-1.299-1.028-.513-5.81-.513-7.35v-9.6c0-1.01-.336-2.807.329-3.647.782-.987 4.265-.661 5.412-.466 1.66.283 1.299 2.192 1.299 3.473 0 2.291-1.106 8.554.329 10.366.841 1.063 3.9.514 5.111.514 4.545 0 11.309.861 15.633-.422 1.732-.514 1.007-4.572 1.007-5.978 0-5.561.32-11.075.32-16.64 0-1.254.617-4.624-.507-5.413-1.744-1.224-1.413 4.577-1.413 5.413v15.04c0 1.427.564 4.49-.513 5.566-1.503 1.503-7.338.514-9.407.514-1.677 0-7.208.88-8.311-.514-.62-.783-.329-2.395-.329-3.326 0-2.593.943-7.51-.193-9.819-.678-1.378-7.86-1.085-9.36-.64-1.58.47-.98 3.42-1.012 4.699-.11 4.49.11 8.945 0 13.44-.016.668-.153 5.546-1.42 4.743-1.008-.637-.495-3.717-.495-4.743v-14.72c0-1.308-.595-4.543 1.007-5.019 2.714-.805 6.708-.101 9.553-.101.945 0 2.547-.29 3.327.328.692.548.511 1.765.513 2.552.005 2.559 0 5.12 0 7.68 0 1.116-.347 3.016 1.007 3.418 2.834.841 7.2.103 10.193.102 1.014 0 2.547.224 3.191-.742.641-.96.329-2.627.329-3.738v-17.28c0-.819.263-2.312-.507-2.853-1.74-1.222-1.413 4.023-1.413 4.773v13.76c0 1.826.469 4.249-1.921 4.46-1.656.148-7.577.837-8.63-.494-2.486-3.139 1.84-10.22-.658-13.373-.727-.919-3.088-.513-4.151-.513-3.764 0-9.17-.962-12.753.101-1.602.476-1.007 3.71-1.007 5.019v16c0 .732.4 6.446-1.413 5.383-1.144-.67-.507-4.856-.507-6.023 0-5.54.452-11.076.315-16.64-.036-1.501-1.127-4.773.692-5.567 1.308-.571 3.344-.193 4.753-.193h11.2c1.162 0 4.006-.479 4.791.513 1.407 1.776.329 7.787.329 10.047 0 .958-.324 2.847.513 3.51.845.67 2.62.336 3.647.33.876-.007 2 .082 2.551-.742.68-1.016.615-3.168.644-4.378.086-3.516.005-7.044.005-10.56 0-1.282.592-4.911-.742-5.567-1.926-.948-5.749-.193-7.898-.193h-19.2c-1.678 0-7.22-.865-8.311.513-1.046 1.32-.329 5.207-.329 6.847v38.72c0 .88.476 6.279-1.197 5.649-1.368-.515-.723-4.756-.723-5.97 0-6.309.32-12.584.32-18.88 0-6.95-.32-13.862-.32-20.8 0-1.76-.79-6.075.329-7.486 1.14-1.44 7.183-.513 8.951-.513h26.24c2.598 0 5.427.209 7.999-.02.619-.054 2.393-.685 1.39-1.573-1.525-1.348-7.363-.327-9.389-.327h-33.92c-.842 0-2.278-.236-2.871.513-1.26 1.59-.329 6.764-.329 8.767v41.28c0 .731.209 6.191-1.413 4.879-1.196-.967-.507-4.732-.507-6.16 0-5.99.32-11.942.32-17.92 0-7.911-.32-15.771-.32-23.68 0-2.123-.918-7.06.329-8.813.608-.855 1.96-.658 2.871-.605 2.562.146 5.114.139 7.68.139 9.597 0 19.18-.32 28.8-.32 2.446 0 4.916.101 7.359-.006.544-.024 2.414-.412 1.39-1.272-1.651-1.384-7.867-.322-10.029-.322h-36.8c-.842 0-2.278-.236-2.871.513-1.296 1.636-.329 7.024-.329 9.087v45.12c0 1.396-.644 5.475.513 6.39.953.755 3.127.33 4.287.33h10.88c14.396 0 28.786-.32 43.2-.32h12.48c1.238 0 3.687.433 4.471-.742 1.49-2.233.329-8.417.329-11.098v-57.92c0-1.737.97-8.215-.507-9.253-1.614-1.133-1.413 2.812-1.413 3.493v69.12c0 1.135.357 3.096-.513 3.967-1.4 1.4-6.535.513-8.447.513h-24.64c-7.76 0-15.633-.195-23.36.211-1.507.08-7.142.928-7.944-.614-.85-1.634 5.735-1.197 6.664-1.197h47.68c1.912 0 7.047.887 8.447-.513.823-.824.513-2.575.513-3.647 0-3.534-.41-7.023-.28-10.56.537-14.686-.04-29.438-.04-44.16v-12.48c0-1.078.426-3.408-.513-4.151-1.03-.816-3.656-.33-4.927-.33h-64.64c-5.078 0-10.317-.366-15.36.23-1.201.141-3.971-.432-4.791.604-.863 1.089-.329 3.915-.329 5.247v84.8c0 .593-.066 5.995-1.593 4.268-.856-.968-.327-3.675-.327-4.908v-14.08c0-18.654.32-37.325.32-56 0-5.352-.32-10.651-.32-16 0-1.263-.573-4.57.513-5.431 1.09-.863 3.915-.33 5.247-.33h85.76c.594 0 5.995-.065 4.268-1.592-1.01-.894-3.936-.327-5.228-.327h-86.4c-1.336 0-4.56-.584-5.538.513-.722.81-.222 2.947-.222 3.967v93.44c0 .841-.23 2.283.513 2.87 1.24.982 4.67.33 6.207.33h102.08c1.564 0 5.7.63 6.847-.513 1.198-1.195.513-4.95.513-6.527v-18.88c0-21.882-.32-43.733-.32-65.6v-16.96c0-1.506.643-4.98-.329-6.207-.951-1.202-4.99-.514-6.391-.514H15.261c-1.496 0-6.039-.74-7.031.514-1.154 1.456-.329 5.984-.329 7.806v21.76c0 23.547.32 47.147.32 70.72v19.84c0 2.228-.789 6.223.193 8.219.75 1.525 6.265.741 7.807.741 8.016 0 15.982.32 24 .32h105.6c1.327 0 2.865.044 4.16-.02.817-.04 1.983.005 2.687-.608 1.545-1.344.513-6.223.513-8.332v-24c0-25.527-.32-50.933-.32-76.48V8.728c0-1.878-.774-5.984.329-7.55.832-1.184 4.126-.45 5.431-.45h16.32c22.428 0 44.802.32 67.2.32 13.544 0 27.124.315 40.64.32 3.427.002 6.829-.318 10.24-.32 1.221 0 3.015-.302 3.967.595.807.76.513 2.527.513 3.565v53.12c0 17.212.722 35.014.64 52.16-.007 1.479-.259 2.375-.306 3.84-.08 2.475.248 3.887.301 6.08.042 1.715.014 3.932.004 5.76-.006 1.203.085 2.49-.62 3.419-1.298 1.711-5.23.741-7.38.741h-115.2c-1.658 0-5.516.726-6.846-.328-1.125-.892-.513-4.721-.513-6.072v-18.56c0-22.62-.32-45.208-.32-67.84v-16.32c0-1.31-.608-4.863.513-5.75 1.366-1.083 5.466-.33 7.167-.33h99.84c2.117 0 5.427-.54 7.312.282 1.174.513 1.005 1.805 1.008 2.918.006 3.093 0 6.188 0 9.28v39.04c0 12.068.32 24.088.32 36.16v8.96c0 1.007.26 2.554-.514 3.327-1.076 1.077-4.139.513-5.566.513-5.334 0-10.667-.025-16 0-18.637.09-37.321.32-56 .32h-14.08c-1.306 0-4.187.552-5.229-.322-1.511-1.269 3.128-1.278 3.629-1.278h14.4c18.643 0 37.33-.32 56-.32h15.36c1.427 0 4.49.564 5.566-.513.774-.773.514-2.32.514-3.327v-8.96c0-10.961-.323-22.033-.32-32.96 0-1.034.031-1.913.044-2.88s-.04-1.846-.044-2.88c-.036-11.061 0-22.21 0-33.28v-8.96c0-.912.297-2.322-.495-2.823-.94-.596-1.092 1.227-1.104 1.864-.052 2.756-.001 5.559-.001 8.32v33.92c0 12.496.32 24.942.32 37.44v9.28c0 1.006.26 2.553-.513 3.326-1.503 1.503-7.338.513-9.407.513h-75.84c-1.09 0-3.092.46-4.058-.063-1.172-.633-.742-3.005-.742-4.097 0-4.217-.401-8.619-.053-12.8.408-4.9-.202-9.829-.264-14.72-.116-9.276-.003-18.562-.003-27.84v-10.88c0-1.141-.417-3.344.33-4.286.634-.802 2.289-.513 3.19-.514h55.68c1.69 0 3.286.306 4.16-1.28-4.052-1.198-10.602-.32-15.04-.32h-45.44c-1.141 0-3.344-.417-4.286.33-.895.708-.514 2.818-.514 3.83v10.88c0 15.06.32 30.07.32 45.12v12.8c0 .686.213 4.635-1.413 3.493-1.422-1-.507-7.568-.507-9.253v-28.48c0-9.917.117-19.843 0-29.76-.03-2.508-1.634-8.61.01-10.686.756-.956 3.358-.514 4.47-.514h66.56c1.145 0 3.354-.41 4.288.33 1.192.944.513 4.972.513 6.39 0 6.513.32 13.031.32 19.52v24.96c0 2.35.984 7.531-.33 9.499-.6.899-1.923.74-2.87.741-2.773.006-5.547 0-8.32 0h-28.8c-2.176 0-8.376 1.065-10.028-.322-1.126-.944 1.183-1.266 1.708-1.276 2.868-.054 5.769-.001 8.64-.001 9.351 0 18.792-.32 28.16-.32 2.12 0 8.19 1.023 9.727-.513.72-.72.512-2.07.513-3.007v-8c-.018-10.959-.32-21.975-.32-32.96v-9.28c0-.877.318-2.593-.507-3.172-1.756-1.233-1.413 4.319-1.413 5.092 0 6.216.32 12.404.32 18.56v22.08c0 2.137.866 6.72-.33 8.54-1.404 2.138-8 1.06-10.23 1.06h-26.88c-2.1 0-7.773 1.005-9.401-.327-1.182-.968.694-1.556 1.402-1.587 2.635-.116 5.355-.006 7.999-.006h25.92c2.016 0 7.618.956 9.087-.513.773-.774.513-2.32.513-3.327v-8.32c0-10.11-.32-20.265-.32-30.4 0-2.288 1.13-8.937-.323-10.668-1.168-1.392-1.272 2.46-1.279 2.988-.048 4.038-.65 8.103-.264 12.16.842 8.85.266 17.984.266 26.88 0 1.857.909 7.85-.742 8.951-1.315.877-4.12.33-5.658.33h-25.28c-1.065 0-3.077.375-3.967-.33-.981-.777-.5-3.339-.65-4.47-.507-3.872-.183-7.939-.183-11.84 0-1.16-.426-3.335.329-4.288.798-1.007 4.498-.676 5.732-.465 1.64.279 1.299 2.174 1.299 3.472 0 2.303-1.096 8.569.329 10.367.835 1.054 3.883.513 5.11.513 4.533 0 11.028 1.083 15.342-.102 1.908-.524 1.299-3.786 1.299-5.338 0-3.406.038-7.193-.001-10.56-.025-2.059-.319-3.126-.32-5.44v-3.2c0-.954.423-3.204-.493-3.784-1.337-.845-1.106 4.931-1.106 5.704v15.68c0 1.496.603 4.496-1.299 5.018-3.722 1.022-8.917.102-12.781.102-1.061 0-3.402.432-4.151-.513-1.4-1.768-.329-7.815-.33-10.047 0-1.07.313-2.772-.74-3.437-1.316-.83-4.72-.419-6.3-.373-.965.029-2.56-.131-3.19.757-.768 1.08-.33 3.382-.33 4.653v11.84c0 .737.393 7.052-1.408 5.732-.752-.55-.237-2.088-.204-2.852.111-2.558-.307-5.113-.307-7.68v-9.28c0-1.168-.335-2.984.193-4.058.497-1.011 2.086-.741 3.007-.742 2.772 0 7.986-1.024 10.458.193 1.054.519.742 2.346.742 3.327 0 2.212-1.101 8.753.513 10.367.776.776 2.335.513 3.327.513 2.877 0 6.834.653 9.581-.102 1.86-.51 1.299-3.506 1.299-5.018v-14.72c0-1.176.571-4.335-.507-5.092-1.74-1.223-1.413 4.022-1.413 4.772 0 4.412.053 10.126.003 14.08-.018 1.434.484 3.772-1.61 4.113-1.616.262-7.916.833-8.945-.466-2.486-3.14 1.84-10.22-.657-13.374-.728-.918-3.089-.513-4.152-.513-3.672 0-8.937-.936-12.432.102-1.602.476-1.008 3.71-1.008 5.018v16c0 .781.355 6.42-1.413 5.384-1.166-.683-.507-4.815-.507-6.024v-16.32c0-1.308-.62-4.853.514-5.751.94-.745 3.156-.329 4.286-.329h11.84c1.284 0 3.96-.505 4.792.742 2.89 4.332-3.722 13.99 4.168 13.978.916 0 1.997.145 2.779-.377 1.151-.769.741-3.176.741-4.423v-12.48c0-1.077.426-3.407-.513-4.151-1.487-1.178-6.245-.329-8.127-.329h-19.2c-2.131 0-5.98-.75-7.898.193-1.003.494-.741 2.083-.742 3.007v38.72c0 2.503 1.126 8.593-1.28 9.92-1.18-3.992-.32-9.279-.32-13.44v-36.8c0-.975-.33-2.75.742-3.278.925-.455 2.465-.242 3.418-.242h29.76c2.71 0 9.797 1.265 11.2-1.28-3.17-.937-7.744-.32-11.2-.32h-32.64c-.841 0-2.278-.236-2.87.513-.578.73-.33 2.135-.33 3.007v8c0 10.356.063 20.708.316 31.04.077 3.154.232 6.472-.18 9.6-.081.617.058 3.124-1.041 2.905-1.309-.26-.695-5.377-.695-6.425v-21.44c0-7.05-.182-14.091-.275-21.12-.024-1.756-.846-6.06.284-7.487.597-.753 2.034-.512 2.871-.513h36.8c2.289 0 4.773.182 7.039-.019.62-.055 2.394-.686 1.39-1.573-1.6-1.415-7.893-.328-10.029-.328-9.223 0-19.004 1.32-28.16.183-2.848-.354-5.772-.184-8.64-.183-.837 0-2.274-.24-2.87.513-1.26 1.59-.33 6.776-.33 8.767v45.12c0 1.39-.723 5.806.742 6.527 1.288.634 3.609.193 5.018.193h65.92c1.415 0 3.36.378 4.286-.742.897-1.085.195-4.011.194-5.338v-10.24c0-14.94-.32-29.882-.32-44.8v-13.12c0-1.104.459-3.774-.506-4.452-1.71-1.2-1.414 2.695-1.414 3.492v13.12c0 14.798.32 29.655.32 44.48 0 3.746.319 7.472.32 11.2 0 1.135.357 3.097-.513 3.967-.823.823-2.574.513-3.647.513h-57.6c-.845 0-2.927.353-3.463-.494-.874-1.381 5.556-1.106 6.343-1.106h47.68c2.04 0 7.272.907 8.767-.557.869-.85.513-2.783.513-3.923v-10.88c0-14.505-.32-28.999-.32-43.52v-12.16c0-1.077.426-3.407-.513-4.151-1.03-.816-3.656-.329-4.927-.329h-79.68c-1.214 0-4.278-.538-5.11.513-.938 1.183-.33 4.431-.33 5.887v15.36c0 18.156.32 36.268.32 54.4v15.04c0 .62-.573 5.663-1.727 3.412-.755-1.474-.193-4.318-.193-5.972v-14.72c0-17.93-.32-35.85-.32-53.76v-16.64c0-1.337-.658-4.844 1.008-5.338 2.031-.603 4.879-.102 6.992-.102h81.92c2.033 0 4.994.69 6.08-1.28-2.334-.69-5.146-.32-7.68-.32h-14.4c-17.287 0-34.609-.32-51.84-.32h-16.96c-1.505 0-4.98-.643-6.206.329-1.134.898-.514 4.443-.514 5.751v88.96c0 1.395-.56 4.443.33 5.567.944 1.192 4.972.513 6.39.513h18.88c22.41 0 44.811-.32 67.2-.32h16.96c1.483 0 4.772.602 5.887-.513 1.189-1.189.513-4.935.513-6.527v-18.56c0-15.406.047-31.011-.627-46.4-.2-4.559-.013-9.2-.013-13.76 0-1.26-.041-2.39.092-3.52.11-.93.216-1.581.227-2.56.036-3.03-.1-5.217-.29-8-.182-2.654.096-5.663-.016-8.32-.055-1.305.52-4.8-.341-5.887-1.076-1.358-5.706-.513-7.352-.513h-21.44c-24.961 0-49.909-.32-74.88-.32h-18.88c-1.535 0-5.672-.756-6.846.266-1.306 1.137-.514 5.797-.514 7.414 0 7.145-.083 14.296.001 21.44.292 24.508.32 49.066.32 73.6v19.2c.001 1.438-.454 6.122.333 7.167.774 1.028 3.651.513 4.786.513 4.574.002 9.165.32 13.76.32h41.6c3.832 0 7.691.018 11.52 0 2.682-.013 2.74-.319 5.44-.32 4.104-.002 10.98 0 15.36 0h47.68c1.211 0 3.385.335 4.151-.779 1.112-1.615.33-5.594.33-7.54 0-6.64-.32-13.195-.32-19.84 0-25.5-.32-50.97-.32-76.48V9.047c0-2.153-1.096-6.866.96-8" fill="none" stroke="#3e3b37"/></svg>