<?xml version="1.0" encoding="UTF-8" standalone="no"?>
<!-- Created with Inkscape (http://www.inkscape.org/) -->

<svg
   version="1.1"
   id="svg1"
   width="293.51923"
   height="50.777035"
   viewBox="0 0 293.51922 50.777034"
   xmlns="http://www.w3.org/2000/svg"
   xmlns:svg="http://www.w3.org/2000/svg">
  <defs
     id="defs1" />
  <g
     id="g1"
     transform="translate(-1.7105722,-34.867294)">
    <path
       style="fill:none;stroke:#44341a"
       d="M 2.2399999,84.985087 H 15.36 c 1.958428,0 4.531227,0.413379 6.381235,-0.138764 1.094494,-0.326656 1.074111,-1.572276 2.020246,-1.860987 1.199597,-0.366059 1.026946,1.498985 1.933828,1.733579 1.175032,0.30396 1.518941,-1.193325 1.463701,-1.973579 -0.136071,-1.922016 -1.249895,-1.909155 -2.839011,-1.920005 -0.980578,-0.0067 -2.201604,-0.224409 -3.025678,0.327163 -0.52597,0.352042 -0.759829,1.189219 -1.45284,1.298023 -1.136554,0.178447 -1.055924,-1.872148 -0.859753,-2.538023 0.500001,-1.697182 7.568305,-1.362124 9.131111,-0.905678 0.852509,0.248994 1.232719,1.946377 2.204196,1.441972 0.837305,-0.434736 0.951843,-2.183378 0.529878,-3.041972 -0.800183,-1.628174 -7.686679,-0.793438 -9.406914,-0.717779 -1.2571,0.05529 -2.208981,-0.163437 -3.501234,0.0279 -1.148042,0.16999 -3.206419,3.417124 -3.206419,-0.05161 0,-2.290693 2.087746,-1.920244 3.827653,-1.920244 4.175984,0 8.655391,-0.176538 12.798518,0.0062 1.234556,0.05444 2.024937,1.766758 2.881235,1.619014 1.006629,-0.173682 1.081729,-1.764278 0.858272,-2.537779 -0.487283,-1.686757 -4.561387,-1.007431 -5.978025,-1.007431 -4.77687,0 -9.982095,-0.410583 -14.713826,0.01877 -1.319095,0.119692 -1.677162,1.700957 -2.857284,1.697778 -0.885918,-0.0024 -0.976543,-1.06291 -0.976543,-1.717778 0,-3.272827 4.76643,-2.238765 7.027653,-2.238765 5.716443,0 11.936467,-0.105588 17.599753,0.0015 1.537134,0.02906 2.326258,2.093518 3.200247,1.943704 1.027754,-0.17617 1.040508,-1.779776 0.912346,-2.566421 -0.358174,-2.198478 -5.885344,-1.298788 -7.632346,-1.298788 -6.779848,0 -15.125417,-1.068139 -21.7414806,0.04741 -1.1168707,0.188318 -1.2770752,1.364297 -2.2856793,1.632347 -1.048142,0.278557 -1.2404937,-0.934178 -1.2404937,-1.679754 0,-3.130727 6.4082926,-1.92 8.6276546,-1.92 h 16.959999 c 2.603643,0 5.770781,-0.381506 8.301235,0.04741 1.039517,0.176199 1.141319,1.43462 2.020249,1.578025 1.128262,0.184085 1.230029,-1.535671 1.178272,-2.25926 -0.197862,-2.766119 -7.75231,-1.606175 -9.899756,-1.606175 -9.04862,0 -18.506536,-0.80052 -27.5138261,0.01877 -1.4779131,0.134429 -1.580335,2.018537 -2.857531,2.017781 C 2.0613851,66.540942 2.1578588,64.654032 2.2874073,63.883852 2.6815182,61.540817 10.215971,62.585087 12.16,62.585087 h 27.199999 c 1.859868,0 4.516987,-0.625942 5.905678,0.506914 0.640122,0.522193 1.565381,1.902913 2.22148,0.404197 1.456714,-3.327546 -2.392695,-3.151111 -4.607158,-3.151111 h -11.52 c -1.642246,0 -3.828244,0.362705 -5.392593,-0.101728 -1.776164,-0.52732 -1.384531,-4.115159 1.232593,-3.418272 -0.04424,2.744981 7.210105,1.6 9.28,1.6 h 25.919999 c 2.370337,0 7.987656,1.160672 7.987656,-2.238765 0,-0.777238 -0.181689,-1.903161 -1.239262,-1.772099 -1.003374,0.124346 -1.1146,1.518381 -1.995552,1.897778 -1.234502,0.53166 -3.095147,0.193086 -4.432842,0.193086 H 38.719999 c -1.923584,0 -9.170388,0.973489 -9.552593,-1.298765 -0.155874,-0.926694 -0.176088,-2.880251 1.2042,-2.712099 1.057063,0.128774 1.126132,1.52666 2.287158,1.723457 7.81927,1.325378 16.996449,0.04741 24.941234,0.04741 2.396109,0 9.147114,1.250083 8.591113,-2.545925 -0.417846,-2.852791 -2.237197,0.02523 -3.197041,0.432839 -0.846328,0.3594 -1.922749,0.193028 -2.834072,0.193086 H 40.959999 c -1.581609,0 -7.048157,0.781255 -7.578271,-1.007407 -0.230552,-0.777908 -0.349139,-2.948357 0.858518,-2.949138 1.16427,-7.55e-4 1.396428,1.886045 2.881235,2.01778 5.741291,0.509382 12.122292,-0.301238 17.918517,-0.301238 2.248814,0 7.52271,1.002886 6.991113,-2.541235 -0.106157,-0.707747 -0.612509,-1.391509 -1.382963,-0.95605 -0.898194,0.507659 -0.976783,1.292324 -2.094322,1.504199 -4.427197,0.839358 -10.734281,0.07309 -15.353827,0.07309 -1.282193,0 -4.911467,0.591826 -5.566914,-0.741728 -0.359529,-0.73149 -0.431506,-2.891265 0.76716,-2.89481 1.05097,-0.0031 1.291546,1.581943 2.565926,1.697773 3.577099,0.325135 7.575742,0.01877 11.193827,0.01877 1.419966,0 3.441475,0.379365 4.752593,-0.193086 1.00502,-0.438804 1.117871,-1.69687 0.959751,-2.668149 -0.0928,-0.570059 -0.424365,-1.283467 -1.150859,-1.058267 -0.936919,0.290425 -0.946363,1.604058 -2.020249,1.897774 -2.73502,0.748051 -6.712617,0.101909 -9.581235,0.101728 -0.913501,-5.9e-5 -2.555156,0.289863 -3.191109,-0.513086 -0.534497,-0.674858 -0.701997,-3.439507 0.631358,-3.443452 0.921572,-0.0027 1.096772,1.360669 1.966909,1.61481 2.170254,0.633872 9.353501,1.028964 9.207905,-2.132345 -0.0266,-0.577553 -0.197774,-1.400317 -0.936543,-1.402465 -0.854717,-0.0025 -1.226567,1.214419 -1.964448,1.523696 -2.296475,0.962554 -5.918047,0.07994 -5.263701,-2.959751 0.557309,-2.588901 2.446299,1.041777 3.069878,0.937778 0.893823,-0.149067 0.927392,-1.383291 1.7,-1.752099 1.375112,-0.656426 3.838261,-0.193091 5.33975,-0.193091 h 26.88 c 2.183418,0 8.017597,-1.024917 9.726913,0.328891 0.748008,0.592437 0.845528,3.003706 -0.209882,3.400493 -1.052452,0.395674 -1.184981,-1.606552 -2.156787,-1.605922 -1.565323,10e-4 -1.098799,3.330297 -0.218516,3.763452 1.048955,0.516152 3.612842,0.466631 4.602724,-0.134321 0.587539,-0.35669 0.906758,-1.391421 1.694063,-1.389131 1.139785,0.0033 1.088457,1.892363 0.768398,2.629131 -0.727509,1.674722 -7.369677,1.393462 -9.039755,0.905679 -0.870147,-0.254146 -1.045352,-1.617535 -1.966914,-1.61481 -1.263233,0.0037 -1.138809,2.459385 -0.767159,3.21481 0.56587,1.150192 2.891211,0.741728 3.966914,0.741728 2.693428,0 6.36877,0.60186 8.94124,-0.101728 1.054864,-0.288516 1.096661,-1.686226 2.020244,-1.843457 0.740329,-0.126036 1.068099,0.741552 1.149629,1.311357 0.35393,2.47332 -1.581406,2.552978 -3.471113,2.553828 -4.230029,0.0019 -8.932607,0.36127 -13.113828,-0.01877 -1.405224,-0.127722 -1.232089,-1.26955 -2.340244,-1.689631 -0.822988,-0.31198 -1.339189,0.357578 -1.458271,1.087161 -0.489185,2.997082 2.30084,2.541235 4.432344,2.541235 5.268544,0 10.753495,0.222412 15.999752,-0.0062 1.46757,-0.06394 2.05407,-1.713701 3.19876,-1.710373 1.29354,0.0038 1.12161,2.481894 0.6326,3.214817 -0.88895,1.332374 -4.32284,0.741761 -5.751113,0.741761 H 82.559998 c -1.711543,0 -5.648316,-2.115266 -5.978272,-0.936296 -1.143081,4.084365 5.14978,2.856296 7.578272,2.856296 6.95246,0 14.197167,0.295452 21.119752,-0.0062 1.46757,-0.06394 2.05408,-1.713701 3.19876,-1.710373 1.21115,0.0035 1.10352,2.180715 0.7684,2.949138 -0.81533,1.869562 -6.6544,1.007435 -8.44691,1.007435 H 79.039998 c -1.126099,0 -3.033042,0.380874 -3.968394,-0.328642 -0.572168,-0.434021 -0.509082,-1.410149 -1.246914,-1.699507 -0.843501,-0.330796 -1.338266,0.379406 -1.457285,1.086914 -0.706221,4.19822 6.073022,2.861235 8.912593,2.861235 H 100.8 c 2.83797,0 6.54131,0.458591 9.26914,-0.07309 1.2105,-0.235935 1.22211,-1.634416 2.28271,-1.742471 1.25429,-0.127788 1.37465,1.583272 1.14617,2.436793 -0.4109,1.535021 -2.14738,1.298193 -3.41802,1.298764 H 99.839997 61.119998 c -2.783549,0 -11.606713,-1.513877 -11.512348,2.238765 0.0168,0.667995 0.103232,1.715417 0.981235,1.717781 0.981753,0.0026 1.187652,-1.158941 1.98667,-1.523706 1.262305,-0.576259 3.327212,-0.192836 4.704443,-0.192836 h 24.32 c 1.873183,0 8.88664,-0.995437 9.231113,1.298765 0.109091,0.726545 -0.03944,2.427803 -1.149629,2.246667 -0.878926,-0.143403 -0.980733,-1.401826 -2.020244,-1.578025 -2.530459,-0.428916 -5.697598,-0.04741 -8.30124,-0.04741 h -17.28 c -2.482724,0 -8.400434,-1.26417 -8.312348,2.238765 0.01828,0.727056 0.184546,1.973359 1.243955,1.680742 1.001435,-0.276606 0.96562,-1.59502 1.995552,-1.897778 2.034472,-0.598052 4.876547,-0.101729 6.992841,-0.101729 h 15.04 c 1.746997,0 7.274179,-0.89969 7.632353,1.298765 0.128369,0.78791 0.115293,2.389072 -0.912598,2.566421 -0.78624,0.135654 -2.137675,-1.61541 -3.519755,-1.624939 -5.734341,-0.03954 -11.539155,-2.47e-4 -17.28,-2.47e-4 -2.074883,0 -7.027656,-1.050425 -7.027656,1.92 0,0.65471 0.09119,1.71416 0.976543,1.716543 1.180122,0.0032 1.538193,-1.578086 2.857285,-1.697778 4.834165,-0.438643 10.153467,-0.01877 15.033828,-0.01877 1.797329,0 5.518955,-0.813608 5.7558,1.605928 0.06975,0.712461 0.043,2.027764 -0.948144,2.030615 -1.10519,0.0032 -1.237886,-1.576352 -2.573828,-1.697778 -3.73002,-0.339024 -8.04418,-0.01877 -11.833828,-0.01877 -1.482246,0 -4.741929,-0.667041 -5.072593,1.298765 -0.122475,0.728125 -0.235293,2.351289 0.68815,2.595063 1.184023,0.312564 1.69436,-1.449629 2.802959,-1.659257 2.666084,-0.504146 5.888432,-0.314571 8.621484,-0.314571 1.547959,0 4.129233,-0.443691 4.431113,1.613828 0.125483,0.855264 -0.06286,2.268565 -1.20272,2.305679 -0.942256,0.03068 -1.119995,-1.322056 -1.995551,-1.577778 -1.664497,-0.486153 -3.961236,-0.101841 -5.712842,-0.101729 -1.107319,6.9e-5 -3.016362,-0.348662 -3.418271,1.007407 -0.204478,0.689927 -0.338511,3.057232 0.85852,2.857779 0.867285,-0.144507 0.958696,-1.398233 1.7,-1.7521 1.127412,-0.538179 4.946455,-0.509853 5.466665,0.548643 0.452739,0.921211 0.320171,3.211103 -1.058521,3.214814 -1.134394,0.0031 -3.158237,-3.239199 -2.888149,0.51753 0.198975,2.767622 8.340581,1.605927 10.539756,1.605927 H 108.8 c 1.17898,0 2.69929,0.266031 3.79408,-0.192842 0.74841,-0.313691 1.1025,-1.523701 1.96469,-1.523701 0.97726,0 2.03698,2.930025 3.00814,0.708887 1.41361,-3.233032 -3.38633,-4.120811 -5.47137,-2.823701 -0.63197,0.393154 -1.0228,1.777539 -1.93233,1.616543 -0.85935,-0.152114 -0.7573,-1.626831 -0.7042,-2.259014 0.20481,-2.438642 7.30097,-2.06313 9.21383,-1.504443 0.89828,0.262363 1.04008,1.617387 1.99555,1.614814 1.38747,-0.0037 1.53416,-2.313901 0.92272,-3.173086 -0.71982,-1.011494 -2.74931,-0.468852 -3.83111,-0.463701 -2.74661,0.01307 -6.62242,-0.650303 -9.23409,0.101973 -0.91625,0.263921 -1.08906,1.337773 -1.99307,1.578027 -0.90705,0.241055 -1.17544,-0.670996 -1.23383,-1.365928 -0.0679,-0.807988 -0.1046,-1.953647 0.72272,-2.360742 1.24378,-0.612021 3.317,-0.193086 4.69827,-0.193086 3.6884,0 7.88325,-0.31122 11.51382,0.01876 1.3028,0.118413 1.50778,1.700703 2.59457,1.697778 1.28937,-0.0035 1.49192,-2.00917 1.05852,-2.894814 -0.6321,-1.291675 -4.56706,-0.741724 -5.88691,-0.741724 -4.79961,0 -10.65462,-0.742849 -15.34149,0.04741 -1.06836,0.180137 -1.30461,1.437583 -2.28567,1.578023 -0.91948,0.131631 -1.19652,-0.935874 -1.22791,-1.62543 -0.13412,-2.946325 5.04248,-1.92 7.01507,-1.92 5.81408,0 12.51568,-0.500957 18.23382,0.01877 1.25017,0.113628 1.55601,1.694556 2.59457,1.660742 1.26866,-0.04131 1.38126,-1.702566 1.11259,-2.620742 -0.36799,-1.257588 -1.30652,-1.27624 -2.42123,-1.297283 -2.14453,-0.04049 -4.55006,-0.0015 -6.71975,-0.0015 -6.50269,0 -13.01837,-0.121433 -19.51976,0.0015 -1.510145,0.02855 -2.507098,2.109553 -3.437274,1.943704 -1.220078,-0.217557 -0.756563,-2.576239 -1.042969,-3.545204 2.126524,-0.628569 5.412023,-0.32 8.320003,-0.32 h 20.48 c 1.62663,0 3.86987,-0.337197 5.39408,0.101729 0.80384,0.231482 0.96823,1.153027 1.7353,1.389135 0.6173,0.190005 1.11036,-0.332285 1.28889,-0.87111 1.18659,-3.581441 -3.58902,-2.859607 -5.85827,-2.859754 -1.25503,-8e-5 -2.64298,-0.05333 -3.84,0.02864 -1.19189,0.08162 -2.20154,0.284751 -3.52,0.291111 -6.16785,0.02975 -12.38744,2.46e-4 -18.56,2.46e-4 -1.91993,0 -4.5218,-0.426052 -6.354085,0.101729 -0.857627,0.247033 -1.100986,1.388139 -1.964433,1.523703 -0.757608,0.118951 -0.897295,-0.77446 -0.942471,-1.311601 -0.323594,-3.847761 5.628359,-2.553828 8.300989,-2.553828 h 27.84 c 1.85475,0 4.2982,-0.404907 6.03284,0.101729 0.80902,0.236291 1.63332,2.479926 2.59975,1.299013 1.60804,-1.964912 -0.49838,-3.30854 -2.23259,-3.320495 -5.78621,-0.03989 -12.50867,0.501982 -18.23383,-0.01901 -1.61024,-0.146534 -2.14042,-2.217938 -1.47606,-3.398028 0.25094,-0.44574 0.76967,-0.737341 1.2842,-0.395801 0.53954,0.35814 0.49171,1.161162 1.01729,1.538272 1.20553,0.86498 4.13141,0.404651 5.5684,0.341728 9.00546,-0.394333 18.14467,-0.413894 27.2,-0.306172 2.42114,0.0288 9.90765,1.657857 9.90765,-1.920249 0,-0.633342 -0.0823,-1.715012 -0.94914,-1.717531 -0.85471,-0.0025 -1.22657,1.214438 -1.96443,1.523706 -1.32699,0.556198 -3.32042,0.192838 -4.75408,0.192838 h -24.32 c -1.89681,0 -8.84923,0.980469 -9.2326,-1.298765 -0.1743,-1.036225 -0.13029,-2.551828 0.94124,-2.667656 1.39357,-0.150637 1.40737,1.962388 3.17284,2.040249 7.86178,0.346719 16.10177,0.0062 23.99852,0.0062 2.61517,0 9.21739,1.329478 8.93975,-2.553828 -0.20157,-2.819358 -1.85029,-0.321365 -2.90567,0.120989 -0.93351,0.391244 -2.15014,0.192811 -3.15408,0.192811 h -19.2 c -1.58007,0 -7.0501,0.785396 -7.57828,-1.007407 -0.24502,-0.831709 -0.24492,-2.54096 0.88692,-2.683457 1.24219,-0.156392 1.66534,1.698213 3.17284,1.764692 5.87205,0.258953 12.02072,0.0062 17.91852,0.0062 2.51116,0 7.26976,0.80853 6.67235,-2.861235 -0.0909,-0.55826 -0.41242,-1.287168 -1.15087,-1.058267 -0.92421,0.286485 -0.96579,1.609375 -2.02024,1.897774 -4.3424,1.187645 -11.07986,0.1017 -15.66124,0.1017 -1.28213,0 -4.91156,0.590374 -5.56692,-0.741728 -0.36713,-0.746241 -0.48737,-2.852955 0.53013,-3.177774 0.99909,-0.318945 1.92498,1.554981 3.11827,1.660737 3.73026,0.330591 7.76011,0.01877 11.51852,0.01877 1.7065,0 5.51845,0.710615 5.27925,-1.92 -0.0576,-0.633061 -0.28303,-1.714116 -1.12048,-1.716538 -0.98823,-0.0029 -1.45751,1.48999 -2.56495,1.669131 -3.02628,0.489531 -6.81367,0.05378 -9.91382,0.04741 -1.4096,-0.0029 -2.71753,0.101939 -2.86099,-1.606172 -0.0514,-0.612138 -0.15582,-2.106782 0.7042,-2.259014 0.96063,-0.170044 1.401,1.411592 2.2027,1.7521 1.6259,0.690567 4.27128,0.19603 6.03409,0.193086 1.04543,-0.0017 2.86399,0.190425 3.27259,-1.033086 0.26496,-0.793394 0.0519,-2.920293 -1.03408,-2.923452 -0.78728,-0.0023 -1.10653,1.032441 -1.69406,1.38913 -0.92287,0.560274 -2.36398,0.36794 -3.42297,0.321236 -1.63633,-0.07217 -2.74958,-1.902637 -1.59408,-3.314566 1.0917,-1.333974 1.78279,1.790103 3.09852,1.053326 0.70521,-0.394898 0.7285,-1.343477 1.47432,-1.699502 2.22227,-1.060824 6.72263,-0.193094 9.17976,-0.193094 h 22.4 c 2.55949,0 5.12066,-0.01325 7.67999,2.44e-4 0.94934,0.005 2.26387,-0.104561 2.87112,0.77852 0.49596,0.721231 0.48955,2.242964 -0.17928,2.849385 -1.23172,1.116792 -1.94062,-1.878647 -3.14467,-1.040493 -0.85945,0.598281 -0.70279,2.922148 0.006,3.483452 0.83676,0.66273 2.93863,0.446822 3.96074,0.281485 1.19877,-0.193911 1.6869,-1.869878 2.85729,-1.723458 1.21332,0.151797 1.18935,2.155211 0.66,2.949137 -0.89613,1.344038 -7.68875,1.227646 -9.17557,0.548886 -0.77709,-0.354756 -1.02131,-1.526299 -1.98666,-1.523696 -0.99164,0.0027 -1.01904,1.329824 -0.96865,2.03061 0.12318,1.71333 1.46615,1.603062 2.85976,1.605928 3.08159,0.0063 6.91233,0.438118 9.91383,-0.04741 1.18723,-0.192046 1.70877,-1.867144 2.85729,-1.723457 1.10271,0.137959 1.2273,2.014043 0.7958,3.003457 -0.66569,1.526387 -3.55068,1.007407 -4.92692,1.007407 -3.61324,0 -9.02283,0.906309 -12.43259,-0.101728 -1.03014,-0.304541 -0.82573,-1.566802 -1.74272,-1.926421 -0.84072,-0.329712 -1.33701,0.371919 -1.45728,1.086914 -0.14285,0.849218 -0.1877,2.234148 0.69431,2.668149 1.43471,0.705962 4.06733,0.193086 5.65828,0.193086 4.63709,0 9.46211,0.195022 14.07975,-0.0062 1.49844,-0.06529 2.26352,-1.918303 3.49137,-1.764692 1.13318,0.141767 1.15236,1.862646 0.7958,2.683457 -0.7416,1.707168 -4.95328,1.007407 -6.52692,1.007407 H 172.16 c -1.64038,-0.0034 -4.69709,-2.924282 -5.07235,-0.621235 -0.65392,4.013371 5.32885,2.861235 7.95234,2.861235 6.8167,0 14.37932,0.579155 21.11852,-0.01876 1.56166,-0.138554 1.71135,-2.018486 2.90988,-2.01778 1.17184,6.91e-4 1.4228,1.647109 1.14963,2.641731 -0.60189,2.19156 -6.34701,1.314814 -8.21803,1.314814 H 169.92 c -1.20965,0 -2.95768,0.326331 -4.05977,-0.192839 -0.6616,-0.311665 -0.74906,-1.271052 -1.46172,-1.486914 -0.71735,-0.217288 -1.05661,0.480505 -1.15087,1.058518 -0.64347,3.945788 6.67825,2.541261 9.23236,2.541261 h 18.87999 c 2.91606,0 6.42618,0.413228 9.27383,-0.04741 1.22393,-0.197983 1.47731,-1.589583 2.59334,-1.723457 1.3683,-0.164136 1.39629,1.812385 1.15112,2.7121 -0.39133,1.436074 -1.88245,1.296262 -3.09829,1.298764 -2.98607,0.0061 -5.97377,0 -8.96,0 H 154.24 c -3.37643,0 -10.01008,-1.287136 -13.01828,0.193086 -0.74555,0.36686 -0.77404,1.310769 -0.72148,2.040989 0.0341,0.473386 0.10966,1.204663 0.70297,1.311111 0.8945,0.160486 1.39566,-1.290994 2.2027,-1.523457 1.31279,-0.378137 3.06393,-0.101726 4.43409,-0.101726 h 24.64 c 1.89548,0 8.85687,-1.0027 9.23234,1.298765 0.13601,0.833662 0.0609,2.683472 -1.20395,2.529385 -1.16404,-0.141807 -1.17759,-1.760501 -2.59457,-1.889385 -7.70507,-0.700833 -16.79621,-0.01877 -24.63382,-0.01877 -1.62803,0 -2.99348,0.07097 -4.48,0.03704 -1.94078,-0.0443 -4.09128,-0.544323 -4.15235,1.8842 -0.0153,0.609631 -0.0345,2.099367 0.95383,1.944196 0.96553,-0.151591 1.19299,-1.398615 2.25703,-1.578025 6.71252,-1.131813 15.18263,-0.04741 22.06149,-0.04741 1.72632,0 7.29992,-0.907065 7.63111,1.298765 0.12605,0.839516 -0.0679,2.334722 -1.20272,2.337778 -1.08679,0.0029 -1.29179,-1.57937 -2.59457,-1.697778 -5.71814,-0.519719 -12.41975,-0.01876 -18.23382,-0.01876 -1.39115,0 -5.82027,-0.694629 -6.52692,0.741729 -0.3381,0.687241 -0.48009,2.943381 0.52988,3.123457 1.01573,0.181103 1.52405,-1.810071 2.80321,-1.926421 4.92457,-0.447925 10.08724,-0.01877 15.03383,-0.01877 2.20876,0 6.51136,-0.798486 6.03111,2.553828 -0.10201,0.71208 -0.58026,1.615459 -1.45705,1.365928 -1.09071,-0.310415 -0.96326,-1.53584 -2.34024,-1.660991 -4.1275,-0.375147 -8.91944,-0.01877 -13.11382,-0.01877 -1.92438,0 -4.00401,-0.327507 -3.81976,2.234073 0.0515,0.716601 0.34318,1.60205 1.2326,1.365683 1.01928,-0.270889 1.15259,-1.441299 2.28567,-1.632349 2.70153,-0.455507 9.92465,-1.052553 12.35977,0.145679 0.74677,0.367461 0.77326,1.307237 0.72148,2.045679 -0.0479,0.683423 -0.31051,1.766108 -1.23137,1.626421 -0.89984,-0.136499 -0.97119,-1.390528 -1.72863,-1.7521 -1.71262,-0.817529 -5.02967,-0.206006 -6.93976,-0.192842 -0.71188,0.0049 -1.73557,-0.112832 -2.23112,0.512842 -0.54396,0.686807 -0.6439,3.089492 0.40667,3.406421 1.11743,0.337095 1.88972,-1.549961 3.11062,-1.660742 1.04715,-0.09502 3.11584,-0.359121 3.96074,0.310122 0.78301,0.62022 0.77803,2.637773 -0.21457,3.134814 -1.4074,0.704756 -1.54965,-2.153559 -2.92519,-1.196044 -0.77247,0.537714 -0.6915,2.303447 -0.31407,3.070615 0.45768,0.930283 1.81434,0.739931 2.68692,0.741728 2.55949,0.0053 5.12039,0 7.68,0 h 27.51999 c 1.26479,0 2.94077,0.29895 4.11409,-0.192842 0.81832,-0.342988 1.07484,-1.467636 1.99308,-1.578022 1.09961,-0.132192 1.82721,2.516807 2.84541,1.022964 2.16492,-3.176211 -2.97056,-4.185195 -5.01234,-3.219258 -0.65879,0.31166 -1.01211,1.895537 -1.93727,1.579502 -1.19783,-0.40917 -0.8999,-3.047227 0.0188,-3.499258 1.63684,-0.805429 4.80448,-0.196821 6.61828,-0.193086 1.94627,0.004 2.23897,1.403125 3.60149,1.62543 1.39439,0.22751 1.38269,-2.340542 0.86963,-3.086665 -0.65612,-0.954155 -2.17106,-0.777061 -3.19112,-0.778765 -3.06539,-0.0051 -6.58414,-0.239721 -9.58148,0.351358 -1.04061,0.20521 -1.30416,1.444467 -2.25703,1.594072 -0.88137,0.138379 -0.93924,-1.04687 -0.95383,-1.626665 -0.0221,-0.877984 0.0178,-1.845527 0.99975,-2.137036 1.49236,-0.443062 3.5159,-0.101729 5.07259,-0.101729 3.45967,0 7.85041,-0.517168 11.18123,0.04741 1.04721,0.1775 1.33348,1.737378 2.25852,1.577779 1.07492,-0.185459 1.1327,-2.056489 0.76717,-2.803457 -0.643,-1.31387 -4.29179,-0.741732 -5.56697,-0.741732 -4.89861,0 -10.87816,-0.759111 -15.66148,0.04741 -1.06402,0.17941 -1.2915,1.426431 -2.25703,1.578023 -0.7535,0.118306 -0.9025,-0.772793 -0.94125,-1.311358 -0.23703,-3.294138 4.68164,-2.439096 7.01976,-2.541479 5.62756,-0.246421 11.63955,-0.286138 17.28,2.47e-4 1.37799,0.06996 2.6959,2.074414 3.51975,1.932346 1.09209,-0.188325 1.10008,-2.037539 0.85853,-2.857779 -0.52257,-1.774627 -5.70455,-1.00741 -7.25828,-1.00741 h -19.52 c -1.77019,0 -5.80921,1.981817 -6.03234,0.620987 -0.63111,-3.849131 5.81682,-2.540987 8.27234,-2.540987 8.02205,0 16.68291,-0.34466 24.63852,0.0062 1.48086,0.0653 1.76879,1.713442 2.90988,1.710371 1.22172,-0.0033 1.40112,-1.753974 1.14963,-2.629382 -0.52303,-1.820674 -4.49225,-1.143804 -5.97803,-1.098518 -1.44769,0.04412 -2.20281,-0.220501 -3.84,-0.228396 -1.36027,-0.0066 -2.18701,-2.47e-4 -3.52,-2.47e-4 -3.81185,0 -8.34466,0 -12.16,0 -0.95209,0 -1.63712,0 -2.56,0 -1.06146,0 -1.78615,-0.01447 -2.88,0.04173 -1.09246,0.05613 -1.77277,0.0049 -2.88,-0.03037 -1.80691,-0.05751 -3.05525,0.26634 -4.8,-0.01136 -1.02765,2.25552 -3.81369,1.765557 -2.36691,-1.178271 0.46055,-0.9371 1.81856,-0.739942 2.68691,-0.741729 2.55956,-0.0053 5.12034,0 7.68,0 h 26.24 c 1.62963,0 4.18467,-0.502043 5.65977,0.19284 0.79574,0.374858 1.08148,2.05989 2.24469,1.379506 0.94355,-0.551909 0.82666,-2.045844 0.35826,-2.750617 -0.55276,-0.831685 -1.54705,-0.734895 -2.50272,-0.741482 -5.52945,-0.03811 -13.14339,0.872004 -18.54123,-0.04765 -1.36181,-0.232019 -2.01156,-2.908926 -0.79185,-3.764939 1.00056,-0.70221 1.4699,1.057563 2.15332,1.379507 1.45221,0.684104 4.05359,0.192839 5.65976,0.192839 h 26.56 c 2.53409,0 5.15481,0.04596 7.68,-0.0015 0.97754,-0.01836 1.98666,-0.02788 2.47209,-1.005925 0.42793,-0.862195 0.29225,-2.626074 -0.84615,-2.629138 -0.86727,-0.0023 -1.2032,1.193152 -1.99186,1.523706 -1.25048,0.524138 -3.08458,0.192839 -4.43408,0.192839 h -24.32 c -2.58761,0 -9.36314,1.372608 -9.27234,-2.238765 0.0173,-0.688295 0.18273,-1.993239 1.19086,-1.680742 1.08246,0.335542 0.99514,1.735655 2.32766,1.9521 2.43076,0.394836 5.49613,0.04741 7.99382,0.04741 h 16.96 c 1.96203,0 4.50254,0.149463 6.39852,-0.01876 1.06726,-0.0947 1.69486,-0.438237 1.87383,-1.587407 0.1547,-0.993489 0.0423,-2.663796 -1.15555,-2.313581 -0.7901,0.23101 -1.2698,1.461987 -2.32297,1.632346 -6.39314,1.034148 -14.55199,0.04741 -21.11383,0.04741 -1.97216,0 -7.79054,1.025899 -7.97976,-1.605925 -0.0496,-0.690103 -0.0254,-2.027766 0.94002,-2.03062 1.10269,-0.0033 1.4297,1.646362 2.88123,1.710373 5.97676,0.26357 12.23551,0.0062 18.23851,0.0062 2.14198,0 6.47069,0.978889 6.48692,-1.921235 0.004,-0.801819 -0.20563,-2.325557 -1.28543,-1.998516 -0.87481,0.264951 -0.98533,1.408186 -2.02026,1.660986 -2.02173,0.493851 -2.7233,0.16575 -4.46123,0.04741 -0.85871,-0.05847 -1.3906,-0.02557 -2.24,-0.003 -0.9072,0.02415 -1.64101,-5.1e-5 -2.56,-0.01778 -2.92289,-0.05638 -4.81138,0.108929 -7.36,0.283458 -1.62664,0.111391 -4.22039,0.420131 -4.69828,-1.286172 -0.24408,-0.87147 -0.26707,-2.550762 0.88692,-2.69605 1.22107,-0.153736 1.52056,1.630581 2.85754,1.752099 4.17179,0.379183 8.88994,0.01903 13.11382,0.01877 1.65776,-1.07e-4 3.71553,0.267524 3.81506,-1.92 0.0357,-0.784844 -0.19424,-1.894858 -1.22789,-1.770864 -1.01141,0.121328 -1.275,1.395923 -2.28568,1.669136 -2.55699,0.691215 -6.25918,0.101728 -8.94149,0.101728 -1.24097,0 -3.37363,0.352959 -3.96691,-1.007407 -0.40273,-0.923443 -0.38125,-3.182984 1.05828,-3.003458 1.09553,0.136626 0.95301,1.680782 1.99604,1.989137 1.99291,0.589169 8.81841,0.793789 9.18494,-1.512345 0.12064,-0.759101 0.14115,-2.339589 -0.94246,-2.342465 -0.88026,-0.0023 -1.29881,1.001347 -1.97286,1.38913 -2.0005,1.150899 -6.16355,0.578238 -5.25531,-2.504936 0.63487,-2.155132 2.1066,0.761323 3.07088,0.617529 0.89752,-0.133838 1.17471,-1.356079 1.99332,-1.703701 1.12475,-0.477627 2.60004,-0.187334 3.79408,-0.171362 9.27024,0.123984 18.56598,-0.07012 27.84,-0.07012 1.99862,0 9.45789,-1.086148 10.36692,1.007407 0.33767,0.777676 0.32355,2.333174 -0.52989,2.776294 -1.15283,0.598564 -1.35752,-1.867744 -2.70148,-1.331846 -1.06039,0.422827 -0.96098,2.714341 -0.22246,3.299253 0.85857,0.680005 2.91094,0.40358 3.96543,0.310127 1.1481,-0.101753 2.17045,-1.96332 3.11828,-1.660737 1.04699,0.334243 0.87668,2.454805 0.39432,3.177774 -0.88975,1.333549 -7.69305,1.248154 -9.17088,0.548886 -0.77225,-0.3654 -0.81731,-1.553789 -1.72864,-1.7079 -1.16939,-0.197749 -1.28718,1.434145 -1.23136,2.21457 0.15679,2.191758 2.83736,1.606172 4.45976,1.606172 2.69756,0 5.99258,0.398152 8.62123,-0.04741 1.15225,-0.195308 1.37225,-1.871753 2.55014,-1.723457 1.05529,0.132861 1.10432,1.57896 0.88666,2.392099 -0.51352,1.918418 -3.79336,1.298765 -5.33803,1.298765 -3.72086,0 -7.83523,0.315584 -11.51383,-0.01877 -1.15113,-0.104626 -1.83298,-1.972714 -2.8032,-1.660737 -0.91453,0.294075 -0.80215,1.868154 -0.67557,2.620737 0.34817,2.069895 4.72918,1.298765 6.3526,1.298765 4.5041,0 9.28395,0.188855 13.75975,-0.0062 1.76162,-0.07676 1.59008,-1.106325 2.74568,-1.899013 0.94867,-0.650743 1.64561,0.310651 1.71434,1.271357 0.21836,3.052478 -2.86151,2.553828 -5.09977,2.553828 h -17.6 c -1.0457,0 -2.46443,0.257197 -3.41976,-0.192839 -0.6616,-0.31167 -0.74907,-1.271055 -1.46172,-1.486914 -0.57305,-0.173575 -0.9517,0.274873 -1.0968,0.767407 -1.16131,3.942251 4.90317,2.832346 7.25828,2.832346 6.95246,0 14.19717,0.295452 21.11975,-0.0062 1.49265,-0.06504 2.02918,-1.713774 3.19877,-1.710373 1.26236,0.0037 1.27418,2.783913 0.71406,3.443459 -1.07309,1.263589 -5.5468,0.513086 -7.11258,0.513086 h -21.44 c -1.51433,0 -3.68494,0.389409 -5.07408,-0.192839 -0.74848,-0.313723 -0.94924,-1.260767 -1.72271,-1.486914 -0.57223,-0.16731 -0.95358,0.265305 -1.10149,0.767407 -1.2292,4.172715 6.38781,2.832346 8.85828,2.832346 9.1626,0 18.71697,0.391316 27.83975,-0.0062 1.46756,-0.06394 2.0541,-1.713701 3.19877,-1.710373 1.13976,0.0033 1.08843,1.89238 0.7684,2.629138 -0.50588,1.164551 -1.9417,1.005215 -3.00692,1.007407 -2.98609,0.0061 -5.97377,0 -8.96,0 h -37.44 -10.56 c -1.63131,7.35e-4 -3.35593,-0.131003 -3.49976,1.921236 -0.0482,0.68715 -0.0263,2.032504 0.95605,2.03531 0.96703,0.0028 1.06401,-1.350877 1.95432,-1.614817 1.40144,-0.4154 3.27539,-0.10166 4.74939,-0.10166 h 24.32 c 2.22883,0 6.22244,-0.788989 8.21828,0.193086 0.75989,0.373906 0.77422,1.307068 0.72149,2.040989 -0.0333,0.464028 -0.0646,1.160249 -0.70274,1.365432 -1.0141,0.326096 -1.17131,-1.12584 -1.93726,-1.486667 -1.11572,-0.525591 -2.83412,-0.19284 -4.05977,-0.19284 h -21.44 c -1.67304,0 -7.97781,-0.883633 -8.53828,1.007407 -0.20562,0.69377 -0.34986,2.683501 0.62149,2.857779 0.86955,0.15601 1.25865,-1.124849 1.93234,-1.432346 0.80813,-0.368855 1.90937,-0.192784 2.78445,-0.19284 6.78459,-4.34e-4 12.88791,-0.32 19.52,-0.32 1.93762,0 4.53127,-0.255403 6.39383,0.04741 1.28078,0.208226 1.7577,1.10981 1.55729,2.506421 -0.10395,0.72438 -0.59176,1.609495 -1.46174,1.231358 -0.90268,-0.392354 -0.96104,-1.317896 -2.02789,-1.497779 -5.43213,-0.915916 -12.90682,-0.04741 -18.54149,-0.04741 -1.48058,0 -6.09707,-0.751225 -6.61828,1.007407 -0.20519,0.692342 -0.35043,2.684532 0.62125,2.857779 1.03559,0.184646 1.68572,-1.875828 3.11852,-1.939014 4.63256,-0.204292 9.72189,-0.0062 14.39851,-0.0062 2.35555,0 6.89856,-0.955185 6.35235,2.553828 -0.093,0.597452 -0.40293,1.426729 -1.17952,1.311602 -0.95736,-0.141924 -1.23326,-1.394307 -2.31037,-1.578272 -3.73089,-0.637211 -8.03562,-0.04716 -11.82246,-0.04716 -1.19793,0 -4.29586,-0.542173 -4.92691,0.741729 -0.32149,0.654077 -0.4368,2.629975 0.53012,2.803457 0.93728,0.168164 1.5155,-1.412573 2.49531,-1.577779 2.70152,-0.455507 9.92465,-1.052553 12.35976,0.145679 0.74651,0.367324 0.77338,1.307144 0.72149,2.04543 -0.0454,0.64603 -0.27649,1.734311 -1.17705,1.578276 -0.82563,-0.143056 -0.73094,-1.349355 -1.4642,-1.703706 -1.5451,-0.74667 -4.25084,-0.193198 -5.97852,-0.193086 -0.97592,6.4e-5 -2.80429,-0.320552 -3.32691,0.741729 -0.33953,0.690141 -0.48309,3.320762 0.7684,3.123701 0.77963,-0.122759 1.0384,-1.137227 1.69406,-1.478516 1.29584,-0.674521 4.77561,-0.779497 5.24248,0.859258 0.2127,0.746582 -0.0171,3.129649 -1.31729,2.459014 -0.62982,-0.324859 -0.74623,-1.610669 -1.69777,-1.304693 -1.35508,0.435738 -0.68433,2.967603 -0.40297,3.919507 2.10676,-0.499951 5.55574,-0.32 8,-0.32 h 18.56"
       id="path1" />
  </g>
</svg>
