<svg xmlns="http://www.w3.org/2000/svg" viewBox="0 0 292.16 117.973"><path d="M0 6.152c2.923 0 8.168.689 10.833-.102 1.866-.553.148-1.802 2.014-2.356 1.722-.51 4.507.33 6.306-.204 1.272-.377.653-1.765 1.52-2.449C21.905.07 25.371.712 26.88.712c3.307 0 7.332-.253 10.56.03 2.134.188 1.467 1.011 2.567 2.337 1.083 1.304 5.348.129 6.986.615 1.231.365.839 1.792 1.748 2.455.603.44 3.192 1.23 1.624 2.593-.641.558-2.284.561-3.005.526-2.201-.108-1.384-1.399-2.753-2.467-1.311-1.023-4.28-.064-6.2-.376-2-.325-.792-2.19-2.614-2.731-2.482-.737-9.365-.705-11.746 0-1.638.485-1.092 2.57-3.247 2.76-1.955.17-4.578-.674-5.887.347-.545.425-.407 1.42-1.026 1.902-1.498 1.169-7.975-1.06-7.74 1.917.088 1.13.9 1.244 1.854 1.286 1.795.08 6.029.137 7.673-.013 2.034-.185.778-1.896 2.348-2.668 1.895-.931 4.565.3 6.57-.295 1.665-.493.637-2.126 2.307-2.41 2.009-.343 5.898-.745 6.925.694.904 1.266.927 2.057 2.656 2.132 1.775.077 3.969-.567 5.339.335.647.426.631 1.426 1.253 1.902 1.486 1.139 4.983-.109 6.8.43.885.263 1.152 1.318.813 2.038-1.127 2.39-5.606-.31-7.704 1.07-.777.512-.63 1.798-1.748 2.13-1.994.59-4.312-.389-6.306.203-1.272.378-.653 1.765-1.52 2.45-1.148.905-4.794.437-6.2.31-2-.182-.973-1.992-2.349-2.669-1.895-.931-4.565.3-6.57-.295-1.28-.38-.83-2.067-2.015-2.585-1.633-.712-10.313-.964-10.127 1.395.218 2.77 6.177.387 7.74 1.621.774.61.287 1.882 1.256 2.358 1.95.959 4.903-.495 6.865.386.983.442 1.138 2.044 2.04 2.45 1.976.888 8.146.372 10.513.223 2.524-.159 1.128-1.764 2.982-2.673 1.897-.93 4.564.301 6.57-.295 1.33-.394.632-2.035 1.75-2.585 1.337-.657 5.334-.523 4.898 1.681-.247 1.245-1.773.72-2.433 1.519-.566.686-.38 1.531-1.069 1.99-1.343.893-4.133.229-5.972.396-1.817.165-1.112 1.994-2.613 2.44-1.328.393-3.637.101-5.073.101-3.87 0-8.333.602-12.141-.047-1.954-.333-1.104-2.465-3.54-2.511-2-.038-3.874.442-5.337-.46-1.215-.75-.326-2.082-2.04-2.374-1.028-.175-4.046-.495-4.342.953-.335 1.645 1.433 1.235 2.247 1.888.767.615.288 1.883 1.255 2.358 2.003.985 4.832-.597 6.836.386 1.581.776.417 2.326 2.348 2.64 1.301.211 3.391.047 4.794.047 3.898 0 10.476-.305 14.075.019 2.901.26.918 2.583 3.846 2.842 1.388.124 4.237-.222 5.392.12 1.03.306.607 1.06 1.334 1.947.763.929 2.577.513 2.404 2.1-.191 1.745-3.049 1.46-4.312 1.245-1.66-.283-.777-2.018-2.04-2.64-1.74-.855-4.397.08-6.28-.24-1.7-.29-.826-2.292-2.306-2.731-1.675-.497-3.973-.102-5.713-.102-3.678 0-7.878-.57-11.501.048-1.749.298-.857 2.488-2.598 2.785-1.804.307-3.458-.019-5.1.053-2.002.089-1.224 1.139-2.434 2.28-.964.91-2.272.276-2.272 1.874 0 1.783 4.332 1.591 5.152.951.75-.584.351-1.595 1.255-2.038 1.741-.853 4.438.22 6.28-.332 1.16-.347 1.22-2.459 2.597-2.693 2.555-.436 9.387-.999 11.72.145 1.148.564.59 2.187 2.04 2.585 1.853.51 4.207-.332 6.014.204 1.171.348.948 1.869 1.749 2.4 1.703 1.133 7.803-.974 7.803 1.658 0 .926-.656 1.184-1.511 1.261-2.063.188-6.685.482-8.587-.083-1.27-.376-.776-1.788-1.749-2.265-1.68-.824-4.032.103-5.972-.266-1.353-.258-1.461-2.085-2.64-2.614-1.499-.674-3.074-.206-5.046-.193-2.819.02-1.293 1.383-3.302 2.367-1.897.93-4.564-.3-6.57.295-1.148.34-.875 1.628-1.52 2.265-1.934 1.907-6.479-1.284-7.609 1.253-.615 1.381 1.231 1.832 2.041 1.954 2.129.322 4.116.257 5.76-.134.205.686.24 1.831.649 2.396 2.048 2.832 5.502-1.173 7.668 1.317.942 1.083.805 1.964 2.563 2.041 2.268.099 6.366.776 6.08-2.234 2.328-.693 4.966.378 7.633-.643.878-.336.9-1.745 1.52-2.228 1.077-.84 3.225-.329 4.607-.329 1.28 0 7.052-.694 5.716 1.82-1.036 1.95-5.79.077-7.534.933-1.72.844-.385 2.466-2.663 2.668-2.29.204-5.486-1.004-6.316 1.025-.705 1.723-1.487 1.873-3.603 1.874-2.517.001-6.65.528-8.941-.102-1.166-.32-1.013-1.824-1.812-2.449-1.73-1.354-4.548.238-6.8-.43-1.386-.412-.628-1.746-1.52-2.45-.792-.624-5.517-.819-5.127 1.259.307 1.63 1.534.71 2.433 1.805.725.884.279 1.739 1.626 2.004 2.848.562 3.662-.817 6.28.512.836.425.691 2.134 2.04 2.364 4.762.811 12.16.811 16.922 0 1.989-.339.964-2.407 3.22-2.507 1.979-.087 4.618.66 5.886-.563 1.006-.971.26-2.011 1.812-2.275 1.221-.209 4.178-.375 4.22 1.245.032 1.191-1.122 1.287-1.898 1.761-.934.572-.401 1.663-1.483 2.193-1.674.82-4.499-.063-6.28.24-1.923.328-1.174 2.67-3.538 2.82-3.854.242-9.13.013-13.12.013-1.588 0-3.955-.116-5.434.019-1.978.18-.75 1.565-2.348 2.348-2.092 1.025-5.066-.642-7.156.386-.963.473-.5 1.735-1.255 2.36-.843.697-2.215.435-1.927 1.89.306 1.542 3.31 1.831 4.578.988.9-.598.437-2.06 1.75-2.449 1.89-.561 4.43.175 6.333-.15.84-.142 1.058-.482 1.27-1.244.406-1.455 1.117-1.62 2.909-1.583 4.673.097 10.635-.76 15.341.043 2.244.382.243 1.755 2.04 2.64 1.574.773 4.826-.224 6.572.294 1.257.373.845 1.787 1.747 2.455.864.64 2.015.552 1.748 1.89-.266 1.332-3.267 1.216-4.36.891-1.297-.384-.802-1.8-1.75-2.265-1.162-.57-3.783-.131-5.338-.199-2.612-.114-1.21-2.168-3.247-2.772-2.566-.761-6.238-.102-8.913-.102-1.006 0-2.49-.263-3.418.193-1.72.844-.385 2.466-2.663 2.668-1.542.137-4.496-.357-5.657.212-.827.405-.428 1.393-1.255 2.038-1.716 1.34-7.712-1.323-7.712 1.622 0 2.46 5.246 1.587 6.945 1.587 1.059 0 2.145.247 3.153-.193 1.537-.67.292-1.78 1.749-2.494 1.742-.854 5.02.504 6.836-.386 2.045-1.002.62-2.36 3.622-2.367 1.636-.003 3.825-.53 4.927.33.62.483.355 1.596 1.255 2.037 2.004.982 4.833-.599 6.836.386.969.476.482 1.749 1.255 2.358 1.527 1.205 8.202-1.183 7.952 1.9-.219 2.7-5.97.643-7.723 1.502-.948.465-.453 1.881-1.75 2.265-2.005.595-4.675-.636-6.57.295-1.235.608-.381 2.357-2.04 2.64-1.39.237-5.115.427-6.28-.146-1.53-.752.046-1.742-1.484-2.494-1.168-.574-5.276.09-6.57-.295-1.347-.399-.534-1.67-1.75-2.265-1.888-.925-5.783-.207-7.898-.193-.897.006-2.21-.12-2.44 1.001-.216 1.06.552 1.455 1.486 1.54 1.579.144 4.895-.682 6.2.348.774.61.287 1.882 1.256 2.358 2.003.985 4.832-.597 6.836.386 1.932.948.496 2.633 3.302 2.686 1.765.033 4.368 0 6.08 0 .917 0 1.596.007 2.56 0 .67-.005 1.32.048 1.873-.192 1.528-.667.555-2.153 2.014-2.586 1.7-.504 4.523.326 6.306-.203 1.184-.352.712-1.49 1.336-2.265.671-.834 3.795-.822 4.598-.184 1.985 1.575-1.17 2.39-1.72 3.063-.534.654-.322 1.494-1.069 1.99-2.24 1.49-5.747.062-7.898.698.295 1.107.387 1.96-.979 2.192-2.25.384-5.038.048-7.341.048-2.85 0-7.186.69-9.873-.102-1.806-.533-1.174-2.412-3.567-2.457-1.932-.036-4.33.635-5.567-.559-.507-.489-.398-1.503-1.026-1.993-1.133-.885-4.832-.609-4.832.95 0 1.309 1.122.921 1.952 1.608.69.57.324 1.67 1.026 2.224 1.447 1.141 5.109.083 6.828.376 1.689.288 1.155 2.5 2.905 2.785 3.729.607 9.789.048 13.754.048 1.526 0 3.683-.11 5.115.019 2.635.236 1.306 2.643 4.165 2.839 1.522.104 3.952-.465 5.338.215 1.02.5.52 1.439 1.255 2.04.682.557 2.701.614 1.955 2.2-.65 1.385-3.649 1.314-4.606.678-.857-.57-.404-1.828-1.484-2.358-1.672-.82-4.5.062-6.28-.24-.98-.168-1.079-.653-1.327-1.54-.475-1.704-2.135-1.293-3.811-1.293-4.14 0-10.797-1.05-14.673.101-2.027.602.032 2.07-2.014 2.677-1.814.539-5.098-.587-6.891.295-.963.473-.5 1.735-1.255 2.36-.83.686-1.952.3-1.952 1.607 0 1.62 3.696 1.877 4.832.955.67-.543.411-1.629 1.255-2.042 1.897-.93 4.564.3 6.57-.295 1.391-.413.625-2.264 2.015-2.677 2.566-.761 6.239-.101 8.913-.101 1.006 0 2.49-.264 3.418.193 1.03.506.455 1.988 1.484 2.494 1.874.921 4.799-.231 6.57.294 1.033.307.77 1.544 1.52 2.13 1.541 1.202 7.987-1.191 7.742 1.916-.155 1.962-8.866 1.85-10.392 1.1-1.032-.508-.452-1.987-1.484-2.494-1.895-.932-4.565.3-6.57-.295-1.129-.335-.735-1.517-1.52-2.13-1.134-.884-5.139-.514-6.51-.28-1.602.272-.813 1.789-2.04 2.449-.707.38-1.675.065-2.458.08-1.397.028-2.68-.219-4.113.318-1.403.527-.5 1.74-1.749 2.352-2.006.983-7.758-1.351-7.512 1.78.118 1.493 2.52 1.293 3.454 1.293 1.313 0 2.608-.518 4.058.193.907.444.849 2.042 1.75 2.45 1.58.713 4.183-.028 6.013.284 1.432.244.9 1.473 1.812 2.184.94.734 5.674.56 6.8.227 1.237-.367.872-2.018 2.014-2.357 2.507-.743 4.394.631 6.571-.584 1.39-.776.656-2.224 2.348-2.378 1.533-.14 5.987-.087 7.673-.013.905.04 1.826.15 1.826 1.274 0 1.432-1.617 1.458-2.465 1.545-1.294.133-3.617-.207-4.753.112-1.254.353-.585 1.977-2.014 2.401-1.883.559-5.204-.82-6.8.43-1.758 1.377-.513 2.532-3.393 2.552-2.55.017-7.263.331-9.594-.048-1.931-.314-.767-1.864-2.348-2.64-1.896-.93-4.565.302-6.57-.294-1.203-.357-.724-1.86-1.521-2.374-1.102-.71-2.944-.53-3.92-.29-.71.175-1.002.701-.94 1.473.122 1.562 1.296.735 2.166 1.806.612.754.348 1.559 1.069 2.038 1.13.751 4.459.21 5.972.347 1.887.172.954 1.558 2.348 2.484 1.61 1.071 5.06.378 7.258.378 2.68 0 5.15-.193 7.68-.286.9-.034 2.236.228 3.103-.211 1.026-.52.888-1.774 1.786-2.19 1.254-.58 4.466.006 5.985-.24 2.295-.374.846-2.709 3.527-2.827 2.795-.123 8.589-1.044 11.097.187 1.83.898.42 2.569 2.982 2.68 1.27.056 3.655-.138 4.781.054 1.271.217.81.979 1.626 2.02.95 1.212 3.754.446 5.113.505 1.229.054 1.96.273 3.2.303 3.067.075 7.687.767 10.193-.326 1.16-.506 1.194-2.467 2.928-2.543 1.537-.068 4.333.545 5.657-.335 1.122-.746.375-1.783 1.483-2.36.999-.52 2.044-.119 2.044-1.471 0-1.648-2.63-1.323-3.744-1.274-2.312.102-.918 1.506-2.663 2.36-1.74.854-4.394-.08-6.28.241-1.924.328-.907 2.267-2.597 2.731-1.93.53-8.283.194-10.54.096-2.414-.106-1.219-1.344-2.754-2.545-1.596-1.25-4.917.128-6.8-.43-1.473-.438-.731-1.977-2.014-2.357-2.25-.668-6.679 1.24-7.193-1.41-.293-1.516 1.17-1.553 2.12-1.57 1.647-.032 5.857-.12 7.354.017 1.774.161 1.038 1.613 2.348 2.484 1.312.872 4.58.135 6.28.424 1.746.298.675 2.138 2.597 2.465 1.5.256 4.9.53 6.28-.145.779-.382.64-1.339 1.068-1.854 1.074-1.293 4.174-.364 6.072-.532 2.278-.202.943-1.824 2.663-2.668 1.653-.811 4.494-.048 6.292-.212.853-.078 1.511-.355 1.511-1.274 0-.916-.626-1.396-1.511-1.54-1.71-.278-5.095.737-6.521-.376-.682-.532-.456-1.458-1.026-1.902-1.07-.835-3.626-.26-5.247-.342-2.57-.13-1.381-1.218-3.073-2.538-1.093-.853-5.502-.612-6.8-.227-1.21.358-.91 1.842-1.749 2.4-1.262.84-3.89.306-5.657.384-2.382.105-.959 1.868-2.928 2.452-2.702.802-11.063 1.293-9.873-2.778 1.535.353 5.38.793 7.258-.189.97-.506.584-1.924 1.75-2.27 1.238-.367 2.677-.101 3.792-.101.832 0 1.939.22 2.778-.193 1.229-.604.386-2.358 2.04-2.64 3.022-.515 8.84-.817 11.775.055 1.718.51.589 2.668 2.928 2.772 1.498.066 4.653-.63 5.886.335 1.425 1.115.293 2.343 2.434 2.532 1.256.11 3.122.259 3.64-1.013.745-1.83-1.206-1.41-2.168-2.177-.871-.693-.353-1.849-1.52-2.358-1.924-.84-4.67.532-6.573-.386-1.629-.786-.702-2.172-2.665-2.348-1.332-.12-3.37-.02-4.795-.02-3.41 0-7.188-.062-10.56.002-2.391.045-1.514 1.646-2.982 2.365-1.56.765-5.095-.238-6.89.295-1.478.438-.792 2.051-2.015 2.585-1.476.644-3.704.532-4.234-.813-.638-1.618 1.526-1.693 2.168-2.202.743-.59.354-1.597 1.255-2.039 1.43-.7 3.996-.064 5.657-.211 1.341-.12 1.492-.606 2.004-1.856.379-.926.936-.96 1.838-1 1-.044 1.56-.006 2.559-.006H80c1.93 0 3.599.518 5.714-.101 1.377-.404.933-2.245 2.332-2.595 2.004-.502 4.322.303 6.307-.285 1.227-.365.96-1.86 2.287-2.513.653-.321 1.424-.837 1.068-1.766-.607-1.585-3.629-.78-4.908-1.06-1.195 3.885-3.304 2.56-7.034 2.9-2.056.186-.774 1.893-2.613 2.439-1.675.497-3.973.101-5.713.101-3.678 0-7.878.57-11.501-.047-2.192-.373-.785-2.399-3.22-2.506-1.599-.07-4.447.47-5.657-.335-.766-.51-.528-1.644-1.255-2.223-.88-.7-2.436-.2-2.3-1.916.132-1.681 3.812-1.79 4.86-.964.773.61.286 1.882 1.255 2.358 1.94.954 4.857-.308 6.89.295 1.539.457.77 2.255 2.307 2.677 1.79.491 8.504.263 10.54.083 2.278-.202.943-1.825 2.663-2.668 1.665-.817 3.486.112 5.018.12 1.732.01 2.812-.717 2.56-2.554 2.383-.704 4.547.272 7.341-.495 1.034-.284 1.716-1.597.557-2.376-1.17-.785-8.913-.806-9.945 0-.856.668-.337 1.564-1.255 2.174-2.174 1.446-4.134-.326-6.57.435-1.188.37-.636 1.483-1.52 2.174-.981.765-5.172.508-6.51.281-1.726-.293-1.085-2.28-2.624-2.73-1.996-.585-4.313.387-6.307-.204-1.144-.34-.836-1.596-1.52-2.13-1.906-1.487-6.561 1.32-7.608-1.334-.969-2.459 5.816-1.696 7.142-1.922 1.419-.241 1.287-1.037.979-2.193 1.968-.581 5.31.493 7.633-.557 1.404-.635.937-2.549 2.928-2.636 1.775-.079 2.95-.155 4.793.012 2.007.183 1.421 2.656 3.527 2.843 1.747.155 3.86-.334 5.392.12 1.108.329.667 1.735 1.749 2.265 1.207.592 8.949.659 9.945-.135 1.13-.902.17-2.021-.786-2.184-2.075-.354-4.022.862-6.28-.24-1.022-.5-.617-1.973-1.774-2.494-1.973-.89-4.906.574-6.865-.387-1.232-.603-.532-1.904-1.75-2.265-2.668-.791-6.399-.277-8.912-.388-1.644-.073-1.966.27-3.52-.033-1.18 3.829-3.429 2.57-7.034 2.898-1.429.13-1.553 2.081-2.613 2.528-1.36.572-4.658.494-4.658-1.266 0-1.167.98-1.07 1.78-1.467 1.115-.557.6-1.645 1.518-2.365 1.59-1.244 4.923.127 6.8-.43 1.39-.413.622-2.271 2.014-2.677 1.206-.35 2.07.105 3.153.136.739.02 1.207-.13 1.92-.129.82.001 1.456.165 2.24.199 2.155.093 6.805-.027 8.96.014.976.019 1.73-.038 2.157 1.004.511 1.25.663 1.737 2.004 1.856 1.542.137 4.496-.358 5.657.212.948.464.453 1.88 1.75 2.265 1.347.4 4.657.574 4.657-1.178 0-.33-3.396-3.941-3.792-4.059-2.066-.613-3.257.25-5.707-.149-1.75-.284-1.216-2.497-2.905-2.785-5.902-1.006-14.251 1.585-20.094-.15-1.33-.394-.631-2.035-1.749-2.584-1.931-.95-4.487.335-6.57-.295-1.513-.457-.8-1.922-2.3-2.458-.9-.322-1.694-.731-1.468-1.875.208-1.046 1.164-.986 2.12-1.004 1.074-.02 2.232-.28 3.007.327.986.772.577 2.253 2.12 2.504 2.12.345 4.325-.711 5.972.376 1.152.762.84 2.26 2.347 2.504 1.189.193 2.89.048 4.154.048 3.384 0 8.676.325 11.839-.035 1.935-.22 1.367-2.28 2.928-2.744 1.784-.529 4.866.544 6.571-.295 1.047-.514.414-1.683 1.255-2.358.978-.784 2.592-.194 2.247-1.887-.268-1.312-3.87-1.653-5.127-.673-.684.534-.376 1.79-1.52 2.13-1.994.591-4.312-.388-6.306.203-1.33.395-.631 2.036-1.749 2.585-2.51 1.235-8.304.31-11.097.187-2.444-.107-1.056-1.458-2.434-2.545-1.21-.954-5.184.021-6.828-.43-1.601-.44-1.004-1.971-2.306-2.357-1.124-.332-4.083.013-5.392-.136-.874-.1-1.826-.386-1.826-1.56 0-1.066.95-1.24 1.826-1.28 2.185-.096 6.56-.782 8.537.188 1.72.843.385 2.466 2.663 2.668 1.542.137 4.496-.358 5.657.212.948.464.453 1.88 1.75 2.265s5.706.625 6.8-.227c1.44-1.125.282-2.13 2.433-2.225 1.543-.068 4.538.409 5.657-.335.786-.523.415-1.565 1.255-2.223 1.363-1.067 4.872-.197 6.52-.347.945-.086 1.68-.536 1.487-1.569-.533-2.83-5.778-.505-7.778-1.486-1.743-.854-.354-2.258-2.663-2.36-1.543-.068-4.538.409-5.657-.335-.985-.655-.454-2.234-2.04-2.504-1.38-.235-5.374-.607-6.51.281-1.423 1.115-.295 2.343-2.433 2.533-1.542.137-4.496-.358-5.657.212-.885.433-.43 1.657-1.484 2.173-1.982.972-6.34.284-8.537.187-.86-.038-1.826-.236-1.826-1.273 0-1.253 1.12-1.26 2.145-1.279 1.85-.035 4.208.586 5.658-.379.966-.642.425-2.008 1.75-2.4 1.323-.393 5.78.372 6.799-.431 1.575-1.243.112-2.565 3.073-2.55 1.745.01 2.719.33 4.48.317 1.336-.01 1.982-.232 3.2-.285.919-.04 2.502-.07 3.193.795.39.488.308 1.308.84 1.723 1.144.892 4.3.559 5.567.596 2.455.07 1.327 1.194 2.981 2.284 1.265.833 5.091.634 4.87-1.23-.175-1.47-2.19-1.074-2.731-2.589-.409-1.143-.92-1.242-1.921-1.286-1.183-.052-3.6.14-4.793-.054-1.248-.203-1.696-2.458-2.613-2.73-4.043-1.2-11.342-.134-15.953-.102-.915.006-1.696-.133-2.233.512-.578.697-.377 1.787-1.626 2-1.93.329-4.13-.41-6.014.15-1.271.377-.653 1.765-1.52 2.449-.84.662-2.471.386-3.326.31-.88-.078-1.628-.36-1.8-1.274-.301-1.598 1.417-1.258 2.246-1.916.822-.653.428-1.633 1.255-2.038 1.161-.57 4.115-.075 5.657-.212 2.4-.213 1.032-2.441 3.22-2.814 4.624-.788 10.006-.047 14.701-.047 1.62 0 3.846.357 5.393-.102 1.062-.316.89-1.67 1.52-2.174 1.924-1.541 4.884.685 7.065-.687.705-.444.599-1.39 1.07-1.965.585-.715 2.77-.676 2.432-2.387-.307-1.546-4.025-1.54-5.127-.677-1.298 1.017-.304 2.209-2.12 2.504-2.08.338-5.18-.894-6.386.56-1.233 1.489-.796 2.349-3.207 2.365-1.18.008-3.746.042-4.8-.026-.942-.062-1.527-.234-2.56-.279-2.403-.105-5.63.543-7.981-.114-1.98-.554-.875-2.255-2.905-2.44-1.513-.137-4.842.404-5.972-.347-.787-.523-.419-1.557-1.255-2.223-.784-.624-2.272-.187-2.272-1.61 0-1.819 3.702-2.145 4.833-1.27.811.628.491 1.884 1.545 2.358 2.036.918 4.844-.605 6.865.387.87.426.63 1.558 1.255 2.173 1.03 1.016 3.195.514 4.607.514 1.96 0 5.664.358 7.341-.102 1.492-.41.675-1.915 2.04-2.585 1.793-.88 5.079.243 6.892-.295 1.243-.37.642-1.444 1.52-2.13 1.479-1.153 8.346 1.073 7.687-2.206-.181-.899-.91-.957-1.801-.996-2.19-.097-6.56-.783-8.537.187-1.854.908-.458 2.513-2.982 2.672-1.42.09-4.021-.438-5.338.208-1.29.631-.422 2.043-2.04 2.32-1.325.225-4.763.316-6.015-.055-.922-.274-.79-.895-1.103-1.773-.786-2.207-5.171-.502-7.217-1.107-1.12-.332-.874-1.554-1.748-2.13-1.564-1.03-7.484 1.016-7.484-1.916 0-2.622 5.771-.646 7.483-1.486 1.024-.501.36-1.623 1.484-2.173 1.732-.85 4.561.182 6.28-.332 1.335-.4.843-1.657 1.81-2.413.887-.691 4.648-.377 5.887-.322 2.091.092 1.767 2.54 3.527 2.826 2.07.337 4.239-.609 5.972.24.849.416.671 1.946 1.75 2.266 2.212.656 6.29.292 8.586.083.923-.084 1.702-.48 1.486-1.54-.458-2.241-5.628-.308-7.46-1.195-.973-.47-.656-1.725-1.544-2.358-1.557-1.107-4.725.067-6.537-.43-1.445-.397-.9-2.025-2.04-2.585-2.508-1.23-8.644-.378-11.413-.126-2.394.218-.993 2.404-3.212 2.765-2.156.35-4.3-.58-5.972.24-1.132.556-.83 2.186-2.04 2.549-2.126.636-3.83-.192-4.462-2.422.738-.22 2.04-.195 2.551-.833.54-.672.174-1.733 1.07-2.173 1.896-.932 4.566.3 6.572-.295 1.144-.34.836-1.596 1.52-2.13 1.03-.804 2.77-.329 4.287-.329 3.849 0 9.099-.157 12.799.007 3.373.148.36 2.311 3.527 2.826 1.503.245 4.801-.333 5.972.24.885.434.43 1.658 1.484 2.174 2.5 1.226 8.338.376 11.098.28 2.118-.073 1.754-2.103 3.247-2.545 2.259-.668 5.098.925 6.8-.667 1.646-1.538.992-2.314 4.033-2.314 4.139 0 11.364-.975 14.993.101 1.477.439 1.09 2.678 3.247 2.772 1.417.062 4.438-.548 5.567.335.643.503.386 1.426 1.026 1.947 1.018.83 2.58.1 2.247 1.872-.292 1.55-2.195 1.338-3.4 1.286-2.524-.108-1.165-1.79-2.982-2.68-1.628-.8-4.224.016-5.972-.168-2.533-.266-.928-2.465-3.527-2.58-2.367-.104-8.7-.536-10.832.096-1.09.324-.835 2.007-2.014 2.357-1.435.425-5.29-.333-6.571.295-1.096.537-.417 1.32-1.255 2.129-1.352 1.305-8.29-.834-7.687 2.116.154.753.705.912 1.486.983 2.074.188 6.646.75 8.532-.175 1.053-.516.6-1.74 1.484-2.173 1.161-.57 4.115-.075 5.657-.212 2.138-.19 1.01-1.418 2.434-2.533 1.101-.862 5.505-.596 6.812-.227 1.626.46.93 2.444 2.614 2.731 2.09.356 4.967-.83 6.508.376.483.378.594 1.612 1.026 2.038 1.17 1.155 8.216-.52 7.687 2.072-.467 2.284-6.157.136-7.687 1.33-.893.698-.422 1.818-1.52 2.314-2.354 1.064-4.295-.685-6.571.43-.61.3-.956 1.96-1.484 2.31-1.316.875-4.968.724-6.6.276-1.153-.317-.868-1.347-1.625-2.265-1.208-1.465-4.298-.221-6.387-.56-1.927-.314-.768-1.865-2.348-2.64-1.044-.512-2.378-.193-3.418-.193h-3.2c-1.437 0-3.321-.389-3.454 1.293-.235 2.98 6.444.7 7.607 2.1.428.516.29 1.472 1.069 1.854 1.773.87 4.468.056 6.292.422 1.988.398 1.02 2.077 2.613 2.55 2.579.764 8.33.339 11.147.082 2.016-.183 1.158-2.007 2.613-2.44 1.205-.356 4.715.154 6.014-.203 1.457-.4.776-1.964 2.04-2.585 1.19-.583 5.296-.578 4.899 1.366-.303 1.48-1.6.478-2.431 1.514-.8.997.048 1.854-1.336 2.265-1.702.505-4.522-.325-6.306.204-1.822.54-.613 2.406-2.613 2.73-1.226.2-3.155.048-4.474.048-3.425 0-8.612.476-11.834-.047-1.667-.271-1.25-2.046-2.613-2.64-1.378-.6-4.903.121-6.306-.295-1.121-.332-.644-1.079-1.334-1.969-.967-1.245-4.223-.747-5.433-.169.807 2.43 1.939 2.563 3.207 4.379 1.439 2.058 4.728.173 6.986.843.937.278 1.057 2.198 2.306 2.41 4.254.725 9.833-.104 14.061.06 1.474.058 4.529.112 5.741.35 1.4.277.813 1.026 1.626 2.005 1.17 1.41 5.402.145 6.986.615.713.212 4.01 3.872 3.688 4.598-.526 1.181-4.07 1.175-5.048.411-.914-.713-.45-1.812-1.52-2.13-1.324-.392-4.508.211-6.014-.203-1.466-.402-.846-2.243-2.306-2.676-2.167-.643-4.088-.102-6.033-.102h-6.72c-1.81 0-4.37-.768-5.433.513-1.113 1.341-.826 2.25-2.887 2.354-1.79.091-4.432-.68-5.433.526-1.265 1.524-1.143 1.98-3.207 2.687.553 2.02 2.7 3.452 5.018 1.911 1.12-.744.366-1.81 1.484-2.358 1.197-.587 4.877-.002 6.28-.24 1.411-.24 1.18-2.077 2.305-2.411 2.384-.707 7.212-.107 9.873-.102.975.002 1.69-.168 2.421.329.71.481.748 1.823 1.786 2.13 1.515.446 4.859-.337 6.306.294 1.18.515.638 1.668 1.52 2.358 1.682 1.317 7.712-1.228 7.712 1.61 0 .629-.318 1.01-.912 1.269-2.034.888-6.468.895-8.894.228-1.073-.294-1.212-2.178-2.04-2.585-1.937-.95-4.36.362-6.572-.295-1.49-.442-.77-2.43-2.613-2.73-1.289-.21-5.28-.44-6.201.281-1.024.802-.315 2.21-2.12 2.504-1.622.264-4.664-.255-6.026.149-1.35.4-.464 1.632-1.749 2.372-.597.344-3.468.374-4.058.366-.89-.012-3.202-.508-3.264 1.04-.121 3.049 6.03.698 7.551 1.889.84.658.469 1.7 1.255 2.222 1.124.748 4.104.301 5.658.33 2.436.047 1.461 1.67 2.982 2.414 1.16.569 4.956.411 6.278.043 1.596-.443.806-2.156 2.28-2.41 1.436-.248 4.824.417 6.333-.24 1.126-.493.705-1.982 1.749-2.495 1.751-.86 6.867-.355 8.852-.174.775.07 1.332.223 1.486.984.639 3.176-6.22 1.062-7.687 2.206-.87.68-.308 1.574-1.255 2.038-1.161.57-5.282-.088-6.57.295-1.874.556-.094 1.771-1.75 2.585-.774.38-2.173.193-3.098.193-2.82 0-6.178.424-8.941-.047-2.446-.417-.107-2.361-2.598-2.785-1.406-.24-4.659.252-6.014-.15-1.715-.508-.606-2.35-2.928-2.452-1.49-.065-3.41-.519-3.719.995-.305 1.495 1.467 1.262 2.247 1.888.699.56.323 1.667 1.026 2.222 1.435 1.132 4.776.081 6.508.377 2.081.354.83 2.447 2.905 2.785 1.301.211 3.391.047 4.794.047 3.477 0 7.455.143 10.88-.006 2.774-.12 1.26-2.62 3.846-2.855 1.73-.157 3.716.346 5.415-.12 1.39-.382.889-1.727 1.812-2.45 1.05-.821 4.566-.7 5.035.677.492 1.442-.931 1.511-1.927 2.061-1.077.596-.673 1.97-1.748 2.456-1.488.672-4.388.008-6.014.285-1.747.297-.676 2.137-2.598 2.465-6.347 1.081-13.93-1.68-20.094.15-1.95.578-.586 2.55-2.928 2.759-1.248.11-3.973-.126-5.1.066-1.061.18-.964.78-1.486 1.826-.897 1.8-2.598.151-2.598 2.286 0 1.682 3.28 1.418 4.366 1.233 1.738-.296.632-1.6 2.04-2.382 1.327-.738 3.775-.046 5.339-.145 2.13-.134 1.557-1.974 2.982-2.673 1.708-.837 4.276-.193 6.298-.193h9.28c.948 0 1.708-.175 2.458.193 1.643.806.619 2.578 2.982 2.681 1.459.064 4.399-.576 5.567.335.689.538.382 1.392 1.026 1.903.78.62 1.762.2 2.172 1.07.45.956.03 1.787-.812 2.037-.891.264-3.128.342-4.011-.092-1.032-.507-.452-1.986-1.484-2.494-1.893-.93-4.568.3-6.57-.294-1.55-.46-.735-2.144-2.307-2.411-2.167-.37-8.41-.251-10.855-.029-2.244.204-1.654 2.522-4.486 2.541-1.334.01-4.144-.534-5.247.33-1.153.902-.357 2.05-1.812 2.449-2.064.566-5.496-.03-7.021.421.223.815.197 1.632 1.06 2.047 1.516.73 7.845.762 9.398 0 .957-.469.66-1.77 1.484-2.174 1.308-.64 3.893-.055 5.657-.211 2.138-.19 1.01-1.418 2.434-2.533 1.137-.89 5.145-.505 6.52-.281 2.164.351 1.026 2.716 3.528 2.826 1.598.07 3.84-.352 5.392.108 1.888.56.104 1.79 2.014 2.357 1.34.397 5.006-.183 6.306.203 1.569.466 1.374 2.269 0 2.677-1.368.406-4.934-.204-6.306.203-1.267.376-.981 2.074-2.014 2.54-2.323 1.05-5.666-.023-7.633.558.626 2.835-4.522 2.905-6.714 2.487-1.836-.35-.934-1.92-2.348-2.614-1.214-.595-4.82.106-6.28-.294-1.798-.494-.68-2.558-2.904-2.76-1.567-.142-9.099-.851-9.474.983-.584 2.862 6.374.851 7.687 1.887 1.402 1.107.08 2.492 2.12 2.824 2.045.333 5.008-.803 6.52.376.683.533.528 1.835 1.52 2.13 2.568.761 7.448.152 10.193.1 1.717-.032 1.958-.574 2.734-1.818 1.109-1.777 4.378-.402 6.54-.814 1.61-.306.991-1.573 2.119-2.54 1.3-1.116 4.9-.464 5.127.71.34 1.76-1.625 1.091-2.431 2.096-.66.822-.207 1.75-1.07 2.174-1.198.589-4.815-.009-6.28.24-1.232.21-.833.99-1.626 2.013-.857 1.104-2.408.818-3.833.82-3.046.005-6.602.084-9.6-.009-1.529-.047-3.134.115-4.753-.404-1.006-.323-.977-1.895-1.749-2.273-2.082-1.021-4.613.703-6.836-.387-.806-.394-.6-1.526-1.255-2.038-1.036-.809-4.905-1.056-5.098.66-.112.994.661 1.294 1.438 1.572 1.564.559.779 2.16 2.592 2.517 1.004.198 1.91.305 2.861.305 1.025 0 2.289-.617 3.418-.07 1.12.544.42 2.191 1.75 2.586 5.877 1.745 14.143-.865 20.093.149 1.86.317 1.078 2.624 3.22 2.814 1.953.173 4.58-.672 5.886.347.543.424.418 1.41 1.026 1.904.957.778 1.986.235 2.247 1.62.148.789-.237 1.293-.887 1.486-.893.265-3.441.403-4.24-.227-.773-.61-.286-1.882-1.255-2.358-2.003-.985-4.832.596-6.836-.387-1.598-.783-.37-2.168-2.348-2.348-1.247-.113-3.14-.019-4.474-.019-3.47 0-8.18-.14-11.519.006-2.31.102-.92 1.507-2.663 2.361-1.417.695-3.948.361-5.338.417-2.296.092-1.345 1.21-2.753 2.328-.72.57-2.017.174-2.247 1.334-.412 2.081 2.732 2.496 4.633 1.637 1.101-.498.622-1.897 1.749-2.45 1.254-.614 5.175.12 6.57-.294 1.78-.529.264-1.954 1.75-2.557.637-.26 1.487-.03 2.138-.012 1.698.049 4.005.105 5.76.11 1.451.005 3.516-.604 4.636.265.753.585.721 1.875 1.81 2.194 1.668.488 4.73-.392 6.307.294 1.095.477.977 2.043 2.014 2.494 2.135.93 5.673-.993 6.983.706.737.957-.025 1.84-.969 2-1.912.326-7.392.72-9.16-.146-.999-.49-.56-1.722-1.483-2.174-1.34-.657-4.482.002-5.972-.24-1.805-.294-1.043-2-2.348-2.64-1.484-.728-6.213-.37-7.898.127.583 3.571-4.307 2.36-6.714 2.58-1.841.167-.81 1.19-2.119 2.211-.734.574-2.14.33-3.007.33-1.097 0-6.56-.3-4.47 2.366 1.313 1.677 5.456-.173 7.248.706 1.581.776.417 2.326 2.348 2.64 1.535.25 4.761-.337 5.977.24 1.252.595 1.133 2.325 3.297 2.366 1.328.025 4.23.351 5.338-.192 1.101-.54.365-1.854 1.75-2.265 1.91-.567 4.472.505 6.305-.295 1.193-.52.702-1.98 1.749-2.494 1.894-.929 4.783-.193 6.618-.193 1.243 0 3.505-.375 3.69 1.285.16 1.419-1.422 1.56-2.41 1.59-1.569.05-4.051-.599-5.247.334-.822.642-.265 1.553-1.255 2.038-1.244.61-5.192-.113-6.57.295-1.23.364-1.176 2.129-2.307 2.585-2.088.843-8.083.294-10.54.187-2.414-.105-1.219-1.343-2.754-2.545-1.47-1.15-5.146.06-6.8-.43-1.204-.358-.99-2.053-2.014-2.357-.882-.262-1.781-.142-2.832-.096-.986.044-2.34.424-1.722 1.814.396.89 1.521.554 2.168 1.069.93.74.456 1.894 1.52 2.358 1.207.526 4.68.013 6.014.24 2.44.416.321 2.366 2.905 2.786 2.65.43 9.596.113 12.474.043 1.265-.031 3.74.281 4.927-.645 1.308-1.02.278-2.044 2.12-2.212 1.512-.138 4.841.404 5.971-.348.836-.555.419-1.835 1.484-2.358 2.526-1.239 7.965-.212 10.778-.192 2.867.02 1.849 2.226 3.859 2.778 1.988.545 4.531-.562 6.28.294.63.31.823 1.832 1.483 2.198 1.333.74 4.319.466 5.658.464.877 0 1.484-.169 2.24-.24 2.727-.26 6.921.586 9.581.028 1.958-.411 1.05-2.594 3.54-2.641 1.483-.028 4.477.559 5.566-.515.58-.572.38-1.525 1.026-2.038.997-.794 2.272-.062 2.272-1.609 0-1.719-3.72-1.676-4.923-1.087-.885.434-.43 1.658-1.484 2.174-1.897.93-4.564-.3-6.57.295-1.656.491-.7 2.236-2.307 2.676-1.674.46-5.4.102-7.341.102-1.41 0-3.244.426-4.378-.329-.836-.555-.586-2.104-1.75-2.45-1.944-.576-5.01.628-6.89-.294-1.232-.604-.532-1.904-1.75-2.265-1.122-.333-4.083.012-5.39-.137-.855-.097-1.827-.377-1.827-1.56 0-1.313 1.231-1.266 2.145-1.283 1.652-.032 6.186-.206 7.661.046 1.691.288.73 1.632 2.04 2.503 1.175.781 4.799.124 6.28.377 1.747.297.676 2.137 2.598 2.465 1.382.235 5.37.606 6.508-.282 1.308-1.02.278-2.044 2.12-2.212 2.183-.199 4.516.554 6.29-.482.813-.475.548-1.793 1.46-2.224 1.774-.84 7.167 1.135 7.454-1.485.1-.921-.632-1.406-1.457-1.54-1.572-.256-4.582.436-5.973-.24-1.198-.584-.828-2.073-2.347-2.32-2.557-.416-4.189.543-6.292-.556-.885-.462-.695-1.957-1.75-2.27-.823-.245-1.664-.102-2.512-.102-.889 0-3.353-.402-4.287.33-1.307 1.022-.312 2.209-2.12 2.503-1.502.244-4.8-.334-5.971.24-.885.434-.43 1.658-1.484 2.174-1.89.926-5.807.231-7.898.192-.813-.016-2.006-.068-2.212-1-.625-2.829 5.291-1.022 6.965-1.752 1.223-.534.537-2.147 2.014-2.585 2.006-.595 4.676.637 6.571-.295 1.235-.607.381-2.357 2.04-2.64 3.022-.514 8.84-.816 11.775.055 1.594.473.589 2.575 2.613 2.76 1.743.158 4.376-.572 5.972.211 1.721.845.382 2.467 2.663 2.668 1.256.111 3.416.273 3.719-1.29.298-1.539-.983-1.222-2.019-1.762-1.525-.796.063-1.736-1.483-2.496-1.168-.574-5.276.09-6.57-.295-1.395-.413-.582-1.93-2.015-2.356-3.366-.999-8.551-.102-12.113-.102-1.419 0-3.47-.102-4.794.019-2.056.187-.774 1.894-2.613 2.44-2.005.594-4.677-.637-6.571.294-1.04.511-.445 1.983-1.484 2.494-.84.413-3.171.387-3.956 0-.686-.338-.943-1.103-.547-1.945.385-.822 1.104-.457 1.852-1.07.809-.661.439-1.639 1.255-2.039 1.162-.57 3.783-.131 5.338-.199 2.572-.112 1.204-2.166 3.247-2.772 1.532-.455 2.637-.102 4.433-.102h11.52c1.362 0 3.452.823 4.927-.329.732-.571.389-1.613 1.255-2.038 1.89-.927 4.557.492 6.57-.386 1.013-.442.77-1.737 1.52-2.363s2.372-.548 2.219-1.92c-.192-1.712-4.351-1.902-5.284-.77-.966 1.171-.308 2.055-1.933 2.319-1.211.197-4.273-.1-5.415.095-1.5.255-.776 1.326-1.812 2.315-.88.84-3.574.515-4.927.517-3.608.006-8.7.288-12.159-.019-2.641-.234-.8-2.127-2.928-2.76-1.854-.549-5.826.817-6.986-.842-1.111-1.591-2.787-2.577-3.207-4.699l.32-.32c1.737.414 2.788-.423 4.698.513.973.477.48 1.889 1.75 2.265 1.53.455 4.054-.03 5.706.12 2.374.217 1.035 2.46 3.212 2.815 1.801.293 9.198.4 10.855-.055 1.455-.399.659-1.546 1.812-2.449 1.458-1.141 5.097-.081 6.828-.376 1.419-.242 1.287-1.037.979-2.193 1.655-.795 2.847-.38 4.48-.348 1.15.021 2.83.286 3.645-.53.792-.792.24-1.939-.784-2.22-1.81-.497-4.483-.102-6.381-.102-1.239 0-2.707-.374-3.333.74-.428.764-.282 1.46-1.194 1.858-1.986.867-4.303-.024-6.33.248-1.12.15-.998 2.504-2.904 2.588-1.369.06-4.885.459-5.886-.323-.818-.638-.32-1.58-1.255-2.038-1.537-.753-3.793-.09-5.658-.207-2.524-.159-1.128-1.764-2.982-2.673-1.626-.797-4.217.057-5.96-.24-1.466-.25-1.244-1.301-1.618-2.513a11.3 11.3 0 0 1 3.2-.29c.765.046 1.408.231 2.24.207.7-.02 1.498-.066 2.138-.417 1.675-.919.462-2.277 2.663-2.374 1.867-.082 4.511.595 5.977-.383.862-.576.649-1.329.422-2.183 1.66-.49 6.358-1.036 7.836.01 1.231.87.76 2.235 2.41 2.503 2.183.354 4.197-.63 5.972.24 1.047.513.4 1.848 1.75 2.267 1.19.37 2.13.322 3.152.392 1.437.098 7.698.663 6.828-1.85-.594-1.716-2.77-1.002-3.948-1.002-.965 0-3.054.391-3.967-.329-.756-.596-.289-1.883-1.255-2.358-2.002-.984-4.832.596-6.836-.386-1.421-.696-.444-2.047-2.04-2.32-2.06-.35-7.52-.063-9.902-.046-2.678.018-1.616 1.54-3.302 2.366-.904.443-1.859.193-2.778.193-1.343 0-2.388-.315-3.793.102-1.256.373-1.112 2.282-2.306 2.64-1.911.572-4.9.44-4.353-1.736.293-1.166 1.51-.74 2.26-1.334.821-.653.427-1.634 1.254-2.039 1.17-.574 4.469.004 5.972-.24 1.61-.262 1.011-1.637 2.119-2.504 1.728-1.353 6.263-.329 8.767-.329 2.66 0 7.9-1.102 9.727.33 1.22.954.503 2.36 2.434 2.531 1.542.137 4.496-.357 5.657.212 1.027.504.48 2.054 2.04 2.32 1.426.243 4.73.39 4.342-1.512-.235-1.15-1.547-.813-2.247-1.514-.832-.832-.224-1.668-1.255-2.174-1.202-.59-4.98-.019-6.28-.24-2.42-.413-.495-2.572-3.22-2.814-6.012-.533-13.691 1.594-19.47-.12-1.665-.494-.637-2.127-2.307-2.411-1.89-.322-5.605.77-6.694-.79-1.375-1.967-2.494-2.388-3.207-4.698 1.245-.368 4.256-.767 5.247.01.999.78.409 2.225 2.12 2.503 2.34.38 3.834-.576 5.706.24 1.24.542.845 2.508 2.613 2.669 3.468.315 7.364.018 10.874.018 1.767 0 4.05.363 5.741-.101 1.657-.455.766-1.96 2.04-2.586 1.195-.585 4.547-.082 5.973-.211 1.175-.107 1.357-.574 1.635-1.569.185-.664.323-.964.977-1.197.864-.308 2.63-1.322 1.132-2.327-1.278-.857-3.692-1.017-4.69.184-.504.606-.325 1.648-1.335 1.984-1.998.663-4.656-.685-6.571.256-1.376.677-.35 2.487-2.348 2.669-3.297.3-6.929.158-10.233.012-1.158-.05-1.563-.285-1.921-1.286-.272-.76-.463-1.256-1.299-1.486-1.898-.521-4.416.365-6.334-.203-1.296-.385-.8-1.8-1.749-2.266-1.161-.569-4.115-.075-5.657-.211-1.024-.091-2.057-.561-1.8-1.856.198-1 1.303-.989 2.12-1.004 2.158-.04 6.276-.761 8.217.191 1.549.76.405 2.324 2.348 2.64 1.695.276 5.04-.53 6.201.376.62.484.355 1.597 1.255 2.038 1.379.676 4.78.402 6.28.146 1.921-.327.85-2.168 2.597-2.465 1.668-.284 4.804.406 6.334-.285 1.101-.498.622-1.897 1.749-2.45 1.396-.684 8.479.874 7.366-2.012-.715-1.855-5.414-.243-7.113-.935-1.167-.475-.772-1.564-1.823-2.357-1.362-1.026-4.371-.213-5.89-.347-2.164-.192-1.007-1.415-2.435-2.533-1.15-.9-4.48-.384-5.886-.322-2.665.117-1.14 2.472-3.22 2.826-1.655.282-5.328-.547-6.508.376-1.017.797-.432 2.07-1.812 2.45-1.418.39-6.05.189-7.66.087-.954-.06-2.146-.27-2.146-1.58 0-1.147.94-1.24 1.826-1.28 1.368-.06 4.281.286 5.392-.199 1.223-.533.537-2.147 2.014-2.585 1.796-.533 5.33.47 6.891-.295 1.536-.752.707-2.348 3.302-2.366 2.65-.019 6.017-.018 8.64 0 1.12.008 2.008-.132 2.477 1.004 1.131 2.742 3.722 1.614 6.797 1.894 1.978.18.75 1.565 2.348 2.348 1.395.684 5.272.471 4.898-1.365-.235-1.15-1.547-.814-2.247-1.514-1.176-1.177-.371-2.27-2.434-2.361-1.935-.086-2.962.31-5.1-.054-1.866-.318-.748-2.47-2.598-2.785-3.561-.607-8.454-.048-12.141-.048-1.517 0-3.643-.322-5.073.102-1.763.523-.852 2.613-3.247 2.764-1.606.102-3.963-.467-5.338.208-1.01.494-.6 2.074-2.04 2.319-1.035.176-4.05.477-4.342-.954-.341-1.68 1.341-1.35 2.247-2.169 1.132-1.024.22-1.95 1.812-2.222.849-.145 1.688-.048 2.541-.048 1.103 0 2.418.211 3.473-.101 2.089-.62.43-2.342 2.928-2.452 4.062-.18 9.852-.006 14.079-.006 1.785 0 3.86.455 5.393-.238 1.098-.496.627-1.616 1.52-2.314 1.094-.854 5.445.07 6.8-.521.761-.333.78-.924 1.09-1.681.47-1.15 2.705-.86 2.357-2.565-.3-1.464-2.738-1.367-4.313-.9-1.217.361-.517 1.662-1.749 2.266-1.897.93-4.564-.301-6.57.294-1.273.378-.654 1.766-1.521 2.45-1.124.886-3.084.329-4.287.329-3.035 0-10.322.406-13.114-.048-1.931-.314-.767-1.864-2.348-2.64-2.004-.982-4.833.6-6.836-.385-.967-.476-.488-1.744-1.255-2.359-.765-.613-2.272-.231-2.272-1.608 0-1.581 1.732-1.304 3.105-1.279 2.93.054 1.269 1.688 3.302 2.686 1.238.607 3.645.183 5.018.193 2.708.019 1.828 2.166 3.859 2.512 2.357.402 9.609.796 11.774-.145 1.235-.538.808-2.065 2.306-2.32 1.536-.262 4.43.31 5.694-.24 1.097-.48.524-1.58 1.52-2.359 1.34-1.049 8.246.987 7.687-1.9-.383-1.975-8.777-1.883-10.338-1.115-1.118.55-.42 2.19-1.75 2.585-1.878.557-5.218-.807-6.8.43-1.55 1.214-.34 2.44-2.752 2.545-1.266.056-4.256.434-5.252-.322-.619-.47-.58-1.701-1.312-2.223-.61-.434-1.238-.322-2.076-.328-.724-.005-1.174 0-1.92 0-.912 0-1.576.163-2.541-.102-1.466-.403-.752-1.62-1.812-2.45-1.38-1.08-7.712.89-7.712-1.608 0-1.122.92-1.234 1.826-1.274 1.368-.06 4.281.285 5.392-.2 1.16-.506.516-1.888 1.749-2.493 1.896-.93 4.565.3 6.57-.295 1.273-.378.654-1.765 1.521-2.45 1.093-.862 4.575-.453 5.886-.268 1.984.28 1.28 1.95 2.663 2.627 1.969.965 5.303-.858 7.065.521 1.298 1.017.304 2.21 2.12 2.504 1.575.256 6.014.176 7.672.029.973-.087 1.826-.425 1.826-1.569 0-2.534-6.316-.532-7.712-1.621-.827-.645-.428-1.633-1.255-2.038-1.137-.558-4.182-.06-5.657-.228-2.19-.25-1.076-1.875-2.663-2.652-1.703-.835-8.432-.236-10.778-.192-2.477.047-1.506 1.94-3.247 2.457-1.342.398-5.353-.303-6.571.295-1.208.592-.618 2-1.75 2.494-.792.345-1.504.23-2.512.186-1.145-.049-2.406-.421-2.12-1.867.224-1.128 1.588-.812 2.247-1.335.661-.525.506-1.671 1.255-2.038 1.333-.654 4.386.017 5.972-.24 1.981-.323.845-2.207 2.613-2.732 3.593-1.066 8.986-.101 12.753-.101 1.343 0 3.513-.267 4.753.101 1.495.444.44 1.942 1.749 2.586 2.591 1.274 4.517-.752 6.836.386.996.488.884 2.267 2.04 2.585 2.058.565 6.294.102 8.622.102.985 0 2.035.155 2.833-.193.88-.385.679-1.379 1.334-2.174 1.17-1.42 4.007-.349 6.072-.532 1.905-.17 1.185-1.059 2.248-2.348.702-.851 2.542-.513 3.513-.513 4.368 0 10.504-1.079 14.685.101 1.626.46.93 2.444 2.614 2.731 2.425.413 7.28-1.228 6.701 2.288.957.286 4.513 1.167 2.367 2.87-.762.606-3.381.53-4.185.137-2.004-.982-.692-2.362-3.942-2.367-1.41-.003-3.62.165-4.608-.64-.58-.472-.64-1.508-1.253-1.912-2.01-1.323-8.826-.437-11.418-.322-1.514.067-1.43.527-2.108 1.842-.712 1.381-2.094 1.031-3.653 1.032-1.445 0-2.991-.433-3.967.329-.684.533-.376 1.79-1.52 2.129-1.057.313-9.788-.543-6.8 2.469 1.352 1.362 7.953 1.055 9.68.275 1.154-.521.904-2.468 2.613-2.624 1.516-.138 4.704.412 5.972-.211 1.712-.842-.193-2.009 1.75-2.586 1.19-.353 5.8-.56 6.799.228.84.662.22 1.849 1.255 2.358 1.977.972 4.85-.587 6.836.386.85.416.569 1.503 1.255 2.038 1.54 1.202 7.986-1.192 7.74 1.916-.202 2.575-5.902.694-7.511 1.486-1.032.507-.452 1.986-1.484 2.494-1.88.924-4.592-.293-6.57.294-1.345.4-.815 1.829-1.75 2.45-1.707 1.135-6.576.956-7.391-.677-1.162-2.328-2.426-1.874-4.667-1.874-1.232 0-2.148.272-3.098-.193-1.31-.642-.18-1.72-1.75-2.405-1.63-.712-10.778-1.171-10.084 1.592.43 1.709 3.98 1.005 5.012 1.006.875 0 1.542-.092 2.193.101 1.447.43.905 2.292 2.306 2.677 1.3.357 4.81-.154 6.014.203 1.362.405.569 2.115 2.306 2.411 2.657.453 4.31.048 6.701.048h2.56c.768 0 1.467.105 2.221-.102 1.305-.358.893-1.445 1.81-2.237.611-.526 1.349-.283 2.049-.248 1.273.063 3.919.429 5.018-.302.954-.634.52-2.085 1.75-2.45.998-.296 4.337-.435 4.337 1.191 0 1.165-.872 1.3-1.78 1.67-1.284.526-.472 1.66-1.747 2.285-1.644.805-4.59-.198-6.25.294-1.325.393-1.048 2.263-2.307 2.64-1.317.395-2.982.139-4.461.139-3.547 0-8.444.282-11.839-.02-1.987-.175-1.41-2.006-2.928-2.667-1.502-.654-4.735.17-6.306-.295-1.068-.317-1.123-1.877-2.014-2.265-1.745-.76-4.658-.632-4.658 1.087 0 1.635 2.033.947 2.593 2.021.352.673.095 1.328.705 1.81.723.57 1.894.328 2.687.329 1.315 0 2.694-.32 4.113.101 1.538.457.775 2.441 2.613 2.731 1.526.24 2.171-.192 3.514-.231 3.67-.109 9.297-.12 13.12-.033 1.099.025 3.063-.19 3.833.804.684.884.226 1.637 1.334 1.966 1.403.416 4.928-.305 6.306.295 1.115.486.773 1.647 1.747 2.364.81.596 1.725.425 1.725 1.603 0 1.638-3.824 1.737-4.832.95-1.597-1.245-.349-2.183-2.753-2.229-1.556-.03-4.123.478-5.338-.33-.597-.397-.796-2.02-1.484-2.358-1.296-.636-2.831-.193-4.378-.193-3.635 0-9.401-.29-12.794.018-2.125.194-.976 2.23-2.905 2.76-2.075.57-4.95-.785-6.508.43-.531.415-.453 1.442-1.026 1.92-.861.716-2.434.22-2.3 1.9.142 1.803 3.942 1.634 4.951.963 1.248-.83.148-1.703 1.484-2.358 1.24-.609 4.842.004 6.28-.24 1.411-.241 1.18-2.078 2.305-2.412 2.734-.81 4.49-.3 6.993-.409 1.397-.06 3.38-.262 4.753.106 1.332.356.638 2.023 1.749 2.569 1.873.92 4.312-.193 6.28.424 1.504.473.837 1.528 2.04 2.32 1.802 1.187 7.695-1.176 7.695 1.609 0 .934-.926 1.19-1.718 1.261-1.862.165-6.999.58-8.537-.174-1.211-.594-.38-1.633-1.484-2.174-.666-.327-1.366-.192-2.138-.193-1.554-.003-3.463.414-4.698-.193-1.952-.96.244-2.433-2.348-2.669-1.387-.126-5.4-.621-6.509.31-.53.446-.29 1.291-.587 1.81-.598 1.05-1.949.741-3.138.742-1.742 0-3.391-.621-4.607.329-.818.638-.628 1.91-1.52 2.313-1.218.55-3.833.175-5.392.244-.907.04-1.826.152-1.826 1.274 0 2.499 6.333.53 7.712 1.609 1.424 1.114.296 2.342 2.434 2.532 2.076.184 5.257-.945 6.212.76.82 1.464.88 2.076 2.747 2.134 1.847.057 2.827-.029 4.474-.277 1.738-.262 1.087-1.787 2.348-2.405 1.908-.935 4.627.462 6.57-.386 1.205-.526.689-1.974 1.75-2.494 1.856-.91 6.065-.282 8.217-.187.872.038 1.826.237 1.826 1.286 0 3.217-5.347.734-7.483 1.78-.948.465-.453 1.881-1.75 2.266-2.005.595-4.675-.637-6.57.295-1.376.676-.35 2.486-2.348 2.668-2.73.248-8.95 1.033-11.412-.174-1.814-.89-.566-2.461-3.302-2.392-1.497.038-3.44.358-5.018-.444-1.03-.524-.546-1.758-1.484-2.218-.85-.417-1.714-.212-2.778-.192-1.028.02-2.145.028-2.145 1.279 0 1.377 1.507.995 2.272 1.608.767.615.288 1.883 1.255 2.359 1.747.859 4.79-.234 6.57.294 1.38.41.91 2.293 2.307 2.677 1.153.317 2.865.102 4.141.102 3.37 0 9.404.451 12.474-.048 2.076-.337.824-2.43 2.905-2.785 1.883-.32 4.54.614 6.28-.24 1.234-.608.38-2.357 2.04-2.64 1.09-.186 3.681-.442 4.033.959.424 1.687-1.13 1.538-1.94 2.201-.838.687-.47 1.841-1.52 2.315-1.877.85-4.593-.538-6.57.43-1.21.594-.423 1.873-1.75 2.266-1.46.433-4.123.102-5.712.102-4.593 0-9.857-.724-14.381.047-2.241.382-.574 2.602-2.905 2.814-2.308.21-4.199-.658-5.972.212-1.328.651-.607 2.05-2.035 2.604-.774.3-1.492.382-1.492 1.363 0 1.681 3.28 1.417 4.366 1.232 1.54-.262.773-1.373 1.812-2.183 1.18-.921 4.127-.273 5.567-.335 1.975-.087 1.622-1.215 2.567-2.361.475-.576 1.182-.498 1.913-.512 3.547-.067 7.605-.002 11.2-.002 1.755 0 3.517-.36 5.073.102 1.313.39 1.115 2.599 2.928 2.76 1.61.142 4.188-.509 5.657.211 1.128.553.465 1.617 1.483 2.18.902.499 2.142.404 1.99 1.759-.187 1.66-3.596 1.826-4.87.98-.887-.591-.443-2.063-1.748-2.45-1.514-.45-2.677-.101-4.113-.102-1.356 0-2.42.313-3.013-.74-.818-1.45-1.024-1.816-3.067-1.82-2.89-.006-7.123-.712-9.873.102-1.044.31-.924 1.586-1.748 2.13-1.26.829-3.867.318-5.339.328-2.828.02-1.32 1.168-3.073 2.551-.946.747-2.652.33-3.967.33-1.161 0-3.745-.472-3.745 1.28 0 1.21 1.225 1.26 2.145 1.278 2.168.04 6.26.767 8.218-.192 1.548-.759.47-2.177 2.348-2.348 1.672-.152 5.08.574 6.201-.532 1.328-1.31.416-2.321 2.753-2.365 1.257-.024 3.667-.144 4.781.046 1.199.204.898 1.043 1.626 2.054 1.18 1.636 4.263.604 6.387.797 1.841.168.81 1.192 2.119 2.212 1.426 1.113 4.811.099 6.52.377.886.144 1.512.623 1.512 1.54 0 .918-.658 1.196-1.511 1.273-1.687.154-4.442-.52-5.998.212-1.304.614-.755 2.21-2.322 2.58-1.226.29-3.42-.37-5.113-.178-2.032.231-1.27 1.97-2.663 2.652-1.398.686-4.438.314-5.972.174-1.834-.166-1.23-1.8-2.348-2.348-1.121-.55-3.845-.113-5.338-.207-2.524-.159-1.128-1.764-2.982-2.673-1.957-.96-6.05-.232-8.218-.191-.763.014-1.972-.006-2.028 1.004-.191 3.451 5.346 1.077 7.366 2.067.885.434.43 1.658 1.484 2.174 1.812.888 4.702-.226 6.6.295 1.466.403.811 1.667 1.81 2.45 1.16.907 4.138.328 5.568.328 1.795 0 5.236.434 6.673-.193 1.223-.534.537-2.147 2.014-2.585 2.007-.595 4.674.635 6.571-.295 1.053-.516.6-1.74 1.484-2.174 1.203-.59 4.923-.632 4.923 1.087 0 1.535-1.316.842-2.272 1.609-.806.647-.337 1.68-1.026 2.222-1.055.832-4.43.271-5.886.335-2.141.095-1.42 2.2-3.22 2.507-2.81.478-7.687-.065-10.541.06-1.731.076-2.542.316-4.48.307-1.16-.006-2.205.148-2.873-.778-1.11-1.54-.74-2.087-2.887-2.102-1.52-.01-3.79.488-5.018-.329-1.08-.717-.435-2.23-2.04-2.503-1.008-.172-4.058-.47-4.342.958-.35 1.764 1.33 1.455 2.247 2.202.62.505.608 1.793 1.255 2.223 1.293.86 4.366.202 5.972.348 2.127.194.82 2.138 2.905 2.494 2.706.46 6.24.047 8.941.047h2.56c2.656 0 6.262-.59 8.593.102.987.293 1.303 2.518 2.613 2.73 1.834.299 4.577-.443 5.972.241.719.353.522 1.188 1.07 1.855.795.97 2.757.744 2.432 2.386-.3 1.511-4.455 1.557-5.311.493-.624-.775-.152-1.913-1.336-2.265-1.885-.56-4.084.18-6.014-.15-2.24-.38-.885-2.46-3.54-2.51-3.836-.073-8.266-.001-12.159-.001-1.446 0-3.275-.348-4.378.193-.948.464-.453 1.88-1.75 2.265-2.005.595-4.675-.637-6.57.295-.897.44-.53 1.5-1.07 2.174-.513.638-1.813.612-2.552.833.863 3.179 6.189 3.608 5.44 0 2.213-.655 5.561.193 7.633-.422 1.913-.568.075-1.762 1.749-2.585.781-.385 2.219-.193 3.098-.193 2.675 0 6.347-.66 8.913.101 1.281.38.828 2.068 2.014 2.586 1.904.83 4.316-.293 6.306.294 1.259.372 1.096 2.077 2.322 2.586.923.382 2.24.193 3.165.193 1.042 0 1.745-.143 2.861.047.943.16 1.954 1.252.786 2.184-1.213.967-8.071.774-9.68.271-1.076-.336-.806-1.616-1.52-2.173-.89-.695-2.039-.33-3.327-.33-1.172 0-2.406.273-3.473-.192-1.79-.781-.342-2.462-2.613-2.669-1.434-.13-4.725-.437-5.972.175-1.498.734-.61 2.523-2.982 2.673-1.558.098-4.487-.367-5.658.207-.885.433-.43 1.657-1.484 2.174-2.108 1.033-5.28-.167-7.578.513.325 1.295.127 2.258 1.619 2.512 1.6.273 4.823-.609 6.217.377 1.231.87.76 2.236 2.41 2.503 1.638.266 4.435-.513 5.972.24 1.378.676.44 2.175 2.348 2.349 1.322.12 4.872.365 5.972-.174 1.101-.54.365-1.855 1.75-2.266 2.26-.67 4.667.787 6.57-.479.588-.39.7-1.74 1.255-2.173.63-.493 1.622-.328 2.367-.33 1.562-.002 3.54 0 5.12 0 .98.001 2.519-.348 3 .741.292.658 0 1.4-.542 1.762-2.097 1.402-5.553-.723-7.385.707-.684.533-.376 1.79-1.52 2.129-1.795.532-4.61-.505-6.252.295-1.542.752-.958 2.579-3.301 2.68-2.488.108-8.361.752-10.513-.186-1.15-.502-.703-2.196-2.014-2.586-1.342-.398-5.353.303-6.571-.294-1.079-.529-.499-1.691-1.484-2.174-1.097-.538-4.976-.586-4.578 1.365.215 1.054 1.086.638 1.927 1.33.824.675.477 1.706 1.255 2.223 1.111.739 3.483.318 5.018.329 2.757.019 1.56 1.345 3.302 2.502 1.119.744 2.522.378 4.058.378 3.304 0 6.618.01 9.92 0 1.203-.005 2.799.166 3.793-.254.942-.398.737-1.392 1.334-2.114 1.139-1.373 4.84-.105 6.694-.614 2.154-.592.774-2.757 3.859-2.778 2.822-.02 7.937-.663 10.513.101 1.745.518.774 2.665 3.247 2.772 1.751.077 4.31-.647 5.567.336.613.478.703 1.958 1.52 2.309 2.267.97 6.24.019 8.593.03 1.153.005 1.905.205 3.2.211 1.636.008 4.473.323 5.713-.237 1.119-.506.656-2.137 2.014-2.54 1.994-.592 4.312.388 6.306-.204 1.269-.377.66-1.76 1.52-2.45.692-.555 1.533-.185 2.037-.841.652-.85.137-1.704-.677-1.946-.898-.266-2.813-.276-3.746 0-1.247.37-.767 1.987-2.014 2.357-2 .593-4.683-.634-6.571.295-1.14.56-.397 2.183-1.75 2.585-3.152.936-7.414.246-10.83.096-2.267-.1-1.29-1.642-2.435-2.545-.752-.594-2.628-.33-3.647-.33-1.177 0-3.047.397-3.837-.512-.548-.63-.479-1.484-1.33-1.854-1.525-.663-3.91-.05-5.707-.212-1.063-.096-2.46-1.122-1.584-2.348.453-.635 1.542-.508 2.218-.513 1.871-.013 6.621-.85 8.127.329.84.657.469 1.7 1.255 2.222 1.118.743 3.786.3 5.338.33 2.63.05 1.194 1.848 3.247 2.457 1.298.385 5.707.625 6.8-.227.692-.54.402-1.62 1.255-2.038 1.234-.605 3.458-.19 4.698-.193 3.1-.006 1.496-1.055 3.393-2.551 1.356-1.07 4.876-.198 6.52-.348.977-.089 1.92-.652 1.408-1.801-.469-1.052-2.014-.73-3.001-.742-1.702-.02-3.828-.048-5.44-.638.518-4.04-5.934-1.092-7.807-2.57-.703-.554-.32-1.665-1.026-2.221-.984-.777-6.308-.772-7.294 0-.84.657-.469 1.7-1.255 2.222-1.118.744-4.114.267-5.657.335-2.382.105-.959 1.868-2.928 2.452-1.995.592-6.904.578-8.866 0-1.071-.316-1.068-1.193-1.327-2.138 2.457-.727 4.413.106 7.034-.393 1.74-.332 1.112-2.26 2.613-2.706 1.685-.5 4.61.468 6.279-.294 1.319-.603.41-2.363 2.014-2.64 2.454-.423 5.852-.142 8.3-.035.979.043 1.878.178 2.874.314 2.015.275.965 2.176 2.905 2.506 1.873.32 4.547-.61 6.28.24 1.234.608.38 2.358 2.04 2.64 1.31.223 4.439.4 4.286-1.54-.105-1.338-1.362-.945-2.192-1.62-.695-.564-.45-1.645-1.255-2.04-1.652-.809-4.015.078-5.972-.24-1.75-.284-1.216-2.497-2.905-2.785-2.197-.374-6.765-.047-8.941-.047h-4.8c-1.116 0-3.055-.383-3.967.329-.974.76-.216 1.742-1.52 2.129-1.487.441-4.778-.25-6.306.203-1.834.545-.13 1.79-1.749 2.586-1.385.68-5.058.525-4.819-1.681.128-1.175 1.463-.775 2.168-1.335.615-.488.481-1.477 1.026-1.902 1.293-1.01 3.95-.176 5.886-.348 2.4-.213 1.032-2.441 3.22-2.814 4.624-.788 10.006-.047 14.701-.047 1.437 0 4.448.4 5.658-.193.99-.486.433-1.397 1.255-2.038 1.453-1.134 4.384-.056 6.2-.402 1.572-.3 1.206-2.211 2.613-2.712 1.092-.388 2.225-.573 1.675-1.97-.531-1.347-3.94-1.55-5.048-.676-.773.61-.286 1.882-1.255 2.358-2.003.984-4.832-.597-6.836.386-1.581.775-.417 2.325-2.348 2.64-1.226.199-3.155.047-4.474.047-3.446 0-8.214.274-11.519-.02-1.135-.1-1.52-.446-1.921-1.568-.394-1.101-.845-1.239-1.921-1.286-1.543-.068-4.538.409-5.657-.335-.787-.523-.419-1.557-1.255-2.223-.78-.62-2.55-.397-2.247-1.887.273-1.336 1.747-1.01 3.08-1.001 2.593.017 1.763 1.612 3.302 2.367 1.117.547 4.396.075 5.657.253 2.998.423.609 2.327 3.22 2.772 2.424.413 9.452.97 11.72-.145 1.117-.55.419-2.19 1.748-2.586 1.755-.52 5.384.444 6.891-.294.947-.464.384-1.36 1.255-2.038 1.55-1.21 8 1.138 7.658-1.925-.088-.788-.703-1.114-1.457-1.237-1.968-.32-6.756-.489-8.587.054-1.267.376-.981 2.074-2.014 2.541-1.83.827-4.815-.246-6.626.291-1.22.362-.634 1.995-2.014 2.405-1.296.384-5.092.549-6.251-.054-1.582-.824-.533-2.357-2.982-2.403-1.554-.03-4.534.417-5.658-.33-.786-.523-.415-1.565-1.255-2.222-2.178-1.705-8.979 1.894-7.487-3.21 1.463.349 5.096.955 6.993.128 1.16-.506.516-1.89 1.749-2.494 1.884-.925 4.597.262 6.598-.295 1.722-.48.546-2.574 2.586-2.76 1.407-.128 5.053-.595 6.2.31.868.685.249 2.072 1.521 2.45 1.884.56 4.824-.331 6.626.203 1.866.554.148 1.803 2.014 2.357 1.447.429 9.82.85 9.908-1.178.108-2.467-6.254-.626-7.523-1.61-.997-.771-.29-1.791-1.545-2.357-1.851-.834-4.641.286-6.6-.295-1.839-.546-.557-2.252-2.613-2.44-1.839-.167-6.702.048-8.634-.03-.842-.035-1.633-.32-2.513-.13-1.87.404-.054 1.675-1.749 2.509-1.169.574-5.274-.09-6.57.294-1.664.494-.301 1.488-1.521 2.45-.967.763-5.152.791-5.152-1.259 0-1.456 1.47-.984 2.272-1.621.828-.657.426-1.632 1.255-2.038 1.137-.558 4.182-.06 5.657-.228 3.227-.368.524-2.553 3.527-2.827.998-.09 2.079-.018 3.194-.018 3.772 0 10.184-.946 13.713.101 1.67.496.788 2.57 2.928 2.76 1.557.138 4.484-.363 5.657.212.827.405.428 1.393 1.255 2.038 1.107.864 4.904.734 5.098-.951.147-1.278-1.563-1.138-2.218-1.793-.832-.832-.224-1.669-1.255-2.174-1.334-.655-5.063.15-6.57-.295-1.513-.447-.777-2.228-2.33-2.677-6.084-1.755-13.525.917-19.78-.149-2.239-.381-.884-2.46-3.538-2.51-1.552-.03-4.22.412-5.338-.331-.787-.523-.419-1.557-1.255-2.223-.941-.75-2.735-.31-2.26-2.202.353-1.402 3.244-1.226 4.326-.905 1.33.395.631 2.036 1.749 2.586 1.652.812 4.494.048 6.292.211 1.892.173 1.46 2.53 3.212 2.814 3.315.54 8.632.048 12.154.048 1.479 0 3.144.256 4.461-.14 1.26-.376.982-2.246 2.306-2.639 1.571-.466 5.12.549 6.568-.43.79-.534.474-1.376 1.035-2.039.611-.72 2.175-.503 2.175-1.792 0-1.69-2.633-1.684-4.338-1.179-1.089.323-.732 1.767-1.749 2.266-1.5.735-4.952-.186-6.57.294-1.835.545-.132 1.79-1.75 2.586-1.566.77-6.007.193-7.898.193-1.26 0-3.885.493-4.927-.33-.867-.683-.248-2.07-1.52-2.449-2.007-.595-4.674.635-6.571-.294-1.053-.517-.6-1.74-1.484-2.174-2.136-1.047-7.483 1.436-7.483-1.78 0-1.05.954-1.249 1.826-1.287 2.196-.097 6.557-.785 8.537.187 1.72.843.385 2.466 2.663 2.668 1.386.123 4.537-.337 5.657.212 1.017.498.389 1.861 1.75 2.265 1.297.385 5.706.625 6.8-.227 1.44-1.125.282-2.13 2.433-2.225 1.543-.068 4.539.409 5.657-.335.786-.523.415-1.565 1.255-2.222 1.41-1.105 7.712.977 7.712-1.61 0-1.167-.989-1.236-1.826-1.273-1.303-.058-3.969.194-5.1-.145-1.464-.439-.767-2.183-2.306-2.64-2.006-.594-4.677.637-6.571-.294-1.235-.608-.381-2.357-2.04-2.64-1.373-.234-5.386-.604-6.509.282-1.49 1.174-.07 2.44-2.434 2.544-1.536.068-4.505-.365-5.657.2-.885.433-.43 1.657-1.484 2.174-1.957.959-6.05.232-8.218.191-.816-.015-1.914.005-2.12-1-.272-1.335.895-1.512 1.801-1.552 1.305-.058 4.302.276 5.392-.2 1.223-.533.537-2.146 2.014-2.585 2.007-.595 4.674.635 6.571-.294 1.743-.855.354-2.26 2.663-2.361 2.65-.117 8.808-.6 11.152.095.96.285.986 2.186 2.306 2.411 1.435.245 5.041-.368 6.28.24 1.332.656.153 1.49 1.254 2.359.991.781 5.024.819 4.86-1.259-.114-1.464-1.456-.951-2.3-1.621-.604-.48-.46-1.461-1.026-1.902-1.309-1.022-3.683-.225-5.567-.343-2.579-.163-1.193-2.155-3.247-2.765-1.242-.368-3.19-.101-4.433-.101h-9.28c-1.054 0-1.759-.083-2.874.018-1.932.176-1.743 2.78-4.166 2.857-2.163.068-3.416-.746-5.073-.11-.963.37-.775 1.483-1.334 2.162-.791.959-4.702.935-4.993-.489-.271-1.33.848-1.323 1.754-1.79 1.064-.547.7-1.942 1.748-2.455 1.645-.807 4.854.215 6.57-.295 1.98-.588.22-2.542 2.614-2.76 4.756-.432 9.922-.024 14.714-.018 1.362.002 3.318.413 4.461.116 2.58-.672.51-2.618 3.54-2.675 1.491-.028 4.258.387 5.337-.33.724-.481.452-1.286 1.07-2.038.754-.92 2.769-.308 2.432-2.1-.296-1.573-2.765-1.46-4.021-1.246-1.848.315-.652 1.918-2.306 2.64-1.798.784-4.706-.275-6.626.294-1.822.541-.613 2.406-2.613 2.731-1.226.2-3.154.048-4.474.048-3.405 0-6.838.023-10.24 0-2.69-.02-1.93-1.312-3.684-2.551-.708-.5-1.648-.328-2.396-.33-1.745-.003-3.021.473-4.378-.192-1.22-.599-.306-1.54-1.483-2.36-.65-.452-1.808-.3-2.019-1.329-.41-2.008 3.785-2.027 4.807-1.23.686.536.405 1.622 1.255 2.039 2.005.982 4.83-.594 6.837.386 1.026.501.668 1.995 1.774 2.494 2.28 1.027 9.637.804 12.04.091 1.39-.413.624-2.264 2.014-2.677 1.978-.586 4.88.691 6.571-.253.814-.454.563-1.54 1.255-2.08 1.56-1.217 7.524 1.137 7.74-1.62.182-2.306-8.77-2.192-10.391-1.395-1.032.507-.452 1.986-1.484 2.494-1.724.847-4.895-.203-6.57.294-1.186.352-.656 1.455-1.52 2.13-1.139.888-5.127.517-6.51.281-1.59-.27-1.006-2.194-2.597-2.465-1.883-.32-4.54.614-6.28-.24-1.031-.508-.45-1.987-1.483-2.494-1.52-.748-7.026.975-7.458-1.2-.447-2.257 2.39-1.555 3.4-1.57 1.055-.016 3.471.165 4.287-.58.679-.618.438-1.86 1.52-2.182 1.78-.528 4.597.304 6.306-.203 1.336-.397.919-1.415 1.327-2.778 2.006.472 4.72-.514 6.993.11 1.342.367.623 2.023 1.749 2.577 1.888.928 4.57-.299 6.57.294 1.185.352.746 1.774 1.75 2.266 1.68.823 3.7.428 5.338.5 1.909.084 5.487.599 5-1.861-.423-2.134-6.439-.36-7.687-1.335-1.218-.951-.252-2.126-2.12-2.478-1.583-.3-3.078.28-4.473.22-2.241-.098-1.412-1.488-2.981-2.524-2.088-1.379-7.456-.33-10.139-.33-1.114.001-1.957-.24-2.687.33-.658.513-.443 1.81-1.52 2.129-2.006.595-4.676-.637-6.571.295-.898.441-.53 1.501-1.07 2.174-.672.834-3.796.821-4.599.184-1.983-1.574 1.154-2.373 1.72-3.064.726-.887.305-1.64 1.334-1.946 1.205-.357 4.715.154 6.014-.203 1.606-.441.651-2.185 2.306-2.677 1.675-.497 3.973-.101 5.713-.101 3.678 0 7.878-.57 11.501.047 2.081.355.83 2.448 2.905 2.785 1.941.316 4.639-.57 6.292.24.985.484.405 1.646 1.484 2.175 1.825.894 7.272.193 9.498.193" fill="none" stroke="#30281f"/></svg>