<?xml version="1.0" encoding="UTF-8" standalone="no"?>
<!-- Created with Inkscape (http://www.inkscape.org/) -->

<svg
   version="1.1"
   id="svg1"
   width="310.39999"
   height="103.22803"
   viewBox="0 0 310.39999 103.22804"
   xmlns="http://www.w3.org/2000/svg"
   xmlns:svg="http://www.w3.org/2000/svg">
  <defs
     id="defs1" />
  <g
     id="g1"
     transform="translate(-7.6799998,-8.9787749)">
    <path
       style="fill:none;stroke:#362e22"
       d="m 7.6799998,9.9199969 c 1.3393732,0 5.2783592,-0.4878418 6.0711112,0.5130861 1.076906,1.3597 0.328889,4.654153 0.328889,6.526917 0,5.797646 -0.529766,13.621943 0.132345,19.2 0.256275,2.159033 -0.109038,2.662285 -0.04938,4.799999 0.125439,4.494966 0.06922,8.946582 -0.04173,13.44 C 13.810067,67.002362 14.4,79.816298 14.4,92.479999 V 100.8 v 4.8 c 0,1.26254 -0.362638,3.97649 0.328889,4.98123 1.031076,1.49808 3.275669,0.77877 5.111111,0.77877 5.189582,0 11.57299,0.77537 16.633827,-0.0474 2.078345,-0.3379 1.606172,-2.81957 1.606172,-4.4326 V 95.999999 c 0,-1.39625 0.421311,-3.449658 -0.193086,-4.698272 -0.549148,-1.116015 -2.882839,-0.741728 -3.966914,-0.741728 h -9.28 c -1.185332,0 -2.975639,-0.339639 -4.058271,0.193086 C 19.069937,91.496981 19.84,96.738983 19.84,98.239999 c 0,1.762691 -0.776615,6.091091 0.328889,7.486911 0.59385,0.7498 2.017402,0.51271 2.87111,0.51309 2.218218,9.9e-4 6.997664,0.91268 8.858272,-0.32889 1.171902,-0.78201 0.741728,-3.23289 0.741728,-4.47111 0,-1.584572 0.61721,-4.052365 -0.328889,-5.246915 -0.457185,-0.577246 -1.29561,-0.499961 -1.911357,-0.511602 -1.241465,-0.02348 -3.905508,-0.481367 -4.926668,0.327403 -0.738811,0.585156 -0.543437,2.032851 -0.506914,2.869628 0.03706,0.849073 0.136927,1.826666 1.273828,1.826666 0.83095,0 1.0167,-0.48628 1.28,-1.185181 0.249673,-0.662735 0.416392,-1.185186 1.28,-1.185186 1.14106,0 1.235938,0.958526 1.273828,1.826667 0.04672,1.07038 0.218379,1.97149 -0.322717,2.70617 -0.6353,0.86259 -1.957568,0.6534 -2.871111,0.57458 -1.116875,-0.0964 -3.142819,0.37023 -3.966914,-0.32963 -1.013596,-0.86081 -0.513086,-3.316976 -0.513086,-4.552601 0,-1.270537 -0.495888,-3.885547 0.32889,-4.926914 0.592641,-0.748272 2.028916,-0.512705 2.87111,-0.513086 2.064424,-9.28e-4 7.46793,-0.953369 9.086914,0.328887 0.802642,0.635703 0.513028,2.276474 0.513086,3.191113 1.86e-4,2.888379 0.09624,5.760241 0.174568,8.640001 0.02385,0.87683 0.128726,2.59052 -0.624939,3.14271 -1.005198,0.7365 -2.822844,0.37729 -4.029629,0.37729 -3.256455,0 -9.607788,1.04025 -12.432592,-0.19309 C 16.968873,108.03123 17.28,105.65508 17.28,104.32 c 0,-4.774279 -0.312471,-9.715792 -0.32,-14.400001 -0.01759,-10.944541 0,-22.297724 0,-33.28 0,-6.97268 0.08057,-14.882758 -0.0012,-21.759999 -0.016,-1.344805 -0.245587,-2.136407 -0.306173,-3.52 C 16.425839,26.18165 16.64,20.415146 16.64,15.36 c 0,-1.434717 -0.626925,-4.573447 0.741728,-5.246914 C 18.513802,9.556035 20.318178,9.9199999 21.76,9.9199999 h 11.199999 c 1.578323,0 3.588662,-0.6772949 4.286914,0.7417281 0.909946,1.849248 0.513086,6.229502 0.513086,8.538272 0,2.06664 0.03707,4.357217 -0.0015,6.399756 -0.01498,0.79373 0.0051,1.685595 -0.740246,2.182958 C 34.723446,29.314043 29.109111,28.16 26.239999,28.16 c -1.169626,0 -2.80238,0.331445 -3.646914,-0.513086 C 21.946123,26.999951 22.081811,25.840713 22.08,24.96 c -0.0037,-1.819844 -0.956456,-8.107217 0.513085,-9.271113 1.103943,-0.874336 3.895984,-0.302559 5.246914,-0.333575 0.910052,-0.0209 1.641551,-0.193955 2.558518,-0.144687 1.024375,0.05504 1.699461,0.403867 1.874075,1.444687 0.231765,1.381485 0.749439,3.781045 -0.0158,5.377285 -0.448255,0.93503 -1.434143,1.004444 -2.49679,1.004444 -0.961276,0 -2.268835,-0.04378 -2.410864,-1.277041 -0.17634,-1.531192 3.06219,-1.478018 2.211607,-3.418516 -0.6143,-1.401445 -4.358003,-1.286904 -4.819014,0.265918 -0.448733,1.511465 -0.620933,4.979932 0.227161,6.250869 0.946716,1.418731 5.606086,0.764863 7.35111,0.740498 0.887427,-0.01239 2.011192,0.0069 2.551111,-0.777539 0.648687,-0.9425 0.342483,-2.134658 0.327654,-3.38123 -0.02329,-1.957588 -0.317918,-2.923897 -0.318765,-5.12 -4.07e-4,-1.057422 0.371323,-2.810645 -0.513086,-3.511113 C 33.562018,12.171396 32.029054,12.48 31.039999,12.48 c -2.873034,0 -5.769221,-0.0013 -8.64,0 -1.152985,5.17e-4 -2.218708,-0.310635 -2.87111,0.513086 C 18.885808,13.805039 19.199588,16.213525 19.2,17.28 c 0.0015,3.763691 0.396359,6.773213 0.315555,10.88 -0.07215,3.666933 0.0044,8.821865 0.0044,13.119999 v 29.44 c 0,3.751494 0.32,7.455688 0.32,11.2 0,1.523652 -0.483261,3.96375 0.193087,5.338271 0.564789,1.147803 2.890648,0.741729 3.966912,0.741729 h 9.6 c 1.374866,0 2.765943,0.367891 3.646914,-0.513086 0.953694,-0.953691 0.513086,-5.083896 0.513086,-6.526914 v -2.88 c 0,-1.349106 0.535039,-4.156118 -0.328889,-5.246914 -0.587383,-0.741631 -2.028904,-0.51271 -2.871111,-0.513086 -2.461552,-0.0011 -6.981796,-0.890044 -9.178271,0.193086 -1.077522,0.531348 -0.565164,2.066104 -0.47605,3.006914 0.188379,1.988789 -1.073096,6.304302 1.061729,6.982969 1.447871,0.460273 2.739216,0.264668 4.112592,0.296787 0.749024,0.01752 1.494212,0.0054 2.046914,-0.514326 0.854087,-0.803106 0.694971,-2.200972 0.465679,-3.546665 -0.436899,-2.564136 -2.134519,-0.525484 -2.699507,0.545927 -0.63226,1.19899 -2.238042,0.948702 -2.591357,-0.282963 -0.703401,-2.452076 -0.101458,-4.077901 2.138518,-4.120249 1.28634,-0.02432 4.588117,-0.552447 5.430864,0.511606 0.673135,0.849902 0.328889,2.616089 0.328889,3.646914 0,1.484609 0.600799,4.773027 -0.513086,5.886914 -1.544428,1.544434 -8.212683,0.600771 -10.366667,0.506914 -0.974976,-0.04248 -1.673855,-0.14623 -2.047161,-1.00123 C 21.835346,83.429999 22.08,81.467714 22.08,80.319999 v -11.2 -8.96 -18.88 c 0,-3.559482 0.3605,-7.381718 -0.32,-10.239999 1.321442,-0.390596 2.167636,-0.319912 3.519999,-0.32 2.74366,-1.76e-4 5.861067,0 8.64,0 0.947163,0 2.5476,-0.28834 3.326914,0.328886 0.749795,0.593848 0.512703,2.017403 0.513086,2.871114 8.69e-4,1.93288 0.950007,8.872285 -1.007407,9.726914 -1.618984,0.706865 -7.870932,0.848574 -9.039507,-0.32 -0.646953,-0.646954 -0.511274,-1.806221 -0.513086,-2.686915 -0.0029,-1.414121 -0.574956,-3.609365 0.513086,-4.471113 0.55492,-0.439502 3.626341,-0.411211 4.185186,-0.135801 0.504853,0.248799 0.750639,0.732081 0.621235,1.365684 -0.307319,1.504736 -3.031736,0.501572 -2.639014,2.588638 0.201692,1.07187 1.079908,1.246382 2.119754,1.286176 0.963777,0.03688 2.270578,0.09982 2.870864,-0.772348 0.802681,-1.166245 0.354099,-3.569185 0.327407,-4.980991 -0.01291,-0.683086 0.06136,-1.457559 -0.511604,-1.911358 C 33.651115,32.788515 30.536613,33.28 29.119999,33.28 c -1.071181,0 -3.129575,-0.334297 -3.966914,0.328886 -1.405703,1.11334 -0.513086,5.863721 -0.513086,7.671113 v 23.36 c 0,1.742471 -0.549555,4.510689 1.298765,5.018272 1.906582,0.523579 6.407051,0.106279 8.621235,0.101728 0.863101,-0.0018 2.025259,0.148569 2.686914,-0.513086 1.159592,-1.15959 1.20002,-8.273403 0.184197,-9.530371 -0.790232,-0.977827 -7.138755,-1.048393 -7.556789,0.782222 -0.216502,0.948076 -0.141599,3.26979 0.676792,3.798271 1.540756,0.994951 2.763459,-3.655595 4.319997,-1.703701 3.303054,4.142022 -4.949861,6.301743 -7.158025,4.093579 -0.594782,-0.594785 -0.507404,-1.577285 -0.512839,-2.366914 -0.01306,-1.897012 -2.47e-4,-3.857051 -2.47e-4,-5.76 v -8.64 c 5.9e-5,-0.902114 -0.287595,-2.556958 0.513086,-3.191108 1.136494,-0.900122 4.171275,-0.328892 5.566914,-0.328892 1.120418,0 2.721587,-0.307187 3.738272,0.193086 0.993706,0.488965 0.741311,2.077154 0.741728,3.006914 0.0013,2.78356 0.06733,4.611021 -3.198518,4.473828 -5.050664,-0.212168 2.625901,-4.12104 -0.368889,-5.012099 -1.577839,-0.469463 -3.886411,-0.591367 -4.330864,0.905679 -0.422061,1.421621 -0.527957,5.463696 0.702717,6.343701 0.816597,0.583916 2.452319,0.43375 3.355554,0.421728 3.383933,-0.04504 6.796289,0.01815 10.24,-0.06444 0.924971,-0.02218 2.896772,0.350254 3.646914,-0.308887 1.178872,-1.035864 1.075376,-5.122656 0.32,-6.657778 -0.478345,-0.972119 -1.980898,-0.75918 -3.00667,-0.740249 -0.897397,0.01656 -1.966582,-0.04863 -2.091108,0.999756 -0.198848,1.674077 3.382915,1.467456 2.531601,3.378515 -0.485234,1.089273 -3.722065,1.207798 -4.727651,0.411358 -1.124517,-0.890635 -0.513782,-2.604185 -0.513086,-4.151109 3.98e-4,-0.882837 -0.199397,-2.306811 0.513086,-2.871108 0.620303,-0.491289 1.57314,-0.327261 2.366914,-0.328892 1.915205,-0.0039 5.223135,-0.650869 6.938271,0.193086 1.227896,0.604204 0.741729,3.444576 0.741729,4.606914 v 11.84 c 0,1.236548 0.360161,3.36982 -1.007407,3.966914 -1.197466,0.522827 -5.824478,0.743364 -6.480738,-0.548642 -0.418188,-0.823316 -0.720141,-2.75295 -0.314077,-3.636543 1.328833,-2.891533 2.810137,2.109394 4.240987,1.606416 1.913188,-0.672534 1.281416,-4.71772 -0.604937,-4.88938 -1.435049,-0.130591 -5.268447,-0.511328 -6.064939,0.494321 -0.507939,0.641323 -0.327136,1.514922 -0.328889,2.366914 -0.002,0.972012 0,1.606065 0,2.56 0,1.581582 -0.436257,3.976592 1.007407,4.606914 1.741773,0.760479 6.713784,0.197608 8.912593,0.193086 0.948345,-0.0019 2.271792,0.156397 2.871108,-0.741728 1.098599,-1.646338 0.328892,-5.627774 0.328892,-7.578272 v -19.52 c 0,-2.135859 0.939463,-6.525488 -0.328892,-8.126913 C 52.451224,32.959912 48.709252,33.28 47.359999,33.28 c -1.265713,0 -3.707466,-0.43586 -4.286914,0.741728 -0.48958,0.994951 -0.193633,2.521943 -0.193086,3.738272 4.05e-4,0.903876 -0.181167,2.013906 0.328892,2.778271 0.556045,0.833276 1.519751,0.773115 2.550864,0.735312 1.041636,-0.03819 1.918701,-0.217651 2.119746,-1.286176 0.306216,-1.627486 -2.482827,-1.525747 -2.290366,-3.146177 0.179673,-1.512754 4.11081,-1.200596 4.777778,-0.672344 1.26957,1.005518 1.064751,6.093277 0,7.158028 -1.125767,1.125766 -7.84564,1.038188 -9.305185,0.32 -0.998626,-0.491387 -0.741311,-2.077935 -0.741729,-3.006915 -0.0011,-2.422109 -0.01639,-4.946494 2.47e-4,-7.359999 0.0057,-0.831895 -0.145222,-1.709922 0.512839,-2.231114 C 41.565292,30.468964 43.242763,30.72 44.159999,30.72 c 3.117207,0 7.874272,-0.776563 10.832593,0.101728 1.190766,0.353526 1.005327,1.766553 1.007407,2.778272 0.0061,2.986025 0,5.973808 0,8.959999 0,10.788589 0.32,21.528037 0.32,32.32 0,2.533521 0.01715,5.155562 -2.44e-4,7.68 -0.0062,0.893389 0.06068,1.967441 -0.741485,2.502715 -1.985864,1.325156 -6.380395,0.378398 -8.858271,0.377285 -1.021538,-4.59e-4 -2.269888,0.223945 -3.006914,-0.513086 -0.646958,-0.646953 -0.511274,-1.806211 -0.513086,-2.686914 -0.0041,-1.973574 -0.95647,-5.867197 0.513086,-7.031108 0.789556,-0.625337 2.922041,-0.329361 3.966914,-0.328892 1.012881,4.54e-4 2.53206,-0.223291 3.006914,0.741729 0.755571,1.535517 0.601929,3.96976 -0.808149,4.257773 -0.993672,0.202959 -1.286568,-0.436982 -1.558765,-1.159502 -0.272197,-0.72252 -0.565093,-1.362461 -1.558765,-1.159502 -1.235893,0.252432 -1.020171,1.541543 -0.999756,2.759502 0.01177,0.702061 -0.02936,1.505947 0.511607,2.046914 1.00417,1.00417 3.480913,0.569912 4.92667,0.506914 1.224682,-0.05336 1.982929,-0.308906 2.192837,-1.6 0.333422,-2.050825 0.04741,-3.23855 0.04741,-5.113828 0,-1.161665 0.233955,-3.166816 -0.741729,-3.646914 -0.950581,-0.467749 -1.919677,-0.193086 -3.098271,-0.193086 h -2.56 -2.56 c -1.053867,0 -3.384853,-0.441167 -3.966914,0.741729 -1.071284,2.177128 0.07372,4.318574 0.122222,6.298271 0.03557,1.452119 0.0047,3.304141 0.0047,4.8 0,1.163594 -0.403523,3.319385 1.007407,3.738271 3.499165,1.038858 9.044902,0.101729 12.752593,0.101729 1.186821,0 3.399463,0.384678 4.151108,-0.741729 0.763325,-1.143906 0.328892,-3.365908 0.328892,-4.698271 v -11.2 c 0,-3.904385 0.0446,-8.307143 -0.0012,-12.16 -0.016,-1.34478 -0.245586,-2.136425 -0.306172,-3.52 -0.128881,-2.943242 -0.01259,-5.691684 -0.01259,-8.32 v -2.24 -2.56 -2.56 V 34.88 31.04 24 20.16 17.92 c 0,-0.783438 3.56e-4,-1.445547 0,-2.24 -3.67e-4,-0.813047 0.183296,-2.040225 -0.328892,-2.686914 C 57.228954,11.727764 53.185873,12.48 51.519999,12.48 c -2.006484,0 -6.60269,-0.87832 -8.126914,0.328887 -0.712456,0.564277 -0.51269,1.98832 -0.513086,2.871113 -0.0011,2.386621 -0.953882,7.255927 0.328892,9.178271 0.946713,1.418721 5.606088,0.764863 7.351108,0.740498 0.835556,-0.01166 1.760102,0.03771 2.366914,-0.556299 1.056523,-1.034248 0.752422,-4.460712 0.465679,-6.14371 -0.291558,-1.71125 -4.036431,-2.116963 -5.062222,-0.785928 -1.439795,1.868242 2.73147,2.057373 2.429131,3.618525 -0.30228,1.56083 -2.75169,1.555332 -4.020737,1.206914 -2.032813,-0.558105 -1.758101,-5.001045 -1.197037,-6.890869 0.490787,-1.653115 8.976631,-1.445625 9.945186,-0.678515 1.533618,1.214648 0.513086,6.139081 0.513086,8.311113 0,1.061513 0.22561,2.513623 -0.193086,3.472597 -0.51355,1.176211 -1.809605,1.004942 -3.006914,1.007403 -2.985327,0.0061 -5.974502,0.0013 -8.96,0 -1.021543,-4.59e-4 -2.269883,0.223945 -3.006914,-0.513086 -1.164578,-1.164571 -0.513086,-5.742305 -0.513086,-7.486914 0,-2.560781 -0.134851,-3.794541 -0.291357,-6.08 -0.06591,-0.962412 -0.39137,-3.137461 0.484443,-3.831113 1.057222,-0.8373344 3.999214,-0.3288871 5.246914,-0.3288871 h 2.56 c 2.465381,0 9.827324,-0.4817383 11.792592,0.1017281 1.589663,0.471954 1.007408,3.763077 1.007408,5.338272 0,3.935039 0.23208,7.473759 0.28,11.2 0.01888,1.468037 -0.347056,3.301084 -0.267408,5.12 0.07276,1.661718 0.306768,2.814599 0.307408,4.48 0.0038,9.839565 0,20.193095 0,30.079999 v 20.8 c 0,1.226211 -0.0056,1.982012 2.44e-4,3.2 0.0092,1.908857 0.298252,2.776494 0.31852,4.48 0.03863,3.246826 0.0014,6.950401 0.0012,10.240001 -6.9e-5,1.07603 0.28184,2.82808 -0.741729,3.51111 -0.961968,0.64192 -2.623872,0.32889 -3.738271,0.32889 h -9.6 c -1.236577,0 -3.07415,0.37968 -3.966914,-0.51309 -1.132705,-1.1327 -0.513086,-5.47345 -0.513086,-7.16691 0,-1.870314 -0.03354,-3.907775 0.0015,-5.759757 0.012,-0.634893 -0.04603,-1.469697 0.511606,-1.911357 1.703823,-1.349454 7.143437,-0.329903 9.406914,-0.328887 0.879355,3.9e-4 2.027324,-0.193516 2.686914,0.328887 0.624072,0.494277 0.507524,1.460078 0.512842,2.231113 0.01216,1.764648 0.781279,6.192791 -0.512842,7.486911 -1.152432,1.15243 -6.1829,1.23266 -7.158022,-0.22864 -0.601739,-0.90176 -0.850953,-4.603457 0.951352,-4.603457 1.421279,0 1.635854,2.653787 3.158271,2.344697 1.026412,-0.2084 0.983804,-1.15788 1.000005,-2.119755 0.01602,-0.951338 0.209517,-1.979727 -0.511606,-2.550869 -0.741123,-0.586973 -2.437134,-0.328887 -3.326914,-0.328887 -1.225054,0 -2.795313,-0.345596 -3.646914,0.328887 -0.624067,0.494277 -0.507524,1.460078 -0.512842,2.231113 -0.01193,1.730625 -0.561406,6.801701 0.741484,7.671111 1.927701,1.28635 6.801485,0.33378 9.178272,0.32889 0.948354,-0.002 2.271787,0.1564 2.871108,-0.74173 1.062378,-1.59206 0.328892,-5.3752 0.328892,-7.258271 0,-1.506621 0.752187,-6.751817 -0.741729,-7.486914 -1.089761,-0.536231 -2.855893,-0.193086 -4.058271,-0.193086 h -9.28 c -1.07,0 -3.396191,-0.418135 -3.966914,0.741728 -0.602998,1.22545 -0.193086,3.352217 -0.193086,4.698272 V 107.2 c 0,1.66388 -0.418318,3.78346 1.606172,4.1126 4.512998,0.73371 11.841421,0.0474 16.633828,0.0474 1.73624,0 4.240507,0.69529 5.056792,-1.0074 0.615449,-1.28379 0.06321,-4.21073 0.06321,-5.7126 v -5.760001 -1.92 -6.4 c 0,-13.916108 0.06661,-28.378784 -2.45e-4,-42.24 -0.0068,-1.405166 -0.199555,-2.183003 -0.291113,-3.52 C 63.510312,41.904028 63.679987,38.467802 63.679987,35.52 V 25.6 22.72 18.24 15.68 c 0,-1.265205 -0.889312,-4.320391 0.513086,-5.431113 1.122846,-0.8893168 3.297538,-0.3288871 4.926913,-0.3288871 h 13.12 c 1.695361,0 4.170088,-0.7963281 4.926914,0.7417281 0.425088,0.863887 0.193086,2.722452 0.193086,3.738272 0,3.007265 -0.224873,6.666103 0.05433,9.6 0.20125,2.114765 1.042705,3.535214 0.07259,5.686914 -0.438154,0.971816 -1.448594,0.999267 -2.366914,1.028144 -2.444931,0.07688 -5.204863,0.0049 -7.68,0.0049 -2.260732,0 -7.17142,1.181025 -8.126914,-1.007403 -0.535248,-1.225885 -0.19308,-2.580436 -0.19308,-3.792555 0,-2.37291 -0.804834,-7.714229 0.193086,-9.829629 0.518267,-1.098633 2.31878,-0.924317 3.326914,-1.000488 1.787452,-0.135049 6.861226,-0.462178 8.592593,0.05185 1.021255,0.303203 0.986675,1.120616 1.005923,2.138516 0.03688,1.950791 0.590635,5.520869 -0.191602,7.312353 -0.579511,1.327207 -2.254883,0.857071 -3.326914,0.833077 -2.150683,-0.04814 -4.040014,0.595869 -4.163208,-2.385674 -0.03645,-0.882071 -0.562739,-2.446768 0.693824,-2.7721 1.747983,-0.452568 1.49332,0.951524 2.060991,2.030371 1.076928,2.04668 2.349189,-0.760869 2.366914,-1.818271 0.0087,-0.519483 0.04066,-1.073037 -0.04593,-1.58124 -0.341611,-2.00504 -3.847588,-1.30917 -5.392593,-1.298516 -0.957119,0.0066 -1.926269,-0.154014 -2.366914,0.741484 -1.040483,2.114532 0.07601,4.417012 0.122222,6.298272 0.02239,0.911484 -0.259897,2.257588 0.333584,3.006914 0.969263,1.223789 5.244482,0.513086 6.711108,0.513086 1.703296,0 4.137236,0.596591 5.246914,-0.513086 0.733633,-0.733633 0.513086,-2.533487 0.513086,-3.646914 v -3.2 c 0,-1.812129 0.8129,-6.365293 -0.328887,-7.806914 C 83.746404,12.078066 81.383318,12.48 80.319998,12.48 c -3.565229,0 -9.15541,-0.51583 -12.461235,0.0474 -1.793921,0.305645 -1.298764,3.4671 -1.298764,5.072598 v 16.96 50.239999 6.72 c 0,2.321035 -0.04897,5.492793 0.06691,7.68 0.122783,2.317413 0.253086,3.476643 0.253086,6.080003 0,1.3037 -0.574644,4.88961 0.513085,5.75111 0.953916,0.75552 3.123638,0.32889 4.286914,0.32889 h 11.52 c 1.330957,0 3.964727,0.46342 4.606914,-1.0074 0.885693,-2.02856 0.241748,-6.73534 0.188399,-8.9126 -0.02948,-1.20316 -0.246045,-1.906019 -0.302715,-3.200003 -0.04837,-1.104492 0.254062,-3.443946 -0.205684,-4.378272 -0.436924,-0.887949 -1.32293,-0.734287 -2.366914,-0.741484 -2.943086,-0.02028 -6.005854,-2.44e-4 -8.96,-2.44e-4 -1.097251,0 -3.130874,-0.371035 -3.831108,0.513086 -0.722378,0.91207 -0.328892,2.28331 -0.328892,3.326914 0,1.799463 -0.480927,6.728863 0.193086,8.272603 0.700664,1.60477 2.605303,1.0074 4.286914,1.0074 1.428252,0 4.864116,0.58751 5.751113,-0.74173 0.599053,-0.89773 0.328887,-2.37948 0.328887,-3.41827 0,-1.52568 0.546582,-3.276917 -1.007407,-3.738275 -1.154497,-0.342754 -3.232769,-0.136377 -4.432593,0.218272 0.346372,1.265234 0.382271,1.782353 1.6,2.240003 0.753809,0.28329 1.354614,0.5639 1.159502,1.57136 -0.299477,1.54636 -2.491362,1.46781 -3.71333,1.23555 -2.366147,-0.44972 -1.928442,-4.458398 -1.558764,-6.628144 0.262729,-1.54205 1.679003,-1.296396 2.832592,-1.298769 1.401992,-0.0029 3.345821,-0.003 4.8,0 1.061201,0.0022 2.43002,-0.165586 2.778272,1.007402 0.184248,0.620596 0.100322,1.188428 0.101728,1.872598 0.0017,0.824267 0,1.458823 0,2.240003 0,1.54925 0.499541,6.47428 -0.513086,7.48691 -1.601719,1.60173 -8.441347,0.51309 -11.006914,0.51309 -1.031982,0 -3.102597,0.36446 -3.646914,-0.74173 -0.482299,-0.98016 -0.159228,-2.35747 -0.205678,-3.41827 -0.105474,-2.40863 -0.307237,-5.662542 -0.307408,-8.320003 -7.8e-5,-1.266572 0,-2.221553 0,-3.52 v -31.04 c 0,-2.263164 0.04897,-5.169477 -0.0047,-7.36 -0.02848,-1.162627 -0.246401,-1.914023 -0.302715,-3.2 -0.04535,-1.035693 -0.01259,-1.619892 -0.01259,-2.56 v -3.84 -7.679999 c 0,-1.526592 -0.544951,-3.277393 1.007408,-3.738272 C 72.072464,32.804257 74.318895,33.28 76.159998,33.28 h 7.04 c 1.089512,0 2.735156,-0.393243 3.646914,0.328886 0.773731,0.612813 0.50291,2.331045 0.604443,3.191114 0.358643,3.037958 0.228848,5.02372 0.228643,8.319999 -7.8e-5,1.184707 0.2996,3.076265 -1.007402,3.646914 -2.327647,1.01628 -6.677256,0.19834 -9.232598,0.193086 -1.105215,-0.0023 -2.005522,0.168306 -2.686914,-0.513086 -0.951401,-0.951401 -0.513086,-3.812734 -0.513086,-5.246914 0,-1.129956 -0.416225,-3.346127 0.328892,-4.286914 0.800649,-1.010898 5.943115,-0.805302 6.92938,-0.32 1.442275,0.709698 1.04748,2.4673 0.64,3.94815 -0.182256,0.662344 -0.689605,1.261489 -1.457036,1.058266 -1.096119,-0.290258 -0.777779,-1.695644 -1.741236,-2.120239 -2.148672,-0.946924 -2.169775,3.075772 -1.626914,4.179009 0.620425,1.260864 3.707588,0.763188 4.926914,0.740249 1.113027,-0.02094 1.941026,-0.0305 2.366914,-1.005928 0.531162,-1.216543 0.856836,-8.291635 -0.32,-9.223706 -0.667519,-0.528691 -1.896787,-0.328535 -2.686914,-0.328886 -1.886303,-8.5e-4 -8.634087,-0.828858 -9.406914,0.741728 -1.123598,2.283438 -0.193086,9.946894 -0.193086,13.018271 v 26.24 2.88 c 0,2.281128 -0.499692,8.351201 0.101729,10.54123 0.295825,1.077227 1.047441,1.245059 2.138515,1.292598 2.932964,0.127803 6.305308,0.0062 9.279756,0.0062 1.220234,0 2.520664,0.270078 3.418272,-0.328887 1.31581,-0.878037 0.741728,-5.37748 0.741728,-7.031113 0,-1.052813 0.0023,-1.741826 0,-2.88 -0.0022,-1.073906 0.206895,-2.220132 -0.741728,-2.686914 -1.363497,-0.670928 -7.617671,-0.717856 -9.076543,0 -1.301753,0.640547 -0.958799,5.347275 -0.64,6.508144 0.456811,1.663457 3.575849,2.058008 4.823701,0.785928 1.972812,-2.011113 -3.632012,-2.07126 -1.724194,-4.414072 0.650376,-0.798667 3.205903,-0.738814 4.057036,-0.32 0.782793,0.385185 0.722959,1.132998 0.740244,2.047158 0.02658,1.406358 0.557256,4.565049 -0.740244,5.430869 -1.508282,1.006475 -6.460152,0.566309 -8.2121,0.281485 -2.413447,-0.392383 -1.606172,-5.521836 -1.606172,-7.632598 v -21.44 c 0,-1.496748 -0.737905,-6.040302 0.513086,-7.031108 1.679488,-1.330181 7.280557,-0.329844 9.406914,-0.328892 0.879365,3.96e-4 2.027315,-0.19352 2.686914,0.328892 0.624063,0.494272 0.507529,1.460073 0.512842,2.231108 0.01375,1.994825 0.598613,5.179883 -0.192842,6.992593 -0.560156,1.282949 -2.125146,0.987427 -3.326914,0.90938 -2.977119,-0.19334 -5.087304,-0.200791 -4.432593,-4.043208 0.562164,-3.299268 3.579663,1.950747 4.879507,0.9321 0.625742,-0.490372 0.512588,-1.2796 0.512588,-2.230865 0,-0.799809 0.118818,-1.731025 -0.512588,-2.231108 -1.088056,-0.861763 -4.834228,-0.715625 -6.479507,-0.227163 -1.363422,0.404785 -1.007407,3.354375 -1.007407,4.698271 v 6.4 4.8 c 0,1.377442 -0.45477,3.672686 0.741729,4.471108 1.016933,0.678599 3.035415,0.328892 4.378271,0.328892 1.503057,0 2.416953,0.246372 4.14124,-0.04741 1.130117,-0.192544 1.247891,-0.860518 1.292588,-1.874072 0.05676,-1.287041 0.505713,-4.199458 -0.322715,-5.245435 -0.627431,-0.792192 -3.776777,-0.887734 -4.460742,-2.44e-4 -1.620449,2.102642 4.237246,2.434087 1.487656,4.278266 -4.495869,3.01543 -5.942856,-4.851039 -4.369135,-6.838022 0.767886,-0.969531 2.146089,-0.513086 3.511108,-0.513086 h 10.24 c 1.06332,0 3.426416,-0.401924 4.151113,0.513086 1.946191,2.457261 -0.342266,9.976406 -4.277783,6.838022 -2.190498,-1.746811 3.104863,-2.373471 1.711611,-4.278266 -0.612207,-0.836982 -2.840175,-0.784409 -4.097539,-0.411113 -1.539121,0.456943 -1.775976,6.234287 -0.494316,7.249379 0.916328,0.725748 2.336523,0.328892 3.326914,0.328892 2.076103,0 5.695898,0.895903 6.526912,-1.007407 0.43774,-1.002573 0.19309,-2.964883 0.19309,-4.112593 v -10.24 c 0,-1.358647 0.48751,-4.318623 -0.51309,-5.111108 -0.903768,-0.715796 -2.995613,-0.329473 -4.286912,-0.328892 -1.152988,5.18e-4 -2.218711,-0.310634 -2.871113,0.513086 -0.532647,0.672525 -0.539073,3.045982 -0.135801,3.865186 0.761953,1.547822 2.354844,0.343242 2.686914,-0.538272 0.272187,-0.722539 0.565107,-1.362456 1.558769,-1.159502 0.924551,0.188838 0.959239,0.980083 0.995059,1.800982 0.05585,1.279741 0.282617,2.504428 -0.735557,3.005434 -0.935498,0.460327 -5.842939,0.578789 -6.745185,-0.135805 -0.94457,-0.74812 -0.513086,-2.677652 -0.513086,-3.831109 0,-1.415561 -0.518896,-4.933755 0.513086,-5.751108 0.687607,-0.544595 1.799453,-0.328491 2.686914,-0.328892 2.323896,-10e-4 7.388942,-0.687378 9.178272,0.193086 1.53761,0.756602 0.84837,6.123125 0.82346,7.806914 -0.0182,1.230645 0.22255,1.982876 0.23704,3.2 0.0674,5.66751 0.001,12.174619 0.001,17.92 0,1.648945 0.74805,6.400459 -1.0074,7.166914 -1.61898,0.706865 -7.870942,0.848574 -9.039516,-0.32 -0.594785,-0.594785 -0.507412,-1.577266 -0.512842,-2.366914 -0.0113,-1.641211 -0.650371,-3.869824 0.512842,-4.791108 1.054853,-0.835459 4.222246,-0.655884 4.486426,0.677036 0.31124,1.570371 -2.756563,1.928144 -2.227666,3.432841 0.421386,1.198809 2.933066,1.495362 4.166426,0.672344 1.35984,-0.907422 0.75239,-3.528774 0.74148,-5.111113 -0.008,-1.151187 0.12681,-2.121611 -1.007155,-2.458271 -1.439121,-0.427256 -6.786064,-0.427261 -8.225195,0 -0.905703,0.268891 -0.962324,0.937607 -1.00123,1.81975 -0.106358,2.411695 -0.01132,5.819986 -0.0062,8.318521 0.0025,1.203301 -0.180371,2.580586 1.29876,2.832598 3.110078,0.529882 7.028994,0.0474 10.22124,0.0474 1.07406,0 2.8239,0.309922 3.64691,-0.513086 1.53529,-1.535303 0.51309,-7.604512 0.51309,-9.726914 0,-7.89314 0.0914,-16.855478 -10e-4,-24.64 -0.0147,-1.237861 -0.20641,-1.977446 -0.29013,-3.2 -0.12764,-1.863813 -0.0286,-5.215737 -0.0286,-7.04 v -4.48 c 0,-1.354267 0.50387,-3.985664 -0.51309,-4.791113 -0.68079,-0.539199 -1.68872,-0.328437 -2.68691,-0.328886 -2.38701,-0.0011 -6.734121,-0.54504 -8.912598,0.101728 -0.791338,0.234941 -0.921172,0.763027 -0.988642,1.504443 -0.123125,1.353047 -0.02166,4.344927 -0.01876,5.753828 0.0018,0.858086 -0.205908,1.967915 0.513086,2.686914 1.046855,1.046856 3.04581,0.533643 4.606914,0.511851 0.835566,-0.01167 1.760097,0.03773 2.36691,-0.556294 0.66789,-0.653813 0.52796,-1.670644 0.5116,-2.642226 -0.0173,-1.030093 -0.008,-1.882095 -1.004428,-2.132344 -2.336533,-0.587002 -1.545147,3.071245 -3.404199,2.531601 -1.025078,-0.297558 -1.037871,-2.729838 -0.998526,-3.59333 0.110899,-2.433818 6.870563,-2.064267 7.639753,-1.093086 0.98077,1.238321 0.329,4.384517 0.32889,6.206914 -6e-5,0.890523 0.18845,2.322984 -0.32889,3.098272 -0.61564,0.922588 -1.79993,0.739526 -2.87111,0.741728 -2.399873,0.0049 -7.862334,1.031495 -9.406914,-0.513086 C 89.664568,47.358398 90.239998,41.33082 90.239998,39.68 v -2.56 c 0,-1.738702 -0.486543,-3.488428 1.29876,-3.792598 C 95.023152,32.73374 99.035203,33.28 102.4,33.28 c 1.56495,0 3.69489,-0.307295 5.0726,0.101728 1.63089,0.484199 1.0074,3.085166 1.0074,4.698272 0,2.141997 -0.11559,4.613964 0.0286,6.719999 0.14159,2.067613 0.29136,3.125889 0.29136,5.44 v 42.88 3.84 c 0,2.619297 1.6e-4,5.660311 0,8.320001 -6e-5,0.86792 0.24364,2.28403 -0.32889,3.00691 -0.72851,0.91983 -2.79509,0.51309 -3.83111,0.51309 h -3.2 c -1.533293,0 -3.539709,0.003 -5.120002,0 -1.464834,-0.003 -2.692324,0.17946 -3.098272,-1.29877 -0.406816,-1.48138 -0.101728,-5.16496 -0.101728,-6.70123 0,-0.947579 -0.0065,-1.583732 2.44e-4,-2.560001 0.0073,-1.065108 -0.107383,-1.949219 0.741484,-2.366914 1.193399,-0.587227 7.459514,-0.492559 8.810874,-0.09136 0.79133,0.234942 0.92117,0.763028 0.98864,1.504444 0.1242,1.364853 0.48649,4.458301 -0.31013,5.652101 -0.62218,0.93239 -2.17832,0.81405 -3.18494,0.72296 -1.473379,-0.13333 -1.625059,-1.12132 -1.926172,-2.22123 1.007656,-0.3308 1.952272,-0.0926 2.490612,-1.32593 0.86553,-1.982911 -2.894352,-2.113429 -4.04321,-1.772345 -1.649365,0.489678 -1.20039,4.813475 -0.96,6.292105 0.187246,1.15172 0.799209,1.49203 1.874082,1.5874 1.754492,0.15567 6.849648,0.78146 8.125428,-0.49432 0.66112,-0.66112 0.51133,-1.83136 0.51309,-2.68691 0.005,-2.31812 0.005,-4.720648 0,-7.040003 -0.002,-0.869219 0.16966,-2.010362 -0.51309,-2.551113 -0.65959,-0.522403 -1.80756,-0.328497 -2.68691,-0.328887 -2.85279,-0.0013 -5.787239,0 -8.640002,0 -0.973721,0 -2.658984,-0.200117 -3.326914,0.328887 -1.028916,0.814921 -0.513086,2.457343 -0.513086,3.831113 0,3.271463 -1.002139,10.909283 0.193086,13.338273 0.713144,1.44929 3.797265,0.74173 5.246914,0.74173 h 4.160002 c 2.36127,0 10.39579,1.12519 11.32691,-1.0074 0.45163,-1.0344 0.19309,-2.88378 0.19309,-4.1126 0,-3.65476 -0.32,-6.355736 -0.32,-10.240003 v -3.2 -22.4 V 35.2 c 0,-3.290694 0.0374,-6.992061 -0.001,-10.24 -0.0269,-2.261573 -0.31877,-3.546416 -0.31877,-6.08 0,-1.372002 0.44314,-4.912149 -0.32889,-5.886914 C 109.94322,12.023555 108.56501,12.48 107.2,12.48 h -9.920002 c -1.187588,0 -2.862344,-0.23793 -3.738272,0.193086 -1.053359,0.51832 -0.741191,1.809677 -0.741728,3.006914 -0.0013,2.973701 -0.0013,5.988281 0,8.96 4.2e-4,0.93832 -0.1721,2.0275 0.328887,2.778271 0.872334,1.307266 4.178525,0.741729 5.751113,0.741729 1.679442,0 4.870702,0.62373 6.298272,-0.328887 1.32609,-0.884902 1.27532,-8.012588 0.54864,-9.489385 -0.64936,-1.319677 -4.25904,-0.764961 -5.56667,-0.740244 -1.482078,0.02802 -2.161775,0.263408 -2.23407,1.92 -0.01883,0.431367 -0.02425,0.850586 0,1.277031 0.301289,5.299053 4.62793,-3.79165 5.38643,0.660244 0.21661,1.271358 0.34614,2.789004 -0.46569,3.583711 -0.66955,0.65544 -1.74166,0.552305 -2.68691,0.557286 -1.650774,0.0087 -3.577092,0.598291 -4.471115,-0.741485 -0.621368,-0.931172 -0.328477,-1.858584 -0.328887,-2.778271 -3.91e-4,-0.863408 0,-1.421739 0,-2.24 0,-1.045069 -0.04426,-1.73502 0.0062,-2.878516 0.0448,-1.015849 0.157959,-1.680771 1.292588,-1.874082 C 98.047429,14.85081 98.923679,15.04 100.16,15.04 c 1.66142,0 6.93124,-0.825108 7.99111,0.513086 1.18448,1.495527 0.32889,6.584707 0.32889,8.446914 0,1.761367 0.66164,3.754961 -0.19309,5.712597 -0.58031,1.329131 -1.87874,1.006748 -3.32691,1.007403 -3.41319,0.0015 -6.82678,0 -10.240002,0 -1.449326,0 -3.031777,0.42205 -3.966914,-0.513086 -1.509482,-1.509483 -0.513086,-6.31917 -0.513086,-8.446914 0,-2.979737 -0.0061,-5.982598 0,-8.96 0.0018,-0.869199 -0.169658,-2.010371 0.513086,-2.551113 0.969775,-0.7680766 3.548008,-0.3288871 4.926914,-0.3288871 H 108.48 c 1.45913,0 3.5953,-0.472334 4.60691,0.3288871 C 114.17112,11.107598 113.6,14.510146 113.6,16 c 0,5.851513 0.32,10.554023 0.32,16.32 v 46.719999 7.36 c 0,1.753164 -0.0822,2.934375 0.0496,4.8 0.16975,2.402109 -0.18491,4.966445 -0.021,7.36 0.17089,2.495471 0.29136,3.926021 0.29136,6.720001 0,1.81049 -0.81125,4.70222 0.51308,5.75111 0.88115,0.69787 3.70574,0.32889 4.92692,0.32889 h 13.44 c 1.61309,0 4.21408,0.62348 4.69827,-1.0074 0.53854,-1.81396 0.15153,-9.24884 0.097,-11.472601 -0.0239,-0.973828 -0.16972,-1.600938 -0.26099,-2.56 -0.10536,-1.107158 0.22488,-4.058467 -0.24741,-5.018272 -0.53833,-1.094023 -1.73959,-0.741162 -3.00691,-0.741728 -3.62497,-0.0016 -7.2546,0 -10.88,0 -1.19386,0 -3.6222,-0.461426 -4.05827,1.007402 -0.90648,3.053252 -0.10194,7.625274 -0.10173,10.832599 7e-5,1.0356 -0.22214,2.59169 0.51308,3.32691 0.73702,0.73703 1.98539,0.51263 3.00692,0.51309 2.36528,0.001 8.0072,1.15234 9.27111,-0.74173 1.29377,-1.93882 0.36378,-5.33379 0.3274,-7.258027 -0.0362,-1.917852 -0.8161,-2.399775 -2.55851,-2.531357 -1.15568,-0.08727 -3.94614,-0.476875 -4.92692,0.3 -1.02599,0.812695 -0.57174,3.785986 0.13112,4.593084 0.54788,0.62914 1.48,0.3385 1.9079,-0.26049 0.49146,-0.687966 0.39015,-1.265407 0.6479,-2.101481 2.13576,0.708984 3.72667,4.573351 0.94124,5.338271 -1.25508,0.34467 -3.49806,0.19669 -4.77976,0.083 -1.07183,-0.0951 -1.68623,-0.43197 -1.87408,-1.5874 -0.26931,-1.6565 -0.0474,-2.641624 -0.0474,-4.153831 0,-1.763418 -0.70078,-4.411914 1.29876,-4.752598 2.53827,-0.432461 5.67368,-0.04757 8.30124,-0.0474 0.90641,5.8e-5 2.27606,-0.249961 3.00691,0.328887 0.96291,0.762636 0.45673,2.987988 0.56741,4.151113 0.24105,2.532909 1.32591,7.911209 0.0726,10.458269 -0.57018,1.15877 -2.33286,0.74173 -3.64691,0.74173 h -10.88 c -1.26897,0 -3.05454,0.46213 -3.64692,-0.74173 C 116.30214,106.65409 116.8,103.70549 116.8,102.08 V 87.359999 c 0,-6.538105 0.0312,-13.327217 -2.5e-4,-19.84 -0.008,-1.708364 -0.29717,-2.68541 -0.31852,-4.48 -0.0361,-3.039018 -10e-4,-6.607617 -10e-4,-9.6 v -2.88 V 32.96 16.64 c 0,-1.519092 -0.64495,-4.977354 0.32888,-6.206914 0.80233,-1.0130178 3.62479,-0.5130861 4.79112,-0.5130861 h 10.88 c 1.51032,0 3.10983,-0.4310645 4.37827,0.1930861 0.94672,0.465967 0.7415,2.545273 0.7415,3.646914 V 24 c 0,1.074062 0.30992,2.823906 -0.51309,3.646914 -0.77326,0.773261 -2.31899,0.513017 -3.32691,0.513086 -2.54777,1.66e-4 -9.55615,1.043037 -11.3642,-0.328887 C 121.12948,26.870254 121.6,23.015224 121.6,21.44 c 0,-1.408106 -0.38399,-4.485518 0.19308,-5.658272 0.38518,-0.782763 1.13299,-0.722959 2.04716,-0.740244 1.98113,-0.03745 5.81456,-0.676142 7.57803,0.191602 1.09668,0.539638 0.74173,2.588847 0.74173,3.646914 0,1.202353 0.43231,3.069209 -0.74173,3.646914 -1.40689,0.692285 -4.28346,0.381191 -4.28346,-1.086914 0,-2.289678 2.37037,-0.119121 2.37037,-2.56 0,-1.56624 -3.50705,-1.747129 -4.5121,-0.951114 -1.03019,0.815938 -0.53498,3.872071 -0.5116,5.11087 0.0134,0.709472 -0.0262,1.47622 0.5116,2.002714 0.54147,0.530049 1.32795,0.53003 2.04692,0.552588 2.10635,0.0661 5.32367,0.443809 7.25827,-0.508144 0.78276,-0.385176 0.72296,-1.133008 0.74024,-2.047158 0.042,-2.222754 0.002,-4.78833 0.001,-7.039756 -4.6e-4,-1.028516 0.19869,-2.295137 -0.51309,-3.006914 -0.7592,-0.759199 -2.21675,-0.513018 -3.32691,-0.513086 -3.29884,-2.05e-4 -8.01285,-0.83043 -11.1526,0.101728 -1.46882,0.436075 -1.0074,2.864414 -1.0074,4.058272 v 12.48 22.719999 5.76 c 0,2.965454 -0.0344,6.28668 10e-4,9.28 0.0267,2.244541 0.31877,3.694492 0.31877,6.08 v 11.2 c 0,1.029629 -0.35869,3.105439 0.74173,3.646914 1.15836,0.56999 3.10038,0.193086 4.37827,0.193086 3.40503,0 6.83774,0.02317 10.24,-2.44e-4 1.35429,-0.0093 2.40845,0.04814 2.77827,-1.298526 0.78314,-2.851738 0.10191,-7.923125 0.10173,-10.86123 -7e-5,-1.138413 0.32447,-2.181977 -0.32889,-3.006914 -0.63937,-0.80728 -4.45636,-0.513086 -5.75111,-0.513086 -1.67888,0 -5.34803,-0.604805 -6.52692,0.328892 -0.62407,0.494277 -0.50753,1.460063 -0.51284,2.231108 -0.0143,2.082983 -0.60672,5.161313 0.19284,6.992593 0.4218,0.966079 1.43693,0.988423 2.36692,1.005923 1.95175,0.03672 5.18963,0.692402 5.42124,-1.92 0.12267,-1.383638 0.40348,-3.115074 -0.98247,-3.398018 -0.96491,-0.196987 -3.9651,4.751494 -4.42001,0.83333 -0.0482,-0.414927 -0.0243,-0.856533 -0.0173,-1.273584 0.008,-0.482847 -0.0284,-1.051518 0.1916,-1.498515 0.62754,-1.275308 6.04349,-1.051387 7.06519,-0.548643 1.48112,0.728804 0.74173,2.966704 0.7421,5.246914 3.7e-4,1.784189 0.35763,3.736562 -0.51272,4.606914 -1.54442,1.544424 -8.21268,0.600771 -10.36667,0.506914 -0.975,-0.04248 -1.67371,-0.145898 -2.04716,-1.00123 C 121.60936,83.278905 121.92,81.771518 121.92,80.639999 v -6.4 -31.36 c 0,-2.975615 -0.001,-5.988203 0,-8.959999 3.8e-4,-0.847579 -0.24084,-2.273995 0.51308,-2.871114 C 123.24307,30.407363 124.76509,30.72 125.76,30.72 h 8 c 0.95858,0 2.84977,-0.321924 3.51111,0.513086 1.05521,1.332304 0.32889,5.184746 0.32889,6.846914 0,1.472822 0.47448,4.235717 -0.51309,5.20247 -1.22897,1.203071 -5.00742,0.566983 -6.84691,0.557285 -0.94528,-0.005 -2.01735,0.09816 -2.68692,-0.557285 -0.53785,-0.526509 -0.49821,-1.293218 -0.5116,-2.002715 -0.0276,-1.460996 -0.42006,-3.45499 0.1916,-4.698027 0.44039,-0.89498 3.24394,-1.345566 4.41359,-0.412842 1.41169,1.125742 -3.08698,3.154356 -1.53334,4.489136 1.75445,1.5073 4.82744,0.493433 4.9205,-1.619507 0.0679,-1.540957 0.55134,-4.591465 -0.50692,-5.429629 C 133.28059,32.621787 129.82152,33.279882 128,33.28 c -1.14548,6.8e-5 -2.71542,-0.500987 -3.32692,0.741728 -0.8628,1.753428 -0.19308,6.557827 -0.19308,8.858271 v 19.2 c 0,2.194356 -0.3534,3.608545 0.0474,6.073828 0.18725,1.151719 0.7992,1.492032 1.87408,1.587407 2.10261,0.186563 8.92765,0.710269 10.45679,-0.310126 1.57847,-1.053311 0.74182,-5.169668 0.74173,-6.711109 -8e-5,-1.15498 0.31758,-2.805664 -0.74173,-3.326914 -1.10687,-0.544648 -5.03361,-0.531465 -6.25087,0 -1.30245,0.568662 -1.51092,3.818345 -0.49432,4.694077 1.86526,1.606797 2.88371,-3.799209 4.59803,-1.784692 0.81963,0.963159 0.54869,3.927012 -0.41284,4.568638 -1.20082,0.801308 -5.0281,0.669682 -6.25087,0.135805 -1.99297,-0.870151 -1.0074,-8.122168 -1.0074,-10.366914 v -4.8 c 0,-1.323076 -0.29881,-4.734902 0.74173,-5.246914 1.50082,-0.738501 7.97937,-0.914262 9.30518,0.135806 1.10888,0.878252 1.08772,5.697246 0.1842,6.838022 -0.63388,0.800337 -4.3686,0.99232 -4.91186,-0.227163 -0.9184,-2.061631 1.94027,-1.315991 2.4689,-2.820986 0.63519,-1.808335 -1.77601,-1.562832 -2.66815,-1.55852 -0.76393,0.0037 -1.70596,-0.150215 -2.23112,0.512841 -1.3627,1.720557 -0.74363,6.790947 1.27729,7.119507 2.63495,0.428389 4.38807,0.04741 6.71383,0.04741 2.97586,0 6.69971,0.912798 9.23259,-0.193086 1.564,-0.682856 1.03318,-3.804721 1.00592,-5.24667 -0.0126,-0.663886 0.0486,-1.467622 -0.5116,-1.911352 -0.61461,-0.486777 -1.55912,-0.332554 -2.36691,-0.328647 -1.03021,0.005 -2.27417,-0.149854 -2.41087,1.000991 -0.18538,1.560654 2.42353,1.227343 2.58174,2.56 0.21937,1.847905 -2.75458,1.796884 -3.99211,1.457036 -1.65785,-0.455274 -1.29886,-2.590728 -1.29876,-4.058272 8e-5,-1.385171 -0.32589,-3.195791 1.29876,-3.472592 1.7459,-0.297461 7.34747,-0.827876 8.74815,0.281484 0.80263,0.635698 0.51303,2.276479 0.51309,3.191108 v 9.28 c 0,1.983076 0.78249,6.191333 -0.51309,7.486914 -1.17935,1.179356 -5.79448,1.179346 -6.97383,0 -0.67351,-0.67352 -0.5516,-1.981416 -0.50691,-3.005434 0.20652,-4.7327 3.6667,1.073813 4.69358,0.525434 0.95079,-0.507744 0.75615,-1.733755 0.73876,-2.76667 -0.0155,-0.919736 0.0348,-1.665781 -0.74024,-2.047158 -1.05717,-0.520195 -6.49444,-0.611274 -7.06519,0.548643 -0.57092,1.160268 -0.19308,3.595078 -0.19308,5.018271 0,1.206607 -0.26785,2.155435 0.10173,3.501235 0.29696,1.081358 1.04875,1.245108 2.13851,1.292593 2.55754,0.111446 7.85112,0.835293 10.19235,-0.186914 1.75545,-0.76645 1.00741,-5.517968 1.00741,-7.166914 0,-3.597549 0.041,-7.649594 -0.001,-11.2 -0.0136,-1.140688 -0.16241,-1.807783 -0.26445,-2.88 -0.18651,-1.959956 -0.0576,-4.679858 -0.0543,-6.72 0.003,-1.807197 0.80028,-7.368144 -0.74173,-8.126913 -1.30168,-0.640508 -5.52544,-0.204786 -7.25827,-0.192842 -0.78747,0.0054 -1.69794,-0.160352 -2.23112,0.512842 -0.69012,0.871357 -0.53571,5.078915 -0.22715,6.172099 0.25964,0.919907 0.93185,1.205962 1.81975,1.267407 0.91398,0.06325 3.08784,0.247857 3.39803,-1.273828 0.13681,-0.671196 -0.14355,-1.102827 -0.61976,-1.37185 -1.48211,-0.837276 -1.56924,-0.708301 -2.13975,-2.426914 1.20715,-0.356817 3.24758,-0.570088 4.43259,-0.218272 1.02124,0.303193 0.98668,1.120645 1.00592,2.138516 0.0266,1.406347 0.55726,4.565044 -0.74024,5.430864 -1.55869,1.040112 -5.40599,0.362261 -7.25827,0.327412 -0.73691,-0.01386 -1.50872,0.02659 -2.04692,-0.511606 -0.64696,-0.646958 -0.51127,-1.806207 -0.51308,-2.686915 -0.004,-2.123408 -0.99928,-7.72998 0.32888,-9.406913 C 141.19647,30.339687 143.3069,30.72 144.32,30.72 c 3.12677,0 8.44071,-1.11461 11.09827,0.193086 0.86424,0.425263 0.73984,1.769824 0.74173,2.686914 0.006,2.977412 0,5.980253 0,8.959999 v 32 c 0,2.55959 0.005,5.120547 0,7.68 -0.002,0.94835 0.1564,2.271787 -0.74173,2.871113 -1.91403,1.277217 -6.89333,0.329912 -9.17827,0.328887 -0.85369,-3.81e-4 -2.27727,0.236709 -2.87112,-0.513086 -0.52733,-0.66582 -0.32852,-1.883906 -0.32888,-2.686914 -9e-4,-2.006079 -0.94248,-5.878276 0.51308,-7.031108 0.82659,-0.654673 6.11441,-0.64834 6.92939,0.184194 0.5844,0.596992 0.55939,1.423218 0.55481,2.36667 -0.004,0.827016 0.0285,1.480176 -0.51037,1.919009 -1.34212,1.09292 -2.72376,-2.143946 -3.64691,-2.143946 -1.6482,0 -1.40084,2.204908 -1.26124,3.739009 0.21236,2.333701 3.65558,1.656748 5.42124,1.601231 0.78648,-0.02473 1.73072,-0.04679 2.23111,-0.773829 1.08771,-1.580366 0.33305,-4.882197 0.32889,-6.90123 -0.002,-0.920771 0.20489,-1.982456 -0.51309,-2.551108 -0.6808,-0.539209 -2.10515,-0.328833 -3.00691,-0.328892 -2.29,-1.46e-4 -7.85842,-1.021318 -9.37827,0.328892 -0.64606,0.57394 -0.22618,2.308383 -0.22198,3.191108 0.0135,2.836284 6e-5,5.793159 2.5e-4,8.64 6e-5,0.902334 -0.27741,2.565039 0.51308,3.191113 0.90275,0.714981 2.86918,0.328887 3.96692,0.328887 3.31248,0 9.1224,0.445439 12.15382,-0.0474 2.36962,-0.385254 1.60618,-3.009424 1.60618,-5.072598 v -11.2 V 27.52 16.64 c 0,-1.026826 0.38298,-3.121406 -0.51309,-3.831113 C 157.42759,12.19166 155.82716,12.48 154.88,12.48 c -2.98553,0 -5.97482,-0.0013 -8.96,0 -1.15077,5.17e-4 -2.7157,-0.281231 -3.09827,1.007402 C 142.48213,14.631269 142.72,15.754824 142.72,16.96 v 3.84 c 0,1.275459 -0.5178,2.789453 0.32888,4.058271 0.71003,1.064043 2.09264,0.771709 3.51112,0.737041 0.98574,-0.02409 1.62236,-0.206963 2.56,-0.232344 0.85257,-0.02308 1.3906,0.208682 2.23851,0.147891 2.53823,-0.181973 2.48361,-4.667432 1.81976,-6.903457 -0.31099,-1.047471 -1.20186,-0.990146 -2.13852,-1.005918 -0.9728,-0.01638 -2.50847,-0.228105 -2.75927,0.999746 -0.39397,1.928858 3.38226,1.334727 2.10446,3.378526 -1.07606,1.721103 -4.56929,1.021582 -5.00321,-0.558516 -0.43754,-1.593281 -0.64415,-5.819394 0.90567,-6.279512 1.19943,-0.356103 3.31847,-0.101728 4.7526,-0.101728 1.49342,0 3.26798,-0.478135 4.28691,0.328887 1.1782,0.933154 0.45057,6.913359 0.52568,8.631113 0.0416,0.951933 0.44202,1.914902 0.10173,2.845185 -0.48442,1.324326 -1.82204,1.297227 -2.99432,1.313584 -2.86245,0.03994 -9.77078,1.198789 -12.05827,-0.327656 C 139.91536,27.17291 140.16,25.152119 140.16,24 v -9.92 c 0,-1.011445 -0.33651,-2.806797 0.32888,-3.646914 0.80233,-1.0130178 3.62479,-0.5130861 4.79112,-0.5130861 h 10.56 c 1.36402,0 3.46495,-0.4137891 4.69827,0.1930861 1.2279,0.604209 0.74173,3.44457 0.74173,4.606914 v 14.08 39.999999 3.52 15.04 c 0,5.441777 0.32,10.144209 0.32,15.680001 0,1.5917 0.64603,5.1242 -1.29876,5.65827 -2.55409,0.7014 -4.07653,0.10173 -6.38124,0.10173 h -5.44 c -1.23013,0 -3.65462,0.32046 -4.69827,-0.19309 -1.24035,-0.61033 -0.74173,-2.63589 -0.74173,-3.96691 0,-2.87058 -0.0195,-6.090538 2.4e-4,-8.960001 0.007,-1.043985 -0.14646,-1.929981 0.74149,-2.366914 2.286,-1.124864 5.74613,-0.193086 7.89827,-0.193086 1.07631,0 3.42127,-0.408418 4.15111,0.513086 0.89008,1.123808 0.32889,4.186015 0.32889,5.566914 0,1.011351 0.12743,1.798441 -0.0474,2.873831 -0.12309,0.75716 -0.40818,1.17216 -0.96,1.41308 -3.11498,1.36003 -7.28921,0.39844 -6.97358,-3.32197 0.10409,-1.226924 1.35246,-2.323916 2.34815,-1.591113 1.04452,0.76873 2.06745,3.812873 2.97111,1.231357 0.13366,-0.381845 0.0927,-0.794287 0.10024,-1.245429 0.0198,-1.176778 0.21199,-2.218116 -0.74024,-2.68667 -0.93037,-0.457803 -5.58617,-0.457803 -6.51654,0 -1.72879,0.850674 -0.74594,5.121535 -0.74173,7.166915 0.002,1.05567 -0.32659,2.15823 0.74173,2.87111 1.72597,1.15174 7.15435,0.341 9.49827,0.32864 0.94833,-0.005 2.01364,0.1018 2.68691,-0.55728 0.54295,-0.53151 0.50503,-1.22935 0.51037,-2.00272 0.0159,-2.29991 -0.31728,-3.889741 -0.31728,-6.399751 0,-1.634336 0.003,-2.371455 0,-3.84 -0.002,-0.80544 0.18787,-1.995938 -0.51309,-2.551113 -0.86215,-0.682832 -2.58299,-0.328887 -3.64691,-0.328887 h -9.92 c -1.01311,0 -3.12354,-0.380313 -3.83112,0.513086 -0.74699,0.943144 -0.32888,3.143965 -0.32888,4.286914 V 107.2 c 0,1.51257 -0.60824,3.30265 0.74173,3.96691 1.07236,0.52768 3.73893,0.19309 5.01827,0.19309 h 13.12 c 1.45584,0 4.20926,0.48195 4.69828,-1.29877 1.04205,-3.79453 0.29146,-8.80306 -0.0985,-12.461231 -0.27385,-2.568848 -0.11974,-5.394219 -0.11974,-8 v -13.76 -3.52 -31.04 V 17.6 c 0,-1.767237 -0.0316,-3.689658 0.001,-5.439756 0.014,-0.739883 -0.0432,-1.66166 0.74024,-2.047158 1.36509,-0.6717189 3.44644,-0.1930861 5.01828,-0.1930861 h 12.16 c 1.25707,0 4.59546,-0.542002 5.43111,0.5130861 0.67312,0.849892 0.32889,2.616084 0.32889,3.646914 v 10.24 c 0,1.697168 0.83966,3.907109 -0.32889,5.658271 -0.75326,1.128818 -2.12565,0.741641 -3.51111,0.741729 h -9.92 c -1.23659,0 -3.07414,0.379687 -3.96692,-0.513086 -0.73523,-0.735225 -0.51301,-2.291299 -0.51308,-3.326914 -2e-4,-2.909502 -1.08543,-8.499981 0.19308,-11.098272 0.42278,-0.859199 1.55992,-0.735918 2.36692,-0.741484 2.44902,-0.01689 4.91045,-0.0013 7.36,-2.44e-4 0.8422,3.81e-4 2.28373,-0.228545 2.87111,0.513086 1.05941,1.337617 0.66799,7.196328 0.22717,8.724199 -0.45961,1.592988 -3.29451,1.345547 -5.01828,1.321484 -0.91854,-0.01282 -2.01227,0.0054 -2.55112,-0.777539 -0.6597,-0.958515 -0.62267,-2.322012 -0.22717,-3.653828 0.75596,-2.545566 3.52565,2.328857 4.8252,1.039268 1.15664,-1.147764 0.7401,-4.138457 -0.49432,-4.504942 -1.40476,-0.41706 -5.91377,-0.535527 -6.66371,0.411358 -1.1007,1.389756 -0.34138,5.315498 -0.32863,7.166914 0.007,0.993496 -0.11514,2.215771 1.00715,2.629882 1.15691,0.426895 2.5281,-0.08608 3.7926,-0.06519 1.12011,0.01851 2.11777,0.235596 3.2,0.212354 1.26884,-0.02726 2.77162,0.10291 4.11259,-0.315313 1.02582,-0.319931 0.98662,-1.12125 1.00592,-2.141972 0.0602,-3.18545 0.008,-7.013301 0.001,-10.239756 -0.002,-1.067237 0.12101,-2.443262 -1.00741,-2.778272 C 180.64433,11.599551 174.61224,12.48 170.88,12.48 c -1.12159,0 -3.45926,-0.360449 -4.15112,0.513086 C 165.94527,13.982461 166.4,16.348633 166.4,17.6 v 4.16 2.56 7.04 c 0,1.855302 -0.11547,4.295947 0.0543,6.08 0.1142,1.200039 0.25908,1.882412 0.26543,3.199999 0.0658,13.651241 2.6e-4,27.894717 2.6e-4,41.6 v 16 V 104 c 0,1.81375 -0.71787,6.65222 1.3274,7.25827 2.07744,0.6156 6.03185,0.10173 8.2726,0.10173 h 6.08 c 1.86166,0 4.77216,0.76267 5.33828,-1.29877 0.81437,-2.96553 0.10172,-9.7383 0.10172,-13.101231 0,-1.101602 0.20521,-3.180967 -0.74172,-3.646914 -2.6575,-1.307656 -7.97153,-0.193086 -11.09828,-0.193086 -0.97204,0 -2.83704,-0.338018 -3.51112,0.513086 -1.31935,1.66583 -0.33328,7.274435 -0.32888,9.406915 0.002,0.96406 -0.13709,2.28469 0.74171,2.87111 1.44477,0.96408 7.36913,0.92583 8.75657,0 1.07918,-0.72012 0.74172,-2.4885 0.74172,-3.83111 0,-0.93131 0.29175,-2.543302 -0.32889,-3.326915 -0.9619,-1.214492 -4.69629,-0.726934 -4.69629,0.766914 0,0.827461 0.4808,1.014641 1.18518,1.280001 0.75783,0.28551 1.35365,0.60818 1.15951,1.55877 -0.3019,1.47816 -3.87188,1.62675 -4.67063,0.51654 -0.80365,-1.11701 -0.90824,-6.00119 0.1842,-6.866424 1.2743,-1.009258 4.94412,-0.3296 6.52692,-0.328887 1.03804,4.69e-4 2.2349,-0.230156 2.96246,0.513086 1.00881,1.030537 0.55754,3.373584 0.55754,4.926915 0,1.65601 0.0294,3.48232 -0.001,5.11975 -0.0134,0.70951 0.0262,1.47621 -0.5116,2.00272 -0.72754,0.7122 -1.96371,0.55578 -3.00691,0.55753 -2.77204,0.005 -5.54764,0 -8.32,0 -0.96213,0 -2.53194,0.30074 -3.32692,-0.32889 -0.98736,-0.782 -0.51308,-3.62916 -0.51308,-4.79111 0,-2.26398 -0.0743,-3.1085 -0.26569,-5.120001 -0.14437,-1.516934 -0.0543,-3.545059 -0.0543,-5.12 v -13.76 -3.52 -25.92 V 37.44 c 0,-1.193858 -0.46143,-3.622198 1.0074,-4.058272 C 173.77691,32.345742 179.05144,33.28 182.72,33.28 c 1.20146,0 3.34679,-0.415694 4.28691,0.328886 0.85867,0.680088 0.51309,2.450489 0.51309,3.511114 0,2.583603 -0.0534,5.141708 0.005,7.679999 0.0273,1.193765 0.41485,2.816192 -0.49035,3.646914 -1.56875,1.439698 -7.99701,0.611368 -10.39408,0.506915 -1.09107,-0.04754 -1.84271,-0.215352 -2.13854,-1.292593 C 173.9189,45.538984 174.4,44.063222 174.4,42.239999 c 0,-0.912163 -0.34557,-2.475351 0.32888,-3.326914 0.83686,-1.056621 3.53616,-0.515673 4.79112,-0.513085 0.7892,0.0016 2.0282,-0.147149 2.55111,0.513085 1.82215,2.300635 -0.003,5.031656 -2.55111,4.286914 0.14558,-1.1354 -0.96028,-3.319028 -2.23112,-1.726665 -0.6124,0.767325 -0.48531,3.118731 -0.1358,3.919258 0.42588,0.975425 1.25387,0.984986 2.36692,1.005928 1.46283,0.02752 4.3756,0.291343 5.11111,-0.777285 0.42801,-0.621865 0.32322,-1.31522 0.32863,-2.101236 0.0108,-1.570239 0.77467,-6.331396 -0.51283,-7.351113 -0.72412,-0.573506 -2.1301,-0.328828 -3.00691,-0.328886 -2.47016,-1.57e-4 -6.72625,-0.856016 -8.85829,0.193085 -1.03388,0.508741 -0.74171,3.139913 -0.74171,4.286914 v 13.44 c 0,10.536279 -0.0442,20.181201 0.23703,30.72 0.03,1.126113 -0.2861,1.974326 -0.18147,3.2 0.0774,0.906435 0.13485,2.261035 1.00592,2.686914 0.90932,0.44459 2.39189,0.193086 3.41852,0.193086 2.94836,0 7.99195,0.902734 10.51259,-0.237529 1.06436,-0.481485 1,-1.605596 1.00715,-2.642471 0.0169,-2.452412 0.0169,-5.227861 0,-7.68 -0.006,-0.901094 0.16008,-1.698159 -0.51283,-2.231108 -0.65105,-0.515645 -1.89258,-0.328536 -2.68691,-0.328892 -1.80428,-8.11e-4 -4.71709,-0.383833 -6.3526,0.101729 -1.18498,0.351801 -1.00524,1.724213 -1.0074,2.778271 -0.004,1.820117 -0.59594,4.718428 1.60617,5.072598 1.41422,0.227441 3.11709,0.165146 3.39334,-1.261241 0.27351,-1.412226 -1.29676,-1.371904 -1.92643,-1.898759 -1.50881,-1.262481 1.06457,-2.232105 2.04692,-2.232105 0.65171,0 1.41988,-0.168222 2.04691,0.328399 1.04842,0.830366 0.79838,6.008979 0.1842,6.929379 -1.02774,1.540137 -6.67047,1.173272 -8.61234,0.64 C 174.13242,87.380253 174.72,82.787294 174.72,80.959999 v -16.64 c 0,-2.123535 -0.0219,-3.785361 -0.0207,-5.76 8.2e-4,-1.429009 -1.14668,-5.036909 0.0296,-6.526914 1.31352,-1.663818 7.83471,-0.52936 10.23112,-0.512842 1.04396,0.0072 1.93,-0.14645 2.36691,0.741485 0.62994,1.280224 1.00328,7.281762 0.0835,8.756543 -0.74864,1.200302 -5.77989,1.064707 -6.82866,0.548642 -1.07218,-0.527588 -0.8464,-1.963091 -0.72294,-3.320742 0.22406,-2.464189 2.09894,-1.500112 2.54123,-0.326172 0.32306,0.857495 1.64263,2.00791 2.36691,0.538272 2.59076,-5.256944 -5.07221,-4.866612 -7.80691,-4.058272 0.84884,2.871656 0.32,10.963452 0.32,15.04 0,1.239575 -0.53881,4.616812 0.74171,5.246914 1.63858,0.806284 5.43374,0.266406 7.25803,0.186914 0.97494,-0.04248 1.67387,-0.146225 2.04717,-1.001235 0.52721,-1.207505 0.66053,-4.180449 0.36172,-5.374077 -0.42057,-1.679981 -4.4402,-2.446905 -5.07678,-0.609131 -0.32912,0.950181 0.3552,1.4652 1.06815,1.816294 0.56068,0.276108 1.04914,0.365356 1.13086,1.055556 0.13478,1.138321 -0.93084,1.465713 -1.77235,1.54 -0.84988,0.07503 -2.2916,0.235494 -2.86963,-0.494321 -0.61724,-0.779336 -0.32888,-2.379707 -0.32888,-3.326914 0,-2.136157 -0.52229,-3.953916 1.92148,-4.128149 2.98033,-0.21249 7.13461,-0.03185 10.23852,-0.03185 1.3947,0 4.4174,-0.566206 5.56814,0.328892 1.08865,0.846787 0.804,3.679419 0.81902,4.791108 0.0101,0.745811 0.01,1.532705 -0.50025,2.138272 -0.8818,1.046601 -2.89055,1.281005 -4.18494,0.412836 -0.70516,-0.472963 -0.83287,-1.367539 -0.22764,-1.908393 0.63305,-0.565698 2.72563,-0.982114 1.71059,-2.369873 -0.63227,-0.864419 -3.496,-0.798428 -4.27184,-0.18395 -0.96777,0.766484 -0.91308,6.299038 0,7.022216 1.26356,1.000757 7.5636,0.780206 9.03951,0.135806 1.36756,-0.597085 1.00741,-2.730381 1.00741,-3.966914 V 58.88 c 0,-1.162334 0.48617,-4.002719 -0.74172,-4.606914 -1.14844,-0.565102 -5.72522,-0.672026 -6.7452,0.135806 -0.96078,0.760962 -0.81092,3.114726 -0.1842,4.049136 1.40778,2.098901 2.52295,-2.840406 4.27826,-1.487657 1.33043,1.025318 0.74235,4.603814 -1.09332,4.770865 -2.4498,0.222934 -5.94162,0.955258 -6.06765,-1.902715 -0.0776,-1.760127 -0.92774,-7.892822 1.2926,-8.271113 2.67103,-0.455083 5.89523,-0.04863 8.62123,-0.04741 0.8422,3.76e-4 2.28373,-0.228549 2.87111,0.513086 1.12672,1.422598 0.32889,5.703511 0.32889,7.486914 v 20.16 c 0,1.807725 0.81664,6.477187 -0.51309,7.806914 -1.23734,1.237344 -6.79402,0.733398 -8.44074,0.465684 -2.12334,-0.345215 -2.39158,-5.222325 -1.41309,-7.210869 0.42986,-0.873599 1.38899,-0.741236 2.36692,-0.741236 0.96252,0 2.24964,-0.189765 2.66814,1.000742 0.63273,1.799956 -1.9415,1.096128 -2.46889,2.300249 -0.73869,1.686563 1.13598,2.129883 2.36075,2.135801 0.91298,0.0044 2.00558,0.01655 2.55111,-0.776055 0.74295,-1.079462 0.90326,-6.031049 -0.1842,-6.892338 -1.39641,-1.105967 -5.71381,-0.34087 -7.48691,-0.328648 -0.69155,0.0048 -1.49807,-0.106045 -2.04692,0.328648 -0.9707,0.768813 -0.51308,4.134497 -0.51308,5.431108 0,1.740176 -0.64463,5.66917 0.51308,6.802471 0.72754,0.712197 1.96369,0.555781 3.00692,0.557529 2.60976,0.0044 9.57267,0.894961 11.41851,-0.328887 1.67553,-1.110937 0.74149,-8.292578 0.74149,-10.551113 v -8.64 -3.2 -19.84 V 39.04 c -4.3e-4,-0.929766 0.25197,-2.51795 -0.74172,-3.006915 -2.13307,-1.049609 -6.47157,-0.193242 -8.85828,-0.193085 -0.87344,5.8e-5 -2.27764,-0.248711 -3.00692,0.328886 -0.62687,0.496494 -0.50795,1.521865 -0.51283,2.231114 -0.0121,1.749907 -0.83705,6.218896 0.51283,7.425927 0.96637,0.864092 3.34248,0.59 4.60692,0.572837 1.01052,-0.01372 2.22046,0.0027 2.68691,-1.031851 0.69928,-1.550996 0.71496,-3.91519 -0.81283,-4.299013 -1.72895,-0.43436 -1.67123,2.085898 -2.87531,2.331601 -1.43436,0.292696 -1.53938,-1.056005 -1.55729,-2.119746 -0.0152,-0.899702 -0.18361,-1.721464 0.3274,-2.36667 0.52213,-0.659248 1.75373,-0.511445 2.55112,-0.513085 2.12427,-0.0044 4.99087,-0.866534 5.11382,1.921479 0.0732,1.660591 0.0366,4.385654 0.005,6.078276 -0.0178,0.944331 -0.006,1.870401 -1.00592,2.322715 -2.22029,1.00439 -6.32347,0.238691 -8.91259,0.237529 -0.85372,-3.8e-4 -2.27727,0.236714 -2.87112,-0.513086 C 190.11166,47.667597 190.4,46.067172 190.4,45.119999 c 0,-2.707949 -1.8e-4,-5.636923 0,-8.319999 7e-5,-1.187364 -0.45961,-2.982735 1.0074,-3.418272 C 194.84586,32.360898 201.07935,33.28 204.8,33.28 c 1.44021,0 3.02044,-0.531416 3.64691,0.741728 0.52768,1.072363 0.19309,3.738945 0.19309,5.018272 0,3.15853 -0.10743,6.473613 0.14246,9.599999 0.0922,1.153492 0.15591,2.064248 0.17285,3.2 0.0261,1.750694 -0.37401,2.964839 -0.30248,4.8 0.0648,1.661875 0.30652,2.815108 0.30717,4.48 0.004,10.467066 0,21.482471 0,32 V 103.68 c 0,1.26089 0.39492,3.29359 -0.32889,4.37827 -0.64344,0.96424 -2.17627,0.74127 -3.19111,0.74173 -2.98635,0.001 -5.97364,0.001 -8.96,0 -1.12885,-5.1e-4 -2.5535,0.21379 -3.19112,-0.74173 -0.45724,-0.68523 -0.32719,-1.62885 -0.32888,-2.45827 -0.005,-2.20077 -0.43721,-7.097325 0.10171,-8.912599 0.12903,-0.434609 0.32366,-0.732871 0.90569,-0.905674 1.97912,-0.587568 3.74424,-0.101875 6.0326,-0.101728 0.97127,5.8e-5 2.29533,-0.234697 3.00691,0.328887 0.68275,0.540761 0.51129,1.681894 0.51309,2.551113 0.003,1.392578 0.41474,3.654211 -0.51309,4.562471 -0.67625,0.66198 -1.66813,0.63287 -2.68543,0.52247 -1.10943,-0.1204 -2.00803,-0.81283 -1.801,-1.84247 0.23084,-1.14802 1.11094,-0.64754 1.92643,-1.32987 0.6275,-0.525062 0.5918,-1.431586 -2.5e-4,-1.903715 -0.71387,-0.569277 -1.43051,-0.330693 -2.36666,-0.328642 -0.99473,0.0022 -1.4577,-0.0061 -2.56,0.319756 0.53853,2.262071 -0.87385,5.244301 0.64888,7.166911 1.02621,1.29569 6.07922,0.55821 7.67112,0.50815 0.90316,-0.0284 1.93857,-0.078 2.36691,-1.02815 0.77588,-1.72119 0.0122,-2.79343 -0.0983,-4.40691 -0.12289,-1.79465 0.5483,-5.37338 -0.22172,-6.938273 -0.85904,-1.7458 -5.31686,-0.741728 -7.16691,-0.741728 -1.97338,0 -4.12588,-0.03546 -6.07975,0.0015 -0.73986,0.01399 -1.66168,-0.04318 -2.04717,0.740244 C 189.18039,96.732704 190.4,103.21548 190.4,106.56 c 0,1.27519 -0.31803,3.08881 0.32888,4.05827 0.77031,1.15438 3.09612,0.74173 4.47112,0.74173 h 11.52 c 1.19847,0 3.37275,0.40106 4.28691,-0.51309 1.0373,-1.03729 0.51309,-3.8739 0.51309,-5.24691 V 91.199999 c 0,-10.648711 0.0509,-21.713091 -2.6e-4,-32.32 -0.007,-1.497529 -0.24223,-2.35749 -0.30715,-3.84 C 210.92054,48.37038 211.2,41.269301 211.2,34.56 v -8.64 -6.4 c 0,-1.621143 0.93664,-6.361113 -1.00741,-6.938272 C 207.17263,11.685137 201.14957,12.48 197.76,12.48 c -1.14297,0 -3.34375,-0.418115 -4.28692,0.328887 -0.8007,0.634179 -0.51303,2.288994 -0.51308,3.191113 -2e-4,2.878916 -0.001,5.761396 0,8.64 4.6e-4,1.035273 -0.17967,2.576279 0.74171,3.191113 1.87313,1.249932 6.85159,0.356387 9.17829,0.327656 0.90496,-0.01117 2.03132,0.02471 2.68691,-0.59334 0.55248,-0.520849 0.49742,-1.215507 0.5116,-1.965673 0.0303,-1.606416 0.005,-3.494698 0.001,-5.119756 -0.002,-0.869199 0.16964,-2.010381 -0.51309,-2.551114 -1.02713,-0.813505 -3.41943,-0.339033 -4.92691,-0.328642 -0.95715,0.0066 -1.92627,-0.154014 -2.36692,0.741484 -0.38961,0.791778 -0.49226,3.42209 0.31977,4.047901 1.78904,1.37875 2.22092,-2.763233 3.86689,-2.030371 1.13629,0.505927 1.0734,2.686503 0.9842,3.621982 -0.0748,0.784209 -0.48123,1.124023 -1.22271,1.251357 -1.2558,0.215655 -5.64561,0.561563 -6.37235,-0.438271 -0.95187,-1.309561 -1.05224,-7.912676 0,-9.24124 1.18694,-1.498614 7.73088,-0.513926 9.59112,-0.513086 0.87322,3.9e-4 2.27279,-0.242344 2.87111,0.513086 0.60129,0.759179 0.32889,2.52333 0.32889,3.326914 0,2.557011 -0.0133,4.8233 2.5e-4,7.68 0.005,1.028056 0.38484,2.61041 -0.22197,3.418271 -1.37104,1.825928 -6.4408,0.741729 -8.73779,0.741729 -1.68571,0 -8.29256,0.872617 -9.08692,-0.741729 -0.67594,-1.373662 -0.18596,-3.809033 -0.19334,-5.338271 -0.006,-1.317617 -0.15123,-1.999942 -0.26543,-3.2 -0.22885,-2.404698 -0.0555,-5.812676 -0.0543,-8.32 3.7e-4,-0.826807 -0.15375,-2.077549 0.32888,-2.686914 0.90957,-1.1484181 2.89014,-0.5130861 4.47112,-0.5130861 h 13.44 c 1.70148,0 4.12666,-0.7298828 5.11111,0.5130861 1.00637,1.270635 0.64639,4.645644 0.64889,6.206914 0.0104,6.479092 0,12.991797 0,19.52 V 91.519999 105.92 c 0,1.42188 -0.41555,3.03859 0.19308,4.4326 0.78936,1.8079 3.38621,1.0074 5.24692,1.0074 5.16486,0 11.96054,0.80118 16.94123,-0.0474 1.82591,-0.3111 1.29876,-2.99223 1.29876,-4.4326 V 95.999999 c 0,-1.357246 0.41137,-3.469854 -0.19308,-4.698272 -0.56236,-1.14288 -2.89188,-0.741728 -3.96692,-0.741728 h -9.28 c -1.18533,0 -2.97566,-0.339629 -4.05828,0.193086 -1.51177,0.743887 -0.74171,5.985908 -0.74171,7.486914 0,1.976831 -0.73834,5.658931 0.32888,7.258271 0.58367,0.87468 1.88348,0.7397 2.87112,0.74173 2.54201,0.005 7.14615,0.97875 9.17828,-0.37729 0.67812,-0.4525 0.70521,-1.17285 0.73554,-1.86394 0.0634,-1.44517 0.006,-3.3131 0.006,-4.798771 -5e-5,-0.894717 0.24733,-2.279395 -0.32888,-3.006914 -0.78037,-0.985303 -3.26688,-0.513633 -4.47112,-0.513086 -0.83378,3.71e-4 -2.05509,-0.171524 -2.68691,0.328887 -0.724,0.573427 -0.52848,1.549374 -0.5116,2.550869 0.0169,1.000537 0.0194,2.145425 1.27851,2.145425 1.96702,0 0.42297,-1.965494 2.28124,-2.344693 1.16691,-0.238115 1.46918,0.706875 1.54,1.485684 0.0835,0.918479 0.22394,2.291759 -0.31012,3.092099 -0.82723,1.23968 -3.76631,0.79414 -5.11086,0.73556 -0.71016,-0.0309 -1.47244,-0.0778 -1.91137,-0.73556 -0.41123,-0.61626 -0.32357,-1.40258 -0.32863,-2.13827 -0.0107,-1.550148 -0.77006,-6.33504 0.51283,-7.351114 1.32125,-1.046436 5.20549,-0.328887 6.84691,-0.328887 1.25538,0 4.80442,-0.278174 5.43112,0.513086 0.63371,0.800117 0.32881,1.934804 0.32888,3.006914 1.8e-4,2.773183 1.8e-4,5.546791 0,8.320001 -7e-5,1.07602 0.28186,2.82808 -0.74171,3.51111 -1.02414,0.6834 -2.86993,0.32889 -4.05829,0.32889 H 220.8 c -1.37485,0 -2.76594,0.36788 -3.64692,-0.51309 -1.49246,-1.49246 -0.35461,-5.96541 -0.26,-7.80691 0.0862,-1.678478 -0.25308,-4.597726 -0.25308,-6.720001 v -4.16 -2.24 -3.2 -12.8 V 31.68 15.04 c 0,-1.48583 -0.65817,-4.73919 1.29876,-5.0725978 4.43127,-0.7549804 9.85336,-0.047402 14.38123,-0.047402 1.16196,0 4.00911,-0.4742774 4.79112,0.5130858 1.36127,1.71873 0.32888,7.536924 0.32888,9.726914 0,1.304922 -0.005,2.004277 2.6e-4,3.2 0.005,0.94875 0.36312,2.884863 -0.11457,3.766914 -0.57121,1.054717 -1.60805,1.015693 -2.76569,1.031855 -2.72814,0.03809 -9.69966,0.75042 -11.78023,-0.236299 -1.82695,-0.866445 -1.0199,-7.346855 -1.01976,-9.36247 5e-5,-0.807061 -0.14803,-2.085049 0.19308,-2.778272 0.38518,-0.782783 1.13301,-0.722959 2.04717,-0.740244 2.06527,-0.03904 5.34057,-0.485146 7.31234,0.100244 1.86623,0.554063 1.52848,7.185166 -0.59877,7.530869 -1.16756,0.189737 -4.17978,0.190635 -3.31457,-1.772597 0.39819,-0.903526 3.21465,-1.161612 2.02567,-2.787168 -0.52358,-0.71583 -3.78555,-1.2021 -4.62047,0.228896 -0.98071,1.680869 -0.86533,4.713408 0,6.196543 0.76457,1.31044 8.35447,1.36959 9.56246,0.412842 1.15574,-0.915361 0.51308,-4.751924 0.51308,-6.071113 0,-1.501416 0.63909,-4.664756 -0.32888,-5.886914 C 233.87013,12.133291 232.02242,12.48 231.03999,12.48 H 223.04 c -0.94348,0 -2.54098,-0.293584 -3.32692,0.328887 C 218.55982,13.722295 219.2,17.52206 219.2,18.88 v 18.56 13.119999 2.88 10.88 c 0,1.495401 -0.0729,4.103711 0.0543,5.44 0.15416,1.619756 0.26557,2.330376 0.26569,4.16 2.3e-4,3.412881 -2.4e-4,6.827119 0,10.24 7e-5,1.035615 -0.22215,2.59168 0.51308,3.326914 0.89277,0.892764 2.73033,0.513086 3.96691,0.513086 3.80834,0 8.43686,0.556885 12.15383,-0.0474 2.64828,-0.430557 1.60617,-6.812041 1.60617,-8.912598 0,-1.54002 0.65393,-4.96602 -0.32888,-6.206914 -0.58738,-0.741626 -2.02891,-0.51271 -2.87112,-0.513086 -2.44158,-0.0011 -6.99021,-0.883584 -9.17828,0.193086 -1.52056,0.748218 -0.86039,6.930337 -0.72295,8.440742 0.18987,2.086533 5.7851,2.610283 7.46815,1.277285 1.30723,-1.035342 0.62687,-3.823198 -0.29111,-4.460742 -1.95766,-1.35959 -1.75094,1.83853 -3.07704,2.109131 -1.85361,0.378247 -2.09263,-2.78041 -1.36568,-4.257773 0.65,-1.320962 3.99211,-0.750132 5.24691,-0.741485 0.70514,0.0049 1.73833,-0.109346 2.23112,0.512842 1.14754,1.448887 0.34217,5.20395 0.32863,7.166914 -0.006,0.823086 0.0874,1.734883 -0.51283,2.322471 -0.66953,0.65542 -1.7417,0.552295 -2.68692,0.557285 -2.19308,0.01156 -7.88031,1.01376 -9.40691,-0.512842 -0.64695,-0.646963 -0.51127,-1.806211 -0.51308,-2.686914 -0.005,-2.658921 0,-5.339131 0,-8 v -31.04 c 0,-2.696088 0.0123,-6.029746 -2.6e-4,-8.639999 -0.004,-0.828311 -0.46906,-2.585411 0.0378,-3.326914 0.64532,-0.944063 1.94321,-0.513008 3.16246,-0.513086 3.18338,-2.05e-4 8.31866,-0.440313 11.18124,0.0474 1.37982,0.235088 1.29021,1.30959 1.29851,2.512598 0.0179,2.589619 0.57764,6.46832 -0.10146,8.941235 -0.59389,2.162637 -5.25911,1.298872 -6.93829,1.298764 -0.8897,-5.8e-5 -1.68751,0.143223 -2.51259,-0.101728 -1.07334,-0.318657 -0.99977,-1.388867 -1.00715,-2.458272 -0.008,-1.208583 -0.45498,-3.617539 0.32863,-4.606914 0.67164,-0.848017 4.14141,-0.908574 4.57926,0.227159 0.75283,1.952724 -3.57582,1.845234 -2.01777,3.866914 0.72105,0.935625 3.4813,0.794985 4.27654,-2.44e-4 0.78588,-0.78587 0.51303,-2.326592 0.51308,-3.326914 6e-5,-0.983467 0.34209,-2.833809 -0.51308,-3.511114 -1.1883,-0.941152 -7.58207,-0.82622 -8.9852,-0.1358 -1.46861,0.722656 -0.74172,6.251904 -0.74172,7.806913 v 21.44 c 0,1.426802 -0.674,6.150293 0.74172,6.846914 2.16471,1.065176 6.74666,0.198086 9.17828,0.193086 0.86315,-0.0018 2.02526,0.148574 2.68692,-0.513086 1.22471,-1.224707 1.0276,-7.867163 0.32,-9.305185 -0.56481,-1.147847 -5.83473,-1.154107 -7.0652,-0.548643 -0.58177,0.28627 -0.66507,0.776758 -0.72295,1.413086 -0.10984,1.208091 -0.35093,3.172676 0.98372,3.478765 1.57128,0.360361 1.99359,-2.819981 3.43628,-2.313081 1.00215,0.352114 0.98764,1.354214 0.99952,2.348144 0.0103,0.867529 0.0982,1.725796 -0.51137,2.322471 -0.60682,0.594028 -1.53133,0.544629 -2.36692,0.556294 -1.38988,0.0194 -3.62601,0.469038 -4.60691,-0.511851 -0.87578,-0.875771 -0.51309,-3.332451 -0.51309,-4.606914 v -11.84 c 0,-1.422832 -0.55408,-3.022622 0.51309,-3.826416 0.7944,-0.598344 1.92156,-0.0943 2.68691,-0.04223 1.67866,0.114204 5.55077,-0.740811 6.84692,0.313086 1.22381,0.995068 0.82166,6.6279 -0.49432,7.20247 -1.6389,0.715562 -4.46166,0.139468 -4.28345,-1.365678 0.0817,-0.690191 0.57015,-0.779488 1.13085,-1.055557 0.63668,-0.313481 1.23192,-0.653608 1.13086,-1.504443 -0.11152,-0.938985 -1.00939,-0.961763 -1.77234,-0.995064 -0.91564,-0.03997 -2.51807,-0.254892 -3.00543,0.735557 -0.54623,1.110068 -0.62754,5.858916 0.32,6.60938 0.79496,0.629629 2.36479,0.328891 3.32691,0.328891 h 8.32 c 1.52747,0 5.30194,0.338799 6.07112,-0.778764 0.70273,-1.021021 0.33111,-2.368745 0.32888,-3.701236 -0.004,-2.298701 -2.20898,-5.365317 -4.92666,-3.191108 -1.7665,1.413252 2.31721,2.737446 1.83481,4.109873 -0.44119,1.255181 -2.50959,1.141128 -3.60938,0.953828 -1.52531,-0.25977 -2.51834,-6.817138 -0.55705,-7.722471 1.54627,-0.713759 8.92575,-0.909882 9.6252,0.511607 0.52224,1.061348 0.19308,3.028965 0.19308,4.378271 v 10.56 c 0,1.434278 0.34944,3.275733 -0.19308,4.378272 -0.6902,1.402651 -2.93527,0.842339 -4.28692,0.860244 -0.86828,0.0115 -1.95705,0.105073 -2.77828,-0.310371 -0.58779,-0.297354 -0.66506,-0.777627 -0.72295,-1.414317 -0.0945,-1.038867 -0.33847,-2.842387 0.72149,-3.314565 1.84092,-0.820078 2.27037,3.495864 4.18666,2.030366 1.03939,-0.794888 0.68988,-3.586665 0,-4.276543 -0.96303,-0.963027 -5.80215,-1.112187 -6.97383,-0.184194 -1.28289,1.016074 -0.5235,5.800962 -0.51283,7.351108 0.005,0.789639 -0.0819,1.772129 0.51283,2.366914 0.67598,0.675977 1.75047,0.511162 2.68691,0.513086 2.475,0.0051 6.65676,0.791836 8.9126,-0.193086 1.72647,-0.753794 1.0074,-5.234843 1.0074,-6.846914 v -21.44 c 0,-1.542797 0.77711,-7.05955 -0.74171,-7.806913 -1.39901,-0.688399 -8.07797,-0.836182 -9.3052,0.1358 -0.96777,0.766485 -0.91309,6.299038 0,7.022222 1.08949,0.862886 3.57772,0.698867 4.27184,-0.411358 0.44189,-0.706811 0.12871,-1.329077 -0.40543,-1.632836 -0.70752,-0.402364 -2.83618,-1.19792 -1.30616,-2.418028 1.02606,-0.818222 3.63311,-0.567666 4.36913,0.184199 0.81757,0.835186 0.56,3.093575 0.55753,4.286914 -0.002,1.148731 0.22231,2.413194 -1.0074,2.778272 -1.81916,0.540078 -6.73072,0.538691 -8.54519,0 -0.90569,-0.268887 -0.96233,-0.937598 -1.00123,-1.819751 -0.0872,-1.978667 -1.04955,-10.432075 1.29259,-10.831118 3.8403,-0.654287 7.3485,-0.04452 10.86123,-0.305186 0.97573,-0.0724 2.35993,-0.110371 3.00692,0.503213 0.7934,0.752422 0.51301,2.138731 0.51308,3.274571 v 8.639999 31.36 c 0,2.660518 0.005,5.341548 0,8 -0.002,0.928398 0.14538,1.997891 -0.51308,2.642471 -0.82852,0.811035 -2.44113,0.557451 -3.64692,0.557529 -3.16568,2.05e-4 -8.29919,1.220576 -8.72519,-2.56 -0.21117,-1.874067 0.0382,-2.55272 -0.14369,-4.16 -0.0755,-0.667353 -0.23135,-2.734604 0.23777,-3.326914 0.46076,-0.581753 1.16301,-0.497456 1.91137,-0.511606 1.3439,-0.02541 4.17398,-0.522168 5.24666,0.327412 0.78894,0.624863 0.66187,2.580351 0.41137,3.492343 -1.04424,3.801577 -3.67637,-3.503271 -5.1452,-0.519506 -1.59193,3.233828 1.3257,4.378124 3.64691,4.378271 0.95829,5.9e-5 2.80114,0.340986 3.64692,-0.328887 1.34504,-1.065293 0.5242,-5.70372 0.51283,-7.351113 -0.005,-0.717051 0.11455,-1.734209 -0.51283,-2.231108 -0.72416,-0.57354 -2.13004,-0.328838 -3.00692,-0.328892 -2.36595,-1.51e-4 -6.73595,-0.85123 -8.85828,0.193086 -1.06056,0.52187 -0.74166,2.351021 -0.74172,3.326914 -1.7e-4,2.71291 -0.35449,8.182285 0.0474,10.54123 0.31818,1.867618 2.34806,1.277149 4.11259,1.302227 1.05686,0.01502 1.87784,0.141562 2.88,0.177773 0.99442,0.03594 1.86323,-0.152343 2.88,-0.176543 2.237,-0.05322 5.61854,0.748516 7.6326,7.43e-4 1.43768,-0.53377 1.0074,-2.459922 1.0074,-3.84543 v -12.8 c 0,-1.880405 0.0393,-4.257593 -0.005,-6.08 -0.0198,-0.821094 -0.15049,-1.412129 -0.16965,-2.24 -0.0383,-1.653388 0.008,-3.747866 -0.0736,-5.44 -0.0473,-0.984399 -0.0642,-1.584331 -0.0711,-2.56 -0.008,-1.171338 -10e-4,-1.88748 -10e-4,-3.2 v -24.639999 -10.56 c 0,-1.03043 0.36026,-3.104678 -0.74171,-3.646914 C 255.20785,11.388584 249.65144,12.48 246.71999,12.48 c -0.95882,0 -2.83886,-0.335684 -3.51111,0.513086 -0.57764,0.729316 -0.32883,2.133476 -0.32889,3.006914 -1.5e-4,2.272304 -1.11585,7.660966 0.51309,8.951113 0.90535,0.717061 8.19162,0.68375 9.3052,0.135801 1.09394,-0.538291 0.74115,-1.73958 0.74171,-3.006914 6.1e-4,-1.351553 0.37655,-3.404903 -0.74171,-4.151114 -0.76272,-0.508955 -1.84514,-0.363369 -2.7768,-0.322714 -0.75402,0.0329 -1.90742,0.101533 -1.77234,1.273828 0.16939,1.470166 2.13152,1.012109 2.519,2.020244 0.79738,2.07459 -3.3269,2.197236 -4.48643,1.62667 -1.17144,-0.576426 -1.27349,-6.667188 0,-7.293828 1.71701,-0.844883 5.36143,-0.205918 7.25828,-0.192842 0.70512,0.0049 1.73834,-0.109346 2.23112,0.512842 1.40613,1.77539 0.34527,7.313125 0.32863,9.726914 -0.007,1.053642 0.15783,1.899687 -0.74146,2.371601 -1.00577,0.527783 -2.58202,0.493408 -3.73829,0.507168 -2.75982,0.03283 -5.87925,0.05168 -8.64,-2.54e-4 -1.51351,-0.02848 -2.39166,-0.234267 -2.54123,-1.92 -0.16695,-1.88165 0.0234,-5.767304 -0.0234,-7.678515 -0.0362,-1.476299 -0.2945,-2.193467 -0.31408,-3.84 -0.0191,-1.608779 -0.60717,-4.219297 1.00617,-4.698272 1.14314,-0.3393844 3.06783,-0.1017281 4.43259,-0.1017281 h 10.56 c 1.16196,0 4.00911,-0.4742774 4.79112,0.5130861 0.79502,1.003799 0.32888,3.379179 0.32888,4.606914 v 12.48 36.159999 15.04 c 0,1.885532 0.1611,3.857754 0.29137,5.76 0.3827,5.588223 0.0286,11.322549 0.0286,16.960001 0,1.76817 0.81389,6.6781 -1.29877,7.25827 -3.51859,0.96626 -8.76404,0.10173 -12.46123,0.10173 -1.07964,0 -3.40796,0.4252 -4.15111,-0.51309 -0.69935,-0.88301 -0.32889,-2.88601 -0.32889,-3.96691 0,-3.09866 0.16795,-5.596544 -0.18419,-8.320001 -0.10997,-0.850342 -0.31018,-2.006299 0.37728,-2.551113 1.545,-1.224415 7.68391,-0.344932 10.04691,-0.328643 1.04534,0.0072 1.92811,-0.146416 2.36692,0.741484 0.91896,1.859473 0.49467,4.55001 0.51185,6.298273 0.0103,1.05145 0.2184,1.94785 -0.32765,2.74123 -0.57403,0.83402 -1.89031,0.77335 -2.87112,0.77852 -1.31615,0.007 -3.34742,0.42665 -4.28691,-0.51284 -0.66029,-0.66029 -0.52711,-1.76547 -0.5116,-2.68667 0.0161,-0.956472 -0.0367,-1.908054 0.99974,-2.119753 0.9937,-0.202969 1.28657,0.437002 1.55877,1.159512 0.2528,0.670971 0.42872,1.185181 1.28,1.185181 1.52006,0 1.33252,-1.758824 1.27383,-3.103697 -0.12129,-2.779238 -3.73058,-1.958252 -5.75357,-1.92 -0.81561,0.01542 -1.69199,-0.08385 -1.99283,0.740244 -0.22637,0.620069 0.0335,1.503575 0.06,2.138272 0.0771,1.847121 -0.82512,5.693941 0.34148,7.166911 0.59385,0.7498 2.01742,0.51271 2.87111,0.51309 1.94004,8.7e-4 8.45502,0.96081 9.59112,-0.74173 1.52592,-2.28671 0.32906,-8.667138 0.32888,-11.418271 -7e-5,-1.058135 0.34379,-2.787481 -0.74171,-3.364942 -1.83998,-0.978808 -6.38196,-0.155058 -8.53829,-0.155058 -1.6625,0 -8.37572,-0.780762 -9.08691,0.716055 -1.09029,2.294687 -0.19309,7.912441 -0.19309,10.483946 v 2.24 2.24 c 0,1.36336 -0.46626,2.60242 0.19309,4.1126 0.76244,1.74625 3.12162,1.0074 4.92691,1.0074 h 13.12 c 1.48545,0 3.9285,0.4508 5.00569,-0.51309 0.93234,-0.83427 0.4348,-3.04601 0.43431,-4.28691 -4.6e-4,-1.21675 0,-1.97398 0,-3.2 V 82.239999 27.84 c 0,-4.555342 -0.32,-8.434287 -0.32,-13.12 0,-1.227276 -0.3939,-3.752764 0.51309,-4.471113 1.23002,-0.9741899 4.08908,-0.3288871 5.88691,-0.3288871 2.85121,0 5.05698,-0.1030567 7.68,-0.1745703 1.3417,-0.036582 3.25356,0.022939 4.8,0.012598 1.1003,-0.00736 2.09725,-0.2426074 3.19383,-0.065439 2.92754,0.4729884 1.465,8.4654784 1.65926,10.7874124 0.13098,1.565654 0.23012,3.377353 0.26223,4.8 0.0275,1.220517 0.35802,3.638125 -0.56075,4.606914 -1.06941,1.127636 -3.94347,0.703095 -5.19457,0.751357 -2.82884,0.109131 -6.19285,0.09656 -9.28,0.08148 -1.04935,-0.0051 -1.9565,0.112286 -2.77828,-0.421484 -0.66959,-0.434912 -0.70525,-1.131474 -0.73554,-1.819756 -0.0639,-1.450097 -0.006,-3.304111 -0.006,-4.798515 0,-2.006475 -0.87832,-6.602696 0.32889,-8.126914 0.52852,-0.667295 1.74264,-0.511426 2.55111,-0.513086 2.19227,-0.0045 8.01686,-1.025498 9.72692,0.328887 1.26814,1.004384 0.71963,7.121855 0.46568,8.612353 -0.30082,1.765732 -5.70748,2.088223 -7.11951,0.969873 -0.5298,-0.419619 -0.48152,-1.073701 -0.51629,-1.911357 -0.0329,-0.792041 -0.50252,-2.236778 0.43604,-2.680498 1.5155,-0.716485 3.86128,4.594765 4.63976,0.75457 0.0785,-0.387402 0.0505,-0.873096 0.0457,-1.273584 -0.008,-0.636328 0.0575,-1.241416 -0.32716,-1.727158 -0.52032,-0.656953 -1.75807,-0.511455 -2.55112,-0.513086 -1.53031,-0.0032 -4.2958,-0.54084 -4.92691,0.741728 -0.43676,0.887617 -0.19309,2.043819 -0.19309,3.098272 0,1.336523 -0.003,2.151836 0,3.52 0.004,1.702646 -0.0711,2.879912 1.60618,3.152597 1.38689,0.225479 3.62152,0.0474 5.11382,0.0474 2.0319,0 4.8951,0.841464 6.07112,-0.804444 0.91617,-1.282226 0.32888,-6.60208 0.32888,-8.155556 v -2.56 c 0,-1.04958 0.3586,-3.140733 -0.51308,-3.831113 -0.61947,-0.490635 -1.57403,-0.327256 -2.36692,-0.328887 -2.52476,-0.0052 -5.14625,0 -7.68,0 -1.84011,0 -5.87582,-0.597119 -7.22123,0.328887 -1.40043,0.963876 -0.77877,4.0158 -0.77877,5.751113 0,2.904218 0.31571,4.683545 0.32,7.36 0.004,2.562422 0,5.408955 0,8 v 58.879999 5.12 c 0,1.603906 -0.0397,2.346047 0.005,4.159997 0.0405,1.65246 0.31272,2.86756 0.31531,4.48 0.002,1.36057 -0.50636,4.24886 1.00741,4.69827 1.48582,0.44111 3.82326,0.10173 5.39259,0.10173 h 2.24 2.56 4.16 c 1.24971,0 4.26858,0.46536 5.24692,-0.51309 0.9365,-0.93659 0.28595,-3.34889 0.22172,-4.28691 -0.0659,-0.96195 -0.0286,-1.6247 -0.0286,-2.56 v -6.719997 c 0,-1.147305 0.22422,-3.491621 -0.74172,-3.966914 -2.59423,-1.276524 -7.7257,-0.193086 -10.77828,-0.193086 -1.12265,0 -2.78349,-0.354951 -3.64691,0.328887 -0.6157,0.487636 -0.50783,1.506289 -0.51283,2.231113 -0.0165,2.398603 -0.005,4.955267 -2.6e-4,7.359997 0.002,0.96406 -0.13707,2.2847 0.74172,2.87111 1.37096,0.91484 8.15246,0.96853 9.3052,-0.1842 1.1407,-1.1407 1.16388,-5.809935 0,-6.973821 -0.79987,-0.799864 -4.83209,-1.115069 -4.83209,0.766914 0,1.896397 3.06195,0.800107 2.66469,2.851357 -0.25737,1.3289 -1.7003,1.31104 -2.75952,1.30592 -0.82929,-0.004 -1.73711,0.001 -2.23111,-0.73901 -0.77707,-1.16451 -0.33869,-3.239752 -0.32863,-4.698267 0.005,-0.724824 -0.10287,-1.743467 0.51283,-2.231113 1.11342,-0.881836 3.79283,-0.328887 5.24691,-0.328887 1.11321,0 3.71719,-0.438828 4.47112,0.513086 1.18449,1.495547 0.32888,6.584681 0.32888,8.446911 0,0.99251 0.26461,2.10431 -0.19308,3.1526 -0.43442,0.99498 -1.25936,0.98507 -2.36692,1.00591 -3.04607,0.0573 -6.22195,10e-4 -9.28,10e-4 -0.96214,0 -2.53195,0.30073 -3.32691,-0.32889 -1.51535,-1.20018 -0.47115,-7.68795 -0.51777,-9.591107 -0.0503,-2.054658 -0.31532,-3.04584 -0.31532,-5.44 v -44.16 V 38.08 c 0,-1.14294 -0.41808,-3.34378 0.32889,-4.286914 0.74078,-0.935303 3.08555,-0.513086 4.15111,-0.513086 3.14596,0 9.73893,-0.416416 12.46123,0.0474 2.63067,0.448203 1.28727,8.360591 1.29903,10.832597 0.005,1.059297 0.37779,2.468951 0.005,3.472593 -0.40345,1.086675 -1.59867,1.000498 -2.56543,1.007163 -2.57558,0.01775 -7.17687,0.881773 -9.52568,-0.192842 -1.23078,-0.563105 -0.7368,-2.071181 -0.75406,-3.006914 -0.0336,-1.823154 -0.77096,-4.034096 -0.17854,-6.032597 0.45866,-1.54865 2.14441,-1.0074 3.73786,-1.0074 0.95532,0 2.89225,-0.268819 3.64692,0.328886 0.91222,0.7225 0.88857,4.095308 -0.48815,4.579258 -1.59207,0.559658 -1.49961,-2.011265 -2.56,-2.227646 -1.96351,-0.400669 -1.92474,3.121601 -1.36568,4.257773 0.59518,1.209551 5.83125,1.317773 6.97383,0.412837 0.84562,-0.669751 0.51308,-2.600366 0.51308,-3.511109 v -2.24 c 0,-1.114716 0.23975,-2.002421 -0.10172,-3.152597 -0.30712,-1.034512 -1.13359,-0.986924 -2.13853,-1.005918 -2.70227,-0.05108 -7.27338,-0.671348 -9.87234,0.100244 -1.2933,0.383965 -1.00694,2.0475 -1.00741,3.098272 -10e-4,3.160366 0,5.888696 0,9.279999 v 4.16 2.88 c 0,5.232593 0.21135,10.940767 0.21135,16.32 0,1.717598 -0.30539,3.328535 -0.18271,5.12 0.0726,1.060967 0.26015,1.797441 0.28668,2.88 0.0644,2.628262 -0.0135,5.330703 0.005,8 0.006,0.915644 -0.10895,1.933945 0.74146,2.439756 0.91699,0.54541 2.17104,0.217754 3.09828,0.227646 0.84354,0.009 1.40981,0.170977 2.24,0.196543 1.56879,0.04832 3.79395,0.01606 5.44,0.01606 1.20641,0 2.81823,0.253691 3.64692,-0.557529 1.0565,-1.034229 0.51308,-4.260928 0.51308,-5.842471 0,-1.547871 0.61424,-5.498257 -0.51308,-6.391108 -0.60287,-0.477481 -1.59082,-0.327295 -2.36692,-0.328892 -1.55535,-0.0032 -6.33088,-0.775054 -7.35111,0.513086 -0.91639,1.157041 -0.85312,5.57666 0,6.653828 0.59656,0.753213 3.75207,0.919795 4.46074,2.44e-4 1.37672,-1.786396 -2.92207,-2.689507 -1.89455,-4.094316 1.43207,-1.957901 4.96231,-0.31334 5.09086,1.727402 0.10465,1.661162 0.6269,4.188477 -0.49902,5.115313 -0.51531,0.424199 -1.36832,0.421406 -2.04692,0.417041 -1.6497,-0.01064 -6.71425,0.602451 -7.67111,-0.605684 -1.19978,-1.514854 -0.32889,-6.509141 -0.32889,-8.766914 0,-6.151973 -0.1064,-11.814712 -0.10865,-17.6 -9.4e-4,-2.419023 -0.82879,-5.850215 -0.10963,-8.272592 0.43397,-1.461739 1.96809,-1.007315 3.41828,-1.007408 1.96832,-1.27e-4 4.49442,0.06999 6.4,-0.01259 0.81662,-0.03539 1.43278,-0.285694 2.22123,-0.151358 0.85086,0.144966 1.1417,0.728482 1.25014,1.450122 0.14859,0.988799 -0.10473,1.635 -0.1257,2.553828 -0.0199,0.870069 0.13363,1.395362 0.15828,2.24 0.0295,1.010054 0.19,2.144756 -0.37727,3.152593 -0.9674,1.71875 -4.0216,1.168726 -6.0005,0.988643 -1.75592,-0.15979 -2.51647,-3.674097 -1.09332,-4.770865 1.73181,-1.334648 2.44691,2.684639 3.86689,1.881973 1.00668,-0.569038 1.14312,-3.335342 0.41137,-4.259258 -0.94096,-1.188042 -5.15129,-1.03748 -6.6094,-0.32 -1.24181,0.611055 -0.74172,3.450801 -0.74172,4.606914 v 11.52 c 0,1.161353 -0.29539,3.158428 0.51309,3.966914 0.5382,0.538198 1.31004,0.497744 2.04691,0.511607 1.74979,0.03292 6.20545,0.769848 7.48692,-0.511607 1.07513,-1.075141 1.28142,-6.143115 0,-7.158022 -0.9252,-0.732774 -4.52221,-0.719146 -4.80643,0.672343 -0.37783,1.849761 2.34469,1.185713 2.34469,2.851358 0,1.760234 -2.35635,2.119717 -4.01777,1.394321 -1.19975,-0.523818 -1.61332,-5.441411 -0.81432,-7.065185 0.48697,-0.989658 2.23158,-0.74166 3.32691,-0.741729 3.57989,-2.29e-4 7.16024,0 10.88,0 1.14709,0 3.30553,-0.423467 3.73852,1.007407 0.31496,1.040865 0.36465,2.470972 0.3642,3.472593 -3.3e-4,0.750674 -0.0766,1.479639 -0.3358,2.221235 -0.37293,1.066861 -1.04039,1.258077 -2.16717,1.291358 -0.93363,0.02758 -2.0015,0.04814 -2.54938,-0.771109 -1.40941,-2.107553 3.92266,-2.57312 1.71629,-4.332592 -4.3208,-3.445625 -5.3772,3.725674 -4.50494,6.663701 0.29686,0.999888 1.25397,0.989204 2.13854,1.005928 1.73273,0.03276 6.96033,0.804096 7.99086,-0.740249 1.02597,-1.537505 0.32888,-5.122867 0.32888,-6.938272 v -8.96 c 0,-1.03082 0.34424,-2.797021 -0.32888,-3.646914 -0.76489,-0.965742 -5.79327,-0.879048 -6.9294,-0.32 -1.05988,0.521529 -1.23129,4.240923 -10e-4,4.715059 1.70045,0.655571 1.68416,-2.253325 3.09974,-2.253325 1.60813,0 1.8,3.011337 0.95112,4.283452 -0.92815,1.390898 -6.07518,1.424399 -7.02223,0.228642 -1.33715,-1.688276 -0.60119,-8.043115 -0.009,-10.046914 2.71907,0.647359 6.03102,0.32 8.96,0.32 0.9586,0 2.84977,-0.321919 3.51112,0.513086 1.12672,1.422588 0.32888,5.703516 0.32888,7.486914 v 20.16 c 0,1.861592 0.0333,3.919492 -0.001,5.759756 -0.015,0.79372 0.005,1.685595 -0.74024,2.182959 -1.60378,1.070205 -4.89029,0.427002 -6.93828,0.372597 -0.98519,-0.02618 -1.97463,0.0071 -2.55111,-0.799755 -0.66949,-0.936993 -0.76588,-5.715479 0,-6.682471 0.66273,-0.836782 3.80367,-0.852842 4.46074,-2.44e-4 1.45287,1.885205 -2.4976,1.923857 -1.71037,3.92123 0.37945,0.962764 1.43524,1.011221 2.36074,0.999502 0.7377,-0.0093 1.50403,-0.01967 2.04692,-0.551103 0.92781,-0.908252 0.51595,-3.169903 0.51308,-4.562471 -0.002,-1.067227 0.12102,-2.443262 -1.0074,-2.778271 -1.89814,-0.563531 -4.53353,-0.106128 -6.6726,-0.101729 -0.80847,0.0017 -2.02261,-0.154189 -2.55111,0.513086 -1.37467,1.735659 -0.34463,7.406719 -0.32863,9.726914 0.007,1.036865 -0.0572,2.160996 1.00715,2.642471 2.57826,1.166328 7.81441,0.237724 10.83259,0.237529 1.08719,-6.8e-5 2.82787,0.282158 3.51112,-0.741729 1.48797,-2.229853 0.32888,-8.4029 0.32888,-11.098271 v -30.08 V 39.68 c 0,-0.962139 0.30075,-2.531944 -0.32888,-3.326915 C 304.7296,35.265361 301.14368,35.84 299.83999,35.84 c -1.58035,0 -5.25132,-0.681387 -6.52691,0.328886 -1.1299,0.894903 -0.95893,7.870938 -0.32,9.169385 0.64174,1.304194 6.70254,1.162148 7.47803,0 0.95709,-1.434292 0.30908,-4.734917 -1.5452,-4.270371 -1.43015,0.358291 -0.56158,1.734204 -2.00715,2.240244 -1.89029,0.661724 -2.0397,-3.372583 -1.22988,-4.395059 0.77693,-0.980957 6.60936,-0.925322 7.34223,0 0.98269,1.240743 0.32898,4.666333 0.32888,6.206914 -9e-5,1.384371 0.43182,3.012745 -1.0074,3.462715 -2.03105,0.635005 -9.0741,0.63501 -11.10519,0 -0.79,-0.246992 -0.92293,-0.82417 -0.98864,-1.548642 -0.24927,-2.748736 -0.0201,-7.590645 -0.0188,-10.554072 5.7e-4,-1.244942 -0.26765,-2.885713 1.29877,-3.152598 3.9444,-0.672031 8.75188,-0.0474 12.78123,-0.0474 1.44856,0 3.00024,-0.535987 3.83112,0.513086 0.65134,0.822392 0.32882,2.052207 0.32888,3.006914 2e-4,3.087836 0.38832,6.040644 0.0867,9.279999 -0.12484,1.340704 -0.0282,2.07772 0.14196,3.52 0.58273,4.938804 -0.22864,10.080801 -0.22864,15.04 0,9.747149 0.32,19.369551 0.32,29.12 V 104.32 c 0,1.13736 0.35668,3.09714 -0.51308,3.96691 -0.71971,0.71972 -2.06897,0.51267 -3.00692,0.51309 h -8.32 c -0.97201,0 -2.83703,0.338 -3.51111,-0.51309 -0.99154,-1.25192 -0.32154,-4.63198 -0.32914,-6.20691 -0.008,-1.60716 -1.14678,-4.427443 0.009,-5.886915 0.85871,-1.084199 9.04352,-1.084199 9.90223,0 0.79291,1.001133 0.59492,5.427935 0.1358,6.479515 -0.36862,0.84425 -1.06801,0.96508 -2.04717,1.00098 -1.0402,0.0381 -2.57797,0.0518 -2.73061,-1.27358 -0.1439,-1.24959 2.72463,-1.63719 2.19901,-3.1284 -0.48213,-1.367812 -3.92336,-1.829736 -4.71506,-0.273828 -0.62836,1.234908 -0.75299,5.606958 0.1358,6.729138 0.49689,0.62739 1.51412,0.50789 2.23111,0.51284 1.75416,0.0121 6.19678,0.77729 7.48692,-0.51284 1.0373,-1.0373 0.51308,-3.87389 0.51308,-5.24691 0,-1.636857 0.6503,-5.610597 -0.32888,-6.846915 -0.68709,-0.86751 -2.49176,-0.513086 -3.51112,-0.513086 -2.72851,0 -9.76248,-1.163604 -11.64691,0.328887 -0.87094,0.689794 -0.51309,3.343867 -0.51309,4.471113 0,3.970051 0.14623,7.437791 0.32618,11.518511 0.0514,1.16668 0.25513,1.78034 1.6,1.90272 1.3772,0.12533 2.21416,0.0188 3.51382,0.0188 h 11.2 c 1.06291,0 2.7627,0.32212 3.73828,-0.32889 1.21932,-0.81365 0.74172,-3.50096 0.74172,-4.79111 V 92.159999 c 0,-13.625947 -0.65052,-27.013887 -0.20988,-40.64 C 311.36883,44.751894 311.03984,39.411396 311.03984,32.64 V 17.6 c 0,-1.203321 0.52182,-4.305166 -0.74172,-4.926914 C 307.25158,11.173916 300.74661,12.48 297.27999,12.48 c -1.07779,0 -3.07451,-0.377901 -3.96691,0.328887 -0.84877,0.672236 -0.51309,2.552294 -0.51309,3.511113 0,2.873222 -0.006,5.769033 0,8.64 0.002,1.085361 -0.23646,1.918056 0.51309,2.563711 0.74668,0.643173 3.53758,0.642744 4.92691,0.636045 2.14082,-0.01032 4.34739,0.268847 6.6726,-0.421485 1.02125,-0.303193 0.98668,-1.120625 1.00592,-2.138515 0.0335,-1.773985 0.56781,-5.707959 -0.1916,-7.258028 -0.6459,-1.318388 -4.2618,-0.764912 -5.56666,-0.740244 -0.63483,0.012 -1.46971,-0.04603 -1.91137,0.511602 -0.37797,0.477226 -0.31998,1.127783 -0.32717,1.727158 -0.0167,1.397187 0.87682,3.718437 2.28988,2.138027 0.62985,-0.704433 1.06333,-2.216836 2.40815,-1.619013 1.10498,0.49121 1.1781,3.604824 -0.0916,4.591855 -1.84979,1.437978 -6.95102,0.902617 -7.14938,-1.277285 -0.13877,-1.524971 -0.79353,-7.284951 0.49432,-8.304941 1.68008,-1.330645 7.28162,-0.329844 9.40691,-0.328887 0.84219,3.81e-4 2.28373,-0.228545 2.87112,0.513086 1.23285,1.556601 0.32888,6.482793 0.32888,8.446914 0,1.624951 0.43307,4.841279 -0.32888,5.940986 -1.03176,1.489141 -2.72278,0.427285 -4.15112,0.472842 -1.12756,0.03596 -1.80689,0.246582 -2.88,0.293574 -1.68554,0.07382 -4.02019,0.02074 -5.76,0.01235 -1.28127,-0.0062 -3.53761,0.420225 -4.60691,-0.54124 -1.15945,-1.042539 -0.51309,-3.700908 -0.51309,-5.218515 0,-4.500664 -0.88773,-11.27416 0.32,-15.3600001 4.15856,1.2292091 10.57305,0.050566 14.72,0.00123 1.42895,-0.017002 2.48412,-0.00123 3.84,-0.00123 h 8.96"
       id="path1" />
  </g>
</svg>
