<svg viewBox="0 0 280.863 211.804" xmlns="http://www.w3.org/2000/svg"><path d="M8.59 203.093c1.556 0 6.32-.79 7.352.513.757.957-.014 2.278.842 3.134.847.848 2.255.146 3.133.842.932.738.468 2.274.833 3.511 2.168-.64 5.446.83 6.847-.518 2.887-2.774-2.23-3.186-2.998-4.155-.674-.852-.04-2.31-1.07-2.998-.838-.56-1.797-.033-2.585-.658-.842-.667-.255-2.227-1.027-2.998-.85-.85-2.511-.162-3.188-1.255-.83-1.341-.459-3.496-.459-5.018v-12.16c0-1.417-.549-4.57 1.008-5.247 2.79-1.212 3.152 1.647 3.152 3.647v10.56c0 1.468-.42 3.13.194 4.378.456.928 2.373.495 3.133 1.255.774.774.183 2.33 1.027 2.998.906.719 2.275-.01 2.998 1.07.547.82.035 2.131.842 2.77.852.676 2.006.035 2.813.842 1.046 1.045-.457 10.242 3.84 6.838 1.202-.951.513-4.99.513-6.391 0-1.24.427-3.69-.741-4.471-.823-.55-2.105-.004-2.77-.842-.702-.887-.004-2.286-1.07-2.998-.949-.634-2.083.025-2.77-.842-.78-.985.164-1.777-.657-2.814-.473-.596-1.225-.454-1.906-.53-1.572-.175-1.72-1.063-1.871-2.543-.318-3.111-.061-6.76-.055-9.92.003-1.063-.16-2.506 1.008-3.007 3.896-1.67 3.148 6.704 3.152 8.767.002.767-.15 1.762.33 2.367.708.895 2.16.178 2.997.842.831.658.167 2.205 1.027 2.907.874.713 2 .047 2.813.842.811.792.108 2.546 1.027 3.273.899.712 2.527-.161 3.133 1.07 1.48 3.008.053 9.379.2 12.698.076 1.733 1.545 2.458 3.133 1.728 1.484-.683.7-6.558.7-8.127 0-2.809.922-7.64-.193-10.193-.634-1.452-2.48-.464-3.318-1.52-.647-.817-.068-2.04-.842-2.814-.82-.82-2.276-.116-2.998-1.026-.655-.826-.087-2.03-.842-2.77-.792-.775-2.275-.156-2.998-1.07-.878-1.11-.712-6.663.679-7.065 2.95-.852 2.082 1.864 3.161 3.225.716.903 2.182.21 2.998 1.026.77.77.207 2.013.842 2.814.716.903 2.182.21 2.998 1.026.784.784.176 2.324 1.027 2.998.853.676 2.258-.091 2.998.842.663.838.328 2.648.328 3.647 0 2.891.32 5.742.32 8.64 0 2.424-1.36 11.029 2.235 10.511 1.702-.245 1.603-1.77 1.605-3.151.007-3.306 0-6.614 0-9.92 0-3.225-.166-6.392-.307-9.6-.048-1.107.375-3.062-.341-3.967-.673-.849-1.865-.23-2.691-.842-.998-.74-.388-2.439-1.333-3.182-.83-.652-2.006-.017-2.814-.658-.853-.675-.24-2.212-1.027-2.998s-2.322-.173-2.998-1.026c-1.195-1.51-.606-7.8-.281-9.708.295-1.735 2.619-.745 3.464-1.812.687-.869.004-1.928.657-2.843.713-.997 2.137-.444 2.998-1.133.908-.726.17-2.15.842-2.998.858-1.083 2.942.056 3.41-1.52s.101-3.724.101-5.393v-11.84c0-1.493.578-4.539-1.298-5.017-3.845-.979-2.542 7.558-2.542 9.817 0 2.348.881 6.775-.144 8.858-.55 1.116-2.368.44-3.182 1.255-.773.773-.195 1.998-.842 2.814-.74.932-2.14.161-2.998.842-.877.694-.184 2.167-.842 2.998-.708.894-1.853.23-2.77.842-1.534 1.024-.257 3.916-3.283 3.462-1.741-.261-1.952-5.878-.97-7.118.713-.9 2.184-.212 2.998-1.026.77-.77.207-2.013.842-2.814.716-.903 2.182-.21 2.998-1.026.8-.799.182-1.981.842-2.814.694-.875 2.49-.152 3.183-1.026 1.123-1.419.328-5.688.328-7.487 0-1.685.775-6.713-1.007-7.487-1.336-.58-2.68-.05-2.814 1.413-.242 2.664 1.082 7.35-.347 9.492-.62.93-2.153.401-2.998 1.07-.79.626-.31 2.282-1.027 2.999-.758.759-1.977.179-2.813.842-.955.757-.094 2.443-1.027 3.182-.888.704-2.556-.103-3.133 1.07-1.085 2.205 1.617 10.513-1.8 10.759-.727.052-1.675.02-2.04-.722-.502-1.018-.194-2.613-.194-3.738 0-2.772-.286-7.028-.18-9.581.068-1.665 2.58-.885 3.507-1.812.84-.84.114-1.895.842-2.814.623-.786 2.285-.313 2.998-1.026.826-.826.106-1.885.842-2.814.668-.842 2.835-.414 3.318-1.52.738-1.69.751-6.633-1.412-6.944-3.1-.447-1.462 2.77-2.976 3.782-.926.618-2.075-.035-2.77.842-.672.849-.135 2.374-1.07 2.998-.961.641-2.33-.116-3.09.842-.695.878.029 1.948-.657 2.814-.685.864-2.18.194-2.998.842-1.09.863-.514 4.149-.514 5.431 0 3.426.286 6.834.32 10.24.014 1.55-.009 3.089-1.92 3.175-2.6.118-2.24-2.58-2.24-4.455v-12.48c0-1.629-.507-3.915.194-5.338.503-1.024 2.295-.407 3.133-1.07.923-.731.137-2.108.842-2.999.652-.823 2.283-.311 2.998-1.026.829-.828.175-1.907.842-2.905.67-1.002 5.807-1.26 2.998-4.069-.876-.876-6.009-1.046-6.838 0-.67.847.069 2.277-.842 2.998-.861.682-2.277-.068-2.998.842-.735.929.015 2.305-.842 3.13-.884.85-4.134.308-5.56.178-2.353-.214-1.04-2.404-2.438-3.492-.807-.628-1.997-.06-2.734-.842-.731-.776-.289-2.351-1.108-2.998-.985-.779-2.788.146-3.225-1.336-.927-3.146 1.753-2.118 3.317-3.162 1.073-.716.372-2.117 1.07-2.998.607-.765 2.3-.327 2.998-1.026.782-.782.133-2.61 1.027-3.318 1.108-.878 3.858-.075 4.926-.143 2.566-.164 1.29 1.998 2.754 3.46.752.754 2.34.198 2.998 1.027.68.86-.09 2.26.842 2.998 1.145.908 6.66.695 7.065-.678.25-.853.218-1.995-.412-2.505-.769-.624-2.307-.217-2.998-1.148-.648-.875.003-2.022-.842-2.691-.814-.645-1.94.034-2.813-.658-.947-.75-.156-2.447-1.027-3.318-.845-.845-2.548-.066-3.133-1.255-.529-1.074-.194-2.89-.194-4.058v-9.28c0-2.116-.014-4.29 0-6.4.007-.885-.097-1.997.742-2.55.889-.588 2.271-.275 2.77.449.817 1.188.328 3.174.328 4.661 0 3.298-.131 6.626.013 9.92.043.988.012 2.867.636 3.647.644.806 1.95.297 2.678 1.026.829.83.128 2.296 1.027 3.044.808.673 2.303.166 2.998 1.103.705.951.02 2.005.842 2.827.757.758 1.976.179 2.813.842 1.343 1.064.583 4.337 3.666 2.998 1.521-.66 1.032-3.528 1.006-4.927-.013-.678.04-1.449-.512-1.924-.736-.634-2.353-.387-3.026-1.148-.706-.798-.453-2.317-1.362-2.906-.867-.562-1.815-.198-2.504-.935-.763-.815-.232-1.949-.923-2.814-.84-1.049-2.624-.084-3.274-1.52-.865-1.912-.238-5.218-.238-7.313 0-1.644-.61-5.724.514-6.847.983-.982 2.882-.462 3.225.786.767 2.793-1.162 7.637.75 10.028.718.898 2.183.21 2.998 1.026.772.771.185 2.331 1.027 2.998.906.719 2.275-.01 2.998 1.07.562.843.04 2.093.842 2.783.853.735 2.655.4 3.133 1.377 1.165 2.382-.515 7.113.295 9.767.288.942 2.397 1.275 3.225.67 1.21-.882.513-5.569.513-7.018 0-1.955.771-5.93-.328-7.578-.74-1.109-2.41-.281-3.183-1.255-.648-.817-.067-2.04-.842-2.814-.855-.855-2.298-.142-2.998-1.026-.664-.84.058-2.286-.842-2.998-.988-.783-1.776.164-2.813-.658-.63-.498-.508-1.522-.513-2.231-.009-1.25-.524-4.291.513-5.111 2.913-2.306 2.846 2.395 3.84 3.182.904.717 2.279-.006 2.998 1.07.632.948-.039 2.027.657 2.906.675.852 2.243.244 2.998.842.827.655.198 2.797 1.255 3.318.975.48 2.4-.094 2.905.935.636 1.292.193 3.183.193 4.698v10.56c0 1.94.696 5.04 3.382 3.191 1.565-1.077.458-6.776.458-8.631v-9.92c0-1.102.388-3.062-.328-3.967-.68-.858-2.503-.168-3.183-1.026-.722-.911.058-2.204-.842-3.052-.776-.732-2.35-.289-2.998-1.108-.674-.853-.034-2.007-.842-2.814-1.39-1.39-3.788.064-3.279-3.054.306-1.877 5.593-1.836 6.89-.97 1.053.702.378 2.123 1.071 2.998.69.87 2.486.28 3.183 1.292.762 1.107-.09 2.72 1.627 3.014 1.45.246 4.724.543 5.96-.282 1.025-.684.4-2.152 1.07-2.998.716-.903 2.182-.21 2.998-1.026.717-.716.29-1.75.842-2.548.777-1.123 3.089-.417 3.318-2.078.384-2.778-1.784-1.8-3.133-2.87-.864-.684-.233-2.204-1.027-2.998-.752-.752-1.704-.27-2.585-.706-1.06-.525-.61-3.356-2.04-3.6-1.554-.264-4.685-.655-5.868.282-.758.6-.334 2.305-1.027 2.998-.87.87-2.5-.006-3.318 1.026-.673.85.047 2.294-.842 2.998-.967.766-6.114.73-6.838-.184-2.458-3.104 2.386-2.835 3.183-3.84.699-.883-.102-2.251.842-2.998.824-.654 1.988-.004 2.813-.658.922-.73.216-2.48 1.027-3.273.81-.795 2.927-.285 3.449-1.565.419-1.029-.091-2.38-.118-3.473-.073-2.983-.005-5.976-.005-8.96 0-2.344.016-4.697 0-7.04-.005-.811.115-1.946-.741-2.367-3.739-1.837-3.099 3.54-3.099 5.567 0 2.879-.047 5.762.008 8.64.023 1.164.43 3.013-.108 4.058-.563 1.097-2.397.487-3.226 1.3-.771.754-.214 1.976-.842 2.769-.715.901-2.184.211-2.998 1.026-.89.89-.108 2.207-.842 3.134-.708.893-1.822.239-2.77.706-1.55.764-.703 4.99-3.84 3.454-.895-.438-.736-1.537-.741-2.367-.01-1.415-.45-3.964.513-4.927.81-.811 1.984-.197 2.813-1.026.774-.774.183-2.33 1.027-2.998.887-.703 2.27.077 2.998-.842.652-.824.005-1.99.657-2.814.81-1.021 2.676.05 3.318-1.255.91-1.847.193-5.536.193-7.578 0-1.47.712-5.741-.513-6.711-.938-.743-2.927-.324-3.225.678-.77 2.596 1.143 7.413-.43 9.771-.717 1.073-2.44.318-3.183 1.255-.635.801-.071 2.044-.842 2.814-.816.816-2.282.123-2.998 1.026-.636.803-.07 2.041-.842 2.814-.835.836-2.947.422-3.453 1.546-.965 2.14 1.731 11.9-2.735 10.705-1.335-.357-1.29-1.63-1.298-2.778-.02-2.77-.002-5.55 0-8.32 0-1.233-.26-3.656 1.056-4.287.882-.422 1.848.036 2.59-.706.772-.771.185-2.331 1.027-2.998.853-.676 2.004-.033 2.813-.842.794-.794.161-2.312 1.027-2.998.884-.701 2.018-.047 2.813-.842.539-.539.499-1.335.512-2.047.026-1.363.516-4.273-.74-5.111-3.281-2.188-2.714 2.75-3.84 3.502-.91.607-2.406-.115-3.061.842-.651.952.372 2.224-.78 2.998-.862.58-2.129.035-2.769.842-.722.912-.01 1.982-.842 2.814-.803.803-2.606.188-3.318 1.255-1.279 1.916-.329 6.888-.329 9.178 0 2.219 1.233 9.783-1.92 9.559-2.533-.18-1.92-3.225-1.92-5.079v-11.52c0-1.691-.224-3.824.048-5.421.276-1.621 2.702-.884 3.595-1.812.79-.821-.204-2.24.715-2.998.906-.747 2.312.056 3.075-.842.695-.819-.18-2.206.76-3.01 1.215-1.04 3.116.178 3.309-1.923.204-2.233.832-7.446-.175-9.492-.572-1.163-2.278-.462-3.133-1.3-.797-.779-.2-1.959-.842-2.769-.695-.876-2.168-.184-2.998-.842-.907-.718-.191-2.115-.842-3.027-.667-.932-2.457-.57-3.09-1.546-.71-1.094-.422-2.802-.422-4.058V4.053c0-.933-.254-2.517.742-3.007.766-.377 2.315-.363 2.877.136.512.455.28 1.294.249 1.911-.078 1.542-.028 3.242-.028 4.8v11.2c.002 1.222-.174 3.3.645 4.287.648.781 1.97.313 2.682 1.026 1.032 1.033.029 2.499 1.255 3.318.707.473 2.182.1 2.77.842.696.88-.03 1.947.657 2.814.717.905 2.155.218 3.09.842 1.005.67.454 2.22 1.07 2.998.53.668 1.646.693 2.504.32 1.015-.44.988-1.43 1.006-2.367.027-1.433.512-3.547-.327-4.607-.48-.605-2.637-.337-3.183-1.026-.67-.846.063-2.282-.842-2.998-.843-.668-2.276.049-2.999-.842-.683-.842-.17-2.212-.964-3.134-.777-.902-2.444-.103-3.01-1.255-1.185-2.407-.194-7.436-.194-10.138 0-1.938-.391-4.19-.214-6.08.07-.742.197-1.68.955-2.047 1.35-.653 2.935-.19 3.08 1.413.285 3.12-1.211 10.12.213 13.012.548 1.116 2.319.44 3.133 1.255.772.771.185 2.331 1.027 2.998.906.719 2.275-.01 2.998 1.07.604.906.046 2.11.842 2.906.766.766 2.68.333 3.133 1.255 1.34 2.72-.997 7.225.387 10.036.412.839 1.777.894 2.639.64 1.278-.376 1.007-2.024 1.007-3.098.002-3.392.286-7.203-.018-10.554-.213-2.343-2.433-1.092-3.493-2.439-.633-.805-.07-2.042-.842-2.814-.8-.8-1.98-.18-2.813-.842-.857-.679-.238-2.21-1.027-2.998-.8-.8-1.98-.181-2.813-.842-.988-.783-.514-3.61-.514-4.791 0-1.368-.664-5.516.742-6.207.722-.355 2.02-.312 2.585.136 1.042.825.474 3.385.518 4.791.023.716.022 1.504.553 2.047.684.7 2.046.302 2.77 1.026.794.796.184 2.33 1.026 2.998.87.69 1.981.01 2.813.842.79.79.17 2.319 1.027 2.998.911.723 2.647.124 3.317 1.108.577.845.188 1.723.113 2.741-.156 2.126.153 4.238-.05 6.4-.203 2.181.262 4.525.266 6.72.002.767-.15 1.762.33 2.367.418.528 1.214.566 1.892.464 2.325-.35 1.298-7.918 1.298-9.871v-8.96c0-1.118.315-2.775-.328-3.738-.65-.974-2.187-.402-2.863-1.255-.678-.857-.031-2.304-1.07-2.998-.952-.636-2.074.018-2.77-.842-.668-.822-.147-1.923-.949-2.814-1.344-1.492-3.407.138-3.2-2.747.035-.472.086-.954.494-1.277C41.491.368 43.711.844 45.07.853c.71.005 1.733-.116 2.232.513.821 1.038-.125 1.826.657 2.814.669.844 2.196.224 2.998 1.026.91.91.193 2.831 1.52 3.225 1.362.404 5.126.623 6.16-.411.77-.77.186-2.332 1.027-2.998.907-.72 2.274.013 2.998-1.07.57-.854.05-2.143.842-2.77C64.53.369 66.752.844 68.11.853c.71.005 1.733-.116 2.232.513 2.108 2.665-2.042 2.884-2.998 3.84-.623.623-.407 2.195-1.027 2.814-.872.872-1.866.09-2.813.842-.843.667-.255 2.226-1.027 2.998-.814.814-2.585.14-3.133 1.255-1.452 2.95-.194 9.375-.194 12.698 0 2.424-.016 4.946 0 7.36.007.965-.138 2.127 1.008 2.458.806.233 1.769.14 2.32-.411.808-.809.512-2.483.512-3.647v-10.24c0-1.288-.38-3.214.194-4.378.548-1.115 2.319-.44 3.133-1.255.764-.763.262-2.05 1.027-2.814.786-.786 2.322-.174 2.998-1.026.676-.854-.092-2.259.842-2.998.823-.652 2.001-.015 2.813-.658 1.224-.97-.661-10.265 3.92-7.022 1.245.882.754 5.848.753 7.351 0 1.078.281 2.828-.741 3.511-.917.612-2.092.029-2.905.842-.81.809-.118 2.279-1.027 2.998-.823.652-2.001.015-2.813.658-.89.704-.172 2.503-1.027 3.182-1.943 1.545-3.32.07-3.327 3.529-.006 3.081-.001 6.197 0 9.28 0 .934-.246 2.521.742 3.007 1.153.567 2.828.204 3.051-1.106.439-2.575-1.21-7.706.376-9.708.623-.786 2.53-.202 3.183-1.026.738-.932-.054-2.238.842-3.134.819-.82 2.391-.217 3.079-1.026.693-.815-.087-1.96.76-2.814 1.025-1.031 3.063-.052 3.546-1.812.993-3.616-1.314-10.05.295-13.32.371-.755 1.527-.868 2.319-.639 1.056.305 1.12 1.525 1.236 2.458.326 2.608.091 5.373.091 8 0 2.022.807 6.196-.328 7.898-.643.964-2.545.595-3.183 1.52-.649.943.018 2.056-.842 2.82-.722.64-2.357.232-2.998 1.07-.71.928-.008 1.985-.842 2.819-.781.782-2.61.132-3.318 1.026-.843 1.065-.671 6.44.413 6.974.89.437 2.289.296 2.905-.32.749-.748.162-2.313 1.027-2.998.891-.707 2.011-.04 2.813-.842.839-.839.114-1.896.842-2.814.696-.877 1.843-.223 2.77-.842.77-.514.616-2.648 1.255-3.273.829-.813 2.31-.27 2.998-1.3.684-1.026.328-2.865.328-4.058V8.853c0-2.325-1.066-9.854 3.099-7.807.835.41.735 1.537.741 2.367.016 2.318 0 4.714 0 7.04v12.48c0 1.242.463 3.607-.328 4.607-.733.925-2.128.152-2.998.842-.766.606-.328 2.3-1.027 2.998-.825.825-1.884.105-2.813.842-.839.664-.301 2.272-1.027 2.998-.877.877-5.295.938-2.998 3.84.814 1.027 5.945.893 6.838 0 .778-.777.176-2.324 1.027-2.998.925-.734 1.99-.02 2.813-.842.785-.785.191-2.83 1.52-3.225 1.162-.345 5.527-.621 6.345.411.672.849-.047 2.295.842 2.998.853.676 2.257-.092 2.998.842.654.826.018 2.004.657 2.814.711.9 2.746.33 3.318 1.562 1.574 3.388-2.206 2.116-3.318 3.612-.635.854.013 2.038-.842 2.735-.815.665-2.3.05-2.998 1.063-.618.897.069 2.382-.842 3.04-.775.56-5.137.425-6.16.094-1.25-.405-.702-2.614-1.52-3.264-.847-.673-2.244-.014-2.998-1.108-.591-.858-.171-2.404-1.07-3.004-1.147-.765-6.12-.908-6.745.365-1.793 3.642 2.247 2.58 3.318 3.931.73.922-.014 2.32.842 2.998.833.66 1.958-.047 2.679.842.734.906.2 1.984.948 2.814.567.63 2.988.527 3.346 1.255.668 1.356.193 3.427.193 5.018v11.84c0 1.468.49 4.244-.513 5.247-1.262 1.262-3.187.239-3.308-1.093-.3-3.294-.482-8.921-.326-12.474.063-1.427.83-3.423-.021-4.698-.718-1.076-2.116-.42-3.09-1.07-.954-.638-.387-2.137-1.07-2.999-.685-.864-2.25-.278-2.998-1.026-.825-.825-.106-1.885-.842-2.814-.622-.784-2.619-.41-3.183-1.255-.858-1.284-.125-3.938-2.87-3.266-1.688.413-1.993 6.043-.97 7.335.752.95 2.408.05 3.183 1.026.686.866.063 2.036.842 2.814.795.795 1.926.144 2.814.842.844.664.409 2.193 1.133 2.998.96 1.067 2.344.578 3.54 1.153-.633 2.14 0 8.016 0 11.2 0 1.384.262 3.357-1.3 3.733-1.059.255-2.104-.18-2.53-1.208-1.164-2.803.696-6.786-.524-9.492-.55-1.22-2.649-.701-3.318-1.546-.688-.87.112-2.243-.842-2.998-.923-.731-2.275.07-2.998-.842-.608-.768-.051-2.023-.842-2.814-.867-.867-2.292-.135-2.998-1.026-.478-.604-.327-1.601-.329-2.367-.004-2.144.457-5.301-.183-7.341-.4-1.278-2.422-1.961-3.463-1.02-1.142 1.032-.516 4.83-.514 6.441.003 1.757-.4 6.801.65 8.127.712.9 2.183.212 2.997 1.026.845.844.148 2.516 1.255 3.163.922.538 1.824.176 2.585.808.855.71.086 2.122 1.027 2.867.817.648 2.04.068 2.813.842 1.592 1.592.322 5.117.833 6.847-1.053.392-3.182 1.218-3.966-.417-.362-.754.027-1.873-.707-2.454-.897-.71-2.288.054-2.998-.842-1.436-1.813-.307-4.371-3.849-3.327-.365-1.237.098-2.774-.833-3.511-.799-.633-2.841-.044-3.225-1.336-1.31-4.412.371-10.932-.193-15.633-.18-1.497-1.14-4.524-3.235-2.871-.745.587-.513 2.027-.514 2.871v8.64c0 2.857-1.058 8.235.194 10.778.519 1.056 2.391.573 3.133 1.3.897.877.056 2.096.842 3.089.68.858 2.238.24 2.998.842.902.714.174 2.155.842 2.998.657.829 2.214.242 2.998 1.026 1.403 1.403.592 6.816.507 8.767-.114 2.628-1.924 1.518-3.32 2.835-.695.655-.315 2.02-1.027 2.732-.813.813-1.957.163-2.813.842-.9.713-.24 2.532-1.027 3.318-1.079 1.08-3.122.083-3.308 2.12-.405 4.454-.019 10.707-.019 15.353 0 1.795-.56 4.125.194 5.658.383.78 1.486.835 2.348.694 1.582-.258 1.298-1.894 1.298-3.152v-9.92c0-1.393-.551-5.227.514-6.071.913-.724 1.978-.006 2.813-.842.719-.718.236-2.372 1.027-2.998.916-.726 1.978-.006 2.813-.842.847-.847.102-2.199.842-3.134.657-.829 1.91-.282 2.77-.706 1.675-.826.042-3.94 2.975-3.593 2.14.253 2.211 5.583 1.413 7.204-.571 1.162-2.247.369-3.133 1.07-.973.771-.08 2.433-1.027 3.183-.858.68-2.318-.015-2.998.842-.697.88.003 2.28-1.07 2.998-1.114.744-2.759-.087-3.051 1.628-.514 3.015-.048 6.798-.048 9.901 0 1.163-.316 2.702.194 3.738.366.746 1.293.776 2.04.722 3.434-.247.65-8.742 1.8-11.078.533-1.085 2.632-.39 3.318-1.255.66-.834.041-2.014.842-2.814.786-.787 2.322-.173 2.998-1.026.699-.883-.102-2.25.842-2.998.87-.69 2.674-.103 3.318-1.07 1.391-2.093-.38-6.811.056-9.493.244-1.504 1.818-1.948 3.105-1.368 1 .45.988 1.381 1.006 2.322.033 1.75.001 3.674.001 5.44 0 1.704.746 5.908-.513 7.167-.814.814-2.283.125-2.998 1.026-.67.846-.045 2.314-1.07 2.998-.875.584-2.072-.002-2.905.658-.986.78-.055 2.412-1.027 3.182-.845.67-2.314.046-2.998 1.07-.947 1.42-.78 6.926.97 7.211 3.418.558 1.468-2.57 3.283-3.783.918-.613 2.09-.027 2.905-.842.772-.771.185-2.331 1.027-2.998.906-.719 2.275.01 2.998-1.07.537-.805.064-1.837.657-2.586.794-1.001 2.714-.137 3.318-1.52.958-2.193.193-6.188.193-8.593 0-2.257-1.664-10.806 2.222-9.817 1.876.478 1.298 3.524 1.298 5.017v12.16c0 1.516.458 3.653.036 5.073-.422 1.422-2.462.556-3.227 1.52-.635.801-.071 2.044-.842 2.814-.817.817-2.282.122-2.998 1.026-.741.936.006 2.287-.842 3.134-1.079 1.08-3.122.083-3.308 2.12-.18 1.98-.023 4.973-.019 7.033.002.766-.149 1.763.33 2.367.697.88 2.143.171 2.997 1.026.774.774.183 2.33 1.027 2.998.906.719 2.275-.01 2.998 1.07.566.848.014 2.113.842 2.77.837.666 2.372.199 2.998 1.108 1.428 2.075.328 7.485.328 10.101 0 3.093.006 6.187 0 9.28-.002 1.067.156 2.502-1.007 3.007-3.75 1.63-2.833-4.478-2.833-6.527v-8.96c0-1.038.296-2.218-.328-3.007-.677-.855-1.751-.204-2.77-.706-.801-.395-.55-2.76-1.255-3.318-.84-.666-2.287.056-2.998-.842-.676-.853.002-1.918-.657-2.905-.791-1.185-2.325-.284-3.318-1.07-1.14-.904-.649-5.152-3.612-3.183-.765.508-.725 1.432-.74 2.231-.024 1.266-.519 4.295.512 5.111.832.66 2.301-.037 2.998.842.72.91-.103 2.556 1.07 3.134 1.086.534 2.007-.19 2.905.522.792.626.199 2.204 1.027 2.862.895.712 2.334.144 2.998 1.108 1.152 1.674.328 5.441.328 7.541 0 1.65.71 5.624-.513 6.847-.842.843-2.88.67-3.225-.494-.815-2.748 1.18-7.357-.43-9.771-.737-1.104-2.387-.333-3.318-1.07-.928-.735-.161-2.427-1.027-3.274-.78-.764-2.001-.242-2.813-.887-.943-.749-.085-2.421-1.255-2.998-.986-.486-2.082.162-2.77-.706-.478-.604-.327-1.601-.329-2.367-.004-2.057 1.114-10.828-3.098-8.767-1.462.716-.742 5.988-.742 7.487 0 2.184-.727 5.388.194 7.258.306.623 2.968.813 3.318 1.255.82 1.036-.122 1.83.657 2.814.723.912 2.075.11 2.998.842.935.74.166 2.144.842 2.998.674.85 2.215.243 2.998 1.026 1.263 1.263.497 6.773-.494 7.065-3.038.895-1.96-2.33-3.574-3.41-.823-.548-2.105-.002-2.77-.841-.647-.817-.068-2.04-.842-2.814-.814-.814-2.283-.125-2.998-1.026-.675-.852-.036-2.307-1.07-2.998-.84-.561-2.121-.024-2.77-.842-.627-.792-.329-2.353-.329-3.327v-9.28c0-2.14.695-7.878-3.152-6.207-2.16.938-.697 7.163-.688 9.087.016 3.307 0 6.613 0 9.92 0 1.017-.33 2.815.33 3.647.71.898 2.185.214 2.997 1.026.774.773.195 1.997.842 2.814.722.91 2.188.216 2.998 1.026.77.77.208 2.013.842 2.814 1.072 1.352 3.756.295 3.451 3.067-.178 1.624-5.457 2.583-7.106 1.277-.93-.737-.166-2.457-1.027-3.318-.863-.863-2.577-.092-3.318-1.026-.748-.944.012-2.545-1.336-3.134-1.279-.558-5.158-.616-6.16.365-.81.794-.124 2.239-1.026 2.953-.883.7-2.289.01-2.998 1.07-.631.947.037 2.029-.657 2.906-1.064 1.342-3.606-.192-3.487 2.433.126 2.757 2.278.907 3.487 2.433.655.827.016 2.004.657 2.814.684.863 2.18.194 2.998.842.889.703.27 2.18 1.071 2.998.985 1.006 4.807.778 6.144.411 1.693-.465.793-2.172 1.627-3.225.675-.85 2.258-.286 2.998-1.026.737-.737.181-2.329 1.027-2.998 1.045-.828 3.604-.352 4.926-.327.755.014 1.64-.092 2.047.74.428.873.295 1.97-.32 2.585-.741.742-2.323.175-2.998 1.026-.697.88-.012 2.292-1.07 2.998-.838.56-1.797.033-2.585.658-.863.684-.165 2.5-1.027 3.182-.889.704-2.555-.104-3.133 1.07-.608 1.236-.194 3.33-.194 4.699v11.2c0 2.656-.018 5.348 0 8 .007.956-.106 2.13 1.008 2.458 4.212 1.241 2.832-6.985 2.832-9.498v-9.28c0-1.118-.314-2.775.33-3.738.67-1.004 2.196-.453 2.997-1.255.754-.753.356-2.397 1.255-2.998.916-.612 2.063.05 2.77-.842.676-.854-.092-2.259.842-2.998.847-.671 2.277.068 2.998-.842 1.156-1.46-.004-4.158 3.161-3.225 1.387.408 1.577 5.93.679 7.065-.674.85-2.215.243-2.998 1.026-.774.774-.196 1.996-.842 2.814-.701.886-2.184.34-2.998 1.108-.898.846-.122 2.142-.842 3.052-.7.883-2.77.139-3.318 1.255-1.134 2.303-.194 7.225-.194 9.818 0 1.677-.614 7.627 1.062 8.447.928.454 2.372.21 2.677-.814 1.115-3.757-.91-9.595.203-13.346.422-1.422 2.686-.607 3.41-1.52.78-.985-.164-1.777.657-2.814.509-.642 2.662-.37 3.318-1.026.838-.838.123-1.892.842-2.815.586-.752 2.599-.51 3.183-1.303 1.557-2.114-.064-7.167.376-9.75.223-1.31 1.947-1.706 3.05-.97 1.67 1.113.742 7.373.742 9.271 0 1.378.525 4.207-.513 5.247-.799.801-2.34.336-2.998 1.292-.61.885-.153 2.44-1.07 3.052-.961.641-2.33-.116-3.09.842-.696.88.03 1.946-.657 2.814-.908 1.145-3.156.003-3.464 1.812-.32 1.877-.803 8.638.786 9.892 4.26 3.362 2.799-6.197 3.84-7.022.853-.676 2.004-.033 2.813-.842.781-.781.213-2.353 1.027-2.998.914-.725 1.977-.006 2.813-.842.84-.84.114-1.895.842-2.814.525-.662 2.693-.52 3.183-1.255.728-1.09.328-2.705.328-4.058v-10.24c0-1.988-.245-5.624 2.833-4.287 1.93.839 1.007 7.498 1.007 9.407v9.6c0 1.188.31 2.463-.328 3.418-.605.907-2.191.43-2.998 1.07-.951.754-.14 2.112-.842 2.999-.727.917-2.112.14-2.998.842-.842.666-.256 2.227-1.027 2.998-1.01 1.01-5.277.961-2.998 3.84.445.56 1.253.5 1.912.512 1.33.025 3.932.482 4.926-.512.772-.772.205-2.01.842-2.814.737-.929 2.208-.236 2.998-1.026.82-.82.11-1.89.842-2.814.754-.95 5.497-.867 6.61-.32 1.174.578.367 2.246 1.07 3.134.705.889 2.149.169 2.998.842.935.74.166 2.144.842 2.998.785.99 5.456.847 6.664.32 4.001-1.747-2.132-3.692-2.504-4.16-.635-.801-.071-2.044-.842-2.814-.89-.89-2.206-.107-3.133-.842-.933-.739-.072-2.425-1.027-3.182-.8-.635-2.041-.039-2.678-.842-.567-.717-.328-2.052-.329-3.007 0-3.003-.32-5.964-.32-8.96 0-2.141-1.185-10.726 1.606-10.855 2.562-.118 2.234 2.27 2.234 4.135 0 4.338-.367 9.51.02 13.754.203 2.234 2.444.998 3.627 1.935.704.557.398 2.684 1.027 3.182.914.725 2.329-.002 2.998.842.736.93-.147 2.215.842 2.998.902.716 2.28-.004 2.998 1.07 1.257 1.885-1.308 7.447 2.563 6.89 2.293-.33 2.341-8.842 1.412-10.73-.361-.734-2.792-.59-3.318-1.254-.783-.99.166-1.775-.657-2.814-.682-.86-2.074-.11-2.998-.842-.789-.624-.241-2.188-.842-3.09-.724-1.084-2.434-.312-3.183-1.254-1.262-1.59-.648-5.851-.648-7.807 0-1.434-.694-6.141.741-6.847 4.142-2.035 3.414 6.245 3.419 8.447.002.726-.15 1.763.328 2.367.713.9 2.184.212 2.998 1.026.838.838.177 1.972.842 2.877.638.867 2.22.19 2.998.963.899.892.105 2.203.842 3.134.7.883 2.77.139 3.318 1.255 1.679 3.41-.406 9.523.24 13.32.23 1.345 2.242 1.792 3.28.97 1.362-1.08.514-6.36.514-7.992 0-2.809.921-7.64-.194-10.193-.633-1.45-2.483-.466-3.318-1.52-.63-.796-.027-2.018-.657-2.814-.738-.932-2.14-.162-2.998-.842-.838-.663-.258-2.23-1.027-2.998-.808-.809-1.96-.166-2.813-.842-.914-.724-.922-6.292 0-7.022 2.775-2.196 2.927 2.079 3.655 2.998.708.893 2.132.16 2.998 1.026.773.773.215 2.022.842 2.814.723.912 2.123.148 2.998.842.935.74.166 2.144.842 2.998.735.928 2.744.205 3.318 1.52.64 1.463.194 3.802.194 5.393v12.8c0 1.656.34 6.196 3.326 3.831 1.546-1.224.514-8.01.514-9.911v-11.52c0-1.336.435-3.553-.33-4.698-.702-1.053-2.123-.377-2.997-1.07-.857-.68-.238-2.21-1.027-2.999s-2.319-.169-2.998-1.026c-.769-.971.124-2.232-.842-2.998-2.105-1.67-3.32-.139-3.326-3.849-.003-1.829-.812-6.367.328-7.807.759-.958 2.443-.151 3.183-1.255.538-.803.158-1.901.842-2.585.835-.834 2.272-.11 2.998-1.026.653-.825.005-1.99.657-2.814.92-1.162 3.26.067 3.725-1.812.365-1.473-.213-3.542-.213-5.101v-12.16c0-1.844.674-4.788-1.92-4.788-3.302 0-1.92 9.352-1.92 11.828 0 1.94.657 5.209-.194 6.938-.566 1.152-2.57.313-3.318 1.255-.593.75-.12 1.781-.657 2.585-.722 1.081-2.092.352-2.998 1.07-.842.668-.255 2.228-1.027 2.999-.744.745-1.707.272-2.585.706-1.787.884-.035 4.086-3.283 3.598-1.741-.261-1.952-5.878-.97-7.118.713-.9 2.184-.212 2.998-1.026.773-.772.205-2.01.842-2.814.74-.932 2.204-.232 2.998-1.026.836-.836.116-1.898.842-2.814.622-.785 2.287-.314 2.998-1.026 1.246-1.246.514-5.641.514-7.487 0-1.685.774-6.713-1.008-7.487-1.335-.58-2.68-.05-2.814 1.413-.237 2.607.936 7.16-.212 9.492-.553 1.124-2.273.39-3.133 1.07-.865.685-.23 1.853-.842 2.77-.635.95-2.14.39-2.998 1.07-.786.624-.314 2.286-1.027 2.999-.803.803-2.606.188-3.318 1.255-1.374 2.06 2.293 12.16-2.841 10.676-1.243-.36-1.053-2.047-1.192-3.098-.427-3.246-.273-6.979-.13-10.238.122-2.742 2.407-1.029 3.55-2.435.794-.976-.211-1.77.613-2.814.653-.826 2.135-.205 3.09-.842.763-.509.613-2.631 1.255-3.236.824-.778 1.998-.286 2.813-1.108.998-1.006.935-6.063-.228-6.838-3.19-2.127-2.577 2.58-4.106 3.33-.856.42-1.92.218-2.504 1.002-.619.832-.094 2.033-1.07 2.69-.917.618-2.38.141-3.09 1.133-.654.916.03 1.974-.657 2.843-.618.78-2.864.332-3.318 1.255-1.112 2.26-.193 6.893-.193 9.498 0 2.224 1.218 9.04-1.92 8.972-2.695-.059-1.92-3.916-1.92-5.772v-12.16c0-1.315-.441-3.544.328-4.661.753-1.093 2.103-.715 3.192-.459.359-1.215-.1-2.714.833-3.647.808-.808 2.278-.118 2.998-1.026.67-.847-.069-2.277.842-2.998.823-.652 2.002-.015 2.813-.658.683-.54.723-2.318.185-2.998-.765-.965-5.904-.924-6.838-.184-.969.767-.084 2.436-1.027 3.182-.853.676-2.257-.092-2.998.842-.776.98.169 2.779-1.336 3.225-1.253.372-5.517.632-6.344-.411-.636-.802-.07-2.042-.842-2.814-.858-.858-2.295-.14-2.998-1.026-.59-.746-.085-1.728-.657-2.585-.74-1.109-2.466-.35-3.183-1.255-.457-.578-.456-1.542-.227-2.32.316-1.07 2.893-.975 3.41-1.749.639-.957-.02-2.028.842-2.797.816-.73 2.357-.192 2.998-1.071.656-.9-.031-2.007.657-2.877.801-1.01 5.185-.826 6.344-.32 1.284.56.665 2.276 1.52 3.134.789.79 2.325.313 2.999 1.292.633.92-.06 2.339.842 3.052 1.041.825 3.608.352 4.927.328.937-.018 1.926.009 2.366-1.006.373-.859.348-1.975-.32-2.504-.815-.646-2.28-.041-3.002-1.07-.647-.924-.347-2.418-1.382-3.09-.833-.541-1.821-.102-2.545-.842-.796-.814-.173-2.287-1.07-2.998-.883-.699-2.291-.01-2.999-1.07-.643-.964-.328-2.62-.328-3.739v-9.28c0-1.945-.997-8.94 1.298-9.493 3.736-.9 2.542 6.377 2.542 8.533 0 2.707-.986 7.742.193 10.138.507 1.031 2.703.565 3.453 1.3.758.741.184 1.938.842 2.769.74.933 2.192.281 2.998 1.07.85.833.15 2.216.842 3.09.765.965 1.694.176 2.77.706 1.169.576.736 5.067 3.84 2.998 1.16-.773 1.23-5.837.228-6.838-.798-.798-1.98-.182-2.813-.842-.855-.677-.24-2.211-1.027-2.998-.808-.809-1.96-.165-2.813-.842-.842-.667-.255-2.227-1.027-2.998-.808-.809-1.96-.166-2.813-.842-1.035-.82-.488-3.885-.518-5.111-.05-2.038-1.643-9.488.983-10.134.808-.198 1.787-.041 2.348.489.664.625.512 1.702.514 2.605.005 2.345-.79 5.901.193 7.898.422.858 2.448.57 3.133 1.255.8.8.182 1.98.842 2.814.716.903 2.182.21 2.998 1.026.77.77.207 2.013.842 2.814.743.937 2.466.182 3.183 1.255 1.459 2.186-.05 6.932.376 9.487.231 1.386 1.892 1.673 3.05 1.098 1.44-.714.743-5.697.743-7.167 0-1.758.781-6.192-.514-7.487-.786-.786-2.32-.171-2.998-1.026-.761-.962.111-2.243-.842-2.998-.985-.78-1.777.163-2.813-.658-.635-.503-.315-2.619-1.027-3.182-.84-.665-2.288.054-2.998-.842-.479-.605-.327-1.6-.328-2.367-.004-1.504-.888-4.457.978-4.98 3.098-.868 1.651 2.703 3.283 3.507.927.457 2.113-.086 2.905.706.872.871.08 2.568 1.027 3.318.787.624 2.41.1 2.998.842.777.981-.145 1.8.657 2.814.583.736 2.675.385 3.183 1.026 1.391 1.757.329 7.078.329 9.407 0 2.691-.778 6.538.5 8.858.42.762 1.448.884 2.36.64 1.293-.346 1.277-1.337 1.298-2.458.043-2.259.001-4.758.001-7.04 0-3.109-.243-6.191-.303-9.28-.022-1.18.65-2.699-.027-3.738-.722-1.109-2.39-.337-3.317-1.07-.934-.741-.163-2.455-1.026-3.319-.808-.808-1.961-.166-2.814-.842-.806-.64-.294-1.95-.842-2.77-1.087-1.626-4.258-.11-3.409-3.282.484-1.81 5.807-1.89 7.065-.704.879.828.1 2.503 1.026 3.236.865.685 2.684.042 3.318.842.667.842-.04 2.268 1.07 2.814 1.214.597 5.478.627 6.426-.32.69-.69.303-2.106 1.026-2.678.87-.689 2.266.082 2.998-.842.709-.895-.066-2.22.658-3.134 1.243-1.57 3.714.356 3.49-2.747-.162-2.268-2.074-.96-3.306-1.935-.928-.735-.134-2.476-1.026-3.182-.864-.685-2.243.017-3.052-.842-.856-.907-.388-3.023-1.894-3.28-1.315-.224-5.216-.59-6.052.466-.703.887.077 2.27-.842 2.998-.833.66-2.301-.037-2.998.842-.702.886.075 2.272-.842 2.998-.92.729-6.056.803-6.838-.184-2.457-3.102 2.384-2.832 3.182-3.84.7-.883-.1-2.251.842-2.998.819-.648 2.313.022 2.998-.842.734-.927-.046-2.245.842-3.134.845-.845 2.549-.065 3.134-1.255 1.452-2.95.193-9.402.193-12.698 0-1.772.897-8.937-1.007-9.498-4.077-1.201-2.833 5.496-2.833 7.898v8c0 .902.253 2.272-.329 3.007-.685.865-2.177.192-2.998.842-.86.682-.188 2.184-1.026 2.863-.873.708-2.305.214-2.998 1.149-.692.933-.013 1.997-.842 2.826-.826.825-1.885.105-2.814.842-.841.667-.296 2.268-1.026 2.998-.576.576-1.477.655-2.32.411-1.269-.367-1.005-1.703-1.007-2.778-.003-1.269-.402-3.675.513-4.5.833-.75 1.994-.297 2.814-1.132.727-.74.322-2.317 1.255-2.827.993-.544 1.77-.054 2.585-.773.88-.776.114-2.136.842-3.055.798-1.007 2.779-.048 3.474-1.255.856-1.487.037-5.475.037-7.258 0-1.516.744-6.036-.513-7.031-.883-.7-2.898-.425-3.225.678-.806 2.714 1.169 7.374-.43 9.771-.718 1.075-2.096.355-2.999 1.07-.841.668-.255 2.228-1.026 2.999-.809.809-1.96.165-2.814.842-.9.714-.226 2.544-1.026 3.313-.764.735-2.587-.154-3.134.941-1.546 3.091 1.366 7.527-.522 10.355-.5.75-1.82 1.007-2.77.549-.87-.42-.92-1.53-1.006-2.367-.187-1.829-.055-3.905-.055-5.76 0-1.65-.71-5.624.513-6.847.85-.85 2.284-.176 3.134-1.026.778-.778.175-2.323 1.026-2.998.926-.734 1.99-.019 2.814-.842.835-.836.116-1.898.842-2.814.525-.662 2.692-.52 3.182-1.255.8-1.197.356-3.172.328-4.698-.017-.897.022-1.835-1.006-2.138-3.093-.911-2.029 1.908-3.346 3.225-.718.718-2.372.236-2.998 1.026-.68.859-.12 2.364-1.07 2.998-.952.635-2.44.022-3.09.842-.759.958.108 1.848-.658 2.814-.636.803-2.885.376-3.318 1.255-1.042 2.117.127 6.085.127 8.538 0 2.431.016 4.936 0 7.36-.006.82.088 1.766-.513 2.367-.571.571-1.513.601-2.348.465-1.948-.317-1.299-3.562-1.299-5.072v-11.84c0-1.642-.361-3.832.102-5.393.439-1.478 2.632-.54 3.41-1.52.8-1.011-.12-1.833.657-2.814.587-.741 2.21-.218 2.998-.842.922-.73.155-2.102.842-3.003.703-.922 2.473-.427 3.182-1.34 1.222-1.572.365-6.774.328-8.768-.057-2.967-1.936-1.17-3.19-2.753-.636-.803-.07-2.042-.842-2.814-.86-.859-2.295-.139-2.998-1.026-.665-.84.057-2.286-.842-2.998-.84-.665-2.288.054-2.998-.842-.713-.9-.329-3.049-.329-4.287 0-4.07-.32-8.09-.32-12.16 0-2.521-.16-5.173.029-7.68.057-.754.146-1.754.791-2.231 3.76-2.782 3.02 5.088 3.02 6.711 0 4.166-.129 8.336.266 12.48.1 1.06-.242 2.538.383 3.327.71.896 2.158.177 2.998.842.903.716.173 2.154.842 2.998.621.784 2.215.209 2.862 1.026.697.88-.029 1.947.658 2.814.715.903 2.157.22 3.09.842 1.494.998.456 4.98 3.84 3.318 1.053-.518 1.304-6.305.228-7.158-.818-.648-2.314.022-2.998-.842-.7-.883.102-2.25-.842-2.998-.902-.715-2.283.06-2.998-.842-.68-.86.01-2.249-.842-3.052-.747-.705-2.621-.294-3.134-1.337-1.15-2.34-.193-7.193-.193-9.818 0-1.613-.811-7.687.742-8.447 2.838-1.39 2.727 2.173 2.962 3.967.33 2.517.136 5.144.136 7.68 0 .879-.245 2.283.329 3.007.713.9 2.184.212 2.998 1.026.8.8.18 1.978.842 2.814.663.838 2.243.396 2.998 1.108.704.663.38 2.406 1.026 3.052.747.747 2.705.384 3.134 1.255 1.274 2.588-.945 7.332.386 10.036.44.893 2.09.929 2.96.549 1.942-.847.708-5.178.688-6.847-.022-1.88.864-6.747-.514-8.127-.733-.733-2.031-.212-2.678-1.026-.646-.813-.187-2.07-1.07-2.814-.98-.824-2.358-.102-3.09-1.026-.609-.768-.052-2.024-.842-2.814-.8-.8-2.605-.18-3.134-1.255-.973-1.977-.208-5.988-.193-8.218.006-.811-.117-1.946.742-2.367 4.554-2.229 2.279 5.524 3.427 6.974.72.91 2.124.15 2.998.842.972.77.08 2.432 1.026 3.182.837.664 1.998.068 2.827.842.897.839.52 2.576 1.561 3.27.809.538 2.108.147 2.586 1.119.536 1.09.193 2.856.193 4.058v9.92c0 2.237-.268 5.231 2.861 4.378 1.898-.517 1.299-4.247 1.299-5.658 0-1.044.005-1.697 0-2.88-.005-1.056-.102-1.81-.229-2.88-.275-2.337.1-4.984-.062-7.36-.077-1.115.363-3.057-.358-3.967-.672-.849-1.912-.27-2.77-.842-1.061-.709-.37-2.115-1.07-2.998-.72-.91-2.188-.217-2.998-1.026-.807-.807-.166-1.962-.842-2.814-1.238-1.562-3.715.366-3.49-2.747.04-.578.149-1.132.72-1.413 1.072-.527 5.814-.685 6.61.32.674.85-.048 2.293.842 2.998.91.72 2.272-.02 3.134.842.766.766.333 2.68 1.255 3.134 1.494.735 5.453.652 6.425-.32.747-.747.163-2.314 1.026-2.998.857-.68 2.367-.125 2.998-1.07.613-.918-.095-2.028.842-2.77.991-.785 3.369-.337 4.607-.329.709.005 1.733-.116 2.231.513 2.278 2.88-2.36 2.804-3.182 3.84-.726.916-.007 1.98-.842 2.814-.779.779-1.948.155-2.814.842-.937.743-.164 2.142-.842 2.998-.718.907-2.735.105-3.32 1.255-1.672 3.293-.235 9.12-.192 12.698.023 1.966-1.04 9.49 1.3 9.872.702.115 1.743.127 2.212-.465.582-.735.329-2.105.329-3.007v-8.32c0-1.532-.727-6.369.513-7.351.887-.703 2.27.077 2.998-.842.66-.833-.037-2.302.842-2.998.878-.696 1.948.028 2.814-.658.829-.657.234-2.555 1.026-3.182.867-.687 2.268.08 2.998-.842 1.51-1.906-1.507-7.155 2.249-7.155 2.71 0 2.745 8.697 1.727 10.766-.533 1.084-2.636.394-3.318 1.255-.704.888.078 2.269-.842 2.998-.912.723-2.296.02-2.998 1.07-.55.825-.013 2.112-.842 2.77-.857.68-2.355.097-2.998.88-.444.54-.324 1.313-.329 2.009-.013 1.849 0 3.892 0 5.76 0 1.469-.67 6.473.742 7.167 1.153.567 2.827.204 3.05-1.106.436-2.556-1.123-7.583.377-9.762.687-1 2.5-.43 3.182-1.292.661-.834.042-2.014.842-2.814s1.98-.182 2.814-.842.358-2.202 1.108-2.998c1.068-1.134 2.348-.567 3.565-1.153-.655-2.216-.32-6.685-.32-9.92 0-1.398-.39-2.873.193-4.058.371-.754 2.313-1.063 3.134-.413 1.325 1.05.513 6.06.513 7.671 0 2.738 1.179 8.086-.151 10.458-.556.992-1.77.496-2.627 1.07-.912.612-.494 2.238-1.255 2.999-.86.859-2.276.169-3.134 1.026-.763.763-.302 2.745-1.026 3.318-.927.734-2.218-.142-2.998.842-1.447 1.826-.669 7.328 1.91 7.147 2.366-.167.941-2.442 2.405-3.491.954-.684 2.007-.006 2.843-.842.718-.718.236-2.372 1.026-2.998.916-.726 1.979-.007 2.814-.842.847-.847.1-2.198.842-3.134.793-1.001 2.72-.133 3.318-1.52.969-2.249-.006-6.76-.114-9.233-.13-2.976-.013-5.981-.013-8.96 0-.966-.302-2.53.329-3.327.538-.679 1.743-.598 2.532-.466 1.756.296 1.084 4.316 1.245 6.033.471 5.037.054 10.3.054 15.36 0 1.468.49 4.244-.513 5.247-.835.835-1.898.116-2.814.842-.79.626-.308 2.28-1.026 2.998-.851.85-2.267.131-3.13.842-.881.727.137 2.112-.715 2.998-.646.672-5.839 1.624-2.809 4.024 1.035.82 5.752.718 6.654-.184.77-.77.185-2.332 1.026-2.998.854-.677 2.005-.033 2.814-.842.749-.749.304-2.666 1.255-3.134 1.088-.535 5.786-.719 6.61.32.67.847-.07 2.277.841 2.998.847.671 2.277-.068 2.998.842.654.826.017 2.005.658 2.814.742.937 2.738.19 3.318 1.52 1.54 3.532-2.16 2.204-3.318 3.666-.696.878.028 1.948-.658 2.814-.685.864-2.18.194-2.998.842-.936.742-.507 2.408-.833 3.511-1.957-.579-5.231.63-6.847-.649-.956-.757-.154-1.795-.842-2.68-.599-.769-2.177-.44-2.998-1.147-.834-.719-.238-2.223-1.026-3.01-.969-.97-6.005-.97-6.974 0-2.877 2.877 2.264 2.933 3 3.84.688.848.195 2.29 1.148 2.997.946.704 1.996.074 2.826.887.65.636.395 2.773 1.026 3.273.91.722 2.334.004 2.998.842.724.914.329 2.448.329 3.647v10.24c0 2.076.037 4.345-.001 6.4-.021 1.121-.005 2.112-1.297 2.458-.816.218-1.727.202-2.213-.411-1.024-1.293-.32-5.376-.329-7.167-.013-2.667-.32-5.318-.32-8 0-.931.292-2.543-.328-3.327-.746-.941-2.17-.152-2.863-1.026-.659-.832.05-2.292-.842-2.998-.914-.724-2.15.121-3.133-.658-.92-.728-.143-2.109-.842-2.998-.707-.9-2.194-.682-3.192-.513-.365-1.237.09-3.066-1.061-3.831-3.52-2.34-3.766 5.18-2.905 6.93.533 1.083 2.635.393 3.318 1.254.703.888-.078 2.27.842 2.998.88.698 2.289.01 2.998 1.07.561.842.023 2.121.842 2.77 1.115.884 3.048-.182 3.545 1.628.797 2.901.101 7.172.101 10.221 0 1.188.31 2.463-.328 3.418-.471.706-1.388.816-2.214.693-1.566-.232-1.578-1.51-1.613-2.831-.056-2.132.739-5.996-.198-7.898-.499-1.015-2.427-.549-3.133-1.255-.87-.87.005-2.501-1.027-3.318-.826-.655-2.005-.017-2.813-.658-.88-.696-.224-2.491-1.255-3.182-.87-.583-2.126-.106-2.77-1.07-1.286-1.928-.146-6.955-.347-9.173-.14-1.544-1.502-2.26-2.814-1.728-1.124.455-1 1.673-1.007 2.682-.018 2.532 0 5.141 0 7.68 0 1.18-.475 4.008.513 4.791.833.66 2.013.042 2.813.842.81.81.207 2.28 1.027 3.052.81.764 2.32.253 2.998 1.108.73.922.074 1.985.886 2.814.738.754 1.944.188 2.77.842.975.774.94 5.883.184 6.838-.696.878-2.627.484-3.09-.229-.596-.916-.014-2.041-.935-2.77-.839-.662-2.055-.083-2.813-.841-1.654-1.654-.47-4.377-4.034-3.327-.396-1.34.156-2.711-.833-3.512-1.02-.827-2.96-.064-3.28-1.946-.648-3.827-.047-8.259-.047-12.142 0-1.622.458-3.632-.193-5.03-.45-.968-2.185-1.228-3.225-.591-1.632 1-.742 7.021-.742 8.821 0 3.091.086 6.19.045 9.28-.017 1.237-.386 2.98.333 4.058.722 1.083 2.408.394 3.27 1.255.888.89.107 2.207.841 3.134.676.853 2.212.24 2.998 1.026.8.8.181 1.98.842 2.814.89 1.123 3.14-.091 3.464 1.812.379 2.222.048 5.06.047 7.341 0 .816.2 2.02-.328 2.687-.718.906-2.139.161-2.998.842-.932.738-.233 2.205-1.027 2.998-.755.755-1.98.18-2.813.842-.958.76-.09 2.44-1.027 3.182-.854.677-2.322-.01-2.998.842-.802 1.014-.329 3.3-.329 4.607v12.8c0 1.194-.562 4.286.742 4.927 4.03 1.98 3.098-4.516 3.098-6.527v-8.64c0-.95-.289-2.547.33-3.327.731-.924 2.21-.24 2.997-1.026.79-.79.097-2.262 1.027-2.998.822-.651 2.31.025 2.998-.842.699-.883-.102-2.251.842-2.998.818-.648 2.313.022 2.998-.842 1.086-1.372-.107-3.499 2.563-3.307 2.13.153 1.61 2.677 1.605 4.46-.002.922.148 2.026-.513 2.687-.754.755-1.98.181-2.813.842-.958.759-.09 2.44-1.027 3.182-.824.653-1.989.005-2.813.658-.943.747-.144 2.116-.842 2.998-.704.889-2.15.17-2.998.842-1.33 1.054-.514 6.085-.514 7.671 0 1.534-.82 6.72 1.008 7.258 5.105 1.504 1.736-8.056 3.026-10.676.578-1.175 2.244-.367 3.133-1.07.82-.65.28-1.93.842-2.77.709-1.061 2.119-.373 2.998-1.07.92-.73.14-2.111.842-2.999.683-.862 2.5-.165 3.183-1.026 1.56-1.97-.036-7.235.376-9.713.24-1.447 1.83-1.777 3.05-1.113 1.48.803.742 5.65.742 7.179 0 1.595.76 6.662-.513 7.671-.853.676-2.258-.092-2.998.842-.673.85.047 2.294-.842 2.998-.833.66-1.968-.012-2.813.658-.982.777-.106 2.452-1.027 3.182-.722.572-2.02.012-2.678.842-.784.99-.754 5.699 0 6.654.638.807 1.826.583 2.871.833.36-1.215-.1-2.713.834-3.647.796-.797 2.345-.17 3.042-1.026.707-.87-.048-2.236 1.026-2.95.908-.602 2.132-.051 2.905-.853.79-.818.178-2.013.842-2.85.879-1.11 2.927-.056 3.41-1.813.974-3.548-.219-9.31-.219-13.101 0-1.237-.433-3.721.514-4.471 1.135-.9 3.39-.254 3.6.97.26 1.526.046 3.774.046 5.421 0 4.345 1.022 10.93-.101 15.021-.429 1.561-2.235 1.027-3.225 1.92-.71.638-.316 1.996-1.027 2.706-.813.813-1.957.163-2.813.842-.9.713-.24 2.532-1.027 3.318-.833.834-3.162.418-3.545 1.812-.539 1.962-.828 7.712.32 9.48.718 1.105 2.294.352 3.144 1.254.764.81.256 2.325 1.108 2.998.904.715 2.28-.005 2.998 1.07.577.866.025 2.063.842 2.799.77.694 2.433.415 2.998 1.133.622.792.328 1.966.328 3.007v16.32c0 .854.227 2.286-.513 2.871-1.024.811-3.046.398-3.28-.97-.685-4.024-.047-8.696-.047-12.781 0-1.41.525-3.53-.328-4.607-.664-.838-2.088-.12-2.998-.842-.635-.503-.322-2.612-1.027-3.183-1.132-.918-1.808-.53-3.007-.328-.388-1.303.079-2.561-1.124-3.647-.806-.728-2.075-.259-2.842-1.026-.8-.8-.248-2.329-1.255-2.998-3.723-2.474-3.42 5.24-2.585 6.93.31.627 2.638.8 2.998 1.254.827 1.045-.107 1.865.842 2.814.804.804 1.921.19 2.868.842 1.023.705.47 2.195 1.107 2.998.619.778 2.22.215 2.863 1.026 1.044 1.319.648 5.782.648 7.487.001 1.915.93 6.946-1.605 7.311-4.537.653-1.623-8.444-2.748-10.73-.561-1.14-2.267-.383-3.133-1.07-1.013-.802-.11-2.028-.842-3.01-.485-.65-2.363-.468-2.863-1.041-.685-.787-.002-1.947-.842-2.787-.878-.878-2.59-.106-3.318-1.026-.478-.604-.327-1.601-.329-2.367-.005-2.254.49-5.51-.101-7.661-.329-1.196-2.183-1.795-3.225-.97-1.21.957-.514 5.544-.514 7.031 0 2.094-.723 5.715.194 7.578.436.887 2.839.65 3.318 1.255.822 1.039-.126 1.825.657 2.814.713.9 2.159.178 2.998.842.865.683.29 2.129 1.108 2.998.686.728 1.709.309 2.504.842 1.215.815 1.121 6.607 0 7.158-3.275 1.61-2.33-2.31-3.84-3.318-.949-.634-2.083.025-2.77-.842-.609-.768-.051-2.024-.842-2.814-.797-.797-2.313-.163-2.998-1.026-.699-.882-.007-2.287-1.07-2.998-.946-.632-2.086.021-2.77-.842-.71-.897-.329-3.052-.329-4.287 0-4.036.075-8.13 0-12.16-.032-1.659-1.517-3.663-3.326-2.231-1.36 1.076-.513 6.92-.513 8.631v9.92c0 1.294-.347 2.642.193 3.738.463.94 2.36.481 3.134 1.255.791.791.232 2.045.842 2.814.687.867 1.82.208 2.77.842 1.063.71.37 2.116 1.07 2.998 1.104 1.393 4.713.454 3.318 3.666-.4.92-1.203.964-2.047 1-1.32.058-3.89.5-4.927-.322-.861-.682-.24-2.186-.842-3.09-.723-1.082-2.09-.35-2.998-1.07-.822-.651-.441-2.785-1.52-3.273-1.16-.525-5.778-.844-6.664.275-.671.847.068 2.277-.842 2.998-.862.682-2.277-.068-2.998.842-.76.958.004 1.913-.658 2.905-.848 1.271-3.334.166-3.49 2.348-.043.59-.06 1.258.308 1.72.757.957 2.365-.004 3.182 1.027.654.826.017 2.005.658 2.814.704.888 2.148.17 2.998.842.934.74.166 2.144.842 2.998.66.833 2.538.513 3.51.513 1.08 0 3.17.351 3.803-.742.525-.906-.23-2.083.78-2.77.997-.675 2.074-.01 2.905-.841.695-.695.267-2.648 1.255-3.134 1.303-.641 5.495-.6 6.425.136.663.525.705 1.987.184 2.77-.711 1.066-2.112.367-2.998 1.07-.97.77-.081 2.434-1.026 3.182-.887.703-2.245-.108-2.998.842-.643.81-.16 2.39-1.07 2.998-.992.662-1.997-.067-2.906.842-1.077 1.077-.513 4.134-.513 5.567 0 5.13.32 10.222.32 15.36 0 1.724-.826 5.623 1.606 5.735 3.596.166 2.234-7.751 2.234-10.215v-9.28c0-.95-.288-2.548.329-3.327.745-.94 2.117-.144 2.998-.842.864-.685.193-2.18.842-2.998.761-.961 2.44-.148 3.182-1.255.538-.803.158-1.901.842-2.585.813-.813 1.983-.195 2.814-1.026 1.21-1.21.291-4.46 3.346-3.134 1.336.58 1.608 5.8.678 6.974-.704.889-2.149.17-2.998.842-.972.77-.08 2.432-1.026 3.182-.834.66-2.014.042-2.814.842-.795.794-.258 2.332-1.255 2.998-.877.586-2.357-.044-2.905 1.07-.977 1.986-.193 6.02-.193 8.219 0 2.656-.018 5.348 0 8 .007.959-.113 2.128 1.007 2.458.846.25 2.004.22 2.504-.411.43-.543.324-1.386.329-2.047.02-2.872 0-6.058 0-8.96 0-.967-.302-2.53.329-3.327.727-.918 2.189-.217 2.998-1.026.715-.715.297-1.708.706-2.64.62-1.413 2.531-.527 3.318-1.52.66-.833.043-2.015.842-2.814.818-.818 2.632-.136 3.182-1.255 1.127-2.289-1.98-12.01 3.006-10.676 1.443.386 1.296 1.885 1.299 3.098.007 3.296.27 6.98-.019 10.239-.21 2.367-2.094 1.22-3.308 2.434-.748.748-.277 2.385-1.026 3.134-.719.718-2.372.236-2.998 1.026-.68.859-.12 2.364-1.07 2.998-1.102.735-1.927-.118-2.906.658-.74.587-.513 1.934-.513 2.871 0 1.695-.645 7.648 1.327 8.218 1.093.316 2.454.046 2.703-1.197.384-1.926-1.15-4.24.139-5.868.572-.722 2.554-.262 3.318-1.026.775-.775.224-2.363 1.026-2.998.868-.687 2.267.08 2.998-.842.703-.888-.109-2.244.842-2.998 1.77-1.403 3.267.234 3.325-2.889.077-4.092.001-8.663.001-12.8 0-1.367-.514-3.839 1.3-4.111 2.698-.405 2.54 2.144 2.54 4.111v13.12c0 1.572.495 3.94-.193 5.338-.547 1.112-2.283.398-3.134 1.07-.942.748-.143 2.117-.841 2.999-.705.889-2.149.169-2.999.842-.934.74-.165 2.144-.841 2.998-.655.826-2.911.33-3.498 1.255-2.164 3.413 4.777 3.555 6.659 2.996 1.55-.46.557-2.241 1.336-3.225.74-.933 2.145-.166 2.998-.842.888-.703.17-2.149.842-2.998.847-1.069 4.521-.603 5.75-.494 2.394.212 1.199 1.982 2.25 3.308.716.903 2.182.21 2.998 1.026.77.77.208 2.013.842 2.814.795 1.002 5.468.882 6.61.32 3.605-1.774-2.418-3.737-2.782-4.16-.668-.775-.317-2.039-.96-2.814-.728-.875-2.162-.135-2.868-1.026-.714-.902.06-2.283-.842-2.998-.836-.663-2.28.044-2.999-.842-.505-.624-.512-1.84-.593-2.687-.31-3.238-.055-6.662-.055-9.92 0-1.797-1.003-9.573 1.008-10.137 3.325-.933 2.83 2.989 2.832 5.017.005 3.106.32 6.168.32 9.28 0 1.468-.421 3.13.194 4.378.428.87 2.434.556 3.133 1.255.838.838.196 1.998.842 2.814.668.842 1.862.236 2.77.842 1.083.724.353 2.093 1.07 2.998.677.854 2.213.24 2.998 1.026 1.651 1.651-1.214 8.384 3.346 7.065.998-.289.99-1.263 1.006-2.138.037-1.96.91-7.205-.327-8.767-.74-.933-2.145-.166-2.998-.842-.92-.729-.141-2.48-1.027-3.182-.81-.642-1.943.032-2.813-.658-.928-.735-.135-2.105-.842-2.998-.687-.866-2.202-.23-2.998-1.026-1.204-1.204-.833-6.079-.834-7.807 0-1.464-.779-6.42.742-7.167 1.378-.677 2.934-.034 3.264 1.413.55 2.415-1.041 7.475.483 9.4.703.888 2.18.27 2.998 1.072.8.782.19 1.944.842 2.769.658.832 2.206.36 2.998 1.108.9.848.12 2.14.842 3.052.773.976 2.972.046 3.41 1.52.914 3.08.062 7.889.103 11.153.023 1.884.628 3.695 2.86 3.098 2.199-.589 1.298-6.357 1.298-8.218 0-2.671.894-8.18-.648-10.421-.718-1.042-2.113-.405-2.998-1.108-.913-.725-.2-2.193-1.027-2.993-.798-.774-1.99-.085-2.813-.805-.863-.754-.21-2.524-1.255-3.224-.87-.583-2.126-.106-2.77-1.07-.742-1.114-.622-4.768-.135-5.944.5-1.21.994-1.095 2.258-.972 2.023.573.76 2.583 1.902 3.488.79.627 1.984.049 2.732.842.81.86.3 2.307 1.336 2.998.861.574 2.09-.007 2.77.842.726.909.182 2.282.949 3.134.656.729 2.533.253 3.026 1.255 1.107 2.25.214 6.92.46 9.498.3 3.153.052 6.434.053 9.6.001 1.595-.129 3.268 1.92 3.175 2.3-.105 1.92-2.425 1.92-4.135 0-4.479.052-8.961 0-13.44-.025-2.069.467-7.187-.648-8.858-.65-.975-2.159-.441-2.891-1.255-.703-.78-.303-2.018-.948-2.814-.727-.896-2.158-.212-2.955-1.026-.763-.78-.241-2.002-.886-2.814-.838-1.055-2.684-.069-3.318-1.52-.857-1.962-.198-5.483-.193-7.633.002-.743-.155-1.757.329-2.367.709-.895 2.143-.165 2.998-.842.913-.724.158-2.107.842-3.003.744-.975 2.145-.712 3.19-.508.347-1.17-.063-2.75.834-3.647.876-.876 2.807-.112 3.225-1.52.6-2.022.102-4.865.102-6.993 0-4.492.706-9.637-.048-14.061-.227-1.335-1.932-1.656-3.05-1.106-.941.463-.74 1.822-.742 2.687v7.68c0 2.12 1.023 6.584-.014 8.218-.6.945-2.495.437-3.313 1.255-.791.791-.233 2.045-.842 2.814-.717.905-1.772.175-2.77.842-.983.657-.432 2.53-1.254 3.182-.741.587-1.411.123-2.32.522-1.27.558-1.423 5.622-4.334 3.318-.905-.715-.92-5.91-.184-6.838.712-.9 2.183-.212 2.998-1.026.77-.77.206-2.013.842-2.814.747-.943 2.115-.143 2.998-.842.922-.73.154-2.13.842-2.998 1.377-1.74 3.487.355 3.51-3.073.023-3.282.007-6.633 0-9.92-.002-1.38.097-2.906-1.605-3.151-4.106-.591-1.47 8.592-2.427 10.784-.414.948-2.764.82-3.318 1.52-.729.92-.003 1.975-.842 2.814-.705.704-2.388.256-2.998 1.026-.68.857-.004 1.976-.842 2.814-.87.87-2.59.162-3.318 1.255-1.376 2.061-.013 6.477-.206 8.857-.128 1.58-1.435 2.399-2.93 1.728-1.798-.806-1.033-5.79-1.033-7.487 0-1.562-.776-6.33.513-7.351.935-.74 2.287.004 3.134-.842.712-.713.24-2.375 1.026-2.998.919-.729 1.974-.003 2.814-.842.718-.718.235-2.372 1.026-2.998.915-.726 1.979-.007 2.814-.842.538-.539.498-1.334.511-2.047.027-1.443.557-4.568-1.006-5.247-3.239-1.407-2.051 2.301-3.574 3.318-.941.629-2.416-.011-3.077 1.07-.587.96.226 2.044-.584 2.906-.731.778-2.317.23-2.948 1.026-.672.847-.137 2.375-1.071 2.998-.959.64-2.334-.112-3.09.842-.796 1.006-.328 3.375-.328 4.607 0 3.959.167 8.234-.006 12.159-.07 1.598-1.835 2.77-3.321 1.592-1.244-.985-.513-5.8-.513-7.351v-10.88c0-1.26-.36-3.025.329-4.058.694-1.04 2.098-.358 2.998-1.07.91-.722.216-2.19 1.026-2.999.814-.814 1.979-.175 2.85-.842.828-.632.258-1.943.806-2.77.974-1.468 5.013-.366 3.637-3.574-.612-1.428-6.195-1.592-7.293-.494-.786.786-.173 2.321-1.026 2.998-.88.698-2.29.01-2.998 1.07-.65.974.024 2.593-1.337 2.997-1.28.38-5.543.599-6.343-.411-.661-.834-.042-2.013-.842-2.814-.859-.858-2.296-.14-2.998-1.026-.591-.746-.085-1.728-.658-2.585-1-1.498-3.328-.083-3.491-2.348-.209-2.903 2.42-1.373 3.49-2.976.62-.926-.034-2.074.843-2.77.919-.728 1.974-.002 2.814-.841.837-.837.187-1.925.842-2.905.859-1.287 4.869-.979 6.343-.375 1.459.598.535 2.267 1.337 3.28.682.862 2.498.163 3.182 1.026.701.886-.075 2.272.842 2.998 1.554 1.231 6.926.216 7.12-.97.486-2.984-2.019-1.634-3.144-3.054-.662-.835-.096-2.312-1.07-3.134-.878-.739-2.396-.15-3.09-1.026-.66-.833-.044-2.016-.842-2.814-.81-.81-2.279-.117-2.998-1.026-.664-.838-.33-2.648-.33-3.647v-9.28c0-1.772-.896-8.937 1.008-9.498 3.91-1.152 2.833 4.604 2.833 6.938 0 2.755-1.198 9.13.329 11.418.74 1.11 2.4.289 3.183 1.255.661.815.261 2.01.948 2.827.746.885 2.25.517 3.027 1.148.805.652.2 1.868.842 2.679.738.932 1.85.277 2.77.89.587.393.898 3.304 1.483 3.59.874.428 1.972.293 2.585-.32.602-.602.507-1.546.513-2.367.009-1.367.477-3.262-.33-4.287-.809-1.03-1.962-.72-3.19-.513-.371-1.255.232-2.582-.833-3.647-.817-.817-2.282-.123-2.998-1.026-.635-.801-.072-2.044-.842-2.814-.863-.863-2.58-.094-3.318-1.026-1.195-1.508-.33-6.207-.33-8.127 0-1.424-.678-5.447.514-6.391 1.302-1.03 3.122-.134 3.444 1.277.606 2.657-.775 6.792.396 9.172.506 1.028 2.4.49 3.134 1.07.692.55.415 2.699 1.026 3.183.938.744 1.894-.078 2.814.842.774.774.182 2.33 1.026 2.998.903.716 2.28-.004 2.998 1.07 1.826 2.737-.278 7.964.649 11.099.906-.268 2.52.014 3.19-.833.622-.784.33-2.396.33-3.327 0-2.622 1.127-8.596-.33-10.778-.7-1.05-2.498-.393-3.181-1.255-.61-.769-.051-2.023-.842-2.814-.871-.871-2.288-.129-2.998-1.026-.665-.84.057-2.286-.842-2.998-.989-.783-1.776.164-2.814-.658-.63-.499-.508-1.522-.513-2.231-.01-1.333-.739-4.038.194-4.791.4-.323.925-.31 1.407-.321 3.251-.082 1.032 3.067 3.246 3.73.834.25 1.901-.146 2.504.615.68.86-.037 2.302.842 2.998.873.692 2.273-.073 2.998.842.701.886-.075 2.272.842 2.998.853.676 2.259-.091 2.998.842.663.838.329 2.648.329 3.647v9.6c0 1.507-.47 4.198.557 5.247.624.637 1.691.718 2.594.32 1.049-.462.812-1.445.742-2.367-.149-1.942-.053-4.114-.053-6.08v-10.24c0-1.102.387-3.062-.33-3.967-.693-.876-2.167-.184-2.997-.842-.934-.74-.164-2.455-1.026-3.318-.773-.773-1.998-.195-2.814-.842-.837-.663-.256-1.9-.842-2.69-.702-.947-2.153-.463-2.998-1.149-.798-.647-.612-2.387 0-2.999.962-.962 5.667-.987 6.654 0 .833.834.168 2.243 1.026 3.052.782.738 2.34.284 2.998 1.108.701.878.146 2.266 1.362 2.814 1.254.565 5.478.655 6.454-.32.699-.699.317-2.08 1.026-2.69.863-.744 2.304-.323 2.998-1.377.53-.807.065-1.839.658-2.587.793-1 2.716-.136 3.318-1.52 1.43-3.294-2.206-2.04-3.331-3.346-.686-.796-.34-2.369-1.148-2.998-.88-.685-1.981.038-2.68-.842-.622-.785-.053-1.68-.657-2.585-.813-1.217-5.251-1.06-6.664-.64-1.45.43-.57 2.656-1.52 3.41-.86.68-2.26-.091-2.998.841-.702.886.09 2.562-1.071 3.134-1.681.827-6.453.395-6.835-1.106-.76-2.984 2.342-1.708 3.408-3.054.699-.883-.101-2.251.842-2.998.818-.648 2.313.022 2.998-.842.699-.883-.101-2.251.842-2.998.856-.678 2.282.062 2.998-.842.656-.828.329-2.61.329-3.647v-10.24c0-1.743.9-7.512-.513-8.631-1.482-1.173-3.25-.015-3.321 1.592-.185 4.188-.006 8.592-.006 12.799 0 1.204.411 3.431-.285 4.287-.73.897-2.136.125-3.042.842-.951.754-.109 2.122-.842 2.985-.661.78-2.185.05-2.998.802-.9.832-.209 2.234-1.026 3.05-.836.836-1.898.117-2.814.843-.79.626-.308 2.28-1.026 2.998-.576.576-1.477.654-2.32.411-1.022-.295-2.318-6.058-.814-7.25.935-.74 2.287.005 3.134-.841.835-.836.116-1.898.842-2.814.626-.79 2.28-.308 2.998-1.026.837-.837.187-1.925.842-2.905.724-1.085 2.4-.269 3.182-1.255 1.152-1.455.329-5.997.329-7.807 0-1.606.692-5.238-.329-6.527-.67-.847-2.92-.58-3.318.229-1.373 2.79 1.266 7.358-.522 10.036-.727 1.09-2.451.388-3.318 1.255-.773.773-.195 1.997-.842 2.814-.72.91-2.189.217-2.998 1.026-.933.933.01 2.19-1.282 3.163-1.538.366-1.99-.15-2.742.943-1.662 2.413.386 7.304-.43 10.054-.31 1.043-2.009 1.352-2.919.678-.657-.486-.735-1.49-.791-2.231-.124-1.636-.03-3.465-.03-5.12 0-1.887-.734-5.665.33-7.258.74-1.109 2.41-.281 3.182-1.255.648-.817.068-2.04.842-2.814.783-.783 2.325-.176 2.998-1.026.676-.854-.092-2.259.842-2.998.83-.658 2.02-.023 2.85-.658 1.042-.796.998-6.8-.53-7.25-3.53-1.039-1.826 2.34-3.283 3.41-.953.7-2.284-.139-3.061.842-.702.886.074 2.272-.842 2.998-.854.676-2.258-.092-2.998.842-.655.826-.018 2.005-.658 2.814-.781.986-2.688-.026-3.318 1.255-1.215 2.468-.193 7.71-.193 10.458 0 2.203 1.14 10.21-3.098 8.127-.988-.486-.742-2.073-.742-3.007v-9.6c0-2.592-.954-7.488.193-9.818.63-1.282 2.536-.268 3.318-1.255.699-.882-.1-2.251.842-2.998.819-.648 2.313.022 2.998-.842.7-.883-.102-2.25.842-2.998.897-.711 2.288.054 2.998-.842.478-.604.327-1.601.329-2.367.005-2.392.199-4.964-.019-7.354-.207-2.278-2.065-.95-3.308-1.935-.922-.73-.084-2.436-1.026-3.182-.819-.649-2.314.022-2.998-.842-.7-.883.1-2.251-.842-2.998-1.436-1.137-3.206.358-3.321-2.25-.275-6.233-.006-13.215-.006-19.519 0-1.984-.864-5.862 1.92-5.735 2.557.116 1.92 3.251 1.92 5.095 0 4.873-1.168 11.999.102 16.621.45 1.639 2.623.864 3.41 2.04.665.998.015 2.08.841 2.906.804.804 2.24.071 2.998 1.026.685.862.119 2.03.887 2.814.807.825 2.218.155 3.089 1.026 1.003 1.003.143 2.465 1.662 3.37 1.436.344 1.543.582 2.362-.756.58-.947.836-5.398 0-6.454-.664-.838-2.088-.12-2.998-.842-.862-.683-.109-2.072-.842-2.998-.683-.862-2.073-.109-2.998-.842-.725-.574-.327-2.282-1.027-3.085-.768-.881-2.975-.343-3.453-1.434-1.06-2.412-.194-7.09-.194-9.872 0-1.664-.92-7.97 1.008-8.538 2.738-.807 2.832 1.417 2.832 3.418 0 3.108-.401 8.058.422 10.833.225.757 3.012 1.208 3.41 1.786.651.946.012 2.395.842 3.052.925.734 2.315-.02 2.998.842.733.926-.02 2.315.842 2.998.91.722 2.334.004 2.998.842 1.598 2.018-.07 7.092.376 9.708.224 1.318 1.9 1.671 3.05 1.106 1.522-.748.742-5.703.742-7.167 0-1.87.034-3.909 0-5.76-.014-.697.028-1.456-.512-1.965-.748-.706-2.334-.268-2.998-1.108-.7-.885-.04-1.984-.842-2.77-.817-.799-2.302-.192-2.998-1.07-.61-.77-.052-2.023-.842-2.814-.823-.823-2.581-.131-3.134-1.255-.97-1.97-.208-6.008-.193-8.218.006-.817-.11-1.95.742-2.367 4.521-2.213 2.33 5.59 3.427 6.974.894 1.13 1.905-.066 2.998 1.026.52.52.444 1.991.842 2.585.758 1.131 2.062.325 2.998 1.255.758.753.375 2.037 1.107 2.814.758.803 2.263.274 2.917 1.255.585.876.377 2.381.513 3.418.506 3.853.136 7.957.136 11.84 0 .953-.237 2.292.329 3.007.496.626 1.704.667 2.504.32 2.212-.961.688-7.727.687-9.727v-8.96c0-1.118.314-2.775-.329-3.738-.65-.974-2.186-.402-2.862-1.255-.662-.835-.041-2.013-.842-2.814-.791-.791-2.316-.22-3.01-1.026-.685-.794-.228-2.282-1.149-2.998-.976-.759-1.875.086-2.815-.658-.757-.6-.404-3.007.229-3.318 1.32-.65 5.675-.728 6.663.32.835.886.261 1.986.924 2.814.63.788 2.201.2 2.862 1.026.73.913.14 1.984.923 2.814.986 1.045 4.185.728 5.8.466 2.015-.328.957-2.046 1.935-3.28.75-.946 2.194-.222 2.998-1.026.831-.832.12-1.904.842-2.814.666-.84 6.176-1.045 7.023 0 .546.674.625 2.232.106 2.814-.74.83-2.574.123-3.29 1.026-.701.886.076 2.271-.841 2.998-.882.699-2.251-.1-2.998.842-.635.801-.072 2.044-.842 2.814-.815.814-2.585.14-3.134 1.255-.677 1.376-.193 3.81-.193 5.338v12.8c0 1.913-.519 4.827 2.234 4.431 2.016-.29 1.606-2.571 1.606-4.111 0-4.325-.08-8.812 0-13.12.06-3.109 2.223-1.13 3.51-2.753.7-.882.008-2.288 1.071-2.998 1-.668 2.077-.013 2.905-.842.726-.726.188-2.334 1.027-2.998.905-.718 2.336-.08 2.998-1.07 1.287-1.93-1.36-7.48 2.55-6.89 2.258.34 1.312 6.762 1.355 8.591.018.75.227 1.503-.12 2.138-.51.938-2.482.474-3.263 1.255-.801.8-.181 1.98-.842 2.814-.68.856-2.21.237-2.998 1.026-.772.772-.207 2.01-.842 2.814-.695.878-2.179.335-2.998 1.108-1.326 1.25-.514 5.971-.514 7.725 0 1.765-.84 6.685 1.3 7.258 1.74.466 2.507-.469 2.539-2.138.042-2.244-.924-6.98.33-8.858.734-1.1 2.44-.377 3.318-1.255.737-.737.304-1.782.842-2.585.655-.977 2.189-.445 2.998-1.255.802-.803.18-1.977.842-2.814 1.13-1.426 3.27.073 3.493-2.434.274-3.097-1.026-9.918.212-12.752.363-.832 1.19-1.035 2.04-.89 2.488.423 1.606 6.568 1.606 8.843 0 2.423 1.021 7.795-.328 9.818-.687 1.029-2.17.488-2.998 1.3-.695.679-.342 2.343-1.255 2.953-.861.575-2.094-.01-2.77.842-.739.933.001 2.29-.842 3.134-.776.777-2.613.136-3.318 1.026-.95 1.2-.668 6.358.705 6.974 3.448 1.546 2.21-2.633 3.868-3.454 1.023-.506 1.768.111 2.585-.706.719-.718.236-2.372 1.027-2.998.919-.729 1.974-.003 2.813-.842.737-.737.285-2.364 1.027-3.09.92-.901 2.907-.178 3.44-1.564 1.016-2.638-.114-8.199-.114-11.153 0-2.458-1.226-11.2 1.92-11.125 2.604.061 1.92 3.81 1.92 5.685v14.08c0 1.945.4 4.596.127 6.354-.216 1.395-2.905.912-3.638 1.84-.733.926-.018 1.99-.842 2.813-.699.699-2.391.26-2.998 1.026-.7.883.006 2.279-1.07 2.998-1.502 1.003-3.86.232-2.997 3.162.43 1.456 5.619 1.49 6.837.678 1.026-.684.4-2.152 1.07-2.998.747-.942 2.116-.143 2.998-.842.917-.726.14-2.112.842-2.998.76-.958 5.514-.835 6.622-.32 1.36.633.635 2.472 1.644 3.318.779.653 1.977.086 2.732.842.77.77.207 2.013.842 2.814 1.138 1.435 3.961.38 3.134 3.346-.571 2.05-2.36.954-3.623 3.407-.657 1.661-2.4 1.14-3.486 2.076-.8.69-.23 1.918-.842 2.69-.774.976-5.518.858-6.61.32-1.201-.59-.314-2.253-1.255-2.997-.963-.763-1.877.084-2.813-.658-.843-.668-.119-2.085-.842-2.998-.459-.579-1.289-.5-1.912-.512-1.125-.02-4.378-.603-5.11.22-2.739 3.083 2.524 3.301 3.182 4.132.932 1.177.254 1.993.649 3.327 1.198-.203 1.875-.59 3.006.328.683.553.422 2.704 1.027 3.183.935.741 2.489-.24 3.133 1.07.564 1.147.194 3.13.194 4.379v9.92c0 1.87.012 3.907 0 5.76-.007.827.146 1.93-.742 2.367-1.003.493-2.516.244-2.905-.549-.54-1.096-.193-2.444-.193-3.738v-9.6c0-1.515.442-3.406-.194-4.698-.518-1.054-1.878-.429-2.905-.935-.801-.395-.55-2.76-1.255-3.318-.846-.67-2.281.063-2.998-.842-.685-.865.014-2.246-.842-3.052-.872-.823-2.525-.108-3.318-1.108-.825-1.042-.935-4.833-3.655-2.678-.986.78-.91 6.3 0 7.022.867.687 1.925-.023 2.818.658.786.6.653 2.648 1.34 3.182 1.054.819 1.854-.103 2.815.658.909.72.1 2.06.842 2.998.736.93 2.197.286 2.998 1.07 1.034 1.012.514 4.016.514 5.523 0 1.903.946 8.558-1.008 9.407-1.2.522-2.571.15-2.785-1.106-.428-2.514 1.164-7.693-.376-9.713-.505-.661-2.598-.617-3.187-1.34-.68-.833-.309-2.033-1.145-2.815-.83-.776-2.296-.124-3.01-1.026-.648-.817-.069-2.04-.843-2.814-.788-.788-2.61-.193-3.133-1.255-1.363-2.77.983-7.253-.387-10.036-.43-.876-2.069-.96-2.905-.549-.785.386-.726 1.306-.74 2.047-.033 1.758-.001 3.667-.001 5.44 0 1.758-.737 5.844.558 7.167.777.794 2.294.267 2.953 1.255.623.934-.063 2.372.842 3.09.825.652 1.99.004 2.814.657.945.749.1 2.448 1.026 3.182.861.682 2.26.001 3.052.842.977 1.035.619 3.28.594 4.607-.018.938.009 1.926-1.006 2.367-3.326 1.444-1.982-2.67-3.575-3.454-1.03-.507-2.306.282-3.09-.706-.76-.961.11-2.244-.841-2.998-.75-.595-2.326.007-2.998-.842-.687-.868.039-1.935-.658-2.814-.606-.765-2.883-.37-3.318-1.255-1.082-2.198-.193-6.293-.193-8.858 0-2.29.95-7.262-.329-9.178-.47-.705-1.429-.81-2.212-.693-1.859.279-1.299 3.51-1.299 5.071v11.2c0 1.84-.242 4.044.047 5.741.265 1.553 2.31.854 3.173 1.812.742.825.366 2.395 1.133 2.998.914.719 2.332.001 2.998.842.777.981-.144 1.801.658 2.814 1.09 1.377 3.267-.1 3.492 2.434.166 1.866.878 7.586-.31 9.086-.664.838-1.947.293-2.77.842-1.052.703-.377 2.123-1.07 2.998-.669.844-2.205.294-2.998 1.07-.887.869-.2 2.264-1.026 3.09-.694.694-2.397.268-2.998 1.026-.593.749-.329 2.049-.329 3.007v8.32c0 2.662-.006 5.911 0 8.64.002.876-.194 2.23.742 2.687.89.436 2.286.175 2.77-.549 1.074-1.61.328-4.943.328-6.938v-8.32c0-.958-.264-2.258.329-3.007.604-.763 2.298-.326 2.998-1.026.704-.704.256-2.388 1.026-2.998.872-.69 2.265.084 2.998-.842.734-.927-.046-2.245.842-3.134.81-.81 2.277-.117 2.998-1.026 1.03-1.298.03-3.981 2.87-3.187 1.82.51 2.004 6.566.786 7.531-.81.64-1.987.003-2.814.658-.924.732-.18 2.161-.842 2.998-.716.904-2.142.164-2.998.842-.943.747-.143 2.116-.842 2.998-.716.904-2.75.1-3.318 1.255-.882 1.792-.193 5.258-.193 7.258 0 1.505-.693 6.782.742 7.487.843.414 2.484.306 2.905-.549 1.428-2.902-1.306-7.617.522-10.356.716-1.073 2.44-.318 3.182-1.255.637-.803.07-2.041.842-2.814.825-.825 2.686-.308 3.318-1.255.618-.925-.035-2.074.842-2.77.845-.669 2.378-.14 2.998-1.07 1.61-2.411-.379-6.969.43-9.775.31-1.07 2.236-1.792 3.226-.81 1.225 1.216.513 5.202.513 6.847 0 2.094.724 5.715-.193 7.578-.567 1.152-2.571.313-3.318 1.255-.635.801-.072 2.044-.842 2.814-.817.817-2.282.123-2.998 1.026-.698.88-.003 2.283-.887 3.084-.812.738-2.223.17-3.089.887-1.01.837-.535 3.571-.512 4.796.015.797-.014 1.728.74 2.231 3.476 2.317 2.655-2.94 4.106-3.593 1.092-.491 1.76.194 2.64-.522.88-.717.2-1.873.842-2.806.613-.894 2.263-.446 2.998-1.223.783-.827.176-2.014.842-2.854.747-.942 2.751-.103 3.318-1.255.615-1.249.193-3.306.193-4.698 0-3.757-.54-8.901.047-12.473.216-1.308 1.806-2.136 3.28-.958.813.65.513 4.276.513 5.431 0 4.748 1.216 12.155-.102 16.593-.424 1.43-2.651.564-3.41 1.52-.733.926-.018 1.99-.841 2.814-.713.713-2.375.24-2.998 1.026-.728.918-.003 1.975-.842 2.814-1.576 1.576-3.304-.164-3.327 3.073a484 484 0 0 0 0 6.4c.005.661-.1 1.504.329 2.047.68.86 2.482.205 3.182 1.255.619.927-.069 2.058.658 2.876.63.71 1.94.06 2.77.6 1.063.694.376 2.073 1.07 2.949.904 1.141 2.908.05 3.41 1.828 1.314 4.657.101 12 .101 16.925 0 1.246.514 4.63-.742 5.247-3.321 1.633-3.098-2.57-3.098-4.607v-9.92c0-1.192.356-3.032-.329-4.058-.775-1.161-2.036-.308-2.998-1.07-.723-.574-.263-2.556-1.026-3.319-.799-.799-2.296-.14-2.998-1.026-.654-.825-.06-2.031-.842-2.814-.82-.82-2.277-.116-2.998-1.026-1.118-1.41.175-3.06-2.25-3.29-2.865-.274-3.013 5.338-1.59 7.13.726.914 2.204.294 2.998 1.07.85.833.15 2.216.842 3.09.716.905 2.152.172 2.998.842.905.716.172 2.152.842 2.998 1.478 1.866 3.486-.484 3.51 3.073.026 3.647.56 7.9-.046 11.502-.354 2.098-2.753 1.704-3.793-.035v-4.107c0-1.323.365-3.793-.194-5.073-.566-1.297-2.616-.634-3.318-1.52-.66-.834.051-2.291-.842-2.998-.826-.654-2.581.087-3.318-.842-.703-.888.11-2.244-.842-2.998-.825-.655-2.03-.088-2.769-.842-.595-.608-.545-1.54-.556-2.367-.032-2.267.491-5.497-.103-7.661-.33-1.2-2.516-1.914-3.41-.786-.997 1.26-.328 4.944-.328 6.527 0 2.171-.757 5.968.193 7.898.546 1.112 2.6.369 3.319 1.255.692.853.25 2.038.948 2.814.73.812 2.211.237 2.89 1.255.583.872-.002 2.072.843 2.774.894.743 2.304.28 3.133.968.555.461.5 1.247.512 1.916.027 1.4.515 4.266-1.006 4.927-2.952 1.282-2.257-1.927-3.66-2.998-.845-.644-2.033-.085-2.775-.842-.82-.838-.196-2.26-1.07-3.134-.818-.817-2.283-.123-2.999-1.026-.675-.852-.036-2.307-1.07-2.998-.84-.561-2.121-.024-2.77-.842-.712-.9-.328-2.856-.328-3.967v-10.88c0-1.646-.527-6.047-3.327-3.831-1.36 1.076-.513 6.92-.513 8.631v10.24c0 1.017-.33 2.815.328 3.647.713.9 2.184.212 2.998 1.026.78.78.177 2.319 1.027 2.998.875.7 2.343.217 2.998 1.133.725 1.015-.142 1.834.657 2.843.677.854 2.244.244 2.998.842.598.473.594 1.426.466 2.212-.274 1.68-5.817 2.002-7.12.97-1.02-.809-.073-2.029-.841-2.998-.669-.844-2.084-.117-2.998-.842-.596-.472-.456-1.226-.53-1.906-.125-1.127-.368-1.62-1.59-1.852-1.369-.26-4.45-.546-5.652.256-1.15.768-.313 2.361-1.07 3.318-.685.864-2.18.194-2.998.842-.943.747-.143 2.115-.842 2.998-1.193 1.505-4.416-.072-3.41 3.346.392 1.329 2.408.7 3.227 1.336.875.68.395 2.124 1.148 2.998.693.805 1.9.217 2.69.842 1.12.885.129 2.917 1.836 3.41 1.332.384 5.172.58 6.164-.412.77-.77.186-2.332 1.027-2.998.887-.703 2.27.077 2.998-.842.676-.854-.054-2.29.842-2.998.92-.73 6.056-.803 6.838.184 2.458 3.105-2.377 2.823-3.183 3.84-.648.819.023 2.313-.842 2.998-.882.7-2.25-.101-2.998.842-.647.818.022 2.314-.842 2.998-.899.712-2.527-.161-3.133 1.07-.772 1.57-.193 4.572-.193 6.299v14.72c0 2.093-.826 5.64 2.234 5.42 1.83-.132 1.605-1.75 1.606-3.18v-9.6c0-2.208-1.046-7.992.328-9.727.651-.821 2.283-.31 2.998-1.026.653-.653.4-2.69 1.255-3.139 1.085-.569 2.374-.079 3.09-1.016.78-1.024-.072-1.528.657-2.512.566-.763 1.917-.51 2.678-1.144 1.412-1.174-.33-3.91 2.748-3.467 1.865.269 2.558 5.68 1.548 7.21-.686 1.038-2.745.36-3.454 1.254-.703.888.078 2.27-.842 2.998-.839.665-2.293-.047-2.998.842-.734.926-.019 1.991-.842 2.814-.785.785-2.83.19-3.225 1.52-1.133 3.816-.101 9.98-.101 14.033 0 1.273-.287 3.602 1.007 4.111 1.452.571 2.606.153 3.014-1.245 1.12-3.834-1.791-9.66.012-13.324.542-1.103 2.7-.442 3.425-1.255.743-.833-.074-1.599.555-2.585.572-.898 2.602-.544 3.313-1.255.84-.84.114-1.895.842-2.814.525-.662 2.693-.52 3.183-1.255 1.611-2.415-.4-7 .269-9.8.296-1.238 1.749-1.602 2.892-1.105 1.24.539 1.007 2.198 1.008 3.327.002 3.338.278 7.286-.02 10.554-.199 2.196-2.564.95-3.492 2.12-.724.914-.006 1.977-.842 2.813s-1.899.117-2.813.842c-.814.645-.246 2.217-1.027 2.998-.815.815-1.987.228-2.905.842-1.307.873-.438 3.463-.423 4.791.017 1.397-.417 5.654.515 6.391.88.697 2.52.304 2.998-.413 1.227-1.84-.907-5.543.842-6.93.855-.677 2-.028 2.813-.841.73-.729.333-2.12 1.027-2.814.813-.813 1.983-.195 2.813-1.026.775-.775.182-2.33 1.027-2.998.984-.78 2.608-.007 3.318-1.07.88-1.32.285-3.45.1-5.019-.358-3.033-.091-6.228-.091-9.28 0-1.948-.427-5.173 2.54-4.378 2.284.611 1.3 7.803 1.3 9.818v9.28c0 1.083.326 2.759-.33 3.676-.622.871-2.325.619-2.993 1.317-.789.825-.005 2.302-.98 2.998-.902.642-2.332-.063-3.049.842-.695.878.029 1.948-.657 2.814-.491.62-6.2 1.489-2.998 4.024.967.766 6.114.73 6.838-.184.698-.882-.101-2.251.842-2.998.818-.649 2.313.022 2.998-.842.697-.88-.099-2.253.842-2.998 1.172-.929 4.412-.329 5.887-.329" fill="none" stroke="#28211a"/></svg>