<?xml version="1.0" encoding="UTF-8" standalone="no"?>
<!-- Created with Inkscape (http://www.inkscape.org/) -->

<svg
   version="1.1"
   id="svg1"
   width="252.3196"
   height="52.425556"
   viewBox="0 0 252.31959 52.425557"
   xmlns="http://www.w3.org/2000/svg"
   xmlns:svg="http://www.w3.org/2000/svg">
  <defs
     id="defs1" />
  <g
     id="g1"
     transform="translate(4.0053473,0.75049048)">
    <path
       style="fill:none;stroke:#050505"
       d="M -3.6375753,50.123058 H 25.802424 c 2.666485,0 8.144117,1.26944 9.603701,-0.74173 0.725767,-1.00004 0.669947,-2.49373 0.623457,-3.73827 -0.03537,-0.94685 -0.206811,-1.5397 -0.142714,-2.56 0.366923,-5.84057 0.155556,-13.62292 0.155556,-20.16 0,-1.35994 0.05127,-3.17621 -0.0062,-4.47852 -0.03896,-0.88325 -0.08215,-1.58305 -0.999755,-1.81358 -1.994917,-0.50118 -1.871709,1.6231 -1.874073,2.7721 -0.0064,3.1324 0.05772,8.3887 -0.0015,11.51975 -0.02142,1.13313 -0.08957,2.2919 -1.585928,2.17408 -1.93374,-0.15228 -1.292593,-2.62864 -1.292593,-4.41383 0,-2.17629 0,-2.89289 0,-4.8 0,-1.78719 0.805288,-7.26518 -1.28,-7.26518 -1.11831,0 -1.27227,1.37944 -1.279755,2.46518 -0.01931,2.80165 0.03125,6.20907 -0.0015,8.96 -0.01421,1.19438 -0.115381,1.76615 -0.27062,2.87975 -0.168472,1.20855 -0.422295,2.22388 -1.635552,2.09111 -1.591909,-0.1742 -1.291958,-1.95425 -1.292592,-3.37086 -0.0015,-3.4519 0.313461,-7.16154 0.04938,-10.56 -0.09041,-1.16346 0.116665,-2.20109 -1.050615,-2.4395 -1.704258,-0.3481 -1.558764,2.44199 -1.558764,3.7195 0,3.30188 0.02247,6.61961 -2.45e-4,9.92 -0.0079,1.15527 -0.02251,2.78518 -1.587163,2.78518 -1.747021,0 -1.292592,-2.59791 -1.292592,-3.74518 0,-3.19988 0.0014,-6.40016 0,-9.6 -5.13e-4,-1.14749 0.172192,-3.01849 -1.292593,-3.13383 -1.050772,-0.0827 -1.469414,0.4496 -1.568643,1.54 -0.333667,3.66656 -0.0171,7.80364 -0.01876,11.51383 -6.35e-4,1.41661 0.299316,3.19666 -1.292593,3.37086 -1.461685,0.15995 -1.584556,-1.6639 -1.587407,-3.05086 v -10.56 c -0.0029,-1.39649 0.209765,-2.78518 -1.28,-2.78518 -1.543482,0 -1.28,2.86109 -1.28,4.06518 0,2.33649 0.02518,5.06517 -0.0012,7.36 -0.0187,1.62477 0.9119,4.16416 -1.3076513,4.90814 -1.624502,0.54452 -1.571113,-2.40145 -1.571113,-3.62814 0,-3.30579 0.0068,-6.61447 0,-9.92 -0.0023,-1.10449 0.185718,-2.69742 -1.292593,-2.81383 -1.691474,-0.13319 -1.584922,1.60619 -1.587407,2.81383 -0.007,3.4119 0.0015,6.8279 0,10.24 -5.47e-4,1.22268 -0.01707,4.25062 -2.138516,3.32073 -1.019736,-0.44698 -0.741079,-2.10047 -0.741484,-3.00073 -0.0014,-3.19903 0,-6.40073 0,-9.6 0,-1.36809 0.159814,-3.91141 -1.58740698,-3.77383 -0.888594,0.07 -1.182471,0.53607 -1.273828,1.54 -0.28042802,3.08154 -0.01876,7.827 -0.01876,10.87383 0,1.09409 0.539336,3.80122 -1.28000002,4.01086 -2.06053,0.23744 -1.28,-5.58972 -1.28,-6.89086 V 6.6030585 c 0,-1.40574 -0.66667,-5.45673 0.513086,-6.39111001 0.993804,-0.78711 3.39397502,-0.32889 4.606914,-0.32889 H 13.642402 c 15.37665,0 30.716835,0.32 46.079997,0.32 h 13.12 c 1.27897,0 3.90231,-0.48261 4.92691,0.32889 1.21924,0.96566001 0.51309,5.23643001 0.51309,6.71111001 0,4.6476095 0.053,10.1614695 -0.001,14.7199995 -0.0166,1.39932 -0.24251,2.06639 -0.30618,3.52 -0.0752,1.71736 0.58953,6.43484 -0.52074,7.48543 -1.41648,1.34035 -2.05115,-1.13282 -2.05185,-2.68543 -0.002,-3.51675 0.007,-7.04326 0,-10.56 -0.003,-1.27681 0.0215,-3.24831 -1.87408,-2.7721 -1.29686,0.3258 -1.00546,2.07264 -1.00592,3.0921 -10e-4,3.19986 2e-4,6.40011 0,9.6 -8e-5,1.19746 0.24761,3.89166 -1.5874,3.69086 -1.44549,-0.15817 -1.2851,-1.67613 -1.29236,-2.73086 -0.0223,-3.24596 -2.4e-4,-6.65863 -2.4e-4,-9.92 0,-1.13918 0.44282,-3.74518 -1.28,-3.74518 -1.79987,0 -1.28,2.90685 -1.28,4.06518 0,3.15147 0.0213,6.46506 -2.5e-4,9.6 -0.009,1.27935 0.0453,3.06643 -1.87383,2.74345 -1.38481,-0.23305 -1.00592,-2.66102 -1.00592,-3.70345 0,-3.30579 0.007,-6.61447 0,-9.92 -0.002,-1.21499 0.12937,-2.94902 -1.5874,-2.81383 -1.57122,0.12372 -1.29209,1.99544 -1.2926,3.13383 -10e-4,3.19986 2e-4,6.40011 0,9.6 -8e-5,1.19746 0.24761,3.89166 -1.5874,3.69086 -1.53319,-0.16777 -1.2903,-1.93296 -1.2926,-3.05086 -0.007,-3.29226 2e-4,-6.62422 0,-9.92 -9e-5,-1.43077 0.37966,-3.75422 -1.558768,-3.62074 -1.225537,0.0844 -1.00123,2.63229 -1.00123,3.94074 0,1.83863 0.03883,3.66418 -0.0047,5.44 -0.03149,1.28514 -0.276269,2.12159 -0.310625,3.52 -0.03724,1.51582 0.410996,3.92539 -1.563457,3.69086 -1.436699,-0.17065 -1.00123,-2.98446 -1.00123,-4.01086 0,-3.30186 0.0225,-6.61975 -2.44e-4,-9.92 -0.0086,-1.25419 -0.03068,-2.56484 -1.587158,-2.62963 -1.598496,-0.0665 -1.29208,1.79972 -1.292598,2.94963 -0.0016,3.50165 0.0072,7.06206 0,10.56 -0.0026,1.27042 0.213662,2.74217 -1.292598,2.88395 -1.906914,0.17948 -1.587304,-2.03118 -1.587402,-3.52395 -2.25e-4,-3.45907 0.02347,-7.11977 -2.44e-4,-10.56 -0.0081,-1.17344 0.154111,-2.16073 -1.005674,-2.4521 -1.778906,-0.44691 -1.871103,1.32568 -1.874082,2.7721 -0.0074,3.57656 0.0074,7.30344 0,10.88 -0.0026,1.24191 0.259209,2.21377 -0.741484,2.68543 -1.592422,0.75056 -2.115508,-0.90722 -2.137031,-2.04568 -0.0432,-2.2856 -0.0015,-6.03667 -0.0015,-8.31975 0,-1.23382 0.0028,-1.83864 0,-3.2 -0.0022,-1.08987 -0.850342,-4.50924 -2.551108,-2.36692 -0.745562,0.93912 -0.328892,3.15822 -0.328892,4.28692 v 10.88 c 0,2.94553 0,3.83097 0,6.4 0,1.57619 0,3.79457 0,5.44 0,1.44447 -0.413325,4.6405 0.513086,5.56691 0.852842,0.85284 2.430615,0.51309 3.646914,0.51309 h 10.24 40.639825 c 6.418371,0 12.790721,0.32 19.200001,0.32 1.65454,0 5.62752,0.70631 6.84691,-0.51309 1.3251,-1.3251 0.51309,-5.99253 0.51309,-7.80691 0,-2.74662 0,-4.70452 0,-7.36 0,-3.20294 -0.17832,-7.33444 0.0496,-10.56 0.12807,-1.81227 -0.0343,-3.6229 0.023,-5.43852 0.0337,-1.06782 -0.35643,-2.05323 -1.62668,-1.80098 -1.50908,0.29966 -1.00591,2.82731 -1.00591,4.0395 0,3.25463 0.0221,6.68302 -2.5e-4,9.92 -0.008,1.17345 0.1541,2.16073 -1.00567,2.4521 -1.6167,0.40615 -1.85076,-0.97743 -1.8726,-2.13235 -0.0667,-3.52726 0.54311,-9.62637 -0.0489,-13.10099 -0.20087,-1.17902 -1.50883,-1.64184 -2.30692,-0.96963 -0.82122,0.6917 -0.19377,2.71055 -0.21357,3.83087 -0.0518,2.93054 -0.31077,5.97813 -0.3121,8.96 -5.3e-4,1.17231 0.3728,3.32269 -1.2926,3.45383 -2.09608,0.16505 -1.61534,-2.76218 -1.58272,-4.09383 0.0383,-1.5648 0.2768,-2.13935 0.31063,-3.52 0.0322,-1.31273 0.005,-3.11217 0.005,-4.48 0,-1.44856 0.57121,-4.98643 -1.87409,-4.3721 -1.29,0.32408 -1.00545,2.07172 -1.00591,3.0921 -0.001,3.19986 2e-4,6.40011 0,9.6 -8e-5,1.29517 0.33108,3.74518 -1.58741,3.74518 -1.74702,0 -1.29259,-2.59791 -1.29259,-3.74518 0,-3.29513 0.007,-6.6286 0,-9.92 -0.003,-1.2796 0.0589,-2.94347 -1.58741,-2.81383 -0.7623,0.06 -1.10842,0.42985 -1.24519,1.23259 -0.14075,0.82613 -0.0473,1.35998 -0.0474,2.22124 -1.6e-4,2.53266 0,6.30394 0,8.96 0,1.33133 0.36421,4.48311 -1.874091,4.0395 -1.30985,-0.2596 -1.00547,-2.09636 -1.00591,-3.0795 -0.001,-3.19903 0,-6.40073 0,-9.6 0,-1.13918 0.44283,-3.74518 -1.28,-3.74518 -1.73122,0 -1.28,2.61819 -1.28,3.74518 0,3.21929 -0.39654,5.31656 -0.31532,8.64 0.0336,1.37465 0.65017,4.26548 -1.55877,4.01086 -1.44064,-0.16605 -1.00591,-2.97871 -1.00591,-4.01086 0,-3.25619 0.0221,-6.68096 -2.5e-4,-9.92 -0.009,-1.25693 0.12693,-2.6288 -1.58716,-2.49383 -1.61675,0.12731 -1.29259,2.52346 -1.29259,3.77383 0,3.30216 0.0225,6.61933 -2.5e-4,9.92 -0.008,1.15528 -0.0225,2.78518 -1.58716,2.78518 -1.74703,0 -1.29259,-2.59791 -1.29259,-3.74518 0,-3.30579 0.007,-6.61447 0,-9.92 -0.002,-1.21147 0.11114,-2.94758 -1.58741,-2.81383 -1.49086,0.1174 -1.29032,1.70956 -1.29259,2.81383 -0.007,3.30045 2e-4,6.61805 0,9.92 -7e-5,1.15098 0.35538,3.50242 -1.28,3.69086 -2.07326,0.2389 -1.28,-5.88265 -1.28,-7.21086 V 7.5630585 c 0,-1.64733 -0.71837,-5.52466 0.32888,-6.84692001 0.79816,-1.00774 3.62305,-0.51308 4.79112,-0.51308 h 13.44 46.080001 c 4.13873,0 8.36921,-0.25639 12.48,0.22864 1.12109,0.13228 3.06644,-0.29294 3.96691,0.42025 1.28322,1.01633001 0.51309,5.78460001 0.51309,7.35111001 V 25.483058 c 0,2.24212 0.64638,5.42935 -0.19309,7.28691 -0.8892,1.96762 -2.65578,0.0496 -2.68543,-1.52691 -0.0662,-3.51917 0.53955,-9.32735 -0.0489,-12.78124 -0.21902,-1.28562 -1.76568,-1.71531 -2.50371,-0.78568 -1.17224,1.47657 -0.32888,3.83374 -0.32888,5.24692 0,1.66911 7.6e-4,5.69033 0,7.36 -3.6e-4,0.76822 0.11281,1.4404 -0.10172,2.22123 -0.20131,0.73269 -0.69701,1.23594 -1.48569,1.14963 -2.26111,-0.24743 -1.29259,-8.02132 -1.29259,-9.77086 0,-1.07743 -0.0358,-1.77563 0.0126,-2.88 0.0539,-1.23049 0.86586,-3.9428 -1.28,-3.77383 -1.55511,0.12246 -1.29209,1.99193 -1.29259,3.13383 -0.002,3.30426 0.001,6.61627 0,9.92 -5.7e-4,1.24205 0.28779,3.49284 -1.58741,3.34518 -1.64382,-0.12944 -1.29252,-2.48331 -1.29259,-3.66518 -2.2e-4,-3.30511 0.007,-6.61511 0,-9.92 -0.002,-1.10449 0.18572,-2.69742 -1.2926,-2.81383 -1.69149,-0.13319 -1.58492,1.6062 -1.5874,2.81383 -0.007,3.40884 0.002,6.8315 0,10.24 -5.7e-4,1.24205 0.28779,3.49284 -1.58741,3.34518 -1.45209,-0.11434 -1.29041,-1.96428 -1.29259,-3.02518 -0.007,-3.18641 0,-6.4102 0,-9.6 0,-1.13917 0.44283,-3.74518 -1.28,-3.74518 -1.8069,0 -1.25721,2.94296 -1.28469,4.06518 -0.0304,1.24114 -0.24291,1.83403 -0.30272,3.2 -0.11009,2.5144 0.0333,4.21105 -0.0141,6.71975 -0.0168,0.89132 0.01,2.28414 -1.27851,2.31975 -1.65395,0.0457 -1.27993,-2.49923 -1.28,-3.5995 -2.2e-4,-3.30511 0.007,-6.61511 0,-9.92 -0.002,-1.10449 0.1857,-2.69742 -1.2926,-2.81383 -1.81635,-0.14302 -1.58684,1.8869 -1.5874,3.13383 -0.002,3.39992 0.007,6.84395 0,10.24 -0.003,1.27233 0.19851,2.71593 -1.2926,2.8953 -1.8585,0.22358 -1.5868,-1.87354 -1.5874,-3.2153 -0.002,-3.57759 0.0243,-7.3132 -2.6e-4,-10.88 -0.009,-1.24272 0.0881,-2.46518 -1.29234,-2.46518 -1.76916,0 -1.58733,2.45797 -1.5874,3.74518 v 9.6 c -5.1e-4,1.1249 0.30041,2.81916 -1.00592,3.21062 -1.4074,0.42175 -1.85024,-1.06637 -1.8726,-2.25087 -0.0434,-2.29713 -0.001,-6.02405 -0.001,-8.31975 0,-1.50488 0.0659,-2.19781 -0.006,-3.83877 -0.0649,-1.47717 -1.58664,-2.85879 -2.37332,-1.49037 -0.33623,0.58488 -0.39017,1.31265 -0.39185,2.12914 -0.003,1.45229 0.21135,3.35188 0.21135,5.12 0,1.01244 0,1.86808 0,2.88 0,1.32377 0.0288,2.44936 -0.005,3.84 -0.0202,0.83915 -0.1502,1.38781 -0.16965,2.24 -0.0217,0.95187 0.14875,1.69308 0.16965,2.56 0.0366,1.51762 -0.17926,3.55137 -0.28668,5.12 -0.12574,1.83607 -0.84701,7.11544 0.48445,8.44691 0.99438,0.99438 3.60377,0.51309 4.92692,0.51309 h 13.12 c 14.86576,0 30.00279,-0.71387 44.79999,0.1358 4.17754,0.23988 8.3151,-0.0914 12.48,0.12148 1.3175,0.0673 4.14336,0.59266 5.24815,-0.26617 1.44269,-1.12152 0.83185,-5.1116 0.83185,-6.71111 v -19.2 c 0,-1.62268 0.917,-7.17103 -1.5874,-6.97383 -1.57121,0.12372 -1.29209,1.99544 -1.2926,3.13383 -0.002,3.40527 0.007,6.83694 0,10.24 -0.003,1.47298 0.15473,2.951 -1.5874,2.81383 -1.525,-0.12009 -1.29209,-2.00221 -1.2926,-3.13383 v -10.24 c -0.003,-1.42433 -0.033,-3.05743 -1.57136,-2.7595 -1.02485,0.19848 -1.22955,1.08764 -1.29457,2.11974 -0.20272,3.21801 -0.0141,6.67911 -0.0141,9.91976 0,1.15816 0.51844,4.06518 -1.29259,4.06518 -1.91643,0 -1.58733,-2.46717 -1.58741,-3.74518 -2.3e-4,-3.41288 0.0233,-6.82728 -2.5e-4,-10.24 -0.009,-1.29499 -0.0791,-2.74169 -1.55851,-2.4395 -1.31682,0.26896 -1.00116,2.28835 -1.00124,3.3995 -2.1e-4,3.35964 0.0228,6.89856 -2.5e-4,10.24 -0.009,1.24794 0.0158,2.78518 -1.58715,2.78518 -1.52017,0 -1.28992,-1.48528 -1.2926,-2.78518 -0.007,-3.61191 0.0246,-7.60385 -2.5e-4,-11.2 -0.009,-1.23839 0.0912,-2.62599 -1.58715,-2.49383 -1.36351,0.10737 -1.29019,1.65281 -1.2926,2.81383 -0.007,3.30045 0,6.61805 0,9.92 0,1.18897 0.46411,3.74518 -1.29259,3.74518 -1.6292,0 -1.57973,-1.70727 -1.58715,-2.78518 -0.007,-1.06553 -2.6e-4,-1.83697 -2.6e-4,-2.88 0,-1.98578 0,-4.66042 0,-6.72 0,-1.60325 0.63993,-4.06518 -1.27999,-4.06518 -1.54346,0 -1.28,2.86109 -1.28,4.06518 0,3.15147 0.0213,6.46507 -2.6e-4,9.6 -0.009,1.25985 0.13154,2.70677 -1.58715,2.7595 -1.68769,0.0518 -1.29259,-2.86046 -1.29259,-4.0395 0,-3.25619 0.0221,-6.68096 -2.6e-4,-9.92 -0.008,-1.09878 0.15643,-2.37975 -1.29234,-2.49383 -1.64422,-0.12947 -1.58487,1.58125 -1.5874,2.81383 -0.007,3.29224 2.1e-4,6.62423 0,9.92 -8e-5,1.15683 0.31939,3.51447 -1.2926,3.69086 -1.97037,0.21562 -1.58733,-2.43581 -1.5874,-3.69086 -1.4e-4,-1.95995 0,-4.15449 0,-6.08 0,-1.25524 0.008,-3.00761 -2.6e-4,-4.16 -0.005,-0.67725 0.0983,-1.75884 -0.5126,-2.22963 -1.55005,-1.19458 -2.03941,1.14432 -2.04689,2.22963 -0.0238,3.45467 0.13842,8.53814 -0.006,11.83876 -0.0584,1.3313 -1.72886,3.42042 -2.68074,1.49926 -0.88696,-1.78803 -0.19412,-5.25258 -0.19412,-7.25802 V 8.2030585 c 0,-1.54338 -0.76254,-6.3408 0.51308,-7.35111001 0.84117,-0.66622 2.6299,-0.32889 3.64692,-0.32889 h 9.6 c 12.28433,0 24.52728,0.32 36.79999,0.32 8.07188,0 17.30426,-0.67423 24.96,0.0543 0.91909,0.0875 1.667,0.23910001 2.56,0.26098001 1.01209,0.0248 2.82979,-0.34245001 3.51112,0.51778 1.1984,1.51309 0.16029,5.37403 0.0375,7.16692 -0.41967,6.1280995 -0.0286,12.4166495 -0.0286,18.5599995 0,1.62436 0.89155,6.94518 -1.5874,6.94518 -1.74701,0 -1.2926,-2.5979 -1.2926,-3.74518 0,-3.19988 0.001,-6.40016 0,-9.6 -5.2e-4,-1.14924 0.24639,-3.01265 -1.29259,-3.13383 -1.98748,-0.1565 -1.58731,2.07944 -1.58741,3.45383 -2.1e-4,3.19951 0.001,6.40045 0,9.6 -4.7e-4,1.05355 0.24448,2.88164 -1.00591,3.30814 -1.89006,0.64468 -1.87116,-1.56567 -1.87409,-2.98814 v -10.56 c -0.003,-1.39649 0.20975,-2.78519 -1.28,-2.78519 -1.52918,0 -1.27808,2.87621 -1.28,4.06519 -0.003,1.59125 -0.13437,2.14026 -0.26568,3.52 -0.16189,1.70112 -0.0422,4.28469 -0.0546,6.08 -0.009,1.31495 -0.22004,2.88046 -1.58715,2.73086 -1.72629,-0.18891 -1.34971,-2.41889 -1.28,-4.01086 0.0598,-1.36593 0.27231,-1.95882 0.30272,-3.2 0.0407,-1.66084 0.005,-4.02466 0.005,-5.76 0,-1.66646 0.54752,-3.62894 -1.29259,-3.77383 -1.56578,-0.1233 -1.5784,1.22478 -1.58715,2.49383 -0.0235,3.40687 0.0614,8.15979 -0.002,11.52 -0.0199,1.05775 -0.20147,2.85395 -1.8726,2.47654 -1.05162,-0.2375 -0.98637,-1.20149 -1.00443,-2.15679 -0.0512,-2.7083 -0.001,-7.21026 -0.001,-9.91975 0,-1.07548 0.51862,-3.9891 -1.00591,-4.3721 -2.07211,-0.52058 -1.87401,2.1205 -1.87409,3.4121 -9e-5,1.36552 0,1.96991 0,3.2 0,1.7494 1.2e-4,4.25159 0,6.08 -9e-5,1.53439 -0.52931,4.4949 -2.13851,3.50493 -1.44529,-0.88913 -0.86604,-8.02545 -0.68717,-9.90493 0.0904,-0.95037 0.23566,-1.52314 0.261,-2.56 0.0324,-1.32797 0.53935,-3.74519 -1.58272,-3.74519 -1.66203,0 -1.2926,2.85459 -1.2926,4.06519 0,2.37933 0.0509,5.72976 -0.005,8 -0.0243,0.99045 -0.0951,1.56405 -0.27977,2.55852 -0.19271,1.03765 -0.5549,1.8958 -1.59432,1.77234 -1.33685,-0.15879 -1.00123,-2.70047 -1.00123,-3.69086 0,-3.19988 0.001,-6.40016 0,-9.6 -5.2e-4,-1.14924 0.24641,-3.01265 -1.29259,-3.13383 -1.7986,-0.14163 -1.58481,1.55311 -1.58741,2.81383 -0.007,3.29224 2.2e-4,6.62423 0,9.92 -7e-5,1.21192 0.16743,3.88289 -1.5874,3.69086 -1.79584,-0.19651 -1.29252,-2.42145 -1.2926,-3.69086 -7e-5,-1.28565 0,-1.93146 0,-3.2 0,-2.12224 1.18987,-9.50519 -1.26765,-9.50519 -1.51434,0 -1.27141,2.69921 -1.29703,3.74519 -0.0338,1.38072 -0.27229,1.95516 -0.31063,3.52 -0.0489,1.99712 -0.005,5.14364 -0.005,7.04 0,1.10144 0,1.6947 0,2.88 0,2.68901 0,5.9012 0,8.64 0,1.48327 -0.67709,6.08847 0.51309,7.03111 1.82582,1.44607 8.02998,0.32888 10.36691,0.32888 h 18.24 c 3.21787,0 6.77787,-0.42808 9.92,0.32"
       id="path1" />
  </g>
</svg>
